<?xml version="1.0" encoding="UTF-8" standalone="no"?>
<svg
   version="1.0"
   width="64"
   height="64"
   id="svg3223"
   xmlns:xlink="http://www.w3.org/1999/xlink"
   xmlns="http://www.w3.org/2000/svg"
   xmlns:svg="http://www.w3.org/2000/svg"
   xmlns:rdf="http://www.w3.org/1999/02/22-rdf-syntax-ns#"
   xmlns:cc="http://creativecommons.org/ns#"
   xmlns:dc="http://purl.org/dc/elements/1.1/">
  <metadata
     id="metadata32658">
    <rdf:RDF>
      <cc:Work
         rdf:about="">
        <dc:format>image/svg+xml</dc:format>
        <dc:type
           rdf:resource="http://purl.org/dc/dcmitype/StillImage" />
      </cc:Work>
    </rdf:RDF>
  </metadata>
  <defs
     id="defs3225">
    <linearGradient
       id="linearGradient40880">
      <stop
         style="stop-color:#000000;stop-opacity:0.31999999;"
         offset="0"
         id="stop40876" />
      <stop
         style="stop-color:#000000;stop-opacity:0.34;"
         offset="1"
         id="stop40878" />
    </linearGradient>
    <linearGradient
       id="linearGradient10691">
      <stop
         id="stop10693"
         style="stop-color:#000000;stop-opacity:1"
         offset="0" />
      <stop
         id="stop10695"
         style="stop-color:#000000;stop-opacity:0"
         offset="1" />
    </linearGradient>
    <radialGradient
       cx="6.702713"
       cy="73.615715"
       r="7.228416"
       fx="6.702713"
       fy="73.615715"
       id="radialGradient2916"
       xlink:href="#linearGradient10691"
       gradientUnits="userSpaceOnUse"
       gradientTransform="matrix(4.0247163,0,0,1.281563,5.0474834,-41.177468)" />
    <linearGradient
       x1="63.9995"
       y1="3.1001"
       x2="63.9995"
       y2="122.8994"
       id="XMLID_4_"
       gradientUnits="userSpaceOnUse">
      <stop
         id="stop11"
         style="stop-color:#f2f2f2;stop-opacity:1"
         offset="0" />
      <stop
         id="stop13"
         style="stop-color:#d8d8d8;stop-opacity:1"
         offset="1" />
    </linearGradient>
    <linearGradient
       x1="64"
       y1="6.8743429"
       x2="64"
       y2="117.22547"
       id="linearGradient2912"
       xlink:href="#XMLID_4_"
       gradientUnits="userSpaceOnUse"
       gradientTransform="matrix(0.4958917,0,0,0.4955768,0.2869216,-0.304461)" />
    <linearGradient
       id="linearGradient5128">
      <stop
         id="stop5130"
         style="stop-color:#ffffff;stop-opacity:1"
         offset="0" />
      <stop
         id="stop5132"
         style="stop-color:#959595;stop-opacity:1"
         offset="1" />
    </linearGradient>
    <linearGradient
       x1="86.132919"
       y1="105.105"
       x2="84.63858"
       y2="20.895"
       id="linearGradient2909"
       xlink:href="#linearGradient5128"
       gradientUnits="userSpaceOnUse"
       gradientTransform="matrix(0.4255136,0,0,0.424537,4.7991039,3.716723)" />
    <linearGradient
       x1="63.9995"
       y1="21.941401"
       x2="63.9995"
       y2="104.0591"
       id="linearGradient2907"
       xlink:href="#XMLID_5_"
       gradientUnits="userSpaceOnUse"
       gradientTransform="matrix(0.4255136,0,0,0.424537,4.7991039,3.716723)"
       spreadMethod="pad" />
    <linearGradient
       x1="49.273136"
       y1="22.274775"
       x2="49.373875"
       y2="102.04791"
       id="linearGradient2904"
       xlink:href="#XMLID_6_"
       gradientUnits="userSpaceOnUse"
       gradientTransform="matrix(0.4910915,0,0,0.4899642,0.6021231,-0.776833)" />
    <linearGradient
       x1="63.9995"
       y1="21.941401"
       x2="63.9995"
       y2="104.0591"
       id="linearGradient2193"
       gradientUnits="userSpaceOnUse">
      <stop
         id="stop2195"
         style="stop-color:#dddddd;stop-opacity:1"
         offset="0" />
      <stop
         id="stop2197"
         style="stop-color:#e8e9ef;stop-opacity:1"
         offset="1" />
    </linearGradient>
    <linearGradient
       x1="63.9995"
       y1="21.941401"
       x2="63.9995"
       y2="104.0591"
       id="linearGradient2199"
       xlink:href="#linearGradient2193"
       gradientUnits="userSpaceOnUse"
       spreadMethod="pad">
      <stop
         id="stop2201"
         style="stop-color:#fcfcfd;stop-opacity:1"
         offset="0" />
      <stop
         id="stop2203"
         style="stop-color:#cccccc;stop-opacity:1"
         offset="1" />
    </linearGradient>
    <linearGradient
       x1="63.9995"
       y1="21.941401"
       x2="63.9995"
       y2="104.0591"
       id="XMLID_5_"
       xlink:href="#linearGradient2199"
       gradientUnits="userSpaceOnUse"
       spreadMethod="pad">
      <stop
         id="stop24"
         style="stop-color:#dadada;stop-opacity:1"
         offset="0" />
      <stop
         id="stop26"
         style="stop-color:#cccccc;stop-opacity:1"
         offset="1" />
    </linearGradient>
    <linearGradient
       x1="64"
       y1="21.523018"
       x2="64"
       y2="103.06695"
       id="XMLID_6_"
       xlink:href="#XMLID_5_"
       gradientUnits="userSpaceOnUse"
       spreadMethod="pad">
      <stop
         id="stop31"
         style="stop-color:#d9d9d9;stop-opacity:1"
         offset="0" />
      <stop
         id="stop33"
         style="stop-color:#cccccc;stop-opacity:1"
         offset="1" />
    </linearGradient>
    <linearGradient
       x1="64"
       y1="21.523018"
       x2="64"
       y2="103.06695"
       id="linearGradient2902"
       xlink:href="#XMLID_6_"
       gradientUnits="userSpaceOnUse"
       gradientTransform="matrix(0.4910915,0,0,0.4899642,0.6021231,-0.776833)"
       spreadMethod="pad" />
    <linearGradient
       xlink:href="#linearGradient40880"
       id="linearGradient40882"
       x1="47.389221"
       y1="1.7036358"
       x2="47.389221"
       y2="58.855122"
       gradientUnits="userSpaceOnUse" />
    <linearGradient
       xlink:href="#linearGradient5546"
       id="linearGradient2733"
       gradientUnits="userSpaceOnUse"
       gradientTransform="matrix(2.778977,0,0,2.778977,-4.71927,0.9254345)"
       x1="39.980453"
       y1="3.4715931"
       x2="39.980453"
       y2="14.369016" />
    <linearGradient
       y2="122.8994"
       x2="63.9995"
       y1="3.1001"
       x1="63.9995"
       gradientUnits="userSpaceOnUse"
       id="linearGradient5546">
      <stop
         id="stop5548"
         style="stop-color:#d8d8d8;stop-opacity:1;"
         offset="0" />
      <stop
         id="stop5550"
         style="stop-color:#ffffff;stop-opacity:1;"
         offset="1" />
    </linearGradient>
    <linearGradient
       xlink:href="#linearGradient2250"
       id="linearGradient2730"
       gradientUnits="userSpaceOnUse"
       gradientTransform="matrix(3.1641488,0,0,3.1641488,-13.72919,-16.758081)"
       x1="31.177404"
       y1="19.821514"
       x2="40.859177"
       y2="9.6568537" />
    <linearGradient
       id="linearGradient2250">
      <stop
         style="stop-color:#b9b9b9;stop-opacity:1;"
         offset="0"
         id="stop2252" />
      <stop
         style="stop-color:#ffffff;stop-opacity:0;"
         offset="1"
         id="stop2254" />
    </linearGradient>
    <linearGradient
       xlink:href="#linearGradient3087-462-170-890-278"
       id="linearGradient2727-611-236-922-438"
       gradientUnits="userSpaceOnUse"
       gradientTransform="matrix(2.778977,0,0,2.778977,-5.70179,-1.0395995)"
       x1="9.7503242"
       y1="32.28376"
       x2="16.915297"
       y2="39.443218" />
    <linearGradient
       id="linearGradient3087-462-170-890-278">
      <stop
         style="stop-color:#484848;stop-opacity:1;"
         offset="0"
         id="stop3193" />
      <stop
         id="stop3195"
         offset="0"
         style="stop-color:#878787;stop-opacity:1;" />
      <stop
         style="stop-color:#6b6b6b;stop-opacity:1;"
         offset="0"
         id="stop3197" />
      <stop
         id="stop3199"
         offset="0.75"
         style="stop-color:#4d4d4d;stop-opacity:1;" />
      <stop
         style="stop-color:#4e4e4e;stop-opacity:1;"
         offset="1"
         id="stop3201" />
    </linearGradient>
    <linearGradient
       xlink:href="#linearGradient2257-789-141-816-743"
       id="linearGradient2723-207-870-812-510"
       gradientUnits="userSpaceOnUse"
       gradientTransform="matrix(3.1871015,-0.08342361,0.08342361,3.1871015,-8.6874,-16.507509)"
       x1="12.004697"
       y1="35.688461"
       x2="10.650805"
       y2="33.194965" />
    <linearGradient
       id="linearGradient2257-789-141-816-743">
      <stop
         style="stop-color:#bababa;stop-opacity:1;"
         offset="0"
         id="stop3211" />
      <stop
         style="stop-color:#bababa;stop-opacity:0;"
         offset="1"
         id="stop3213" />
    </linearGradient>
    <linearGradient
       xlink:href="#linearGradient10691"
       id="linearGradient2719-69-752-179-525"
       gradientUnits="userSpaceOnUse"
       gradientTransform="matrix(2.7784359,-0.05481476,0.05481476,2.7784359,-6.88297,-3.8866433)"
       x1="14.017542"
       y1="36.942543"
       x2="15.415793"
       y2="38.268368" />
  </defs>
  <g
     id="g4094"
     transform="translate(0,1.99957)"
     style="display:inline">
    <path
       d="m 61.116324,53.165701 c -0.0016,5.115816 -13.02623,9.262729 -29.092323,9.262729 -16.066092,0 -29.0906912,-4.146913 -29.0923227,-9.262729 -0.00163,-5.116551 13.0239227,-9.264611 29.0923227,-9.264611 16.0684,0 29.093955,4.14806 29.092323,9.264611 z"
       id="path10689"
       style="display:inline;overflow:visible;visibility:visible;opacity:0.3;fill:url(#radialGradient2916);fill-opacity:1;fill-rule:nonzero;stroke:none;stroke-width:0.8;marker:none" />
    <path
       d="m 58.518772,23.74139 h -2.243344 c -0.605465,0 -1.305548,-0.503628 -1.498044,-1.07701 -0.01072,-0.02977 -1.39224,-3.371471 -1.39224,-3.371471 -0.284322,-0.571521 -0.146821,-1.420667 0.28106,-1.848495 l 1.586134,-1.585288 c 0.364491,-0.364583 0.565853,-0.851005 0.565853,-1.369515 0,-0.518043 -0.201362,-1.004465 -0.565853,-1.369049 L 49.007058,6.8793901 C 48.642567,6.5148062 48.15596,6.3139133 47.63719,6.3139133 c -0.518771,0 -1.005378,0.2008929 -1.36987,0.5654768 L 44.681183,8.4642137 C 44.253302,8.891576 43.403135,9.0292253 42.861993,8.7590425 42.831703,8.7450905 39.487428,7.364882 39.487428,7.364882 38.883361,7.1611985 38.379507,6.4617927 38.379507,5.856788 V 3.614414 C 38.378107,2.546238 37.508831,1.677561 36.440529,1.677561 h -8.831666 c -1.068767,0 -1.938046,0.868677 -1.938046,1.936853 v 2.242374 c 0,0.6050047 -0.503855,1.3048753 -1.077621,1.4969321 -0.02982,0.01116 -3.374104,1.3913712 -3.374104,1.3913712 -0.571901,0.284134 -1.422068,0.1464847 -1.849949,-0.2808776 L 17.783003,6.8793901 C 17.418047,6.5148062 16.931438,6.3139133 16.41267,6.3139133 c -0.518772,0 -1.005379,0.2013577 -1.36987,0.5654768 L 8.7970557,13.120562 c -0.7555484,0.755209 -0.7555484,1.983819 0,2.738564 l 1.5861403,1.585288 c 0.427413,0.427364 0.565379,1.276974 0.29504,1.818269 -0.01398,0.03023 -1.3955034,3.372399 -1.3955034,3.372399 -0.2036852,0.603609 -0.9033027,1.106772 -1.5087664,1.106772 H 6.1118524 C 5.043551,23.74139 3.592581,24.610067 3.592581,25.678241 v 8.825812 c 0,1.067711 0.869277,1.936388 1.938045,1.936388 h 2.2438065 c 0.6054641,0 1.3055464,0.503161 1.4975795,1.077011 0.011188,0.02975 1.392706,3.371469 1.392706,3.371469 0.284324,0.571521 0.14636,1.421132 -0.281057,1.848961 L 8.7975223,44.32317 c -0.7555482,0.754744 -0.7555482,1.98382 0,2.738563 l 6.2457447,6.241182 c 0.364491,0.364581 0.851097,0.565469 1.369869,0.565469 0.519235,0 1.005841,-0.200888 1.370334,-0.565469 l 1.586139,-1.584831 c 0.427881,-0.427365 1.278047,-0.565481 1.819188,-0.294826 0.03029,0.01349 3.374565,1.394161 3.374565,1.394161 0.6036,0.203683 1.107455,0.902623 1.107455,1.508094 v 2.241906 c 0,1.068174 0.869279,1.936859 1.938046,1.936859 h 8.831202 c 1.068299,0 1.937578,-0.868685 1.937578,-1.936859 v -2.241906 c 0,-0.605471 0.503855,-1.304878 1.078087,-1.497405 0.02983,-0.01069 3.374104,-1.391367 3.374104,-1.391367 0.571904,-0.284138 1.422536,-0.146022 1.849949,0.280883 l 1.586141,1.584819 c 0.364489,0.364592 0.851098,0.565475 1.369867,0.565475 0.518771,0 1.005377,-0.200883 1.369869,-0.565475 l 6.245282,-6.241174 c 0.364494,-0.364121 0.565845,-0.850541 0.565845,-1.369051 0,-0.518508 -0.201351,-1.00493 -0.565845,-1.369048 l -1.58614,-1.585288 c -0.427877,-0.427363 -0.565384,-1.27744 -0.295042,-1.817805 0.01398,-0.03069 1.395504,-3.3724 1.395504,-3.3724 0.203687,-0.604075 0.903307,-1.107236 1.508775,-1.107236 h 2.243337 c 1.06876,0 1.938041,-0.868677 1.938041,-1.936388 V 25.678241 C 60.456916,24.610067 59.58754,23.74139 58.518772,23.74139 Z M 32.024695,38.96881 c -4.932738,0 -8.945395,-4.003446 -8.945395,-8.924398 0,-4.921416 4.012657,-8.924863 8.945395,-8.924863 4.932271,0 8.944932,4.003447 8.944932,8.924863 0,4.920952 -4.012661,8.924398 -8.944932,8.924398 z"
       id="path8"
       style="fill:url(#linearGradient2912);fill-opacity:1;stroke:url(#linearGradient40882);stroke-width:0.993953;stroke-linecap:round;stroke-linejoin:round;stroke-miterlimit:4;stroke-dasharray:none;stroke-opacity:1" />
    <path
       d="m 32.03198,12.799692 c -9.761708,0 -17.703497,7.923558 -17.703497,17.662862 0,9.7393 7.941789,17.662859 17.703497,17.662859 9.76171,0 17.703498,-7.923559 17.703498,-17.662859 0,-9.739304 -7.941788,-17.662862 -17.703498,-17.662862 z m 0,30.65369 c -7.191607,0 -13.020719,-5.815306 -13.020719,-12.990828 0,-7.175525 5.829112,-12.990832 13.020719,-12.990832 7.191607,0 13.020718,5.81573 13.020718,12.990832 0,7.175097 -5.829111,12.990828 -13.020718,12.990828 z"
       id="path28"
       style="fill:url(#linearGradient2907);stroke:url(#linearGradient2909);stroke-width:0.993953;stroke-miterlimit:4;stroke-dasharray:none" />
    <path
       d="m 32.03198,14.902022 c -8.407977,0 -15.223837,6.800215 -15.223837,15.188894 0,8.388677 6.81586,15.18889 15.223837,15.18889 8.407977,0 15.223837,-6.800213 15.223837,-15.18889 0,-8.388679 -6.81586,-15.188894 -15.223837,-15.188894 z m 0,25.23316 c -5.560628,0 -10.067376,-4.496892 -10.067376,-10.044266 0,-5.547867 4.506748,-10.044269 10.067376,-10.044269 5.560139,0 10.067375,4.496402 10.067375,10.044269 0,5.547374 -4.507236,10.044266 -10.067375,10.044266 z"
       id="path35"
       style="fill:url(#linearGradient2902);stroke:url(#linearGradient2904);stroke-width:0.993953;stroke-miterlimit:4;stroke-dasharray:none;stroke-opacity:1" />
  </g>
  <g
     id="layer1-0"
     transform="matrix(1.2860511,0,0,1.2859789,0.90142951,1.0401794)"
     style="stroke-width:0.777596">
    <path
       transform="scale(0.375)"
       id="path2144"
       d="M 57.46034,78.563106 C 60.09779,76.302436 99.49237,36.01002 99.49237,36.01002 L 108.11576,33.978812 121.85964,13.56114 112.22546,5.0805574 92.791156,21.084881 91.96938,29.529147 51.67421,71.387486 c -1.91054,1.91055 3.35452,9.25985 5.78613,7.17562 z"
       style="display:inline;overflow:visible;visibility:visible;fill:url(#linearGradient2733);fill-opacity:1;fill-rule:nonzero;stroke:#888a85;stroke-width:2.07359;stroke-linecap:butt;stroke-linejoin:round;stroke-miterlimit:4;stroke-dasharray:none;stroke-dashoffset:0;stroke-opacity:1;marker:none;marker-start:none;marker-mid:none;marker-end:none" />
    <path
       transform="scale(0.375)"
       style="display:inline;overflow:visible;visibility:visible;opacity:0.54;fill:none;fill-opacity:1;fill-rule:nonzero;stroke:url(#linearGradient2730);stroke-width:2.07359;stroke-linecap:butt;stroke-linejoin:round;stroke-miterlimit:4;stroke-dasharray:none;stroke-dashoffset:0;stroke-opacity:1;marker:none;marker-start:none;marker-mid:none;marker-end:none"
       d="m 57.299388,75.787667 c 2.04648,-1.75413 41.24656,-41.779861 41.24656,-41.779861 l 8.327192,-1.779798 12.30838,-18.366627 -6.94147,-6.3785352 -17.309381,14.8619022 -0.97805,8.101082 -40.37016,41.981419 c -1.48246,1.48246 1.83016,4.977648 3.716929,3.360418 z"
       id="path3085" />
    <path
       transform="scale(0.375)"
       id="path2142"
       d="m 13.05631,121.23539 c 4.16588,4.6362 15.73748,6.73383 20.86897,-2.24627 2.23739,-3.91543 6.62554,-14.88038 26.20272,-32.499824 3.28801,-2.95586 6.77099,-9.71754 3.81832,-13.36495 l -7.64218,-7.64218 c -3.12635,-3.47372 -11.81625,-1.8534 -15.38148,3.00871 -10.62761,14.54304 -27.9903,26.11967 -31.90573,27.51804 -7.49245,2.67587 -6.64917,13.720224 -1.69226,18.973774 z"
       style="display:inline;overflow:visible;visibility:visible;fill:url(#linearGradient2727-611-236-922-438);fill-opacity:1;fill-rule:nonzero;stroke:#373737;stroke-width:2.07359;stroke-linecap:round;stroke-linejoin:round;stroke-miterlimit:4;stroke-dasharray:none;stroke-dashoffset:0;stroke-opacity:1;marker:none;marker-start:none;marker-mid:none;marker-end:none" />
    <path
       transform="matrix(0.6773762,0,0,0.6773762,5.714295,7.065789)"
       d="m 20.771261,28.20101 a 1.767767,1.767767 0 1 1 -3.535534,0 1.767767,1.767767 0 1 1 3.535534,0 z"
       id="path3101"
       style="display:inline;overflow:visible;visibility:visible;opacity:0.602273;fill:#bababa;fill-opacity:1;fill-rule:nonzero;stroke:none;stroke-width:1.14796;stroke-linecap:butt;stroke-linejoin:miter;stroke-miterlimit:4;stroke-dasharray:none;stroke-dashoffset:0;stroke-opacity:1;marker:none;marker-start:none;marker-mid:none;marker-end:none" />
    <path
       transform="scale(0.375)"
       id="path3103"
       d="m 45.37364,76.979216 c 0,0 -22.6866,23.097054 -33.31421,27.012494"
       style="display:inline;overflow:visible;visibility:visible;fill:none;fill-opacity:1;fill-rule:nonzero;stroke:url(#linearGradient2723-207-870-812-510);stroke-width:2.07359;stroke-linecap:round;stroke-linejoin:round;stroke-miterlimit:4;stroke-dasharray:none;stroke-dashoffset:0;stroke-opacity:1;marker:none;marker-start:none;marker-mid:none;marker-end:none" />
    <path
       transform="scale(0.375)"
       style="display:inline;overflow:visible;visibility:visible;opacity:0.198864;fill:none;fill-opacity:1;fill-rule:nonzero;stroke:#bababa;stroke-width:2.07359;stroke-linecap:butt;stroke-linejoin:miter;stroke-miterlimit:4;stroke-dasharray:none;stroke-dashoffset:0;stroke-opacity:1;marker:none;marker-start:none;marker-mid:none;marker-end:none"
       d="m 13.288374,118.43304 c 4.590457,5.94701 15.403857,7.09461 19.251534,-1.29708 2.14972,-4.68849 10.31873,-17.957512 25.70903,-31.808782 3.118694,-2.646941 6.875665,-9.271564 3.084433,-11.841774 l -5.951395,-5.98169 C 53.134786,64.612288 45.889793,65.103073 42.399013,70.083789 34.044283,81.516589 15.230483,96.3112 10.681925,97.518609 3.653554,99.38428 4.9722073,109.11652 8.4780009,112.97549 Z"
       id="path2270" />
    <path
       transform="scale(0.375)"
       id="path2247"
       d="m 52.16295,82.156446 c 0,0 -23.17032,20.938454 -28.20445,34.362804"
       style="display:inline;overflow:visible;visibility:visible;opacity:0.278409;fill:none;fill-opacity:1;fill-rule:nonzero;stroke:url(#linearGradient2719-69-752-179-525);stroke-width:2.07359;stroke-linecap:round;stroke-linejoin:round;stroke-miterlimit:4;stroke-dasharray:none;stroke-dashoffset:0;stroke-opacity:1;marker:none;marker-start:none;marker-mid:none;marker-end:none" />
  </g>
</svg>
