<?xml version="1.0" encoding="UTF-8" standalone="no"?>
<svg
   version="1.1"
   width="64"
   height="64"
   id="svg3823"
   xmlns:xlink="http://www.w3.org/1999/xlink"
   xmlns="http://www.w3.org/2000/svg"
   xmlns:svg="http://www.w3.org/2000/svg"
   xmlns:rdf="http://www.w3.org/1999/02/22-rdf-syntax-ns#"
   xmlns:cc="http://creativecommons.org/ns#"
   xmlns:dc="http://purl.org/dc/elements/1.1/">
  <defs
     id="defs3825">
    <linearGradient
       id="linearGradient5071-7-3-1">
      <stop
         id="stop5073-2-9-0"
         style="stop-color:#000000;stop-opacity:1"
         offset="0" />
      <stop
         id="stop5075-2-1-6"
         style="stop-color:#000000;stop-opacity:0"
         offset="1" />
    </linearGradient>
    <linearGradient
       xlink:href="#linearGradient259-942"
       id="linearGradient4240"
       gradientUnits="userSpaceOnUse"
       gradientTransform="matrix(0.21391347,0,0,0.22440862,-11.16175,-1023.8148)"
       x1="108.26451"
       y1="110.28094"
       x2="25.817675"
       y2="14.029031" />
    <linearGradient
       id="linearGradient259-942">
      <stop
         id="stop3802"
         style="stop-color:#ffffff;stop-opacity:1"
         offset="0" />
      <stop
         id="stop3804"
         style="stop-color:#e0e0e0;stop-opacity:1"
         offset="1" />
    </linearGradient>
    <linearGradient
       xlink:href="#linearGradient4157-401-351"
       id="linearGradient4242"
       gradientUnits="userSpaceOnUse"
       gradientTransform="matrix(0.19011067,0,0,0.19150238,-12.012295,-1018.4951)"
       x1="28.938274"
       y1="17.33289"
       x2="105.36545"
       y2="92.823723" />
    <linearGradient
       id="linearGradient4157-401-351">
      <stop
         id="stop3790"
         style="stop-color:#262626;stop-opacity:1"
         offset="0" />
      <stop
         id="stop3792"
         style="stop-color:#828282;stop-opacity:1"
         offset="1" />
    </linearGradient>
    <linearGradient
       xlink:href="#linearGradient3610-302"
       id="linearGradient4244"
       gradientUnits="userSpaceOnUse"
       gradientTransform="matrix(0.43158206,0,0,0.55945501,11.268799,-992.38851)"
       x1="-24.032034"
       y1="-13.090545"
       x2="-24.097931"
       y2="-40.163883" />
    <linearGradient
       id="linearGradient3610-302">
      <stop
         id="stop3796"
         style="stop-color:#333333;stop-opacity:1"
         offset="0" />
      <stop
         id="stop3798"
         style="stop-color:#292929;stop-opacity:1"
         offset="1" />
    </linearGradient>
    <linearGradient
       xlink:href="#linearGradient259-942"
       id="linearGradient4206"
       gradientUnits="userSpaceOnUse"
       gradientTransform="matrix(0.21391347,0,0,0.22440862,-26.427505,-1037.0725)"
       x1="108.26451"
       y1="110.28094"
       x2="25.817675"
       y2="14.029031" />
    <linearGradient
       xlink:href="#linearGradient4157-401-351"
       id="linearGradient4208"
       gradientUnits="userSpaceOnUse"
       gradientTransform="matrix(0.19011067,0,0,0.19150238,-27.311555,-1031.7875)"
       x1="28.938274"
       y1="17.33289"
       x2="105.36545"
       y2="92.823723" />
    <linearGradient
       xlink:href="#linearGradient3610-302"
       id="linearGradient4210"
       gradientUnits="userSpaceOnUse"
       gradientTransform="matrix(0.43158206,0,0,0.55945501,-4.0304601,-1005.6809)"
       x1="-24.032034"
       y1="-13.090545"
       x2="-24.097931"
       y2="-40.163883" />
    <linearGradient
       id="linearGradient5348-8">
      <stop
         id="stop5350-1"
         style="stop-color:#eeeeec;stop-opacity:0.06722689;"
         offset="0" />
      <stop
         id="stop5354-0"
         style="stop-color:#3c3c3c;stop-opacity:0.84033614;"
         offset="1" />
    </linearGradient>
    <linearGradient
       id="linearGradient5464-4">
      <stop
         id="stop5466-9"
         style="stop-color:#989898;stop-opacity:1;"
         offset="0" />
      <stop
         offset="0.57266599"
         style="stop-color:#b0b0b0;stop-opacity:1;"
         id="stop5468-9" />
      <stop
         id="stop5470-2"
         style="stop-color:#e5e5e5;stop-opacity:1;"
         offset="1" />
    </linearGradient>
    <linearGradient
       id="linearGradient5306-3">
      <stop
         offset="0"
         style="stop-color:#989898;stop-opacity:1;"
         id="stop5308-6" />
      <stop
         id="stop5320-6"
         style="stop-color:#b0b0b0;stop-opacity:1;"
         offset="0.33073017" />
      <stop
         offset="1"
         style="stop-color:#e5e5e5;stop-opacity:1;"
         id="stop5310-7" />
    </linearGradient>
    <linearGradient
       id="linearGradient3967-4">
      <stop
         offset="0"
         style="stop-color:#f9f9f6;stop-opacity:1;"
         id="stop3969-6" />
      <stop
         offset="0.50909019"
         style="stop-color:#dddddc;stop-opacity:1;"
         id="stop3971-9" />
      <stop
         offset="1"
         style="stop-color:#2f2f2f;stop-opacity:1;"
         id="stop3973-6" />
    </linearGradient>
    <linearGradient
       id="linearGradient5272-0">
      <stop
         offset="0"
         style="stop-color:#eeeeec;stop-opacity:1"
         id="stop5274-9" />
      <stop
         offset="0.57695335"
         style="stop-color:#cacac9;stop-opacity:1"
         id="stop5276-9" />
      <stop
         offset="1"
         style="stop-color:#6b6b6b;stop-opacity:1"
         id="stop5278-5" />
    </linearGradient>
    <linearGradient
       id="linearGradient3584-1">
      <stop
         id="stop3586-7"
         style="stop-color:#929292;stop-opacity:1;"
         offset="0" />
      <stop
         id="stop3588-3"
         style="stop-color:#d4d4d4;stop-opacity:1;"
         offset="1" />
    </linearGradient>
    <linearGradient
       id="linearGradient3526-5">
      <stop
         id="stop3528-4"
         style="stop-color:#d1d1d1;stop-opacity:1"
         offset="0" />
      <stop
         id="stop3530-3"
         style="stop-color:#959594;stop-opacity:1"
         offset="1" />
    </linearGradient>
    <linearGradient
       id="linearGradient3740-9">
      <stop
         id="stop3743-4"
         style="stop-color:#8b7835;stop-opacity:1;"
         offset="0" />
      <stop
         id="stop3771-6"
         style="stop-color:#7c571f;stop-opacity:1;"
         offset="0.37135857" />
      <stop
         id="stop3745-2"
         style="stop-color:#5c3d0a;stop-opacity:1;"
         offset="0.68556082" />
      <stop
         id="stop3747-3"
         style="stop-color:#483816;stop-opacity:1"
         offset="1" />
    </linearGradient>
    <linearGradient
       id="linearGradient5236-7">
      <stop
         style="stop-color:#ffffff;stop-opacity:1;"
         offset="0"
         id="stop5238-4" />
      <stop
         style="stop-color:#ffffff;stop-opacity:0"
         offset="1"
         id="stop5240-3" />
    </linearGradient>
    <linearGradient
       id="linearGradient3584-0-9">
      <stop
         id="stop3586-1-3"
         style="stop-color:#5f5f5f;stop-opacity:1"
         offset="0" />
      <stop
         id="stop3588-6-2"
         style="stop-color:#c6c6c6;stop-opacity:1"
         offset="1" />
    </linearGradient>
    <linearGradient
       xlink:href="#linearGradient259-942"
       id="linearGradient1"
       gradientUnits="userSpaceOnUse"
       gradientTransform="matrix(0.21391347,0,0,0.22440862,-11.16175,-1023.8148)"
       x1="108.26451"
       y1="110.28094"
       x2="25.817675"
       y2="14.029031" />
    <linearGradient
       xlink:href="#linearGradient4157-401-351"
       id="linearGradient2"
       gradientUnits="userSpaceOnUse"
       gradientTransform="matrix(0.19011067,0,0,0.19150238,-12.012295,-1018.4951)"
       x1="28.938274"
       y1="17.33289"
       x2="105.36545"
       y2="92.823723" />
    <linearGradient
       xlink:href="#linearGradient3610-302"
       id="linearGradient3"
       gradientUnits="userSpaceOnUse"
       gradientTransform="matrix(0.43158206,0,0,0.55945501,11.268799,-992.38851)"
       x1="-24.032034"
       y1="-13.090545"
       x2="-24.097931"
       y2="-40.163883" />
    <filter
       color-interpolation-filters="sRGB"
       id="filter3955-3-3"
       x="-0.027580627"
       width="1.0551613"
       y="-0.12641121"
       height="1.2528224">
      <feGaussianBlur
         stdDeviation="0.33519833"
         id="feGaussianBlur3957-5-6" />
    </filter>
    <filter
       color-interpolation-filters="sRGB"
       id="filter5342-7-3"
       x="-0.011305139"
       y="-0.05181522"
       width="1.0226103"
       height="1.1036304">
      <feGaussianBlur
         stdDeviation="0.077699185"
         id="feGaussianBlur5344-2-5" />
    </filter>
    <radialGradient
       xlink:href="#linearGradient5306-3"
       id="radialGradient5727-1"
       gradientUnits="userSpaceOnUse"
       gradientTransform="matrix(0.24229937,0.27233706,-0.31629337,0.28140745,34.203672,981.32359)"
       cx="106.30455"
       cy="66.880486"
       fx="106.30455"
       fy="66.880486"
       r="15.569839" />
    <radialGradient
       xlink:href="#linearGradient5272-0"
       id="radialGradient5721-0"
       gradientUnits="userSpaceOnUse"
       gradientTransform="matrix(0.18053105,0.66518635,-0.62136481,0.16863792,36.861187,1029.3116)"
       cx="-7.9468822"
       cy="26.682461"
       fx="-7.9468822"
       fy="26.682461"
       r="32.000408" />
    <filter
       x="-0.056300853"
       y="-0.1125809"
       width="1.1126017"
       height="1.2251618"
       color-interpolation-filters="sRGB"
       id="filter3550-0-7">
      <feGaussianBlur
         stdDeviation="1.3737999"
         id="feGaussianBlur3552-8-9" />
    </filter>
    <radialGradient
       xlink:href="#linearGradient3740-9"
       id="radialGradient5713-2"
       gradientUnits="userSpaceOnUse"
       gradientTransform="matrix(0.50108728,-1.2355755e-8,0,0.18913207,19.757128,1020.1258)"
       cx="8.4375"
       cy="32.535023"
       fx="8.4375"
       fy="32.535023"
       r="26.40625" />
    <filter
       color-interpolation-filters="sRGB"
       id="filter5396-0-2"
       x="-0.15666759"
       width="1.3133352"
       y="-0.52928241"
       height="2.0585648">
      <feGaussianBlur
         stdDeviation="1.4424573"
         id="feGaussianBlur5398-7-2" />
    </filter>
    <linearGradient
       xlink:href="#linearGradient5236-7"
       id="linearGradient5671"
       gradientUnits="userSpaceOnUse"
       x1="23.476465"
       y1="43.138641"
       x2="23.388077"
       y2="39.335373" />
    <filter
       id="filter5268-1-7"
       x="-0.052338459"
       width="1.1046769"
       y="-0.17681912"
       height="1.3536382"
       color-interpolation-filters="sRGB">
      <feGaussianBlur
         stdDeviation="0.48188649"
         id="feGaussianBlur5270-2-3" />
    </filter>
    <filter
       color-interpolation-filters="sRGB"
       id="filter3615-8-6"
       x="-0.031777636"
       y="-0.098058475"
       width="1.0635553"
       height="1.196117">
      <feGaussianBlur
         stdDeviation="0.655"
         id="feGaussianBlur3617-0-1" />
    </filter>
    <filter
       id="filter5300-7-2"
       x="-0.050551117"
       width="1.1011022"
       y="-0.35425938"
       height="1.7580432"
       color-interpolation-filters="sRGB">
      <feGaussianBlur
         stdDeviation="0.21027346"
         id="feGaussianBlur5302-7-9" />
    </filter>
    <filter
       color-interpolation-filters="sRGB"
       id="filter5518-0-9"
       x="-1.0310705"
       width="3.0738417"
       y="-0.14452719"
       height="1.2990401">
      <feGaussianBlur
         stdDeviation="1.5542331"
         id="feGaussianBlur5520-7-4" />
    </filter>
    <filter
       color-interpolation-filters="sRGB"
       id="filter4172-8-7"
       x="-0.12152142"
       width="1.2849246"
       y="-0.081702028"
       height="1.1633962">
      <feGaussianBlur
         stdDeviation="0.46063742"
         id="feGaussianBlur4174-2-8" />
    </filter>
    <filter
       color-interpolation-filters="sRGB"
       id="filter4157-0-4"
       x="-0.31377614"
       width="1.6648386"
       y="-0.20947725"
       height="1.4189008">
      <feGaussianBlur
         stdDeviation="1.1741335"
         id="feGaussianBlur4159-7-5" />
    </filter>
    <filter
       id="filter5623-0"
       x="-0.45875237"
       width="2.0214874"
       y="-0.28086079"
       height="1.5620582">
      <feGaussianBlur
         stdDeviation="2.3671875"
         id="feGaussianBlur5625-3" />
    </filter>
    <linearGradient
       xlink:href="#linearGradient5348-8"
       id="linearGradient5"
       gradientUnits="userSpaceOnUse"
       x1="-14.991652"
       y1="16.764517"
       x2="-14.991652"
       y2="11.122693" />
    <linearGradient
       xlink:href="#linearGradient5464-4"
       id="linearGradient6"
       gradientUnits="userSpaceOnUse"
       gradientTransform="matrix(0.39034596,0,0,0.33710574,-1.696235,1006.9432)"
       x1="94.203323"
       y1="65.082436"
       x2="106.09794"
       y2="67.957436" />
    <linearGradient
       xlink:href="#linearGradient3967-4"
       id="linearGradient7"
       gradientUnits="userSpaceOnUse"
       x1="-13.724936"
       y1="20.627558"
       x2="-13.950117"
       y2="6.1716137" />
    <linearGradient
       xlink:href="#linearGradient3584-1"
       id="linearGradient8"
       gradientUnits="userSpaceOnUse"
       gradientTransform="matrix(0.4344347,0,0,0.47777721,-13.135377,1017.0645)"
       x1="117.30334"
       y1="55.03125"
       x2="53.302517"
       y2="2.3599293" />
    <linearGradient
       xlink:href="#linearGradient3526-5"
       id="linearGradient9"
       gradientUnits="userSpaceOnUse"
       gradientTransform="matrix(0.41723817,0,0,0.28467429,21.523353,1018.2247)"
       x1="5.6835618"
       y1="16.365782"
       x2="35.032936"
       y2="16.365782"
       spreadMethod="reflect" />
    <linearGradient
       xlink:href="#linearGradient5071-7-3-1"
       id="linearGradient10"
       gradientUnits="userSpaceOnUse"
       x1="23.476465"
       y1="43.138641"
       x2="23.388077"
       y2="39.335373" />
    <linearGradient
       xlink:href="#linearGradient5236-7"
       id="linearGradient11"
       gradientUnits="userSpaceOnUse"
       gradientTransform="translate(-64.302516,-0.03124965)"
       x1="87.050232"
       y1="53.75"
       x2="87.050232"
       y2="41.729839" />
    <linearGradient
       xlink:href="#linearGradient5236-7"
       id="linearGradient12"
       gradientUnits="userSpaceOnUse"
       gradientTransform="matrix(0.43008487,0,0,0.32268549,21.449466,1018.0049)"
       x1="-1.937054"
       y1="0.98801559"
       x2="-1.937054"
       y2="31.826666" />
    <linearGradient
       xlink:href="#linearGradient3584-0-9"
       id="linearGradient13"
       gradientUnits="userSpaceOnUse"
       gradientTransform="matrix(0.93989449,0,0,1.01253,1.2738333,1002.0242)"
       x1="21.766512"
       y1="47.292023"
       x2="19.958447"
       y2="34.770805" />
  </defs>
  <metadata
     id="metadata3828">
    <rdf:RDF>
      <cc:Work
         rdf:about="">
        <dc:format>image/svg+xml</dc:format>
        <dc:type
           rdf:resource="http://purl.org/dc/dcmitype/StillImage" />
      </cc:Work>
    </rdf:RDF>
  </metadata>
  <g
     id="layer1"
     transform="matrix(1.3058337,0,0,1.3060226,3.6599898,-1310.7185)"
     style="stroke-width:0.76574">
    <g
       transform="translate(35.803729,6.6654395)"
       id="g4234"
       style="display:inline;stroke-width:0.76574">
      <path
         id="rect4236"
         style="fill:url(#linearGradient1);stroke:#b3b3b3;stroke-linecap:round;stroke-opacity:0.968627"
         transform="matrix(-0.99999656,0.00262257,-6.3478256e-4,-0.9999998,0,0)"
         d="m -6.3105853,-1020.3002 18.3790953,0.048 -0.01409,22.20475 -18.3790955,-0.0482 z" />
      <path
         id="rect4238"
         style="fill:url(#linearGradient2);stroke:url(#linearGradient3);stroke-width:0.765748;stroke-linecap:round"
         transform="matrix(-0.99998808,0.00488177,0.00187765,-0.99999824,0,0)"
         d="m -7.3324732,-1014.9613 15.3162089,0.075 0.028754,15.31383 -15.3162089,-0.0748 z" />
    </g>
    <g
       id="g4224"
       transform="translate(22.156628,8.680403)"
       style="display:inline;stroke-width:0.76574">
      <path
         id="rect4148"
         style="fill:url(#linearGradient4240);stroke:#b3b3b3;stroke-linecap:round;stroke-opacity:0.968627"
         transform="matrix(-0.99999656,0.00262257,-6.3478256e-4,-0.9999998,0,0)"
         d="m -7.7048009,-1020.586 18.3790959,0.048 -0.01409,22.20321 -18.3791002,-0.0482 z" />
      <path
         id="rect4150"
         style="fill:url(#linearGradient4242);stroke:url(#linearGradient4244);stroke-width:0.765748;stroke-linecap:round"
         transform="matrix(-0.99998808,0.00488177,0.00187765,-0.99999824,0,0)"
         d="m -8.7274245,-1015.2502 15.3162089,0.075 0.028753,15.31383 -15.3162089,-0.0748 z" />
    </g>
    <g
       id="g4202"
       transform="translate(-2.0905711,-2.4920061)"
       style="display:inline;stroke-width:0.76574">
      <path
         id="rect3580"
         style="fill:url(#linearGradient4206);stroke:#b3b3b3;stroke-linecap:round;stroke-opacity:0.968627"
         transform="matrix(-0.99999656,0.00262257,-6.3478256e-4,-0.9999998,0,0)"
         d="m -20.456558,-1034.0889 18.3790957,0.048 -0.014095,22.2048 -18.3790957,-0.048 z" />
      <path
         id="rect3582"
         style="fill:url(#linearGradient4208);stroke:url(#linearGradient4210);stroke-width:0.765748;stroke-linecap:round"
         transform="matrix(-0.99998808,0.00488177,0.00187765,-0.99999824,0,0)"
         d="m -21.51327,-1028.7821 15.3162091,0.075 0.028754,15.3138 -15.3162081,-0.075 z" />
    </g>
    <g
       id="g6347"
       style="display:inline;stroke-width:0.771048"
       transform="matrix(0.99316529,0,0,0.99306352,-2.0548629,7.7167118)">
      <path
         transform="matrix(1.604027,0,0,1.9370943,46.463562,1018.848)"
         d="m 0.53033066,13.528544 c 0,1.75736 -6.52951406,3.181981 -14.58407766,3.181981 -8.054564,0 -14.584078,-1.424621 -14.584078,-3.181981 0,-1.757359 6.529514,-3.18198 14.584078,-3.18198 8.0545636,0 14.58407766,1.424621 14.58407766,3.18198 z"
         id="path3953-0"
         style="opacity:0.25;fill:#000000;fill-opacity:1;stroke:none;stroke-width:0.768174;filter:url(#filter3955-3-3)" />
      <path
         style="opacity:0.784314;fill:url(#linearGradient5);fill-opacity:1;stroke:none;stroke-width:0.771048"
         id="path5346-6"
         d="m 0.53033066,13.528544 c 0,1.75736 -6.52951406,3.181981 -14.58407766,3.181981 -8.054564,0 -14.584078,-1.424621 -14.584078,-3.181981 0,-1.757359 6.529514,-3.18198 14.584078,-3.18198 8.0545636,0 14.58407766,1.424621 14.58407766,3.18198 z"
         transform="matrix(1.6124378,0,0,2.541313,46.671,1007.1148)" />
      <path
         style="fill:none;stroke:#828282;stroke-width:0.286544;stroke-linecap:round;stroke-linejoin:round;stroke-miterlimit:4;stroke-dasharray:none;stroke-opacity:1;filter:url(#filter5342-7-3)"
         id="path5304-3"
         d="m 0.53033066,13.528544 c 0,1.75736 -6.52951406,3.181981 -14.58407766,3.181981 -8.054564,0 -14.584078,-1.424621 -14.584078,-3.181981 0,-1.757359 6.529514,-3.18198 14.584078,-3.18198 8.0545636,0 14.58407766,1.424621 14.58407766,3.18198 z"
         transform="matrix(1.5919634,0,0,2.5572361,46.248651,1007.1625)" />
      <path
         style="fill:none;stroke:#b5b5b5;stroke-width:3.08419;stroke-linecap:butt;stroke-linejoin:miter;stroke-miterlimit:4;stroke-dasharray:none;stroke-opacity:1"
         d="m 37.078748,1029.3448 c 0,-4.9087 7.438374,-5.3291 7.541168,-0.1257 0.102793,5.2035 -7.541168,5.0345 -7.541168,0.1257 z"
         id="path5400-2" />
      <path
         id="path5454-0"
         d="m 37.728709,1023.4614 c 0,0 0.02815,1.0381 1.171036,0.8006 1.267172,-0.2632 -1.512591,9.2283 -1.512591,9.2283 0,0 -0.975865,-0.295 -1.610177,0.6742 -1.463568,2.2362 1.951732,-10.7031 1.951732,-10.7031 z"
         style="fill:url(#linearGradient6);fill-opacity:1;stroke:none;stroke-width:0.771048" />
      <path
         id="path4584-6"
         d="m 37.078748,1029.3448 c 0,-4.9087 7.541168,-5.1441 7.541168,-0.1257 0,5.0185 -7.541168,5.0345 -7.541168,0.1257 z"
         style="fill:none;stroke:url(#radialGradient5727-1);stroke-width:2.31314;stroke-linecap:butt;stroke-linejoin:miter;stroke-miterlimit:4;stroke-dasharray:none;stroke-opacity:1" />
      <path
         transform="matrix(1.611369,0,0,2.5396286,46.645773,1007.1433)"
         d="m 0.53033066,13.528544 c 0,1.75736 -6.52951406,3.181981 -14.58407766,3.181981 -8.054564,0 -14.584078,-1.424621 -14.584078,-3.181981 0,-1.757359 6.529514,-3.18198 14.584078,-3.18198 8.0545636,0 14.58407766,1.424621 14.58407766,3.18198 z"
         id="path3150-1"
         style="fill:url(#linearGradient7);fill-opacity:1;stroke:#c8c8c8;stroke-width:0.3809;stroke-linecap:round;stroke-linejoin:round;stroke-miterlimit:4;stroke-dasharray:none;stroke-opacity:1" />
      <path
         d="m 23.922995,1017.6916 c -7.267798,0 -13.217154,2.2989 -13.65754,5.1958 h -0.02716 v 0.3434 2.9264 0.224 c 0.09795,9.2587 6.191448,16.7371 13.684694,16.7371 7.493237,0 13.586732,-7.4784 13.68469,-16.7371 7.43e-4,-0.076 0,-0.1484 0,-0.224 v -2.9264 -0.3434 h -0.02715 c -0.440389,-2.8969 -6.389746,-5.1958 -13.657543,-5.1958 z"
         id="path2706-5"
         style="display:inline;overflow:visible;visibility:visible;fill:url(#radialGradient5721-0);fill-opacity:1;fill-rule:nonzero;stroke:url(#linearGradient8);stroke-width:0.771048;stroke-linecap:square;stroke-linejoin:round;stroke-miterlimit:4;stroke-dasharray:none;stroke-dashoffset:0;stroke-opacity:1;marker:none;enable-background:accumulate" />
      <path
         d="m 35.032936,16.365782 c 0.003,8.086853 -13.107553,14.643336 -29.2812595,14.643336 -16.1737065,0 -29.2842485,-6.556483 -29.2812595,-14.643336 -0.003,-8.0868532 13.107553,-14.6433356 29.2812595,-14.6433356 16.1737065,0 29.2842485,6.5564824 29.2812595,14.6433356 z"
         transform="matrix(0.45020857,0,0,0.34483522,21.390507,1017.1949)"
         id="path3534-5"
         style="display:inline;overflow:visible;visibility:visible;opacity:0.6;fill:#ffffff;fill-opacity:1;fill-rule:nonzero;stroke:none;stroke-width:1.43463;marker:none;filter:url(#filter3550-0-7);enable-background:accumulate" />
      <path
         d="m 36.140431,1022.8836 c 0.0013,2.3021 -5.468973,4.1686 -12.21726,4.1686 -6.748287,0 -12.218505,-1.8665 -12.217257,-4.1686 -0.0013,-2.3021 5.46897,-4.1686 12.217257,-4.1686 6.748287,0 12.218506,1.8665 12.21726,4.1686 z"
         id="path3499-4"
         style="display:inline;overflow:visible;visibility:visible;fill:url(#linearGradient9);fill-opacity:1;fill-rule:nonzero;stroke:none;stroke-width:0.771048;marker:none;enable-background:accumulate" />
      <path
         d="m 23.859366,1020.9016 c -5.388164,0 -9.91792,1.3169 -11.237634,3.0995 1.326108,1.7793 5.856222,3.0867 11.237634,3.0867 5.380269,0 9.910446,-1.308 11.237629,-3.0867 -1.320461,-1.7822 -5.850263,-3.0995 -11.237629,-3.0995 z"
         id="path3736-7"
         style="display:inline;overflow:visible;visibility:visible;fill:#36290f;fill-opacity:1;fill-rule:nonzero;stroke:none;stroke-width:0.771048;marker:none;enable-background:accumulate" />
      <path
         d="m 23.985052,1021.3794 c -5.508691,0 -10.139772,1.258 -11.489006,2.961 1.355772,1.6998 5.987219,2.9488 11.489006,2.9488 5.500618,0 10.132132,-1.2495 11.489001,-2.9488 -1.349998,-1.7026 -5.981125,-2.961 -11.489001,-2.961 z"
         id="path3501-6"
         style="display:inline;overflow:visible;visibility:visible;fill:url(#radialGradient5713-2);fill-opacity:1;fill-rule:nonzero;stroke:none;stroke-width:0.771048;marker:none;enable-background:accumulate" />
      <path
         style="opacity:0.490196;fill:url(#linearGradient10);fill-opacity:1;fill-rule:nonzero;stroke:none;stroke-width:0.771048;filter:url(#filter5396-0-2)"
         id="path5366-5"
         d="m 34.913399,39.691494 c 0,1.806175 -4.946602,3.270369 -11.048544,3.270369 -6.101943,0 -11.048544,-1.464194 -11.048544,-3.270369 0,-1.806175 4.946601,-3.270369 11.048544,-3.270369 6.101942,0 11.048544,1.464194 11.048544,3.270369 z"
         transform="matrix(1.4276972,0,0,1.5746466,-10.125492,978.61188)" />
      <path
         transform="matrix(1.1842971,0,0,1.306194,-4.3169828,989.39872)"
         d="m 34.913399,39.691494 c 0,1.806175 -4.946602,3.270369 -11.048544,3.270369 -6.101943,0 -11.048544,-1.464194 -11.048544,-3.270369 0,-1.806175 4.946601,-3.270369 11.048544,-3.270369 6.101942,0 11.048544,1.464194 11.048544,3.270369 z"
         id="path5234-6"
         style="opacity:0.745098;fill:url(#linearGradient5671);fill-opacity:1;fill-rule:nonzero;stroke:none;stroke-width:0.771048;filter:url(#filter5268-1-7)" />
      <path
         d="m 46.072483,37.6875 c -5.21761,7.123568 -14.34843,11.84375 -24.75,11.84375 -10.38105,10e-7 -19.4959799,-4.712434 -24.7187498,-11.8125 4.01830989,9.384132 13.5721898,16 24.7187498,16 11.16122,0 20.74101,-6.627475 24.75,-16.03125 z"
         transform="matrix(0.4344347,0,0,0.47777721,14.799866,1017.0794)"
         id="path3590-9"
         style="display:inline;overflow:visible;visibility:visible;opacity:0.3;fill:url(#linearGradient11);fill-opacity:1;fill-rule:nonzero;stroke:none;stroke-width:1.33529;marker:none;filter:url(#filter3615-8-6);enable-background:accumulate" />
      <path
         d="m 36.516599,1023.2859 c 0.0013,2.6095 -5.637359,4.7252 -12.593426,4.7252 -6.956067,0 -12.594712,-2.1157 -12.593426,-4.7252 -0.0013,-2.6095 5.637359,-4.7252 12.593426,-4.7252 6.956067,0 12.594711,2.1157 12.593426,4.7252 z"
         id="path3664-3"
         style="display:inline;overflow:visible;visibility:visible;opacity:0.4;fill:none;stroke:url(#linearGradient12);stroke-width:0.771048;stroke-linecap:square;stroke-linejoin:round;stroke-miterlimit:4;stroke-dasharray:none;stroke-dashoffset:0;stroke-opacity:1;marker:none;enable-background:accumulate" />
      <path
         transform="matrix(0.98770176,0,0,1.0054893,0.33746203,921.4947)"
         id="path5180-7"
         d="m 16.242553,118.54955 c 0,0 2.273304,2.2079 7.657448,2.2079 5.38414,0 7.657446,-2.2079 7.657446,-2.2079"
         style="fill:none;stroke:#3d3d3d;stroke-width:0.773716;stroke-linecap:butt;stroke-linejoin:miter;stroke-miterlimit:4;stroke-dasharray:none;stroke-opacity:1;filter:url(#filter5300-7-2)" />
      <path
         style="fill:none;stroke:url(#linearGradient13);stroke-width:0.286339;stroke-linecap:butt;stroke-linejoin:miter;stroke-miterlimit:4;stroke-dasharray:none;stroke-opacity:1"
         d="m 16.210178,1040.1923 c 0,0 2.285783,2.22 7.699482,2.22 5.413695,0 7.69948,-2.22 7.69948,-2.22"
         id="path5166-4" />
      <path
         transform="matrix(0.37136392,0,0,0.37136392,0.10831075,1004.6611)"
         id="path5480-5"
         d="m 102.22328,52.339574 c 0,0 -1e-5,15.202796 -4.24265,25.809398"
         style="opacity:0.607843;fill:none;stroke:#1e1e1e;stroke-width:1.38789;stroke-linecap:butt;stroke-linejoin:miter;stroke-miterlimit:4;stroke-dasharray:none;stroke-opacity:1;filter:url(#filter5518-0-9)" />
      <path
         transform="matrix(0.37136392,0,0,0.37136392,0.10831075,1004.6611)"
         id="path4097-2"
         d="m 109.75,56.999999 c 0,0 9.125,-0.07937 9.125,8.96875 0,9.048123 -8.875,9.28125 -8.875,9.28125"
         style="fill:none;stroke:#dedede;stroke-width:0.771048px;stroke-linecap:butt;stroke-linejoin:miter;stroke-opacity:1;filter:url(#filter4172-8-7)" />
      <path
         transform="matrix(0.37136392,0,0,0.37136392,0.10831075,1004.6611)"
         style="fill:none;stroke:#ffffff;stroke-width:0.771048px;stroke-linecap:butt;stroke-linejoin:miter;stroke-opacity:1;filter:url(#filter4157-0-4)"
         d="m 108.75,59.249999 c 0,0 9.125,-1.07937 9.125,7.21875 0,8.29812 -8.875,8.03125 -8.875,8.03125"
         id="path4099-5" />
      <path
         transform="matrix(0.37136392,0,0,0.37136392,0.10831075,1004.6611)"
         style="opacity:0.617647;fill:none;stroke:#757575;stroke-width:2.84656;stroke-linecap:butt;stroke-linejoin:miter;stroke-miterlimit:4;stroke-dasharray:none;stroke-opacity:1;filter:url(#filter5623-0)"
         d="m 110.25,53.499999 c 0,0 12.375,1.67063 12.375,12.96875 0,11.29812 -12.625,12.28125 -12.625,12.28125"
         id="path4162-4" />
    </g>
  </g>
</svg>
