<?xml version="1.0" encoding="UTF-8" standalone="no"?>
<svg
   id="svg3880"
   height="64"
   width="64"
   version="1.1"
   xmlns:xlink="http://www.w3.org/1999/xlink"
   xmlns="http://www.w3.org/2000/svg"
   xmlns:svg="http://www.w3.org/2000/svg"
   xmlns:rdf="http://www.w3.org/1999/02/22-rdf-syntax-ns#"
   xmlns:cc="http://creativecommons.org/ns#"
   xmlns:dc="http://purl.org/dc/elements/1.1/">
  <defs
     id="defs3882">
    <linearGradient
       id="linearGradient849">
      <stop
         id="stop845"
         offset="0"
         style="stop-color:#ffe16b;stop-opacity:1" />
      <stop
         id="stop847"
         offset="1"
         style="stop-color:#f9c440;stop-opacity:1" />
    </linearGradient>
    <linearGradient
       gradientTransform="translate(0,-8.4297935e-5)"
       gradientUnits="userSpaceOnUse"
       xlink:href="#linearGradient3881"
       id="linearGradient5152"
       y2="59.097725"
       x2="34.889053"
       y1="2.0038643"
       x1="34.889053" />
    <linearGradient
       id="linearGradient3881">
      <stop
         offset="0"
         style="stop-color:#ffffff;stop-opacity:1"
         id="stop3883" />
      <stop
         offset="0.33380178"
         style="stop-color:#ffffff;stop-opacity:0.23529412"
         id="stop3885" />
      <stop
         offset="0.67927718"
         style="stop-color:#ffffff;stop-opacity:0.15686275"
         id="stop3887" />
      <stop
         offset="1"
         style="stop-color:#ffffff;stop-opacity:0.39215687"
         id="stop3889" />
    </linearGradient>
    <linearGradient
       gradientTransform="matrix(1.3333351,0,0,1.3333351,3.9732219,-4.1622974)"
       gradientUnits="userSpaceOnUse"
       xlink:href="#linearGradient8265-821-176-38-919-66-249"
       id="linearGradient5156"
       y2="33.95525"
       x2="15.214532"
       y1="22.292103"
       x1="11.566265" />
    <linearGradient
       id="linearGradient8265-821-176-38-919-66-249">
      <stop
         offset="0"
         style="stop-color:#ffffff;stop-opacity:0.27450982"
         id="stop2687" />
      <stop
         offset="1"
         style="stop-color:#ffffff;stop-opacity:0"
         id="stop2689" />
    </linearGradient>
    <linearGradient
       id="linearGradient8838">
      <stop
         offset="0"
         style="stop-color:#000000;stop-opacity:1"
         id="stop8840" />
      <stop
         offset="1"
         style="stop-color:#000000;stop-opacity:0"
         id="stop8842" />
    </linearGradient>
    <radialGradient
       gradientTransform="matrix(2.9176471,0,0,1.1294117,-150.71766,46.776447)"
       gradientUnits="userSpaceOnUse"
       xlink:href="#linearGradient8838"
       id="radialGradient3878"
       fy="4.625"
       fx="62.625"
       r="10.625"
       cy="4.625"
       cx="62.625" />
    <linearGradient
       gradientUnits="userSpaceOnUse"
       y2="60.122894"
       x2="32"
       y1="1.4961357"
       x1="32"
       id="linearGradient851"
       xlink:href="#linearGradient849" />
  </defs>
  <metadata
     id="metadata3885">
    <rdf:RDF>
      <cc:Work
         rdf:about="">
        <dc:format>image/svg+xml</dc:format>
        <dc:type
           rdf:resource="http://purl.org/dc/dcmitype/StillImage" />
      </cc:Work>
    </rdf:RDF>
  </metadata>
  <path
     d="M 63,51.999984 C 63,58.62741 49.120825,63.999999 32.000001,63.999999 14.879174,63.999999 1,58.62741 1,51.999984 1,45.372557 14.879174,39.999968 32.000001,39.999968 49.120825,39.999968 63,45.372557 63,51.999984 Z"
     id="path8836"
     style="display:inline;overflow:visible;visibility:visible;opacity:0.3;fill:url(#radialGradient3878);fill-opacity:1;fill-rule:evenodd;stroke:none;stroke-width:1;marker:none" />
  <path
     d="m 32,1.4961357 c 2.058721,0 8.695997,16.5568453 10.36154,17.7652733 1.66554,1.208426 19.484686,2.395851 20.120867,4.351128 0.636179,1.955276 -13.080906,13.37539 -13.717085,15.330667 -0.636181,1.955276 3.739382,19.245988 2.073839,20.454417 -1.665541,1.208426 -16.78044,-8.290397 -18.839164,-8.290397 -2.05872,0 -17.173619,9.498823 -18.839163,8.290397 -1.66554,-1.208429 2.710022,-18.499142 2.073843,-20.454417 C 14.598498,36.987927 0.88141216,25.56781 1.5175922,23.612534 2.1537724,21.65726 19.972919,20.469835 21.638461,19.261409 23.304001,18.052981 29.94128,1.4961357 32,1.4961357 Z"
     id="path1307"
     style="display:inline;overflow:visible;visibility:visible;fill:url(#linearGradient851);fill-opacity:1;fill-rule:nonzero;stroke:#ad5f00;stroke-width:0.992271;stroke-linecap:butt;stroke-linejoin:round;stroke-miterlimit:4;stroke-dasharray:none;stroke-dashoffset:0;stroke-opacity:0.498039;marker:none" />
  <path
     d="m 31.875,2.1561657 a 0.53759222,0.53759222 0 0 0 -0.28125,0.21875 c 0,0 -4.91381,7.1088912 -9.375,17.5312503 -6.418845,1.039815 -14.9774288,2.209844 -19.75,3.65625 a 0.53759222,0.53759222 0 0 0 -0.28125,0.8125 c 3.4446894,4.519504 7.845118,8.39569 11.6875,12.34375 a 0.53759222,0.53759222 0 0 0 0.46875,0.15625 l 42.375,-7.625 A 0.53759222,0.53759222 0 0 0 57,29.093666 c 1.351761,-1.354917 4.65625,-4.625 4.65625,-4.625 A 0.53759222,0.53759222 0 0 0 61.4375,23.562416 C 55.319909,21.814307 48.155395,20.967703 41.78125,19.937416 38.37681,12.123255 32.5,2.4061657 32.5,2.4061657 a 0.53759222,0.53759222 0 0 0 -0.625,-0.25 z"
     id="path5154"
     style="display:inline;overflow:visible;visibility:visible;opacity:0.8;fill:url(#linearGradient5156);fill-opacity:1;fill-rule:nonzero;stroke:none;stroke-width:1;marker:none;enable-background:accumulate" />
  <path
     d="m 32,2.6249157 c -0.06913,0.066433 -0.125035,0.107247 -0.21875,0.21875 -0.321308,0.3822961 -0.732447,0.9893536 -1.1875,1.75 -0.910107,1.5212929 -2.001779,3.6135996 -3.0625,5.7500003 -1.060721,2.1364 -2.099597,4.321467 -3,6.0625 -0.450201,0.870516 -0.852189,1.647026 -1.21875,2.25 -0.366561,0.602974 -0.611078,1.002125 -1.125,1.375 -0.51344,0.372524 -0.969316,0.463027 -1.65625,0.625 -0.686934,0.161973 -1.532657,0.309877 -2.5,0.46875 -1.934686,0.317745 -4.327168,0.651966 -6.6875,1 -2.3603315,0.348034 -4.6776243,0.730131 -6.40625,1.125 -0.8643129,0.197434 -1.5994154,0.406538 -2.0625,0.59375 -0.1377423,0.05569 -0.1961343,0.07929 -0.28125,0.125 0.04209,0.0873 0.075979,0.153338 0.15625,0.28125 0.2651238,0.422474 0.7277973,0.990218 1.3125,1.65625 1.1694054,1.332064 2.8218508,2.991898 4.53125,4.65625 1.709399,1.664352 3.461914,3.35927 4.84375,4.75 0.690918,0.695365 1.288347,1.309941 1.75,1.84375 0.461653,0.533809 0.803091,0.863556 1,1.46875 0.197108,0.605806 0.122018,1.077597 0.0625,1.78125 -0.05952,0.703653 -0.162449,1.561808 -0.3125,2.53125 -0.300101,1.938884 -0.75196,4.334125 -1.15625,6.6875 -0.40429,2.353375 -0.774754,4.670812 -0.9375,6.4375 -0.08137,0.883344 -0.0965,1.626848 -0.0625,2.125 0.01,0.146215 0.0145,0.218014 0.03125,0.3125 0.09555,-0.01326 0.169222,-0.02656 0.3125,-0.0625 0.485191,-0.121699 1.183934,-0.368519 2,-0.71875 1.632132,-0.700462 3.72776,-1.763936 5.84375,-2.875 2.11599,-1.111064 4.246551,-2.272227 6,-3.15625 0.876724,-0.442012 1.660966,-0.819869 2.3125,-1.09375 0.651534,-0.273881 1.082356,-0.46875 1.71875,-0.46875 0.636393,0 1.067215,0.194869 1.71875,0.46875 0.651535,0.273881 1.435775,0.651738 2.3125,1.09375 1.753449,0.884023 3.884011,2.045186 6,3.15625 2.115989,1.111064 4.211618,2.174538 5.84375,2.875 0.816066,0.350231 1.51481,0.597051 2,0.71875 0.143278,0.03594 0.216952,0.04924 0.3125,0.0625 0.01675,-0.09449 0.02127,-0.166285 0.03125,-0.3125 0.034,-0.498152 0.01887,-1.241656 -0.0625,-2.125 -0.162746,-1.766687 -0.53321,-4.084125 -0.9375,-6.4375 -0.40429,-2.353375 -0.856149,-4.748616 -1.15625,-6.6875 -0.150051,-0.969442 -0.252982,-1.827597 -0.3125,-2.53125 -0.05952,-0.703653 -0.134609,-1.175444 0.0625,-1.78125 0.196909,-0.605194 0.538347,-0.934941 1,-1.46875 0.461653,-0.533809 1.059082,-1.148385 1.75,-1.84375 1.381836,-1.39073 3.134351,-3.085648 4.84375,-4.75 1.709399,-1.664352 3.361845,-3.324186 4.53125,-4.65625 0.584703,-0.666032 1.047376,-1.233776 1.3125,-1.65625 0.08027,-0.127912 0.11416,-0.193949 0.15625,-0.28125 -0.08512,-0.04571 -0.143508,-0.06931 -0.28125,-0.125 -0.463085,-0.187212 -1.198187,-0.396315 -2.0625,-0.59375 -1.728626,-0.394869 -4.045918,-0.776967 -6.40625,-1.125 -2.360332,-0.348033 -4.752814,-0.682255 -6.6875,-1 -0.967343,-0.158872 -1.813066,-0.306777 -2.5,-0.46875 -0.686934,-0.161973 -1.14281,-0.252476 -1.65625,-0.625 -0.513923,-0.372875 -0.758439,-0.772026 -1.125,-1.375 -0.366561,-0.602974 -0.768549,-1.379483 -1.21875,-2.25 -0.900403,-1.741033 -1.939279,-3.9261 -3,-6.0625 -1.060721,-2.1364007 -2.152394,-4.2287074 -3.0625,-5.7500003 -0.455053,-0.7606464 -0.866192,-1.367704 -1.1875,-1.75 C 32.125035,2.7321627 32.069128,2.6913488 32,2.6249157 Z"
     id="path2922"
     style="display:inline;overflow:visible;visibility:visible;opacity:0.8;fill:none;stroke:url(#linearGradient5152);stroke-width:0.992271;stroke-linecap:butt;stroke-linejoin:round;stroke-miterlimit:4;stroke-dasharray:none;stroke-dashoffset:0;stroke-opacity:1;marker:none" />
  <path
     id="path852"
     d="m 22.097482,41.564908 c -0.03349,-0.09569 0.04887,-0.540559 0.183025,-0.988618 0.265255,-0.885882 0.306756,-1.214902 0.165038,-1.308439 -0.05039,-0.03325 -0.358054,0.03202 -0.683713,0.145037 -0.679313,0.235763 -0.891229,0.191645 -0.880226,-0.183254 0.0081,-0.275236 0.257794,-0.638207 0.855096,-1.242896 l 0.349666,-0.353988 0.05248,-1.736931 c 0.04671,-1.5464 0.08422,-1.820976 0.341861,-2.503119 0.159159,-0.421402 0.437094,-0.991458 0.61763,-1.266792 0.180538,-0.275335 0.329727,-0.550977 0.331533,-0.612541 0.0018,-0.06155 -0.347507,-0.465658 -0.776251,-0.897995 -1.393572,-1.405236 -3.647811,-2.925823 -6.218917,-4.19494 -1.668255,-0.823463 -2.826301,-1.478769 -2.929745,-1.657865 -0.104443,-0.180826 0.130145,-0.104366 1.005805,0.327812 0.472028,0.232968 1.65056,0.71122 2.618959,1.06278 2.592213,0.941054 3.938805,1.739487 5.924419,3.51276 0.557923,0.498261 1.068704,0.941764 1.135066,0.985564 0.06637,0.0438 0.442216,-0.0709 0.835228,-0.254892 0.900981,-0.421801 1.296544,-0.408012 4.141067,0.144332 1.463959,0.284267 2.382085,0.406539 3.025311,0.402902 l 0.92349,-0.0053 0.501194,-0.850976 c 0.460942,-0.782637 0.493092,-0.883912 0.400297,-1.260944 -0.239667,-0.973781 -0.0025,-2.074815 0.500781,-2.325727 0.571046,-0.284646 0.963102,0.05603 1.649891,1.433638 0.251056,0.503589 0.517392,0.89556 0.610368,0.898294 0.195289,0.0058 0.193393,-0.112857 -0.01589,-0.993939 -0.216553,-0.911659 -0.09027,-1.664688 0.348602,-2.078927 0.271281,-0.25605 0.38796,-0.295547 0.680051,-0.23022 0.679548,0.151983 0.961753,0.804205 1.061221,2.45263 0.02857,0.473455 0.09656,0.890274 0.151092,0.926267 0.05452,0.036 0.678807,0.201019 1.387276,0.366727 3.523928,0.824222 4.945753,1.774354 4.901699,3.275547 -0.01,0.338873 -0.103092,0.477213 -0.636921,0.946001 -0.626603,0.550256 -2.135873,1.402044 -4.072197,2.298228 -1.46441,0.67777 -1.520915,0.983898 -0.428103,2.319313 0.645232,0.788471 0.829213,1.174023 0.673225,1.41082 -0.102625,0.155788 -0.502379,0.08983 -1.726786,-0.284895 -1.243169,-0.380469 -1.372002,-0.283586 -0.732976,0.551207 0.827607,1.081135 0.982622,1.681313 0.471927,1.82718 -0.247052,0.07057 -1.157552,-0.264061 -2.848573,-1.046914 l -1.253301,-0.580224 -0.667789,0.111285 c -0.367283,0.06121 -1.864673,0.100601 -3.327535,0.08753 -2.542687,-0.02272 -2.723931,-0.03845 -4.11812,-0.357369 -1.402079,-0.320734 -1.468228,-0.326355 -1.713638,-0.145607 -0.140393,0.103403 -0.784987,0.607738 -1.432426,1.120748 -0.647441,0.513008 -1.209142,0.932257 -1.248225,0.931666 -0.03908,-5.13e-4 -0.09847,-0.07934 -0.131962,-0.175038 z m 19.177216,-7.088272 c 0.285051,-0.286275 0.220683,-0.648794 -0.08742,-0.492409 -0.354351,0.179858 -0.965519,0.84851 -0.891959,0.975861 0.08433,0.146003 0.611974,-0.114463 0.979388,-0.483452 z m -0.765866,-0.733471 c 0.30365,-0.120301 0.554099,-0.287248 0.556557,-0.370984 0.006,-0.207257 -0.133232,-0.196077 -0.715921,0.05746 -1.024686,0.445846 -0.882188,0.726191 0.159364,0.313531 z m -1.060553,-1.779497 c 0.0017,-0.05597 -0.144579,-0.13881 -0.32494,-0.184058 -0.180361,-0.04524 -0.419143,-0.205631 -0.530625,-0.356407 -0.367534,-0.497069 -0.459474,-0.320817 -0.132291,0.253616 0.171449,0.301014 0.277123,0.36783 0.596614,0.377222 0.213544,0.0063 0.389602,-0.03439 0.391246,-0.09038 z m 0.453799,-1.122587 c 0.05758,-0.510918 -0.227042,-0.736507 -0.610681,-0.484008 -0.461724,0.30389 -0.255244,0.96201 0.286974,0.914691 0.23299,-0.02034 0.285297,-0.08993 0.323707,-0.430683 z m 4.588905,-1.089391 c 0.0043,-0.258436 0.668624,-1.554434 0.882602,-1.721822 0.330603,-0.258614 0.294471,0.01378 -0.09501,0.71632 -0.505845,0.912426 -0.792117,1.277907 -0.787586,1.005502 z m -0.758638,-0.553823 c 0.01398,-0.40016 0.141998,-0.764988 0.26716,-0.761307 0.06686,0.0019 0.07531,0.164704 0.02159,0.415651 -0.107122,0.50037 -0.302306,0.734026 -0.288746,0.345656 z M 12.806104,24.309898 c 0.004,-0.141691 0.08238,-0.139392 0.165701,0.0049 0.03576,0.06191 0.01244,0.11104 -0.05197,0.109143 -0.06434,-0.0019 -0.115523,-0.0532 -0.113744,-0.114005 z"
     style="display:inline;fill:#ffffff;fill-opacity:0.5;stroke:none;stroke-width:1.09307" />
  <path
     id="path1881"
     d="m 22.097482,40.471831 c -0.03349,-0.09569 0.04887,-0.540558 0.183025,-0.988618 0.265255,-0.885882 0.306756,-1.214902 0.165038,-1.308438 -0.05039,-0.03325 -0.358054,0.03202 -0.683713,0.145037 -0.679313,0.235764 -0.891229,0.191646 -0.880226,-0.183255 0.0081,-0.275235 0.257794,-0.638207 0.855096,-1.242895 l 0.349666,-0.353989 0.05248,-1.736931 c 0.04671,-1.5464 0.08422,-1.820975 0.341861,-2.503119 0.159159,-0.421401 0.437094,-0.991458 0.61763,-1.266792 0.180538,-0.275334 0.329727,-0.550976 0.331533,-0.612541 0.0018,-0.06155 -0.347507,-0.465658 -0.776251,-0.897993 -1.393572,-1.405238 -3.647811,-2.925824 -6.218917,-4.194941 -1.668255,-0.823463 -2.826301,-1.47877 -2.929745,-1.657865 -0.104443,-0.180827 0.130145,-0.104367 1.005805,0.327811 0.472028,0.232969 1.65056,0.711221 2.618959,1.062781 2.592213,0.941053 3.938805,1.739486 5.924419,3.51276 0.557923,0.498261 1.068704,0.941764 1.135066,0.985564 0.06637,0.0438 0.442216,-0.0709 0.835228,-0.254893 0.900981,-0.4218 1.296544,-0.408012 4.141067,0.144332 1.463959,0.284267 2.382085,0.406541 3.025311,0.402902 l 0.92349,-0.0053 0.501194,-0.850975 c 0.460942,-0.782638 0.493092,-0.883912 0.400297,-1.260945 -0.239667,-0.973781 -0.0025,-2.074815 0.500781,-2.325727 0.571046,-0.284646 0.963102,0.05602 1.649891,1.433638 0.251056,0.503589 0.517392,0.89556 0.610368,0.898294 0.195289,0.0058 0.193393,-0.112856 -0.01589,-0.993939 -0.216553,-0.911658 -0.09027,-1.664688 0.348602,-2.078927 0.271281,-0.25605 0.38796,-0.295546 0.680051,-0.23022 0.679548,0.151983 0.961753,0.804205 1.061221,2.452631 0.02857,0.473454 0.09656,0.890273 0.151092,0.926267 0.05452,0.036 0.678807,0.201019 1.387276,0.366727 3.523928,0.824222 4.945753,1.774354 4.901699,3.275547 -0.01,0.338872 -0.103092,0.477213 -0.636921,0.946001 -0.626603,0.550255 -2.135873,1.402043 -4.072197,2.298227 -1.46441,0.67777 -1.520915,0.983898 -0.428103,2.319314 0.645232,0.78847 0.829213,1.174022 0.673225,1.410819 -0.102625,0.155788 -0.502379,0.08983 -1.726786,-0.284894 -1.243169,-0.38047 -1.372002,-0.283587 -0.732976,0.551206 0.827607,1.081137 0.982622,1.681313 0.471927,1.827181 -0.247052,0.07056 -1.157552,-0.264062 -2.848573,-1.046915 l -1.253301,-0.580222 -0.667789,0.111284 c -0.367283,0.06121 -1.864673,0.100591 -3.327535,0.08753 -2.542687,-0.02273 -2.723931,-0.03845 -4.11812,-0.357369 -1.402079,-0.320734 -1.468228,-0.326356 -1.713638,-0.145608 -0.140393,0.103403 -0.784987,0.607738 -1.432426,1.120748 -0.647441,0.513008 -1.209142,0.932258 -1.248225,0.931666 -0.03908,-5.13e-4 -0.09847,-0.07934 -0.131962,-0.175038 z m 19.177216,-7.088272 c 0.285051,-0.286274 0.220683,-0.648794 -0.08742,-0.492408 -0.354351,0.179857 -0.965519,0.848509 -0.891959,0.975861 0.08433,0.146003 0.611974,-0.114464 0.979388,-0.483453 z m -0.765866,-0.733471 c 0.30365,-0.120301 0.554099,-0.287248 0.556557,-0.370982 0.006,-0.207259 -0.133232,-0.196079 -0.715921,0.05745 -1.024686,0.445845 -0.882188,0.726191 0.159364,0.313532 z m -1.060553,-1.779496 c 0.0017,-0.05597 -0.144579,-0.13881 -0.32494,-0.184059 -0.180361,-0.04524 -0.419143,-0.205631 -0.530625,-0.356407 -0.367534,-0.497068 -0.459474,-0.320816 -0.132291,0.253616 0.171449,0.301014 0.277123,0.36783 0.596614,0.377222 0.213544,0.0063 0.389602,-0.03439 0.391246,-0.09038 z m 0.453799,-1.122588 c 0.05758,-0.510918 -0.227042,-0.736507 -0.610681,-0.484007 -0.461724,0.303889 -0.255244,0.96201 0.286974,0.91469 0.23299,-0.02034 0.285297,-0.08993 0.323707,-0.430683 z m 4.588905,-1.089391 c 0.0043,-0.258436 0.668624,-1.554433 0.882602,-1.721822 0.330603,-0.258614 0.294471,0.01378 -0.09501,0.71632 -0.505845,0.912426 -0.792117,1.277908 -0.787586,1.005502 z M 43.732345,28.10479 c 0.01398,-0.40016 0.141998,-0.764987 0.26716,-0.761306 0.06686,0.0019 0.07531,0.164704 0.02159,0.41565 -0.107122,0.50037 -0.302306,0.734026 -0.288746,0.345656 z M 12.806104,23.216822 c 0.004,-0.141692 0.08238,-0.139393 0.165701,0.0049 0.03576,0.06191 0.01244,0.11104 -0.05197,0.109144 -0.06434,-0.0019 -0.115523,-0.0532 -0.113744,-0.114005 z"
     style="display:inline;fill:#ad5f00;fill-opacity:0.7;stroke:none;stroke-width:1.09307" />
</svg>
