<?xml version="1.0" encoding="UTF-8" standalone="no"?>
<svg
   height="16"
   width="16"
   version="1.1"
   id="svg1"
   xmlns="http://www.w3.org/2000/svg"
   xmlns:svg="http://www.w3.org/2000/svg">
  <defs
     id="defs1" />
  <g
     transform="translate(-473,349)"
     id="g1">
    <path
       d="m 474,-339.497 c 10e-4,0.794 0.034,0.781 1.031,0.532 l 4.97,-1.625 v 4.5 l -1.782,1.218 c -0.209,0.14 -0.219,0.123 -0.219,0.344 v 0.219 c 0,0.428 0.438,0.281 0.438,0.281 l 2.562,-0.281 2.563,0.281 c 0,0 0.437,0.14 0.437,-0.25 v -0.25 c 0,-0.211 -0.009,-0.204 -0.219,-0.344 l -1.78,-1.218 v -4.5 l 4.937,1.625 c 1.047,0.261 1.062,0.264 1.062,-0.532 0,-0.432 -0.011,-0.433 -0.5,-0.718 l -5.5,-3.688 v -3.094 c 0,-0.554 -0.446,-1 -1,-1 -0.554,0 -1,0.446 -1,1 v 3.094 l -5.5,3.688 c -0.457,0.266 -0.498,0.283 -0.5,0.656 z"
       fill="#666666"
       id="path1" />
  </g>
</svg>
