<?xml version="1.0" encoding="UTF-8" standalone="no"?>
<svg
   height="16"
   width="16"
   version="1.1"
   id="svg1"
   xmlns="http://www.w3.org/2000/svg"
   xmlns:svg="http://www.w3.org/2000/svg">
  <defs
     id="defs1" />
  <g
     transform="translate(-793,255)"
     id="g1"
     style="fill:#666666;fill-opacity:1">
    <path
       style="line-height:normal;font-variant-ligatures:normal;font-variant-position:normal;font-variant-caps:normal;font-variant-numeric:normal;font-variant-alternates:normal;font-feature-settings:normal;text-indent:0;text-align:start;text-decoration-line:none;text-decoration-style:solid;text-decoration-color:#000000;text-transform:none;text-orientation:mixed;shape-padding:0;isolation:auto;mix-blend-mode:normal;fill:#666666;fill-opacity:1"
       d="M 800.492,-249.008 A 0.5,0.5 0 0 0 800,-248.5 v 2.5 h -1.5 a 0.5,0.5 0 1 0 0,1 h 2 a 0.5,0.5 0 0 0 0.5,-0.5 v -3 a 0.5,0.5 0 0 0 -0.508,-0.508 z"
       id="path8371" />
    <path
       id="path8365"
       style="line-height:normal;font-variant-ligatures:normal;font-variant-position:normal;font-variant-caps:normal;font-variant-numeric:normal;font-variant-alternates:normal;font-feature-settings:normal;text-indent:0;text-align:start;text-decoration-line:none;text-decoration-style:solid;text-decoration-color:#000000;text-transform:none;text-orientation:mixed;shape-padding:0;isolation:auto;mix-blend-mode:normal;fill:#666666;fill-opacity:1"
       d="m 803.71875,-254 c -0.94506,0 -1.79433,0.40622 -2.39063,1.04688 2.27853,0.25376 4.25846,1.54003 5.45704,3.37695 A 3.14,3.14 0 0 0 807,-250.71875 3.289,3.289 0 0 0 803.71875,-254 Z" />
    <path
       id="path7924-3"
       style="color:#000000;fill:#666666;fill-rule:evenodd;stroke-linecap:round;stroke-linejoin:round;-inkscape-stroke:none;paint-order:markers fill stroke;fill-opacity:1"
       d="m 800.5,-252 c -3.578,0 -6.5,2.922 -6.5,6.5 0,1.68312 0.64777,3.22004 1.70508,4.37695 l -0.41211,0.41211 c -0.39174,0.39174 -0.39174,1.02428 0,1.41602 0.39174,0.39174 1.02428,0.39174 1.41601,0 l 0.56641,-0.56641 c 0.95149,0.54724 2.05279,0.86133 3.22461,0.86133 1.17182,0 2.27312,-0.31409 3.22461,-0.86133 l 0.56641,0.56641 c 0.39173,0.39174 1.02232,0.39174 1.41406,0 0.39173,-0.39174 0.39173,-1.02428 0,-1.41602 l -0.41016,-0.41015 C 806.35279,-242.27813 807,-243.81637 807,-245.5 c 0,-3.578 -2.922,-6.5 -6.5,-6.5 z m 0,2 c 2.49712,0 4.5,2.00288 4.5,4.5 0,2.49712 -2.00288,4.5 -4.5,4.5 -2.49712,0 -4.5,-2.00288 -4.5,-4.5 0,-2.49712 2.00288,-4.5 4.5,-4.5 z" />
    <path
       id="path8405"
       style="line-height:normal;font-variant-ligatures:normal;font-variant-position:normal;font-variant-caps:normal;font-variant-numeric:normal;font-variant-alternates:normal;font-feature-settings:normal;text-indent:0;text-align:start;text-decoration-line:none;text-decoration-style:solid;text-decoration-color:#000000;text-transform:none;text-orientation:mixed;shape-padding:0;isolation:auto;mix-blend-mode:normal;fill:#666666;fill-opacity:1"
       d="m 797.28125,-254 c 0.94506,0 1.79433,0.40622 2.39063,1.04688 -2.27853,0.25376 -4.25846,1.54003 -5.45704,3.37695 A 3.14,3.14 0 0 1 794,-250.71875 3.289,3.289 0 0 1 797.28125,-254 Z" />
  </g>
</svg>
