<?xml version="1.0" encoding="UTF-8" standalone="no"?>
<svg
   height="16"
   id="svg7384"
   version="1.1"
   width="16"
   xmlns="http://www.w3.org/2000/svg"
   xmlns:svg="http://www.w3.org/2000/svg"
   xmlns:rdf="http://www.w3.org/1999/02/22-rdf-syntax-ns#"
   xmlns:cc="http://creativecommons.org/ns#"
   xmlns:dc="http://purl.org/dc/elements/1.1/">
  <metadata
     id="metadata90">
    <rdf:RDF>
      <cc:Work
         rdf:about="">
        <dc:format>image/svg+xml</dc:format>
        <dc:type
           rdf:resource="http://purl.org/dc/dcmitype/StillImage" />
        <dc:title>elementary Symbolic Icon Theme</dc:title>
      </cc:Work>
    </rdf:RDF>
  </metadata>
  <title
     id="title9167">elementary Symbolic Icon Theme</title>
  <defs
     id="defs7386" />
  <g
     id="g939">
    <path
       class=""
       d="M 4,14.75 C 4,14.8885 4.1115,15 4.25,15 h 7.5 C 11.8885,15 12,14.8885 12,14.75 12.003,13.9783 12,13 12,13 H 4 Z"
       id="path13466"
       style="color:#bebebe;display:inline;overflow:visible;visibility:visible;opacity:0.3;fill:#bebebe;fill-opacity:1;fill-rule:nonzero;stroke:none;stroke-width:1;marker:none;enable-background:accumulate" />
    <path
       d="m 3,15 c 0,0.554 0.446,1 1,1 h 8 c 0.554,0 1,-0.446 1,-1 V 3 C 13,2.446 12.554,2 12,2 H 10 V 1 C 10,0.446 9.554,0 9,0 H 7 C 6.446,0 6,0.446 6,1 V 2 H 4 C 3.446,2 3,2.446 3,3 Z M 4,14.5 V 3.5 C 4,3.223 4.223,3 4.5,3 h 7 C 11.777,3 12,3.223 12,3.5 v 11 c 0,0.277 -0.223,0.5 -0.5,0.5 h -7 C 4.223,15 4,14.777 4,14.5 Z M 7,2 V 1.5 C 7,1.223 7.223,1 7.5,1 h 1 C 8.777,1 9,1.223 9,1.5 V 2 Z"
       id="rect3206-70"
       style="color:#bebebe;display:inline;overflow:visible;visibility:visible;fill:#666666;fill-opacity:1;fill-rule:nonzero;stroke:none;stroke-width:1;marker:none;enable-background:accumulate" />
    <path
       d="M 10,4 5,10 H 8 L 6,14 11,8 H 8 Z"
       id="path3172-35"
       style="color:#bebebe;display:inline;overflow:visible;visibility:visible;fill:#666666;fill-opacity:1;fill-rule:nonzero;stroke:none;stroke-width:1;marker:none;enable-background:accumulate" />
  </g>
</svg>
