<?xml version="1.0" encoding="UTF-8" standalone="no"?>
<svg
   height="16"
   width="16"
   version="1.1"
   id="svg1"
   xmlns="http://www.w3.org/2000/svg"
   xmlns:svg="http://www.w3.org/2000/svg">
  <defs
     id="defs1" />
  <g
     color="#bebebe"
     transform="translate(-613,275)"
     id="g1">
    <path
       d="m 620,-275 c -2.015,0 -4,2.026 -4,4 v 2 h 10 v -2 c 0,-1.995 -1.963,-4 -4,-4 z m 0,2 h 2 c 1.158,0 2,1.17 2,2 v 2 h -6 v -2 c 0,-0.667 0.801,-2 2,-2 z m -5,5 v 2.25 h 2.25 v 0.5 H 615 v 1.5 h 2.25 v 0.5 H 615 v 1.5 h 2.25 v 0.5 H 615 v 0.75 c 0,0.831 0.67,1.5 1.5,1.5 h 9 c 0.831,0 1.5,-0.669 1.5,-1.5 v -0.75 h -2.25 v -0.5 H 627 v -1.5 h -2.25 v -0.5 H 627 v -1.5 h -2.25 v -0.5 H 627 V -268 Z"
       fill="#666666"
       overflow="visible"
       style="marker:none"
       id="path1" />
  </g>
</svg>
