<?xml version="1.0" encoding="UTF-8" standalone="no"?>
<svg
   height="16"
   width="16"
   version="1.1"
   id="svg1"
   xmlns="http://www.w3.org/2000/svg"
   xmlns:svg="http://www.w3.org/2000/svg">
  <defs
     id="defs1" />
  <path
     d="M 1,1 C 0.446,1 0,1.446 0,2 v 10 c 0,0.554 0.446,1 1,1 h 5 v 1 c 0,0 0,1 -1,1 v 1 h 6 v -1 c -1,0 -1,-1 -1,-1 v -1 h 5 c 0.554,0 1,-0.446 1,-1 V 2 C 16,1.446 15.554,1 15,1 Z m 0.5,1 h 13 c 0,0 0.5,0 0.5,0.5 v 9 C 15,12 14.5,12 14.5,12 H 1.5 C 1,12 1,11.5 1,11.5 v -9 C 1,2.5 1,2 1.5,2 Z M 4,4 V 5 H 5 V 4 Z M 5,5 V 6 H 6 V 5 Z M 6,5 H 7 V 4 H 6 Z M 6,6 V 7 H 7 V 6 Z M 5,6 H 4 V 7 H 5 Z M 9,4 v 1 h 1 V 4 Z m 1,1 v 1 h 1 V 5 Z m 1,0 h 1 V 4 h -1 z m 0,1 v 1 h 1 V 6 Z M 10,6 H 9 v 1 h 1 z M 5,8 v 1 h 6 V 8 Z m 6,1 v 1 h 1 V 9 Z M 5,9 H 4 v 1 h 1 z"
     fill="#666"
     id="path1"
     style="fill:#666666;fill-opacity:1" />
</svg>
