<?xml version="1.0" encoding="UTF-8" standalone="no"?>
<svg
   height="16"
   width="16"
   version="1.1"
   id="svg1"
   xmlns="http://www.w3.org/2000/svg"
   xmlns:svg="http://www.w3.org/2000/svg">
  <defs
     id="defs1" />
  <g
     transform="translate(-613,191)"
     id="g1">
    <path
       color="#000000"
       d="m 620.25,-190 a 0.25,0.25 0 0 0 -0.25,0.25 v 1.5 c 0,0.139 0.112,0.25 0.25,0.25 h 0.5 a 0.25,0.25 0 0 0 0.25,-0.25 v -1.5 a 0.25,0.25 0 0 0 -0.25,-0.25 z m -4.699,1.947 a 0.25,0.25 0 0 0 -0.178,0.073 l -0.353,0.353 a 0.25,0.25 0 0 0 0,0.354 l 1.06,1.06 a 0.25,0.25 0 0 0 0.354,0 l 0.353,-0.353 a 0.25,0.25 0 0 0 0,-0.354 l -1.06,-1.06 a 0.246,0.246 0 0 0 -0.176,-0.073 z m 9.898,0 a 0.246,0.246 0 0 0 -0.175,0.073 l -1.06,1.06 a 0.25,0.25 0 0 0 0,0.354 l 0.353,0.353 a 0.25,0.25 0 0 0 0.353,0 l 1.06,-1.06 a 0.25,0.25 0 0 0 0,-0.354 l -0.353,-0.353 a 0.25,0.25 0 0 0 -0.178,-0.073 z M 620.5,-186 a 3.5,3.5 0 0 0 -3.5,3.5 3.5,3.5 0 0 0 3.5,3.5 3.5,3.5 0 0 0 3.5,-3.5 3.5,3.5 0 0 0 -3.5,-3.5 z m 0,1 a 2.5,2.5 0 0 1 2.5,2.5 2.5,2.5 0 0 1 -2.5,2.5 2.5,2.5 0 0 1 -2.5,-2.5 2.5,2.5 0 0 1 2.5,-2.5 z m -7.25,2 a 0.25,0.25 0 0 0 -0.25,0.25 v 0.5 c 0,0.139 0.112,0.25 0.25,0.25 h 1.5 a 0.25,0.25 0 0 0 0.25,-0.25 v -0.5 a 0.25,0.25 0 0 0 -0.25,-0.25 z m 13,0 a 0.25,0.25 0 0 0 -0.25,0.25 v 0.5 c 0,0.139 0.112,0.25 0.25,0.25 h 1.5 a 0.25,0.25 0 0 0 0.25,-0.25 v -0.5 a 0.25,0.25 0 0 0 -0.25,-0.25 z m -9.992,4.139 a 0.252,0.252 0 0 0 -0.178,0.074 l -1.06,1.06 a 0.25,0.25 0 0 0 0,0.354 l 0.353,0.353 a 0.25,0.25 0 0 0 0.354,0 l 1.06,-1.06 a 0.25,0.25 0 0 0 0,-0.354 l -0.353,-0.353 a 0.248,0.248 0 0 0 -0.176,-0.074 z m 8.484,0 a 0.248,0.248 0 0 0 -0.175,0.074 l -0.354,0.353 a 0.25,0.25 0 0 0 0,0.354 l 1.06,1.06 a 0.25,0.25 0 0 0 0.354,0 l 0.354,-0.353 a 0.25,0.25 0 0 0 0,-0.354 l -1.06,-1.06 a 0.252,0.252 0 0 0 -0.179,-0.074 z M 620.25,-177 a 0.25,0.25 0 0 0 -0.25,0.25 v 1.5 c 0,0.139 0.112,0.25 0.25,0.25 h 0.5 a 0.25,0.25 0 0 0 0.25,-0.25 v -1.5 a 0.25,0.25 0 0 0 -0.25,-0.25 z"
       fill="#666666"
       overflow="visible"
       style="isolation:auto;mix-blend-mode:normal;marker:none"
       id="path1" />
  </g>
</svg>
