<?xml version="1.0" encoding="UTF-8" standalone="no"?>
<svg
   height="16"
   width="16"
   version="1.1"
   id="svg1"
   xmlns="http://www.w3.org/2000/svg"
   xmlns:svg="http://www.w3.org/2000/svg">
  <defs
     id="defs1" />
  <g
     transform="translate(-732.96142,111.03958)"
     id="g1">
    <path
       color="#000000"
       d="m 734.99,-101.94 a 3.492,3.492 0 0 0 0,4.95 3.492,3.492 0 0 0 4.95,0 l 0.353,-0.353 -0.707,-0.707 -0.354,0.353 c -0.979,0.98 -2.556,0.98 -3.535,0 a 2.495,2.495 0 0 1 0,-3.535 l 7.07,-7.071 c 0.98,-0.98 2.557,-0.98 3.536,0 0.98,0.979 0.98,2.556 0,3.535 l -0.712,0.713 -2.47,2.47 -0.207,0.206 -0.853,0.854 a 1.497,1.497 0 0 1 -2.122,0 1.497,1.497 0 0 1 0,-2.121 l 1.061,-1.061 0.707,-0.707 -0.707,-0.707 -1.768,1.767 c -0.979,0.98 -0.979,2.557 0,3.536 0.98,0.98 2.557,0.98 3.536,0 l 0.853,-0.854 1.268,-1.267 2.122,-2.122 a 3.492,3.492 0 0 0 0,-4.95 3.492,3.492 0 0 0 -4.95,0 z"
       fill="#666666"
       overflow="visible"
       style="isolation:auto;mix-blend-mode:normal;marker:none"
       id="path1" />
  </g>
</svg>
