<?xml version="1.0" encoding="UTF-8" standalone="no"?>
<svg
   height="16"
   width="16"
   id="svg2"
   version="1.1"
   xmlns="http://www.w3.org/2000/svg"
   xmlns:svg="http://www.w3.org/2000/svg"
   xmlns:rdf="http://www.w3.org/1999/02/22-rdf-syntax-ns#"
   xmlns:cc="http://creativecommons.org/ns#"
   xmlns:dc="http://purl.org/dc/elements/1.1/">
  <metadata
     id="metadata14">
    <rdf:RDF>
      <cc:Work
         rdf:about="">
        <dc:format>image/svg+xml</dc:format>
        <dc:type
           rdf:resource="http://purl.org/dc/dcmitype/StillImage" />
      </cc:Work>
    </rdf:RDF>
  </metadata>
  <defs
     id="defs12" />
  <path
     id="path3"
     style="display:inline;fill:#666666;fill-opacity:1;stroke-width:1;marker:none"
     d="m 8,2.265625 c -3.360206,0.00235 -5.999804,1.2386233 -8,3.1210938 0,0 7.995369,8.8166042 8,8.8125002 l 1.599609,-1.768338 c 0,0 -0.182545,-0.17687 -0.335317,-0.351376 C 9.048119,11.743999 9.048828,11.474609 9.048828,11.474609 L 8,12.626953 1.597656,5.5976562 C 3.569287,4.128598 5.439381,3.3320312 8,3.3320312 c 2.561758,0 4.431851,0.7965668 6.402344,2.265625 l -3.123047,3.4277344 c 0,0 0.277412,-0.00481 0.594291,0.1280453 0.197933,0.1044936 0.411568,0.3250797 0.411568,0.3250797 L 16,5.3867188 C 13.989467,3.445018 11.264116,2.2633413 8,2.265625 Z" />
  <path
     d="m 15,10 c 0.265625,0 0.519531,0.105469 0.707031,0.292969 0.390625,0.390625 0.390625,1.023437 0,1.414062 L 14.414062,13 l 1.292969,1.292969 c 0.390625,0.390625 0.390625,1.023437 0,1.414062 -0.390625,0.390625 -1.023437,0.390625 -1.414062,0 L 13,14.414062 11.707031,15.707031 c -0.390625,0.390625 -1.023437,0.390625 -1.414062,0 -0.3906252,-0.390625 -0.3906252,-1.023437 0,-1.414062 L 11.585938,13 10.292969,11.707031 c -0.3906252,-0.390625 -0.3906252,-1.023437 0,-1.414062 C 10.480469,10.105469 10.734375,10 11,10 c 0.265625,0 0.519531,0.105469 0.707031,0.292969 L 13,11.585938 14.292969,10.292969 C 14.480469,10.105469 14.734375,10 15,10 Z m 0,0"
     id="path2"
     style="display:inline;fill:#666666;fill-opacity:1" />
</svg>
