<?xml version="1.0" encoding="UTF-8" standalone="no"?>
<svg
   height="16"
   width="16"
   id="svg2"
   version="1.1"
   xmlns="http://www.w3.org/2000/svg"
   xmlns:svg="http://www.w3.org/2000/svg"
   xmlns:rdf="http://www.w3.org/1999/02/22-rdf-syntax-ns#"
   xmlns:cc="http://creativecommons.org/ns#"
   xmlns:dc="http://purl.org/dc/elements/1.1/">
  <metadata
     id="metadata14">
    <rdf:RDF>
      <cc:Work
         rdf:about="">
        <dc:format>image/svg+xml</dc:format>
        <dc:type
           rdf:resource="http://purl.org/dc/dcmitype/StillImage" />
      </cc:Work>
    </rdf:RDF>
  </metadata>
  <defs
     id="defs12" />
  <g
     transform="translate(-293 351)"
     id="g4">
    <path
       style="color:#000000;fill:#666666;fill-opacity:1;stroke-width:1;-inkscape-stroke:none;paint-order:markers fill stroke"
       d="m 8,10.786638 c -1.526063,-0.0021 -2.25693,0.935141 -2.25693,0.935141 L 8,14.2 c 0,0 2.254738,-2.481853 2.257,-2.478 0,0 -0.730937,-0.933212 -2.257,-0.935362 z"
       id="path7820-3"
       transform="translate(293,-351)" />
    <path
       style="color:#000000;fill:#666666;fill-opacity:1;stroke-width:1;stroke-linejoin:round;-inkscape-stroke:none;paint-order:markers fill stroke;opacity:0.35"
       d="M 8,2.2525137 C 2.925425,2.2772627 0,5.3867968 0,5.3867968 l 1.430761,1.5723287 c 0,0 2.24843,-2.5778782 6.569239,-2.5742488 C 12.183947,4.3883967 14.569,6.959 14.569,6.959 l 1.431001,-1.572 c 0,0 -2.873703,-3.1594879 -8.000001,-3.1344863 z"
       id="path38238"
       transform="translate(293,-351)" />
    <path
       style="color:#000000;fill:#666666;fill-opacity:1;stroke-width:1;stroke-linejoin:round;-inkscape-stroke:none;paint-order:markers fill stroke"
       d="m 8,6.5239302 c -3.191443,0 -5.234692,1.9162643 -5.234692,1.9162643 l 1.472726,1.6232495 c 0,0 1.880532,-1.4172181 3.761966,-1.4012061 2.065674,0.01758 3.762,1.4004161 3.762,1.4004161 L 13.235,8.44 c 0,0 -2.042128,-1.9160698 -5.235,-1.9160698 z"
       id="path38244"
       transform="translate(293,-351)" />
  </g>
</svg>
