<?xml version="1.0" encoding="UTF-8" standalone="no"?>
<svg
   width="16"
   height="16"
   version="1.1"
   id="svg3"
   xmlns="http://www.w3.org/2000/svg"
   xmlns:svg="http://www.w3.org/2000/svg">
  <defs
     id="defs3" />
  <g
     color="#bebebe"
     fill="#474747"
     id="g3"
     style="fill:none">
    <path
       d="M7 10v3h2v-3zm-5 3v2h12v-2z"
       style="line-height:normal;font-variant-ligatures:normal;font-variant-position:normal;font-variant-caps:normal;font-variant-numeric:normal;font-variant-alternates:normal;font-feature-settings:normal;text-indent:0;text-align:start;text-decoration-line:none;text-decoration-style:solid;text-decoration-color:#000;text-transform:none;text-orientation:mixed;shape-padding:0;isolation:auto;mix-blend-mode:normal;marker:none;fill:#666666;fill-opacity:1"
       font-weight="400"
       font-family="sans-serif"
       overflow="visible"
       id="path1" />
    <path
       d="M4 5h8v6H4z"
       style="marker:none;fill:#666666;fill-opacity:1"
       overflow="visible"
       id="path2" />
    <path
       d="M8 1s-.709-.014-1.447.355C5.814 1.725 5 2.667 5 4v3h2V4c0-.667.186-.725.447-.855C7.71 3.014 8 3 8 3s.291.014.553.145c.261.13.447.188.447.855v3h2V4c0-1.333-.814-2.275-1.553-2.645C8.71.986 8 1 8 1z"
       style="line-height:normal;font-variant-ligatures:normal;font-variant-position:normal;font-variant-caps:normal;font-variant-numeric:normal;font-variant-alternates:normal;font-feature-settings:normal;text-indent:0;text-align:start;text-decoration-line:none;text-decoration-style:solid;text-decoration-color:#000;text-transform:none;text-orientation:mixed;shape-padding:0;isolation:auto;mix-blend-mode:normal;marker:none;fill:#666666;fill-opacity:1"
       font-weight="400"
       font-family="sans-serif"
       overflow="visible"
       id="path3" />
  </g>
</svg>
