<?xml version="1.0" encoding="UTF-8" standalone="no"?>
<svg
   width="16"
   height="16"
   viewBox="0 0 4.2333334 4.2333334"
   version="1.1"
   id="svg839"
   xmlns="http://www.w3.org/2000/svg"
   xmlns:svg="http://www.w3.org/2000/svg"
   xmlns:rdf="http://www.w3.org/1999/02/22-rdf-syntax-ns#"
   xmlns:cc="http://creativecommons.org/ns#"
   xmlns:dc="http://purl.org/dc/elements/1.1/">
  <defs
     id="defs833" />
  <metadata
     id="metadata836">
    <rdf:RDF>
      <cc:Work
         rdf:about="">
        <dc:format>image/svg+xml</dc:format>
        <dc:type
           rdf:resource="http://purl.org/dc/dcmitype/StillImage" />
      </cc:Work>
    </rdf:RDF>
  </metadata>
  <g
     id="layer1"
     transform="translate(0,-292.7664)"
     style="fill:#666666;fill-opacity:1">
    <path
       id="path2"
       style="color:#000000;font-weight:400;line-height:normal;font-family:Sans;-inkscape-font-specification:Sans;text-indent:0;text-align:start;text-decoration:none;text-decoration-line:none;text-transform:none;overflow:visible;fill:#666666;stroke-width:0.264583;marker:none;fill-opacity:1"
       overflow="visible"
       font-weight="400"
       d="m 1.0583333,292.7664 c -0.145192,0 -0.2645833,0.11959 -0.2645833,0.26459 v 0.52916 c 0,0 -0.2645833,0 -0.2645833,0.26459 v 0.79375 H 0.2645833 c 0,0 -0.2645833,0 -0.2645833,0.26458 v 1.45521 c 0,0.0747 0.05863,0.13229 0.1322917,0.13229 h 0.1322916 c 0,0.26458 0.2645834,0.26458 0.2645834,0.26458 0,0 0,0.26459 0.2645833,0.26459 h 2.6458333 c 0.2645834,0 0.2645834,-0.26459 0.2645834,-0.26459 0,0 0.2645833,0 0.2645833,-0.26458 h 0.1322917 c 0.074336,0 0.1322916,-0.057 0.1322916,-0.13229 v -1.45521 c 0,-0.26458 -0.2645833,-0.26458 -0.2645833,-0.26458 H 3.7041667 v -0.79375 c 0,-0.26459 -0.2645834,-0.26459 -0.2645834,-0.26459 v -0.52916 c 0,-0.1456 -0.1186416,-0.26459 -0.2645833,-0.26459 z m -10e-8,0.26459 H 3.175 v 1.5875 H 1.0583333 Z m 2.7781252,1.85208 c 0.071269,0 0.1322916,0.0612 0.1322916,0.13229 v 1.19063 H 0.2645833 v -1.19063 c 0,-0.0724 0.061559,-0.13229 0.1322917,-0.13229 z m -3.0427084,1.5875 h 2.6458333 v 0.26458 H 0.79375 Z" />
    <path
       style="opacity:0.5;fill:#666666;stroke-width:0.264583;fill-opacity:1"
       id="path4"
       d="m 0.79375,294.88307 v 1.05833 h 2.6458333 v -1.05833 z" />
    <path
       class="success"
       d="m 1.8520833,293.29557 0.5371042,0.003 -0.00794,0.26167 h 0.2645858 l -0.5185833,0.79428 -0.53975,-0.79428 0.2627312,5.3e-4 z"
       fill="#666"
       id="path3"
       style="fill:#666666;stroke-width:0.264583;fill-opacity:1" />
  </g>
</svg>
