<?xml version="1.0" encoding="UTF-8" standalone="no"?>
<svg
   height="16"
   width="16"
   id="svg2"
   version="1.1"
   viewBox="0 0 16 16"
   xmlns="http://www.w3.org/2000/svg"
   xmlns:svg="http://www.w3.org/2000/svg"
   xmlns:rdf="http://www.w3.org/1999/02/22-rdf-syntax-ns#"
   xmlns:cc="http://creativecommons.org/ns#"
   xmlns:dc="http://purl.org/dc/elements/1.1/">
  <metadata
     id="metadata14">
    <rdf:RDF>
      <cc:Work
         rdf:about="">
        <dc:format>image/svg+xml</dc:format>
        <dc:type
           rdf:resource="http://purl.org/dc/dcmitype/StillImage" />
      </cc:Work>
    </rdf:RDF>
  </metadata>
  <defs
     id="defs12" />
  <g
     transform="translate(-653,171)"
     id="g4">
    <path
       color="#000000"
       d="m 654.5,-170 c -0.822,0 -1.5,0.677 -1.5,1.5 v 11 c 0,0.822 0.678,1.49903 1.5,1.5 h 8.5 v -1 h -2 v -2 h 2 v -1 h -9 v -8.5 c 0,-0.286 0.215,-0.5 0.5,-0.5 h 12 c 0.286,0 0.5,0.214 0.5,0.5 v 7.5 h 1 v -7.5 c 0,-0.823 -0.677,-1.5 -1.5,-1.5 z m -0.5,11 h 6 v 2 h -5.5 c -0.27897,0.007 -0.50695,-0.22103 -0.5,-0.5 z"
       fill="#666666"
       font-family="sans-serif"
       font-weight="400"
       opacity="0.4"
       overflow="visible"
       style="line-height:normal;font-variant-ligatures:normal;font-variant-position:normal;font-variant-caps:normal;font-variant-numeric:normal;font-variant-alternates:normal;font-feature-settings:normal;text-indent:0;text-align:start;text-decoration-line:none;text-decoration-style:solid;text-decoration-color:#000000;text-transform:none;text-orientation:mixed;shape-padding:0;isolation:auto;mix-blend-mode:normal"
       white-space="normal"
       id="path6" />
    <path
       color="#bebebe"
       d="m 664,-160 h 1.375 l 1.125,1.094 1.094,-1.094 H 669 v 1.469 l -1.093,1.062 1.093,1.063 V -155 h -1.437 l -1.063,-1.063 -1.062,1.063 H 664 v -1.406 l 1.063,-1.063 -1.063,-1.061 z"
       fill="#666666"
       overflow="visible"
       style="marker:none"
       id="path8" />
  </g>
</svg>
