<?xml version="1.0" encoding="UTF-8" standalone="no"?>
<svg
   height="16"
   width="16"
   version="1.1"
   id="svg2"
   xmlns="http://www.w3.org/2000/svg"
   xmlns:svg="http://www.w3.org/2000/svg">
  <defs
     id="defs2" />
  <g
     color="#bebebe"
     transform="translate(-393,91)"
     id="g2">
    <path
       d="m 398,-89 c -2.77,0 -5,2.23 -5,5 0,2.77 2.23,5 5,5 h 3.344 l 2.656,3 v -3 c 2.77,0 5,-2.23 5,-5 0,-2.77 -2.23,-5 -5,-5 z m 0,3 h 6 c 1.108,0 2,0.892 2,2 0,1.108 -0.892,2 -2,2 h -6 c -1.108,0 -2,-0.892 -2,-2 0,-1.108 0.892,-2 2,-2 z"
       fill="#666666"
       opacity="0.35"
       overflow="visible"
       style="marker:none"
       id="path1" />
    <path
       d="m 398,-85 a 1,1 0 1 0 0,2 1,1 0 0 0 0,-2 z m 3,0 a 1,1 0 1 0 0,2 1,1 0 0 0 0,-2 z m 3,0 a 1,1 0 1 0 0,2 1,1 0 0 0 0,-2 z"
       fill="#666666"
       overflow="visible"
       style="marker:none"
       id="path2" />
  </g>
</svg>
