<?xml version="1.0" encoding="UTF-8" standalone="no"?>
<svg
   height="16"
   width="16"
   version="1.1"
   id="svg1"
   xmlns="http://www.w3.org/2000/svg"
   xmlns:svg="http://www.w3.org/2000/svg">
  <defs
     id="defs1" />
  <g
     color="#bebebe"
     transform="translate(-293,91)"
     id="g1">
    <path
       d="m 298,-89 c -2.77,0 -5,2.23 -5,5 0,2.77 2.23,5 5,5 h 3.344 l 2.656,3 v -3 c 2.77,0 5,-2.23 5,-5 0,-2.77 -2.23,-5 -5,-5 z m 0,2 h 1 c 0.276,0 0.538,0.1 0.719,0.281 l 1.281,1.281 1.281,-1.28 c 0.181,-0.182 0.443,-0.282 0.72,-0.282 h 1 v 1 c 0,0.276 -0.101,0.538 -0.282,0.719 l -1.281,1.281 1.281,1.281 c 0.18,0.181 0.281,0.443 0.281,0.719 v 1 h -1 c -0.276,0 -0.538,-0.1 -0.719,-0.281 l -1.28,-1.281 -1.282,1.28 A 1.015,1.015 0 0 1 299,-81 h -1 v -1 c 0,-0.276 0.1,-0.538 0.281,-0.719 l 1.282,-1.281 -1.282,-1.281 A 1.015,1.015 0 0 1 298.001,-86 Z"
       fill="#666666"
       overflow="visible"
       style="marker:none"
       id="path1" />
  </g>
</svg>
