<?xml version="1.0" encoding="UTF-8" standalone="no"?>
<svg
   height="16"
   width="16"
   version="1.1"
   id="svg1"
   xmlns="http://www.w3.org/2000/svg"
   xmlns:svg="http://www.w3.org/2000/svg">
  <defs
     id="defs1" />
  <g
     transform="matrix(0.99995607,0,0,1,-352.97749,191.00015)"
     id="g1"
     style="stroke-width:1.00002">
    <path
       color="#000000"
       d="m 366.396,-187.998 a 2.492,2.492 0 0 0 -1.816,0.89 0.5,0.5 0 1 0 0.765,0.643 1.495,1.495 0 0 1 1.822,-0.375 c 0.624,0.313 0.946,1.007 0.785,1.686 a 1.495,1.495 0 0 1 -1.459,1.154 h -7 a 0.5,0.5 0 1 0 0,1 h 7 a 0.5,0.5 0 0 0 0.1,-0.008 2.502,2.502 0 0 0 2.334,-1.916 2.504,2.504 0 0 0 -1.31,-2.81 2.496,2.496 0 0 0 -1.221,-0.264 z m -4.706,0.01 a 1.498,1.498 0 0 0 -1.338,0.523 0.50005125,0.50005125 0 1 0 0.766,0.643 c 0.15,-0.18 0.398,-0.23 0.608,-0.125 0.21,0.105 0.315,0.334 0.261,0.562 a 0.495,0.495 0 0 1 -0.486,0.385 0.5,0.5 0 0 0 -0.008,0 h -7 a 0.5,0.5 0 1 0 0,1 h 7 a 0.5,0.5 0 0 0 0.008,0 h 0.002 a 0.5,0.5 0 0 0 0.162,-0.027 1.492,1.492 0 0 0 1.295,-1.127 1.503,1.503 0 0 0 -1.27,-1.834 z m -8.197,3.988 a 0.5,0.5 0 1 0 0,1 h 4 a 0.5,0.5 0 1 0 0,-1 z m 0.951,2.002 a 0.50062461,0.50062461 0 0 0 0.05,1 h 11 a 0.5,0.5 0 0 0 0.007,0 c 0.235,0 0.432,0.155 0.487,0.383 a 0.496,0.496 0 0 1 -0.262,0.562 0.495,0.495 0 0 1 -0.608,-0.125 0.5,0.5 0 1 0 -0.765,0.643 1.499,1.499 0 0 0 1.822,0.377 c 0.619,-0.311 0.945,-1.014 0.785,-1.688 a 1.489,1.489 0 0 0 -1.293,-1.123 0.5,0.5 0 0 0 -0.174,-0.03 h -11 a 0.5,0.5 0 0 0 -0.049,0 z m 2.05,1.998 a 0.5,0.5 0 1 0 0,1 l 5,0.002 a 0.5,0.5 0 0 0 0.007,0 c 0.235,0 0.432,0.155 0.487,0.383 a 0.496,0.496 0 0 1 -0.262,0.562 0.495,0.495 0 0 1 -0.608,-0.125 0.5,0.5 0 1 0 -0.765,0.643 1.499,1.499 0 0 0 1.822,0.377 c 0.619,-0.31 0.945,-1.014 0.785,-1.688 a 1.489,1.489 0 0 0 -1.293,-1.123 0.5,0.5 0 0 0 -0.174,-0.029 z"
       fill="#666666"
       font-family="sans-serif"
       font-weight="400"
       overflow="visible"
       style="line-height:normal;font-variant-ligatures:normal;font-variant-position:normal;font-variant-caps:normal;font-variant-numeric:normal;font-variant-alternates:normal;font-feature-settings:normal;text-indent:0;text-align:start;text-decoration-line:none;text-decoration-style:solid;text-decoration-color:#000000;text-transform:none;text-orientation:mixed;shape-padding:0;isolation:auto;mix-blend-mode:normal;stroke-width:1.00002"
       white-space="normal"
       id="path1" />
  </g>
</svg>
