<?xml version="1.0" encoding="UTF-8" standalone="no"?>
<svg
   height="16"
   width="16"
   version="1.1"
   id="svg8"
   xmlns="http://www.w3.org/2000/svg"
   xmlns:svg="http://www.w3.org/2000/svg"
   xmlns:rdf="http://www.w3.org/1999/02/22-rdf-syntax-ns#"
   xmlns:cc="http://creativecommons.org/ns#"
   xmlns:dc="http://purl.org/dc/elements/1.1/">
  <metadata
     id="metadata14">
    <rdf:RDF>
      <cc:Work
         rdf:about="">
        <dc:format>image/svg+xml</dc:format>
        <dc:type
           rdf:resource="http://purl.org/dc/dcmitype/StillImage" />
      </cc:Work>
    </rdf:RDF>
  </metadata>
  <defs
     id="defs12" />
  <path
     style="opacity:0.6;vector-effect:none;fill:#666666;fill-opacity:1;stroke:none;stroke-width:1;stroke-linecap:butt;stroke-linejoin:miter;stroke-miterlimit:4;stroke-dasharray:none;stroke-dashoffset:0;stroke-opacity:1;marker:none;paint-order:normal"
     d="M 9,3 A 2.5,2.5 0 0 0 6.8359375,4.2539063 1.5,1.5 0 0 0 6,4 1.5,1.5 0 0 0 4.5,5.5 1.5,1.5 0 0 0 4.6015625,6.0429688 2,2 0 0 0 3,8 2,2 0 0 0 5,10 H 5.7363281 L 6.0078125,7.8730469 A 1.0010538,1.0010538 0 0 1 7,7 h 2.5 a 1.0010538,1.0010538 0 0 1 0.970703,1.2421875 L 10.28125,8.9960938 h 0.216797 a 1.0010538,1.0010538 0 0 1 1,0.9375 A 2,2 0 0 0 13,8 2,2 0 0 0 11.435547,6.0488281 2.5,2.5 0 0 0 11.5,5.5 2.5,2.5 0 0 0 9,3 Z"
     id="path859-9-2-5-4-1-7" />
  <path
     style="opacity:1;vector-effect:none;fill:#f9c440;fill-opacity:1;stroke:none;stroke-width:1;stroke-linecap:butt;stroke-linejoin:miter;stroke-miterlimit:4;stroke-dasharray:none;stroke-dashoffset:0;stroke-opacity:1;marker:none"
     d="M 9.5,8 H 7 L 6.5,12 H 8 l -0.5,3 3,-5 H 9 Z"
     class="warning"
     id="path1995" />
</svg>
