<?xml version="1.0" encoding="UTF-8" standalone="no"?>
<svg
   height="16"
   width="16"
   version="1.1"
   id="svg1"
   xmlns="http://www.w3.org/2000/svg"
   xmlns:svg="http://www.w3.org/2000/svg">
  <defs
     id="defs1" />
  <g
     transform="translate(-1133,-41)"
     id="g1"
     style="fill:#666666;fill-opacity:1">
    <path
       color="#000000"
       d="m 1141,41 c -3.315,0 -6,2.685 -6,6 v 3 h 1 v -3 c 0,-2.778 2.222,-5 5,-5 2.779,0 5,2.222 5,5 v 6 c 0,1.662 -1.338,3 -3,3 v -1 h -4 v 2 h 4 c 2.216,0 4,-1.784 4,-4 v -6 c 0,-3.315 -2.684,-6 -6,-6 z m -4,7 v 4 h 1 c 0,0 1,0 1,-1 v -2 c 0,-1 -1,-1 -1,-1 z m 7,0 c 0,0 -1,0 -1,1 v 2 c 0,1 1,1 1,1 h 1 v -4 z"
       fill="#666"
       font-family="sans-serif"
       font-weight="400"
       overflow="visible"
       style="line-height:normal;font-variant-ligatures:normal;font-variant-position:normal;font-variant-caps:normal;font-variant-numeric:normal;font-variant-alternates:normal;font-feature-settings:normal;text-indent:0;text-align:start;text-decoration-line:none;text-decoration-style:solid;text-decoration-color:#000000;text-transform:none;text-orientation:mixed;shape-padding:0;isolation:auto;mix-blend-mode:normal;fill:#666666;fill-opacity:1"
       white-space="normal"
       id="path1" />
  </g>
</svg>
