<?xml version="1.0" encoding="UTF-8" standalone="no"?>
<svg
   height="16"
   width="16"
   version="1.1"
   id="svg2"
   xmlns="http://www.w3.org/2000/svg"
   xmlns:svg="http://www.w3.org/2000/svg">
  <defs
     id="defs2" />
  <g
     transform="translate(-1113,-60.993)"
     id="g2"
     style="fill:#666666;fill-opacity:1">
    <path
       color="#000000"
       d="m 1127,60.993 c -0.5523,0 -1,0.447715 -1,1 v 1 h -11.5 c -0.822,0 -1.5,0.678 -1.5,1.5 v 9 c 0,0.823 0.678,1.5 1.5,1.5 h 11.5 v 2 h 1 v -4 h 2 v -7 h -2 v -3.5 c 0,0 0,-0.5 0.5,-0.5 h 1.5 v -1 z m -12.5,3 h 11.5 v 10 h -11.5 c -0.279,0.0069 -0.5069,-0.22103 -0.5,-0.5 v -9 c 0,-0.286 0.214,-0.5 0.5,-0.5 z m 12.5,3 h 1 v 1 h -1 z m 0,1.994 h 1 v 1.006 h -1 z m 0,2.006 h 1 v 1 h -1 z"
       fill="#666"
       font-family="sans-serif"
       font-weight="400"
       overflow="visible"
       style="line-height:normal;font-variant-ligatures:normal;font-variant-position:normal;font-variant-caps:normal;font-variant-numeric:normal;font-variant-alternates:normal;font-feature-settings:normal;text-indent:0;text-align:start;text-decoration-line:none;text-decoration-style:solid;text-decoration-color:#000000;text-transform:none;text-orientation:mixed;shape-padding:0;isolation:auto;mix-blend-mode:normal;fill:#666666;fill-opacity:1"
       white-space="normal"
       id="path1" />
    <path
       color="#bebebe"
       d="m 1122.723,64.98 c -0.059,-0.01064 -0.1203,-0.0072 -0.178,0.01 l -4.09,1.124 c -0.252,0.069 -0.455,0.348 -0.455,0.625 V 71 c -0.2895,-0.04366 -0.5847,-0.03007 -0.869,0.04 -0.803,0.196 -1.288,0.774 -1.084,1.29 0.203,0.517 1.019,0.777 1.822,0.58 0.685,-0.168 1.156,-0.62 1.131,-1.086 V 67.81 l 3,-0.823 V 70 c -0.2898,-0.04379 -0.5864,-0.0302 -0.871,0.04 -0.803,0.196 -1.288,0.774 -1.084,1.29 0.203,0.517 1.019,0.777 1.822,0.58 0.666,-0.164 1.135,-0.597 1.133,-1.053 v -5.492 c 0,-0.207 -0.118,-0.354 -0.281,-0.384 z"
       fill="#666"
       overflow="visible"
       style="fill:#666666;marker:none;fill-opacity:1"
       id="path2" />
  </g>
</svg>
