<?xml version="1.0" encoding="UTF-8" standalone="no"?>
<svg
   height="16"
   width="16"
   id="svg2"
   version="1.1"
   viewBox="0 0 16 16"
   xmlns="http://www.w3.org/2000/svg"
   xmlns:svg="http://www.w3.org/2000/svg"
   xmlns:rdf="http://www.w3.org/1999/02/22-rdf-syntax-ns#"
   xmlns:cc="http://creativecommons.org/ns#"
   xmlns:dc="http://purl.org/dc/elements/1.1/">
  <metadata
     id="metadata16">
    <rdf:RDF>
      <cc:Work
         rdf:about="">
        <dc:format>image/svg+xml</dc:format>
        <dc:type
           rdf:resource="http://purl.org/dc/dcmitype/StillImage" />
      </cc:Work>
    </rdf:RDF>
  </metadata>
  <defs
     id="defs14" />
  <g
     color="#000000"
     transform="translate(-1113.0001,-120.9998)"
     id="g3"
     style="display:inline;fill:#666666;fill-opacity:1">
    <path
       d="m 1115.48,121 c 0,0 -0.34,0.009 -0.69,0.197 a 1.564,1.564 0 0 0 -0.788,1.27 l -1,11.992 a 0.5,0.5 0 0 0 0.023,0.2 l 0.5,1.5 -0.018,-0.077 c 0.036,0.219 0.123,0.433 0.29,0.611 a 0.987,0.987 0 0 0 0.702,0.307 h 13 a 0.987,0.987 0 0 0 0.703,-0.307 c 0.166,-0.178 0.255,-0.392 0.291,-0.611 l -0.019,0.076 0.5,-1.5 a 0.5,0.5 0 0 0 0.023,-0.199 l -1,-11.992 c -0.043,-0.676 -0.434,-1.137 -0.804,-1.317 -0.372,-0.18 -0.727,-0.148 -0.727,-0.148 L 1126.5,121 h -11 a 0.5,0.5 0 0 0 -0.02,0 z m 11.055,0.998 c 0,0 0.11,-0.002 0.223,0.053 0.112,0.054 0.22,0.094 0.244,0.48 a 0.5,0.5 0 0 0 0,0.01 l 0.992,11.899 -0.469,1.402 a 0.5,0.5 0 0 0 -0.018,0.076 c -0.01,0.048 -0.027,0.073 -0.033,0.082 h -12.949 c -0.01,-0.01 -0.023,-0.034 -0.03,-0.082 a 0.5,0.5 0 0 0 -0.02,-0.076 l -0.467,-1.402 0.99,-11.899 a 0.5,0.5 0 0 0 0,-0.008 c 0.023,-0.322 0.13,-0.382 0.262,-0.453 0.132,-0.07 0.258,-0.08 0.258,-0.08 h 10.982 a 0.5,0.5 0 0 0 0.035,-0.002 z"
       fill="#666"
       fill-rule="evenodd"
       font-family="sans-serif"
       font-weight="400"
       overflow="visible"
       style="line-height:normal;font-variant-ligatures:normal;font-variant-position:normal;font-variant-caps:normal;font-variant-numeric:normal;font-variant-alternates:normal;font-feature-settings:normal;text-indent:0;text-align:start;text-decoration-line:none;text-decoration-style:solid;text-decoration-color:#000000;text-transform:none;text-orientation:mixed;shape-padding:0;isolation:auto;mix-blend-mode:normal;fill:#666666;fill-opacity:1"
       white-space="normal"
       id="path1" />
    <path
       d="m 1114,134 v 2 h 14 v -2 z"
       fill="#666"
       fill-rule="evenodd"
       font-family="sans-serif"
       font-weight="400"
       overflow="visible"
       style="line-height:normal;font-variant-ligatures:normal;font-variant-position:normal;font-variant-caps:normal;font-variant-numeric:normal;font-variant-alternates:normal;font-feature-settings:normal;text-indent:0;text-align:start;text-decoration-line:none;text-decoration-style:solid;text-decoration-color:#000000;text-transform:none;text-orientation:mixed;shape-padding:0;display:inline;isolation:auto;mix-blend-mode:normal;fill:#666666;fill-opacity:1"
       white-space="normal"
       id="path2" />
    <path
       d="m 1121,124.4998 -3,2.5 v 1 h 6 v -1 z m -3,4.5 v 2 h 6 v -2 z"
       fill="#666"
       font-family="sans-serif"
       font-weight="400"
       overflow="visible"
       style="line-height:normal;font-variant-ligatures:normal;font-variant-position:normal;font-variant-caps:normal;font-variant-numeric:normal;font-variant-alternates:normal;font-feature-settings:normal;text-indent:0;text-align:start;text-decoration-line:none;text-decoration-style:solid;text-decoration-color:#000000;text-transform:none;text-orientation:mixed;shape-padding:0;display:inline;isolation:auto;mix-blend-mode:normal;fill:#666666;fill-opacity:1"
       white-space="normal"
       id="path3" />
  </g>
</svg>
