<?xml version="1.0" encoding="UTF-8" standalone="no"?>
<svg
   height="16"
   width="16"
   version="1.1"
   id="svg1"
   xmlns="http://www.w3.org/2000/svg"
   xmlns:svg="http://www.w3.org/2000/svg">
  <defs
     id="defs1" />
  <g
     color="#000000"
     transform="translate(-1192.99,-80.993)"
     id="g1"
     style="fill:#666666;fill-opacity:1">
    <path
       d="m 1194.49,81.993 c -0.822,0 -1.5,0.678 -1.5,1.5 v 11 c 0,0.822 0.678,1.5 1.5,1.5 h 12 c 0.823,0 1.5,-0.678 1.5,-1.5 v -11 c 0,-0.822 -0.677,-1.5 -1.5,-1.5 z m 0,1 h 12 c 0.286,0 0.5,0.214 0.5,0.5 v 8.5 h -13 v -8.5 c 0,-0.286 0.215,-0.5 0.5,-0.5 z m -0.5,10 h 6 v 2 h -5.5 c -0.279,0.0069 -0.5069,-0.22103 -0.5,-0.5 z m 7,0 h 6 v 1.5 c 0,0.286 -0.214,0.499427 -0.5,0.5 h -5.5 z"
       fill="#666"
       font-family="sans-serif"
       font-weight="400"
       overflow="visible"
       style="line-height:normal;font-variant-ligatures:normal;font-variant-position:normal;font-variant-caps:normal;font-variant-numeric:normal;font-variant-alternates:normal;font-feature-settings:normal;text-indent:0;text-align:start;text-decoration-line:none;text-decoration-style:solid;text-decoration-color:#000000;text-transform:none;text-orientation:mixed;shape-padding:0;isolation:auto;mix-blend-mode:normal;fill:#666666;fill-opacity:1"
       white-space="normal"
       id="path1" />
  </g>
</svg>
