<?xml version="1.0" encoding="UTF-8" standalone="no"?>
<svg
   height="16"
   width="16"
   version="1.1"
   id="svg1"
   xmlns="http://www.w3.org/2000/svg"
   xmlns:svg="http://www.w3.org/2000/svg">
  <defs
     id="defs1" />
  <g
     color="#000000"
     transform="translate(-1253,-80.993)"
     id="g1"
     style="fill:#666666;fill-opacity:1">
    <path
       d="m 1254.5,82.993 c -0.822,0 -1.5,0.678 -1.5,1.5 v 10 c 0,0.822 0.678,1.5 1.5,1.5 h 12 c 0.823,0 1.5,-0.678 1.5,-1.5 v -8.038 l 0.729,-0.732 c 0.18,-0.182 0.271,-0.442 0.271,-0.72 0,-0.553 -0.436,-1 -0.99,-1 -0.034,0 -0.064,0.004 -0.098,0.008 -0.2063,-0.60509 -0.7727,-1.013487 -1.412,-1.018 z m 0,1 h 1.5 v 3 h -2 v -2.5 c 0,-0.286 0.215,-0.5 0.5,-0.5 z m 2.51,0 h 9.49 c 0.286,0 0.5,0.214 0.5,0.5 v 0.081 l -5.99,5.961 v 1.469 h 1.469 L 1267,87.459 v 7.034 c 0,0.286 -0.214,0.5 -0.5,0.5 h -9.49 z m -3.01,4 h 2 v 3 h -2 z m 0,4 h 2 v 3 h -1.5 c -0.279,0.0069 -0.5069,-0.22103 -0.5,-0.5 z"
       fill="#666"
       font-family="sans-serif"
       font-weight="400"
       overflow="visible"
       style="line-height:normal;font-variant-ligatures:normal;font-variant-position:normal;font-variant-caps:normal;font-variant-numeric:normal;font-variant-alternates:normal;font-feature-settings:normal;text-indent:0;text-align:start;text-decoration-line:none;text-decoration-style:solid;text-decoration-color:#000000;text-transform:none;text-orientation:mixed;shape-padding:0;isolation:auto;mix-blend-mode:normal;fill:#666666;fill-opacity:1"
       white-space="normal"
       id="path1" />
  </g>
</svg>
