<?xml version="1.0" encoding="UTF-8" standalone="no"?>
<svg
   height="16"
   width="16"
   version="1.1"
   id="svg1"
   xmlns="http://www.w3.org/2000/svg"
   xmlns:svg="http://www.w3.org/2000/svg">
  <defs
     id="defs1" />
  <g
     transform="translate(-1233,-81.004)"
     id="g1"
     style="fill:#666666;fill-opacity:1">
    <path
       color="#000000"
       d="m 1239.5,82.004 a 4.501,4.501 0 0 0 -4.5,4.5 v 6 c 0,2.484 2.016,4.5 4.5,4.5 h 2 c 2.484,0 4.5,-2.016 4.5,-4.5 v -6 c 0,-2.484 -2.016,-4.5 -4.5,-4.5 z m 0,1 h 0.5 v 4 h -4 v -0.5 c 0,-1.948 1.553,-3.5 3.5,-3.5 z m 1.5,0 h 0.5 c 1.948,0 3.5,1.552 3.5,3.5 v 0.5 h -4 z m -5,5 h 9 v 4.5 c 0,1.948 -1.552,3.5 -3.5,3.5 h -2 a 3.481,3.481 0 0 1 -3.5,-3.5 z"
       fill="#666"
       font-family="sans-serif"
       font-weight="400"
       overflow="visible"
       style="line-height:normal;font-variant-ligatures:normal;font-variant-position:normal;font-variant-caps:normal;font-variant-numeric:normal;font-variant-alternates:normal;font-feature-settings:normal;text-indent:0;text-align:start;text-decoration-line:none;text-decoration-style:solid;text-decoration-color:#000000;text-transform:none;text-orientation:mixed;shape-padding:0;isolation:auto;mix-blend-mode:normal;fill:#666666;fill-opacity:1"
       white-space="normal"
       id="path1" />
  </g>
</svg>
