<?xml version="1.0" encoding="UTF-8" standalone="no"?>
<svg
   height="16"
   width="16"
   version="1.1"
   id="svg1"
   xmlns="http://www.w3.org/2000/svg"
   xmlns:svg="http://www.w3.org/2000/svg">
  <defs
     id="defs1" />
  <g
     color="#000000"
     transform="translate(-1292.99,-41.004)"
     id="g1"
     style="fill:#666666;fill-opacity:1">
    <path
       d="m 1296.49,42.004 c -0.822,0 -1.5,0.678 -1.5,1.5 v 12 c 0,0.822 0.678,1.5 1.5,1.5 h 9 c 0.823,0 1.5,-0.678 1.5,-1.5 v -9.065 l 1.72,-1.726 c 0.18,-0.18 0.28,-0.442 0.28,-0.719 0,-0.554 -0.446,-1 -1,-1 -0.277,0 -0.537,0.101 -0.718,0.281 l -0.282,0.28 v -0.051 c 0,-0.822 -0.677,-1.5 -1.5,-1.5 z m 0,1 h 9 c 0.286,0 0.5,0.214 0.5,0.5 v 1 l -5,5 v 1.5 h 1.5 l 3.5,-3.5 v 7.5 h -10 v -11.5 c 0,-0.286 0.215,-0.5 0.5,-0.5 z"
       fill="#666"
       font-family="sans-serif"
       font-weight="400"
       overflow="visible"
       style="line-height:normal;font-variant-ligatures:normal;font-variant-position:normal;font-variant-caps:normal;font-variant-numeric:normal;font-variant-alternates:normal;font-feature-settings:normal;text-indent:0;text-align:start;text-decoration-line:none;text-decoration-style:solid;text-decoration-color:#000000;text-transform:none;text-orientation:mixed;shape-padding:0;isolation:auto;mix-blend-mode:normal;fill:#666666;fill-opacity:1"
       white-space="normal"
       id="path1" />
  </g>
</svg>
