<?xml version="1.0" encoding="UTF-8" standalone="no"?>
<svg
   height="16"
   width="16"
   version="1.1"
   id="svg2"
   xmlns="http://www.w3.org/2000/svg"
   xmlns:svg="http://www.w3.org/2000/svg">
  <defs
     id="defs2" />
  <g
     transform="translate(-1133,-21)"
     id="g2"
     style="fill:#666666;fill-opacity:1">
    <path
       color="#000000"
       d="m 1137,21 c -1.108,0 -2,0.892 -2,2 v 13.5 c 0,0 0,0.5 0.5,0.5 h 11 c 0,0 0.5,0 0.5,-0.5 V 23 c 0,-1.108 -0.892,-2 -2,-2 z m 0,1 h 8 c 0.554,0 1,0.446 1,1 v 10.5 c 0,0 0.054,0.5 -0.5,0.5 h -9 c 0,0 -0.5,0 -0.5,-0.5 V 23 c 0,-0.554 0.446,-1 1,-1 z m 8.5,13 a 0.5,0.5 0 1 1 0,1 0.5,0.5 0 0 1 0,-1 z"
       fill="#666"
       overflow="visible"
       style="fill:#666666;marker:none;fill-opacity:1"
       id="path1" />
    <path
       color="#bebebe"
       d="m 1141,24 -3,5 h 3 v 3 l 3,-5 h -3 z"
       fill="#666"
       overflow="visible"
       style="isolation:auto;mix-blend-mode:normal;fill:#666666;marker:none;fill-opacity:1"
       id="path2" />
  </g>
</svg>
