<?xml version="1.0" encoding="UTF-8" standalone="no"?>
<svg
   version="1.0"
   width="22"
   height="22"
   id="svg3910"
   xmlns:xlink="http://www.w3.org/1999/xlink"
   xmlns="http://www.w3.org/2000/svg"
   xmlns:svg="http://www.w3.org/2000/svg"
   xmlns:rdf="http://www.w3.org/1999/02/22-rdf-syntax-ns#"
   xmlns:cc="http://creativecommons.org/ns#"
   xmlns:dc="http://purl.org/dc/elements/1.1/">
  <metadata
     id="metadata23">
    <rdf:RDF>
      <cc:Work
         rdf:about="">
        <dc:format>image/svg+xml</dc:format>
        <dc:type
           rdf:resource="http://purl.org/dc/dcmitype/StillImage" />
      </cc:Work>
    </rdf:RDF>
  </metadata>
  <defs
     id="defs3912">
    <linearGradient
       xlink:href="#linearGradient3678"
       id="linearGradient2399"
       gradientUnits="userSpaceOnUse"
       gradientTransform="matrix(0.4101105,0,0,0.5452071,-33.509578,0.0845009)"
       x1="95.494781"
       y1="7.181673"
       x2="95.494781"
       y2="34.699265" />
    <linearGradient
       xlink:href="#linearGradient3678"
       id="linearGradient2404"
       gradientUnits="userSpaceOnUse"
       gradientTransform="translate(-24.710843,-1.9586168)"
       x1="41.73494"
       y1="3.9481401"
       x2="41.73494"
       y2="20.989416" />
    <linearGradient
       xlink:href="#linearGradient7300"
       id="linearGradient2407"
       gradientUnits="userSpaceOnUse"
       gradientTransform="matrix(0.4101105,0,0,0.09912855,-33.509578,13.924455)"
       x1="121.69988"
       y1="10.850004"
       x2="121.69988"
       y2="31.026016" />
    <linearGradient
       id="linearGradient7300">
      <stop
         offset="0"
         style="stop-color:#ff5a5a;stop-opacity:1;"
         id="stop7302" />
      <stop
         offset="0.704952"
         style="stop-color:#de4040;stop-opacity:1;"
         id="stop7304" />
      <stop
         offset="1"
         style="stop-color:#bd2121;stop-opacity:1;"
         id="stop7306" />
    </linearGradient>
    <linearGradient
       id="linearGradient3678">
      <stop
         id="stop3680"
         offset="0"
         style="stop-color:#ffffff;stop-opacity:1;" />
      <stop
         id="stop3682"
         offset="1"
         style="stop-color:#e6e6e6;stop-opacity:1;" />
    </linearGradient>
  </defs>
  <rect
     style="opacity:0.29999999999999999;fill:none;fill-opacity:1;fill-rule:nonzero;stroke:#ffffff;stroke-width:0.50000000000000000;stroke-linecap:round;stroke-linejoin:miter;marker:none;marker-start:none;marker-mid:none;marker-end:none;stroke-miterlimit:4;stroke-dasharray:none;stroke-dashoffset:0;stroke-opacity:1;visibility:visible;display:inline;overflow:visible;enable-background:accumulate"
     id="rect3236"
     transform="matrix(0,-1,1,0,0,0)"
     y="13.25"
     x="-17.75"
     ry="0.24999999"
     rx="0.25"
     height="5.4999995"
     width="12.5" />
  <rect
     style="opacity:0.5;fill:#000000;fill-opacity:1;fill-rule:nonzero;stroke:none;stroke-width:1;stroke-linecap:butt;stroke-linejoin:miter;marker:none;marker-start:none;marker-mid:none;marker-end:none;stroke-miterlimit:4;stroke-dasharray:none;stroke-dashoffset:0;stroke-opacity:1;visibility:visible;display:inline;overflow:visible;enable-background:accumulate"
     id="rect3296"
     y="16"
     x="14"
     ry="0"
     rx="0"
     height="2"
     width="4" />
  <path
     style="opacity:0.5;fill:none;fill-opacity:1;fill-rule:nonzero;stroke:#000000;stroke-width:1;stroke-linecap:round;stroke-linejoin:miter;marker:none;marker-start:none;marker-mid:none;marker-end:none;stroke-miterlimit:4;stroke-dasharray:none;stroke-dashoffset:0;stroke-opacity:1;visibility:visible;display:inline;overflow:visible;enable-background:accumulate"
     id="path3214"
     d="M 12.5,18.5 L 12.5,6.5 C 12.5,5.946 12.946,5.5 13.5,5.5 L 18.5,5.5 C 19.054,5.5 19.5,5.946 19.5,6.5 L 19.5,18.5 C 19.5,19.054 19.054,19.5 18.5,19.5 L 13.5,19.5 C 12.946,19.5 12.5,19.054 12.5,18.5 z M 14.50264,5.381549 C 14.50334,5.053509 14.504168,4.725473 14.505144,4.397441 C 14.545901,3.799616 15.15474,3.420708 15.717338,3.499967 C 16.25026,3.5234 16.894234,3.375846 17.272203,3.863162 C 17.622964,4.30164 17.463608,4.884362 17.5,5.400369" />
  <rect
     style="opacity:1;fill:url(#linearGradient2407);fill-opacity:1;fill-rule:nonzero;stroke:none;stroke-width:1;stroke-linecap:butt;stroke-linejoin:miter;marker:none;marker-start:none;marker-mid:none;marker-end:none;stroke-miterlimit:4;stroke-dasharray:none;stroke-dashoffset:0;stroke-opacity:1;visibility:visible;display:inline;overflow:visible;enable-background:accumulate"
     id="rect3728"
     y="15"
     x="14"
     ry="0"
     rx="0"
     height="2"
     width="4" />
  <path
     style="opacity:1;fill:none;fill-opacity:1;fill-rule:nonzero;stroke:url(#linearGradient2404);stroke-width:1;stroke-linecap:round;stroke-linejoin:miter;marker:none;marker-start:none;marker-mid:none;marker-end:none;stroke-miterlimit:4;stroke-dasharray:none;stroke-dashoffset:0;stroke-opacity:1;visibility:visible;display:inline;overflow:visible;enable-background:accumulate"
     id="rect2442"
     d="M 12.5,17.5 L 12.5,5.5 C 12.5,4.946 12.946,4.5 13.5,4.5 L 18.5,4.5 C 19.054,4.5 19.5,4.946 19.5,5.5 L 19.5,17.5 C 19.5,18.054 19.054,18.5 18.5,18.5 L 13.5,18.5 C 12.946,18.5 12.5,18.054 12.5,17.5 z M 14.50264,4.381549 C 14.50334,4.053509 14.504168,3.725473 14.505144,3.397441 C 14.545901,2.799616 15.15474,2.420708 15.717338,2.499967 C 16.25026,2.5234 16.894234,2.375846 17.272203,2.863162 C 17.622964,3.30164 17.463608,3.884362 17.5,4.400369" />
  <path
     style="display:inline;overflow:visible;visibility:visible;opacity:0.5;fill:#000000;fill-opacity:1;fill-rule:nonzero;stroke:none;stroke-width:1;marker:none;enable-background:accumulate"
     d="M 3,5 C 2.446,5 2,5.446 2,6 v 13 c 0,0.554 0.446,1 1,1 h 6 c 0.554,0 1,-0.446 1,-1 V 6 C 10,5.446 9.554,5 9,5 Z m 2.25,1 h 1.5 C 6.8885,6 7,6.1115 7,6.25 7,6.3885 6.8885,6.5 6.75,6.5 H 5.25 C 5.1115,6.5 5,6.3885 5,6.25 5,6.1115 5.1115,6 5.25,6 Z M 3.5,8 h 5 C 8.777,8 9,8.223 9,8.5 v 8 C 9,16.777 8.777,17 8.5,17 h -5 C 3.223,17 3,16.777 3,16.5 v -8 C 3,8.223 3.223,8 3.5,8 Z M 6,18 c 0.276142,0 0.5,0.223858 0.5,0.5 C 6.5,18.776142 6.276142,19 6,19 5.723858,19 5.5,18.776142 5.5,18.5 5.5,18.223858 5.723858,18 6,18 Z"
     id="rect2397-5" />
  <path
     style="display:inline;overflow:visible;visibility:visible;fill:url(#linearGradient2399);fill-opacity:1;fill-rule:nonzero;stroke:none;stroke-width:1;marker:none;enable-background:accumulate"
     d="M 3,4 C 2.446,4 2,4.446 2,5 v 13 c 0,0.554 0.446,1 1,1 h 6 c 0.554,0 1,-0.446 1,-1 V 5 C 10,4.446 9.554,4 9,4 Z m 2.25,1 h 1.5 C 6.8885,5 7,5.1115 7,5.25 7,5.3885 6.8885,5.5 6.75,5.5 H 5.25 C 5.1115,5.5 5,5.3885 5,5.25 5,5.1115 5.1115,5 5.25,5 Z M 3.5,7 h 5 C 8.777,7 9,7.223 9,7.5 v 8 C 9,15.777 8.777,16 8.5,16 h -5 C 3.223,16 3,15.777 3,15.5 v -8 C 3,7.223 3.223,7 3.5,7 Z M 6,17 c 0.276142,0 0.5,0.223858 0.5,0.5 C 6.5,17.776142 6.276142,18 6,18 5.723858,18 5.5,17.776142 5.5,17.5 5.5,17.223858 5.723858,17 6,17 Z"
     id="rect2397-6" />
</svg>
