<?xml version="1.0" encoding="UTF-8" standalone="no"?>
<svg
   version="1.0"
   width="22"
   height="22"
   id="svg2"
   xmlns:xlink="http://www.w3.org/1999/xlink"
   xmlns="http://www.w3.org/2000/svg"
   xmlns:svg="http://www.w3.org/2000/svg"
   xmlns:rdf="http://www.w3.org/1999/02/22-rdf-syntax-ns#"
   xmlns:cc="http://creativecommons.org/ns#"
   xmlns:dc="http://purl.org/dc/elements/1.1/">
  <metadata
     id="metadata48">
    <rdf:RDF>
      <cc:Work
         rdf:about="">
        <dc:format>image/svg+xml</dc:format>
        <dc:type
           rdf:resource="http://purl.org/dc/dcmitype/StillImage" />
      </cc:Work>
    </rdf:RDF>
  </metadata>
  <defs
     id="defs4">
    <linearGradient
       id="linearGradient5">
      <stop
         id="stop3"
         style="stop-color:#ffffff;stop-opacity:1;"
         offset="0" />
      <stop
         id="stop4"
         style="stop-color:#e6e6e6;stop-opacity:1;"
         offset="1" />
    </linearGradient>
    <linearGradient
       xlink:href="#linearGradient2"
       id="linearGradient3300-6"
       gradientUnits="userSpaceOnUse"
       gradientTransform="matrix(0.4101105,0,0,0.5452071,-27.798735,1.0431177)"
       x1="97.04393"
       y1="12.760073"
       x2="97.04393"
       y2="34.770058" />
    <linearGradient
       id="linearGradient2">
      <stop
         id="stop1"
         style="stop-color:#ffffff;stop-opacity:1;"
         offset="0" />
      <stop
         id="stop2"
         style="stop-color:#e6e6e6;stop-opacity:1;"
         offset="1" />
    </linearGradient>
    <linearGradient
       xlink:href="#linearGradient2"
       id="linearGradient4"
       x1="6.0020161"
       y1="1.0017921"
       x2="6.0020161"
       y2="14.998208"
       gradientUnits="userSpaceOnUse"
       gradientTransform="translate(4)" />
    <linearGradient
       xlink:href="#linearGradient5"
       id="linearGradient18"
       x1="10.998824"
       y1="3.3043795"
       x2="10.998824"
       y2="19.302029"
       gradientUnits="userSpaceOnUse"
       gradientTransform="translate(0,-1.3)" />
  </defs>
  <path
     id="path3122-6"
     style="color:#000000;display:inline;overflow:visible;visibility:visible;opacity:0.2;fill:#000000;fill-opacity:1;fill-rule:nonzero;stroke:none;stroke-width:1;marker:none;enable-background:accumulate"
     d="M 11,2 C 9.338,2 8,3.338 8,5 v 1 l 6,6 V 5 C 14,3.338 12.662,2 11,2 Z m -3,8 v 3 c 0,1.662 1.338,3 3,3 0.830004,0 1.578997,-0.333898 2.121094,-0.875 z M 5,9 v 1 h 1 v 3 c 0,2.42375 1.717481,4.441543 4,4.90625 V 20 H 9 v 1 h 4 v -1 h -1 v -2.09375 c 0.979849,-0.199491 1.854733,-0.686026 2.535156,-1.367188 0,0 -0.709778,-0.688659 -0.705078,-0.708984 C 13.107078,16.553078 12.108,17 11,17 8.784,17 7,15.216 7,13 V 9 H 6 Z m 10,0 v 4 c 0,0 0.922299,0.909179 0.916016,0.919922 C 15.971362,13.621522 16,13.314586 16,13 v -3 h 1 V 9 h -1 z" />
  <path
     id="path3122"
     style="color:#000000;display:inline;overflow:visible;visibility:visible;opacity:0.4;fill:url(#linearGradient4);fill-rule:nonzero;stroke:none;stroke-width:1;marker:none;enable-background:accumulate"
     d="M 11,1 C 9.338,1 8,2.338 8,4 v 2 l 6,6 V 4 C 14,2.338 12.662,1 11,1 Z m -3,9 v 2 c 0,1.662 1.338,3 3,3 0.574476,0 1.109273,-0.159657 1.564453,-0.4375 C 12.575496,14.586859 8,10 8,10 Z" />
  <path
     id="rect3004"
     style="color:#000000;display:inline;overflow:visible;visibility:visible;opacity:0.4;fill:url(#linearGradient3300-6);fill-opacity:1;fill-rule:nonzero;stroke:none;stroke-width:1;marker:none;enable-background:accumulate"
     d="m 5,8 v 1 h 1 v 3 c 0,2.42375 1.717481,4.441543 4,4.90625 V 19 H 9 v 1 h 4 V 19 H 12 V 16.90625 C 12.740831,16.755421 13.417619,16.438823 14,16 14.000138,16.0025 13.287109,15.285156 13.287109,15.285156 12.639777,15.735499 11.851745,16 11,16 8.784,16 7,14.216 7,12 V 9 L 6,8 Z m 10,0 v 4 c 0,0.309193 -0.03382,0.609737 -0.09961,0.898438 l 0.804687,0.802734 C 15.896434,13.170354 16,12.597292 16,12 V 9 h 1 V 8 h -1 z" />
  <path
     id="path17"
     style="display:inline;opacity:0.2;fill:#000000;fill-opacity:1;stroke-width:0.5"
     d="M 2,2 20,20 19,21 1,3 Z" />
  <path
     id="rect12"
     style="display:inline;opacity:0.4;fill:url(#linearGradient18);stroke-width:0.5"
     d="M 3,1 21,19 20,20 2,2 Z" />
</svg>
