<?xml version="1.0" encoding="UTF-8" standalone="no"?>
<svg
   version="1.0"
   width="22"
   height="22"
   id="svg2"
   xmlns:xlink="http://www.w3.org/1999/xlink"
   xmlns="http://www.w3.org/2000/svg"
   xmlns:svg="http://www.w3.org/2000/svg"
   xmlns:rdf="http://www.w3.org/1999/02/22-rdf-syntax-ns#"
   xmlns:cc="http://creativecommons.org/ns#"
   xmlns:dc="http://purl.org/dc/elements/1.1/">
  <metadata
     id="metadata48">
    <rdf:RDF>
      <cc:Work
         rdf:about="">
        <dc:format>image/svg+xml</dc:format>
        <dc:type
           rdf:resource="http://purl.org/dc/dcmitype/StillImage" />
      </cc:Work>
    </rdf:RDF>
  </metadata>
  <defs
     id="defs4">
    <linearGradient
       xlink:href="#linearGradient3587-6-5-3-0-6"
       id="linearGradient3298-3"
       gradientUnits="userSpaceOnUse"
       gradientTransform="matrix(0.4101105,0,0,0.5452071,-31.798735,1.0431177)"
       x1="97.04393"
       y1="-0.079084992"
       x2="97.04393"
       y2="29.635708" />
    <linearGradient
       id="linearGradient3587-6-5-3-0-6">
      <stop
         id="stop3589-9-2-2-7-7"
         style="stop-color:#ffffff;stop-opacity:1;"
         offset="0" />
      <stop
         id="stop3591-7-4-73-6-5"
         style="stop-color:#e6e6e6;stop-opacity:1;"
         offset="1" />
    </linearGradient>
    <linearGradient
       xlink:href="#linearGradient3587-6-5-3-0-6"
       id="linearGradient3300-3"
       gradientUnits="userSpaceOnUse"
       gradientTransform="matrix(0.4101105,0,0,0.5452071,-31.798735,1.0431177)"
       x1="97.04393"
       y1="12.760073"
       x2="97.04393"
       y2="34.770058" />
    <linearGradient
       xlink:href="#linearGradient3587-6-5-3-0-6"
       id="linearGradient13"
       x1="21.003721"
       y1="1.0035838"
       x2="21.003447"
       y2="20"
       gradientUnits="userSpaceOnUse" />
    <linearGradient
       xlink:href="#linearGradient3587-6-5-3-0-6"
       id="linearGradient12"
       x1="19.998207"
       y1="0.99684125"
       x2="19.998207"
       y2="19.998228"
       gradientUnits="userSpaceOnUse" />
  </defs>
  <g
     id="layer1"
     transform="translate(0,6)">
    <path
       style="color:#000000;display:inline;overflow:visible;visibility:visible;opacity:0.5;fill:#000000;fill-opacity:1;fill-rule:nonzero;stroke:none;stroke-width:1;marker:none;enable-background:accumulate"
       d="M 7,2 C 5.338,2 4,3.338 4,5 v 8 c 0,1.662 1.338,3 3,3 1.662,0 3,-1.338 3,-3 V 5 C 10,3.338 8.662,2 7,2 Z M 1,9 v 1 h 1 v 3 c 0,2.42375 1.717481,4.441543 4,4.90625 V 20 H 5 v 1 H 9 V 20 H 8 V 17.90625 C 10.28252,17.441543 12,15.42375 12,13 v -3 h 1 V 9 h -1 -1 v 4 C 11,15.216 9.216,17 7,17 4.784,17 3,15.216 3,13 V 9 H 2 Z"
       id="path3122-6"
       transform="translate(0,-6)" />
    <path
       style="color:#000000;display:inline;overflow:visible;visibility:visible;fill:url(#linearGradient3298-3);fill-opacity:1;fill-rule:nonzero;stroke:none;stroke-width:1;marker:none;enable-background:accumulate"
       d="M 7,1 C 5.338,1 4,2.338 4,4 v 8 c 0,1.662 1.338,3 3,3 1.662,0 3,-1.338 3,-3 V 4 C 10,2.338 8.662,1 7,1 Z"
       id="path3122"
       transform="translate(0,-6)" />
    <path
       style="color:#000000;display:inline;overflow:visible;visibility:visible;fill:url(#linearGradient3300-3);fill-opacity:1;fill-rule:nonzero;stroke:none;stroke-width:1;marker:none;enable-background:accumulate"
       d="m 1,8 v 1 h 1 v 3 c 0,2.42375 1.717481,4.441543 4,4.90625 V 19 H 5 v 1 H 9 V 19 H 8 V 16.90625 C 10.28252,16.441543 12,14.42375 12,12 V 9 h 1 V 8 h -1 -1 v 4 C 11,14.216 9.216,16 7,16 4.784,16 3,14.216 3,12 V 8 H 2 Z"
       id="rect3004"
       transform="translate(0,-6)" />
    <g
       id="g3"
       transform="translate(0,-6)"
       style="display:inline">
      <circle
         color="#000000"
         cx="18.5"
         cy="18.5"
         fill="#666"
         overflow="visible"
         style="opacity:0.5;fill:#000000;fill-opacity:1;stroke-width:1;marker:none"
         id="circle1"
         r="2.5" />
      <circle
         color="#000000"
         cx="18.5"
         cy="11.5"
         fill="#666"
         overflow="visible"
         style="opacity:0.5;fill:#000000;fill-opacity:1;stroke-width:1;marker:none"
         id="circle2"
         r="2.5" />
      <ellipse
         color="#000000"
         cx="18.499998"
         cy="4.5"
         fill="#666"
         overflow="visible"
         style="opacity:0.2;fill:none;fill-opacity:1;stroke:#000000;stroke-width:0.999997;stroke-opacity:1;marker:none"
         id="circle3"
         rx="2"
         ry="2.0000014" />
    </g>
    <g
       id="g1"
       transform="translate(0,-6)">
      <circle
         color="#000000"
         cx="18.5"
         cy="17.5"
         fill="#666"
         overflow="visible"
         style="opacity:1;fill:url(#linearGradient13);fill-opacity:1;stroke-width:1;marker:none"
         id="ellipse8"
         r="2.5" />
      <circle
         color="#000000"
         cx="18.5"
         cy="10.5"
         fill="#666"
         overflow="visible"
         style="opacity:1;fill:url(#linearGradient12);fill-opacity:1;stroke-width:1;marker:none"
         id="ellipse10"
         r="2.5" />
      <ellipse
         color="#000000"
         cx="18.499998"
         cy="3.5000005"
         fill="#666"
         overflow="visible"
         style="opacity:0.4;fill:none;fill-opacity:1;stroke:#d4d4d4;stroke-width:0.999997;stroke-opacity:1;marker:none"
         id="ellipse12"
         rx="2"
         ry="2.0000019" />
    </g>
  </g>
</svg>
