<?xml version="1.0" encoding="UTF-8" standalone="no"?>
<svg
   version="1.1"
   width="128"
   height="128"
   id="svg3767"
   xmlns:xlink="http://www.w3.org/1999/xlink"
   xmlns="http://www.w3.org/2000/svg"
   xmlns:svg="http://www.w3.org/2000/svg"
   xmlns:rdf="http://www.w3.org/1999/02/22-rdf-syntax-ns#"
   xmlns:cc="http://creativecommons.org/ns#"
   xmlns:dc="http://purl.org/dc/elements/1.1/">
  <defs
     id="defs3769">
    <linearGradient
       id="linearGradient4011">
      <stop
         id="stop4013"
         style="stop-color:#ffffff;stop-opacity:1"
         offset="0" />
      <stop
         id="stop4015"
         style="stop-color:#ffffff;stop-opacity:0.23529412"
         offset="0.507761" />
      <stop
         id="stop4017"
         style="stop-color:#ffffff;stop-opacity:0.15686275"
         offset="0.83456558" />
      <stop
         id="stop4019"
         style="stop-color:#ffffff;stop-opacity:0.39215687"
         offset="1" />
    </linearGradient>
    <radialGradient
       r="10.625"
       fy="4.625"
       fx="62.625"
       cy="4.625"
       cx="62.625"
       gradientTransform="matrix(5.7750605,0,0,2.0085789,-297.14415,30.222907)"
       gradientUnits="userSpaceOnUse"
       id="radialGradient4188"
       xlink:href="#linearGradient8838" />
    <linearGradient
       id="linearGradient8838">
      <stop
         id="stop8840"
         style="stop-color:#000000;stop-opacity:1"
         offset="0" />
      <stop
         id="stop8842"
         style="stop-color:#000000;stop-opacity:0"
         offset="1" />
    </linearGradient>
    <radialGradient
       xlink:href="#linearGradient2867-449-88-871-390-598-476-591-434-148-57-177-3-8"
       id="radialGradient3093"
       gradientUnits="userSpaceOnUse"
       gradientTransform="matrix(0,5.7730127,-6.1071589,-1.5713253e-7,116.10436,-92.020186)"
       cx="5.7629337"
       cy="8.4497671"
       fx="5.7629337"
       fy="8.4497671"
       r="19.99999" />
    <linearGradient
       id="linearGradient2867-449-88-871-390-598-476-591-434-148-57-177-3-8">
      <stop
         offset="0"
         style="stop-color:#90dbec;stop-opacity:1;"
         id="stop3750-8-9" />
      <stop
         offset="0.26238"
         style="stop-color:#42baea;stop-opacity:1;"
         id="stop3752-3-2" />
      <stop
         offset="0.704952"
         style="stop-color:#3689e6;stop-opacity:1;"
         id="stop3754-7-2" />
      <stop
         offset="1"
         style="stop-color:#2b63a0;stop-opacity:1;"
         id="stop3756-9-3" />
    </linearGradient>
    <linearGradient
       xlink:href="#linearGradient3707-319-631-407-324-3-8"
       id="linearGradient3095"
       gradientUnits="userSpaceOnUse"
       gradientTransform="matrix(2.666914,0,0,2.666914,0.49408,-61.505937)"
       x1="24"
       y1="44"
       x2="24"
       y2="3.8990016" />
    <linearGradient
       id="linearGradient3707-319-631-407-324-3-8">
      <stop
         offset="0"
         style="stop-color:#185f9a;stop-opacity:1;"
         id="stop3760-7-3" />
      <stop
         offset="1"
         style="stop-color:#599ec9;stop-opacity:1;"
         id="stop3762-8-4" />
    </linearGradient>
    <linearGradient
       xlink:href="#linearGradient4011"
       id="linearGradient3090"
       gradientUnits="userSpaceOnUse"
       gradientTransform="matrix(2.7567564,0,0,2.7567564,-133.25186,-67.403741)"
       x1="71.204407"
       y1="6.2375584"
       x2="71.204407"
       y2="44.340794" />
  </defs>
  <metadata
     id="metadata3772">
    <rdf:RDF>
      <cc:Work
         rdf:about="">
        <dc:format>image/svg+xml</dc:format>
        <dc:type
           rdf:resource="http://purl.org/dc/dcmitype/StillImage" />
        <dc:title />
      </cc:Work>
    </rdf:RDF>
  </metadata>
  <g
     id="layer1"
     transform="translate(1.68e-5,64)">
    <path
       d="m 125.87901,39.512601 c 0,11.786399 -27.471807,21.341179 -61.36001,21.341179 -33.888198,0 -61.3600168,-9.55478 -61.3600168,-21.341179 0,-11.786422 27.4718188,-21.341187 61.3600168,-21.341187 33.888203,0 61.36001,9.554765 61.36001,21.341187 z"
       id="path8836"
       style="display:inline;overflow:visible;visibility:visible;opacity:0.5;fill:url(#radialGradient4188);fill-opacity:1;fill-rule:evenodd;stroke:none;stroke-width:1;marker:none" />
    <path
       style="color:#000000;display:inline;overflow:visible;visibility:visible;fill:url(#radialGradient3093);fill-opacity:1;fill-rule:nonzero;stroke:url(#linearGradient3095);stroke-width:1;stroke-linecap:round;stroke-linejoin:round;stroke-miterlimit:4;stroke-dasharray:none;stroke-dashoffset:0;stroke-opacity:1;marker:none;enable-background:accumulate"
       id="path2555-7"
       d="M 64.500003,-49.5 C 35.8082,-49.5 12.5,-26.191809 12.5,2.499999 12.5,31.191807 35.8082,54.5 64.500003,54.5 93.191813,54.5 116.50003,31.191807 116.50001,2.499999 116.50001,-26.191809 93.191813,-49.5 64.500003,-49.5 Z" />
    <path
       style="color:#000000;display:inline;overflow:visible;visibility:visible;opacity:0.5;fill:none;stroke:url(#linearGradient3090);stroke-width:1;stroke-linecap:round;stroke-linejoin:round;stroke-miterlimit:4;stroke-dasharray:none;stroke-dashoffset:0;stroke-opacity:1;marker:none;enable-background:accumulate"
       id="path8655-6"
       d="M 115.5,2.498188 C 115.5,30.665617 92.664845,53.5 64.50065,53.5 36.33387,53.5 13.5,30.665359 13.5,2.498188 13.5,-25.667939 36.33387,-48.5 64.50065,-48.5 92.664845,-48.5 115.5,-25.667939 115.5,2.498188 Z" />
    <path
       d="m 60.640625,-31.361317 c -7.870222,0.753829 -15.546715,4.137136 -18.248047,10.419922 -0.971765,2.176308 -0.988526,4.988532 0.002,7.40039 0.991303,2.413865 3.198802,4.439454 6.402344,4.439454 3.711985,0 5.730487,-2.578383 6.03125,-4.933594 0.231151,-1.809982 -0.48068,-3.292711 -0.804687,-4.396485 -0.04406,-0.15009 0.0948,-1.010556 0.630859,-1.859375 0.536055,-0.848819 1.366936,-1.695956 2.115234,-2.128906 0.69745,-0.403534 1.435081,-0.685018 2.023438,-0.867187 0.588357,-0.18217 0.935424,-0.244425 1.169922,-0.300782 5.17582,-1.243798 10.464763,1.612915 12.554687,4.859375 0.958806,1.489396 0.954249,3.425032 0.1875,5.78125 -0.766749,2.356219 -2.29693,5.026182 -4.126953,7.675782 -3.730485,5.401209 -7.890002,11.662077 -7.873047,18.572265 -2.12e-4,2.411406 -0.242726,3.240273 -0.05078,4.466797 0.05775,0.369077 0.283465,0.687861 0.511719,0.876953 0.228253,0.189092 0.457592,0.288515 0.685546,0.363281 0.45591,0.149533 0.930364,0.19668 1.451172,0.212891 1.041617,0.03242 2.252609,-0.0921 3.328125,-0.291015 A 1.0061421,1.0061421 0 0 0 67.453173,17.91212 C 67.281553,11.788189 68.576458,6.131823 74.21875,2.025402 a 1.0061421,1.0061421 0 0 0 0.02734,-0.01953 c 3.176799,-2.475519 6.324789,-5.27573 8.632812,-8.445312 2.300177,-3.158807 3.770347,-6.733337 3.4375,-10.628906 -0.08876,-3.852613 -2.368022,-7.219396 -5.669922,-9.673829 -3.304583,-2.456431 -7.665641,-4.060916 -12.205074,-4.472658 -2.532996,-0.348792 -5.184904,-0.397039 -7.800781,-0.146484 z m 3.240234,56.861328 c -3.067521,-0.149367 -5.680222,1.475102 -7.060547,3.720703 -1.379306,2.243945 -1.518587,5.235109 0.355469,7.523437 1.720779,2.51186 4.851923,3.39918 7.701172,3.02539 2.855179,-0.37457 5.619651,-2.05706 6.464844,-4.953124 1.675662,-4.509079 -2.361256,-9.370837 -7.460938,-9.316406 z"
       id="path4595"
       style="color:#000000;font-style:normal;font-weight:bold;font-size:72px;font-family:'Standard Symbols L';clip-rule:nonzero;display:inline;overflow:visible;visibility:visible;opacity:0.05;isolation:auto;mix-blend-mode:normal;color-interpolation:sRGB;color-interpolation-filters:linearRGB;solid-color:#000000;solid-opacity:1;fill:#002e99;fill-opacity:1;fill-rule:nonzero;stroke:none;stroke-width:1;stroke-linecap:butt;stroke-linejoin:miter;stroke-miterlimit:4;stroke-dasharray:none;stroke-dashoffset:0;stroke-opacity:1;marker:none;color-rendering:auto;image-rendering:auto;shape-rendering:auto;text-rendering:auto;enable-background:accumulate" />
    <path
       d="m 66.447791,17.940116 c -0.17629,-6.29234 1.23353,-12.400873 7.17877,-16.727778 6.27969,-4.893447 12.32754,-11.015805 11.68841,-18.232699 -0.13956,-6.960039 -8.24957,-12.413984 -16.98751,-13.198166 -9.82877,-1.36153 -21.72152,2.005366 -25.01508,9.680738 -1.67042,3.733038 -0.12138,10.430557 5.48451,10.430557 3.2789,0 4.78491,-2.117946 5.03232,-4.055362 0.18721,-1.46591 -0.41467,-2.774951 -0.77011,-3.985805 -0.405,-1.379686 1.32392,-4.053666 3.20695,-5.143147 1.57349,-0.910399 3.21977,-1.215668 3.46243,-1.273986 5.65085,-1.357952 11.28393,1.64158 13.63415,5.292381 2.35022,3.650798 -0.23667,9.188354 -3.95601,14.573401 -3.71934,5.385073 -7.71085,11.501399 -7.69491,17.997921 0,2.473259 -0.22039,3.313458 -0.0638,4.314065 0.1251,0.799475 2.77247,0.70285 4.79987,0.32788 z m -2.57887,8.559894 c -5.4031,-0.293281 -9.14279,5.740725 -5.89688,9.643051 2.89876,4.30853 11.0262,3.24495 12.41924,-1.634046 1.44826,-3.794035 -2.037,-8.072329 -6.52236,-8.009005 z"
       id="path3298-1"
       style="color:#000000;font-style:normal;font-weight:bold;font-size:72px;font-family:'Standard Symbols L';clip-rule:nonzero;display:inline;overflow:visible;visibility:visible;opacity:0.15;isolation:auto;mix-blend-mode:normal;color-interpolation:sRGB;color-interpolation-filters:linearRGB;solid-color:#000000;solid-opacity:1;fill:#002e99;fill-opacity:1;fill-rule:nonzero;stroke:none;stroke-width:1;stroke-linecap:butt;stroke-linejoin:miter;stroke-miterlimit:4;stroke-dasharray:none;stroke-dashoffset:0;stroke-opacity:1;marker:none;color-rendering:auto;image-rendering:auto;shape-rendering:auto;text-rendering:auto;enable-background:accumulate" />
    <path
       d="m 66.447791,16.940127 c -0.17629,-6.29234 1.23353,-12.400873 7.17877,-16.727778 6.27969,-4.893447 12.32754,-11.015805 11.68841,-18.232699 -0.13956,-6.960039 -8.24957,-12.413984 -16.98751,-13.198166 -9.82877,-1.36153 -21.72152,2.005366 -25.01508,9.680738 -1.67042,3.733038 -0.12138,10.430557 5.48451,10.430557 3.2789,0 4.78491,-2.117946 5.03232,-4.055362 0.18721,-1.46591 -0.41467,-2.774951 -0.77011,-3.985805 -0.405,-1.379686 1.32392,-4.053666 3.20695,-5.143147 1.57349,-0.910399 3.21977,-1.215668 3.46243,-1.273986 5.65085,-1.357952 11.28393,1.64158 13.63415,5.292381 2.35022,3.650798 -0.23667,9.188354 -3.95601,14.573401 -3.71934,5.385073 -7.71085,11.501399 -7.69491,17.997921 0,2.473259 -0.22039,3.313458 -0.0638,4.314065 0.1251,0.799475 2.77247,0.70285 4.79987,0.32788 z m -2.57887,8.559894 c -5.4031,-0.293281 -9.14279,5.740725 -5.89688,9.643049 2.89876,4.308531 11.0262,3.244951 12.41924,-1.634044 1.44826,-3.794035 -2.037,-8.072329 -6.52236,-8.009005 z"
       id="path3298"
       style="font-style:normal;font-weight:bold;font-size:72px;font-family:'Standard Symbols L';fill:#ffffff;fill-opacity:1;stroke:none" />
  </g>
</svg>
