<?xml version="1.0" encoding="UTF-8" standalone="no"?>
<svg
   width="22"
   height="22"
   id="svg2876"
   version="1.1"
   xmlns:xlink="http://www.w3.org/1999/xlink"
   xmlns="http://www.w3.org/2000/svg"
   xmlns:svg="http://www.w3.org/2000/svg"
   xmlns:rdf="http://www.w3.org/1999/02/22-rdf-syntax-ns#"
   xmlns:cc="http://creativecommons.org/ns#"
   xmlns:dc="http://purl.org/dc/elements/1.1/">
  <defs
     id="defs2878">
    <linearGradient
       id="linearGradient8265-821-176-38-919-66-249">
      <stop
         id="stop2687"
         style="stop-color:#ffffff;stop-opacity:0.27450982"
         offset="0" />
      <stop
         id="stop2689"
         style="stop-color:#ffffff;stop-opacity:0"
         offset="1" />
    </linearGradient>
    <linearGradient
       gradientTransform="matrix(0.73321893,0,0,0.73342455,-4.6809703,-6.220537)"
       gradientUnits="userSpaceOnUse"
       xlink:href="#linearGradient3881"
       id="linearGradient2907-8"
       y2="35.051075"
       x2="23.470181"
       y1="11.209872"
       x1="23.470181" />
    <linearGradient
       id="linearGradient3881">
      <stop
         offset="0"
         style="stop-color:#ffffff;stop-opacity:1"
         id="stop3883" />
      <stop
         offset="0.33380178"
         style="stop-color:#ffffff;stop-opacity:0.23529412"
         id="stop3885" />
      <stop
         offset="0.67927718"
         style="stop-color:#ffffff;stop-opacity:0.15686275"
         id="stop3887" />
      <stop
         offset="1"
         style="stop-color:#ffffff;stop-opacity:0.39215687"
         id="stop3889" />
    </linearGradient>
    <linearGradient
       gradientTransform="matrix(0.46564602,0,0,0.46564602,1.2831268,-1.5322563)"
       gradientUnits="userSpaceOnUse"
       xlink:href="#linearGradient8265-821-176-38-919-66-249"
       id="linearGradient3683-4"
       y2="33.95525"
       x2="15.214532"
       y1="22.292103"
       x1="11.566265" />
    <linearGradient
       gradientUnits="userSpaceOnUse"
       y2="21.922901"
       x2="12.000001"
       y1="1.4961357"
       x1="12.000001"
       id="linearGradient853"
       xlink:href="#linearGradient851"
       gradientTransform="matrix(0.95153754,0,0,0.95153754,-0.34740318,-0.32161528)" />
    <linearGradient
       id="linearGradient851">
      <stop
         id="stop847"
         offset="0"
         style="stop-color:#ffe16b;stop-opacity:1" />
      <stop
         id="stop849"
         offset="1"
         style="stop-color:#f9c440;stop-opacity:1" />
    </linearGradient>
    <radialGradient
       gradientTransform="matrix(0.92527201,0,0,0.37851986,-46.878812,16.213926)"
       gradientUnits="userSpaceOnUse"
       xlink:href="#linearGradient8838"
       id="radialGradient3872"
       fy="4.625"
       fx="62.625"
       r="10.625"
       cy="4.625"
       cx="62.625" />
    <linearGradient
       id="linearGradient8838">
      <stop
         offset="0"
         style="stop-color:#000000;stop-opacity:1"
         id="stop8840" />
      <stop
         offset="1"
         style="stop-color:#000000;stop-opacity:0"
         id="stop8842" />
    </linearGradient>
  </defs>
  <metadata
     id="metadata2881">
    <rdf:RDF>
      <cc:Work
         rdf:about="">
        <dc:format>image/svg+xml</dc:format>
        <dc:type
           rdf:resource="http://purl.org/dc/dcmitype/StillImage" />
        <dc:title />
      </cc:Work>
    </rdf:RDF>
  </metadata>
  <path
     d="m 20.897365,17.96458 c 0,2.221168 -4.401497,4.02178 -9.831016,4.02178 -5.4295186,0 -9.8310139,-1.800612 -9.8310139,-4.02178 0,-2.221165 4.4014953,-4.021777 9.8310139,-4.021777 5.429519,0 9.831016,1.800612 9.831016,4.021777 z"
     id="path8836"
     style="display:inline;overflow:visible;visibility:visible;opacity:0.3;fill:url(#radialGradient3872);fill-opacity:1;fill-rule:evenodd;stroke:none;stroke-width:0.893728;marker:none" />
  <path
     d="m 11.071047,1.1020139 c 0.674557,0 2.849308,5.4339474 3.395037,5.830553 0.545726,0.3966046 6.384305,0.7863164 6.592753,1.4280371 0.208449,0.6417206 -4.286056,4.389795 -4.494506,5.031514 -0.208449,0.641722 1.225237,6.316525 0.67951,6.71313 -0.545727,0.396605 -5.498237,-2.720904 -6.172795,-2.720904 -0.674555,0 -5.6270656,3.117509 -6.1727933,2.720904 -0.5457267,-0.396605 0.8879586,-6.071409 0.67951,-6.71313 C 5.3693132,12.750399 0.87480674,9.0023237 1.0832562,8.3606029 1.2917059,7.7188833 7.1302828,7.3291715 7.6760104,6.9325669 8.2217371,6.5359613 10.396492,1.1020139 11.071047,1.1020139 Z"
     id="path1307-6"
     style="display:inline;overflow:visible;visibility:visible;fill:url(#linearGradient853);fill-opacity:1;fill-rule:nonzero;stroke:#ad5f00;stroke-width:0.944183;stroke-linecap:butt;stroke-linejoin:round;stroke-miterlimit:4;stroke-dasharray:none;stroke-dashoffset:0;stroke-opacity:0.498039;marker:none" />
  <path
     d="M 11.041688,1.6702905 C 10.606805,2.3301618 9.4433305,4.1720397 8.157339,7.2011022 A 0.41554533,0.41554533 0 0 1 7.830248,7.4687221 C 5.7982701,7.8000579 3.2541272,8.150885 1.5857831,8.5689373 2.6326439,9.8239208 3.8632825,10.976285 5.0351066,12.166937 L 19.456848,9.579946 C 19.792971,9.2432792 20.120236,8.9163294 20.467856,8.5689373 18.515793,8.0860454 16.31369,7.7998715 14.282861,7.4687221 A 0.41554533,0.41554533 0 0 1 13.95577,7.2308377 C 12.966674,4.9345198 11.498023,2.4379139 11.041688,1.6702905 Z"
     id="path3681-1"
     style="display:inline;overflow:visible;visibility:visible;opacity:0.8;fill:url(#linearGradient3683-4);fill-opacity:1;fill-rule:nonzero;stroke:none;stroke-width:0.951537;marker:none;enable-background:accumulate" />
  <path
     d="M 11.071423,2.4731503 C 10.796058,2.9416816 10.482953,3.5821701 10.14962,4.2572831 9.8052526,4.9547467 9.4389506,5.6955462 9.138612,6.2793003 8.9884423,6.5711768 8.8547542,6.8336146 8.7223143,7.0524244 8.5898736,7.2712343 8.5669835,7.4223831 8.2168101,7.6768709 7.8662295,7.9316536 7.6929477,7.915762 7.4436859,7.9742264 7.194423,8.0326889 6.905836,8.0700785 6.581355,8.1229041 5.9323921,8.2285562 5.15204,8.3374853 4.3809246,8.4499951 3.6442376,8.5574818 2.9483478,8.6611338 2.4183785,8.7770862 c 0.3597059,0.4052204 0.8635613,0.9356964 1.3975707,1.4570428 0.5562498,0.543056 1.1141267,1.080186 1.5759839,1.546247 0.2309277,0.23303 0.4277143,0.460587 0.5947109,0.654181 0.1669959,0.193594 0.312447,0.272668 0.4460332,0.683918 0.1338862,0.412175 0.080948,0.547699 0.059472,0.80286 -0.021476,0.25516 -0.068843,0.537361 -0.1189421,0.862331 -0.1001908,0.64994 -0.2551139,1.432175 -0.3865621,2.20043 -0.1259284,0.735989 -0.2439267,1.451843 -0.2973554,1.992281 0.4999034,-0.21842 1.1451715,-0.540139 1.8138683,-0.892067 0.6906925,-0.363502 1.4046387,-0.743781 1.9922816,-1.040743 0.2938214,-0.148481 0.5369415,-0.287018 0.7731245,-0.386562 0.236182,-0.09954 0.368393,-0.178412 0.802859,-0.178412 0.434467,0 0.566677,0.07887 0.80286,0.178412 0.236182,0.09954 0.479303,0.238081 0.773123,0.386562 0.587644,0.296962 1.301589,0.677241 1.992283,1.040743 0.668696,0.351928 1.313964,0.673647 1.813868,0.892067 -0.05343,-0.540438 -0.171428,-1.256292 -0.297355,-1.992281 -0.131449,-0.768255 -0.286372,-1.55049 -0.386562,-2.20043 -0.05009,-0.32497 -0.09747,-0.607171 -0.118942,-0.862331 -0.02148,-0.255161 -0.0744,-0.390686 0.05947,-0.80286 0.133587,-0.411249 0.279036,-0.490324 0.446033,-0.683918 0.166997,-0.193594 0.363781,-0.421151 0.59471,-0.654181 0.461857,-0.466061 1.019735,-1.003191 1.575984,-1.546247 C 18.860903,9.7127826 19.364759,9.1823066 19.724466,8.7770862 19.194497,8.6611338 18.498607,8.5574818 17.761921,8.4499951 16.990805,8.3374853 16.210453,8.2285562 15.56149,8.1229041 15.237009,8.0700785 14.948421,8.0326908 14.699159,7.9742264 14.449898,7.915762 14.276616,7.9316546 13.926036,7.6768709 13.575861,7.4223831 13.552972,7.2712343 13.42053,7.0524244 13.28809,6.8336146 13.154402,6.5711768 13.004233,6.2793003 12.703895,5.6955462 12.337593,4.9547467 11.993225,4.2572831 11.659892,3.5821701 11.346787,2.9416816 11.071423,2.4731503 Z"
     id="path2903-0"
     style="display:inline;overflow:visible;visibility:visible;opacity:0.8;fill:none;stroke:url(#linearGradient2907-8);stroke-width:0.944183;stroke-linecap:butt;stroke-linejoin:round;stroke-miterlimit:4;stroke-dasharray:none;stroke-dashoffset:0;stroke-opacity:1;marker:none" />
  <path
     id="path1881"
     d="m 7.6456088,14.287 c -0.011666,-0.03333 0.017014,-0.188225 0.063734,-0.344241 0.092365,-0.308468 0.1068139,-0.423036 0.057463,-0.455605 -0.017547,-0.01158 -0.1246762,0.01115 -0.2380728,0.0505 -0.2365399,0.0821 -0.3103307,0.06673 -0.3064989,-0.06381 0.00286,-0.09584 0.089769,-0.222228 0.2977485,-0.432783 l 0.1217558,-0.123261 0.01827,-0.604808 c 0.016272,-0.53847 0.029327,-0.634078 0.1190373,-0.871604 0.055418,-0.146734 0.1521984,-0.345231 0.2150628,-0.441104 0.062868,-0.09588 0.1148162,-0.191853 0.1154452,-0.21329 6.09e-4,-0.02143 -0.1210041,-0.162141 -0.2702946,-0.312682 C 7.3540101,9.9850048 6.5690716,9.4555289 5.6737995,9.0136159 5.0929039,8.7268824 4.6896662,8.4987005 4.6536466,8.4363387 c -0.036367,-0.062965 0.045321,-0.036341 0.3502267,0.1141457 0.1643629,0.081121 0.5747334,0.2476511 0.9119354,0.3700653 0.9026219,0.3276802 1.371512,0.6056984 2.0629133,1.2231603 0.1942717,0.173499 0.3721283,0.327928 0.3952363,0.34318 0.023113,0.01525 0.1539817,-0.02469 0.2908309,-0.08876 0.3137257,-0.146874 0.4514627,-0.142072 1.4419398,0.05026 0.509759,0.09898 0.829456,0.141559 1.05343,0.140292 l 0.321564,-0.0019 0.174518,-0.296313 c 0.160503,-0.272518 0.171698,-0.3077824 0.139385,-0.4390669 -0.08345,-0.3390763 -8.75e-4,-0.7224621 0.174375,-0.8098304 0.198841,-0.099116 0.335357,0.019507 0.574501,0.4992003 0.08742,0.1753529 0.180158,0.3118388 0.212533,0.3127911 0.068,0.00205 0.06735,-0.039293 -0.0056,-0.3460959 -0.07541,-0.3174439 -0.03144,-0.5796527 0.121384,-0.7238924 0.09446,-0.089158 0.13509,-0.1029107 0.236798,-0.080167 0.236622,0.052925 0.334887,0.2800281 0.369523,0.8540193 0.0099,0.1648585 0.03363,0.3099983 0.05262,0.3225298 0.01898,0.012545 0.236364,0.069997 0.483056,0.1276971 1.227054,0.286999 1.722141,0.617838 1.706802,1.140562 -0.0034,0.117997 -0.03589,0.166167 -0.22178,0.329401 -0.218186,0.191602 -0.743722,0.4882 -1.417961,0.800255 -0.509914,0.236003 -0.529589,0.3426 -0.149067,0.807598 0.224673,0.27455 0.288736,0.4088 0.23442,0.491255 -0.03574,0.05424 -0.17493,0.03128 -0.601275,-0.09921 -0.432878,-0.132482 -0.477739,-0.09874 -0.255226,0.191933 0.288176,0.376456 0.342153,0.585442 0.164327,0.636234 -0.08603,0.02456 -0.403067,-0.09195 -0.991888,-0.364542 L 12.046761,13.7391 11.814234,13.77785 c -0.12789,0.02132 -0.649288,0.03502 -1.158665,0.03048 C 9.7701926,13.80043 9.7070818,13.79494 9.2216179,13.683892 8.7334078,13.57221 8.710374,13.570253 8.6249211,13.633182 c -0.04889,0.03601 -0.2733368,0.211618 -0.4987788,0.39025 -0.2254421,0.178632 -0.4210288,0.324617 -0.4346385,0.324412 -0.013608,-1.79e-4 -0.034294,-0.02764 -0.045949,-0.06094 z m 6.6776062,-2.468172 c 0.09926,-0.09968 0.07685,-0.225915 -0.03043,-0.17146 -0.123388,0.06263 -0.336199,0.295454 -0.310585,0.339799 0.02936,0.05084 0.213092,-0.03986 0.341027,-0.168339 z m -0.266678,-0.255399 c 0.105733,-0.04188 0.19294,-0.100027 0.193795,-0.12918 0.0021,-0.07216 -0.04639,-0.06827 -0.249287,0.02 -0.356802,0.155246 -0.307182,0.252864 0.0555,0.109174 z m -0.36929,-0.61963 c 5.7e-4,-0.01949 -0.05035,-0.04835 -0.113145,-0.06408 -0.06279,-0.01576 -0.145949,-0.07161 -0.184768,-0.124104 -0.127978,-0.173082 -0.159991,-0.11171 -0.04607,0.08831 0.0597,0.104813 0.09649,0.128079 0.207743,0.131351 0.07435,0.0022 0.135662,-0.01198 0.136235,-0.03147 z m 0.158015,-0.390891 c 0.02005,-0.177904 -0.07905,-0.256456 -0.212643,-0.168533 -0.160774,0.105815 -0.08887,0.334976 0.09993,0.318498 0.08113,-0.0071 0.09934,-0.03132 0.112717,-0.149965 z m 1.597881,-0.379331 c 0.0016,-0.08999 0.232817,-0.5412622 0.307327,-0.5995474 0.115117,-0.090056 0.102535,0.00476 -0.03309,0.2494263 -0.176138,0.3177121 -0.27582,0.4449751 -0.274242,0.3501211 z M 15.178981,9.9807334 c 0.0049,-0.139338 0.04945,-0.2663726 0.09302,-0.2650908 0.02328,6.462e-4 0.02622,0.057355 0.0075,0.1447313 -0.0373,0.1742311 -0.105264,0.2555911 -0.100542,0.1203595 z M 4.4103014,8.2787169 c 0.00142,-0.049337 0.028679,-0.048536 0.057701,0.00171 0.012456,0.021558 0.00428,0.038665 -0.018098,0.038005 -0.022399,-6.472e-4 -0.040221,-0.018524 -0.039603,-0.039697 z"
     style="fill:#ad5f00;fill-opacity:0.7;stroke:none;stroke-width:0.951534" />
</svg>
