<?xml version="1.0" encoding="UTF-8" standalone="no"?>
<svg
   width="22"
   height="22"
   id="svg8657"
   version="1.1"
   xmlns:xlink="http://www.w3.org/1999/xlink"
   xmlns="http://www.w3.org/2000/svg"
   xmlns:svg="http://www.w3.org/2000/svg"
   xmlns:rdf="http://www.w3.org/1999/02/22-rdf-syntax-ns#"
   xmlns:cc="http://creativecommons.org/ns#"
   xmlns:dc="http://purl.org/dc/elements/1.1/">
  <defs
     id="defs8659">
    <linearGradient
       xlink:href="#linearGradient3155-40"
       id="linearGradient2701"
       gradientUnits="userSpaceOnUse"
       gradientTransform="matrix(0.6565695,-0.659788,0.7345237,0.7308691,-21.951313,5.3142621)"
       spreadMethod="pad"
       x1="23.575972"
       y1="25.356892"
       x2="23.575972"
       y2="31.210939" />
    <linearGradient
       id="linearGradient3155-40">
      <stop
         style="stop-color:#181818;stop-opacity:1;"
         offset="0"
         id="stop2541" />
      <stop
         id="stop2543"
         offset="0.13482948"
         style="stop-color:#dbdbdb;stop-opacity:1;" />
      <stop
         style="stop-color:#a4a4a4;stop-opacity:1;"
         offset="0.20224422"
         id="stop2545" />
      <stop
         id="stop2547"
         offset="0.26965895"
         style="stop-color:#ffffff;stop-opacity:1;" />
      <stop
         style="stop-color:#8d8d8d;stop-opacity:1;"
         offset="0.44650277"
         id="stop2549" />
      <stop
         id="stop2551"
         offset="0.57114136"
         style="stop-color:#959595;stop-opacity:1;" />
      <stop
         style="stop-color:#cecece;stop-opacity:1;"
         offset="0.72038066"
         id="stop2553" />
      <stop
         style="stop-color:#181818;stop-opacity:1;"
         offset="1"
         id="stop2555" />
    </linearGradient>
    <linearGradient
       xlink:href="#linearGradient3240-279"
       id="linearGradient2703"
       gradientUnits="userSpaceOnUse"
       gradientTransform="matrix(0.6380091,-0.6411367,0.8596262,0.8553492,-24.35737,1.9381758)"
       x1="30.037716"
       y1="24.989594"
       x2="30.037716"
       y2="30.000141" />
    <linearGradient
       id="linearGradient3240-279">
      <stop
         id="stop2559"
         offset="0"
         style="stop-color:#565656;stop-opacity:1;" />
      <stop
         style="stop-color:#9a9a9a;stop-opacity:1;"
         offset="0.5"
         id="stop2561" />
      <stop
         id="stop2563"
         offset="1"
         style="stop-color:#545454;stop-opacity:1;" />
    </linearGradient>
    <linearGradient
       xlink:href="#linearGradient3223-789"
       id="linearGradient2705"
       gradientUnits="userSpaceOnUse"
       gradientTransform="matrix(0.6380091,-0.6411367,0.8596262,0.8553492,-24.540087,2.1217894)"
       x1="30.037716"
       y1="24.989594"
       x2="30.037716"
       y2="30.000141" />
    <linearGradient
       id="linearGradient3223-789">
      <stop
         style="stop-color:#b1b1b1;stop-opacity:1;"
         offset="0"
         id="stop2567" />
      <stop
         id="stop2569"
         offset="0.5"
         style="stop-color:#ffffff;stop-opacity:1;" />
      <stop
         style="stop-color:#8f8f8f;stop-opacity:1;"
         offset="1"
         id="stop2571" />
    </linearGradient>
    <linearGradient
       xlink:href="#linearGradient3240-279"
       id="linearGradient2707"
       gradientUnits="userSpaceOnUse"
       gradientTransform="matrix(0.6380091,-0.6411367,0.8596262,0.8553492,-23.72243,1.3001231)"
       x1="30.037716"
       y1="24.989594"
       x2="30.037716"
       y2="30.000141" />
    <linearGradient
       xlink:href="#linearGradient3223-789"
       id="linearGradient2709"
       gradientUnits="userSpaceOnUse"
       gradientTransform="matrix(0.6380091,-0.6411367,0.8596262,0.8553492,-23.905148,1.4837352)"
       x1="30.037716"
       y1="24.989594"
       x2="30.037716"
       y2="30.000141" />
    <linearGradient
       xlink:href="#linearGradient3240-279"
       id="linearGradient2711"
       gradientUnits="userSpaceOnUse"
       gradientTransform="matrix(0.6380091,-0.6411367,0.8596262,0.8553492,-23.084421,0.6589858)"
       x1="30.037716"
       y1="24.989594"
       x2="30.037716"
       y2="30.000141" />
    <linearGradient
       xlink:href="#linearGradient3223-789"
       id="linearGradient2713"
       gradientUnits="userSpaceOnUse"
       gradientTransform="matrix(0.6380091,-0.6411367,0.8596262,0.8553492,-23.267138,0.8426001)"
       x1="30.037716"
       y1="24.989594"
       x2="30.037716"
       y2="30.000141" />
    <linearGradient
       xlink:href="#linearGradient3290-678"
       id="linearGradient2715"
       gradientUnits="userSpaceOnUse"
       gradientTransform="matrix(0.6380091,-0.6411367,0.8596263,0.8553493,-24.599696,2.1816867)"
       x1="9"
       y1="29.056757"
       x2="9"
       y2="26.02973" />
    <linearGradient
       id="linearGradient3290-678">
      <stop
         style="stop-color:#ece5a5;stop-opacity:1;"
         offset="0"
         id="stop2607" />
      <stop
         style="stop-color:#fcfbf2;stop-opacity:1;"
         offset="1"
         id="stop2609" />
    </linearGradient>
    <linearGradient
       xlink:href="#linearGradient3191-577"
       id="linearGradient2717"
       gradientUnits="userSpaceOnUse"
       gradientTransform="matrix(0.5603647,0.02418622,0.02415646,0.5596736,-1.3918045,-1.4448192)"
       x1="5.5178981"
       y1="37.371799"
       x2="9.5220556"
       y2="41.391716" />
    <linearGradient
       id="linearGradient3191-577">
      <stop
         style="stop-color:#dbce48;stop-opacity:1;"
         offset="0"
         id="stop2613" />
      <stop
         style="stop-color:#c5b625;stop-opacity:1;"
         offset="1"
         id="stop2615" />
    </linearGradient>
  </defs>
  <metadata
     id="metadata8662">
    <rdf:RDF>
      <cc:Work
         rdf:about="">
        <dc:format>image/svg+xml</dc:format>
        <dc:type
           rdf:resource="http://purl.org/dc/dcmitype/StillImage" />
      </cc:Work>
    </rdf:RDF>
  </metadata>
  <g
     id="layer1"
     transform="translate(-2.0033719,-1.5020865)">
    <path
       style="opacity:0.15;fill:#0c0c0c;fill-opacity:1;fill-rule:evenodd;stroke:none;stroke-width:1px;stroke-linecap:butt;stroke-linejoin:miter;stroke-opacity:1"
       d="m 20.706091,17.535977 c -0.165792,-0.02446 -0.295798,-0.01191 -0.382332,0.0082 l -11.524206,2.651822 -2.1210745,0.489232 -0.065058,0.01069 -2.5791209,1.819099 6.1538244,-0.163054 0.05169,-0.0124 2.134444,-0.487519 11.522424,-2.671107 c 0.346131,-0.08006 -0.170799,-0.510074 -1.159495,-0.966364 -0.741524,-0.34222 -1.533722,-0.605121 -2.031096,-0.678537 z"
       id="path2422" />
    <g
       transform="matrix(0.5116664,0,0,0.5116664,24.925759,0.21054998)"
       id="g4127"
       style="display:inline">
      <path
         style="display:inline;overflow:visible;visibility:visible;opacity:1;fill:#ff0000;fill-opacity:0.701961;fill-rule:nonzero;stroke:none;stroke-width:1.03846;stroke-linecap:square;stroke-linejoin:miter;stroke-miterlimit:4;stroke-dasharray:none;stroke-dashoffset:0;stroke-opacity:1;marker:none;marker-start:none;marker-mid:none;marker-end:none;enable-background:accumulate"
         id="path2964"
         d="m -1.8459585,35.734985 a 3.8650587,3.8650587 0 1 1 -7.7301173,0 3.8650587,3.8650587 0 1 1 7.7301173,0 z" />
      <path
         style="display:inline;overflow:visible;visibility:visible;opacity:1;fill:#cc0099;fill-opacity:0.701961;fill-rule:nonzero;stroke:none;stroke-width:1.03846;stroke-linecap:square;stroke-linejoin:miter;stroke-miterlimit:4;stroke-dasharray:none;stroke-dashoffset:0;stroke-opacity:1;marker:none;marker-start:none;marker-mid:none;marker-end:none;enable-background:accumulate"
         id="path4113"
         d="m -1.8056894,25.935321 a 3.8815816,3.8815816 0 1 1 -7.763163,0 3.8815816,3.8815816 0 1 1 7.763163,0 z" />
      <path
         style="display:inline;overflow:visible;visibility:visible;opacity:1;fill:#924ab4;fill-opacity:1;fill-rule:nonzero;stroke:none;stroke-width:1.03846;stroke-linecap:square;stroke-linejoin:miter;stroke-miterlimit:4;stroke-dasharray:none;stroke-dashoffset:0;stroke-opacity:1;marker:none;marker-start:none;marker-mid:none;marker-end:none;enable-background:accumulate"
         id="path4115"
         d="m -5.7142855,16.160937 a 3.9074083,3.9074083 0 1 1 -7.8148165,0 3.9074083,3.9074083 0 1 1 7.8148165,0 z" />
      <path
         style="display:inline;overflow:visible;visibility:visible;opacity:1;fill:#6c48b3;fill-opacity:1;fill-rule:nonzero;stroke:none;stroke-width:1.03846;stroke-linecap:square;stroke-linejoin:miter;stroke-miterlimit:4;stroke-dasharray:none;stroke-dashoffset:0;stroke-opacity:1;marker:none;marker-start:none;marker-mid:none;marker-end:none;enable-background:accumulate"
         id="path4117"
         d="m -13.551774,10.298396 a 3.8909485,3.8909485 0 1 1 -7.781897,0 3.8909485,3.8909485 0 1 1 7.781897,0 z" />
      <path
         style="display:inline;overflow:visible;visibility:visible;opacity:1;fill:#476bd7;fill-opacity:1;fill-rule:nonzero;stroke:none;stroke-width:1.03846;stroke-linecap:square;stroke-linejoin:miter;stroke-miterlimit:4;stroke-dasharray:none;stroke-dashoffset:0;stroke-opacity:1;marker:none;marker-start:none;marker-mid:none;marker-end:none;enable-background:accumulate"
         id="path4119"
         d="m -23.322535,10.31636 a 3.9004553,3.9004553 0 1 1 -7.80091,0 3.9004553,3.9004553 0 1 1 7.80091,0 z" />
      <path
         style="display:inline;overflow:visible;visibility:visible;opacity:1;fill:#47b1b1;fill-opacity:1;fill-rule:nonzero;stroke:none;stroke-width:1.03846;stroke-linecap:square;stroke-linejoin:miter;stroke-miterlimit:4;stroke-dasharray:none;stroke-dashoffset:0;stroke-opacity:1;marker:none;marker-start:none;marker-mid:none;marker-end:none;enable-background:accumulate"
         id="path4121"
         d="m -33.086813,16.203676 a 3.9054098,3.9054098 0 1 1 -7.810819,0 3.9054098,3.9054098 0 1 1 7.810819,0 z" />
      <path
         style="display:inline;overflow:visible;visibility:visible;opacity:1;fill:#00cc00;fill-opacity:0.701961;fill-rule:nonzero;stroke:none;stroke-width:1.03846;stroke-linecap:square;stroke-linejoin:miter;stroke-miterlimit:4;stroke-dasharray:none;stroke-dashoffset:0;stroke-opacity:1;marker:none;marker-start:none;marker-mid:none;marker-end:none;enable-background:accumulate"
         id="path4123"
         d="m -37.024899,25.96369 a 3.8868283,3.8868283 0 1 1 -7.773656,0 3.8868283,3.8868283 0 1 1 7.773656,0 z" />
      <path
         style="display:inline;overflow:visible;visibility:visible;opacity:1;fill:#99ff00;fill-opacity:0.701961;fill-rule:nonzero;stroke:none;stroke-width:1.03846;stroke-linecap:square;stroke-linejoin:miter;stroke-miterlimit:4;stroke-dasharray:none;stroke-dashoffset:0;stroke-opacity:1;marker:none;marker-start:none;marker-mid:none;marker-end:none;enable-background:accumulate"
         id="path4125"
         d="m -37.020989,35.751599 a 3.8881718,3.8881718 0 1 1 -7.776343,0 3.8881718,3.8881718 0 1 1 7.776343,0 z" />
    </g>
    <g
       transform="matrix(0.82097541,0,0,0.82097467,3.6898005,2.5419046)"
       id="g3872"
       style="display:inline;stroke-width:1.08812">
      <path
         style="fill:url(#linearGradient2701);fill-opacity:1;stroke:#0c0c0c;stroke-width:0.609032;stroke-linecap:butt;stroke-linejoin:round;stroke-miterlimit:4;stroke-dasharray:none;stroke-dashoffset:0;stroke-opacity:1"
         d="m 3.9957406,16.479538 c 0.4459215,-0.334616 1.6971047,0.293067 2.8468883,1.43713 1.1470341,1.141326 1.7514206,2.362602 1.4243802,2.812888 -0.00124,0.0017 0.028135,0.02504 0.026864,0.02673 L 24.303914,4.6677597 C 24.710396,4.2592847 24.078831,2.9684536 22.892545,1.7880718 21.706263,0.60768985 20.412266,-0.01746372 20.005781,0.39101316 Z"
         id="rect2383" />
      <path
         style="opacity:0.8;fill:#ffb6ed;fill-opacity:1;stroke:#e28ccd;stroke-width:0.609032;stroke-linecap:butt;stroke-linejoin:round;stroke-miterlimit:4;stroke-dasharray:none;stroke-dashoffset:0;stroke-opacity:1"
         d="m 18.05188,2.3544945 c 0.445921,-0.3346166 1.697105,0.2930675 2.846888,1.4371298 1.147033,1.141325 1.75142,2.3626014 1.424379,2.8128865 -0.0012,0.00171 0.02814,0.025041 0.02686,0.02673 l 1.953903,-1.9634813 0.03988,-0.040071 c 0.0013,-0.00169 -0.02811,-0.025017 -0.02686,-0.02673 C 24.643966,4.1506735 24.039578,2.9293969 22.892545,1.7880718 21.742763,0.64401014 20.49158,0.01632502 20.045658,0.35094175 l -0.03988,0.0400714 z"
         id="rect3175" />
      <path
         style="opacity:0.6;fill:#0c0c0c;fill-opacity:1;stroke:none;stroke-width:2.17623;stroke-linecap:butt;stroke-linejoin:round;stroke-miterlimit:4;stroke-dasharray:2.17623, 8.70494;stroke-dashoffset:0;stroke-opacity:0.235294"
         d="m 3.9957406,16.479536 c 0.4459215,-0.334616 1.697105,0.293068 2.8468878,1.43713 1.1470339,1.141326 1.7514205,2.362602 1.4243801,2.812888 -0.00124,0.0017 0.028135,0.02504 0.026864,0.02673 L 19.319465,9.6766412 l 0.03988,-0.040071 c 0.0013,-0.00169 -0.02811,-0.025017 -0.02686,-0.026729 C 19.659519,9.1595523 19.055132,7.9382769 17.908099,6.7969513 16.758316,5.6528892 15.507131,5.0252053 15.06121,5.3598223 l -0.03988,0.04007 z"
         id="path3208" />
      <path
         style="fill:url(#linearGradient2703);fill-opacity:1;stroke:none;stroke-width:2.17623;stroke-linecap:butt;stroke-linejoin:round;stroke-miterlimit:4;stroke-dasharray:2.17623, 8.70494;stroke-dashoffset:0;stroke-opacity:0.235294"
         d="m 15.861791,4.5553174 c 0.44592,-0.3346171 1.697106,0.2930672 2.846888,1.4371295 1.147033,1.141325 1.751421,2.3626016 1.424379,2.8128878 -0.0012,0.00171 0.02814,0.025039 0.02686,0.026729 l 0.199378,-0.2003563 c 0.0013,-0.00169 -0.02811,-0.025017 -0.02686,-0.026729 C 20.659478,8.1546923 20.05509,6.9334154 18.908056,5.7920918 17.758274,4.6480286 16.507089,4.0203445 16.061169,4.3549614 Z"
         id="path3233" />
      <path
         style="fill:url(#linearGradient2705);fill-opacity:1;stroke:none;stroke-width:2.17623;stroke-linecap:butt;stroke-linejoin:round;stroke-miterlimit:4;stroke-dasharray:2.17623, 8.70494;stroke-dashoffset:0;stroke-opacity:0.235294"
         d="m 15.679073,4.7389302 c 0.445922,-0.334617 1.697107,0.2930672 2.846888,1.4371291 1.147035,1.1413256 1.751422,2.3626005 1.42438,2.8128864 -0.0012,0.00171 0.02813,0.025041 0.02686,0.026731 l 0.199377,-0.2003563 c 0.0013,-0.00169 -0.02811,-0.025018 -0.02686,-0.02673 C 20.476762,8.3383053 19.872374,7.1170288 18.725339,5.9757039 17.575557,4.8316417 16.324373,4.2039569 15.87845,4.538574 Z"
         id="path3216" />
      <path
         style="fill:url(#linearGradient2707);fill-opacity:1;stroke:none;stroke-width:2.17623;stroke-linecap:butt;stroke-linejoin:round;stroke-miterlimit:4;stroke-dasharray:2.17623, 8.70494;stroke-dashoffset:0;stroke-opacity:0.235294"
         d="m 16.496731,3.9172644 c 0.445921,-0.3346173 1.697105,0.2930665 2.846888,1.4371297 1.147033,1.1413248 1.751421,2.3626003 1.42438,2.8128865 -0.0012,0.00171 0.02813,0.02504 0.02686,0.026729 l 0.199378,-0.200355 c 0.0013,-0.00169 -0.02811,-0.025017 -0.02686,-0.026729 C 21.294418,7.5166398 20.690031,6.2953633 19.542996,5.1540389 18.393214,4.009976 17.142032,3.3822918 16.696108,3.716909 Z"
         id="path3248" />
      <path
         style="fill:url(#linearGradient2709);fill-opacity:1;stroke:none;stroke-width:2.17623;stroke-linecap:butt;stroke-linejoin:round;stroke-miterlimit:4;stroke-dasharray:2.17623, 8.70494;stroke-dashoffset:0;stroke-opacity:0.235294"
         d="m 16.314013,4.1008772 c 0.445923,-0.3346174 1.697107,0.2930668 2.846888,1.4371289 1.147035,1.1413262 1.751422,2.3626013 1.424381,2.8128873 -0.0012,0.00171 0.02814,0.02504 0.02686,0.02673 l 0.199377,-0.2003568 c 0.0013,-0.00169 -0.02811,-0.025016 -0.02686,-0.026729 C 21.111701,7.7002523 20.507314,6.478975 19.36028,5.337652 18.210499,4.1935892 16.959314,3.5659043 16.513391,3.9005218 Z"
         id="path3250" />
      <path
         style="fill:url(#linearGradient2711);fill-opacity:1;stroke:none;stroke-width:2.17623;stroke-linecap:butt;stroke-linejoin:round;stroke-miterlimit:4;stroke-dasharray:2.17623, 8.70494;stroke-dashoffset:0;stroke-opacity:0.235294"
         d="m 17.134741,3.2761275 c 0.44592,-0.3346167 1.697104,0.2930671 2.846887,1.4371299 1.147033,1.1413247 1.751421,2.362601 1.42438,2.8128865 -0.0012,0.00171 0.02813,0.025041 0.02686,0.026731 l 0.199376,-0.200356 c 0.0013,-0.00169 -0.02811,-0.025018 -0.02686,-0.02673 0.327042,-0.450285 -0.277346,-1.6715621 -1.42438,-2.8128872 -1.14978,-1.144062 -2.400965,-1.7717462 -2.846887,-1.4371291 z"
         id="path3256" />
      <path
         style="fill:url(#linearGradient2713);fill-opacity:1;stroke:none;stroke-width:2.17623;stroke-linecap:butt;stroke-linejoin:round;stroke-miterlimit:4;stroke-dasharray:2.17623, 8.70494;stroke-dashoffset:0;stroke-opacity:0.235294"
         d="m 16.952024,3.4597401 c 0.445919,-0.3346173 1.697105,0.2930673 2.846887,1.4371305 1.147033,1.141324 1.751422,2.3626007 1.424379,2.8128853 -0.0012,0.00171 0.02814,0.025041 0.02686,0.02673 l 0.199378,-0.2003543 c 0.0013,-0.00169 -0.02811,-0.025019 -0.02686,-0.02673 C 21.74971,7.0591151 21.145322,5.8378393 19.998289,4.6965146 18.848507,3.5524523 17.597322,2.9247675 17.151401,3.2593854 Z"
         id="path3258" />
      <path
         id="path3270"
         d="m 0.92763987,23.761444 7.28373453,-2.970838 0.062055,-0.06205 C 8.6004704,20.278267 7.988201,19.056896 6.841167,17.915568 5.6913841,16.771506 4.4416795,16.147291 3.9957576,16.481908 Z"
         style="fill:url(#linearGradient2715);fill-opacity:1;fill-rule:evenodd;stroke:url(#linearGradient2717);stroke-width:0.609032;stroke-linecap:butt;stroke-linejoin:miter;stroke-miterlimit:4;stroke-dasharray:none;stroke-opacity:1" />
      <path
         style="fill:#0c0c0c;fill-opacity:1;fill-rule:evenodd;stroke:#0c0c0c;stroke-width:0.609032;stroke-linecap:butt;stroke-linejoin:miter;stroke-miterlimit:4;stroke-dasharray:none;stroke-opacity:1"
         d="M 1.7587091,21.789843 0.92719297,23.753653 2.9138318,22.939219 C 2.7546056,22.748495 2.6076136,22.554776 2.4164414,22.364555 2.1963503,22.145558 1.9798704,21.967868 1.7587091,21.789843 Z"
         id="path3281" />
    </g>
  </g>
</svg>
