<?xml version="1.0" encoding="UTF-8" standalone="no"?>
<svg
   version="1.1"
   width="22"
   height="22"
   id="svg7357"
   sodipodi:docname="system-software-update.svg"
   inkscape:version="1.3.2 (091e20e, 2023-11-25)"
   xmlns:inkscape="http://www.inkscape.org/namespaces/inkscape"
   xmlns:sodipodi="http://sodipodi.sourceforge.net/DTD/sodipodi-0.dtd"
   xmlns:xlink="http://www.w3.org/1999/xlink"
   xmlns="http://www.w3.org/2000/svg"
   xmlns:svg="http://www.w3.org/2000/svg"
   xmlns:rdf="http://www.w3.org/1999/02/22-rdf-syntax-ns#"
   xmlns:cc="http://creativecommons.org/ns#"
   xmlns:dc="http://purl.org/dc/elements/1.1/">
  <sodipodi:namedview
     id="namedview21"
     pagecolor="#ffffff"
     bordercolor="#666666"
     borderopacity="1.0"
     inkscape:pageshadow="2"
     inkscape:pageopacity="0.0"
     inkscape:pagecheckerboard="0"
     showgrid="false"
     inkscape:zoom="45.254834"
     inkscape:cx="10.043126"
     inkscape:cy="19.069786"
     inkscape:window-width="1278"
     inkscape:window-height="1005"
     inkscape:window-x="304"
     inkscape:window-y="376"
     inkscape:window-maximized="0"
     inkscape:current-layer="svg7357"
     inkscape:showpageshadow="2"
     inkscape:deskcolor="#d1d1d1" />
  <defs
     id="defs7359">
    <linearGradient
       y2="19.271681"
       x2="61.219437"
       y1="15.833592"
       x1="61.219437"
       gradientTransform="matrix(3.1196537,0,0,3.1196537,-181.98753,-43.757648)"
       gradientUnits="userSpaceOnUse"
       id="linearGradient3293"
       xlink:href="#linearGradient4806" />
    <linearGradient
       id="linearGradient4806">
      <stop
         offset="0"
         style="stop-color:#ffffff;stop-opacity:1"
         id="stop4808" />
      <stop
         offset="0.12499987"
         style="stop-color:#ffffff;stop-opacity:0.23529412"
         id="stop4810" />
      <stop
         offset="0.87499982"
         style="stop-color:#ffffff;stop-opacity:0.15686275"
         id="stop4812" />
      <stop
         offset="1"
         style="stop-color:#ffffff;stop-opacity:0.39215687"
         id="stop4814" />
    </linearGradient>
    <linearGradient
       x1="2065.6956"
       y1="3220.5276"
       x2="2065.6956"
       y2="3244.8506"
       id="linearGradient11527-6-5-3"
       xlink:href="#linearGradient947-2"
       gradientUnits="userSpaceOnUse"
       gradientTransform="matrix(1.038617,0,0,0.77646603,-2133.2133,-2499.0422)" />
    <linearGradient
       id="linearGradient947-2">
      <stop
         offset="0"
         style="stop-color:#64baff;stop-opacity:1"
         id="stop943-7" />
      <stop
         offset="1"
         style="stop-color:#3689e6;stop-opacity:1"
         id="stop945-0" />
    </linearGradient>
    <radialGradient
       cx="99.157013"
       cy="186.17059"
       r="62.769119"
       fx="99.157013"
       fy="186.17059"
       id="radialGradient3108"
       xlink:href="#linearGradient3820-7-2-2"
       gradientUnits="userSpaceOnUse"
       gradientTransform="matrix(0.14543549,0,0,0.04627494,-3.4198875,10.437481)" />
    <linearGradient
       id="linearGradient3820-7-2-2">
      <stop
         offset="0"
         style="stop-color:#3d3d3d;stop-opacity:1"
         id="stop3822-2-6-36" />
      <stop
         offset="0.5"
         style="stop-color:#686868;stop-opacity:0.49803922"
         id="stop3864-8-7-6" />
      <stop
         offset="1"
         style="stop-color:#686868;stop-opacity:0"
         id="stop3824-1-2-4" />
    </linearGradient>
    <linearGradient
       gradientTransform="matrix(1.1477462,0,0,0.85805056,-2358.5082,-2762.774)"
       gradientUnits="userSpaceOnUse"
       xlink:href="#linearGradient947-2"
       id="linearGradient11527-6-5-3-6"
       y2="3244.8506"
       x2="2065.6956"
       y1="3220.5276"
       x1="2065.6956" />
    <linearGradient
       xlink:href="#linearGradient4806-6"
       id="linearGradient3293-3"
       gradientUnits="userSpaceOnUse"
       gradientTransform="matrix(3.2570569,0,0,3.2570569,-190.48648,-46.167446)"
       x1="61.219437"
       y1="15.590681"
       x2="61.219437"
       y2="19.514591" />
    <linearGradient
       id="linearGradient4806-6">
      <stop
         id="stop4808-7"
         style="stop-color:#ffffff;stop-opacity:1"
         offset="0" />
      <stop
         id="stop4810-5"
         style="stop-color:#ffffff;stop-opacity:0.23529412"
         offset="0.07614208" />
      <stop
         id="stop4812-3"
         style="stop-color:#ffffff;stop-opacity:0.15686275"
         offset="0.92857152" />
      <stop
         id="stop4814-5"
         style="stop-color:#ffffff;stop-opacity:0.39215687"
         offset="1" />
    </linearGradient>
  </defs>
  <metadata
     id="metadata7362">
    <rdf:RDF>
      <cc:Work
         rdf:about="">
        <dc:format>image/svg+xml</dc:format>
        <dc:type
           rdf:resource="http://purl.org/dc/dcmitype/StillImage" />
      </cc:Work>
    </rdf:RDF>
  </metadata>
  <path
     d="m 20.129919,19.052509 a 9.1288577,2.9046364 0 0 1 -18.2577153,0 9.1288577,2.9046364 0 1 1 18.2577153,0 z"
     id="path3818-0-2-5"
     style="opacity:0.5;fill:url(#radialGradient3108);fill-opacity:1;stroke:none;stroke-width:1" />
  <path
     style="opacity:0.99;vector-effect:none;fill:url(#linearGradient11527-6-5-3-6);fill-opacity:1;stroke:none;stroke-width:1;stroke-linecap:butt;stroke-linejoin:miter;stroke-miterlimit:4;stroke-dasharray:none;stroke-dashoffset:0;stroke-opacity:1;marker:none;paint-order:normal"
     d="M 11.001062,0.50427204 8.1894057,4.2129925 3.5784949,3.5799221 l 0.63307,4.6109096 -3.70871968,2.8116573 3.70871968,2.811655 -0.63307,4.610911 4.6109108,-0.633071 2.8116563,3.708721 2.811657,-3.708721 4.61091,0.633071 -0.633072,-4.610911 3.708721,-2.811655 -3.708721,-2.8116573 0.633072,-4.6109096 -4.61091,0.6330704 z"
     id="path888" />
  <path
     style="opacity:0.5;vector-effect:none;fill:none;fill-opacity:1;stroke:#002e99;stroke-width:1;stroke-linecap:round;stroke-linejoin:round;stroke-miterlimit:4;stroke-dasharray:none;stroke-dashoffset:0;stroke-opacity:1;marker:none;paint-order:normal"
     d="M 11.001062,0.50427204 8.1894057,4.2129925 3.5784949,3.5799221 l 0.63307,4.6109096 -3.70871968,2.8116573 3.70871968,2.811655 -0.63307,4.610911 4.6109108,-0.633071 2.8116563,3.708721 2.811657,-3.708721 4.61091,0.633071 -0.633072,-4.610911 3.708721,-2.811655 -3.708721,-2.8116573 0.633072,-4.6109096 -4.61091,0.6330704 z"
     id="path841-53" />
  <path
     style="opacity:0.3;vector-effect:none;fill:none;fill-opacity:1;stroke:url(#linearGradient3293-3);stroke-width:1;stroke-linecap:round;stroke-linejoin:miter;stroke-miterlimit:4;stroke-dasharray:none;stroke-dashoffset:0;stroke-opacity:1;marker:none;paint-order:normal"
     id="path841-5-5"
     d="M 11.001062,1.9751554 8.8986941,4.7500625 A 0.88936789,0.88936789 0 0 1 8.0703228,5.0945338 L 4.6174088,4.6188354 5.0931072,8.0717494 A 0.88936789,0.88936789 0 0 1 4.7486359,8.9001207 l -2.7749072,2.1023683 2.7749072,2.102368 a 0.88936789,0.88936789 0 0 1 0.3444713,0.828371 l -0.4756984,3.452914 3.452914,-0.475698 a 0.88936789,0.88936789 0 0 1 0.8283713,0.344471 l 2.1023679,2.774907 2.102368,-2.774907 a 0.88936789,0.88936789 0 0 1 0.828371,-0.344471 l 3.452915,0.475698 -0.475699,-3.452914 a 0.88936789,0.88936789 0 0 1 0.344471,-0.828371 L 20.028396,11.002489 17.253488,8.9001207 A 0.88936789,0.88936789 0 0 1 16.909017,8.0717494 l 0.475699,-3.452914 -3.452915,0.4756984 A 0.88936789,0.88936789 0 0 1 13.10343,4.7500625 Z" />
  <path
     style="opacity:0.05;vector-effect:none;fill:#002e99;fill-opacity:1;stroke:none;stroke-width:1px;stroke-linecap:butt;stroke-linejoin:miter;stroke-miterlimit:4;stroke-dasharray:none;stroke-dashoffset:0;stroke-opacity:1;marker:none;paint-order:normal"
     id="path818-7-6-1-6"
     d="m 11.001061,17.420962 c -0.436082,0 -0.870947,-0.177644 -1.189247,-0.506367 a 0.94150757,0.94150757 0 0 1 -0.039227,-0.04279 l -2.7386562,-3.20045 a 0.94150757,0.94150757 0 0 1 -0.019612,-0.02318 C 6.5888325,13.115858 6.6190859,12.450154 6.8431523,11.965044 7.0672187,11.479933 7.5522435,11.02612 8.2338767,11.0058 a 0.94150757,0.94150757 0 0 1 0.028528,0 H 9.1467625 V 8.0674487 a 0.94150757,0.94150757 0 0 1 0,-0.00895 C 9.1540838,7.2949711 9.6979717,6.6264758 10.442989,6.4627352 a 0.94150757,0.94150757 0 0 1 0.115893,-0.017829 c 0.09943,-0.00913 0.200111,-0.00913 0.299541,0 l -0.08558,-0.00356 h 0.456443 a 0.94150757,0.94150757 0 0 1 0.03566,0 c 0.85495,0.032307 1.5582,0.7353332 1.590419,1.5904187 a 0.94150757,0.94150757 0 0 1 0,0.035657 v 2.9383511 h 0.88436 a 0.94150757,0.94150757 0 0 1 0.02853,0 c 0.68163,0.02032 1.166658,0.474132 1.390725,0.959244 0.224066,0.485111 0.254318,1.150816 -0.171166,1.683133 a 0.94150757,0.94150757 0 0 1 -0.01961,0.02318 l -2.738657,3.200448 a 0.94150757,0.94150757 0 0 1 -0.03923,0.04279 c -0.318286,0.328719 -0.753166,0.506398 -1.189251,0.506398 z" />
  <path
     style="opacity:0.15;vector-effect:none;fill:#002e99;fill-opacity:1;stroke:none;stroke-width:1px;stroke-linecap:butt;stroke-linejoin:miter;stroke-miterlimit:4;stroke-dasharray:none;stroke-dashoffset:0;stroke-opacity:1;marker:none;paint-order:normal"
     d="m 11.001062,16.479803 c 0.186645,0 0.373287,-0.07432 0.513819,-0.219445 l 2.738655,-3.201076 c 0.316513,-0.395984 -0.0082,-1.0982 -0.513817,-1.113274 H 11.913947 V 8.06667 C 11.899916,7.6942874 11.601238,7.3956515 11.228856,7.3815784 h -0.45559 c -0.04284,-0.00393 -0.08561,-0.00393 -0.128453,0 -0.322403,0.070858 -0.553471,0.3550085 -0.556637,0.6850916 v 3.879338 H 8.2624041 c -0.5055981,0.01507 -0.8303307,0.71729 -0.5138186,1.113274 l 2.7386595,3.201076 c 0.140525,0.145127 0.327175,0.219445 0.513817,0.219445 z"
     id="path818-7-6-2" />
  <path
     style="opacity:0.99;vector-effect:none;fill:#fafafa;fill-opacity:1;stroke:none;stroke-width:1;stroke-linecap:butt;stroke-linejoin:miter;stroke-miterlimit:4;stroke-dasharray:none;stroke-dashoffset:0;stroke-opacity:1;marker:none;paint-order:normal"
     d="m 11.001062,15.569656 c 0.186645,0 0.373287,-0.07432 0.513819,-0.219445 l 2.738655,-3.201077 c 0.316513,-0.395983 -0.0082,-1.098199 -0.513817,-1.113273 H 11.913947 V 7.1565225 C 11.899916,6.78414 11.601238,6.485504 11.228856,6.4714309 h -0.45559 c -0.04284,-0.00393 -0.08561,-0.00393 -0.128453,0 -0.322403,0.070858 -0.553471,0.3550085 -0.556637,0.6850916 V 11.035861 H 8.2624041 c -0.5055981,0.01507 -0.8303307,0.71729 -0.5138186,1.113273 l 2.7386595,3.201077 c 0.140525,0.145127 0.327175,0.219445 0.513817,0.219445 z"
     id="path818-7-9" />
</svg>
