<?xml version="1.0" encoding="UTF-8" standalone="no"?>
<svg
   version="1.0"
   width="22"
   height="22"
   id="svg2890"
   sodipodi:docname="usb-creator-gtk.svg"
   inkscape:version="1.3.2 (091e20e, 2023-11-25)"
   xmlns:inkscape="http://www.inkscape.org/namespaces/inkscape"
   xmlns:sodipodi="http://sodipodi.sourceforge.net/DTD/sodipodi-0.dtd"
   xmlns:xlink="http://www.w3.org/1999/xlink"
   xmlns="http://www.w3.org/2000/svg"
   xmlns:svg="http://www.w3.org/2000/svg"
   xmlns:rdf="http://www.w3.org/1999/02/22-rdf-syntax-ns#"
   xmlns:cc="http://creativecommons.org/ns#"
   xmlns:dc="http://purl.org/dc/elements/1.1/">
  <sodipodi:namedview
     id="namedview90"
     pagecolor="#ffffff"
     bordercolor="#666666"
     borderopacity="1.0"
     inkscape:pageshadow="2"
     inkscape:pageopacity="0.0"
     inkscape:pagecheckerboard="0"
     showgrid="false"
     inkscape:zoom="11.377991"
     inkscape:cx="2.5927248"
     inkscape:cy="12.831791"
     inkscape:window-width="1366"
     inkscape:window-height="719"
     inkscape:window-x="0"
     inkscape:window-y="25"
     inkscape:window-maximized="1"
     inkscape:current-layer="svg2890"
     inkscape:showpageshadow="2"
     inkscape:deskcolor="#d1d1d1"
     showguides="true" />
  <metadata
     id="metadata38397">
    <rdf:RDF>
      <cc:Work
         rdf:about="">
        <dc:format>image/svg+xml</dc:format>
        <dc:type
           rdf:resource="http://purl.org/dc/dcmitype/StillImage" />
      </cc:Work>
    </rdf:RDF>
  </metadata>
  <defs
     id="defs2892">
    <linearGradient
       id="linearGradient3519">
      <stop
         id="stop3521"
         style="stop-color:#fcd9cd;stop-opacity:1"
         offset="0" />
      <stop
         id="stop3523"
         style="stop-color:#fcd9cd;stop-opacity:0"
         offset="1" />
    </linearGradient>
    <linearGradient
       id="linearGradient3511">
      <stop
         id="stop3513"
         style="stop-color:#ebeec7;stop-opacity:1"
         offset="0" />
      <stop
         id="stop3515"
         style="stop-color:#ebeec7;stop-opacity:0"
         offset="1" />
    </linearGradient>
    <linearGradient
       id="linearGradient3503">
      <stop
         id="stop3505"
         style="stop-color:#c4ebdd;stop-opacity:1"
         offset="0" />
      <stop
         id="stop3507"
         style="stop-color:#c4ebdd;stop-opacity:0"
         offset="1" />
    </linearGradient>
    <linearGradient
       id="linearGradient3495">
      <stop
         id="stop3497"
         style="stop-color:#c1cbe4;stop-opacity:1"
         offset="0" />
      <stop
         id="stop3499"
         style="stop-color:#c1cbe4;stop-opacity:0"
         offset="1" />
    </linearGradient>
    <linearGradient
       id="linearGradient3487">
      <stop
         id="stop3489"
         style="stop-color:#e6cde2;stop-opacity:1"
         offset="0" />
      <stop
         id="stop3491"
         style="stop-color:#e6cde2;stop-opacity:0"
         offset="1" />
    </linearGradient>
    <linearGradient
       id="linearGradient3707-319-631-407-324-3-8">
      <stop
         offset="0"
         style="stop-color:#185f9a;stop-opacity:1"
         id="stop3760-7-3" />
      <stop
         offset="1"
         style="stop-color:#599ec9;stop-opacity:1"
         id="stop3762-8-4" />
    </linearGradient>
    <linearGradient
       id="linearGradient2867-449-88-871-390-598-476-591-434-148-57-177-3-8">
      <stop
         offset="0"
         style="stop-color:#90dbec;stop-opacity:1"
         id="stop3750-8-9" />
      <stop
         offset="0.26238"
         style="stop-color:#55c1ec;stop-opacity:1"
         id="stop3752-3-2" />
      <stop
         offset="0.704952"
         style="stop-color:#3689e6;stop-opacity:1"
         id="stop3754-7-2" />
      <stop
         offset="1"
         style="stop-color:#2b63a0;stop-opacity:1"
         id="stop3756-9-3" />
    </linearGradient>
    <linearGradient
       id="linearGradient4011">
      <stop
         offset="0"
         style="stop-color:#ffffff;stop-opacity:1"
         id="stop4013" />
      <stop
         offset="0.507761"
         style="stop-color:#ffffff;stop-opacity:0.23529412"
         id="stop4015" />
      <stop
         offset="0.83456558"
         style="stop-color:#ffffff;stop-opacity:0.15686275"
         id="stop4017" />
      <stop
         offset="1"
         style="stop-color:#ffffff;stop-opacity:0.39215687"
         id="stop4019" />
    </linearGradient>
    <linearGradient
       id="linearGradient3707-319-631-407-324-3-8-2">
      <stop
         offset="0"
         style="stop-color:#185f9a;stop-opacity:1"
         id="stop3760-7-3-6" />
      <stop
         offset="1"
         style="stop-color:#599ec9;stop-opacity:1"
         id="stop3762-8-4-8" />
    </linearGradient>
    <linearGradient
       xlink:href="#linearGradient3487"
       id="linearGradient3313"
       gradientUnits="userSpaceOnUse"
       spreadMethod="reflect"
       x1="20.580074"
       y1="10.774516"
       x2="24.27351"
       y2="9.8622112" />
    <linearGradient
       xlink:href="#linearGradient3495"
       id="linearGradient3315"
       gradientUnits="userSpaceOnUse"
       spreadMethod="reflect"
       x1="17.494959"
       y1="11.200086"
       x2="21.047453"
       y2="9.7956104" />
    <linearGradient
       xlink:href="#linearGradient3503"
       id="linearGradient3317"
       gradientUnits="userSpaceOnUse"
       spreadMethod="reflect"
       x1="14.084608"
       y1="13.045606"
       x2="16.994024"
       y2="10.732353" />
    <linearGradient
       xlink:href="#linearGradient3511"
       id="linearGradient3319"
       gradientUnits="userSpaceOnUse"
       spreadMethod="reflect"
       x1="12.371647"
       y1="16.188046"
       x2="14.609327"
       y2="13.461712" />
    <linearGradient
       xlink:href="#linearGradient3519"
       id="linearGradient3321"
       gradientUnits="userSpaceOnUse"
       spreadMethod="reflect"
       x1="10.609375"
       y1="17.886322"
       x2="9.7297754"
       y2="20.612656" />
    <radialGradient
       xlink:href="#linearGradient2867-449-88-871-390-598-476-591-434-148-57-177-3-8"
       id="radialGradient3323"
       gradientUnits="userSpaceOnUse"
       gradientTransform="matrix(0,0.77906898,-0.82416206,-1.4353423e-8,42.964014,2.8539399)"
       cx="5.7800279"
       cy="8.4497671"
       fx="5.7800279"
       fy="8.4497671"
       r="19.99999" />
    <linearGradient
       xlink:href="#linearGradient3707-319-631-407-324-3-8"
       id="linearGradient3325"
       gradientUnits="userSpaceOnUse"
       gradientTransform="matrix(0.33336426,0,0,0.33336425,27.999258,6.9992576)"
       x1="24"
       y1="44"
       x2="24"
       y2="3.8990016" />
    <linearGradient
       xlink:href="#linearGradient4011"
       id="linearGradient3327"
       gradientUnits="userSpaceOnUse"
       gradientTransform="matrix(0.29729731,0,0,0.29729731,14.673817,7.4613611)"
       x1="71.204407"
       y1="6.2375584"
       x2="71.204407"
       y2="44.340794" />
    <linearGradient
       xlink:href="#linearGradient3707-319-631-407-324-3-8-2"
       id="linearGradient3329"
       gradientUnits="userSpaceOnUse"
       gradientTransform="translate(28,8.155436)"
       x1="7.8555918"
       y1="15.85593"
       x2="7.8555918"
       y2="-0.12225635" />
    <linearGradient
       x1="22.553417"
       y1="6.6305909"
       x2="22.553417"
       y2="41.943768"
       id="linearGradient4161-4"
       xlink:href="#linearGradient4075"
       gradientUnits="userSpaceOnUse"
       gradientTransform="matrix(0.21462027,0,0,0.39741647,5.2504798,-0.63796629)" />
    <linearGradient
       id="linearGradient4075">
      <stop
         id="stop4077"
         style="stop-color:#ffffff;stop-opacity:1"
         offset="0" />
      <stop
         id="stop4079"
         style="stop-color:#ffffff;stop-opacity:0.23529412"
         offset="0" />
      <stop
         id="stop4081"
         style="stop-color:#ffffff;stop-opacity:0.15686275"
         offset="1" />
      <stop
         id="stop4083"
         style="stop-color:#ffffff;stop-opacity:0.39215687"
         offset="1" />
    </linearGradient>
    <linearGradient
       x1="11.098394"
       y1="5.9702148"
       x2="11.098394"
       y2="45.68882"
       id="linearGradient5466-8-3-0"
       xlink:href="#linearGradient3600-8"
       gradientUnits="userSpaceOnUse"
       gradientTransform="matrix(0.47793243,0,0,0.40252535,2.8306345,-1.4047796)" />
    <linearGradient
       id="linearGradient3600-8">
      <stop
         id="stop3602-2"
         style="stop-color:#f4f4f4;stop-opacity:1"
         offset="0" />
      <stop
         id="stop3604-5"
         style="stop-color:#dbdbdb;stop-opacity:1"
         offset="1" />
    </linearGradient>
    <linearGradient
       y2="-26.979191"
       x2="116.7913"
       y1="-37.80846"
       x1="116.7913"
       gradientTransform="matrix(0.33471938,0,0,0.59667354,-29.328651,2.3563865)"
       gradientUnits="userSpaceOnUse"
       id="linearGradient4604"
       xlink:href="#linearGradient4614" />
    <linearGradient
       id="linearGradient4614">
      <stop
         offset="0"
         style="stop-color:#ffffff;stop-opacity:1"
         id="stop4606" />
      <stop
         offset="0.03140453"
         style="stop-color:#ffffff;stop-opacity:0.23529412"
         id="stop4608" />
      <stop
         offset="0.9812181"
         style="stop-color:#ffffff;stop-opacity:0.15686275"
         id="stop4610" />
      <stop
         offset="1"
         style="stop-color:#ffffff;stop-opacity:0.39215687"
         id="stop4612" />
    </linearGradient>
    <radialGradient
       r="22.627001"
       gradientTransform="matrix(0.26516308,0,0,0.06026566,48.916692,28.466026)"
       cx="23.334999"
       cy="41.636002"
       gradientUnits="userSpaceOnUse"
       id="radialGradient7374">
      <stop
         offset="0"
         id="stop23421" />
      <stop
         offset="1"
         style="stop-opacity:0"
         id="stop23423" />
    </radialGradient>
    <radialGradient
       xlink:href="#linearGradient2867-449-88-871-390-598-476-591-434-148-57-177-3-8"
       id="radialGradient3121"
       gradientUnits="userSpaceOnUse"
       gradientTransform="matrix(0,0.70939632,-0.75045669,-1.3069787e-8,21.876133,4.4680313)"
       cx="5.7800279"
       cy="8.4497671"
       fx="5.7800279"
       fy="8.4497671"
       r="19.99999" />
    <linearGradient
       xlink:href="#linearGradient3707-319-631-407-324-3-8"
       id="linearGradient3123"
       gradientUnits="userSpaceOnUse"
       gradientTransform="matrix(0.30355127,0,0,0.30355126,8.2496851,8.2426305)"
       x1="24"
       y1="44"
       x2="24"
       y2="3.8990016" />
    <linearGradient
       xlink:href="#linearGradient4011"
       id="linearGradient3118"
       gradientUnits="userSpaceOnUse"
       gradientTransform="matrix(0.27070981,0,0,0.27070981,-3.8840531,8.6634078)"
       x1="71.204407"
       y1="6.2375584"
       x2="71.204407"
       y2="44.340794" />
    <radialGradient
       xlink:href="#linearGradient2867-449-88-871-390-598-476-591-434-148-57-177-3-8"
       id="radialGradient3121-2"
       gradientUnits="userSpaceOnUse"
       gradientTransform="matrix(0,0.77906898,-0.82416206,-1.4353423e-8,23.964014,4.8539399)"
       cx="5.7800279"
       cy="8.4497671"
       fx="5.7800279"
       fy="8.4497671"
       r="19.99999" />
    <linearGradient
       xlink:href="#linearGradient3707-319-631-407-324-3-8"
       id="linearGradient3123-6"
       gradientUnits="userSpaceOnUse"
       gradientTransform="matrix(0.33336426,0,0,0.33336425,8.9992583,8.9992576)"
       x1="24"
       y1="44"
       x2="24"
       y2="3.8990016" />
    <linearGradient
       xlink:href="#linearGradient4011"
       id="linearGradient3118-2"
       gradientUnits="userSpaceOnUse"
       gradientTransform="matrix(0.29729731,0,0,0.29729731,-4.3261833,9.4613611)"
       x1="71.204407"
       y1="6.2375584"
       x2="71.204407"
       y2="44.340794" />
  </defs>
  <g
     id="g4579"
     transform="translate(-49.104077,-10.339226)">
    <path
       id="path23417"
       style="opacity:0.3;fill:url(#radialGradient7374);fill-rule:evenodd;stroke-width:1"
       d="m 61.104077,30.975341 a 6.0000001,1.3636364 0 1 1 -12,0 6.0000001,1.3636364 0 1 1 12,0 z" />
  </g>
  <rect
     x="1.4999998"
     y="-21.5"
     width="9"
     height="9"
     ry="1"
     rx="1"
     transform="scale(1,-1)"
     style="fill:#e6e6e6;fill-opacity:1;stroke:#000000;stroke-width:1;stroke-opacity:0.302326"
     id="rect3448" />
  <g
     id="g4576"
     style="opacity:0.2;stroke-width:0.999997"
     transform="translate(-6.0000002,-1)">
    <rect
       y="20"
       x="9"
       height="2"
       width="2"
       id="rect4570"
       style="opacity:1;fill:#000000;fill-opacity:1;stroke:none;stroke-width:2;stroke-linecap:round;stroke-linejoin:round;stroke-miterlimit:4;stroke-dasharray:none;stroke-dashoffset:0;stroke-opacity:0.4" />
    <rect
       style="opacity:1;fill:#000000;fill-opacity:1;stroke:none;stroke-width:2;stroke-linecap:round;stroke-linejoin:round;stroke-miterlimit:4;stroke-dasharray:none;stroke-dashoffset:0;stroke-opacity:0.4"
       id="rect4572"
       width="2"
       height="2"
       x="13"
       y="20" />
  </g>
  <rect
     x="2.4944272"
     y="-20.472153"
     width="7"
     height="7"
     transform="scale(1,-1)"
     style="opacity:0.6;fill:none;fill-opacity:1;stroke:url(#linearGradient4604);stroke-width:1;stroke-linecap:round;stroke-linejoin:round;stroke-miterlimit:4;stroke-dasharray:none;stroke-dashoffset:0;stroke-opacity:1;marker:none"
     id="rect3458" />
  <rect
     ry="0.47058824"
     id="rect5391-5-7"
     style="fill:url(#linearGradient5466-8-3-0);fill-opacity:1;stroke:none;stroke-width:0.999926;stroke-linecap:butt;stroke-linejoin:round;stroke-miterlimit:4;stroke-dasharray:none;stroke-dashoffset:0;stroke-opacity:1;marker:none"
     rx="0.5"
     height="16"
     width="10"
     y="1.0000001"
     x="0.99999952" />
  <rect
     ry="0.94444466"
     rx="1"
     y="0.49996099"
     x="0.49996051"
     height="17.000078"
     width="11.000078"
     id="rect901"
     style="opacity:0.3;vector-effect:none;fill:none;fill-opacity:1;stroke:#000000;stroke-width:0.999921;stroke-linecap:butt;stroke-linejoin:round;stroke-miterlimit:4;stroke-dasharray:none;stroke-dashoffset:0;stroke-opacity:1;marker:none" />
  <rect
     y="1.499961"
     x="1.4999998"
     height="15"
     width="9"
     id="rect901-3"
     style="vector-effect:none;fill:none;fill-opacity:1;stroke:url(#linearGradient4161-4);stroke-width:1;stroke-linecap:round;stroke-linejoin:round;stroke-miterlimit:4;stroke-dasharray:none;stroke-dashoffset:0;stroke-opacity:1;marker:none" />
  <path
     d="m 4.8407228,15.425961 c 0,-0.812844 0.270159,-1.023722 0.601081,-1.307524 0.265666,-0.128245 0.308115,-0.215797 0.304622,-0.628246 -0.0038,-0.455788 -0.04748,-0.403723 -0.892257,-1.137052 C 3.5643339,11.233523 3.3908715,10.963529 3.2394258,9.8400312 3.1277126,9.0114062 3.2060696,9.6984202 2.8853867,9.3796832 2.2951365,8.7930346 2.3962616,7.9326767 3.0989188,7.5629073 3.7319229,7.229803 4.4817838,7.5840843 4.7130238,8.3255447 4.8269958,8.6909683 4.5537578,9.3220324 4.1868588,9.5407382 3.8511069,9.7408952 3.7118159,9.407192 3.7885949,10.144999 c 0.04249,0.408357 0.14605,0.373299 0.2301219,0.538935 0.144387,0.284464 1.5583,1.623587 1.712099,1.623587 V 5.9999146 h -0.783763 l 1.06712,-2.5039139 1.11847,2.5041685 h -0.76181 v 4.7546638 c 0.105957,0 1.129458,-1.0236788 1.478993,-1.4983141 0.151025,-0.2050753 0.242676,-0.4962648 0.242676,-0.7710368 0,-0.4144014 0.136657,-0.50154 -0.17942,-0.50154 H 7.5763378 V 6.0421279 H 9.4845545 V 7.9839421 H 9.1758725 C 8.9004443,8.0161921 8.7035843,8.1565775 8.6515893,8.6160753 8.5740393,9.3013354 8.2958478,9.7205022 7.2157418,10.809259 l -0.844915,0.911155 v 2.24934 l 0.249682,0.149014 c 0.169778,0.08196 0.403596,0.346791 0.519598,0.58852 0.412977,0.862221 -0.161626,1.788713 -1.109116,1.788713 -0.686597,-0.02546 -1.190568,-0.377978 -1.190568,-1.069028 z"
     style="opacity:0.3;vector-effect:none;fill:#ffffff;fill-opacity:1;stroke-width:1;stroke-linecap:butt;stroke-linejoin:miter;stroke-miterlimit:4;stroke-dasharray:none;stroke-dashoffset:0;stroke-opacity:1"
     id="path3690-3" />
  <path
     d="m 4.8407228,14.425793 c 0,-0.812844 0.270159,-1.023722 0.601081,-1.307524 0.265666,-0.128245 0.308115,-0.215797 0.304622,-0.628246 -0.0038,-0.455788 -0.04748,-0.403723 -0.892257,-1.137052 C 3.5643339,10.233355 3.3908715,9.9633612 3.2394258,8.8398637 3.1277126,8.0112387 3.2060696,8.6982526 2.8853867,8.3795157 2.2951365,7.7928671 2.3962616,6.9325092 3.0989188,6.5627398 c 0.6330041,-0.3331043 1.382865,0.021177 1.614105,0.7626374 0.113972,0.3654236 -0.159266,0.9964877 -0.526165,1.2151934 -0.3357519,0.200157 -0.4750429,-0.1335461 -0.3982639,0.604262 0.04249,0.4083566 0.14605,0.3732976 0.2301219,0.5389336 0.144387,0.284464 1.5583,1.6235868 1.712099,1.6235868 V 4.9997471 h -0.783763 l 1.06712,-2.5039139 1.11847,2.5041685 h -0.76181 v 4.7546635 c 0.105957,0 1.129458,-1.023678 1.478993,-1.4983138 0.151025,-0.2050753 0.242676,-0.4962648 0.242676,-0.7710368 0,-0.4144014 0.136657,-0.50154 -0.17942,-0.50154 H 7.5763378 V 5.0419604 H 9.4845545 V 6.9837746 H 9.1758725 C 8.9004443,7.0160246 8.7035843,7.15641 8.6515893,7.6159078 8.5740393,8.3011679 8.2958478,8.720335 7.2157418,9.8090912 l -0.844915,0.9111548 v 2.24934 l 0.249682,0.149014 c 0.169778,0.08196 0.403596,0.346791 0.519598,0.58852 0.412977,0.862221 -0.161626,1.788713 -1.109116,1.788713 -0.686597,-0.02546 -1.190568,-0.377978 -1.190568,-1.069028 z"
     style="opacity:0.95;fill:#969696;fill-opacity:1;stroke-width:0.636327"
     id="path3690" />
  <g
     id="g2"
     transform="translate(-1.9965825,-2.0020881)"
     style="display:inline">
    <path
       d="M 17.000001,10.5 C 13.413525,10.5 10.5,13.413524 10.5,17 c 0,3.586476 2.913525,6.500001 6.500001,6.5 3.586474,0 6.500003,-2.913524 6.499999,-6.5 0,-3.586476 -2.913525,-6.5 -6.499999,-6.5 z"
       id="path2555-7-9"
       style="color:#000000;display:inline;overflow:visible;visibility:visible;fill:url(#radialGradient3121-2);fill-opacity:1;fill-rule:nonzero;stroke:url(#linearGradient3123-6);stroke-width:1;stroke-linecap:round;stroke-linejoin:round;stroke-miterlimit:4;stroke-dasharray:none;stroke-dashoffset:0;stroke-opacity:1;marker:none;enable-background:accumulate" />
    <path
       d="M 22.5,16.999804 C 22.5,20.03747 20.037384,22.5 17.000069,22.5 13.962476,22.5 11.5,20.037441 11.5,16.999804 11.5,13.962282 13.962476,11.5 17.000069,11.5 20.037384,11.5 22.5,13.962282 22.5,16.999804 Z"
       id="path8655-6-2"
       style="color:#000000;display:inline;overflow:visible;visibility:visible;opacity:0.5;fill:none;stroke:url(#linearGradient3118-2);stroke-width:1;stroke-linecap:round;stroke-linejoin:round;stroke-miterlimit:4;stroke-dasharray:none;stroke-dashoffset:0;stroke-opacity:1;marker:none;enable-background:accumulate" />
  </g>
  <path
     style="display:inline;opacity:0.15;vector-effect:none;fill:#002e99;fill-opacity:1;stroke:none;stroke-width:1;stroke-linecap:butt;stroke-linejoin:miter;stroke-miterlimit:4;stroke-dasharray:none;stroke-dashoffset:0;stroke-opacity:1;marker:none;paint-order:normal"
     d="m 14.992981,19.989675 c 0.193403,0 0.386804,-0.08141 0.532424,-0.240387 l 2.587925,-2.790204 c 0.327975,-0.433771 -0.0085,-1.202998 -0.532423,-1.21951 h -1.587981 l 0.0025,-4.006278 c -0.01454,-0.407918 -0.327503,-0.711977 -0.71337,-0.727393 l -0.713712,-0.0082 c -0.334078,0.07762 -0.568644,0.372686 -0.571926,0.734268 l -0.0035,4.007602 h -1.588131 c -0.523906,0.01651 -0.860397,0.785739 -0.532424,1.21951 l 2.588187,2.790203 c 0.145614,0.158976 0.339022,0.240387 0.532423,0.240388 z"
     id="path9473"
     sodipodi:nodetypes="sccccccccccccs" />
  <path
     style="display:inline;vector-effect:none;fill:#ffffff;fill-opacity:1;stroke:none;stroke-width:1;stroke-linecap:butt;stroke-linejoin:miter;stroke-miterlimit:4;stroke-dasharray:none;stroke-dashoffset:0;stroke-opacity:1;marker:none;paint-order:normal"
     d="m 15.000423,19.246981 c 0.193403,0 0.386804,-0.08141 0.532424,-0.240387 l 2.587925,-2.790204 c 0.327975,-0.433771 -0.0085,-1.202998 -0.532423,-1.21951 h -1.587981 v -3.249544 c -0.01454,-0.407918 -0.328494,-0.732933 -0.714361,-0.748349 l -0.717274,0.0026 c -0.334078,0.07762 -0.565083,0.38412 -0.568365,0.745702 v 3.249544 h -1.588131 c -0.523906,0.01651 -0.860397,0.785739 -0.532424,1.21951 L 14.468,19.006546 c 0.145614,0.158976 0.339022,0.240387 0.532423,0.240388 z"
     id="path818-7"
     sodipodi:nodetypes="sccccccccccccs" />
</svg>
