<?xml version="1.0" encoding="UTF-8" standalone="no"?>
<svg
   version="1.0"
   width="22"
   height="22"
   id="svg3320"
   xmlns:xlink="http://www.w3.org/1999/xlink"
   xmlns="http://www.w3.org/2000/svg"
   xmlns:svg="http://www.w3.org/2000/svg"
   xmlns:rdf="http://www.w3.org/1999/02/22-rdf-syntax-ns#"
   xmlns:cc="http://creativecommons.org/ns#"
   xmlns:dc="http://purl.org/dc/elements/1.1/">
  <metadata
     id="metadata4930">
    <rdf:RDF>
      <cc:Work
         rdf:about="">
        <dc:format>image/svg+xml</dc:format>
        <dc:type
           rdf:resource="http://purl.org/dc/dcmitype/StillImage" />
        <dc:title />
      </cc:Work>
    </rdf:RDF>
  </metadata>
  <defs
     id="defs3322">
    <radialGradient
       xlink:href="#linearGradient3837"
       id="radialGradient3843"
       cx="15.046189"
       cy="24.644342"
       fx="15.046189"
       fy="24.644342"
       r="23"
       gradientTransform="matrix(-1.0327723,0.86210274,-0.77046252,-0.92179735,61.832909,1032.8288)"
       gradientUnits="userSpaceOnUse" />
    <linearGradient
       id="linearGradient3837">
      <stop
         style="stop-color:#242424;stop-opacity:1;"
         offset="0"
         id="stop3839" />
      <stop
         style="stop-color:#000000;stop-opacity:1;"
         offset="1"
         id="stop3841" />
    </linearGradient>
    <linearGradient
       xlink:href="#linearGradient3880"
       id="linearGradient3886"
       x1="21.094191"
       y1="43.350079"
       x2="21.094191"
       y2="-16.821482"
       gradientUnits="userSpaceOnUse"
       gradientTransform="matrix(0.99978423,0,0,0.99913798,0.01526727,1004.2389)" />
    <linearGradient
       id="linearGradient3880">
      <stop
         style="stop-color:#000000;stop-opacity:1;"
         offset="0"
         id="stop3882" />
      <stop
         style="stop-color:#6d6d6d;stop-opacity:1;"
         offset="1"
         id="stop3884" />
    </linearGradient>
    <radialGradient
       xlink:href="#linearGradient3688-166-749"
       id="radialGradient3013"
       gradientUnits="userSpaceOnUse"
       gradientTransform="matrix(2.003784,0,0,1.4,27.98813,-17.4)"
       cx="4.9929786"
       cy="43.5"
       fx="4.9929786"
       fy="43.5"
       r="2.5" />
    <linearGradient
       id="linearGradient3688-166-749">
      <stop
         offset="0"
         style="stop-color:#181818;stop-opacity:1"
         id="stop2883" />
      <stop
         offset="1"
         style="stop-color:#181818;stop-opacity:0"
         id="stop2885" />
    </linearGradient>
    <radialGradient
       xlink:href="#linearGradient3688-166-749"
       id="radialGradient3015"
       gradientUnits="userSpaceOnUse"
       gradientTransform="matrix(2.003784,0,0,1.4,-20.01187,-104.4)"
       cx="4.9929786"
       cy="43.5"
       fx="4.9929786"
       fy="43.5"
       r="2.5" />
    <linearGradient
       y2="39.999443"
       x2="25.058096"
       y1="47.027729"
       x1="25.058096"
       gradientUnits="userSpaceOnUse"
       id="linearGradient3063"
       xlink:href="#linearGradient3702-501-757" />
    <linearGradient
       id="linearGradient3702-501-757">
      <stop
         offset="0"
         style="stop-color:#181818;stop-opacity:0"
         id="stop2895" />
      <stop
         offset="0.5"
         style="stop-color:#181818;stop-opacity:1"
         id="stop2897" />
      <stop
         offset="1"
         style="stop-color:#181818;stop-opacity:0"
         id="stop2899" />
    </linearGradient>
    <radialGradient
       r="19.99999"
       fy="8.4497671"
       fx="5.7800279"
       cy="8.4497671"
       cx="5.7800279"
       gradientTransform="matrix(0,0.89689471,-0.94879583,-1.6524223e-8,18.428686,-4.5991081)"
       gradientUnits="userSpaceOnUse"
       id="radialGradient4076"
       xlink:href="#linearGradient2867-449-88-871-390-598-476-591-434-148-57-177-3-8-7" />
    <linearGradient
       id="linearGradient2867-449-88-871-390-598-476-591-434-148-57-177-3-8-7">
      <stop
         id="stop3750-8-9-0"
         style="stop-color:#90dbec;stop-opacity:1;"
         offset="0" />
      <stop
         id="stop3752-3-2-4"
         style="stop-color:#55c1ec;stop-opacity:1;"
         offset="0.26238" />
      <stop
         id="stop3754-7-2-8"
         style="stop-color:#3689e6;stop-opacity:1;"
         offset="0.704952" />
      <stop
         id="stop3756-9-3-4"
         style="stop-color:#2b63a0;stop-opacity:1;"
         offset="1" />
    </linearGradient>
    <linearGradient
       y2="3.8990016"
       x2="24"
       y1="44"
       x1="24"
       gradientTransform="matrix(0.38377722,0,0,0.38378198,1.2008884,0.173144)"
       gradientUnits="userSpaceOnUse"
       id="linearGradient4078"
       xlink:href="#linearGradient3707-319-631-407-324-3-8-8" />
    <linearGradient
       id="linearGradient3707-319-631-407-324-3-8-8">
      <stop
         id="stop3760-7-3-1"
         style="stop-color:#185f9a;stop-opacity:1;"
         offset="0" />
      <stop
         id="stop3762-8-4-6"
         style="stop-color:#599ec9;stop-opacity:1;"
         offset="1" />
    </linearGradient>
    <linearGradient
       xlink:href="#linearGradient3707-319-631-407-324-3-8-8"
       id="linearGradient4037"
       gradientUnits="userSpaceOnUse"
       x1="7.8555918"
       y1="15.85593"
       x2="7.8555918"
       y2="-0.12225635"
       gradientTransform="matrix(1.1271255,0,0,1.1271218,1.2508424,1.1883308)" />
    <linearGradient
       xlink:href="#linearGradient4011-8"
       id="linearGradient3071"
       gradientUnits="userSpaceOnUse"
       gradientTransform="matrix(0.28845012,0,0,0.28881433,-10.28049,2.0433538)"
       x1="71.204407"
       y1="6.2375584"
       x2="71.204407"
       y2="44.340794" />
    <linearGradient
       id="linearGradient4011-8">
      <stop
         id="stop4013-5"
         style="stop-color:#ffffff;stop-opacity:1;"
         offset="0" />
      <stop
         offset="0.507761"
         style="stop-color:#ffffff;stop-opacity:0.23529412;"
         id="stop4015-2" />
      <stop
         id="stop4017-1"
         style="stop-color:#ffffff;stop-opacity:0.15686275;"
         offset="0.83456558" />
      <stop
         id="stop4019-9"
         style="stop-color:#ffffff;stop-opacity:0.39215687;"
         offset="1" />
    </linearGradient>
    <linearGradient
       xlink:href="#linearGradient5638"
       id="linearGradient3878"
       x1="23.664051"
       y1="1013.0043"
       x2="23.664051"
       y2="1062.3185"
       gradientUnits="userSpaceOnUse"
       gradientTransform="matrix(0.94423364,0,0,0.93878547,1.3327615,62.552837)" />
    <linearGradient
       id="linearGradient5638">
      <stop
         id="stop5640"
         style="stop-color:#ffffff;stop-opacity:1"
         offset="0" />
      <stop
         id="stop5642"
         style="stop-color:#ffffff;stop-opacity:0"
         offset="1" />
    </linearGradient>
  </defs>
  <g
     id="layer1"
     transform="matrix(0.46684799,0,0,0.46611158,-0.20939038,-468.45088)"
     style="display:inline;stroke-width:2.14372">
    <path
       style="display:inline;fill:url(#radialGradient3843);fill-opacity:1;stroke:url(#linearGradient3886);stroke-width:2.14372;stroke-opacity:1"
       d="m 33.508039,1007.7359 -2.999353,6.9328 -24.3697404,0.01 c -2.5539772,8e-4 -4.6226835,1.7883 -4.624002,4.1752 l -0.013108,23.729 c -0.00132,2.3868 2.2606565,4.2661 4.8146326,4.265 l 35.6031148,-0.015 c 2.553976,0 4.564988,-2.0715 4.566892,-4.4586 l 0.01876,-23.519 c 0.0019,-2.3869 -2.070199,-4.2143 -4.624002,-4.1844 l -5.393154,0.01 z"
       id="path3867" />
    <g
       style="display:inline;opacity:0.6;stroke-width:2.14372"
       id="g3712"
       transform="matrix(1.2105263,0,0,0.6428571,-5.0526311,1017.1479)">
      <rect
         style="fill:url(#radialGradient3013);fill-opacity:1;stroke:none;stroke-width:2.14372"
         id="rect2801"
         y="40"
         x="38"
         height="7"
         width="5" />
      <rect
         style="fill:url(#radialGradient3015);fill-opacity:1;stroke:none;stroke-width:2.14372"
         id="rect3696"
         transform="scale(-1)"
         y="-47"
         x="-10"
         height="7"
         width="5" />
      <rect
         style="fill:url(#linearGradient3063);fill-opacity:1;stroke:none;stroke-width:2.14372"
         id="rect3700"
         y="40"
         x="10"
         height="7.0000005"
         width="28" />
    </g>
    <g
       id="g3003"
       transform="translate(5,1021.3622)"
       style="display:inline;stroke-width:2.14372">
      <path
         d="m 10.411542,1.9008572 c -4.1288397,0 -7.4829625,3.3541629 -7.4829625,7.4830543 0,4.1288915 3.3541228,7.4830545 7.4829625,7.4830535 4.128839,0 7.482965,-3.354162 7.482961,-7.4830535 0,-4.1288914 -3.354122,-7.4830543 -7.482961,-7.4830543 z"
         id="path2555-7-9"
         style="color:#000000;display:inline;overflow:visible;visibility:visible;fill:url(#radialGradient4076);fill-opacity:1;fill-rule:nonzero;stroke:url(#linearGradient4078);stroke-width:2.14372;stroke-linecap:round;stroke-linejoin:round;stroke-miterlimit:4;stroke-dasharray:none;stroke-dashoffset:0;stroke-opacity:1;marker:none;enable-background:accumulate" />
      <path
         d="m 15.74738,9.3666976 c 0,2.9509884 -2.389331,5.3432544 -5.33626,5.3432544 -2.9471977,0 -5.3363939,-2.392293 -5.3363939,-5.3432544 0,-2.9508509 2.3891962,-5.3428747 5.3363939,-5.3428747 2.946929,0 5.33626,2.3920238 5.33626,5.3428747 z"
         id="path8655-6-6"
         style="display:inline;stroke-width:2.14372;color:#000000;overflow:visible;visibility:visible;opacity:0.5;fill:none;stroke:url(#linearGradient3071);stroke-linecap:round;stroke-linejoin:round;stroke-miterlimit:4;stroke-dasharray:none;stroke-dashoffset:0;stroke-opacity:1;marker:none;enable-background:accumulate" />
      <path
         d="M 7.8794674,8.6313781 C 8.0048205,8.9388155 8.1420436,9.1865715 8.3995038,8.8297334 8.7275883,8.6130966 9.8186234,7.6776004 9.740272,8.5537432 9.4432204,10.181165 9.0671774,11.794805 8.7953076,13.426179 c -0.3160134,0.900038 0.5123688,1.668931 1.3216264,1.059127 0.869728,-0.405973 1.606928,-1.039659 2.362537,-1.62419 -0.116474,-0.259773 -0.202105,-0.636248 -0.481586,-0.278998 -0.377844,0.192942 -1.18543,1.06306 -1.368736,0.379882 0.254474,-1.759476 0.787155,-3.4654955 1.101762,-5.2134652 C 12.051848,6.9376672 11.436817,5.9545291 10.601476,6.6484196 9.5875936,7.1465301 8.7540469,7.9268219 7.8794674,8.6313781 Z M 11.477671,2.6023474 C 10.422645,2.5883611 9.940064,4.333603 10.959094,4.7644579 11.784071,5.0694395 12.634548,4.1884595 12.403002,3.3520493 12.324153,2.9148301 11.921051,2.569536 11.477671,2.6023474 Z"
         id="path3536-3"
         style="font-style:normal;font-variant:normal;font-weight:bold;font-stretch:normal;font-size:40px;line-height:100%;font-family:'URW Palladio L';-inkscape-font-specification:'URW Palladio L Bold';text-align:start;writing-mode:lr-tb;text-anchor:start;fill:url(#linearGradient4037);fill-opacity:1;stroke:none;stroke-width:2.14372" />
      <path
         d="M 7.9636374,9.6839924 C 8.0892789,9.9921374 8.226818,10.240464 8.4848708,9.8828041 8.8137105,9.6656688 9.9072573,8.7280193 9.8287251,9.6061787 9.5309898,11.237346 9.1540812,12.8547 8.8815856,14.489829 c -0.3167407,0.902108 0.5135483,1.672773 1.3246684,1.061565 0.87173,-0.406908 1.610626,-1.042052 2.367975,-1.627929 -0.116742,-0.260372 -0.202571,-0.637712 -0.482694,-0.27964 -0.378715,0.193385 -1.18816,1.065507 -1.371888,0.380756 0.255061,-1.763526 0.788968,-3.473471 1.104298,-5.225464 C 12.145622,7.9863829 11.529175,7.0009817 10.691911,7.6964695 9.6756949,8.1957267 8.84023,8.9778144 7.9636374,9.6839924 Z M 11.570124,3.6410843 c -1.057456,-0.01402 -1.541147,1.7352403 -0.519772,2.167087 0.826877,0.3056837 1.67931,-0.5773242 1.447233,-1.4156597 -0.07903,-0.4382255 -0.483061,-0.7843143 -0.927461,-0.7514273 z"
         id="path3536-0"
         style="font-style:normal;font-variant:normal;font-weight:bold;font-stretch:normal;font-size:40px;line-height:100%;font-family:'URW Palladio L';-inkscape-font-specification:'URW Palladio L Bold';text-align:start;writing-mode:lr-tb;text-anchor:start;display:inline;fill:#ffffff;fill-opacity:1;stroke:none;stroke-width:2.14372" />
    </g>
    <path
       id="path3870"
       d="m 33.495425,1013.1578 -1.595402,3.662 H 5.8383684 c -0.975797,0.116 -2.1694224,0.6833 -2.169553,2.0368 l -0.00226,23.4448 c -1.322e-4,1.3694 0.9472972,2.4279 2.9618001,2.4131 l 35.0362895,-0.025 c 1.89315,-0.028 2.645669,-1.0575 2.675758,-2.7039 l 0.0098,-23.1283 c -0.03123,-1.7125 -1.8621,-2.0487 -2.526411,-2.0324 l -6.745749,0.01 z"
       style="display:inline;opacity:0.3;fill:none;stroke:url(#linearGradient3878);stroke-width:2.14372;stroke-opacity:1" />
    <g
       id="g3"
       style="display:inline">
      <rect
         y="1024.3123"
         x="26.133898"
         height="2.1304605"
         width="2.1387014"
         id="rect4147"
         style="display:inline;fill:#d6d6d6;fill-opacity:1;fill-rule:nonzero;stroke:none;stroke-width:2.14372" />
      <rect
         style="display:inline;fill:#d6d6d6;fill-opacity:1;fill-rule:nonzero;stroke:none;stroke-width:2.14372"
         id="rect4149"
         width="2.1428211"
         height="2.1491463"
         x="30.425718"
         y="1024.3057" />
      <rect
         y="1024.3245"
         x="34.705181"
         height="2.1424651"
         width="6.4284587"
         id="rect4151"
         style="display:inline;fill:#d6d6d6;fill-opacity:1;fill-rule:nonzero;stroke:none;stroke-width:2.14372" />
      <rect
         style="display:inline;fill:#d6d6d6;fill-opacity:1;fill-rule:nonzero;stroke:none;stroke-width:2.14372"
         id="rect4155"
         width="4.2962999"
         height="2.114145"
         x="26.12817"
         y="1030.7677" />
      <rect
         y="1030.7402"
         x="32.562027"
         height="2.1377697"
         width="2.1384602"
         id="rect4157"
         style="display:inline;fill:#d6d6d6;fill-opacity:1;fill-rule:nonzero;stroke:none;stroke-width:2.14375" />
      <rect
         style="display:inline;fill:#d6d6d6;fill-opacity:1;fill-rule:nonzero;stroke:none;stroke-width:2.14375"
         id="rect4159"
         width="4.277565"
         height="2.1680391"
         x="36.852249"
         y="1030.7483" />
      <rect
         style="display:inline;opacity:0.3;fill:#d6d6d6;fill-opacity:1;fill-rule:nonzero;stroke:none;stroke-width:2.14372"
         id="rect3912"
         width="2.1494951"
         height="2.1295364"
         x="26.125168"
         y="1026.4581" />
      <rect
         y="1026.4703"
         x="30.421602"
         height="2.131655"
         width="2.1675737"
         id="rect3914"
         style="display:inline;opacity:0.3;fill:#d6d6d6;fill-opacity:1;fill-rule:nonzero;stroke:none;stroke-width:2.14372" />
      <rect
         style="display:inline;opacity:0.3;fill:#d6d6d6;fill-opacity:1;fill-rule:nonzero;stroke:none;stroke-width:2.14372"
         id="rect3916"
         width="6.4399672"
         height="2.1310802"
         x="34.703121"
         y="1026.4692" />
      <rect
         y="1032.8951"
         x="26.158228"
         height="2.1449218"
         width="4.2550302"
         id="rect3920"
         style="display:inline;opacity:0.3;fill:#d6d6d6;fill-opacity:1;fill-rule:nonzero;stroke:none;stroke-width:2.14371" />
      <rect
         style="display:inline;opacity:0.3;fill:#d6d6d6;fill-opacity:1;fill-rule:nonzero;stroke:none;stroke-width:2.14375"
         id="rect3922"
         width="2.1384983"
         height="2.1641684"
         x="32.56842"
         y="1032.8778" />
      <rect
         y="1032.9329"
         x="36.846382"
         height="2.1218038"
         width="4.2860265"
         id="rect3924"
         style="display:inline;opacity:0.3;fill:#d6d6d6;fill-opacity:1;fill-rule:nonzero;stroke:none;stroke-width:2.14372" />
    </g>
  </g>
</svg>
