<?xml version="1.0" encoding="UTF-8" standalone="no"?>
<svg
   height="16"
   width="16"
   version="1.1"
   id="svg1"
   xmlns="http://www.w3.org/2000/svg"
   xmlns:svg="http://www.w3.org/2000/svg">
  <defs
     id="defs1" />
  <g
     transform="translate(-812.002,-524)"
     id="g1">
    <path
       color="#bebebe"
       d="m 815.502,525 c -0.831,0 -1.5,0.669 -1.5,1.5 v 11 c 0,0.831 0.669,1.5 1.5,1.5 h 9 c 0.831,0 1.5,-0.669 1.5,-1.5 v -5.967 l -1,1 v 4.967 c 0,0.302 -0.198,0.5 -0.5,0.5 h -9 c -0.302,0 -0.5,-0.198 -0.5,-0.5 v -11 c 0,-0.302 0.198,-0.5 0.5,-0.5 h 6.963 l 0.994,-1 z m 9.71,0 a 0.83,0.83 0 0 0 -0.589,0.246 l -0.906,0.912 3.125,3.125 0.91,-0.906 c 0.33,-0.33 0.33,-0.85 0,-1.18 l -1.95,-1.95 A 0.83,0.83 0 0 0 825.212,525 Z m -2.554,2.22 -6.666,6.667 v 3.119 h 3.121 l 6.664,-6.664 z M 817,534 h 1 v 1 h 1 v 1 h -2 z"
       fill="#666666"
       overflow="visible"
       style="marker:none"
       id="path1" />
  </g>
</svg>
