<?xml version="1.0" encoding="UTF-8" standalone="no"?>
<svg
   height="16"
   width="16"
   version="1.1"
   id="svg1"
   xmlns="http://www.w3.org/2000/svg"
   xmlns:svg="http://www.w3.org/2000/svg">
  <defs
     id="defs1" />
  <g
     transform="translate(-792,-551.977)"
     id="g1">
    <path
       d="m 794,554.477 v 11 c 0,0 0,1.5 1.5,1.5 h 10 c 1.5,0 1.5,-1.5 1.5,-1.5 v -11 c 0,0 0,-1.5 -1.5,-1.5 h -10 c -1.5,0 -1.5,1.5 -1.5,1.5 z m 1.5,-0.5 h 10 c 0,0 0.5,0 0.5,0.5 v 2 c 0,0.5 -0.5,0.5 -0.5,0.5 h -10 c -0.5,0 -0.5,-0.5 -0.5,-0.5 v -2 c 0,0 0,-0.5 0.5,-0.5 z m -0.314,4 h 1.625 c 0.11,0 0.187,0.08 0.187,0.19 v 1.625 c 0,0.1 -0.077,0.18 -0.188,0.18 h -1.625 a 0.181,0.181 0 0 1 -0.187,-0.19 v -1.625 c 0,-0.1 0.077,-0.18 0.188,-0.18 z m 3,0 h 1.625 c 0.11,0 0.187,0.08 0.187,0.19 v 1.625 c 0,0.1 -0.077,0.18 -0.188,0.18 h -1.625 a 0.181,0.181 0 0 1 -0.187,-0.19 v -1.625 c 0,-0.1 0.077,-0.18 0.188,-0.18 z m 3,0 h 1.625 c 0.11,0 0.187,0.08 0.187,0.19 v 1.625 c 0,0.1 -0.077,0.18 -0.188,0.18 h -1.625 a 0.181,0.181 0 0 1 -0.187,-0.19 v -1.625 c 0,-0.1 0.077,-0.18 0.188,-0.18 z m 3,0 h 1.625 c 0.11,0 0.187,0.08 0.187,0.19 v 1.625 c 0,0.1 -0.077,0.18 -0.188,0.18 h -1.625 a 0.181,0.181 0 0 1 -0.187,-0.19 v -1.625 c 0,-0.1 0.077,-0.18 0.188,-0.18 z m -9,3 h 1.625 c 0.11,0 0.187,0.08 0.187,0.19 v 1.625 c 0,0.1 -0.077,0.18 -0.188,0.18 h -1.625 a 0.181,0.181 0 0 1 -0.187,-0.19 v -1.625 c 0,-0.1 0.077,-0.18 0.188,-0.18 z m 3,0 h 1.625 c 0.11,0 0.187,0.08 0.187,0.19 v 1.625 c 0,0.1 -0.077,0.18 -0.188,0.18 h -1.625 a 0.181,0.181 0 0 1 -0.187,-0.19 v -1.625 c 0,-0.1 0.077,-0.18 0.188,-0.18 z m 3,0 h 1.625 c 0.11,0 0.187,0.08 0.187,0.19 v 1.625 c 0,0.1 -0.077,0.18 -0.188,0.18 h -1.625 a 0.181,0.181 0 0 1 -0.187,-0.19 v -1.625 c 0,-0.1 0.077,-0.18 0.188,-0.18 z m 3,0 h 1.625 c 0.11,0 0.187,0.08 0.187,0.19 v 1.625 c 0,0.1 -0.077,0.18 -0.188,0.18 h -1.625 a 0.181,0.181 0 0 1 -0.187,-0.19 v -1.625 c 0,-0.1 0.077,-0.18 0.188,-0.18 z m -9,3 h 1.625 c 0.11,0 0.187,0.08 0.187,0.19 v 1.625 c 0,0.1 -0.077,0.18 -0.188,0.18 h -1.625 a 0.181,0.181 0 0 1 -0.187,-0.19 v -1.625 c 0,-0.1 0.077,-0.18 0.188,-0.18 z m 3,0 h 1.625 c 0.11,0 0.187,0.08 0.187,0.19 v 1.625 c 0,0.1 -0.077,0.18 -0.188,0.18 h -1.625 a 0.181,0.181 0 0 1 -0.187,-0.19 v -1.625 c 0,-0.1 0.077,-0.18 0.188,-0.18 z m 3,0 h 1.625 c 0.11,0 0.187,0.08 0.187,0.19 v 1.625 c 0,0.1 -0.077,0.18 -0.188,0.18 h -1.625 a 0.181,0.181 0 0 1 -0.187,-0.19 v -1.625 c 0,-0.1 0.077,-0.18 0.188,-0.18 z m 3,0 h 1.625 c 0.11,0 0.187,0.08 0.187,0.19 v 1.625 c 0,0.1 -0.077,0.18 -0.188,0.18 h -1.625 a 0.181,0.181 0 0 1 -0.187,-0.19 v -1.625 c 0,-0.1 0.077,-0.18 0.188,-0.18 z"
       fill="#666666"
       id="path1" />
  </g>
</svg>
