<?xml version="1.0" encoding="UTF-8" standalone="no"?>
<svg
   height="16"
   width="16"
   version="1.1"
   id="svg1"
   xmlns="http://www.w3.org/2000/svg"
   xmlns:svg="http://www.w3.org/2000/svg">
  <defs
     id="defs1" />
  <g
     transform="translate(-832,-524)"
     id="g1">
    <path
       color="#bebebe"
       d="m 837.5,525 c -0.277,0 -0.5,0.227 -0.5,0.5 v 0.5 h 1 v -0.5 c 0,-0.277 -0.223,-0.5 -0.5,-0.5 z m 0.5,1 v 0.5 a 0.5,0.5 0 1 1 -1,0 V 526 h -1.5 c -0.831,0 -1.5,0.669 -1.5,1.5 v 9 c 0,0.831 0.669,1.5 1.5,1.5 h 9 c 0.831,0 1.5,-0.669 1.5,-1.5 v -9 c 0,-0.831 -0.669,-1.5 -1.5,-1.5 H 843 v 0.5 a 0.5,0.5 0 1 1 -1,0 V 526 Z m 4,0 h 1 v -0.5 a 0.5,0.5 0 1 0 -1,0 z m -6.5,4 h 9 c 0.277,0 0.5,0.223 0.5,0.5 v 6 c 0,0.277 -0.223,0.5 -0.5,0.5 h -9 a 0.499,0.499 0 0 1 -0.5,-0.5 v -6 c 0,-0.277 0.223,-0.5 0.5,-0.5 z"
       fill="#666666"
       overflow="visible"
       style="isolation:auto;mix-blend-mode:normal;marker:none"
       id="path1" />
  </g>
</svg>
