<?xml version="1.0" encoding="UTF-8" standalone="no"?>
<svg
   height="16"
   width="16"
   version="1.1"
   id="svg1"
   xmlns="http://www.w3.org/2000/svg"
   xmlns:svg="http://www.w3.org/2000/svg">
  <defs
     id="defs1" />
  <g
     color="#000000"
     transform="translate(-872,-552)"
     id="g1">
    <path
       d="m 874.5,553 c -0.831,0 -1.5,0.669 -1.5,1.5 v 11 c 0,0.831 0.669,1.5 1.5,1.5 h 11 c 0.831,0 1.5,-0.669 1.5,-1.5 v -11 c 0,-0.831 -0.669,-1.5 -1.5,-1.5 z m 1.514,2 h 1 v 0.941 c 0.107,0.013 0.22,0.01 0.324,0.034 0.225,0.049 0.46,0.12 0.701,0.209 a 0.118,0.1 0 0 1 0.06,0.129 l -0.314,0.64 a 0.118,0.1 0 0 1 -0.152,0.055 5.054,5.054 0 0 0 -0.594,-0.174 2.162,2.162 0 0 0 -0.445,-0.049 c -0.166,0 -0.276,0.033 -0.348,0.086 a 0.235,0.235 0 0 0 -0.107,0.21 0.22,0.22 0 0 0 0.04,0.136 0.562,0.562 0 0 0 0.157,0.13 h 0.002 c 0.073,0.042 0.28,0.134 0.603,0.264 0.44,0.178 0.749,0.356 0.928,0.553 0.177,0.193 0.262,0.43 0.262,0.701 0,0.376 -0.168,0.689 -0.494,0.908 a 1.807,1.807 0 0 1 -0.623,0.25 V 561 h -1 v -0.928 c -0.381,-0.026 -0.739,-0.087 -1.051,-0.217 a 0.118,0.1 0 0 1 -0.067,-0.09 v -0.767 a 0.118,0.1 0 0 1 0.166,-0.09 c 0.308,0.116 0.564,0.197 0.768,0.242 0.208,0.047 0.397,0.07 0.563,0.07 0.198,0 0.336,-0.035 0.421,-0.087 0.086,-0.052 0.127,-0.114 0.127,-0.227 0,-0.057 -0.02,-0.1 -0.056,-0.142 a 0.118,0.1 0 0 0 0,-0.002 0.678,0.678 0 0 0 -0.192,-0.149 0.118,0.1 0 0 0 -0.002,0 6.11,6.11 0 0 0 -0.58,-0.256 3.034,3.034 0 0 1 -0.658,-0.338 1.37,1.37 0 0 1 -0.365,-0.386 0.986,0.986 0 0 1 -0.137,-0.526 c 0,-0.366 0.15,-0.67 0.451,-0.886 0.169,-0.12 0.378,-0.198 0.612,-0.25 z m 2.986,6 h 4 v 1 h -4 z"
       fill="#666666"
       overflow="visible"
       style="marker:none"
       id="path1" />
  </g>
</svg>
