<?xml version="1.0" encoding="UTF-8" standalone="no"?>
<svg
   version="1.1"
   width="22"
   height="22"
   id="svg3879"
   xmlns:xlink="http://www.w3.org/1999/xlink"
   xmlns="http://www.w3.org/2000/svg"
   xmlns:svg="http://www.w3.org/2000/svg"
   xmlns:rdf="http://www.w3.org/1999/02/22-rdf-syntax-ns#"
   xmlns:cc="http://creativecommons.org/ns#"
   xmlns:dc="http://purl.org/dc/elements/1.1/">
  <defs
     id="defs3881">
    <linearGradient
       id="linearGradient3805">
      <stop
         id="stop3807"
         style="stop-color:#ffffff;stop-opacity:1"
         offset="0" />
      <stop
         id="stop3809"
         style="stop-color:#ffffff;stop-opacity:0"
         offset="1" />
    </linearGradient>
    <linearGradient
       xlink:href="#linearGradient3805"
       id="linearGradient968"
       x1="18.171396"
       y1="15.64911"
       x2="23.966696"
       y2="21.366755"
       gradientUnits="userSpaceOnUse"
       gradientTransform="matrix(0.91673195,0,0,0.91673195,0.01029744,0.02807682)" />
    <linearGradient
       id="linearGradient3223"
       x1="299.23199"
       x2="308.64999"
       y1="58.039154"
       y2="60.768002"
       gradientTransform="matrix(0.63865536,0,0,0.63519817,-182.18075,-23.247266)"
       gradientUnits="userSpaceOnUse">
      <stop
         id="stop7383"
         style="stop-color:#abacae;stop-opacity:1"
         offset="0" />
      <stop
         id="stop7385"
         style="stop-color:#fafafa;stop-opacity:1"
         offset="1" />
    </linearGradient>
    <linearGradient
       xlink:href="#linearGradient992"
       id="linearGradient994"
       x1="18.565117"
       y1="20.562592"
       x2="20.5"
       y2="23.999975"
       gradientUnits="userSpaceOnUse" />
    <linearGradient
       id="linearGradient992">
      <stop
         style="stop-color:#d4d4d4;stop-opacity:1"
         offset="0"
         id="stop988" />
      <stop
         style="stop-color:#d4d4d4;stop-opacity:0"
         offset="1"
         id="stop990" />
    </linearGradient>
    <linearGradient
       xlink:href="#linearGradient984"
       id="linearGradient986"
       x1="17.691467"
       y1="20.709438"
       x2="19.636084"
       y2="24.018101"
       gradientUnits="userSpaceOnUse" />
    <linearGradient
       id="linearGradient984">
      <stop
         style="stop-color:#555761;stop-opacity:1;"
         offset="0"
         id="stop980" />
      <stop
         style="stop-color:#555761;stop-opacity:0;"
         offset="1"
         id="stop982" />
    </linearGradient>
    <linearGradient
       x1="23.99999"
       y1="6.4736748"
       x2="23.99999"
       y2="41.526306"
       id="linearGradient3013"
       xlink:href="#linearGradient3977"
       gradientUnits="userSpaceOnUse"
       gradientTransform="matrix(0.37164781,0,0,0.47075424,2.0909923,-0.26923723)" />
    <linearGradient
       id="linearGradient3977">
      <stop
         id="stop3979"
         style="stop-color:#ffffff;stop-opacity:1"
         offset="0" />
      <stop
         id="stop3981"
         style="stop-color:#ffffff;stop-opacity:0.23529412"
         offset="0" />
      <stop
         id="stop3983"
         style="stop-color:#ffffff;stop-opacity:0.15686275"
         offset="1" />
      <stop
         id="stop3985"
         style="stop-color:#ffffff;stop-opacity:0.39215687"
         offset="1" />
    </linearGradient>
    <linearGradient
       x1="25.132275"
       y1="0.98520643"
       x2="25.132275"
       y2="47.013336"
       id="linearGradient3016"
       xlink:href="#linearGradient3600-4"
       gradientUnits="userSpaceOnUse"
       gradientTransform="matrix(0.41907647,0,0,0.39838115,0.95324444,0.85654837)" />
    <linearGradient
       id="linearGradient3600-4">
      <stop
         id="stop3602-7"
         style="stop-color:#f4f4f4;stop-opacity:1"
         offset="0" />
      <stop
         id="stop3604-6"
         style="stop-color:#dbdbdb;stop-opacity:1"
         offset="1" />
    </linearGradient>
    <radialGradient
       cx="605.71429"
       cy="486.64789"
       r="117.14286"
       fx="605.71429"
       fy="486.64789"
       id="radialGradient3021"
       xlink:href="#linearGradient5060"
       gradientUnits="userSpaceOnUse"
       gradientTransform="matrix(0.01104533,0,0,0.00754956,12.146731,17.428168)" />
    <linearGradient
       id="linearGradient5060">
      <stop
         id="stop5062"
         style="stop-color:#000000;stop-opacity:1"
         offset="0" />
      <stop
         id="stop5064"
         style="stop-color:#000000;stop-opacity:0"
         offset="1" />
    </linearGradient>
    <radialGradient
       cx="605.71429"
       cy="486.64789"
       r="117.14286"
       fx="605.71429"
       fy="486.64789"
       id="radialGradient3024"
       xlink:href="#linearGradient5060"
       gradientUnits="userSpaceOnUse"
       gradientTransform="matrix(-0.01104533,0,0,0.00754956,9.875439,17.428168)" />
    <linearGradient
       x1="302.85715"
       y1="366.64789"
       x2="302.85715"
       y2="609.50507"
       id="linearGradient3027"
       xlink:href="#linearGradient5048"
       gradientUnits="userSpaceOnUse"
       gradientTransform="matrix(0.03227547,0,0,0.00754956,-0.65419731,17.428152)" />
    <linearGradient
       id="linearGradient5048">
      <stop
         id="stop5050"
         style="stop-color:#000000;stop-opacity:0"
         offset="0" />
      <stop
         id="stop5056"
         style="stop-color:#000000;stop-opacity:1"
         offset="0.5" />
      <stop
         id="stop5052"
         style="stop-color:#000000;stop-opacity:0"
         offset="1" />
    </linearGradient>
  </defs>
  <metadata
     id="metadata3884">
    <rdf:RDF>
      <cc:Work
         rdf:about="">
        <dc:format>image/svg+xml</dc:format>
        <dc:type
           rdf:resource="http://purl.org/dc/dcmitype/StillImage" />
        <dc:title />
      </cc:Work>
    </rdf:RDF>
  </metadata>
  <rect
     width="15.584441"
     height="1.8334639"
     x="3.2188599"
     y="20.196178"
     id="rect2879"
     style="display:inline;overflow:visible;visibility:visible;opacity:0.15;fill:url(#linearGradient3027);fill-opacity:1;fill-rule:nonzero;stroke:none;stroke-width:0.916732;marker:none" />
  <path
     d="m 3.2188596,20.196258 c 0,0 0,1.833364 0,1.833364 -0.5688069,0.0035 -1.3750981,-0.410765 -1.3750981,-0.916801 0,-0.506036 0.6347454,-0.916563 1.3750981,-0.916563 z"
     id="path2881"
     style="display:inline;overflow:visible;visibility:visible;opacity:0.15;fill:url(#radialGradient3024);fill-opacity:1;fill-rule:nonzero;stroke:none;stroke-width:0.916732;marker:none" />
  <path
     d="m 18.803311,20.196258 c 0,0 0,1.833364 0,1.833364 0.568806,0.0035 1.375098,-0.410765 1.375098,-0.916801 0,-0.506035 -0.634747,-0.916563 -1.375098,-0.916563 z"
     id="path2883"
     style="display:inline;overflow:visible;visibility:visible;opacity:0.15;fill:url(#radialGradient3021);fill-opacity:1;fill-rule:nonzero;stroke:none;stroke-width:0.916732;marker:none" />
  <path
     d="m 3.6772257,1.8615405 c 3.3611167,0 14.6677003,0.0012 14.6677003,0.0012 l 1.9e-5,18.3334475 c 0,0 -9.7784823,0 -14.6677193,0 0,-6.11154 0,-12.2230792 0,-18.3346198 z"
     id="path4160-3"
     style="display:inline;fill:url(#linearGradient3016);fill-opacity:1;stroke:none;stroke-width:0.916732" />
  <path
     d="M 17.886578,19.737814 H 4.1355912 V 2.3199065 H 17.886578 Z"
     id="rect6741-1"
     style="fill:none;stroke:url(#linearGradient3013);stroke-width:0.916732;stroke-linecap:round;stroke-linejoin:miter;stroke-miterlimit:4;stroke-dasharray:none;stroke-dashoffset:0;stroke-opacity:1" />
  <path
     d="m 3.2188231,1.4031352 c 3.5712034,0 15.5845049,0.00125 15.5845049,0.00125 l 1.9e-5,19.2501938 c 0,0 -10.3896849,0 -15.5845239,0 0,-6.41714 0,-12.8342795 0,-19.2514201 z"
     id="path4160-3-1"
     style="display:inline;opacity:0.3;fill:none;stroke:#000000;stroke-width:0.916661;stroke-linecap:butt;stroke-linejoin:round;stroke-miterlimit:4;stroke-dasharray:none;stroke-dashoffset:0;stroke-opacity:1" />
  <path
     style="fill:url(#linearGradient994);fill-opacity:1;fill-rule:evenodd;stroke:url(#linearGradient986);stroke-width:0.999999;stroke-linecap:round;stroke-linejoin:round;stroke-dashoffset:0.3612;stroke-opacity:0.5;enable-background:new"
     id="path3688"
     d="m 13.851562,10.078125 c -0.151873,0.04493 -0.291448,0.133158 -0.396484,0.255859 -0.205393,0.239827 -0.275493,0.597427 -0.105469,0.910157 6.67e-4,0.0012 -6.73e-4,0.0027 0,0.0039 l 1.398438,2.660156 c -0.01128,-0.02143 0.02026,0.086 -0.15625,0.335938 -0.178619,0.252913 -0.51046,0.555256 -0.939453,0.802734 -0.431557,0.248945 -0.85118,0.381899 -1.136719,0.404297 -0.143911,0.0113 -0.249995,-0.0056 -0.294922,-0.02148 -0.04493,-0.0159 -0.02334,-0.009 -0.01758,0.002 l -1.412109,-2.685547 a 0.5340498,0.5340498 0 0 0 0,-0.002 c -0.121282,-0.229649 -0.376885,-0.391796 -0.63086,-0.410157 a 0.5340498,0.5340498 0 0 0 -0.002,0 c -0.251838,-0.01775 -0.4893848,0.07565 -0.6660155,0.267578 -0.095308,0.10273 -0.1577631,0.219931 -0.1914063,0.339844 a 0.5340498,0.5340498 0 0 0 -0.00195,0.0039 c -0.3839268,1.405197 -0.3282212,2.960938 0.2792969,4.115235 0.792713,1.506101 2.515092,2.153886 4.214844,1.861328 0.529297,0.166286 1.2502,0.540013 2.130859,1.416016 l 9.5,9.43164 a 0.5340498,0.5340498 0 0 0 0.753906,0 l 2.460938,-2.451172 a 0.5340498,0.5340498 0 0 0 0,-0.757812 l -9.5,-9.431641 c -0.783662,-0.779534 -1.161003,-1.427393 -1.355469,-1.933594 0.203611,-0.892139 0.163859,-1.831192 -0.273437,-2.662109 -0.606802,-1.152869 -1.840737,-2.033616 -3.1875,-2.449219 -0.158107,-0.05038 -0.320697,-0.05024 -0.470704,-0.0059 z"
     transform="matrix(0.91673193,0,0,0.91673193,0.01029744,0.02807682)" />
  <path
     style="fill:url(#linearGradient3223);fill-rule:evenodd;stroke-width:0.797158;enable-background:new"
     d="m 12.731104,9.8053826 c 0.01195,0.00794 0.0048,0.019953 0,0.019953 l 1.436976,2.5606634 c 0.193849,0.344969 0.05398,0.752343 -0.17962,1.091727 -0.235985,0.342815 -0.601612,0.674857 -1.077752,0.933007 -0.477136,0.258628 -0.977572,0.382875 -1.397079,0.396999 -0.418537,0.01436 -0.811384,-0.104775 -0.997884,-0.436739 L 9.0787685,11.790542 h -0.019985 c 0.013143,-0.01436 0.00244,0.01038 0,0.01994 -0.2649782,1.135856 -0.127548,2.448625 0.3592467,3.315 0.6658748,1.185012 2.0561288,1.751106 3.4327418,1.508597 1.370163,-0.243945 2.5418,-1.431271 2.834053,-2.560662 0.184516,-0.731516 0.105907,-1.517614 -0.279416,-2.203324 -0.485466,-0.863984 -1.553477,-1.677612 -2.674389,-2.0644762 z"
     id="path2777" />
  <path
     style="fill:none;stroke:url(#linearGradient968);stroke-width:0.916732;stroke-linecap:round;stroke-linejoin:round;stroke-miterlimit:4;stroke-dasharray:none;stroke-dashoffset:0.3612;enable-background:new"
     d="m 13.363153,10.395895 0.99541,1.945096 c 0.230091,0.437154 0.0677,0.894145 -0.199082,1.271833 -0.269597,0.381749 -0.680223,0.740126 -1.169647,1.022381 -0.483276,0.278777 -0.974944,0.462003 -1.443345,0.498742 -0.223054,0.01748 -0.437904,-0.0016 -0.64702,-0.07477 -0.209118,-0.0735 -0.409013,-0.233053 -0.522593,-0.448868 L 9.3814636,12.715086 c -0.1376537,0.928859 -0.079314,1.895062 0.2488527,2.518609 0.5441947,1.033953 1.7332157,1.503568 3.0110837,1.22188 0.07302,-0.01899 0.150921,-0.01899 0.223969,0 0.655513,0.194629 1.493035,0.630091 2.41383,1.5461 L 23.989438,26.655054 25.60694,25.059078 16.8967,16.4057 c -0.829295,-0.82488 -1.269665,-1.575228 -1.493115,-2.194464 -0.02851,-0.08844 -0.02851,-0.185861 0,-0.27431 0.198413,-0.680444 0.14111,-1.395841 -0.174197,-1.994969 -0.326924,-0.621123 -1.05394,-1.175915 -1.866435,-1.546102 z"
     id="path3711" />
</svg>
