<?xml version="1.0" encoding="UTF-8" standalone="no"?>
<svg
   width="22"
   height="22"
   id="svg2"
   version="1.0"
   xmlns:xlink="http://www.w3.org/1999/xlink"
   xmlns="http://www.w3.org/2000/svg"
   xmlns:svg="http://www.w3.org/2000/svg"
   xmlns:rdf="http://www.w3.org/1999/02/22-rdf-syntax-ns#"
   xmlns:cc="http://creativecommons.org/ns#"
   xmlns:dc="http://purl.org/dc/elements/1.1/">
  <defs
     id="defs4">
    <linearGradient
       id="linearGradient2588">
      <stop
         offset="0"
         style="stop-color:#8cd5ff;stop-opacity:1"
         id="stop2580" />
      <stop
         offset="0.40000001"
         style="stop-color:#64baff;stop-opacity:1"
         id="stop2582" />
      <stop
         offset="1"
         style="stop-color:#3689e6;stop-opacity:1"
         id="stop2584" />
    </linearGradient>
    <linearGradient
       id="linearGradient106305">
      <stop
         offset="0"
         stop-color="#dac197"
         id="stop106301"
         style="stop-color:#e7c591;stop-opacity:1" />
      <stop
         offset="1"
         stop-color="#b19974"
         id="stop106303"
         style="stop-color:#cfa25e;stop-opacity:1" />
    </linearGradient>
    <linearGradient
       id="linearGradient3924-2-2-5-8">
      <stop
         id="stop3926-9-4-9-6"
         style="stop-color:#ffffff;stop-opacity:1"
         offset="0" />
      <stop
         id="stop3928-9-8-6-5"
         style="stop-color:#ffffff;stop-opacity:0.23529412"
         offset="0.07495743" />
      <stop
         id="stop3930-3-5-1-7"
         style="stop-color:#ffffff;stop-opacity:0.15686275"
         offset="0.92307693" />
      <stop
         id="stop3932-8-0-4-8"
         style="stop-color:#ffffff;stop-opacity:0.39215687"
         offset="1" />
    </linearGradient>
    <linearGradient
       id="linearGradient121303">
      <stop
         id="stop121295"
         style="stop-color:#ffffff;stop-opacity:1"
         offset="0" />
      <stop
         id="stop121297"
         style="stop-color:#ffffff;stop-opacity:0.23529412"
         offset="0.08609325" />
      <stop
         id="stop121299"
         style="stop-color:#ffffff;stop-opacity:0.15686275"
         offset="0.93896598" />
      <stop
         id="stop121301"
         style="stop-color:#ffffff;stop-opacity:0.39215687"
         offset="1" />
    </linearGradient>
    <linearGradient
       id="linearGradient2671">
      <stop
         offset="0"
         stop-color="#fff"
         id="stop2663" />
      <stop
         offset="0.21609467"
         stop-color="#fff"
         id="stop2665" />
      <stop
         offset="0.36015779"
         stop-color="#fff"
         stop-opacity=".643"
         id="stop2667" />
      <stop
         offset="1"
         stop-color="#fff"
         stop-opacity=".391"
         id="stop2669" />
    </linearGradient>
    <linearGradient
       id="linearGradient1597-6">
      <stop
         id="stop1589-2"
         style="stop-color:#ffffff;stop-opacity:1"
         offset="0" />
      <stop
         id="stop1591-9"
         style="stop-color:#ffffff;stop-opacity:0.23529412"
         offset="0.46875" />
      <stop
         id="stop1593-1"
         style="stop-color:#ffffff;stop-opacity:0.15686275"
         offset="1" />
      <stop
         id="stop1595-2"
         style="stop-color:#ffffff;stop-opacity:0.39215687"
         offset="1" />
    </linearGradient>
    <linearGradient
       y2="54.037033"
       x2="35.374104"
       y1="54.037033"
       x1="20.443369"
       gradientTransform="matrix(0,1.004639,1,0,-39.492447,-18.523895)"
       gradientUnits="userSpaceOnUse"
       id="linearGradient940-5-3"
       xlink:href="#linearGradient1597-6" />
    <linearGradient
       y2="11.217505"
       x2="-1.4428351"
       y1="11.217505"
       x1="19.094683"
       gradientTransform="matrix(0,-1,-1,0,25.047539,21.014671)"
       gradientUnits="userSpaceOnUse"
       id="linearGradient72-5"
       xlink:href="#linearGradient2588" />
    <linearGradient
       xlink:href="#linearGradient2671"
       id="linearGradient121762-6-1"
       gradientUnits="userSpaceOnUse"
       gradientTransform="matrix(0.49693557,0,0,0.57610552,-2.8649688,-4.6599771)"
       x1="24.537001"
       y1="21.915001"
       x2="24.537001"
       y2="7.9130001" />
    <linearGradient
       xlink:href="#linearGradient121303"
       id="linearGradient121764-3"
       gradientUnits="userSpaceOnUse"
       gradientTransform="matrix(0.46324744,0,0,0.39332388,-1.0562228,3.2515144)"
       x1="25.086039"
       y1="-0.47852933"
       x2="25.086039"
       y2="18.299334" />
    <linearGradient
       xlink:href="#linearGradient3924-2-2-5-8"
       id="linearGradient121760-1-6"
       gradientUnits="userSpaceOnUse"
       gradientTransform="matrix(0.40540548,0,0,0.32432434,-0.67437782,5.7305268)"
       x1="23.99999"
       y1="6.8214302"
       x2="23.99999"
       y2="41.178577" />
    <linearGradient
       xlink:href="#d"
       id="linearGradient121758"
       gradientUnits="userSpaceOnUse"
       gradientTransform="matrix(0.59060316,0,0,0.54106907,-3.8292228,-2.4290602)"
       x1="23.452"
       y1="30.555"
       x2="43.007"
       y2="45.933998" />
    <linearGradient
       id="d">
      <stop
         offset="0"
         stop-color="#fff"
         stop-opacity="0"
         id="stop65" />
      <stop
         offset="1"
         stop-color="#fff"
         stop-opacity="0"
         id="stop67" />
    </linearGradient>
    <linearGradient
       xlink:href="#linearGradient106305"
       id="linearGradient121756-6"
       gradientUnits="userSpaceOnUse"
       gradientTransform="matrix(0.59418207,0,0,0.62971369,18.233115,-7.0702914)"
       x1="-5.8870335"
       y1="19.72085"
       x2="-5.8870335"
       y2="43.375748" />
    <linearGradient
       xlink:href="#linearGradient106305"
       id="linearGradient1703-5"
       gradientUnits="userSpaceOnUse"
       gradientTransform="matrix(0.59418207,0,0,0.61617359,18.240133,-7.143782)"
       x1="-5.8870335"
       y1="11.482978"
       x2="-5.8870335"
       y2="22.148865" />
    <radialGradient
       cx="5"
       cy="41.5"
       fx="5"
       fy="41.5"
       gradientTransform="matrix(1.0028871,0,0,1.6,65.421996,-100.24811)"
       gradientUnits="userSpaceOnUse"
       xlink:href="#linearGradient6222"
       id="i-6-9-7-8-9-1"
       r="5" />
    <linearGradient
       id="linearGradient6222">
      <stop
         id="stop6224"
         offset="0"
         style="stop-color:#000000;stop-opacity:1;" />
      <stop
         id="stop6226"
         offset="1"
         style="stop-color:#000000;stop-opacity:0;" />
    </linearGradient>
    <linearGradient
       xlink:href="#h"
       id="linearGradient121754-9"
       gradientUnits="userSpaceOnUse"
       gradientTransform="matrix(1.89721,0,0,1.45455,-93.20331,-25.061894)"
       x1="17.554001"
       y1="46"
       x2="17.554001"
       y2="35" />
    <linearGradient
       id="h">
      <stop
         offset="0"
         stop-opacity="0"
         id="stop54" />
      <stop
         offset=".5"
         id="stop56" />
      <stop
         offset="1"
         stop-opacity="0"
         id="stop58" />
    </linearGradient>
    <radialGradient
       cx="5"
       cy="41.5"
       fx="5"
       fy="41.5"
       gradientTransform="matrix(1.0028871,0,0,1.6,-31.812631,-100.24811)"
       gradientUnits="userSpaceOnUse"
       xlink:href="#linearGradient6222"
       id="k-0-7-3-9-3-4"
       r="5" />
  </defs>
  <metadata
     id="metadata7">
    <rdf:RDF>
      <cc:Work
         rdf:about="">
        <dc:format>image/svg+xml</dc:format>
        <dc:type
           rdf:resource="http://purl.org/dc/dcmitype/StillImage" />
      </cc:Work>
    </rdf:RDF>
  </metadata>
  <g
     id="g2756"
     transform="matrix(0.37288137,0,0,0.40625,27.184398,5.5135162)"
     style="stroke-width:2.56931">
    <rect
       fill="url(#i)"
       height="16"
       opacity="0.4"
       transform="scale(-1)"
       width="5"
       x="70.436974"
       y="-41.848106"
       id="rect77-9-90-2-7-8"
       style="fill:url(#i-6-9-7-8-9-1);stroke-width:2.56931" />
    <rect
       fill="url(#j)"
       height="16"
       opacity="0.4"
       width="43.63586"
       x="-70.436974"
       y="25.848106"
       id="rect79-7-2-0-1-4"
       style="fill:url(#linearGradient121754-9);stroke-width:2.56931" />
    <rect
       fill="url(#k)"
       height="16"
       opacity="0.4"
       transform="scale(1,-1)"
       width="5"
       x="-26.79952"
       y="-41.848106"
       id="rect81-3-8-6-7-8"
       style="fill:url(#k-0-7-3-9-3-4);stroke-width:2.56931" />
  </g>
  <path
     id="rect5505-21-1-5-0-6-5-1-2-5-10"
     style="color:#000000;font-variation-settings:normal;display:inline;overflow:visible;visibility:visible;vector-effect:none;fill:url(#linearGradient1703-5);fill-opacity:1;fill-rule:nonzero;stroke:none;stroke-width:1;stroke-linecap:butt;stroke-linejoin:miter;stroke-miterlimit:4;stroke-dasharray:none;stroke-dashoffset:0;stroke-opacity:0.3;-inkscape-stroke:none;marker:none;enable-background:accumulate;stop-color:#000000"
     d="m 4.0099022,3.5146858 c -1.148292,0 -1.606365,0.6541642 -2.072729,1.6666673 -0.35747,0.7740399 -0.773386,1.5749072 -1.10383402,2.3333331 -0.175748,0.294046 -0.277984,0.6348301 -0.277984,1.0000001 H 17.555576 c 0,-0.36517 -0.102238,-0.7059541 -0.277985,-1.0000001 C 16.938186,6.7601016 16.54122,5.9510528 16.173757,5.1813531 15.693264,4.1750177 15.24932,3.5146858 14.101029,3.5146858 Z" />
  <path
     id="rect5505-21-1-5-0-6-5-1-2-3"
     style="color:#000000;font-variation-settings:normal;display:inline;overflow:visible;visibility:visible;vector-effect:none;fill:url(#linearGradient121756-6);fill-opacity:1;fill-rule:nonzero;stroke:none;stroke-width:0.999994;stroke-linecap:butt;stroke-linejoin:miter;stroke-miterlimit:4;stroke-dasharray:none;stroke-dashoffset:0;stroke-opacity:0.3;-inkscape-stroke:none;marker:none;enable-background:accumulate;stop-color:#000000"
     d="m 2.6280842,7.0146872 c -0.863637,0 -2.07272802,0.742307 -2.07272802,2.5549361 v 8.9006847 c 0,0.08585 0.0071,0.169901 0.01755,0.252833 0.0024,0.01923 0.0058,0.03815 0.0088,0.05722 0.01043,0.06698 0.02363,0.132987 0.04048,0.197609 0.0043,0.01667 0.0081,0.0334 0.01282,0.0499 0.04732,0.163983 0.11389,0.319965 0.198367,0.464412 2.48e-4,4.44e-4 3.45e-4,8.86e-4 6.91e-4,0.0014 C 1.1917262,20.104248 1.8588062,20.51431 2.6281102,20.51431 H 15.482875 c 0.769303,0 1.436383,-0.410062 1.79407,-1.020643 1.94e-4,-4.44e-4 3.46e-4,-8.87e-4 6.91e-4,-0.0014 0.08448,-0.144448 0.15105,-0.30043 0.198367,-0.464413 0.0047,-0.01651 0.0085,-0.03322 0.01281,-0.0499 0.01686,-0.06462 0.03006,-0.130628 0.04048,-0.197609 0.0028,-0.01906 0.0064,-0.03798 0.0088,-0.05722 0.01046,-0.08293 0.01752,-0.166987 0.01752,-0.252835 V 9.7399523 c 0,-1.275992 -0.518182,-2.7252651 -2.072728,-2.7252651 z" />
  <path
     d="M 3.5489992,6.3957808 H 14.286127 c 0.743763,0 1.20391,0.256328 1.515509,0.9610564 l 1.072637,2.9570958 v 8.660023 c 0,0.672601 -0.377237,1.011492 -1.120655,1.011492 H 2.2155442 c -0.743419,0 -1.046728,-0.372746 -1.046728,-1.045347 v -8.626859 l 1.038091,-3.0203138 c 0.207273,-0.5458194 0.598674,-0.8974924 1.342092,-0.8974924 z"
     display="block"
     fill="none"
     opacity="0.505"
     overflow="visible"
     stroke="url(#m)"
     stroke-width="0.742"
     style="stroke:url(#linearGradient121758);marker:none"
     id="path85-1-8-5-7-0" />
  <rect
     style="opacity:0.3;fill:none;stroke:url(#linearGradient121760-1-6);stroke-width:0.999999;stroke-linecap:round;stroke-linejoin:round;stroke-miterlimit:4;stroke-dasharray:none;stroke-dashoffset:0;stroke-opacity:1"
     id="rect6741-5-0-2-3-4-2-4"
     y="7.5143094"
     x="1.5553542"
     ry="0.85714298"
     height="12.000002"
     width="15.000001"
     rx="0.88235301" />
  <path
     id="rect5505-21-1-5-0-6-5-1-2-5-1-4"
     style="color:#000000;font-variation-settings:normal;display:inline;overflow:visible;visibility:visible;vector-effect:none;fill:none;fill-opacity:1;fill-rule:nonzero;stroke:#804b00;stroke-width:0.999997;stroke-linecap:butt;stroke-linejoin:miter;stroke-miterlimit:4;stroke-dasharray:none;stroke-dashoffset:0;stroke-opacity:0.5;-inkscape-stroke:none;marker:none;enable-background:accumulate;stop-color:#000000"
     d="m 4.0099022,3.5146858 c -1.148292,0 -1.606365,0.677953 -2.072729,1.727276 -0.35747,0.802188 -0.773386,1.6321794 -1.10383402,2.4181854 -0.175748,0.304739 -0.277984,0.6579161 -0.277984,1.0363651 v 9.7450967 c 0,1.148293 0.92443602,2.072731 2.07272802,2.072731 H 15.482848 c 1.14829,0 2.072728,-0.924438 2.072728,-2.072731 V 8.6965123 c 0,-0.378449 -0.102238,-0.7316261 -0.277985,-1.0363651 C 16.938186,6.8781222 16.54122,6.0396518 16.173757,5.2419618 15.693264,4.1990308 15.24932,3.5146858 14.101029,3.5146858 Z" />
  <path
     id="rect5505-21-1-5-0-6-5-1-2-5-1-7-7"
     style="color:#000000;font-variation-settings:normal;display:inline;overflow:visible;visibility:visible;opacity:0.15;vector-effect:none;fill:none;fill-opacity:1;fill-rule:nonzero;stroke:url(#linearGradient121764-3);stroke-width:0.999994;stroke-linecap:round;stroke-linejoin:round;stroke-miterlimit:4;stroke-dasharray:none;stroke-dashoffset:0;stroke-opacity:1;-inkscape-stroke:none;marker:none;enable-background:accumulate;stop-color:#000000"
     d="M 16.188351,7.7486812 15.352931,5.9377674 C 15.132761,5.459863 14.977283,4.9853592 14.738698,4.7567332 14.50011,4.5281064 14.186388,4.5146853 13.715099,4.5146853 H 4.3959152 c -0.471911,0 -0.782913,0.010941 -1.022319,0.2384658 -0.239405,0.2275269 -0.400965,0.7016941 -0.613626,1.1801967 v 6.458e-4 l -0.844084,1.8146876" />
  <path
     d="m 8.2332592,3.0146873 h 1.656452 l 0.1533868,3.9999999 0.01226,2.9999998 c -0.1954608,0 -0.3912538,-0.4440267 -0.5870468,-0.4440267 -0.200099,0 -0.40053,0.4440267 -0.60096,0.4440267 -0.161007,0 -0.322346,-0.3888417 -0.483684,-0.3888417 -0.105351,0 -0.210701,0.3888417 -0.316051,0.3888417 l -0.01226,-2.9999998 z"
     fill="url(#n)"
     opacity="0.3"
     overflow="visible"
     style="fill:url(#linearGradient121762-6-1);stroke-width:0.999997;marker:none"
     id="path87-0-9-7-6-4" />
  <path
     d="m 21.533868,8.9667233 h -0.0039 c 0,-0.162386 -0.06441,-0.29734 -0.167969,-0.394532 -0.0074,-0.0067 -0.01451,-0.01441 -0.02148,-0.02149 l -6.94923,-7.891859 c -0.09098,-0.0909 -0.214106,-0.144532 -0.349609,-0.144532 -0.134536,0 -0.250868,0.05363 -0.347657,0.144532 l -6.9492178,7.891864 c -0.007,0.0071 -0.01412,0.01484 -0.02148,0.02149 -0.103564,0.09719 -0.167969,0.232145 -0.167969,0.394532 0,0.301717 0.215491,0.547582 0.505858,0.547582 h 3.9882748 c 0.271008,-1.89e-4 0.49805,0.217509 0.49805,0.5090577 v 7.97727 c 0,0.285849 0.214151,0.5 0.5,0.5 h 4.000001 c 0.285849,0 0.5,-0.214151 0.5,-0.5 V 9.9745353 c 0.02501,-0.267637 0.241068,-0.460403 0.496091,-0.460225 h 3.990234 c 0.290366,0 0.500003,-0.24587 0.500003,-0.547587 z"
     style="font-variation-settings:normal;vector-effect:none;fill:url(#linearGradient72-5);fill-opacity:1;stroke:#002e99;stroke-width:1;stroke-linecap:round;stroke-linejoin:round;stroke-miterlimit:4;stroke-dasharray:none;stroke-dashoffset:0;stroke-opacity:0.501961;stop-color:#000000"
     id="path873-5-5-3" />
  <path
     d="M 14.044586,1.7193886 8.1639572,8.5143103 h 2.8825658 c 0.827239,2.68e-4 1.49778,0.672762 1.498048,1.4999997 h 0.002 v 7.5 h 2.987202 v -7.5 h 0.002 c 2.21e-4,-0.8272377 0.670762,-1.4977787 1.498,-1.4980467 h 2.883743 z"
     style="font-variation-settings:normal;opacity:0.6;vector-effect:none;fill:none;fill-opacity:1;stroke:url(#linearGradient940-5-3);stroke-width:1;stroke-linecap:butt;stroke-linejoin:miter;stroke-miterlimit:4;stroke-dasharray:none;stroke-dashoffset:0;stroke-opacity:1;marker:none;marker-start:none;marker-mid:none;marker-end:none;stop-color:#000000"
     id="path873-5-5-2" />
</svg>
