<?xml version="1.0" encoding="UTF-8" standalone="no"?>
<svg
   version="1.1"
   width="22"
   height="22"
   id="svg3946"
   xmlns:xlink="http://www.w3.org/1999/xlink"
   xmlns="http://www.w3.org/2000/svg"
   xmlns:svg="http://www.w3.org/2000/svg"
   xmlns:rdf="http://www.w3.org/1999/02/22-rdf-syntax-ns#"
   xmlns:cc="http://creativecommons.org/ns#"
   xmlns:dc="http://purl.org/dc/elements/1.1/">
  <defs
     id="defs3948">
    <linearGradient
       id="linearGradient4011">
      <stop
         id="stop4013"
         style="stop-color:#ffffff;stop-opacity:1"
         offset="0" />
      <stop
         id="stop4015"
         style="stop-color:#ffffff;stop-opacity:0.23529412"
         offset="0.507761" />
      <stop
         id="stop4017"
         style="stop-color:#ffffff;stop-opacity:0.15686275"
         offset="0.83456558" />
      <stop
         id="stop4019"
         style="stop-color:#ffffff;stop-opacity:0.39215687"
         offset="1" />
    </linearGradient>
    <linearGradient
       id="linearGradient3707-319-631-407-324-3-8">
      <stop
         id="stop3760-7-3"
         style="stop-color:#185f9a;stop-opacity:1"
         offset="0" />
      <stop
         id="stop3762-8-4"
         style="stop-color:#599ec9;stop-opacity:1"
         offset="1" />
    </linearGradient>
    <linearGradient
       id="linearGradient2867-449-88-871-390-598-476-591-434-148-57-177-3-8">
      <stop
         id="stop3750-8-9"
         style="stop-color:#90dbec;stop-opacity:1"
         offset="0" />
      <stop
         id="stop3752-3-2"
         style="stop-color:#42baea;stop-opacity:1"
         offset="0.26238" />
      <stop
         id="stop3754-7-2"
         style="stop-color:#3689e6;stop-opacity:1"
         offset="0.704952" />
      <stop
         id="stop3756-9-3"
         style="stop-color:#2b63a0;stop-opacity:1"
         offset="1" />
    </linearGradient>
    <linearGradient
       xlink:href="#linearGradient3707-319-631-407-324-3-8"
       id="linearGradient3018-1"
       gradientUnits="userSpaceOnUse"
       x1="11.61343"
       y1="30.760435"
       x2="11.61343"
       y2="7.9332342"
       gradientTransform="matrix(0.99999578,0,0,1,-1.017512,-9.007591)" />
    <linearGradient
       xlink:href="#linearGradient4011"
       id="linearGradient3096"
       gradientUnits="userSpaceOnUse"
       gradientTransform="matrix(0.57123743,0,0,0.57123551,-29.986072,-3.4941944)"
       x1="71.204407"
       y1="6.2375584"
       x2="71.204407"
       y2="44.340794" />
    <radialGradient
       xlink:href="#linearGradient2867-449-88-871-390-598-476-591-434-148-57-177-3-8"
       id="radialGradient3099"
       gradientUnits="userSpaceOnUse"
       gradientTransform="matrix(0,1.2970596,-1.3721341,-3.5303966e-8,22.594275,-9.268869)"
       cx="5.0450659"
       cy="8.4497671"
       fx="5.0450659"
       fy="8.4497671"
       r="19.99999" />
    <linearGradient
       xlink:href="#linearGradient3707-319-631-407-324-3-8"
       id="linearGradient3101"
       gradientUnits="userSpaceOnUse"
       gradientTransform="matrix(0.55692341,0,0,0.55692352,-2.3661619,-2.3661635)"
       x1="24"
       y1="44"
       x2="24"
       y2="3.8990016" />
  </defs>
  <metadata
     id="metadata3951">
    <rdf:RDF>
      <cc:Work
         rdf:about="">
        <dc:format>image/svg+xml</dc:format>
        <dc:type
           rdf:resource="http://purl.org/dc/dcmitype/StillImage" />
        <dc:title />
      </cc:Work>
    </rdf:RDF>
  </metadata>
  <path
     style="color:#000000;display:inline;overflow:visible;visibility:visible;fill:url(#radialGradient3099);fill-opacity:1;fill-rule:nonzero;stroke:url(#linearGradient3101);stroke-width:0.282;stroke-linecap:round;stroke-linejoin:round;stroke-miterlimit:4;stroke-dasharray:none;stroke-dashoffset:0;stroke-opacity:1;marker:none;enable-background:accumulate"
     id="path2555-7"
     d="M 11.000001,0.141 C 5.008378,0.141 0.141,5.0083779 0.141,11.000001 c 0,5.991621 4.867378,10.859002 10.859001,10.859 5.991619,0 10.859004,-4.867379 10.858999,-10.859 C 21.859,5.0083779 16.99162,0.141 11.000001,0.141 Z" />
  <path
     style="color:#000000;display:inline;overflow:visible;visibility:visible;opacity:0.5;fill:none;stroke:url(#linearGradient3096);stroke-width:0.281811;stroke-linecap:round;stroke-linejoin:round;stroke-miterlimit:4;stroke-dasharray:none;stroke-dashoffset:0;stroke-opacity:1;marker:none;enable-background:accumulate"
     id="path8655-6"
     d="M 21.55869,11 C 21.55869,16.836655 16.836004,21.577 11,21.577 5.163462,21.577 0.422906,16.836601 0.422906,11 0.422906,5.1636138 5.163462,0.4229055 11,0.4229055 16.836004,0.4229055 21.55869,5.1636138 21.55869,11 Z" />
  <path
     style="color:#000000;font-style:normal;font-variant:normal;font-weight:normal;font-stretch:normal;font-size:62.4583px;line-height:125%;font-family:Georgia;text-align:start;writing-mode:lr-tb;text-anchor:start;display:inline;overflow:visible;visibility:visible;fill:url(#linearGradient3018-1);fill-opacity:1;fill-rule:nonzero;stroke:none;stroke-width:0.999998;marker:none;enable-background:accumulate"
     id="text2315-0"
     d="m 9.58167,4.279097 c 0.331944,2.8104464 0.712167,5.6015494 0.994736,8.423003 0.28421,0 0.617554,0 0.901764,0 C 11.712552,9.9926084 12.090599,7.2994914 12.36331,4.5933593 12.502323,3.9525854 12.122758,3.1917866 11.3421,3.0361071 10.570695,2.8406216 9.708843,3.3247057 9.606269,4.0161813 9.589259,4.1029843 9.581669,4.191083 9.581669,4.279097 h -2e-6 z m -0.09838,11.42648 c -0.0351,0.836563 1.026888,1.492345 1.933621,1.227122 0.878236,-0.194275 1.340816,-1.151039 0.890719,-1.831132 -0.402916,-0.703026 -1.584441,-0.93466 -2.264117,-0.396605 -0.343565,0.244652 -0.571283,0.609885 -0.560223,1.000615 z" />
  <path
     style="font-style:normal;font-variant:normal;font-weight:normal;font-stretch:normal;font-size:62.4583px;line-height:125%;font-family:Georgia;text-align:start;writing-mode:lr-tb;text-anchor:start;fill:#ffffff;fill-opacity:1;stroke:none;stroke-width:0.999998"
     id="text2315"
     d="m 9.58167,5.2790966 c 0.331944,2.8104458 0.712167,5.6015494 0.994736,8.4230034 0.28421,0 0.617554,0 0.901764,0 0.234382,-2.709492 0.612429,-5.4026096 0.88514,-8.1087411 C 12.502323,4.952585 12.122758,4.1917862 11.3421,4.0361067 10.570695,3.8406212 9.708843,4.3247053 9.606269,5.0161809 c -0.01701,0.086803 -0.0246,0.1749017 -0.0246,0.2629157 h -2e-6 z M 9.48329,16.705577 c -0.0351,0.836563 1.026888,1.492345 1.933621,1.227122 0.878236,-0.194275 1.340816,-1.151039 0.890719,-1.831132 -0.402916,-0.703026 -1.584441,-0.93466 -2.264117,-0.396605 -0.343565,0.244652 -0.571283,0.609885 -0.560223,1.000615 z" />
</svg>
