<?xml version="1.0" encoding="UTF-8" standalone="no"?>
<svg
   version="1.2"
   width="22"
   height="22"
   id="svg2"
   xmlns:xlink="http://www.w3.org/1999/xlink"
   xmlns="http://www.w3.org/2000/svg"
   xmlns:svg="http://www.w3.org/2000/svg"
   xmlns:rdf="http://www.w3.org/1999/02/22-rdf-syntax-ns#"
   xmlns:cc="http://creativecommons.org/ns#"
   xmlns:dc="http://purl.org/dc/elements/1.1/">
  <defs
     id="defs4">
    <linearGradient
       id="linearGradient4011">
      <stop
         id="stop4013"
         style="stop-color:#ffffff;stop-opacity:1"
         offset="0" />
      <stop
         id="stop4015-3"
         style="stop-color:#ffffff;stop-opacity:0.23529412"
         offset="0.507761" />
      <stop
         id="stop4017-2"
         style="stop-color:#ffffff;stop-opacity:0.15686275"
         offset="0.83456558" />
      <stop
         id="stop4019"
         style="stop-color:#ffffff;stop-opacity:0.39215687"
         offset="1" />
    </linearGradient>
    <linearGradient
       xlink:href="#linearGradient4661"
       id="linearGradient3080-9"
       gradientUnits="userSpaceOnUse"
       gradientTransform="matrix(0.39988408,0,0,0.41417811,1.4408135,1.4942153)"
       x1="24.693371"
       y1="34.39452"
       x2="24.693371"
       y2="39.173557" />
    <linearGradient
       id="linearGradient4661">
      <stop
         style="stop-color:#000000;stop-opacity:1;"
         offset="0"
         id="stop4663" />
      <stop
         style="stop-color:#000000;stop-opacity:0;"
         offset="1"
         id="stop4665" />
    </linearGradient>
    <linearGradient
       gradientTransform="matrix(1.0675429,0,0,1.0671662,-1.7691565,-2.3434206)"
       xlink:href="#linearGradient3707-319-631-407-324-3-8"
       id="linearGradient3887-0"
       x1="11.801105"
       y1="19.013813"
       x2="11.801105"
       y2="0.86377394"
       gradientUnits="userSpaceOnUse" />
    <linearGradient
       id="linearGradient3707-319-631-407-324-3-8">
      <stop
         id="stop3760-7-3"
         style="stop-color:#185f9a;stop-opacity:1"
         offset="0" />
      <stop
         id="stop3762-8-4"
         style="stop-color:#599ec9;stop-opacity:1"
         offset="1" />
    </linearGradient>
    <linearGradient
       xlink:href="#linearGradient4011"
       id="linearGradient3096"
       gradientUnits="userSpaceOnUse"
       gradientTransform="matrix(0.57123743,0,0,0.57123551,-29.986072,-3.494194)"
       x1="71.204407"
       y1="6.2375584"
       x2="71.204407"
       y2="44.340794" />
    <radialGradient
       xlink:href="#linearGradient2867-449-88-871-390-598-476-591-434-148-57-177-3-8"
       id="radialGradient3099"
       gradientUnits="userSpaceOnUse"
       gradientTransform="matrix(0,1.2970596,-1.3721341,-3.5303966e-8,22.594275,-9.268869)"
       cx="5.0450659"
       cy="8.4497671"
       fx="5.0450659"
       fy="8.4497671"
       r="19.99999" />
    <linearGradient
       id="linearGradient2867-449-88-871-390-598-476-591-434-148-57-177-3-8">
      <stop
         id="stop3750-8-9"
         style="stop-color:#90dbec;stop-opacity:1"
         offset="0" />
      <stop
         id="stop3752-3-2"
         style="stop-color:#42baea;stop-opacity:1"
         offset="0.26238" />
      <stop
         id="stop3754-7-2"
         style="stop-color:#3689e6;stop-opacity:1"
         offset="0.704952" />
      <stop
         id="stop3756-9-3"
         style="stop-color:#2b63a0;stop-opacity:1"
         offset="1" />
    </linearGradient>
    <linearGradient
       xlink:href="#linearGradient3707-319-631-407-324-3-8"
       id="linearGradient3101"
       gradientUnits="userSpaceOnUse"
       gradientTransform="matrix(0.55692341,0,0,0.55692352,-2.3661619,-2.3661635)"
       x1="24"
       y1="44"
       x2="24"
       y2="3.8990016" />
  </defs>
  <metadata
     id="metadata7">
    <rdf:RDF>
      <cc:Work
         rdf:about="">
        <dc:format>image/svg+xml</dc:format>
        <dc:type
           rdf:resource="http://purl.org/dc/dcmitype/StillImage" />
      </cc:Work>
    </rdf:RDF>
  </metadata>
  <path
     style="color:#000000;display:inline;overflow:visible;visibility:visible;fill:url(#radialGradient3099);fill-opacity:1;fill-rule:nonzero;stroke:url(#linearGradient3101);stroke-width:0.282;stroke-linecap:round;stroke-linejoin:round;stroke-miterlimit:4;stroke-dasharray:none;stroke-dashoffset:0;stroke-opacity:1;marker:none;enable-background:accumulate"
     id="path2555-7"
     d="M 11.000001,0.141 C 5.008378,0.141 0.141,5.0083779 0.141,11.000001 c 0,5.991621 4.867378,10.859002 10.859001,10.859 5.991619,0 10.859004,-4.867379 10.858999,-10.859 C 21.859,5.0083779 16.99162,0.141 11.000001,0.141 Z" />
  <path
     style="color:#000000;display:inline;overflow:visible;visibility:visible;opacity:0.5;fill:none;stroke:url(#linearGradient3096);stroke-width:0.281811;stroke-linecap:round;stroke-linejoin:round;stroke-miterlimit:4;stroke-dasharray:none;stroke-dashoffset:0;stroke-opacity:1;marker:none;enable-background:accumulate"
     id="path8655-6"
     d="M 21.55869,11 C 21.55869,16.836655 16.836004,21.577 11,21.577 5.163462,21.577 0.422906,16.836601 0.422906,11 0.422906,5.1636138 5.163462,0.4229055 11,0.4229055 16.836004,0.4229055 21.55869,5.1636138 21.55869,11 Z" />
  <path
     style="font-style:normal;font-weight:bold;font-size:72px;font-family:'Standard Symbols L';display:inline;fill:url(#linearGradient3887-0);fill-opacity:1;stroke:none;stroke-width:1"
     id="path9053"
     d="M 11.527324,12.684172 C 11.492054,11.425576 11.774127,10.203749 12.963635,9.3382814 14.220057,8.3594939 15.430092,7.1348972 15.302217,5.6913746 15.274297,4.2992264 13.651668,3.2083275 11.903403,3.0514754 9.93689,2.7791421 7.557422,3.452589 6.898456,4.9878175 6.564242,5.7345009 6.874166,7.074136 7.995779,7.074136 c 0.656034,0 0.957353,-0.4236287 1.006855,-0.8111509 C 9.040084,5.9697737 8.919664,5.7079392 8.848552,5.4657437 8.767522,5.1897787 9.113438,4.6549289 9.490191,4.4370104 9.80501,4.2549134 10.134392,4.1938523 10.182944,4.1821882 c 1.130606,-0.2716184 2.257657,0.3283489 2.727881,1.0585819 0.470226,0.730233 -0.04734,1.8378555 -0.791505,2.9149751 -0.744156,1.0771192 -1.542768,2.3005078 -1.539578,3.5999468 0,0.494697 -0.04409,0.662756 -0.01277,0.862899 0.02503,0.159908 0.554709,0.140583 0.960346,0.06558 z m -0.515972,1.694002 c -1.081038,-0.05866 -1.829265,1.166411 -1.179832,1.946952 0.579975,0.861793 2.206091,0.649053 2.484807,-0.326842 0.289763,-0.758884 -0.407558,-1.632778 -1.304975,-1.62011 z" />
  <path
     style="font-style:normal;font-weight:bold;font-size:72px;font-family:'Standard Symbols L';display:inline;fill:#ffffff;fill-opacity:1;stroke:none;stroke-width:1"
     id="path3298"
     d="m 11.527324,13.751338 c -0.03527,-1.258596 0.246803,-2.480424 1.436311,-3.345891 C 14.220057,9.4266604 15.430092,8.2020634 15.302217,6.7585397 15.274297,5.3663926 13.651668,4.2754937 11.903403,4.1186416 9.93689,3.8463083 7.557422,4.5197552 6.898456,6.0549837 6.564242,6.8016671 6.874166,8.1413033 7.995779,8.1413033 c 0.656034,0 0.957353,-0.4236309 1.006855,-0.8111531 0.03745,-0.2932113 -0.08297,-0.5550448 -0.15408,-0.7972403 -0.08103,-0.275965 0.264884,-0.8108148 0.641638,-1.0287323 0.314819,-0.1820991 0.644201,-0.243158 0.692753,-0.2548232 1.130606,-0.2716173 2.257657,0.3283489 2.727881,1.0585829 0.470226,0.7302331 -0.04734,1.8378545 -0.791506,2.9149751 -0.744156,1.0771186 -1.542768,2.3005066 -1.539578,3.5999446 0,0.494698 -0.04409,0.662758 -0.01277,0.8629 0.02503,0.159909 0.554709,0.140584 0.960346,0.06558 z m -0.515972,1.694001 c -1.081038,-0.05866 -1.829265,1.166413 -1.179832,1.946952 0.579975,0.861795 2.206091,0.649055 2.484807,-0.326842 0.289763,-0.758883 -0.407558,-1.632777 -1.304975,-1.62011 z" />
  <path
     style="font-style:normal;font-weight:bold;font-size:72px;font-family:'Standard Symbols L';display:inline;opacity:0.1;fill:none;stroke:url(#linearGradient3080-9);stroke-width:1;stroke-opacity:1"
     d="m 11.000543,15.925732 c -0.543623,-0.06072 -1.091338,0.620041 -0.757324,1.133798 0.332319,0.548562 1.268792,0.492476 1.540213,-0.0858 0.216221,-0.52337 -0.266995,-1.077117 -0.782889,-1.048001 z"
     id="path4669" />
</svg>
