<?xml version="1.0" encoding="UTF-8" standalone="no"?>
<svg
   version="1.1"
   width="16"
   height="16"
   id="svg2963"
   xmlns:xlink="http://www.w3.org/1999/xlink"
   xmlns="http://www.w3.org/2000/svg"
   xmlns:svg="http://www.w3.org/2000/svg"
   xmlns:rdf="http://www.w3.org/1999/02/22-rdf-syntax-ns#"
   xmlns:cc="http://creativecommons.org/ns#"
   xmlns:dc="http://purl.org/dc/elements/1.1/">
  <metadata
     id="metadata206343">
    <rdf:RDF>
      <cc:Work
         rdf:about="">
        <dc:format>image/svg+xml</dc:format>
        <dc:type
           rdf:resource="http://purl.org/dc/dcmitype/StillImage" />
      </cc:Work>
    </rdf:RDF>
  </metadata>
  <defs
     id="defs3">
    <linearGradient
       id="linearGradient2">
      <stop
         id="stop1"
         style="stop-color:#555753;stop-opacity:1;"
         offset="0" />
      <stop
         id="stop2"
         style="stop-color:#888a85;stop-opacity:1;"
         offset="1" />
    </linearGradient>
    <linearGradient
       id="linearGradient3251">
      <stop
         id="stop3253"
         style="stop-color:#695337;stop-opacity:1"
         offset="0" />
      <stop
         id="stop3255"
         style="stop-color:#695337;stop-opacity:0"
         offset="1" />
    </linearGradient>
    <linearGradient
       id="linearGradient3243">
      <stop
         id="stop3245"
         style="stop-color:black;stop-opacity:1"
         offset="0" />
      <stop
         id="stop3247"
         style="stop-color:black;stop-opacity:0"
         offset="1" />
    </linearGradient>
    <linearGradient
       id="linearGradient3275">
      <stop
         id="stop3277"
         style="stop-color:white;stop-opacity:0"
         offset="0" />
      <stop
         id="stop3283"
         style="stop-color:white;stop-opacity:1"
         offset="0.245" />
      <stop
         id="stop3285"
         style="stop-color:white;stop-opacity:1"
         offset="0.77350003" />
      <stop
         id="stop3279"
         style="stop-color:white;stop-opacity:0"
         offset="1" />
    </linearGradient>
    <linearGradient
       x1="63.9995"
       y1="3.1001"
       x2="63.9995"
       y2="122.8994"
       id="linearGradient3309"
       gradientUnits="userSpaceOnUse">
      <stop
         id="stop3311"
         style="stop-color:#f6f6f6;stop-opacity:1"
         offset="0" />
      <stop
         id="stop3313"
         style="stop-color:#ccc;stop-opacity:1"
         offset="1" />
    </linearGradient>
    <linearGradient
       id="linearGradient3969-3">
      <stop
         id="stop3971"
         style="stop-color:white;stop-opacity:1"
         offset="0" />
      <stop
         id="stop3973"
         style="stop-color:white;stop-opacity:0"
         offset="1" />
    </linearGradient>
    <linearGradient
       id="linearGradient3199">
      <stop
         id="stop3201"
         style="stop-color:#dac197;stop-opacity:1"
         offset="0" />
      <stop
         id="stop3203"
         style="stop-color:#c1a581;stop-opacity:1"
         offset="0.23942046" />
      <stop
         id="stop3205"
         style="stop-color:#dbc298;stop-opacity:1"
         offset="0.27582464" />
      <stop
         id="stop3207"
         style="stop-color:#a68b60;stop-opacity:1"
         offset="1" />
    </linearGradient>
    <linearGradient
       id="linearGradient3950">
      <stop
         id="stop3952"
         style="stop-color:#eeeeec;stop-opacity:1"
         offset="0" />
      <stop
         id="stop3954"
         style="stop-color:white;stop-opacity:1"
         offset="1" />
    </linearGradient>
    <linearGradient
       id="linearGradient3958-0">
      <stop
         id="stop3960-9"
         style="stop-color:#555753;stop-opacity:1"
         offset="0" />
      <stop
         id="stop3962-3"
         style="stop-color:#888a85;stop-opacity:1"
         offset="1" />
    </linearGradient>
    <linearGradient
       id="linearGradient4099-6">
      <stop
         id="stop4101-1"
         style="stop-color:#edd563;stop-opacity:1"
         offset="0" />
      <stop
         id="stop4103-8"
         style="stop-color:#e08223;stop-opacity:1"
         offset="1" />
    </linearGradient>
    <linearGradient
       id="linearGradient4093">
      <stop
         id="stop4095"
         style="stop-color:#bb5e12;stop-opacity:1"
         offset="0" />
      <stop
         id="stop4097"
         style="stop-color:#cd8033;stop-opacity:1"
         offset="1" />
    </linearGradient>
    <linearGradient
       id="linearGradient3295">
      <stop
         id="stop3297"
         style="stop-color:#c3a67d;stop-opacity:1"
         offset="0" />
      <stop
         id="stop3299"
         style="stop-color:#a17d4f;stop-opacity:1"
         offset="0.23942046" />
      <stop
         id="stop3301"
         style="stop-color:#bb9b71;stop-opacity:1"
         offset="0.27582464" />
      <stop
         id="stop3303"
         style="stop-color:#836945;stop-opacity:1"
         offset="1" />
    </linearGradient>
    <linearGradient
       x1="44.994774"
       y1="17.5"
       x2="3.0052247"
       y2="17.5"
       id="linearGradient3086-5"
       xlink:href="#linearGradient3275"
       gradientUnits="userSpaceOnUse"
       gradientTransform="matrix(0.32359869,0,0,0.4309635,0.23206949,0.01470217)"
       spreadMethod="reflect" />
    <linearGradient
       x1="20.78125"
       y1="24.59375"
       x2="20.8125"
       y2="23.53125"
       id="linearGradient3090-9"
       xlink:href="#linearGradient3243"
       gradientUnits="userSpaceOnUse"
       gradientTransform="matrix(0.4103317,0,0,0.35302408,-1.6756564,-1.9750888)" />
    <linearGradient
       x1="24.822832"
       y1="15.377745"
       x2="24.996943"
       y2="37.27668"
       id="linearGradient3943-6"
       xlink:href="#linearGradient3199"
       gradientUnits="userSpaceOnUse"
       gradientTransform="matrix(0.41060067,0,0,0.49610989,-1.6307489,-3.5467894)" />
    <linearGradient
       x1="25"
       y1="0"
       x2="25"
       y2="16.000105"
       id="linearGradient3262-1"
       xlink:href="#linearGradient3309"
       gradientUnits="userSpaceOnUse"
       gradientTransform="matrix(1.0555344,0,0,1.0555345,-18.44978,-0.44412594)" />
    <linearGradient
       x1="21"
       y1="0"
       x2="21"
       y2="16.004715"
       id="linearGradient3264-7"
       xlink:href="#linearGradient2"
       gradientUnits="userSpaceOnUse"
       gradientTransform="matrix(1.0555344,0,0,1.0555345,-18.44978,-0.44412594)" />
    <linearGradient
       x1="314.09293"
       y1="230.78207"
       x2="315.01315"
       y2="229.86185"
       id="linearGradient3543-5"
       xlink:href="#linearGradient3950"
       gradientUnits="userSpaceOnUse" />
    <linearGradient
       x1="312.95822"
       y1="234.93124"
       x2="311"
       y2="220.60095"
       id="linearGradient3545-6"
       xlink:href="#linearGradient3958-0"
       gradientUnits="userSpaceOnUse" />
    <linearGradient
       x1="-2.1966379"
       y1="40.971893"
       x2="-10.565685"
       y2="40.94883"
       id="linearGradient3513-6"
       xlink:href="#linearGradient4099-6"
       gradientUnits="userSpaceOnUse"
       gradientTransform="matrix(0.30070466,-1.0669373e-8,0,0.59925602,-29.483716,-49.116348)" />
    <linearGradient
       x1="-45.568657"
       y1="7.7140422"
       x2="-36.082916"
       y2="12.324154"
       id="linearGradient3515-4"
       xlink:href="#linearGradient4093"
       gradientUnits="userSpaceOnUse"
       gradientTransform="matrix(0.37257704,0,0,0.37259555,-16.627573,-28.787593)" />
    <radialGradient
       cx="-39.458145"
       cy="11.839552"
       r="3.9059753"
       fx="-39.458145"
       fy="11.839552"
       id="radialGradient3517-5"
       xlink:href="#linearGradient3969-3"
       gradientUnits="userSpaceOnUse"
       gradientTransform="matrix(0.76416071,-0.05305347,0.09313312,1.9396059,-1.6116004,-49.772789)" />
    <linearGradient
       x1="11.12416"
       y1="21.5625"
       x2="13.168094"
       y2="21.5625"
       id="linearGradient3142-7"
       xlink:href="#linearGradient3251"
       gradientUnits="userSpaceOnUse"
       gradientTransform="matrix(-0.52980102,0,0,-0.4309635,18.945476,17.009297)" />
    <linearGradient
       x1="10.74916"
       y1="21.5"
       x2="12.109532"
       y2="21.5"
       id="linearGradient3154-3"
       xlink:href="#linearGradient3251"
       gradientUnits="userSpaceOnUse"
       gradientTransform="matrix(0.52335724,0,0,-0.4309635,-3.0948094,17.009297)" />
    <linearGradient
       x1="22.1875"
       y1="20"
       x2="22.1875"
       y2="24.079771"
       id="linearGradient3157-0"
       xlink:href="#linearGradient3251"
       gradientUnits="userSpaceOnUse"
       gradientTransform="matrix(0.43065366,0,0,0.44128018,-2.1084656,-3.9348672)" />
    <linearGradient
       x1="23"
       y1="19"
       x2="23"
       y2="44"
       id="linearGradient3160-7"
       xlink:href="#linearGradient3969-3"
       gradientUnits="userSpaceOnUse"
       gradientTransform="matrix(0.41300434,0,0,0.40397893,-1.7071636,-2.9660982)" />
    <linearGradient
       x1="24.822832"
       y1="15.377745"
       x2="24.996943"
       y2="37.27668"
       id="linearGradient3163-8"
       xlink:href="#linearGradient3199"
       gradientUnits="userSpaceOnUse"
       gradientTransform="matrix(0.46925792,0,0,0.49610989,-3.0063469,-3.5467894)" />
    <linearGradient
       x1="15.464298"
       y1="7.9756851"
       x2="15.464298"
       y2="45.04248"
       id="linearGradient3165-6"
       xlink:href="#linearGradient3295"
       gradientUnits="userSpaceOnUse"
       gradientTransform="matrix(0.36597157,0,0,0.31857834,-0.78482921,1.3245141)" />
  </defs>
  <path
     d="M 2.5128398,4.0324303 H 13.308168 c 0.630197,0 0.913803,-0.091289 1.094823,0.3185781 l 1.098549,2.5486267 v 8.1791519 c 0,0.49485 0.03768,0.419242 -0.592531,0.419242 H 1.0879675 c -0.63020021,0 -0.5925311,0.07561 -0.5925311,-0.419242 V 6.8996351 L 1.5939859,4.3510084 C 1.7699565,3.9494205 1.8826398,4.0324303 2.5128398,4.0324303 Z"
     id="path2488"
     style="display:inline;overflow:visible;visibility:visible;fill:url(#linearGradient3163-8);fill-opacity:1;fill-rule:nonzero;stroke:url(#linearGradient3165-6);stroke-width:0.994202;stroke-linecap:round;stroke-linejoin:miter;stroke-miterlimit:4;stroke-dasharray:none;stroke-dashoffset:0;stroke-opacity:1;marker:none" />
  <path
     d="M 2.4228798,4.9114908 C 2.0572421,5.6771355 1.7287112,6.4614762 1.3774627,7.234371 c 0,2.461746 0,4.923493 0,7.385239 4.4139813,0 8.8279693,0 13.2419523,0 0,-2.461746 0,-4.923493 0,-7.385239 -0.339294,-0.7720545 -0.694591,-1.5382914 -1.023883,-2.3139787 -0.269037,-0.030827 -0.653289,-6.35e-5 -0.970671,-0.00891 -3.4006571,-5.3e-6 -6.8013424,8.8e-6 -10.2019812,0 z"
     id="path3772"
     style="display:inline;overflow:visible;visibility:visible;opacity:0.3;fill:none;stroke:url(#linearGradient3160-7);stroke-width:0.994202;stroke-linecap:round;stroke-linejoin:miter;stroke-miterlimit:4;stroke-dasharray:none;stroke-dashoffset:0;stroke-opacity:1;marker:none" />
  <path
     d="m 2.9651731,4.449456 c -0.1783984,0 -0.2355446,0.031068 -0.2826165,0.068952 -0.047071,0.03788 -0.108149,0.1178324 -0.1614951,0.2757993 L 1.8212492,7.097139 H 14.175626 L 13.462357,4.8769474 c -0.08986,-0.228885 -0.154166,-0.302661 -0.215326,-0.3447496 -0.06116,-0.042098 -0.154534,-0.082742 -0.363366,-0.082742 z"
     id="path3692"
     style="color:#000000;display:inline;overflow:visible;visibility:visible;opacity:0.6;fill:url(#linearGradient3157-0);fill-opacity:1;fill-rule:nonzero;stroke:none;stroke-width:0.999994;marker:none" />
  <path
     d="m 3.0709933,4.5113563 c -0.2168007,0 -0.2862485,0.030343 -0.3434536,0.067339 -0.057206,0.036998 -0.1314289,0.1150784 -0.1962586,0.2693526 L 1.6808255,7.097139 H 4.232192 V 4.5113581 H 3.0709933 Z"
     id="path3694"
     style="color:#000000;display:inline;overflow:visible;visibility:visible;opacity:0.6;fill:url(#linearGradient3154-3);fill-opacity:1;fill-rule:nonzero;stroke:none;stroke-width:0.999994;marker:none" />
  <path
     d="m 12.703757,4.5113563 c 0.21947,0 0.289772,0.030343 0.347681,0.067339 0.05791,0.036996 0.133047,0.115078 0.198676,0.2693522 l 0.860927,2.2490911 H 11.52826 V 4.5113581 h 1.175497 z"
     id="path3696"
     style="color:#000000;display:inline;overflow:visible;visibility:visible;opacity:0.670498;fill:url(#linearGradient3142-7);fill-opacity:1;fill-rule:nonzero;stroke:none;stroke-width:0.999994;marker:none" />
  <g
     transform="matrix(0.82276513,-0.31070097,0.31068403,0.82280999,-4.1203982,-26.015408)"
     id="g3507"
     style="display:inline;stroke-width:1.13702">
    <rect
       width="3.2940149"
       height="10.683528"
       rx="1.7938211"
       ry="1.7943631"
       x="-33.543232"
       y="-29.537432"
       transform="matrix(-0.70745471,-0.70675868,0.70394288,-0.71025659,0,0)"
       id="rect5288"
       style="fill:url(#linearGradient3513-6);fill-opacity:1;stroke:url(#linearGradient3515-4);stroke-width:1.13722;stroke-linecap:round;stroke-linejoin:round;stroke-miterlimit:4;stroke-dasharray:none;stroke-opacity:1" />
    <rect
       width="2.3307097"
       height="9.0729837"
       rx="2.1154695"
       ry="2.1163242"
       x="-32.965897"
       y="-28.915796"
       transform="matrix(-0.70545697,-0.70875276,0.70051753,-0.7136352,0,0)"
       id="rect5292"
       style="opacity:0.6;fill:none;stroke:url(#radialGradient3517-5);stroke-width:1.13705;stroke-linecap:round;stroke-linejoin:round;stroke-miterlimit:4;stroke-dasharray:none;stroke-opacity:1" />
  </g>
  <g
     transform="matrix(0.78508915,0.3963826,-0.39636099,0.78513196,-148.16935,-258.40456)"
     id="g7817"
     style="display:inline;stroke-width:1.13702;enable-background:new">
    <g
       transform="translate(-19.118585,-34.90668)"
       id="g3539"
       style="stroke-width:1.13702">
      <path
         d="m 306.75,219.5 c -0.37511,0.0471 -0.77839,0.25308 -1.1875,0.65625 l 1.71875,1.6875 c 0.3584,0.36046 0.34912,0.93023 0,1.28125 l -0.125,0.125 c -0.34912,0.35106 -0.92283,0.36044 -1.28125,0 l -1.6875,-1.6875 c -1.15661,1.13978 -0.64599,2.06839 0.125,2.84375 l 0.46875,0.46875 c 0.73274,0.7369 1.86697,0.81164 2.6875,0.21875 l 5.4375,5.4375 1.625,-1.62505 -5.4375,-5.4375 c 0.59284,-0.82529 0.54644,-1.98062 -0.1875,-2.71875 l -0.46875,-0.5 c -0.48639,-0.48917 -1.06232,-0.82854 -1.6875,-0.75 z"
         id="path3935"
         style="display:inline;fill:url(#linearGradient3543-5);fill-opacity:1;fill-rule:evenodd;stroke:url(#linearGradient3545-6);stroke-width:1.02331602;stroke-linecap:round;stroke-linejoin:round;stroke-miterlimit:4;stroke-dasharray:none;stroke-dashoffset:0.3612;stroke-opacity:1;enable-background:new" />
    </g>
  </g>
  <g
     transform="matrix(0.52769239,0,0,0.52772117,3.7515142,1.123727)"
     id="layer1"
     style="display:inline;stroke-width:1.13702">
    <g
       id="g2479"
       style="stroke-width:1.13702">
      <path
         d="m 6.8784944,0.08364131 c -0.2622126,0 -0.4617963,0.19958276 -0.4617963,0.46179631 V 1.8648557 C 5.8320345,2.0149533 5.3071583,2.2573861 4.8004111,2.5575503 L 3.843833,1.6009721 c -0.1854119,-0.1854129 -0.4742959,-0.1854129 -0.659709,0 L 1.6008224,3.1842739 c -0.185412,0.1854129 -0.185412,0.4742961 0,0.659709 L 2.5574005,4.8005611 C 2.257237,5.307308 2.014804,5.8321843 1.864706,6.4168483 H 0.54528797 c -0.26221268,0 -0.4617963,0.1995827 -0.4617963,0.4617963 v 2.2430108 c 10e-9,0.2622136 0.19958361,0.4617964 0.4617963,0.4617964 H 1.864706 c 0.1500979,0.5846632 0.3925311,1.1095392 0.6926945,1.6162872 l -0.9565781,0.956578 c -0.185412,0.185413 -0.185412,0.474296 0,0.659709 l 1.5833016,1.583302 c 0.185413,0.185413 0.4742959,0.185413 0.659709,0 l 0.9565781,-0.956579 c 0.5067473,0.300165 1.0316233,0.542598 1.616287,0.692695 v 1.319418 c 1e-7,0.262214 0.1995836,0.461796 0.4617963,0.461796 H 9.121505 c 0.2622133,0 0.4617963,-0.199582 0.4617963,-0.461796 v -1.319418 c 0.5846637,-0.150097 1.1095397,-0.39253 1.6162877,-0.692695 l 0.956578,0.956579 c 0.185413,0.185413 0.474296,0.185413 0.659709,0 l 1.583301,-1.583302 c 0.185413,-0.185413 0.185413,-0.474296 0,-0.659709 l -0.956578,-0.956578 c 0.300165,-0.506748 0.542598,-1.031624 0.692695,-1.6162872 h 1.319418 c 0.262213,0 0.461796,-0.1995832 0.461796,-0.4617964 V 6.8786446 c 0,-0.2622135 -0.199584,-0.4617963 -0.461796,-0.4617963 H 14.135294 C 13.985197,5.8321843 13.742764,5.307308 13.442599,4.8005611 l 0.956578,-0.9565782 c 0.185413,-0.1854129 0.185413,-0.4742959 0,-0.659709 L 12.815876,1.6009721 c -0.185413,-0.1854129 -0.474296,-0.1854129 -0.659709,0 L 11.199589,2.5575503 C 10.692841,2.2573861 10.167965,2.0149533 9.5833013,1.8648557 V 0.54543762 C 9.5833009,0.28322407 9.3837187,0.08364131 9.121505,0.08364131 Z M 7.9999997,5.889081 c 1.16531,0 2.1110693,0.9457589 2.1110693,2.111069 0,1.1653101 -0.9457593,2.111069 -2.1110693,2.111069 -1.16531,0 -2.1110688,-0.9457589 -2.1110688,-2.111069 0,-1.1653101 0.9457588,-2.111069 2.1110688,-2.111069 z"
         id="path2426"
         style="display:block;overflow:visible;visibility:visible;fill:url(#linearGradient3262-1);fill-opacity:1;fill-rule:nonzero;stroke:url(#linearGradient3264-7);stroke-width:1.32649423;stroke-linecap:butt;stroke-linejoin:round;stroke-miterlimit:4;stroke-dasharray:none;stroke-dashoffset:0;stroke-opacity:1;marker:none;enable-background:accumulate" />
    </g>
  </g>
  <path
     d="M 15.058082,7.1152827 V 8.8804048 H 14.175626 V 14.17577 H 1.8212492 V 8.8804048 H 0.93879362 V 7.1152827 Z"
     id="path3167"
     style="display:inline;overflow:visible;visibility:visible;fill:url(#linearGradient3943-6);fill-opacity:1;fill-rule:nonzero;stroke:none;stroke-width:0.994202;marker:none" />
  <path
     d="m 3.1585636,4.9088819 c -0.073364,0 -0.1144601,0.00759 -0.1282287,0.011032 -0.013771,0.00335 -7.194e-4,0.00282 -0.012829,0.011032 -0.0024,0.0016 -0.047761,0.02796 -0.08976,0.1323842 L 2.3507229,6.6740022 H 13.557908 L 12.968055,5.1405543 v -0.011032 c -0.07136,-0.1488639 -0.107726,-0.1756982 -0.128229,-0.1875439 -0.02879,-0.016644 -0.0578,-0.033096 -0.230811,-0.033096 z"
     id="path3730"
     style="color:#000000;display:inline;overflow:visible;visibility:visible;opacity:0.15;fill:none;stroke:url(#linearGradient3090-9);stroke-width:0.999994;stroke-linecap:butt;stroke-linejoin:miter;stroke-miterlimit:4;stroke-dashoffset:0;stroke-opacity:1;marker:none" />
  <path
     d="M 1.3663557,7.5565632 H 14.63052"
     id="path3357"
     style="display:inline;opacity:0.4;fill:none;stroke:url(#linearGradient3086-5);stroke-width:0.999994px;stroke-linecap:square;stroke-linejoin:miter;stroke-opacity:1" />
</svg>
