<?xml version="1.0" encoding="UTF-8" standalone="no"?>
<svg
   width="22"
   height="22"
   id="svg10706"
   version="1.1"
   xmlns:xlink="http://www.w3.org/1999/xlink"
   xmlns="http://www.w3.org/2000/svg"
   xmlns:svg="http://www.w3.org/2000/svg"
   xmlns:rdf="http://www.w3.org/1999/02/22-rdf-syntax-ns#"
   xmlns:cc="http://creativecommons.org/ns#"
   xmlns:dc="http://purl.org/dc/elements/1.1/">
  <defs
     id="defs10708">
    <linearGradient
       id="linearGradient3454-2-5-0-3-4-1-2">
      <stop
         offset="0"
         style="stop-color:#ffffff;stop-opacity:1"
         id="stop3456-4-9-38-1-8-8-6" />
      <stop
         offset="0.0097359"
         style="stop-color:#ffffff;stop-opacity:0.23529412"
         id="stop3458-39-80-3-5-5-8-1" />
      <stop
         offset="0.99001008"
         style="stop-color:#ffffff;stop-opacity:0.15686275"
         id="stop3460-7-0-2-4-2-7-9" />
      <stop
         offset="1"
         style="stop-color:#ffffff;stop-opacity:0.39215687"
         id="stop3462-0-9-8-7-2-3-40" />
    </linearGradient>
    <linearGradient
       id="linearGradient6129-963-697-142-998-580-273-5-3-7">
      <stop
         id="stop2661-1-2-2"
         style="stop-color:#0a0a0a;stop-opacity:0.498"
         offset="0" />
      <stop
         id="stop2663-85-8-6"
         style="stop-color:#0a0a0a;stop-opacity:0"
         offset="1" />
    </linearGradient>
    <linearGradient
       id="linearGradient4632-92-3-0-8-1">
      <stop
         style="stop-color:#cdc9e3;stop-opacity:1"
         offset="0"
         id="stop4634-68-8-0-2-9" />
      <stop
         style="stop-color:#9389cb;stop-opacity:1"
         offset="1"
         id="stop4636-8-21-7-1-4" />
    </linearGradient>
    <linearGradient
       id="linearGradient4325-0-5">
      <stop
         offset="0"
         style="stop-color:#ffffff;stop-opacity:1"
         id="stop4327-4-6" />
      <stop
         offset="0.1106325"
         style="stop-color:#ffffff;stop-opacity:0.23529412"
         id="stop4329-5-9" />
      <stop
         offset="0.99001008"
         style="stop-color:#ffffff;stop-opacity:0.15686275"
         id="stop4331-6-1" />
      <stop
         offset="1"
         style="stop-color:#ffffff;stop-opacity:0.39215687"
         id="stop4333-7-7" />
    </linearGradient>
    <linearGradient
       id="linearGradient4646-7-4-3-5-6-8">
      <stop
         offset="0"
         style="stop-color:#f9f9f9;stop-opacity:1"
         id="stop4648-8-0-3-6-5-0" />
      <stop
         offset="1"
         style="stop-color:#d8d8d8;stop-opacity:1"
         id="stop4650-1-7-3-4-8-2" />
    </linearGradient>
    <linearGradient
       id="linearGradient3104-8-8-97-4-6-11-5-5-0-5-7">
      <stop
         offset="0"
         style="stop-color:#000000;stop-opacity:0.32173914"
         id="stop3106-5-4-3-5-0-2-1-0-6-6-64" />
      <stop
         offset="1"
         style="stop-color:#000000;stop-opacity:0.27826086"
         id="stop3108-4-3-7-8-2-0-7-9-1-4-3" />
    </linearGradient>
    <linearGradient
       x1="-51.786404"
       y1="53.514328"
       x2="-51.786404"
       y2="3.6336823"
       id="linearGradient10992-5"
       xlink:href="#linearGradient3104-8-8-97-4-6-11-5-5-0-5-7"
       gradientUnits="userSpaceOnUse"
       gradientTransform="matrix(0.40212523,0,0,0.398023,53.350858,-8.7909421)" />
    <linearGradient
       x1="62.988873"
       y1="13"
       x2="62.988873"
       y2="16"
       id="linearGradient4414-2-7"
       xlink:href="#linearGradient4646-7-4-3-5-6-8"
       gradientUnits="userSpaceOnUse"
       gradientTransform="matrix(0.49096263,0,0,0.48984879,-24.706222,-8.7127621)" />
    <linearGradient
       x1="21.457569"
       y1="3.8758893"
       x2="21.37039"
       y2="34.143417"
       id="linearGradient4418-4-4"
       xlink:href="#linearGradient4325-0-5"
       gradientUnits="userSpaceOnUse"
       gradientTransform="matrix(0.43131243,0,0,0.48638011,1.9898582,-5.8145921)" />
    <linearGradient
       x1="27.557428"
       y1="7.3266549"
       x2="27.557814"
       y2="21.297867"
       id="linearGradient4440-9-5-3"
       xlink:href="#linearGradient3454-2-5-0-3-4-1-2"
       gradientUnits="userSpaceOnUse"
       gradientTransform="matrix(0.62762637,0,0,0.7245642,2.9730682,-4.3726321)" />
    <linearGradient
       x1="22.934725"
       y1="49.629246"
       x2="22.809399"
       y2="36.657963"
       id="linearGradient4436-4-4-6"
       xlink:href="#linearGradient6129-963-697-142-998-580-273-5-3-7"
       gradientUnits="userSpaceOnUse"
       gradientTransform="matrix(0.54761895,0,0,0.48299421,-1.1065518,-8.2449121)" />
    <linearGradient
       xlink:href="#linearGradient4632-92-3-0-8-1"
       id="linearGradient4208"
       x1="12.96011"
       y1="7.7230964"
       x2="12.980055"
       y2="20.178391"
       gradientUnits="userSpaceOnUse"
       gradientTransform="translate(-1,-1)" />
  </defs>
  <metadata
     id="metadata10711">
    <rdf:RDF>
      <cc:Work
         rdf:about="">
        <dc:format>image/svg+xml</dc:format>
        <dc:type
           rdf:resource="http://purl.org/dc/dcmitype/StillImage" />
      </cc:Work>
    </rdf:RDF>
  </metadata>
  <g
     transform="translate(-1,7)"
     id="layer1"
     style="display:inline">
    <path
       d="m 4.054,-4.5 c -0.277,0 -0.554714,0.1604988 -0.554,0.4374979 v 1.5625 H 3.054 c -0.277,0 -0.5601414,0.2230681 -0.554,0.5 V -1 h 19.000042 l 2.19e-4,-1.0412721 c 5.8e-5,-0.2770001 -0.1867,-0.4587278 -0.4637,-0.4587279 L 10.5,-2.5000021 v -1.5625 C 10.5,-4.3395021 10.313,-4.5 10.036,-4.5 Z"
       id="rect3186"
       style="color:#000000;display:inline;overflow:visible;visibility:visible;opacity:0.8;fill:none;stroke:url(#linearGradient10992-5);stroke-width:1;stroke-linecap:butt;stroke-linejoin:miter;stroke-miterlimit:4;stroke-dasharray:none;stroke-dashoffset:0;stroke-opacity:1;marker:none;enable-background:accumulate" />
    <path
       d="m 4,-4 v 2 H 3 v 3 h 18 v -3 l -11,-2.1e-6 v -2 z"
       id="rect3409-5-2"
       style="color:#000000;display:inline;overflow:visible;visibility:visible;fill:url(#linearGradient4414-2-7);fill-opacity:1;fill-rule:nonzero;stroke:none;stroke-width:1;marker:none;enable-background:accumulate" />
    <path
       d="m 4.5,-3.5 v 2 h -1 v 2 h 17 v -2 l -11,-2.1e-6 v -2 z"
       id="rect3409-3"
       style="color:#000000;display:inline;overflow:visible;visibility:visible;fill:none;stroke:url(#linearGradient4418-4-4);stroke-width:1;stroke-linecap:round;stroke-linejoin:miter;stroke-miterlimit:4;stroke-dasharray:none;stroke-dashoffset:0;stroke-opacity:1;marker:none;enable-background:accumulate" />
    <path
       style="color:#000000;font-style:normal;font-variant:normal;font-weight:normal;font-stretch:normal;font-size:medium;line-height:normal;font-family:sans-serif;text-indent:0;text-align:start;text-decoration:none;text-decoration-line:none;text-decoration-style:solid;text-decoration-color:#000000;letter-spacing:normal;word-spacing:normal;text-transform:none;writing-mode:lr-tb;direction:ltr;baseline-shift:baseline;text-anchor:start;white-space:normal;clip-rule:nonzero;display:inline;overflow:visible;visibility:visible;isolation:auto;mix-blend-mode:normal;color-interpolation:sRGB;color-interpolation-filters:linearRGB;solid-color:#000000;solid-opacity:1;fill:url(#linearGradient4208);fill-opacity:1;fill-rule:nonzero;stroke:#000000;stroke-width:1;stroke-linecap:butt;stroke-linejoin:miter;stroke-miterlimit:4;stroke-dasharray:none;stroke-dashoffset:0;stroke-opacity:0.301961;color-rendering:auto;image-rendering:auto;shape-rendering:auto;text-rendering:auto;enable-background:accumulate"
       d="m 1.5,6.5 v 13 h 19 v -13 z"
       id="rect4198"
       transform="translate(1,-7)" />
    <path
       d="M 3.5,0.49999788 V 11.5 h 17 V 0.49999788 Z"
       id="path3309-8"
       style="color:#000000;display:inline;overflow:visible;visibility:visible;opacity:0.5;fill:none;stroke:url(#linearGradient4440-9-5-3);stroke-width:1;stroke-linecap:round;stroke-linejoin:miter;stroke-miterlimit:4;stroke-dasharray:none;stroke-dashoffset:0;stroke-opacity:1;marker:none;enable-background:accumulate" />
    <path
       d="M 22,-1 V 13 H 2 V -1 Z"
       id="path6127-36-9"
       style="display:inline;opacity:0.4;fill:url(#linearGradient4436-4-4-6);fill-opacity:1;stroke:none" />
  </g>
  <path
     style="color:#000000;display:inline;overflow:visible;visibility:visible;opacity:0.3;fill:#ffffff;fill-opacity:1;fill-rule:nonzero;stroke:none;stroke-width:1.7;marker:none;enable-background:accumulate"
     id="path3575-5-8-4-7-0-8-5"
     d="m 10.499998,10 c -0.1385,0 -0.25,0.1115 -0.25,0.25 v 0.84375 c -0.27435,0.0704 -0.5275,0.188 -0.76565,0.32812 L 8.874998,10.8125 c -0.098,-0.0979 -0.2458,-0.0979 -0.34375,0 l -0.71875,0.71875 c -0.098,0.0979 -0.098,0.24581 0,0.34375 l 0.60935,0.60937 c -0.1401,0.23812 -0.25775,0.49131 -0.3281,0.76563 h -0.84375 c -0.1385,0 -0.25,0.1115 -0.25,0.25 v 1 c 0,0.1385 0.1115,0.25 0.25,0.25 h 0.84375 c 0.0703,0.27432 0.188,0.52751 0.3281,0.76562 L 7.812498,16.125 c -0.098,0.0979 -0.098,0.24581 0,0.34375 l 0.71875,0.71875 c 0.0979,0.0979 0.2458,0.0979 0.34375,0 l 0.60935,-0.60938 c 0.23815,0.14012 0.4913,0.25776 0.76565,0.32813 V 17.75 c 0,0.1385 0.1115,0.25 0.25,0.25 h 1 c 0.1385,0 0.25,-0.1115 0.25,-0.25 v -0.84375 c 0.2743,-0.0704 0.5275,-0.18801 0.7656,-0.32813 l 0.6094,0.60938 c 0.0979,0.0979 0.2458,0.0979 0.34375,0 l 0.71875,-0.71875 c 0.0979,-0.0979 0.0979,-0.24582 0,-0.34375 l -0.6094,-0.60938 c 0.14015,-0.23811 0.25775,-0.4913 0.32815,-0.76562 h 0.84375 c 0.1385,0 0.25,-0.1115 0.25,-0.25 v -1 c 0,-0.1385 -0.1115,-0.25 -0.25,-0.25 h -0.84375 c -0.0704,-0.27432 -0.188,-0.52751 -0.32815,-0.76563 l 0.6094,-0.60937 c 0.0979,-0.0979 0.0979,-0.24582 0,-0.34375 l -0.71875,-0.71875 c -0.098,-0.0979 -0.2458,-0.0979 -0.34375,0 l -0.6094,0.60937 c -0.2381,-0.14012 -0.4913,-0.25775 -0.7656,-0.32812 V 10.25 c 0,-0.1385 -0.1115,-0.25 -0.25,-0.25 z m 0.5,2.5 c 0.8284,0 1.5,0.67157 1.5,1.5 0,0.82842 -0.6716,1.5 -1.5,1.5 -0.82845,0 -1.5,-0.67158 -1.5,-1.5 0,-0.82843 0.67155,-1.5 1.5,-1.5 z" />
  <path
     style="color:#000000;display:inline;overflow:visible;visibility:visible;fill:#382a72;fill-opacity:0.552163;fill-rule:nonzero;stroke:none;stroke-width:1.7;marker:none;enable-background:accumulate"
     id="path3575-5-8-4-7-0-1"
     d="m 10.499998,9 c -0.1385,0 -0.25,0.1115 -0.25,0.25 v 0.84375 c -0.27435,0.0704 -0.5275,0.188 -0.76565,0.32812 L 8.874998,9.8125 c -0.098,-0.0979 -0.2458,-0.0979 -0.34375,0 l -0.71875,0.71875 c -0.098,0.0979 -0.098,0.24581 0,0.34375 l 0.60935,0.60937 c -0.1401,0.23812 -0.25775,0.49131 -0.3281,0.76563 h -0.84375 c -0.1385,0 -0.25,0.1115 -0.25,0.25 v 1 c 0,0.1385 0.1115,0.25 0.25,0.25 h 0.84375 c 0.0703,0.27432 0.188,0.52751 0.3281,0.76562 L 7.812498,15.125 c -0.098,0.0979 -0.098,0.24581 0,0.34375 l 0.71875,0.71875 c 0.0979,0.0979 0.2458,0.0979 0.34375,0 l 0.60935,-0.60938 c 0.23815,0.14012 0.4913,0.25776 0.76565,0.32813 V 16.75 c 0,0.1385 0.1115,0.25 0.25,0.25 h 1 c 0.1385,0 0.25,-0.1115 0.25,-0.25 v -0.84375 c 0.2743,-0.0704 0.5275,-0.18801 0.7656,-0.32813 l 0.6094,0.60938 c 0.0979,0.0979 0.2458,0.0979 0.34375,0 l 0.71875,-0.71875 c 0.0979,-0.0979 0.0979,-0.24582 0,-0.34375 l -0.6094,-0.60938 c 0.14015,-0.23811 0.25775,-0.4913 0.32815,-0.76562 h 0.84375 c 0.1385,0 0.25,-0.1115 0.25,-0.25 v -1 c 0,-0.1385 -0.1115,-0.25 -0.25,-0.25 h -0.84375 c -0.0704,-0.27432 -0.188,-0.52751 -0.32815,-0.76563 l 0.6094,-0.60937 c 0.0979,-0.0979 0.0979,-0.24582 0,-0.34375 L 13.468748,9.8125 c -0.098,-0.0979 -0.2458,-0.0979 -0.34375,0 l -0.6094,0.60937 c -0.2381,-0.14012 -0.4913,-0.25775 -0.7656,-0.32812 V 9.25 c 0,-0.1385 -0.1115,-0.25 -0.25,-0.25 z m 0.5,2.5 c 0.8284,0 1.5,0.67157 1.5,1.5 0,0.82842 -0.6716,1.5 -1.5,1.5 -0.82845,0 -1.5,-0.67158 -1.5,-1.5 0,-0.82843 0.67155,-1.5 1.5,-1.5 z" />
</svg>
