<?xml version="1.0" encoding="UTF-8" standalone="no"?>
<svg
   width="22"
   height="22"
   id="svg12515"
   version="1.1"
   xmlns:xlink="http://www.w3.org/1999/xlink"
   xmlns="http://www.w3.org/2000/svg"
   xmlns:svg="http://www.w3.org/2000/svg"
   xmlns:rdf="http://www.w3.org/1999/02/22-rdf-syntax-ns#"
   xmlns:cc="http://creativecommons.org/ns#"
   xmlns:dc="http://purl.org/dc/elements/1.1/">
  <defs
     id="defs12517">
    <linearGradient
       id="linearGradient5888">
      <stop
         id="stop5890"
         style="stop-color:#ffffff;stop-opacity:1"
         offset="0" />
      <stop
         id="stop5892"
         style="stop-color:#ffffff;stop-opacity:0.23529412"
         offset="0.07603955" />
      <stop
         id="stop5894"
         style="stop-color:#ffffff;stop-opacity:0.15686275"
         offset="0.99001008" />
      <stop
         id="stop5897"
         style="stop-color:#ffffff;stop-opacity:0.39215687"
         offset="1" />
    </linearGradient>
    <linearGradient
       xlink:href="#linearGradient931"
       id="linearGradient1207"
       gradientUnits="userSpaceOnUse"
       x1="16.24754"
       y1="10.538613"
       x2="16.24754"
       y2="7.3948045"
       gradientTransform="translate(3.960441,9.0668776)" />
    <linearGradient
       id="linearGradient931">
      <stop
         style="stop-color:#feffff;stop-opacity:1;"
         offset="0"
         id="stop927" />
      <stop
         style="stop-color:#feffff;stop-opacity:0.5"
         offset="1"
         id="stop929" />
    </linearGradient>
    <linearGradient
       xlink:href="#linearGradient931"
       id="linearGradient933"
       x1="16.24754"
       y1="10.538613"
       x2="16.24754"
       y2="7.3948045"
       gradientUnits="userSpaceOnUse"
       gradientTransform="translate(15.002263,6.0557715)" />
    <linearGradient
       xlink:href="#linearGradient2867-449-88-871-390-598-476-591-434-148-57-177-3-8-4-3"
       id="linearGradient12845"
       gradientUnits="userSpaceOnUse"
       x1="4.9539289"
       y1="9.2200394"
       x2="4.9539289"
       y2="15.819139"
       gradientTransform="translate(26.044085,3.0446658)" />
    <linearGradient
       id="linearGradient2867-449-88-871-390-598-476-591-434-148-57-177-3-8-4-3">
      <stop
         id="stop3750-8-9-3-9"
         style="stop-color:#90dbec;stop-opacity:1"
         offset="0" />
      <stop
         id="stop3752-3-2-7-2"
         style="stop-color:#55c1ec;stop-opacity:1"
         offset="0.26238" />
      <stop
         id="stop3754-7-2-0-5"
         style="stop-color:#3689e6;stop-opacity:1"
         offset="0.704952" />
      <stop
         id="stop3756-9-3-1-0"
         style="stop-color:#2b63a0;stop-opacity:1"
         offset="1" />
    </linearGradient>
    <linearGradient
       xlink:href="#linearGradient2867-449-88-871-390-598-476-591-434-148-57-177-3-8-4-3"
       id="linearGradient939"
       x1="4.9539289"
       y1="9.2200394"
       x2="4.9539289"
       y2="15.819139"
       gradientUnits="userSpaceOnUse"
       gradientTransform="translate(15.002263,6.0557715)" />
    <linearGradient
       x1="184.98166"
       y1="282.71155"
       x2="185.27325"
       y2="283.76028"
       id="linearGradient5885-7"
       xlink:href="#linearGradient5888"
       gradientUnits="userSpaceOnUse"
       gradientTransform="translate(-155.04145,-281.00272)" />
  </defs>
  <metadata
     id="metadata12520">
    <rdf:RDF>
      <cc:Work
         rdf:about="">
        <dc:format>image/svg+xml</dc:format>
        <dc:type
           rdf:resource="http://purl.org/dc/dcmitype/StillImage" />
        <dc:title />
      </cc:Work>
    </rdf:RDF>
  </metadata>
  <g
     id="g1"
     transform="matrix(0.99407445,0,0,0.99407445,-15.840606,1.0576827)">
    <rect
       width="9.8978233"
       height="0.04550834"
       x="21.476393"
       y="9.3327742"
       transform="matrix(0.96643236,-0.25692119,0.26072891,0.96541206,0,0)"
       id="rect5543-1-1"
       style="color:#000000;display:inline;overflow:visible;visibility:visible;opacity:0.1;fill:none;stroke:#ffffff;stroke-width:1;stroke-linecap:butt;stroke-linejoin:round;stroke-miterlimit:4;stroke-dasharray:none;stroke-dashoffset:0;stroke-opacity:1;marker:none;enable-background:accumulate" />
    <path
       d="m 22.442888,17.214902 c 0.32638,1.29987 -0.72561,2.7301 -2.34967,3.19449 -1.62407,0.4644 -3.20521,-0.21288 -3.53158,-1.51275 -0.32638,-1.29987 0.7256,-2.73009 2.34967,-3.19449 1.62407,-0.4644 3.20521,0.21289 3.53158,1.51275 z m 11.01566,-2.21762 V 2.9972827 m -11,14.9999993 V 6.4958026 m 1,-4.4474199 c -0.55408,0.1544 -1,0.74422 -1,1.3217099 v 2.08479 1.0424 l 1.0001,-0.27892 9,-2.5138 1.00009,-0.27891 1e-5,-1.0423999 -1e-5,-2.08479 c 1e-5,-0.57749 -0.446,-0.91782 -0.99999,-0.76309 l -9,2.5138 z m 9.94063,12.1080293 c 0.32637,1.29987 -0.72561,2.73009 -2.34968,3.19449 -1.62406,0.4644 -3.2052,-0.21289 -3.53158,-1.51276 -0.32637,-1.29986 0.72561,-2.73009 2.34967,-3.19449 1.62407,-0.4644 3.20521,0.21289 3.53159,1.51276 z"
       id="path5025-0"
       style="color:#000000;display:inline;overflow:visible;visibility:visible;fill:#53bdec;fill-opacity:1;fill-rule:nonzero;stroke:#3c82af;stroke-width:1;stroke-linecap:butt;stroke-linejoin:miter;stroke-miterlimit:4;stroke-dashoffset:0;stroke-opacity:1;marker:none;enable-background:accumulate" />
    <path
       d="m 23.458538,3.1021627 9.00001,-2.60487 v 2.1619 l -9.00001,2.5084899 z"
       id="rect5876-4"
       style="color:#000000;display:inline;overflow:visible;visibility:visible;opacity:0.2;fill:none;stroke:url(#linearGradient5885-7);stroke-width:1;stroke-linecap:butt;stroke-linejoin:round;stroke-miterlimit:4;stroke-dasharray:none;stroke-dashoffset:0;stroke-opacity:1;marker:none;enable-background:accumulate" />
    <path
       d="m 21.857586,18.488513 a 1.9750092,2.5197909 78.380078 1 1 -4.75381,-0.86644 1.9750092,2.5197909 78.380078 0 1 4.75381,0.86644 z"
       id="path2937-9-5-9"
       style="fill:url(#linearGradient939);fill-opacity:1;stroke:none" />
    <path
       d="m 32.899408,15.477407 a 1.9750092,2.5197909 78.380078 1 1 -4.75381,-0.86644 1.9750092,2.5197909 78.380078 0 1 4.75381,0.86644 z"
       id="path2937-9-5-9-3"
       style="fill:url(#linearGradient12845);fill-opacity:1;stroke:none" />
    <path
       d="m 32.506189,15.489925 a 1.6475237,2.1023026 78.388153 1 1 -3.966208,-0.722767 1.6475237,2.1023026 78.388153 0 1 3.966208,0.722767 z"
       id="path1135-5"
       style="opacity:0.3;fill:none;fill-opacity:1;stroke:url(#linearGradient933);stroke-width:0.834252;stroke-opacity:1" />
    <path
       d="m 21.464367,18.501031 a 1.6475237,2.1023026 78.388153 1 1 -3.966208,-0.722767 1.6475237,2.1023026 78.388153 0 1 3.966208,0.722767 z"
       id="path1205"
       style="opacity:0.3;fill:none;fill-opacity:1;stroke:url(#linearGradient1207);stroke-width:0.834252;stroke-opacity:1" />
  </g>
</svg>
