<?xml version="1.0" encoding="UTF-8" standalone="no"?>
<svg
   width="22"
   height="22"
   id="svg12303"
   version="1.1"
   xmlns:xlink="http://www.w3.org/1999/xlink"
   xmlns="http://www.w3.org/2000/svg"
   xmlns:svg="http://www.w3.org/2000/svg"
   xmlns:rdf="http://www.w3.org/1999/02/22-rdf-syntax-ns#"
   xmlns:cc="http://creativecommons.org/ns#"
   xmlns:dc="http://purl.org/dc/elements/1.1/">
  <defs
     id="defs12305">
    <linearGradient
       id="linearGradient4011-2">
      <stop
         offset="0"
         style="stop-color:#ffffff;stop-opacity:1"
         id="stop4013-7" />
      <stop
         offset="0.507761"
         style="stop-color:#ffffff;stop-opacity:0.23529412"
         id="stop4015-9" />
      <stop
         offset="0.83456558"
         style="stop-color:#ffffff;stop-opacity:0.15686275"
         id="stop4017-5" />
      <stop
         offset="1"
         style="stop-color:#ffffff;stop-opacity:0.39215687"
         id="stop4019-6" />
    </linearGradient>
    <linearGradient
       gradientTransform="matrix(0.48499595,0,0,0.48499595,-23.813003,-1.2266395)"
       gradientUnits="userSpaceOnUse"
       xlink:href="#linearGradient4011-2"
       id="linearGradient12398-3"
       y2="44.340794"
       x2="71.204407"
       y1="6.2375584"
       x1="71.204407" />
    <linearGradient
       gradientTransform="matrix(0.76009607,0,0,0.56824487,-1538.7209,-1821.2681)"
       gradientUnits="userSpaceOnUse"
       xlink:href="#linearGradient27416-1-5"
       id="linearGradient11527-6-5"
       y2="3241.9966"
       x2="2035.1652"
       y1="3208.0737"
       x1="2035.1652" />
    <linearGradient
       id="linearGradient27416-1-5">
      <stop
         offset="0"
         style="stop-color:#9bdb4d;stop-opacity:1"
         id="stop27420-2-2" />
      <stop
         offset="1"
         style="stop-color:#68b723;stop-opacity:1"
         id="stop27422-3-2" />
    </linearGradient>
  </defs>
  <metadata
     id="metadata12308">
    <rdf:RDF>
      <cc:Work
         rdf:about="">
        <dc:format>image/svg+xml</dc:format>
        <dc:type
           rdf:resource="http://purl.org/dc/dcmitype/StillImage" />
        <dc:title />
      </cc:Work>
    </rdf:RDF>
  </metadata>
  <path
     style="color:#000000;display:inline;overflow:visible;visibility:visible;opacity:0.99;fill:url(#linearGradient11527-6-5);fill-opacity:1;fill-rule:nonzero;stroke:none;stroke-width:0.944466;marker:none;enable-background:accumulate"
     id="path2555-7-8-5-0-9"
     d="m 10.977471,1.1546232 c -5.471799,0 -9.9168905,4.4450906 -9.9168905,9.9168898 0,5.471801 4.4450915,9.916892 9.9168905,9.916892 5.471801,0 9.916902,-4.445091 9.916892,-9.916892 0,-5.4717992 -4.445091,-9.9168898 -9.916892,-9.9168898 z" />
  <path
     id="path873-5-6"
     style="font-variation-settings:normal;opacity:0.07;vector-effect:none;fill:#206b00;fill-opacity:1;stroke:none;stroke-width:0.944466;stroke-linecap:butt;stroke-linejoin:miter;stroke-miterlimit:4;stroke-dasharray:none;stroke-dashoffset:0;stroke-opacity:1;-inkscape-stroke:none;marker:none;stop-color:#000000"
     d="m 10.741356,5.4047194 c -0.9219001,0 -1.6573597,0.7857565 -1.6565049,1.6841744 V 11.067825 H 6.9634924 c -0.9219021,0 -1.6565048,0.786838 -1.6565048,1.684174 0,0.484005 0.2064461,0.936151 0.5441757,1.24699 l -0.04427,-0.04243 3.9899984,4.183688 a 0.94824991,0.94824991 0 0 0 0.022135,0.02213 c 0.2897193,0.283751 0.7032333,0.472234 1.1492223,0.472233 0.445967,1e-6 0.85949,-0.188456 1.149223,-0.472233 a 0.94824991,0.94824991 0 0 0 0.02029,-0.02029 l 4.008446,-4.183688 -0.04243,0.04058 c 0.337759,-0.310851 0.544175,-0.763008 0.544175,-1.24699 0,-0.897333 -0.734604,-1.684174 -1.656504,-1.684174 H 12.870093 V 7.0888938 c 0,-0.8973324 -0.734605,-1.6841744 -1.656505,-1.6841744 z" />
  <path
     style="color:#000000;display:inline;overflow:visible;visibility:visible;opacity:0.5;fill:none;stroke:#206b00;stroke-width:0.944466;stroke-linecap:round;stroke-linejoin:round;stroke-miterlimit:4;stroke-dasharray:none;stroke-dashoffset:0;stroke-opacity:1;marker:none;enable-background:accumulate"
     id="path2555-7-8-5-1"
     d="m 10.977471,1.1546232 c -5.471799,0 -9.9168905,4.4450906 -9.9168905,9.9168898 0,5.471801 4.4450915,9.916892 9.9168905,9.916892 5.471801,0 9.916902,-4.445091 9.916892,-9.916892 0,-5.4717992 -4.445091,-9.9168898 -9.916892,-9.9168898 z" />
  <path
     style="color:#000000;display:inline;overflow:visible;visibility:visible;opacity:0.5;fill:none;stroke:url(#linearGradient12398-3);stroke-width:0.944466;stroke-linecap:round;stroke-linejoin:round;stroke-miterlimit:4;stroke-dasharray:none;stroke-dashoffset:0;stroke-opacity:1;marker:none;enable-background:accumulate"
     id="path8655-6-0-9-5-0"
     d="m 19.949887,11.071193 c 0,4.955498 -4.017389,8.972746 -8.972311,8.972746 -4.955376,0 -8.9725296,-4.017295 -8.9725296,-8.972746 0,-4.9552625 4.0171536,-8.972104 8.9725296,-8.972104 4.954922,0 8.972311,4.0168415 8.972311,8.972104 z" />
  <path
     id="path873-5-3"
     style="font-variation-settings:normal;opacity:0.2;vector-effect:none;fill:#206b00;fill-opacity:1;stroke:none;stroke-width:0.944466;stroke-linecap:butt;stroke-linejoin:miter;stroke-miterlimit:4;stroke-dasharray:none;stroke-dashoffset:0;stroke-opacity:1;-inkscape-stroke:none;marker:none;stop-color:#000000"
     d="m 15.699801,12.746933 c 0,-0.40727 -0.316061,-0.735145 -0.70866,-0.735145 H 6.9638006 c -0.392596,0 -0.7086573,0.327875 -0.7086573,0.735145 0,0.219503 0.091954,0.415447 0.2380637,0.549925 l 3.989221,4.184899 c 0.126915,0.124302 0.297499,0.201018 0.485819,0.201018 0.188319,0 0.358901,-0.07671 0.485818,-0.201018 l 4.007671,-4.184899 c 0.146119,-0.134478 0.238065,-0.330422 0.238065,-0.549925 z" />
  <path
     id="path873-5"
     style="font-variation-settings:normal;vector-effect:none;fill:#ffffff;fill-opacity:1;stroke:none;stroke-width:0.944466;stroke-linecap:butt;stroke-linejoin:miter;stroke-miterlimit:4;stroke-dasharray:none;stroke-dashoffset:0;stroke-opacity:1;-inkscape-stroke:none;marker:none;stop-color:#000000"
     d="m 15.699801,11.80666 c 0,-0.407271 -0.316061,-0.735147 -0.70866,-0.735147 H 11.921937 V 6.1440577 c 0,-0.4072717 -0.316061,-0.7351458 -0.708658,-0.7351458 h -0.471614 c -0.392597,0 -0.709046,0.3278741 -0.708658,0.7351458 V 11.071513 H 6.9638006 c -0.392596,0 -0.7086573,0.327876 -0.7086573,0.735147 0,0.219503 0.091954,0.415447 0.2380637,0.549925 l 3.989221,4.184899 c 0.126915,0.124301 0.297499,0.201017 0.485819,0.201017 0.188319,0 0.358901,-0.07671 0.485818,-0.201017 l 4.007671,-4.184899 c 0.146119,-0.134478 0.238065,-0.330422 0.238065,-0.549925 z" />
</svg>
