<?xml version="1.0" encoding="UTF-8" standalone="no"?>
<svg
   version="1.1"
   width="16"
   height="16"
   id="svg3792"
   xmlns:xlink="http://www.w3.org/1999/xlink"
   xmlns="http://www.w3.org/2000/svg"
   xmlns:svg="http://www.w3.org/2000/svg"
   xmlns:rdf="http://www.w3.org/1999/02/22-rdf-syntax-ns#"
   xmlns:cc="http://creativecommons.org/ns#"
   xmlns:dc="http://purl.org/dc/elements/1.1/">
  <defs
     id="defs3794">
    <linearGradient
       id="linearGradient2867-449-88-871-390-598-476-591-434-148-57-177-641-289-620-227-114-444-680-744-4">
      <stop
         id="stop5430-5"
         style="stop-color:#737373;stop-opacity:1"
         offset="0" />
      <stop
         id="stop5432-2"
         style="stop-color:#636363;stop-opacity:1"
         offset="0.26238" />
      <stop
         id="stop5434-9"
         style="stop-color:#4b4b4b;stop-opacity:1"
         offset="0.63125217" />
      <stop
         id="stop5436-2"
         style="stop-color:#3f3f3f;stop-opacity:1"
         offset="1" />
    </linearGradient>
    <radialGradient
       xlink:href="#linearGradient2867-449-88-871-390-598-476-591-434-148-57-177-641-289-620-227-114-444-680-744-4"
       id="radialGradient3015"
       gradientUnits="userSpaceOnUse"
       gradientTransform="matrix(-2.9268386e-4,0.95104875,-1.0163504,-3.1278034e-4,-11.305004,-19.294895)"
       cx="22.380226"
       cy="-18.999319"
       fx="22.380226"
       fy="-18.999319"
       r="19.99999" />
  </defs>
  <metadata
     id="metadata3797">
    <rdf:RDF>
      <cc:Work
         rdf:about="">
        <dc:format>image/svg+xml</dc:format>
        <dc:type
           rdf:resource="http://purl.org/dc/dcmitype/StillImage" />
      </cc:Work>
    </rdf:RDF>
  </metadata>
  <path
     style="color:#000000;display:inline;overflow:visible;visibility:visible;fill:url(#radialGradient3015);fill-opacity:1;fill-rule:nonzero;stroke:none;stroke-width:1;marker:none;enable-background:accumulate"
     id="path3797"
     d="M 2.2624967,2.0003424 C 2.1084082,2.0348998 1.9916965,2.1831028 2.0000065,2.3336575 V 13.666342 c -0.00484,0.17574 0.1654561,0.337923 0.349987,0.333316 h 4.300013 c 0.1845309,0.0046 0.354826,-0.157575 0.349987,-0.333316 V 2.3336575 C 7.0048235,2.157917 6.8345374,1.9957342 6.6500065,2.0003424 h -4.300013 c -0.014563,-8.932e-4 -0.029185,-8.932e-4 -0.043748,0 -0.014563,-8.932e-4 -0.029185,-8.932e-4 -0.043749,0 z m 6.9999998,0 c -0.154088,0.034557 -0.2708,0.1827604 -0.26249,0.3333151 V 13.666342 c -0.0048,0.17574 0.165456,0.337923 0.349987,0.333316 h 4.3000135 c 0.18453,0.0046 0.354825,-0.157575 0.349987,-0.333316 V 2.3336575 C 14.004793,2.157917 13.834536,1.9957342 13.650006,2.0003424 H 9.3499935 c -0.01456,-8.932e-4 -0.02919,-8.932e-4 -0.04375,0 -0.01456,-8.932e-4 -0.02919,-8.932e-4 -0.043747,0 z" />
  <path
     style="color:#000000;display:inline;overflow:visible;visibility:visible;opacity:0.1;fill:none;stroke:#000000;stroke-width:1.00365;stroke-linecap:round;stroke-linejoin:round;stroke-miterlimit:4;stroke-dasharray:none;stroke-dashoffset:0;stroke-opacity:1;marker:none;enable-background:accumulate"
     id="path2645"
     d="m 2.5,2.5 v 11 h 4 v -11 z m 7,0 v 11 h 4 v -11 z" />
  <path
     style="display:inline;overflow:visible;visibility:visible;opacity:0.03;fill:none;stroke:#000000;stroke-width:0.994277;stroke-linecap:round;stroke-linejoin:miter;stroke-miterlimit:4;stroke-dasharray:none;stroke-dashoffset:0;stroke-opacity:1;marker:none"
     id="path2647"
     d="m 10.5,3.5 v 9 h 2 v -9 z m -7,0 v 9 h 2 v -9 z" />
</svg>
