<?xml version="1.0" encoding="UTF-8" standalone="no"?>
<svg
   height="22"
   width="22"
   id="svg2"
   version="1.1"
   xmlns="http://www.w3.org/2000/svg"
   xmlns:svg="http://www.w3.org/2000/svg"
   xmlns:rdf="http://www.w3.org/1999/02/22-rdf-syntax-ns#"
   xmlns:cc="http://creativecommons.org/ns#"
   xmlns:dc="http://purl.org/dc/elements/1.1/">
  <metadata
     id="metadata14">
    <rdf:RDF>
      <cc:Work
         rdf:about="">
        <dc:format>image/svg+xml</dc:format>
        <dc:type
           rdf:resource="http://purl.org/dc/dcmitype/StillImage" />
      </cc:Work>
    </rdf:RDF>
  </metadata>
  <defs
     id="defs12" />
  <path
     style="color:#000000;display:inline;overflow:visible;visibility:visible;fill:#95a3ab;fill-opacity:0.45098;fill-rule:nonzero;stroke:none;stroke-width:1;marker:none;enable-background:accumulate"
     id="path3102"
     d="m 11.000304,13.779279 c -1.039248,0 -2.0675718,0.544607 -2.4911306,1.012255 l 2.4908256,2.708896 2.515614,-2.684717 c -0.423558,-0.491827 -1.476061,-1.036434 -2.515309,-1.036434 z" />
  <path
     style="color:#000000;display:inline;overflow:visible;visibility:visible;fill:#95a3ab;fill-opacity:0.45098;fill-rule:nonzero;stroke:none;stroke-width:1;marker:none;enable-background:accumulate"
     id="path3100"
     d="m 11.000304,9.07565 c -2.1729448,0 -4.1205278,0.866033 -5.7207129,2.188547 L 6.8371133,12.9266 c 1.065807,-0.763366 2.7243647,-1.499135 4.1003077,-1.499135 1.409227,0 3.14676,0.752386 4.227689,1.549926 l 1.604685,-1.737584 C 15.16961,9.917294 13.173249,9.07565 11.000304,9.07565 Z" />
  <path
     style="color:#000000;display:inline;overflow:visible;visibility:visible;fill:#95a3ab;fill-opacity:0.45098;fill-rule:nonzero;stroke:none;stroke-width:1;marker:none;enable-background:accumulate"
     id="path4112"
     d="m 11.000304,4.372023 c -3.3553595,0 -6.430238,1.2891941 -8.819304,3.4369141 L 3.7048779,9.525013 C 5.8352877,7.6571451 8.0765016,6.7238358 11.000304,6.7238358 c 2.923803,0 5.09683,0.8789894 7.329265,2.8389762 L 19.819608,7.8089371 C 17.430542,5.6612171 14.355662,4.372023 11.000304,4.372023 Z" />
</svg>
