<?xml version="1.0" encoding="UTF-8" standalone="no"?>
<svg
   height="16"
   width="16"
   id="svg2"
   version="1.1"
   xmlns="http://www.w3.org/2000/svg"
   xmlns:svg="http://www.w3.org/2000/svg"
   xmlns:rdf="http://www.w3.org/1999/02/22-rdf-syntax-ns#"
   xmlns:cc="http://creativecommons.org/ns#"
   xmlns:dc="http://purl.org/dc/elements/1.1/">
  <metadata
     id="metadata12">
    <rdf:RDF>
      <cc:Work
         rdf:about="">
        <dc:format>image/svg+xml</dc:format>
        <dc:type
           rdf:resource="http://purl.org/dc/dcmitype/StillImage" />
      </cc:Work>
    </rdf:RDF>
  </metadata>
  <defs
     id="defs10" />
  <path
     id="path2"
     style="display:inline;fill:#666666;fill-opacity:1;marker:none"
     d="M 2.5,1 C 1.678,1 1,1.678 1,2.5 v 11 C 1,14.322 1.678,15 2.5,15 h 11 C 14.323,15 15,14.322 15,13.5 V 2.5 C 15,1.678 14.323,1 13.5,1 Z m 4.7012,3.00195 h 1.5996 v 1.1875 l 0.1758,0.0625 c 0.082,0.0299 0.1764,0.075 0.2754,0.12305 l 0.1699,0.082 0.8554,-0.83203 1.1016,1.11914 -0.834,0.83594 0.082,0.16992 c 0.045,0.0889 0.084,0.18024 0.1191,0.27344 l 0.062,0.17773 h 1.1875 V 8.7988 H 10.808 l -0.062,0.17773 c -0.028,0.082 -0.071,0.17344 -0.1191,0.27344 l -0.082,0.16992 0.834,0.85547 -1.123,1.09961 -0.8321,-0.83203 -0.1718,0.082 c -0.1,0.048 -0.1915,0.0931 -0.2735,0.12305 l -0.1777,0.0625 v 1.1875 H 7.1992 v -1.1875 L 7.0254,10.74799 C 6.9424,10.71809 6.848,10.67199 6.748,10.62494 L 6.5801,10.54294 5.7246,11.37497 4.625,10.25583 5.457,9.41989 5.373,9.24997 C 5.325,9.14997 5.283,9.05653 5.2539,8.97653 L 5.1899,8.7988 H 3.9984 V 7.20114 H 5.1899 L 5.2539,7.02341 C 5.2899,6.93031 5.3299,6.83907 5.375,6.74997 L 5.457,6.58005 4.623,5.72458 5.748,4.62497 6.582,5.457 6.75,5.375 C 6.85,5.327 6.9434,5.2819 7.0254,5.25195 L 7.2012,5.18945 Z M 8.002,6.66797 C 7.269,6.66797 6.668,7.267 6.668,8 6.668,8.732 7.269,9.33203 8.002,9.33203 8.735,9.33203 9.334,8.733 9.334,8 9.334,7.268 8.735,6.66797 8.002,6.66797 Z" />
</svg>
