<?xml version="1.0" encoding="UTF-8" standalone="no"?>
<svg
   height="16"
   width="16"
   id="svg2"
   version="1.1"
   xmlns="http://www.w3.org/2000/svg"
   xmlns:svg="http://www.w3.org/2000/svg"
   xmlns:rdf="http://www.w3.org/1999/02/22-rdf-syntax-ns#"
   xmlns:cc="http://creativecommons.org/ns#"
   xmlns:dc="http://purl.org/dc/elements/1.1/">
  <metadata
     id="metadata12">
    <rdf:RDF>
      <cc:Work
         rdf:about="">
        <dc:format>image/svg+xml</dc:format>
        <dc:type
           rdf:resource="http://purl.org/dc/dcmitype/StillImage" />
      </cc:Work>
    </rdf:RDF>
  </metadata>
  <defs
     id="defs10" />
  <g
     color="#bebebe"
     transform="translate(-1033,267)"
     id="g4">
    <path
       d="m 1046.37,-267 -7.376,1.906 c -0.554,0.149 -1,0.74 -1,1.313 v 9.094 c -0.626,-0.32246 -1.3495,-0.40087 -2.03,-0.22 -1.35,0.351 -2.196,1.485 -1.907,2.532 0.29,1.047 1.619,1.626 2.969,1.275 1.076,-0.28 1.819,-1.065 1.937,-1.9 l 0.031,-8.594 7,-1.875 v 6.781 c -0.6265,-0.32204 -1.3504,-0.39974 -2.031,-0.218 -1.35,0.35 -2.196,1.484 -1.906,2.531 0.289,1.047 1.619,1.632 2.968,1.281 1.077,-0.28 1.82,-1.071 1.938,-1.906 l 0.03,-11.188 c 0,-0.43 -0.265,-0.751 -0.624,-0.812 z"
       fill="#666666"
       overflow="visible"
       style="marker:none"
       id="path6" />
  </g>
</svg>
