<?xml version="1.0" encoding="UTF-8" standalone="no"?>
<svg
   height="16"
   width="16"
   id="svg2"
   version="1.1"
   xmlns="http://www.w3.org/2000/svg"
   xmlns:svg="http://www.w3.org/2000/svg"
   xmlns:rdf="http://www.w3.org/1999/02/22-rdf-syntax-ns#"
   xmlns:cc="http://creativecommons.org/ns#"
   xmlns:dc="http://purl.org/dc/elements/1.1/">
  <metadata
     id="metadata10">
    <rdf:RDF>
      <cc:Work
         rdf:about="">
        <dc:format>image/svg+xml</dc:format>
        <dc:type
           rdf:resource="http://purl.org/dc/dcmitype/StillImage" />
      </cc:Work>
    </rdf:RDF>
  </metadata>
  <defs
     id="defs8" />
  <path
     color="#000000"
     d="m 0,2 v 1 h 1 v 8.035 C 1,11.581 1.455,12 2,12 h 5 v 1.205146 l -2.72,1.844 c -0.26,0.125 -0.352,0.513 -0.188,0.75 0.164,0.236 0.541,0.26 0.75,0.062 l 2.658,-1.812 2.658,1.812 c 0.209,0.198 0.587,0.174 0.75,-0.062 0.164,-0.237 0.071,-0.625 -0.187,-0.75 L 8,13.205146 V 12 h 5 c 0.545,0 1,-0.419 1,-0.965 V 3 h 1 V 2 Z m 2,1 h 11 v 7.5 C 13,11 12.5,11 12.5,11 H 2.5 C 2,11 2,10.5 2,10.5 Z M 5,5 C 3.2180664,5 2.3259937,7.1542771 3.5858583,8.4141417 4.8457229,9.6740063 7,8.7819336 7,7 H 5 Z m 3,0 v 1 h 4 V 5 Z m 0,2 v 1 h 3 V 7 Z"
     fill="#666666"
     font-family="sans-serif"
     font-weight="400"
     overflow="visible"
     style="line-height:normal;font-variant-ligatures:normal;font-variant-position:normal;font-variant-caps:normal;font-variant-numeric:normal;font-variant-alternates:normal;font-feature-settings:normal;text-indent:0;text-align:start;text-decoration-line:none;text-decoration-style:solid;text-decoration-color:#000000;text-transform:none;text-orientation:mixed;shape-padding:0;isolation:auto;mix-blend-mode:normal"
     white-space="normal"
     id="path4" />
</svg>
