<?xml version="1.0" encoding="UTF-8" standalone="no"?>
<svg
   height="16"
   width="16"
   version="1.1"
   id="svg6"
   xmlns="http://www.w3.org/2000/svg"
   xmlns:svg="http://www.w3.org/2000/svg"
   xmlns:rdf="http://www.w3.org/1999/02/22-rdf-syntax-ns#"
   xmlns:cc="http://creativecommons.org/ns#"
   xmlns:dc="http://purl.org/dc/elements/1.1/">
  <metadata
     id="metadata12">
    <rdf:RDF>
      <cc:Work
         rdf:about="">
        <dc:format>image/svg+xml</dc:format>
        <dc:type
           rdf:resource="http://purl.org/dc/dcmitype/StillImage" />
      </cc:Work>
    </rdf:RDF>
  </metadata>
  <defs
     id="defs10" />
  <g
     color="#000000"
     transform="translate(-673,23)"
     id="g4"
     style="fill:#666666;fill-opacity:1">
    <path
       id="path2"
       style="isolation:auto;mix-blend-mode:normal;fill:#666666;marker:none;fill-opacity:1"
       d="M 3,1 C 2.446,1 2,1.446 2,2 v 12 c 0,0.554 0.446,1 1,1 h 6 v -1 l -5,3.4e-5 V 2 h 8.5 C 12.777,2 13,2.223 13,2.5 V 9 h 1 V 2 C 14,1.446 13.554,1 13,1 Z M 8.4511719,4.5 C 7.3657169,4.5265082 6.4996764,5.4142215 6.5,6.5 c 0,1.1045695 0.8954305,2 2,2 1.1045695,0 2,-0.8954305 2,-2 0,-1.1045695 -0.8954305,-2 -2,-2 -0.016275,-1.987e-4 -0.032553,-1.987e-4 -0.048828,0 z M 12,10.000001 v 2 H 10 V 14 h 2 v 2 h 2 v -2 h 2 v -2.000001 h -2 v -2 z"
       transform="translate(673,-23)" />
    <path
       id="rect456"
       style="fill:#666666;fill-opacity:1;fill-rule:evenodd;stroke:none;stroke-width:2;stroke-linecap:round;stroke-linejoin:round;paint-order:markers fill stroke;stop-color:#000000"
       d="M 680.5 -14 C 679.669 -14 679 -13.330999 679 -12.5 C 679 -11.669001 679.669 -11 680.5 -11 L 682 -11 A 1.0001 1.0001 0 0 1 683 -12 L 683.91602 -12 C 683.97079 -12.156114 684 -12.324711 684 -12.5 C 684 -13.330999 683.331 -14 682.5 -14 L 680.5 -14 z " />
  </g>
</svg>
