<?xml version="1.0" encoding="UTF-8" standalone="no"?>
<svg
   height="16"
   width="16"
   version="1.1"
   id="svg11"
   xmlns="http://www.w3.org/2000/svg"
   xmlns:svg="http://www.w3.org/2000/svg">
  <defs
     id="defs15" />
  <path
     color="#bebebe"
     d="M 2,14 V 2 C 2,1 3,1 3,1 h 10 c 0,0 1,0 1,1 v 12 c 0,1 -1,1 -1,1 H 3 C 3,15 2,15 2,14 Z M 3,13.5 C 3,14 3.5,14 3.5,14 h 9 c 0,0 0.5,0 0.5,-0.5 V 2.5 C 13,2 12.5,2 12.5,2 h -9 C 3,2 3,2.5 3,2.5 Z"
     fill="#666666"
     overflow="visible"
     style="marker:none"
     id="path6" />
  <path
     color="#000000"
     d="M 7.406,4 C 7.1707,4.0517137 7.002306,4.2590951 7,4.5 V 8 H 5.467774 c -0.369,0.011 -0.606,0.524 -0.375,0.813 l 2.532226,3 c 0.205126,0.211835 0.544874,0.211835 0.75,0 l 2.536688,-3 c 0.231,-0.289 -0.006,-0.802 -0.375,-0.813 H 9 V 4.5 C 8.989734,4.2282237 8.771776,4.0102665 8.5,4 Z"
     fill="#666666"
     font-family="Sans"
     font-weight="400"
     overflow="visible"
     style="line-height:normal;-inkscape-font-specification:Sans;text-indent:0;text-align:start;text-decoration-line:none;text-transform:none;marker:none"
     id="path8" />
</svg>
