<?xml version="1.0" encoding="UTF-8" standalone="no"?>
<svg
   height="16"
   width="16"
   version="1.1"
   id="svg2"
   xmlns="http://www.w3.org/2000/svg"
   xmlns:svg="http://www.w3.org/2000/svg">
  <defs
     id="defs2" />
  <g
     color="#bebebe"
     transform="translate(-273,-77)"
     id="g2">
    <path
       d="m 281.885,78 c -3.705,0 -6.754,2.44 -7.087,6 H 273 l 2.655,3.333 2.654,-3.333 h -1.733 c 0.328,-2.596 2.584,-4.26 5.31,-4.26 2.95,0 5.345,2.356 5.345,5.26 0,2.904 -2.395,5.26 -5.346,5.26 -1.6,0 -3.038,-0.694 -4.018,-1.793 l -1.3,1.185 A 7.145,7.145 0 0 0 281.885,92 c 3.928,0 7.115,-3.136 7.115,-7 0,-3.864 -3.187,-7 -7.115,-7 z"
       fill="#666666"
       overflow="visible"
       style="marker:none"
       id="path1" />
    <path
       d="m 282.334,80.667 h -0.667 L 281,85.333 284.334,88 v -0.667 l -2,-2.666 z"
       fill="#666666"
       overflow="visible"
       style="marker:none"
       id="path2" />
  </g>
</svg>
