<?xml version="1.0" encoding="UTF-8" standalone="no"?>
<svg
   height="16"
   width="16"
   id="svg2"
   version="1.1"
   xmlns="http://www.w3.org/2000/svg"
   xmlns:svg="http://www.w3.org/2000/svg"
   xmlns:rdf="http://www.w3.org/1999/02/22-rdf-syntax-ns#"
   xmlns:cc="http://creativecommons.org/ns#"
   xmlns:dc="http://purl.org/dc/elements/1.1/">
  <metadata
     id="metadata14">
    <rdf:RDF>
      <cc:Work
         rdf:about="">
        <dc:format>image/svg+xml</dc:format>
        <dc:type
           rdf:resource="http://purl.org/dc/dcmitype/StillImage" />
      </cc:Work>
    </rdf:RDF>
  </metadata>
  <defs
     id="defs12" />
  <path
     id="path3"
     style="display:inline;stroke-width:1;stroke-dasharray:none;fill:#666666;fill-opacity:1"
     d="M 3 1 C 3 1 2 1.000001 2 2 L 2 2.59375 L 3 3.5839844 L 3 2.5 C 3 2.5 3.0000005 2 3.5 2 L 12.5 2 C 12.5 2 13 2.0000005 13 2.5 L 13 13.5 C 13 13.999999 12.5 14 12.5 14 L 3.5 14 L 2 14 C 2.00029 14.999998 3 15 3 15 L 13 15 C 13 15 14 14.999999 14 14 L 14 2 C 14 1.000001 13 1 13 1 L 3 1 z M 1 3 L 1 13 L 11 13 L 1 3 z M 3 7.8300781 L 6.1699219 11 L 3 11 L 3 7.8300781 z " />
</svg>
