<?xml version="1.0" encoding="UTF-8" standalone="no"?>
<svg
   height="16"
   width="16"
   id="svg2"
   version="1.1"
   xmlns="http://www.w3.org/2000/svg"
   xmlns:svg="http://www.w3.org/2000/svg"
   xmlns:rdf="http://www.w3.org/1999/02/22-rdf-syntax-ns#"
   xmlns:cc="http://creativecommons.org/ns#"
   xmlns:dc="http://purl.org/dc/elements/1.1/">
  <metadata
     id="metadata14">
    <rdf:RDF>
      <cc:Work
         rdf:about="">
        <dc:format>image/svg+xml</dc:format>
        <dc:type
           rdf:resource="http://purl.org/dc/dcmitype/StillImage" />
      </cc:Work>
    </rdf:RDF>
  </metadata>
  <defs
     id="defs12" />
  <path
     color="#bebebe"
     d="M 3,1 C 3,1 2,1 2,2 V 4.006 L 3,5.026048 V 2.5 C 3,2.5 3,2 3.5,2 h 9 c 0,0 0.5,0 0.5,0.5 v 11 C 13,14 12.5,14 12.5,14 h -9 C 3.5,14 3,14 3,13.5 L 3.003,13.00113 1.998,13.001434 2,14 c 2.9e-4,0.999999 1,1 1,1 h 10 c 0,0 1,0 1,-1 V 2 C 14,1 13,1 13,1 Z"
     fill="#666666"
     overflow="visible"
     style="display:inline;marker:none"
     id="path2" />
  <path
     d="m 1.00551,4.087031 v 7.910799 h 7.9108 z m 0.99783,2.529673 4.41328,4.369555 -4.41319,0.01635 z"
     fill="#666666"
     id="path1"
     style="display:inline;stroke-width:0.86242" />
</svg>
