<?xml version="1.0" encoding="UTF-8" standalone="no"?>
<svg
   height="16"
   width="16"
   version="1.1"
   id="svg11"
   sodipodi:docname="document-save-symbolic.svg"
   inkscape:version="1.3.2 (091e20e, 2023-11-25)"
   xmlns:inkscape="http://www.inkscape.org/namespaces/inkscape"
   xmlns:sodipodi="http://sodipodi.sourceforge.net/DTD/sodipodi-0.dtd"
   xmlns="http://www.w3.org/2000/svg"
   xmlns:svg="http://www.w3.org/2000/svg">
  <sodipodi:namedview
     id="namedview29948"
     pagecolor="#ffffff"
     bordercolor="#000000"
     borderopacity="0.25"
     inkscape:showpageshadow="2"
     inkscape:pageopacity="0.0"
     inkscape:pagecheckerboard="0"
     inkscape:deskcolor="#d1d1d1"
     showgrid="true"
     inkscape:zoom="64"
     inkscape:cx="6.9140625"
     inkscape:cy="5.515625"
     inkscape:window-width="1278"
     inkscape:window-height="1005"
     inkscape:window-x="626"
     inkscape:window-y="13"
     inkscape:window-maximized="0"
     inkscape:current-layer="svg11">
    <inkscape:grid
       id="grid1"
       units="px"
       originx="0"
       originy="0"
       spacingx="1"
       spacingy="1"
       empcolor="#0099e5"
       empopacity="0.30196078"
       color="#0099e5"
       opacity="0.14901961"
       empspacing="5"
       dotted="false"
       gridanglex="30"
       gridanglez="30"
       visible="true" />
  </sodipodi:namedview>
  <defs
     id="defs15" />
  <g
     color="#bebebe"
     transform="rotate(-90,302.00063,267.00063)"
     id="g4">
    <path
       d="m 566.00019,-33 c 0,0 0.99991,0 0.99991,1 v 3 h -0.99991 v -2.5 c 0,0 0,-0.5 -0.49995,-0.5 h -8.99912 c 0,0 -0.49996,0 -0.49996,0.5 v 9 c 0,0.5 0.49996,0.5 0.49996,0.5 h 8.99912 c 0,0 0.49995,0 0.49995,-0.5 V -25 h 0.99991 v 3 c 0,1 -0.99991,1 -0.99991,1 h -9.99903 c 0,0 -0.9999,0 -0.9999,-1 v -10 c 0,-1 0.9999,-1 0.9999,-1 z"
       fill="#666666"
       overflow="visible"
       style="display:inline;stroke-width:1;marker:none"
       id="path6"
       sodipodi:nodetypes="cscccscssccsccsccsscc" />
    <path
       d="m 562.43146,-30.499834 c 0.26787,-0.01315 0.56082,0.190156 0.56884,0.470332 L 563.00126,-28 h 4.5 c 0.26285,0 0.49773,0.228862 0.49773,0.493866 v 1.011466 c 0.003,0.03162 0.003,0.06346 0,0.09508 -0.0519,0.237998 -0.25604,0.397255 -0.49773,0.399588 h -4.5 l -9.6e-4,2.024169 c -0.012,0.373231 -0.5267,0.612949 -0.81563,0.3793 l -3.52441,-3.024568 c -0.21252,-0.207478 -0.21252,-0.551122 0,-0.7586 l 3.52441,-3.029101 c 0.0704,-0.05622 0.15698,-0.08813 0.24679,-0.09103 z"
       fill="#666666"
       overflow="visible"
       style="display:inline;stroke-width:1;marker:none"
       id="path2"
       sodipodi:nodetypes="cccssccccccccccc" />
  </g>
</svg>
