<?xml version="1.0" encoding="UTF-8" standalone="no"?>
<svg
   height="16"
   width="16"
   id="svg2"
   version="1.1"
   xmlns="http://www.w3.org/2000/svg"
   xmlns:svg="http://www.w3.org/2000/svg"
   xmlns:rdf="http://www.w3.org/1999/02/22-rdf-syntax-ns#"
   xmlns:cc="http://creativecommons.org/ns#"
   xmlns:dc="http://purl.org/dc/elements/1.1/">
  <metadata
     id="metadata12">
    <rdf:RDF>
      <cc:Work
         rdf:about="">
        <dc:format>image/svg+xml</dc:format>
        <dc:type
           rdf:resource="http://purl.org/dc/dcmitype/StillImage" />
      </cc:Work>
    </rdf:RDF>
  </metadata>
  <defs
     id="defs10" />
  <g
     color="#bebebe"
     transform="translate(-793,23)"
     id="g4">
    <path
       d="m 796,-22 c 0,0 -1,0 -1,1 v 12 c 0,1 1,1 1,1 h 6 v -1 h -5.5 C 796,-9 796,-9.5 796,-9.5 v -11 c 0,-0.5 0.5,-0.5 0.5,-0.5 h 9 c 0,0 0.5,0 0.5,0.5 v 6.5 h 1 v -7 c 0,-1 -1,-1 -1,-1 z m 9,9.02 v 1.996 h -2 v 1.998 h 2 v 1.996 h 2 v -1.996 h 2 v -1.998 h -2 v -1.996 z"
       fill="#666666"
       overflow="visible"
       style="marker:none"
       id="path6" />
  </g>
</svg>
