<?xml version="1.0" encoding="UTF-8" standalone="no"?>
<svg
   height="16"
   width="16"
   id="svg2"
   version="1.1"
   xmlns="http://www.w3.org/2000/svg"
   xmlns:svg="http://www.w3.org/2000/svg"
   xmlns:rdf="http://www.w3.org/1999/02/22-rdf-syntax-ns#"
   xmlns:cc="http://creativecommons.org/ns#"
   xmlns:dc="http://purl.org/dc/elements/1.1/">
  <metadata
     id="metadata12">
    <rdf:RDF>
      <cc:Work
         rdf:about="">
        <dc:format>image/svg+xml</dc:format>
        <dc:type
           rdf:resource="http://purl.org/dc/dcmitype/StillImage" />
      </cc:Work>
    </rdf:RDF>
  </metadata>
  <defs
     id="defs10" />
  <path
     d="m 12.996743,1.001917 c 0,0 1.007222,-0.00111 1.006231,0.9988884 L 14,5 h -1 l -4.48e-4,-2.5000019 c 0,0 -0.0011,-0.5050089 -0.501144,-0.5047636 l -8.9964248,0.00441 c 0,0 -0.5074389,-0.00564 -0.5071444,0.4943622 L 3.00132,13.497036 c 2.945e-4,0.5 0.503815,0.500131 0.503815,0.500131 l 5.497557,0.0038 2.672e-4,0.997766 -6.0052964,1.4e-5 c 0,0 -0.9984031,0.002 -0.9983832,-0.998035 L 1.9995135,1.9997266 C 1.9995333,0.99972665 3.0011458,1.0048517 3.0011458,1.0048517 Z M 11,4 v 2 c 4.361,-0.04 6.211,4.822 2.657,7.406 -0.389478,0.275595 -0.808795,0.506386 -1.25,0.688 -4.984,1.83 -0.563,-0.063 -0.563,-0.063 0.268,-0.132 0.478,-0.288 0.688,-0.437 2.435,-1.731 1.293,-4.734 -1.531,-4.625 V 11 l -5,-3.5 z"
     fill="#666666"
     overflow="visible"
     style="color:#bebebe;marker:none"
     id="path6" />
</svg>
