<?xml version="1.0" encoding="UTF-8" standalone="no"?>
<svg
   height="16"
   width="16"
   version="1.1"
   id="svg1"
   xmlns="http://www.w3.org/2000/svg"
   xmlns:svg="http://www.w3.org/2000/svg">
  <defs
     id="defs1" />
  <g
     transform="translate(-553,-17)"
     id="g1"
     style="fill:#666666;fill-opacity:1">
    <path
       color="#000000"
       d="m 554,18 v 1 h 1 v -1 z m 2,0 v 1 h 1 v -1 z m 2,0 v 1 h 1 v -1 z m 2,0 v 1 h 1 v -1 z m 2,0 v 1 h 1 v -1 z m 2,0 v 1 h 1 v -1 z m 2,0 v 1 h 1 v -1 z m -12,2 v 1 h 1 v -1 z m 2,0 v 4 h 9 v -4 z m 10,0 v 1 h 1 v -1 z m -12,2 v 1 h 1 v -1 z m 12,0 v 1 h 1 v -1 z m -12,2 v 1 h 1 v -1 z m 12,0 v 1 h 1 v -1 z m -10,1 v 4 h 4 v -4 z m 5,0 v 4 h 4 v -4 z m -7,1 v 1 h 1 v -1 z m 12,0 v 1 h 1 v -1 z m -12,2 v 1 h 1 v -1 z m 12,0 v 1 h 1 v -1 z m -12,2 v 1 h 1 v -1 z m 2,0 v 1 h 1 v -1 z m 2,0 v 1 h 1 v -1 z m 2,0 v 1 h 1 v -1 z m 2,0 v 1 h 1 v -1 z m 2,0 v 1 h 1 v -1 z m 2,0 v 1 h 1 v -1 z"
       fill="#666"
       overflow="visible"
       style="isolation:auto;mix-blend-mode:normal;fill:#666666;marker:none;fill-opacity:1"
       id="path1" />
  </g>
</svg>
