<?xml version="1.0" encoding="UTF-8" standalone="no"?>
<svg
   height="16"
   width="16"
   version="1.1"
   id="svg2"
   xmlns="http://www.w3.org/2000/svg"
   xmlns:svg="http://www.w3.org/2000/svg">
  <defs
     id="defs2" />
  <g
     transform="translate(-653,-157)"
     id="g2">
    <path
       d="m 655,165 v 1 h 12 v -1 z"
       fill="#666666"
       id="path1" />
    <path
       d="m 657,159 v 5 h 2 v -3 h 2 c 1.918,-0.027 2,1 2,1.5 0,0.5 -0.082,1.527 -2,1.5 h 3.696 c 0.3,-0.617 0.31,-1.299 0.304,-1.5 0,-1.5 -1,-3.5 -3,-3.5 h -2 z m 0,8 v 4 h 5 c 2.689,0 3,-2 3,-3.5 a 3.186,3.186 0 0 0 -0.04,-0.5 h -2.02 c 0.049,0.185 0.06,0.362 0.06,0.5 0,0.5 -0.082,1.527 -2,1.5 h -2 v -2 z"
       fill="#666666"
       id="path2" />
  </g>
</svg>
