<?xml version="1.0" encoding="UTF-8" standalone="no"?>
<svg
   height="16"
   width="16"
   version="1.1"
   id="svg1"
   xmlns="http://www.w3.org/2000/svg"
   xmlns:svg="http://www.w3.org/2000/svg">
  <defs
     id="defs1" />
  <g
     transform="translate(-593,-137)"
     id="g1">
    <path
       d="m 596,139 v 12 h 6 c 2.689,0 3,-2 3,-3.5 0.01,-0.339 -0.045,-1.783 -1.43,-2.5 1.429,-0.452 1.44,-2.161 1.43,-2.5 0,-1.5 -1,-3.5 -3,-3.5 h -3 z m 3,2 h 1 c 1.918,-0.027 2,1 2,1.5 0,0.5 -0.082,1.527 -2,1.5 h -1 z m 0,5 h 1 c 1.918,-0.027 2,1 2,1.5 0,0.5 -0.082,1.527 -2,1.5 h -1 z"
       fill="#666666"
       id="path1" />
  </g>
</svg>
