<?xml version="1.0" encoding="UTF-8" standalone="no"?>
<svg
   height="16"
   width="16"
   version="1.1"
   id="svg11"
   xmlns="http://www.w3.org/2000/svg"
   xmlns:svg="http://www.w3.org/2000/svg">
  <defs
     id="defs15" />
  <path
     id="rect3"
     style="display:inline;fill:#666666;fill-opacity:1;stroke-width:0.999996"
     d="M 3.4453125,2 C 2.6448301,2 2,2.6436137 2,3.4433594 V 12.556641 C 2,13.356386 2.6448301,14 3.4453125,14 H 12.554688 C 13.355171,14 14.00318,13.35638 14,12.556641 V 7 h -1 v 5.5 C 13,12.777429 12.775789,13 12.496094,13 H 3.5039062 C 3.2242098,13 3,12.777429 3,12.5 v -9 C 3,3.2225718 3.2242097,3.0003484 3.5039062,3 H 9 V 2 Z" />
  <path
     d="m 12.787279,1 c -0.175987,-4.608e-5 -0.344685,0.070292 -0.468515,0.1953468 l -0.730803,0.7355685 2.481542,2.4815413 0.73396,-0.730821 c 0.262051,-0.2620506 0.262052,-0.6749795 0,-0.9370296 L 13.255001,1.1961406 C 13.131521,1.0709639 12.963102,1.0003802 12.787279,1 Z M 10.88264,2.6386173 5.0000002,8.5228418 5,10.999619 H 7.4783655 L 13.360211,5.1185691 Z"
     fill="#666666"
     font-family="sans-serif"
     font-weight="400"
     overflow="visible"
     style="line-height:normal;font-variant-ligatures:normal;font-variant-position:normal;font-variant-caps:normal;font-variant-numeric:normal;font-variant-alternates:normal;font-feature-settings:normal;text-indent:0;text-align:start;text-decoration-line:none;text-decoration-style:solid;text-decoration-color:#000000;text-transform:none;text-orientation:mixed;shape-padding:0;display:inline;isolation:auto;mix-blend-mode:normal;fill:#666666;fill-opacity:1;stroke-width:0.999992"
     white-space="normal"
     id="path7897" />
  <rect
     style="display:inline;fill:#ffffff;fill-opacity:1;fill-rule:evenodd;stroke:none;stroke-width:0.999995;stroke-opacity:1;-inkscape-stroke:none;paint-order:markers fill stroke;stop-color:#000000"
     id="rect11788"
     width="1"
     height="1"
     x="6.0000024"
     y="9" />
</svg>
