<?xml version="1.0" encoding="UTF-8" standalone="no"?>
<svg
   height="16"
   width="16"
   version="1.1"
   id="svg2"
   xmlns="http://www.w3.org/2000/svg"
   xmlns:svg="http://www.w3.org/2000/svg">
  <defs
     id="defs2" />
  <g
     color="#000000"
     transform="translate(-713,-49)"
     id="g2">
    <path
       d="m 716.5,53 c -0.83,0 -1.5,0.669 -1.5,1.5 v 7 c 0,0.831 0.67,1.5 1.5,1.5 h 11 c 0.831,0 1.5,-0.669 1.5,-1.5 v -7 c 0,-0.831 -0.669,-1.5 -1.5,-1.5 z m 0.475,1 h 10.049 L 722,57.871 Z M 728,54.512 V 61.5 c 0,0.277 -0.223,0.5 -0.5,0.5 h -11 A 0.499,0.499 0 0 1 716,61.5 v -6.986 l 5.692,4.382 c 0.015,0.013 0.034,0.016 0.05,0.026 0.018,0.01 0.036,0.019 0.055,0.027 0.038,0.017 0.075,0.03 0.115,0.037 0.03,0.006 0.058,0.006 0.088,0.006 0.03,0 0.059,0 0.088,-0.006 a 0.49,0.49 0 0 0 0.115,-0.037 c 0.02,-0.009 0.037,-0.016 0.055,-0.027 0.017,-0.01 0.035,-0.013 0.05,-0.026 z"
       fill="#666666"
       overflow="visible"
       style="isolation:auto;mix-blend-mode:normal;marker:none"
       id="path1" />
    <path
       d="m 713,51 v 1 h 1 v -1 z m 2,0 v 1 h 1 v -1 z m 2,0 v 1 h 1 v -1 z m 2,0 v 1 h 1 v -1 z m 2,0 v 1 h 1 v -1 z m 2,0 v 1 h 1 v -1 z m 2,0 v 1 h 1 v -1 z m -12,2 v 1 h 1 v -1 z m 0,2 v 1 h 1 v -1 z m 0,2 v 1 h 1 v -1 z m 0,2 v 0.5 c 0,0.177 0.036,0.343 0.092,0.5 H 714 v -1 z"
       fill="#666666"
       overflow="visible"
       style="isolation:auto;mix-blend-mode:normal;marker:none"
       id="path2" />
  </g>
</svg>
