<?xml version="1.0" encoding="UTF-8" standalone="no"?>
<svg
   height="16"
   width="16"
   version="1.1"
   id="svg1"
   xmlns="http://www.w3.org/2000/svg"
   xmlns:svg="http://www.w3.org/2000/svg">
  <defs
     id="defs1" />
  <g
     color="#bebebe"
     transform="translate(-653,-48.999808)"
     id="g1">
    <path
       d="m 657.514,50.334 a 0.5,0.5 0 0 0 -0.414,0.2 l -3.5,4.665 A 0.5,0.5 0 0 0 654,56 h 2 v 4.5 a 0.5,0.5 0 0 0 0.5,0.5 h 2 A 0.5,0.5 0 0 0 659,60.5 V 56 h 2 a 0.5,0.5 0 0 0 0.4,-0.8 l -3.5,-4.667 a 0.5,0.5 0 0 0 -0.386,-0.199 z M 663.5,53 A 0.5,0.5 0 0 0 663,53.5 V 58 h -2 a 0.5,0.5 0 0 0 -0.4,0.8 l 3.5,4.667 a 0.5,0.5 0 0 0 0.8,0 l 3.5,-4.666 A 0.5,0.5 0 0 0 668,58 h -2 V 53.5 A 0.5,0.5 0 0 0 665.5,53 Z"
       fill="#666666"
       font-family="sans-serif"
       font-weight="400"
       overflow="visible"
       style="line-height:normal;font-variant-ligatures:normal;font-variant-position:normal;font-variant-caps:normal;font-variant-numeric:normal;font-variant-alternates:normal;font-feature-settings:normal;text-indent:0;text-align:start;text-decoration-line:none;text-decoration-style:solid;text-decoration-color:#000000;text-transform:none;text-orientation:mixed;shape-padding:0;isolation:auto;mix-blend-mode:normal;marker:none"
       white-space="normal"
       id="path1" />
  </g>
</svg>
