<?xml version="1.0" encoding="UTF-8" standalone="no"?>
<svg
   height="16"
   width="16"
   version="1.1"
   id="svg1"
   xmlns="http://www.w3.org/2000/svg"
   xmlns:svg="http://www.w3.org/2000/svg">
  <defs
     id="defs1" />
  <g
     transform="translate(-333,-77)"
     id="g1">
    <path
       color="#000000"
       d="m 341,78 c -0.554,0 -1,0.446 -1,1 v 4 c 0,0.554 0.446,1 1,1 0.554,0 1,-0.446 1,-1 v -4 c 0,-0.554 -0.446,-1 -1,-1 z m -3,2 c -0.233,0 -0.455,0.084 -0.625,0.219 a 4.934,4.934 0 0 0 -0.28,0.25 A 5.946,5.946 0 0 0 335,85 a 6,6 0 1 0 12,0 c 0,-1.82 -0.815,-3.435 -2.093,-4.531 A 4.938,4.938 0 0 0 344.625,80.219 1,1 0 0 0 343,81 c 0,0.311 0.149,0.57 0.375,0.75 0.04,0.038 0.054,0.06 0.125,0.125 A 3.95,3.95 0 0 1 345,85 a 4,4 0 1 1 -8,0 3.95,3.95 0 0 1 1.5,-3.125 c 0.072,-0.066 0.085,-0.087 0.125,-0.125 A 0.944,0.944 0 0 0 339,81 1,1 0 0 0 338,80 Z"
       fill="#666666"
       overflow="visible"
       style="marker:none"
       id="path1" />
  </g>
</svg>
