<?xml version="1.0" encoding="UTF-8" standalone="no"?>
<svg
   height="16"
   width="16"
   version="1.1"
   id="svg1"
   xmlns="http://www.w3.org/2000/svg"
   xmlns:svg="http://www.w3.org/2000/svg">
  <defs
     id="defs1" />
  <g
     transform="translate(-813,-97)"
     id="g1">
    <path
       color="#000000"
       d="m 813,105 c 0,1.108 0.893,2 2,2 1.109,0 2,-0.892 2,-2 0,-1.108 -0.891,-2 -2,-2 -1.107,0 -2,0.892 -2,2 z m 6,0 c 0,1.108 0.893,2 2,2 1.109,0 2,-0.892 2,-2 0,-1.108 -0.891,-2 -2,-2 -1.107,0 -2,0.892 -2,2 z m 6,0 c 0,1.108 0.893,2 2,2 1.109,0 2,-0.892 2,-2 0,-1.108 -0.891,-2 -2,-2 -1.107,0 -2,0.892 -2,2 z"
       fill="#666666"
       overflow="visible"
       style="marker:none"
       id="path1" />
  </g>
</svg>
