<?xml version="1.0" encoding="UTF-8" standalone="no"?>
<svg
   height="16"
   width="16"
   version="1.1"
   id="svg1"
   xmlns="http://www.w3.org/2000/svg"
   xmlns:svg="http://www.w3.org/2000/svg">
  <defs
     id="defs1" />
  <g
     transform="translate(-853,-77)"
     id="g1">
    <path
       color="#000000"
       d="M 854.385,80 A 0.381,0.381 0 0 0 854,80.379 v 1.242 c 0,0.21 0.172,0.379 0.385,0.379 h 1.23 C 855.829,82 856,81.83 856,81.621 V 80.38 a 0.381,0.381 0 0 0 -0.385,-0.379 z M 860,80 v 4 h -3.062 l 5.062,6 5.188,-6 H 864 v -4 z m -5.615,4.016 A 0.381,0.381 0 0 0 854,84.395 v 1.242 c 0,0.21 0.172,0.379 0.385,0.379 h 1.23 A 0.381,0.381 0 0 0 856,85.636 v -1.241 a 0.381,0.381 0 0 0 -0.385,-0.38 z m 0,3.984 A 0.381,0.381 0 0 0 854,88.379 v 1.242 c 0,0.21 0.172,0.379 0.385,0.379 h 1.23 C 855.829,90 856,89.83 856,89.621 V 88.38 a 0.381,0.381 0 0 0 -0.385,-0.379 z"
       fill="#666666"
       overflow="visible"
       style="marker:none"
       id="path1" />
  </g>
</svg>
