<?xml version="1.0" encoding="UTF-8" standalone="no"?>
<svg
   height="16"
   width="16"
   version="1.1"
   id="svg1"
   xmlns="http://www.w3.org/2000/svg"
   xmlns:svg="http://www.w3.org/2000/svg">
  <defs
     id="defs1" />
  <g
     transform="translate(-873,-77)"
     id="g1">
    <path
       color="#000000"
       d="M 874.385,80 A 0.381,0.381 0 0 0 874,80.379 v 1.242 c 0,0.21 0.172,0.379 0.385,0.379 h 1.23 C 875.829,82 876,81.83 876,81.621 V 80.38 a 0.381,0.381 0 0 0 -0.385,-0.379 z M 882,80.219 876.938,86 H 880 v 4 h 4 v -4 h 3.188 z m -7.615,3.797 A 0.381,0.381 0 0 0 874,84.395 v 1.242 c 0,0.21 0.172,0.379 0.385,0.379 h 1.23 A 0.381,0.381 0 0 0 876,85.636 v -1.241 a 0.381,0.381 0 0 0 -0.385,-0.38 z m 0,3.984 A 0.381,0.381 0 0 0 874,88.379 v 1.242 c 0,0.21 0.172,0.379 0.385,0.379 h 1.23 C 875.829,90 876,89.83 876,89.621 V 88.38 a 0.381,0.381 0 0 0 -0.385,-0.379 z"
       fill="#666666"
       overflow="visible"
       style="marker:none"
       id="path1" />
  </g>
</svg>
