<?xml version="1.0" encoding="UTF-8" standalone="no"?>
<svg
   height="16"
   width="16"
   id="svg2"
   version="1.1"
   xmlns="http://www.w3.org/2000/svg"
   xmlns:svg="http://www.w3.org/2000/svg"
   xmlns:rdf="http://www.w3.org/1999/02/22-rdf-syntax-ns#"
   xmlns:cc="http://creativecommons.org/ns#"
   xmlns:dc="http://purl.org/dc/elements/1.1/">
  <metadata
     id="metadata14">
    <rdf:RDF>
      <cc:Work
         rdf:about="">
        <dc:format>image/svg+xml</dc:format>
        <dc:type
           rdf:resource="http://purl.org/dc/dcmitype/StillImage" />
      </cc:Work>
    </rdf:RDF>
  </metadata>
  <defs
     id="defs12" />
  <path
     id="path6"
     style="color:#bebebe;marker:none;fill:#666666;fill-opacity:1"
     d="M 2 0 C 2 0 1 1e-06 1 1 L 1 11 C 1 11.999999 2 12 2 12 L 10 12 C 10 12 11 11.999999 11 11 L 11 1 C 11 1e-06 10 0 10 0 L 2 0 z M 2.5 1 L 9.5 1 C 9.5 1 10 1.0000005 10 1.5 L 10 10.5 C 10 10.5 9.9999995 11 9.5 11 L 2.5 11 C 2.5 11 2 10.999999 2 10.5 L 2 1.5 C 2 1.0000005 2.5 1 2.5 1 z M 12 4 L 12 5 L 13.5 5 C 13.5 5 14 5.0000005 14 5.5 L 14 14.5 C 14 14.5 13.999999 15 13.5 15 L 6.5 15 C 6.5 15 6 14.999999 6 14.5 L 6 13 L 5 13 L 5 15 C 5 15.999999 6 16 6 16 L 14 16 C 14 16 15 15.999999 15 15 L 15 5 C 15 4.000001 14 4 14 4 L 12 4 z " />
</svg>
