<?xml version="1.0" encoding="UTF-8" standalone="no"?>
<svg
   height="16"
   id="svg7384"
   version="1.1"
   width="16"
   sodipodi:docname="window-restore-symbolic.svg"
   inkscape:version="1.4.2 (1:1.4.2+202505120737+ebf0e940d0)"
   xmlns:inkscape="http://www.inkscape.org/namespaces/inkscape"
   xmlns:sodipodi="http://sodipodi.sourceforge.net/DTD/sodipodi-0.dtd"
   xmlns="http://www.w3.org/2000/svg"
   xmlns:svg="http://www.w3.org/2000/svg"
   xmlns:rdf="http://www.w3.org/1999/02/22-rdf-syntax-ns#"
   xmlns:cc="http://creativecommons.org/ns#"
   xmlns:dc="http://purl.org/dc/elements/1.1/">
  <sodipodi:namedview
     id="namedview1"
     pagecolor="#ffffff"
     bordercolor="#000000"
     borderopacity="0.25"
     inkscape:showpageshadow="2"
     inkscape:pageopacity="0.0"
     inkscape:pagecheckerboard="0"
     inkscape:deskcolor="#d1d1d1"
     inkscape:current-layer="svg7384" />
  <metadata
     id="metadata90">
    <rdf:RDF>
      <cc:Work
         rdf:about="">
        <dc:format>image/svg+xml</dc:format>
        <dc:type
           rdf:resource="http://purl.org/dc/dcmitype/StillImage" />
      </cc:Work>
    </rdf:RDF>
  </metadata>
  <defs
     id="defs7386" />
  <g
     id="layer12"
     style="display:inline"
     transform="translate(-333.0004,-188)">
    <path
       d="m 347.0004,196 -2.25,-2.22321 1.71429,-1.71429 c 0.0129,-0.0129 0.0147,-0.0134 0.0268,-0.0268 0.38059,-0.42058 0.37876,-1.06767 -0.0268,-1.47321 -0.40535,-0.40535 -1.05263,-0.43359 -1.47322,-0.0536 l -0.21428,0.21428 -1.55358,1.52679 -2.22321,-2.25 0,6 z"
       id="path2987-5"
       style="color:#bebebe;fill:#666666;fill-opacity:1;fill-rule:nonzero;stroke:none;stroke-width:1;marker:none;visibility:visible;display:inline;overflow:visible;enable-background:accumulate" />
    <path
       d="m 341.0004,202 0,-6 -6,0 2.25,2.25 -1.71429,1.71429 c -0.0129,0.0129 -0.0147,0.0134 -0.0268,0.0268 -0.38058,0.42057 -0.37875,1.06766 0.0268,1.47321 0.40535,0.40534 1.07941,0.43358 1.5,0.0536 l 0.1875,-0.21429 1.55358,-1.55357 z"
       id="path3288-51-5-6"
       style="color:#bebebe;fill:#666666;fill-opacity:1;fill-rule:nonzero;stroke:none;stroke-width:1;marker:none;visibility:visible;display:inline;overflow:visible;enable-background:accumulate" />
  </g>
</svg>
