<?xml version="1.0" encoding="UTF-8" standalone="no"?>
<svg
   version="1.1"
   width="64"
   height="64"
   id="svg24498"
   xmlns:xlink="http://www.w3.org/1999/xlink"
   xmlns="http://www.w3.org/2000/svg"
   xmlns:svg="http://www.w3.org/2000/svg"
   xmlns:rdf="http://www.w3.org/1999/02/22-rdf-syntax-ns#"
   xmlns:cc="http://creativecommons.org/ns#"
   xmlns:dc="http://purl.org/dc/elements/1.1/">
  <defs
     id="defs24500">
    <linearGradient
       id="linearGradient8272-8-8">
      <stop
         id="stop8274-4"
         style="stop-color:#ffffff;stop-opacity:1"
         offset="0" />
      <stop
         id="stop8276-5"
         style="stop-color:#ffffff;stop-opacity:0.23529412"
         offset="0.0221225" />
      <stop
         id="stop8278-0"
         style="stop-color:#ffffff;stop-opacity:0.15686275"
         offset="0.97909725" />
      <stop
         id="stop8280-5-9"
         style="stop-color:#ffffff;stop-opacity:0.39215687"
         offset="1" />
    </linearGradient>
    <linearGradient
       id="linearGradient6129-963-697-142-998-580-273-9">
      <stop
         id="stop2661-3"
         style="stop-color:#0a0a0a;stop-opacity:0.498"
         offset="0" />
      <stop
         id="stop2663-33"
         style="stop-color:#0a0a0a;stop-opacity:0"
         offset="1" />
    </linearGradient>
    <linearGradient
       id="linearGradient4632-0-6-4-4-4">
      <stop
         id="stop4634-4-4-7-4"
         style="stop-color:#b4cee1;stop-opacity:1"
         offset="0" />
      <stop
         id="stop4636-3-1-5-9"
         style="stop-color:#5d9fcd;stop-opacity:1"
         offset="1" />
    </linearGradient>
    <linearGradient
       id="linearGradient5060-820-8">
      <stop
         id="stop2681-37"
         style="stop-color:#000000;stop-opacity:1"
         offset="0" />
      <stop
         id="stop2683-05"
         style="stop-color:#000000;stop-opacity:0"
         offset="1" />
    </linearGradient>
    <linearGradient
       id="linearGradient5048-585-1">
      <stop
         id="stop2667-0"
         style="stop-color:#000000;stop-opacity:0"
         offset="0" />
      <stop
         id="stop2669-91"
         style="stop-color:#000000;stop-opacity:1"
         offset="0.5" />
      <stop
         id="stop2671-6"
         style="stop-color:#000000;stop-opacity:0"
         offset="1" />
    </linearGradient>
    <linearGradient
       id="linearGradient9235-9">
      <stop
         id="stop9237-7"
         style="stop-color:#ffffff;stop-opacity:1"
         offset="0" />
      <stop
         id="stop9239-2-3"
         style="stop-color:#ffffff;stop-opacity:0.23529412"
         offset="0.1088333" />
      <stop
         id="stop9241-1"
         style="stop-color:#ffffff;stop-opacity:0.15686275"
         offset="0.97909725" />
      <stop
         id="stop9243-5"
         style="stop-color:#ffffff;stop-opacity:0.39215687"
         offset="1" />
    </linearGradient>
    <linearGradient
       id="linearGradient3104-8-8-97-4-6-11-5-5-1-0-5">
      <stop
         id="stop3106-5-4-3-5-0-2-1-0-1-2-7"
         style="stop-color:#000000;stop-opacity:0.32173914"
         offset="0" />
      <stop
         id="stop3108-4-3-7-8-2-0-7-9-4-9-4-5"
         style="stop-color:#000000;stop-opacity:0.27826086"
         offset="1" />
    </linearGradient>
    <linearGradient
       id="linearGradient6404-7-5-7">
      <stop
         id="stop6406-1-8-2"
         style="stop-color:#f9f9f9;stop-opacity:1"
         offset="0" />
      <stop
         id="stop6408-9-6-4"
         style="stop-color:#c9c9c9;stop-opacity:1"
         offset="1" />
    </linearGradient>
    <linearGradient
       xlink:href="#linearGradient3104-8-8-97-4-6-11-5-5-1-0-5"
       id="linearGradient5934"
       gradientUnits="userSpaceOnUse"
       gradientTransform="matrix(1.0563766,0,0,1.0770552,69.975817,-2.5296497)"
       x1="-51.786404"
       y1="53.514328"
       x2="-51.786404"
       y2="3.6336823" />
    <linearGradient
       y2="16.997795"
       x2="62.988873"
       y1="14.090554"
       x1="62.988873"
       gradientTransform="matrix(1.3135526,0,0,1.2900554,-55.484955,-1.2218597)"
       gradientUnits="userSpaceOnUse"
       id="linearGradient22772"
       xlink:href="#linearGradient6404-7-5-7" />
    <linearGradient
       xlink:href="#linearGradient9235-9"
       id="linearGradient5938"
       gradientUnits="userSpaceOnUse"
       gradientTransform="matrix(1.2749674,0,0,1.218292,-67.158525,-0.33920966)"
       x1="97.470535"
       y1="10.889306"
       x2="97.538795"
       y2="44.260689" />
    <linearGradient
       xlink:href="#linearGradient5048-585-1"
       id="linearGradient5946"
       gradientUnits="userSpaceOnUse"
       gradientTransform="matrix(0.1076923,0,0,0.03294117,-6.9224153,40.92219)"
       x1="302.85715"
       y1="366.64789"
       x2="302.85715"
       y2="609.50507" />
    <radialGradient
       xlink:href="#linearGradient5060-820-8"
       id="radialGradient5942"
       gradientUnits="userSpaceOnUse"
       gradientTransform="matrix(0.04016195,0,0,0.0329426,33.796647,40.92132)"
       cx="605.71429"
       cy="486.64789"
       fx="605.71429"
       fy="486.64789"
       r="117.14286" />
    <radialGradient
       xlink:href="#linearGradient5060-820-8"
       id="radialGradient5950"
       gradientUnits="userSpaceOnUse"
       gradientTransform="matrix(-0.04016195,0,0,0.0329426,30.204677,40.92132)"
       cx="605.71429"
       cy="486.64789"
       fx="605.71429"
       fy="486.64789"
       r="117.14286" />
    <linearGradient
       xlink:href="#linearGradient4632-0-6-4-4-4"
       id="linearGradient5954"
       gradientUnits="userSpaceOnUse"
       gradientTransform="matrix(0.50413225,0,0,0.49333391,73.843637,-1.4532897)"
       x1="-91"
       y1="43.999817"
       x2="-91"
       y2="119.05979" />
    <linearGradient
       xlink:href="#linearGradient8272-8-8"
       id="linearGradient5962"
       gradientUnits="userSpaceOnUse"
       gradientTransform="matrix(1.3210282,0,0,1.2679796,-70.729885,0.17381034)"
       x1="97.470169"
       y1="17.149376"
       x2="97.442719"
       y2="43.936932" />
    <linearGradient
       xlink:href="#linearGradient6129-963-697-142-998-580-273-9"
       id="linearGradient5958"
       gradientUnits="userSpaceOnUse"
       gradientTransform="matrix(1.5432898,0,0,1.3103449,-5.0382953,0.34483034)"
       x1="22.934725"
       y1="49.629246"
       x2="22.809399"
       y2="36.657963" />
  </defs>
  <metadata
     id="metadata24503">
    <rdf:RDF>
      <cc:Work
         rdf:about="">
        <dc:format>image/svg+xml</dc:format>
        <dc:type
           rdf:resource="http://purl.org/dc/dcmitype/StillImage" />
        <dc:title />
      </cc:Work>
    </rdf:RDF>
  </metadata>
  <g
     id="layer1-0"
     style="display:inline">
    <path
       style="color:#000000;display:inline;overflow:visible;visibility:visible;opacity:0.8;fill:none;stroke:url(#linearGradient5934);stroke-width:1;stroke-linecap:butt;stroke-linejoin:miter;stroke-miterlimit:4;stroke-dasharray:none;stroke-dashoffset:0;stroke-opacity:1;marker:none;enable-background:accumulate"
       id="path2558"
       d="M 7.5,9.5001603 C 7.0253138,9.5096116 6.5,9.8713645 6.5,10.5 v 3 h -2 c -0.5253741,0 -0.9837034,0.414623 -1,1 v 16 L 60.510077,23.133711 60.5,14.5 c -5.4e-4,-0.462301 -0.358453,-1 -1,-1 h -31 v -3 c 0,-0.5281691 -0.413357,-1.0053104 -1,-1 z" />
    <path
       style="color:#000000;display:inline;overflow:visible;visibility:visible;fill:url(#linearGradient22772);fill-opacity:1;fill-rule:nonzero;stroke:none;stroke-width:1;marker:none;enable-background:accumulate"
       d="m 8,10 c -0.8101633,0 -1.0001334,0.399043 -1,1 l 6.657e-4,3 H 5 c -0.6943024,0 -1,0.191203 -1,1 v 8 c 0,0 56.026488,0.0023 56,0 v -8 c 0,-0.786883 -0.379209,-1 -1,-1 H 28 v -3 c 0,-0.609433 -0.191731,-1 -1,-1 z"
       id="rect3340-3" />
    <path
       style="color:#000000;display:inline;overflow:visible;visibility:visible;fill:none;stroke:url(#linearGradient5938);stroke-width:1;stroke-linecap:round;stroke-linejoin:round;stroke-miterlimit:4;stroke-dasharray:none;stroke-dashoffset:0;stroke-opacity:1;marker:none;enable-background:accumulate"
       d="m 7.5,10.5 v 4 h -3 v 8 L 59.500667,22.513253 59.5,14.5 h -32 v -4 z"
       id="rect3340" />
    <g
       id="g1"
       style="display:inline">
      <rect
         style="display:inline;overflow:visible;visibility:visible;opacity:0.3;fill:url(#linearGradient5946);fill-opacity:1;fill-rule:nonzero;stroke:none;stroke-width:1;marker:none"
         id="rect4173-14"
         y="53"
         x="6.000669"
         height="8"
         width="52" />
      <path
         style="display:inline;overflow:visible;visibility:visible;opacity:0.3;fill:url(#radialGradient5942);fill-opacity:1;fill-rule:nonzero;stroke:none;stroke-width:1;marker:none"
         id="path3411"
         d="m 58.000667,52.99993 c 0,0 0,7.99991 0,7.99991 2.06824,0.0151 5,-1.79238 5,-4.00047 0,-2.2081 -2.308,-3.99944 -5,-3.99944 z" />
      <path
         style="display:inline;overflow:visible;visibility:visible;opacity:0.3;fill:url(#radialGradient5950);fill-opacity:1;fill-rule:nonzero;stroke:none;stroke-width:1;marker:none"
         id="path5018-7"
         d="m 6.0006657,52.99993 c 0,0 0,7.99991 0,7.99991 -2.06825,0.0151 -5,-1.79238 -5,-4.00047 0,-2.2081 2.308,-3.99944 5,-3.99944 z" />
    </g>
    <path
       style="color:#000000;display:inline;overflow:visible;visibility:visible;fill:url(#linearGradient5954);fill-opacity:1;fill-rule:nonzero;stroke:#000000;stroke-width:1;stroke-opacity:0.301961;marker:none;enable-background:accumulate"
       id="path3388-0"
       d="M 3,20.5 C 1.2631009,20.57155 1.4909972,21.929564 1.53,22.923 L 3.3031327,56 C 3.4678045,57.151655 4.3767361,57.5 5,57.5 h 54 c 0.885861,-0.01153 1.498758,-0.350358 1.614781,-1.5 L 62.47,22.923 C 62.541959,21.876807 62.434808,20.5 61,20.5 Z" />
    <path
       style="color:#000000;display:inline;overflow:visible;visibility:visible;opacity:0.5;fill:none;stroke:url(#linearGradient5962);stroke-width:1;stroke-linecap:round;stroke-linejoin:round;stroke-miterlimit:4;stroke-dasharray:none;stroke-dashoffset:0;stroke-opacity:1;marker:none;enable-background:accumulate"
       d="M 60.73108,21.51027 3.8876948,21.5 C 2.4529024,21.48628 2.4664818,21.398485 2.5490182,22.518774 l 1.7314016,32.963557 c 0.045627,0.464819 -0.036108,1.017638 0.9302859,1.017639 L 58.877677,56.5 c 0.660052,-0.01983 0.685787,-0.166314 0.759224,-0.746191 l 1.821845,-33.477074 c 0.0311,-0.6043 -0.08981,-0.786248 -0.727666,-0.766465 z"
       id="path3290" />
    <path
       style="display:inline;opacity:0.4;fill:url(#linearGradient5958);fill-opacity:1;stroke:none"
       id="path6127-8"
       d="m 3,20 h 58 c 0.85499,0 2,1.27406 2,2 L 61.113711,56.212949 C 61.045759,57.209303 60.141245,58 59.278573,58 H 4.7925861 C 3.9768491,58 2.9561917,57.175852 2.8328622,56.182333 L 1,22 c 0,-0.72594 1.14501,-2 2,-2 z" />
  </g>
  <g
     id="layer1">
    <path
       d="m 32.811611,28.093752 c -0.12891,0.0161 -0.25505,0.0557 -0.375,0.125 l -6.5625,3.78125 3.96875,0 2.71875,-1.5625 0.90625,1.5625 2.28125,0 -1.96875,-3.4375 c -0.20775,-0.35983 -0.58201,-0.51721 -0.96875,-0.46875 z m -7.8125,5.90625 c -0.554,0 -1,0.446 -1,1 l 0,16 c 0,0.554 0.446,1 1,1 l 16,0 c 0.554,0 1,-0.446 1,-1 l 0,-16 c 0,-0.554 -0.446,-1 -1,-1 z m -3,0.25 -3.4375,1.96875 c -0.47978,0.277 -0.62075,0.86397 -0.34375,1.34375 l 3.78125,6.5625 0,-3.96875 -1.5625,-2.71875 1.5625,-0.90625 z m 4,1.75 14,0 0,12 -14,0 z"
       id="rect5897-4"
       style="opacity:0.3;color:#000000;fill:#ffffff;fill-opacity:0.5521628;fill-rule:nonzero;stroke:none;stroke-width:1.70000005;marker:none;visibility:visible;display:inline;overflow:visible;enable-background:accumulate" />
    <path
       d="m 32.811611,27.093752 c -0.12891,0.0161 -0.25505,0.0557 -0.375,0.125 l -6.5625,3.78125 3.96875,0 2.71875,-1.5625 0.90625,1.5625 2.28125,0 -1.96875,-3.4375 c -0.20775,-0.35983 -0.58201,-0.51721 -0.96875,-0.46875 z m -7.8125,5.90625 c -0.554,0 -1,0.446 -1,1 l 0,16 c 0,0.554 0.446,1 1,1 l 16,0 c 0.554,0 1,-0.446 1,-1 l 0,-16 c 0,-0.554 -0.446,-1 -1,-1 z m -3,0.25 -3.4375,1.96875 c -0.47978,0.277 -0.62075,0.86397 -0.34375,1.34375 l 3.78125,6.5625 0,-3.96875 -1.5625,-2.71875 1.5625,-0.90625 z m 4,1.75 14,0 0,12 -14,0 z"
       id="rect5897"
       style="color:#000000;fill:#175785;fill-opacity:0.5521628;fill-rule:nonzero;stroke:none;stroke-width:1.70000005;marker:none;visibility:visible;display:inline;overflow:visible;enable-background:accumulate" />
    <path
       d="m 32.811611,27.093752 c -0.12891,0.0161 -0.25505,0.0557 -0.375,0.125 l -6.5625,3.78125 3.96875,0 2.71875,-1.5625 0.90625,1.5625 2.28125,0 -1.96875,-3.4375 c -0.20775,-0.35983 -0.58201,-0.51721 -0.96875,-0.46875 z m -7.8125,5.90625 c -0.554,0 -1,0.446 -1,1 l 0,16 c 0,0.554 0.446,1 1,1 l 16,0 c 0.554,0 1,-0.446 1,-1 l 0,-16 c 0,-0.554 -0.446,-1 -1,-1 z m -3,0.25 -3.4375,1.96875 c -0.47978,0.277 -0.62075,0.86397 -0.34375,1.34375 l 3.78125,6.5625 0,-3.96875 -1.5625,-2.71875 1.5625,-0.90625 z m 4,1.75 14,0 0,12 -14,0 z"
       id="path162"
       style="color:#000000;fill:#175785;fill-opacity:0.5521628;fill-rule:nonzero;stroke:none;stroke-width:1.70000005;marker:none;visibility:visible;display:inline;overflow:visible;enable-background:accumulate" />
  </g>
</svg>
