<?xml version="1.0" encoding="UTF-8" standalone="no"?>
<svg
   version="1.1"
   width="32"
   height="32"
   id="svg1325"
   xmlns:xlink="http://www.w3.org/1999/xlink"
   xmlns="http://www.w3.org/2000/svg"
   xmlns:svg="http://www.w3.org/2000/svg"
   xmlns:rdf="http://www.w3.org/1999/02/22-rdf-syntax-ns#"
   xmlns:cc="http://creativecommons.org/ns#"
   xmlns:dc="http://purl.org/dc/elements/1.1/">
  <metadata
     id="metadata180095">
    <rdf:RDF>
      <cc:Work
         rdf:about="">
        <dc:format>image/svg+xml</dc:format>
        <dc:type
           rdf:resource="http://purl.org/dc/dcmitype/StillImage" />
      </cc:Work>
    </rdf:RDF>
  </metadata>
  <defs
     id="defs1327">
    <linearGradient
       id="linearGradient4708">
      <stop
         id="stop4710"
         style="stop-color:white;stop-opacity:1"
         offset="0" />
      <stop
         id="stop4712"
         style="stop-color:black;stop-opacity:1"
         offset="0.57954973" />
      <stop
         id="stop4714"
         style="stop-color:black;stop-opacity:1"
         offset="1" />
    </linearGradient>
    <linearGradient
       id="linearGradient2270">
      <stop
         id="stop2272"
         style="stop-color:white;stop-opacity:1"
         offset="0" />
      <stop
         id="stop2274"
         style="stop-color:white;stop-opacity:0"
         offset="1" />
    </linearGradient>
    <linearGradient
       x1="20"
       y1="18"
       x2="20"
       y2="46"
       id="linearGradient2851"
       xlink:href="#linearGradient2270"
       gradientUnits="userSpaceOnUse"
       gradientTransform="translate(0,-9.9999992)" />
    <linearGradient
       x1="30"
       y1="17"
       x2="30"
       y2="47"
       id="linearGradient2854"
       xlink:href="#linearGradient2181"
       gradientUnits="userSpaceOnUse"
       gradientTransform="translate(0,-9.9999992)" />
    <linearGradient
       id="linearGradient2181">
      <stop
         id="stop2183"
         style="stop-color:#f0f0f0;stop-opacity:1"
         offset="0" />
      <stop
         id="stop2185"
         style="stop-color:#d3d3d3;stop-opacity:1"
         offset="1" />
    </linearGradient>
    <linearGradient
       x1="50.23077"
       y1="22"
       x2="53"
       y2="22"
       id="linearGradient4720"
       xlink:href="#linearGradient4708"
       gradientUnits="userSpaceOnUse"
       gradientTransform="matrix(4.3333333,0,0,1,-176.66667,0)" />
    <mask
       id="mask4716">
      <rect
         width="52"
         height="32"
         x="1"
         y="6"
         id="rect4718"
         style="fill:url(#linearGradient4720);fill-opacity:1;stroke:none" />
    </mask>
    <linearGradient
       x1="50.23077"
       y1="22"
       x2="53"
       y2="22"
       id="linearGradient4726"
       xlink:href="#linearGradient4708"
       gradientUnits="userSpaceOnUse"
       gradientTransform="matrix(4.3333333,0,0,1,-176.66667,0)" />
    <mask
       id="mask4722">
      <rect
         width="52"
         height="32"
         x="1"
         y="6"
         id="rect4724"
         style="fill:url(#linearGradient4726);fill-opacity:1;stroke:none" />
    </mask>
    <linearGradient
       id="linearGradient8838-2">
      <stop
         id="stop8840-6"
         style="stop-color:black;stop-opacity:1"
         offset="0" />
      <stop
         id="stop8842-4"
         style="stop-color:black;stop-opacity:0"
         offset="1" />
    </linearGradient>
    <radialGradient
       cx="62.625"
       cy="4.625"
       r="10.625"
       fx="62.625"
       fy="4.625"
       id="radialGradient3000"
       xlink:href="#linearGradient8838-2"
       gradientUnits="userSpaceOnUse"
       gradientTransform="matrix(1.1294118,0,0,0.2823525,-58.729414,19.694118)" />
    <radialGradient
       xlink:href="#linearGradient2867-449-88-871-390-598-476-591-434-148-57-177-3-8"
       id="radialGradient3123"
       gradientUnits="userSpaceOnUse"
       gradientTransform="matrix(0,1.7008781,-2.245129,0,38.958074,-26.236051)"
       cx="23.895569"
       cy="3.9900031"
       fx="23.895569"
       fy="3.9900031"
       r="20.397499" />
    <linearGradient
       id="linearGradient2867-449-88-871-390-598-476-591-434-148-57-177-3-8">
      <stop
         id="stop3750-8-9"
         style="stop-color:#90dbec;stop-opacity:1;"
         offset="0" />
      <stop
         id="stop3752-3-2"
         style="stop-color:#42baea;stop-opacity:1;"
         offset="0.26238" />
      <stop
         id="stop3754-7-2"
         style="stop-color:#3689e6;stop-opacity:1;"
         offset="0.704952" />
      <stop
         id="stop3756-9-3"
         style="stop-color:#2b63a0;stop-opacity:1;"
         offset="1" />
    </linearGradient>
    <linearGradient
       xlink:href="#linearGradient3707-319-631-407-324-3-8"
       id="linearGradient3125"
       gradientUnits="userSpaceOnUse"
       gradientTransform="matrix(0.7126612,0,0,0.7126613,12.896132,12.89613)"
       x1="18.379412"
       y1="44.980297"
       x2="18.379412"
       y2="3.0816143" />
    <linearGradient
       id="linearGradient3707-319-631-407-324-3-8">
      <stop
         id="stop3760-7-3"
         style="stop-color:#185f9a;stop-opacity:1;"
         offset="0" />
      <stop
         id="stop3762-8-4"
         style="stop-color:#599ec9;stop-opacity:1;"
         offset="1" />
    </linearGradient>
    <linearGradient
       xlink:href="#linearGradient2270"
       id="linearGradient3120"
       gradientUnits="userSpaceOnUse"
       gradientTransform="matrix(1.5001506,0,0,1.5001383,-63.310114,35.266807)"
       x1="63.397362"
       y1="-12.489107"
       x2="63.397362"
       y2="5.4675598" />
  </defs>
  <rect
     width="46"
     height="29"
     x="2.5"
     y="7.5"
     transform="matrix(0.63043479,0,0,0.62068967,-0.07608722,0.84482729)"
     mask="url(#mask4722)"
     id="rect1333"
     style="display:inline;fill:url(#linearGradient2854);fill-opacity:1;stroke:#969696;stroke-width:1.59861;stroke-linecap:butt;stroke-linejoin:round;stroke-miterlimit:4;stroke-dasharray:none;stroke-dashoffset:0;stroke-opacity:1" />
  <rect
     width="45"
     height="27"
     x="3.5"
     y="8.5"
     transform="matrix(0.62222223,0,0,0.5925926,0.32222207,1.4629628)"
     mask="url(#mask4716)"
     id="rect2210"
     style="display:inline;opacity:0.7;fill:none;stroke:url(#linearGradient2851);stroke-width:1.64683;stroke-linecap:butt;stroke-linejoin:round;stroke-miterlimit:4;stroke-dasharray:none;stroke-dashoffset:0;stroke-opacity:1" />
  <g
     transform="translate(8.0000002,8)"
     id="layer1"
     style="display:inline">
    <path
       d="m 24,21 c 0,1.656854 -5.372583,3 -12,3 C 5.3725828,24 -2.5e-7,22.656854 -2.5e-7,21 -2.5e-7,19.343146 5.3725828,18 12,18 c 6.627417,0 12,1.343146 12,3 z"
       id="path8836"
       style="display:inline;overflow:visible;visibility:visible;opacity:0.3;fill:url(#radialGradient3000);fill-opacity:1;fill-rule:evenodd;stroke:none;stroke-width:1;marker:none" />
    <path
       style="display:inline;stroke-width:1.38605;fill:url(#radialGradient3123);fill-opacity:1;stroke:url(#linearGradient3125);stroke-linecap:round;stroke-linejoin:round;stroke-miterlimit:4;stroke-dasharray:none;stroke-dashoffset:0;stroke-opacity:1"
       id="path2555-6"
       d="m 30.000004,15.501798 c -7.999607,0 -14.498203,6.498593 -14.498203,14.498201 0,7.999609 6.498596,14.498206 14.498203,14.498203 7.999605,0 14.498209,-6.498594 14.498201,-14.498203 0,-7.999608 -6.498596,-14.498202 -14.498201,-14.498201 z"
       transform="matrix(0.72410887,0,0,0.72409887,-9.7231663,-9.7230158)" />
    <path
       style="display:inline;stroke-width:1.38102;opacity:0.4;fill:none;stroke:url(#linearGradient3120);stroke-miterlimit:4;stroke-dasharray:none;stroke-opacity:1"
       id="path8655"
       d="m 43.11943,29.999604 c 0,7.246077 -5.874263,13.120224 -13.119401,13.120224 -7.245803,0 -13.119735,-5.874213 -13.119735,-13.120224 0,-7.245742 5.873932,-13.119294 13.119735,-13.119294 7.245138,0 13.119401,5.873552 13.119401,13.119294 z"
       transform="matrix(0.72410887,0,0,0.72409887,-9.7231663,-9.7230158)" />
    <path
       style="display:inline;stroke-width:1.38102;font-style:normal;font-variant:normal;font-weight:bold;font-stretch:normal;font-size:40px;line-height:100%;font-family:'URW Palladio L';-inkscape-font-specification:'URW Palladio L Bold';text-align:start;writing-mode:lr-tb;text-anchor:start;opacity:0.2;fill:#000000;fill-opacity:1;stroke:none"
       id="text3482-7"
       d="m 25.800003,28.787587 c 0.191223,0.519832 0.406458,0.941195 0.864931,0.365039 0.568405,-0.338187 2.472919,-1.820561 2.282349,-0.368542 -0.609824,2.686875 -1.352116,5.345494 -1.919681,8.040646 -0.593471,1.475717 0.754185,2.810565 2.161236,1.850899 1.495604,-0.616549 2.782567,-1.620801 4.097346,-2.542051 -0.179393,-0.43995 -0.298961,-1.071935 -0.794641,-0.496581 -0.650854,0.295414 -2.07239,1.688183 -2.336485,0.539461 0.546711,-2.9094 1.559643,-5.7111 2.207127,-8.597302 0.595853,-1.327069 -0.377292,-3.003869 -1.833979,-1.9061 -1.745148,0.760068 -3.20455,2.001671 -4.728203,3.114531 z M 32.27681,19.00228 c -1.780567,-0.09449 -2.711509,2.77583 -1.019448,3.56128 1.372757,0.562981 2.867444,-0.844957 2.532085,-2.251811 -0.104074,-0.732561 -0.761774,-1.334112 -1.512637,-1.309469 z"
       transform="matrix(0.72410887,0,0,0.72409887,-9.7231663,-9.7230158)" />
    <path
       style="display:inline;stroke-width:1.38102;font-style:normal;font-variant:normal;font-weight:bold;font-stretch:normal;font-size:40px;line-height:100%;font-family:'URW Palladio L';-inkscape-font-specification:'URW Palladio L Bold';text-align:start;writing-mode:lr-tb;text-anchor:start;fill:#ffffff;fill-opacity:1;stroke:none"
       id="path3536-5"
       d="m 25.800003,29.787587 c 0.191223,0.519832 0.406458,0.941195 0.864931,0.365039 0.568405,-0.338187 2.472919,-1.820561 2.282349,-0.368542 -0.609824,2.686875 -1.352116,5.345494 -1.919681,8.040646 -0.593471,1.475717 0.754185,2.810565 2.161236,1.850899 1.495604,-0.616549 2.782567,-1.620801 4.097346,-2.542051 -0.179393,-0.43995 -0.298961,-1.071935 -0.794641,-0.496581 -0.650854,0.295414 -2.07239,1.688183 -2.336485,0.539461 0.546711,-2.9094 1.559643,-5.7111 2.207127,-8.597302 0.595853,-1.327069 -0.377292,-3.003869 -1.833979,-1.9061 -1.745148,0.760068 -3.20455,2.001671 -4.728203,3.114531 z M 32.27681,20.00228 c -1.780567,-0.09449 -2.711509,2.77583 -1.019448,3.56128 1.372757,0.562981 2.867444,-0.844957 2.532085,-2.251811 -0.104074,-0.732561 -0.761774,-1.334112 -1.512637,-1.309469 z"
       transform="matrix(0.72410887,0,0,0.72409887,-9.7231663,-9.7230158)" />
  </g>
</svg>
