<?xml version="1.0" encoding="UTF-8" standalone="no"?>
<svg
   version="1.0"
   width="32"
   height="32"
   id="svg11300"
   xmlns:xlink="http://www.w3.org/1999/xlink"
   xmlns="http://www.w3.org/2000/svg"
   xmlns:svg="http://www.w3.org/2000/svg"
   xmlns:rdf="http://www.w3.org/1999/02/22-rdf-syntax-ns#"
   xmlns:cc="http://creativecommons.org/ns#"
   xmlns:dc="http://purl.org/dc/elements/1.1/">
  <metadata
     id="metadata50046">
    <rdf:RDF>
      <cc:Work
         rdf:about="">
        <dc:format>image/svg+xml</dc:format>
        <dc:type
           rdf:resource="http://purl.org/dc/dcmitype/StillImage" />
      </cc:Work>
    </rdf:RDF>
  </metadata>
  <defs
     id="defs3">
    <linearGradient
       id="linearGradient3341">
      <stop
         id="stop3343"
         style="stop-color:white;stop-opacity:1"
         offset="0" />
      <stop
         id="stop3345"
         style="stop-color:white;stop-opacity:0"
         offset="1" />
    </linearGradient>
    <linearGradient
       id="linearGradient5060">
      <stop
         id="stop5062"
         style="stop-color:black;stop-opacity:1"
         offset="0" />
      <stop
         id="stop5064"
         style="stop-color:black;stop-opacity:0"
         offset="1" />
    </linearGradient>
    <linearGradient
       id="linearGradient7549">
      <stop
         id="stop7551"
         style="stop-color:#ffffff;stop-opacity:1"
         offset="0" />
      <stop
         id="stop7553"
         style="stop-color:#eeeeec;stop-opacity:1"
         offset="1" />
    </linearGradient>
    <linearGradient
       id="linearGradient18850">
      <stop
         id="stop18846"
         style="stop-color:#abacae;stop-opacity:0.44999999;"
         offset="0" />
      <stop
         id="stop18848"
         style="stop-color:#abacae;stop-opacity:0.5;"
         offset="1" />
    </linearGradient>
    <linearGradient
       id="linearGradient4542">
      <stop
         id="stop4544"
         style="stop-color:#888a85;stop-opacity:1"
         offset="0" />
      <stop
         id="stop4546"
         style="stop-color:#888a85;stop-opacity:0"
         offset="1" />
    </linearGradient>
    <linearGradient
       id="linearGradient6958">
      <stop
         id="stop6960-3"
         style="stop-color:#000000;stop-opacity:1"
         offset="0" />
      <stop
         id="stop6962-6"
         style="stop-color:#888a85;stop-opacity:0"
         offset="1" />
    </linearGradient>
    <linearGradient
       id="linearGradient7491">
      <stop
         id="stop7493"
         style="stop-color:#eeeeec;stop-opacity:1"
         offset="0" />
      <stop
         id="stop7495"
         style="stop-color:#babdb6;stop-opacity:1"
         offset="1" />
    </linearGradient>
    <linearGradient
       x1="13.819278"
       y1="30.029789"
       x2="36.227631"
       y2="45.194965"
       id="linearGradient7425"
       xlink:href="#linearGradient6826"
       gradientUnits="userSpaceOnUse"
       gradientTransform="matrix(0,0.673693,-0.676136,0,37.10227,14.81577)" />
    <linearGradient
       id="linearGradient6826">
      <stop
         id="stop6828"
         style="stop-color:#babdb6;stop-opacity:1"
         offset="0" />
      <stop
         id="stop6830"
         style="stop-color:#eeeeec;stop-opacity:1"
         offset="1" />
    </linearGradient>
    <linearGradient
       x1="33.120464"
       y1="20.5"
       x2="22.328388"
       y2="20.5"
       id="linearGradient7433"
       xlink:href="#linearGradient4542"
       gradientUnits="userSpaceOnUse"
       gradientTransform="matrix(0.727273,0,0,0.999999,12.27273,-34.84375)" />
    <linearGradient
       id="linearGradient7557">
      <stop
         id="stop7559"
         style="stop-color:#eeeeec;stop-opacity:1"
         offset="0" />
      <stop
         id="stop7561"
         style="stop-color:#eeeeec;stop-opacity:1"
         offset="1" />
    </linearGradient>
    <radialGradient
       cx="20"
       cy="46"
       r="8"
       fx="20"
       fy="46"
       id="radialGradient7612-5"
       xlink:href="#linearGradient5060"
       gradientUnits="userSpaceOnUse"
       gradientTransform="matrix(1,0,0,0.25,0,34.5)" />
    <radialGradient
       cx="20"
       cy="46"
       r="8"
       fx="20"
       fy="46"
       id="radialGradient7610-3"
       xlink:href="#linearGradient5060"
       gradientUnits="userSpaceOnUse"
       gradientTransform="matrix(1,0,0,0.25,0,34.5)" />
    <radialGradient
       cx="17.812502"
       cy="14.729167"
       r="9.500001"
       fx="17.812502"
       fy="14.729167"
       id="radialGradient6179-5"
       xlink:href="#linearGradient7557"
       gradientUnits="userSpaceOnUse"
       gradientTransform="matrix(1,0,0,0.6315789,0,2.947369)" />
    <radialGradient
       cx="11.15625"
       cy="2.0625"
       r="0.90625"
       fx="11.15625"
       fy="2.0625"
       id="radialGradient6201-9"
       xlink:href="#linearGradient3341"
       gradientUnits="userSpaceOnUse"
       gradientTransform="matrix(1,0,0,0.6206897,0,0.7823276)" />
    <linearGradient
       x1="11.161089"
       y1="17.254425"
       x2="18.391479"
       y2="44.238609"
       id="linearGradient3326-7"
       xlink:href="#linearGradient3341"
       gradientUnits="userSpaceOnUse" />
    <linearGradient
       x1="15.406166"
       y1="37.34367"
       x2="16.864777"
       y2="24.249567"
       id="linearGradient7431"
       xlink:href="#linearGradient3341"
       gradientUnits="userSpaceOnUse"
       gradientTransform="matrix(0,0.673693,-0.676136,0,37.10227,14.81577)" />
    <linearGradient
       x1="28.032116"
       y1="32.947376"
       x2="5.545897"
       y2="20.01186"
       id="linearGradient2538-3"
       xlink:href="#linearGradient7491"
       gradientUnits="userSpaceOnUse"
       gradientTransform="matrix(0.2206728,0.8235621,-0.8265485,0.221473,52.273811,-1.6455845)"
       spreadMethod="reflect" />
    <linearGradient
       x1="17"
       y1="45.248375"
       x2="17"
       y2="30.759407"
       id="linearGradient2535-6"
       xlink:href="#linearGradient6958"
       gradientUnits="userSpaceOnUse"
       gradientTransform="matrix(0.2047231,0.7640369,-0.8265485,0.221473,52.620769,-0.3507192)" />
    <linearGradient
       x1="17.092846"
       y1="17.620552"
       x2="9.9427681"
       y2="44.305004"
       id="linearGradient3318-8"
       xlink:href="#linearGradient3341"
       gradientUnits="userSpaceOnUse" />
    <linearGradient
       x1="33.120464"
       y1="20.5"
       x2="22.328388"
       y2="20.5"
       id="linearGradient2530-9"
       xlink:href="#linearGradient4542"
       gradientUnits="userSpaceOnUse"
       gradientTransform="matrix(0.9204241,0,0,1.2655814,8.7215177,-48.060188)" />
    <radialGradient
       cx="23.681061"
       cy="5.3414755"
       r="5.055244"
       fx="23.681061"
       fy="5.3414755"
       id="radialGradient6183-2"
       xlink:href="#linearGradient18850"
       gradientUnits="userSpaceOnUse"
       gradientTransform="matrix(-1.5922835,-0.1907818,-1.1802872,-1.4345654,57.810344,15.557175)" />
    <radialGradient
       cx="24.090876"
       cy="5.052979"
       r="4.4921517"
       fx="24.090876"
       fy="5.052979"
       id="radialGradient6191-3"
       xlink:href="#linearGradient7549"
       gradientUnits="userSpaceOnUse"
       gradientTransform="matrix(1.6372128,-0.3629926,2.1525103,1.8500902,-36.53018,2.08716)" />
    <linearGradient
       x1="20.722668"
       y1="16.830494"
       x2="22.697027"
       y2="15.894469"
       id="linearGradient6195-9"
       xlink:href="#linearGradient5060"
       gradientUnits="userSpaceOnUse"
       gradientTransform="matrix(1.1304264,-0.235981,0.915432,0.6373638,-15.020125,7.538008)" />
    <linearGradient
       xlink:href="#linearGradient3341"
       id="linearGradient1"
       gradientUnits="userSpaceOnUse"
       gradientTransform="matrix(0,0.673693,-0.676136,0,37.10227,14.81577)"
       x1="15.406166"
       y1="37.34367"
       x2="16.864777"
       y2="24.249567" />
  </defs>
  <g
     id="layer1"
     transform="matrix(0.67031371,0,0,0.67031371,0.02161142,-0.04366196)">
    <path
       d="m 28,46 a 8,2 0 1 1 -16,0 8,2 0 1 1 16,0 z"
       transform="matrix(1.1875,0,0,1.75,9.75,-37.5)"
       id="path7600"
       style="display:inline;overflow:visible;visibility:visible;opacity:0.162896;fill:url(#radialGradient7612-5);fill-opacity:1;fill-rule:evenodd;stroke:none;stroke-width:1;stroke-linecap:round;stroke-linejoin:miter;stroke-miterlimit:4;stroke-dasharray:none;stroke-dashoffset:0.677417;stroke-opacity:1;marker:none;marker-start:none;marker-mid:none;marker-end:none;enable-background:accumulate" />
    <path
       d="m 28,46 a 8,2 0 1 1 -16,0 8,2 0 1 1 16,0 z"
       transform="matrix(1.25,0,0,1.75,-8,-37.5)"
       id="path7602"
       style="display:inline;overflow:visible;visibility:visible;opacity:0.162896;fill:url(#radialGradient7610-3);fill-opacity:1;fill-rule:evenodd;stroke:none;stroke-width:1;stroke-linecap:round;stroke-linejoin:miter;stroke-miterlimit:4;stroke-dasharray:none;stroke-dashoffset:0.677417;stroke-opacity:1;marker:none;marker-start:none;marker-mid:none;marker-end:none;enable-background:accumulate" />
    <path
       d="m 24.281173,13.417592 c -0.739987,0.154475 -1.74504,0.08699 -2.904875,-0.162344 C 18.624,12.663568 15.000097,11.047833 11.978296,8.943923 7.683089,5.953412 6.222848,3.103453 8.718829,2.582407"
       id="use6159"
       style="fill:none;fill-opacity:1;fill-rule:evenodd;stroke:#7e8087;stroke-width:3;stroke-linecap:round;stroke-linejoin:miter;stroke-miterlimit:4;stroke-dashoffset:0.7;stroke-opacity:0.5" />
    <path
       d="m 21.021707,7.056075 c 4.295207,2.990511 5.755448,5.840471 3.259466,6.361517 C 21.785192,13.938638 16.273503,11.934434 11.978296,8.943923 7.683089,5.953412 6.222848,3.103453 8.718829,2.582407 11.214811,2.061361 16.7265,4.065564 21.021707,7.056075 Z"
       id="use6161"
       style="fill:none;fill-opacity:1;fill-rule:evenodd;stroke:url(#radialGradient6179-5);stroke-width:1;stroke-linecap:round;stroke-linejoin:miter;stroke-miterlimit:4;stroke-dashoffset:0.7;stroke-opacity:1" />
    <path
       d="m 12.0625,2.0625 a 0.90625,0.5625 0 1 1 -1.8125,0 0.90625,0.5625 0 1 1 1.8125,0 z"
       transform="matrix(1.1034483,0,0,1.7777778,2.636801,7.009256)"
       id="use6173"
       style="display:inline;overflow:visible;visibility:visible;fill:url(#radialGradient6201-9);fill-opacity:1;fill-rule:evenodd;stroke:none;stroke-width:1;stroke-linecap:round;stroke-linejoin:miter;stroke-miterlimit:4;stroke-dasharray:none;stroke-dashoffset:0.677417;stroke-opacity:1;marker:none;marker-start:none;marker-mid:none;marker-end:none;enable-background:accumulate" />
    <g
       transform="matrix(1.222459,0.3275569,-0.3275569,1.222459,15.102844,-16.514282)"
       id="g7413">
      <path
         d="m 13.4375,16.5 c -3.9188838,-1e-6 -7.09375,3.157775 -7.09375,7.0625 2e-7,2.818198 1.6046259,5.300595 4,6.4375 v 1.5 l 1.5,1.5 -1.5,1.5 v 1 l 2,1 v 1 l -2,1 v 1 l 1.5,1.5 -1.5,1.5 v 1 l 2.5,2 h 2.5 l 1,-1.5 V 30 c 2.372429,-1.145434 4,-3.698516 4,-6.5 0,-3.904724 -2.987366,-7 -6.90625,-7 z m -0.09375,2 c 1.104,0 2,0.896 2,2 0,1.104 -0.896,2 -2,2 -1.104,0 -2,-0.896 -2,-2 0,-1.104 0.896,-2 2,-2 z"
         id="path7415"
         style="fill:url(#linearGradient7425);fill-opacity:1;fill-rule:evenodd;stroke:#333333;stroke-width:0.79015;stroke-linecap:round;stroke-linejoin:miter;stroke-miterlimit:4;stroke-dasharray:none;stroke-opacity:0.45" />
      <path
         d="m 13.4375,17.28125 c -3.5016836,-1e-6 -6.3125,2.797504 -6.3125,6.28125 2e-7,2.523398 1.4413689,4.743258 3.5625,5.75 0.263994,0.128124 0.433244,0.394089 0.4375,0.6875 v 1.15625 l 1.28125,1.28125 c 0.153963,0.146602 0.241104,0.349905 0.241104,0.5625 0,0.212595 -0.08714,0.415898 -0.241104,0.5625 L 11.125,34.84375 v 0.1875 l 1.5625,0.78125 c 0.263994,0.128124 0.433244,0.394089 0.4375,0.6875 v 1 c -0.0043,0.293411 -0.173506,0.559376 -0.4375,0.6875 l -1.5625,0.78125 v 0.1875 l 1.28125,1.28125 c 0.153963,0.146602 0.241104,0.349905 0.241104,0.5625 0,0.212595 -0.08714,0.415898 -0.241104,0.5625 L 11.125,42.84375 V 43.125 l 2,1.59375 h 1.78125 L 15.5625,43.75 V 30 c 0.0043,-0.293411 0.173506,-0.559376 0.4375,-0.6875 2.090762,-1.009442 3.5625,-3.311816 3.5625,-5.8125 0,-3.508607 -2.615059,-6.21875 -6.125,-6.21875 z m -0.09375,0.4375 c 1.524208,0 2.78125,1.257042 2.78125,2.78125 0,1.524208 -1.257042,2.78125 -2.78125,2.78125 -1.524208,0 -2.78125,-1.257042 -2.78125,-2.78125 0,-1.524208 1.257042,-2.78125 2.78125,-2.78125 z"
         id="path7419"
         style="opacity:0.4;fill:none;fill-opacity:1;fill-rule:evenodd;stroke:url(#linearGradient3326-7);stroke-width:0.79015;stroke-linecap:round;stroke-linejoin:miter;stroke-miterlimit:4;stroke-dasharray:none;stroke-opacity:1" />
      <path
         d="m 13.40625,17.625 c -0.218712,0.0043 -0.466555,0.03416 -0.6875,0.0625 -0.93254,0.119629 -1.775868,0.460272 -2.53125,0.9375 0.173643,0.634817 0.42464,1.158079 0.71875,1.625 0.125954,-1.319354 1.241853,-2.34375 2.59375,-2.34375 1.436081,0 2.59375,1.157668 2.59375,2.59375 0,1.436083 -1.157669,2.59375 -2.59375,2.59375 -0.07717,0 -0.14697,-0.02119 -0.21875,-0.03125 1.059311,1.270254 2.021943,2.944267 2.28125,6.09375 2.266237,-0.909044 3.875,-2.925566 3.875,-5.59375 -0.08555,-2.601924 -1.541462,-4.611423 -4,-5.625 -0.680148,-0.225329 -1.363612,-0.325754 -2.03125,-0.3125 z M 15.375,34.6875 c -0.279435,2.585586 -0.854558,5.742004 -1.8125,9.6875 h 1.15625 L 15.375,43.0625 Z"
         id="path7421"
         style="opacity:0.6;fill:url(#linearGradient1);fill-opacity:1;fill-rule:evenodd;stroke:none;stroke-width:1;stroke-linecap:round;stroke-linejoin:miter;stroke-miterlimit:4;stroke-dasharray:none;stroke-opacity:1" />
      <rect
         width="16.311773"
         height="0.98128641"
         x="29"
         y="-14.84375"
         transform="rotate(90)"
         id="rect7423"
         style="opacity:0.615385;fill:url(#linearGradient7433);fill-opacity:1;fill-rule:evenodd;stroke:none;stroke-width:1;stroke-linecap:round;stroke-linejoin:miter;stroke-miterlimit:4;stroke-dasharray:none;stroke-opacity:1" />
    </g>
    <path
       d="M 23.896281,8.1648764 C 19.105606,9.4485326 16.258813,14.348734 17.537833,19.1221 c 0.92312,3.445131 3.697836,5.954154 6.998483,6.559352 l 0.491336,1.833689 2.325023,1.342353 -1.342353,2.325024 0.327557,1.222459 2.772475,0.567345 0.327557,1.222459 -2.117361,1.877573 0.327557,1.222459 2.325024,1.342353 -1.342353,2.325024 0.327556,1.222459 3.711262,1.626025 3.056147,-0.818892 0.731124,-2.161245 L 31.87107,23.716111 C 34.396073,21.538759 35.549432,17.884599 34.631786,14.4599 33.352767,9.6865345 28.686956,6.8812189 23.896281,8.1648764 Z m 0.540508,2.4756266 c 1.349595,-0.361623 2.738409,0.440209 3.100032,1.789804 0.361623,1.349595 -0.44021,2.738409 -1.789804,3.100032 -1.349595,0.361623 -2.738409,-0.44021 -3.100032,-1.789804 -0.361623,-1.349595 0.440209,-2.738409 1.789804,-3.100032 z"
       id="path6767"
       style="fill:url(#linearGradient2538-3);fill-opacity:1;fill-rule:evenodd;stroke:#333333;stroke-width:1;stroke-linecap:round;stroke-linejoin:miter;stroke-miterlimit:4;stroke-dasharray:none;stroke-opacity:0.45" />
    <path
       d="M 32.965358,15.561531 19.740581,19.1051 c 0.904057,3.373987 4.600134,5.318536 8.250173,4.340511 3.650039,-0.978025 5.878661,-4.510093 4.974604,-7.88408 z"
       id="path6769"
       style="opacity:0.3;fill:url(#linearGradient2535-6);fill-opacity:1;fill-rule:evenodd;stroke:none;stroke-width:1.02742;stroke-linecap:round;stroke-linejoin:miter;stroke-miterlimit:4;stroke-dasharray:none;stroke-opacity:1" />
    <path
       d="m 13.4375,17.28125 c -3.5016836,-1e-6 -6.3125,2.797504 -6.3125,6.28125 2e-7,2.523398 1.4413689,4.743258 3.5625,5.75 0.263994,0.128124 0.433244,0.394089 0.4375,0.6875 v 1.15625 l 1.28125,1.28125 c 0.153963,0.146602 0.241104,0.349905 0.241104,0.5625 0,0.212595 -0.08714,0.415898 -0.241104,0.5625 L 11.125,34.84375 v 0.1875 l 1.5625,0.78125 c 0.263994,0.128124 0.433244,0.394089 0.4375,0.6875 v 1 c -0.0043,0.293411 -0.173506,0.559376 -0.4375,0.6875 l -1.5625,0.78125 v 0.1875 l 1.28125,1.28125 c 0.153963,0.146602 0.241104,0.349905 0.241104,0.5625 0,0.212595 -0.08714,0.415898 -0.241104,0.5625 L 11.125,42.84375 V 43.125 l 2,1.59375 h 1.78125 L 15.5625,43.75 V 30 c 0.0043,-0.293411 0.173506,-0.559376 0.4375,-0.6875 2.090762,-1.009442 3.5625,-3.311816 3.5625,-5.8125 0,-3.508607 -2.615059,-6.21875 -6.125,-6.21875 z m -0.09375,0.4375 c 1.524208,0 2.78125,1.257042 2.78125,2.78125 0,1.524208 -1.257042,2.78125 -2.78125,2.78125 -1.524208,0 -2.78125,-1.257042 -2.78125,-2.78125 0,-1.524208 1.257042,-2.78125 2.78125,-2.78125 z"
       transform="matrix(1.222459,-0.3275569,0.3275569,1.222459,2.064799,-7.6041513)"
       id="path6771"
       style="opacity:0.4;fill:none;fill-opacity:1;fill-rule:evenodd;stroke:url(#linearGradient3318-8);stroke-width:0.79015;stroke-linecap:round;stroke-linejoin:miter;stroke-miterlimit:4;stroke-dasharray:none;stroke-opacity:1" />
    <path
       d="m 13.40625,17.625 c -0.218712,0.0043 -0.466555,0.03416 -0.6875,0.0625 -0.93254,0.119629 -1.775868,0.460272 -2.53125,0.9375 0.173643,0.634817 0.42464,1.158079 0.71875,1.625 0.125954,-1.319354 1.241853,-2.34375 2.59375,-2.34375 1.436081,0 2.59375,1.157668 2.59375,2.59375 0,1.436083 -1.157669,2.59375 -2.59375,2.59375 -0.07717,0 -0.14697,-0.02119 -0.21875,-0.03125 1.059311,1.270254 2.021943,2.944267 2.28125,6.09375 2.266237,-0.909044 3.875,-2.925566 3.875,-5.59375 -0.08555,-2.601924 -1.541462,-4.611423 -4,-5.625 -0.680148,-0.225329 -1.363612,-0.325754 -2.03125,-0.3125 z M 15.375,34.6875 c -0.279435,2.585586 -0.854558,5.742004 -1.8125,9.6875 h 1.15625 L 15.375,43.0625 Z"
       transform="matrix(1.222459,-0.3275569,0.3275569,1.222459,2.064799,-7.6041513)"
       id="path6832"
       style="opacity:0.6;fill:url(#linearGradient7431);fill-opacity:1;fill-rule:evenodd;stroke:none;stroke-width:1;stroke-linecap:round;stroke-linejoin:miter;stroke-miterlimit:4;stroke-dasharray:none;stroke-opacity:1" />
    <rect
       width="20.643898"
       height="1.2418991"
       x="29.89126"
       y="-22.748535"
       transform="rotate(75.000002)"
       id="rect6776"
       style="opacity:0.615385;fill:url(#linearGradient2530-9);fill-opacity:1;fill-rule:evenodd;stroke:none;stroke-width:1;stroke-linecap:round;stroke-linejoin:miter;stroke-miterlimit:4;stroke-dasharray:none;stroke-opacity:1" />
    <path
       d="M 7.973909,5.14413 C 6.383785,2.550006 8.912938,1.724058 13.619341,3.300498 c 4.706403,1.57644 9.816629,4.961246 11.406753,7.555371 0.789043,1.287243 0.643566,2.112963 -0.43671,2.478739"
       id="use6163"
       style="fill:none;fill-opacity:1;fill-rule:evenodd;stroke:url(#radialGradient6183-2);stroke-width:3;stroke-linecap:round;stroke-linejoin:miter;stroke-miterlimit:4;stroke-dashoffset:0.7;stroke-opacity:1" />
    <path
       d="M 10.813348,8.082144 C 6.962997,5.046919 6.385696,2.546748 9.524729,2.501404 12.663762,2.45606 18.336305,4.88263 22.186655,7.917855 c 3.791641,2.988943 4.422284,5.460973 1.422808,5.577195"
       id="use6167"
       style="fill:none;fill-opacity:1;fill-rule:evenodd;stroke:url(#radialGradient6191-3);stroke-width:1;stroke-linecap:round;stroke-linejoin:miter;stroke-miterlimit:4;stroke-dashoffset:0.7;stroke-opacity:1" />
    <path
       d="m 22.186054,7.917381 c 3.792118,2.989106 4.423052,5.46144 1.423409,5.577669"
       id="use6169"
       style="opacity:0.104072;fill:none;fill-opacity:1;fill-rule:evenodd;stroke:url(#linearGradient6195-9);stroke-width:1;stroke-linecap:round;stroke-linejoin:miter;stroke-miterlimit:4;stroke-dashoffset:0.7;stroke-opacity:1" />
  </g>
</svg>
