<?xml version="1.0" encoding="UTF-8" standalone="no"?>
<svg
   id="svg14288"
   height="32"
   width="32"
   version="1.1"
   xmlns:xlink="http://www.w3.org/1999/xlink"
   xmlns="http://www.w3.org/2000/svg"
   xmlns:svg="http://www.w3.org/2000/svg"
   xmlns:rdf="http://www.w3.org/1999/02/22-rdf-syntax-ns#"
   xmlns:cc="http://creativecommons.org/ns#"
   xmlns:dc="http://purl.org/dc/elements/1.1/">
  <defs
     id="defs14290">
    <linearGradient
       id="linearGradient5048-585-0">
      <stop
         offset="0"
         style="stop-color:#000000;stop-opacity:0"
         id="stop2667-18" />
      <stop
         offset="0.5"
         style="stop-color:#000000;stop-opacity:1"
         id="stop2669-9" />
      <stop
         offset="1"
         style="stop-color:#000000;stop-opacity:0"
         id="stop2671-33" />
    </linearGradient>
    <linearGradient
       id="linearGradient5060-179-67">
      <stop
         offset="0"
         style="stop-color:#000000;stop-opacity:1"
         id="stop2675-81" />
      <stop
         offset="1"
         style="stop-color:#000000;stop-opacity:0"
         id="stop2677-2" />
    </linearGradient>
    <radialGradient
       cx="14"
       cy="4.9179006"
       r="2"
       fx="14"
       fy="4.9179006"
       id="radialGradient3323"
       xlink:href="#linearGradient3520"
       gradientUnits="userSpaceOnUse"
       gradientTransform="matrix(1.4549755,-2.6431351e-8,4.9999995e-8,2.2746832,-6.3696571,-6.8389883)"
       spreadMethod="reflect" />
    <linearGradient
       id="linearGradient3520">
      <stop
         id="stop3522"
         style="stop-color:#f2f2f2;stop-opacity:1"
         offset="0" />
      <stop
         id="stop3524"
         style="stop-color:#999;stop-opacity:1"
         offset="1" />
    </linearGradient>
    <radialGradient
       cx="14"
       cy="4.9179006"
       r="2"
       fx="14"
       fy="4.9179006"
       id="radialGradient3313"
       xlink:href="#linearGradient3520"
       gradientUnits="userSpaceOnUse"
       gradientTransform="matrix(1.4549755,-2.6431351e-8,4.9999995e-8,2.2746832,-6.3696571,-6.8389883)"
       spreadMethod="reflect" />
    <linearGradient
       id="linearGradient3706">
      <stop
         id="stop3708"
         style="stop-color:white;stop-opacity:1"
         offset="0" />
      <stop
         id="stop3710"
         style="stop-color:white;stop-opacity:0"
         offset="1" />
    </linearGradient>
    <linearGradient
       x1="23.414803"
       y1="16"
       x2="23.414803"
       y2="20.000023"
       id="linearGradient3155"
       xlink:href="#linearGradient5060-179-67"
       gradientUnits="userSpaceOnUse"
       gradientTransform="matrix(0.58282901,0,0,0.49956781,5.0337382,1.3355118)" />
    <linearGradient
       x1="23.99999"
       y1="4.999989"
       x2="23.99999"
       y2="43"
       id="linearGradient3159"
       xlink:href="#linearGradient3706"
       gradientUnits="userSpaceOnUse"
       gradientTransform="matrix(0.57607844,0,0,0.59408041,5.1957602,0.39939198)" />
    <radialGradient
       cx="12.063192"
       cy="11.394437"
       r="19.99999"
       fx="12.063192"
       fy="11.394437"
       id="radialGradient3162"
       xlink:href="#linearGradient3357-0"
       gradientUnits="userSpaceOnUse"
       gradientTransform="matrix(0,0.66428174,-0.92696671,0,25.439843,0.28921791)" />
    <linearGradient
       id="linearGradient3357-0">
      <stop
         id="stop3359-5"
         style="stop-color:#f89b7e;stop-opacity:1"
         offset="0" />
      <stop
         id="stop3361-1"
         style="stop-color:#e35d4f;stop-opacity:1"
         offset="0.39678687" />
      <stop
         id="stop3363-1"
         style="stop-color:#c6262e;stop-opacity:1"
         offset="1" />
    </linearGradient>
    <linearGradient
       x1="24"
       y1="44"
       x2="24"
       y2="3.8990016"
       id="linearGradient3164"
       xlink:href="#linearGradient2490-0"
       gradientUnits="userSpaceOnUse"
       gradientTransform="matrix(0.58069418,0,0,0.59761388,5.0849806,0.31069126)" />
    <linearGradient
       id="linearGradient2490-0">
      <stop
         id="stop2492-2"
         style="stop-color:#791235;stop-opacity:1"
         offset="0" />
      <stop
         id="stop2494-1"
         style="stop-color:#dd3b27;stop-opacity:1"
         offset="1" />
    </linearGradient>
    <linearGradient
       x1="19.360001"
       y1="16.137854"
       x2="19.360001"
       y2="44.98436"
       id="linearGradient3172"
       xlink:href="#linearGradient3600-3"
       gradientUnits="userSpaceOnUse"
       gradientTransform="matrix(0.58069418,0,0,0.59777346,5.0849806,-0.26755256)" />
    <linearGradient
       id="linearGradient3600-3">
      <stop
         id="stop3602-6"
         style="stop-color:#f4f4f4;stop-opacity:1"
         offset="0" />
      <stop
         id="stop3604-8"
         style="stop-color:#dbdbdb;stop-opacity:1"
         offset="1" />
    </linearGradient>
    <linearGradient
       x1="24"
       y1="44"
       x2="24"
       y2="3.8904724"
       id="linearGradient3174"
       xlink:href="#linearGradient3104-2"
       gradientUnits="userSpaceOnUse"
       gradientTransform="matrix(0.58069418,0,0,0.59777346,5.0849806,0.31075687)" />
    <linearGradient
       id="linearGradient3104-2">
      <stop
         id="stop3106-8"
         style="stop-color:#787878;stop-opacity:1"
         offset="0" />
      <stop
         id="stop3108-9"
         style="stop-color:#aaa;stop-opacity:1"
         offset="1" />
    </linearGradient>
    <linearGradient
       x1="302.85715"
       y1="366.64789"
       x2="302.85715"
       y2="609.50507"
       id="linearGradient5619"
       xlink:href="#linearGradient5048-585-0"
       gradientUnits="userSpaceOnUse"
       gradientTransform="matrix(2.774389,0,0,1.969706,-1892.179,-872.8854)" />
    <radialGradient
       cx="605.71429"
       cy="486.64789"
       r="117.14286"
       fx="605.71429"
       fy="486.64789"
       id="radialGradient5621"
       xlink:href="#linearGradient5060-179-67"
       gradientUnits="userSpaceOnUse"
       gradientTransform="matrix(2.774389,0,0,1.969706,-1891.633,-872.8854)" />
    <radialGradient
       cx="605.71429"
       cy="486.64789"
       r="117.14286"
       fx="605.71429"
       fy="486.64789"
       id="radialGradient5623"
       xlink:href="#linearGradient5060-179-67"
       gradientUnits="userSpaceOnUse"
       gradientTransform="matrix(-2.774389,0,0,1.969706,112.7623,-872.8854)" />
    <linearGradient
       x1="7.5000005"
       y1="11.638641"
       x2="7.5000005"
       y2="17.251301"
       id="linearGradient6330"
       xlink:href="#linearGradient3600"
       gradientUnits="userSpaceOnUse"
       gradientTransform="matrix(1.0427702,0,0,1.0476233,-0.1768525,-0.61442882)" />
    <linearGradient
       id="linearGradient3600">
      <stop
         id="stop3602"
         style="stop-color:white;stop-opacity:1"
         offset="0" />
      <stop
         id="stop3604"
         style="stop-color:#e6e6e6;stop-opacity:1"
         offset="1" />
    </linearGradient>
  </defs>
  <metadata
     id="metadata14293">
    <rdf:RDF>
      <cc:Work
         rdf:about="">
        <dc:format>image/svg+xml</dc:format>
        <dc:type
           rdf:resource="http://purl.org/dc/dcmitype/StillImage" />
        <dc:title />
      </cc:Work>
    </rdf:RDF>
  </metadata>
  <g
     transform="matrix(0.01148187,0,0,0.00835473,30.662755,25.241618)"
     id="g5022"
     style="display:inline;opacity:0.587302">
    <rect
       width="1339.6335"
       height="478.35718"
       x="-1559.2523"
       y="-150.69685"
       id="rect4173"
       style="display:inline;overflow:visible;visibility:visible;opacity:0.402062;fill:url(#linearGradient5619);fill-opacity:1;fill-rule:nonzero;stroke:none;stroke-width:1;marker:none" />
    <path
       d="m -219.61876,-150.68038 c 0,0 0,478.33079 0,478.33079 142.874166,0.90045 345.40022,-107.16966 345.40014,-239.196175 0,-132.026537 -159.436816,-239.134595 -345.40014,-239.134615 z"
       id="path5058"
       style="display:inline;overflow:visible;visibility:visible;opacity:0.402062;fill:url(#radialGradient5621);fill-opacity:1;fill-rule:nonzero;stroke:none;stroke-width:1;marker:none" />
    <path
       d="m -1559.2523,-150.68038 c 0,0 0,478.33079 0,478.33079 -142.8742,0.90045 -345.4002,-107.16966 -345.4002,-239.196175 0,-132.026537 159.4368,-239.134595 345.4002,-239.134615 z"
       id="path5018"
       style="display:inline;overflow:visible;visibility:visible;opacity:0.402062;fill:url(#radialGradient5623);fill-opacity:1;fill-rule:nonzero;stroke:none;stroke-width:1;marker:none" />
  </g>
  <rect
     width="22.647074"
     height="23.31316"
     rx="1.3321809"
     ry="1.3321809"
     x="7.6981072"
     y="3.0007348"
     id="rect5505"
     style="fill:url(#linearGradient3172);fill-opacity:1;stroke:url(#linearGradient3174);stroke-width:0.666092;stroke-linecap:round;stroke-linejoin:round;stroke-miterlimit:4;stroke-dasharray:none;stroke-dashoffset:0;stroke-opacity:1" />
  <path
     d="m 8.9865187,3.0007374 c -0.718114,0 -1.2884152,0.5869183 -1.2884152,1.3259557 V 8.9955538 H 30.345174 V 4.3266931 c 0,-0.7390376 -0.5703,-1.3259557 -1.288414,-1.3259557 z"
     id="rect2424"
     style="fill:url(#radialGradient3162);fill-opacity:1;stroke:url(#linearGradient3164);stroke-width:0.666092;stroke-linecap:butt;stroke-linejoin:miter;stroke-miterlimit:4;stroke-dasharray:none;stroke-dashoffset:0;stroke-opacity:1" />
  <rect
     width="21.314894"
     height="21.980984"
     rx="0.66609043"
     ry="0.66609043"
     x="8.3641939"
     y="3.6668253"
     id="rect6741"
     style="opacity:0.4;fill:none;stroke:url(#linearGradient3159);stroke-width:0.666092;stroke-linecap:round;stroke-linejoin:round;stroke-miterlimit:4;stroke-dasharray:none;stroke-dashoffset:0;stroke-opacity:1" />
  <rect
     width="23.31316"
     height="1.9982711"
     rx="0"
     ry="0"
     x="7.3650579"
     y="9.3285961"
     id="rect3508"
     style="display:inline;overflow:visible;visibility:visible;opacity:0.3;fill:url(#linearGradient3155);fill-opacity:1;fill-rule:nonzero;stroke:none;stroke-width:0.666092;marker:none;enable-background:accumulate" />
  <g
     transform="matrix(0.6398943,0,0,0.69335883,0.03806433,0.00333358)"
     style="font-style:normal;font-variant:normal;font-weight:bold;font-stretch:normal;font-size:20.9591px;font-family:Arial;-inkscape-font-specification:'Arial Bold';fill:#4d4d4d;fill-opacity:1;stroke:none"
     id="text7623">
    <path
       d="m 28.817319,30.686393 v 2.671059 H 18.736885 c 0.109162,-1.009748 0.436648,-1.964915 0.982459,-2.865503 0.545808,-0.907406 1.623782,-2.108188 3.233926,-3.602348 1.296293,-1.207598 2.091128,-2.026312 2.384508,-2.456146 0.395705,-0.59356 0.593561,-1.180305 0.593569,-1.760238 -8e-6,-0.641316 -0.173985,-1.132545 -0.521931,-1.473688 -0.341138,-0.347942 -0.815311,-0.521919 -1.422518,-0.521931 -0.600397,1.2e-5 -1.07798,0.180812 -1.432752,0.542399 -0.354781,0.361611 -0.559459,0.962001 -0.614037,1.801174 L 19.074606,22.73462 c 0.170564,-1.582837 0.70614,-2.718804 1.606728,-3.407903 0.900584,-0.68907 2.026317,-1.033613 3.377201,-1.033628 1.480504,1.5e-5 2.64376,0.399139 3.489775,1.197371 0.845996,0.798261 1.268998,1.790952 1.269009,2.978078 -1.1e-5,0.67545 -0.122818,1.320188 -0.368422,1.934215 -0.238802,0.607222 -0.620869,1.245137 -1.146202,1.913747 -0.347963,0.443477 -0.975644,1.081393 -1.883045,1.913747 -0.907416,0.832365 -1.483928,1.384998 -1.729536,1.657899 -0.238798,0.272908 -0.433242,0.53899 -0.583335,0.798247 h 5.71054"
       style="fill:#4d4d4d"
       id="path3064" />
    <path
       d="m 33.238382,25.262404 c -0.743669,-0.313833 -1.286067,-0.743658 -1.627197,-1.289477 -0.33431,-0.552623 -0.501464,-1.156425 -0.501463,-1.811408 -1e-6,-1.118898 0.388888,-2.043364 1.16667,-2.773398 0.784599,-0.730007 1.896686,-1.095017 3.336265,-1.095032 1.425922,1.5e-5 2.531187,0.365025 3.315797,1.095032 0.791415,0.730034 1.187127,1.6545 1.187137,2.773398 -1e-5,0.695919 -0.180809,1.316778 -0.542399,1.862578 -0.361608,0.538996 -0.869893,0.951765 -1.524857,1.238307 0.832352,0.334316 1.463444,0.822134 1.893279,1.463454 0.436638,0.641333 0.654962,1.381587 0.654973,2.220765 -1.1e-5,1.384997 -0.443481,2.510729 -1.330413,3.377201 -0.880127,0.866474 -2.053618,1.299711 -3.520476,1.299711 -1.36453,0 -2.500497,-0.358188 -3.407903,-1.074564 -1.071154,-0.846004 -1.60673,-2.00585 -1.606729,-3.47954 -10e-7,-0.811888 0.201267,-1.555554 0.603803,-2.231 0.402533,-0.682256 1.037037,-1.207597 1.903513,-1.576027 m 0.593569,-2.896206 c -4e-6,0.573111 0.160327,1.019993 0.480995,1.340647 0.327481,0.320673 0.760718,0.481004 1.299711,0.480995 0.545804,9e-6 0.982452,-0.160322 1.309944,-0.480995 0.327479,-0.327476 0.491222,-0.77777 0.49123,-1.350881 -8e-6,-0.538976 -0.163751,-0.968801 -0.49123,-1.289476 -0.32067,-0.327474 -0.747084,-0.491217 -1.279242,-0.49123 -0.552639,1.3e-5 -0.992698,0.163756 -1.320179,0.49123 -0.32749,0.327498 -0.491233,0.760734 -0.491229,1.29971 m -0.266083,6.426916 c -3e-6,0.791429 0.201264,1.408876 0.603803,1.852344 0.409353,0.443473 0.917638,0.665208 1.524857,0.665206 0.593563,2e-6 1.084791,-0.211499 1.473688,-0.634505 0.388882,-0.429822 0.583327,-1.047269 0.583335,-1.852343 -8e-6,-0.702726 -0.197864,-1.265592 -0.593569,-1.688601 -0.395719,-0.429819 -0.897182,-0.644731 -1.504389,-0.644738 -0.702736,7e-6 -1.228078,0.24221 -1.576028,0.72661 -0.341135,0.484412 -0.5117,1.009754 -0.511697,1.576027"
       style="fill:#4d4d4d"
       id="path3066" />
  </g>
  <g
     transform="matrix(0.49956776,0,0,0.5550753,6.0328776,0.1143455)"
     id="g3541"
     style="display:inline">
    <rect
       width="4"
       height="11"
       rx="2.4114671"
       ry="1.8364248"
       x="12"
       y="2"
       id="rect3497"
       style="display:inline;overflow:visible;visibility:visible;opacity:0.4;fill:#ffffff;fill-opacity:1;fill-rule:nonzero;stroke:none;stroke-width:1;marker:none;enable-background:accumulate" />
    <rect
       width="4"
       height="4.3080912"
       rx="2.1158922"
       ry="1.9043027"
       x="12"
       y="7.6919107"
       id="rect3493"
       style="display:inline;overflow:visible;visibility:visible;fill:#cc3429;fill-opacity:1;fill-rule:nonzero;stroke:none;stroke-width:1;marker:none;enable-background:accumulate" />
    <rect
       width="4"
       height="10"
       rx="2.4114671"
       ry="1.6694771"
       x="12"
       y="1"
       id="rect3483"
       style="display:inline;overflow:visible;visibility:visible;fill:url(#radialGradient3313);fill-opacity:1;fill-rule:nonzero;stroke:none;stroke-width:1;marker:none;enable-background:accumulate" />
  </g>
  <g
     transform="matrix(0.49956776,0,0,0.5550753,18.022505,0.1143455)"
     id="g3315"
     style="display:inline">
    <rect
       width="4"
       height="11"
       rx="2.4114671"
       ry="1.8364248"
       x="12"
       y="2"
       id="rect3317"
       style="display:inline;overflow:visible;visibility:visible;opacity:0.4;fill:#ffffff;fill-opacity:1;fill-rule:nonzero;stroke:none;stroke-width:1;marker:none;enable-background:accumulate" />
    <rect
       width="4"
       height="4.3080912"
       rx="2.1158922"
       ry="1.9043027"
       x="12"
       y="7.6919107"
       id="rect3319"
       style="display:inline;overflow:visible;visibility:visible;fill:#cc3429;fill-opacity:1;fill-rule:nonzero;stroke:none;stroke-width:1;marker:none;enable-background:accumulate" />
    <rect
       width="4"
       height="10"
       rx="2.4114671"
       ry="1.6694771"
       x="12"
       y="1"
       id="rect3321"
       style="display:inline;overflow:visible;visibility:visible;fill:url(#radialGradient3323);fill-opacity:1;fill-rule:nonzero;stroke:none;stroke-width:1;marker:none;enable-background:accumulate" />
  </g>
  <g
     transform="matrix(1.2821808,0,0,1.2767965,-0.15278232,1.0546776)"
     id="g6754"
     style="stroke-width:0.814845">
    <path
       d="m 7.6392942,10.75 c -3.2528884,0 -5.8892941,2.648674 -5.8892941,5.916704 0,3.268028 2.6364057,5.926005 5.8892941,5.926005 3.2528888,0 5.8985568,-2.657977 5.8985548,-5.926005 0,-3.26803 -2.645666,-5.916704 -5.8985548,-5.916704 z"
       id="path2555"
       style="fill:url(#linearGradient6330);fill-opacity:1;stroke:#000000;stroke-width:1.22227;stroke-linecap:round;stroke-linejoin:round;stroke-miterlimit:4;stroke-dasharray:none;stroke-dashoffset:0;stroke-opacity:0.8" />
    <path
       d="m 7.098366,17.092264 3.05823,-3.279302"
       id="path2312-6"
       style="fill:none;stroke:#000000;stroke-width:0.407423;stroke-linecap:round;stroke-linejoin:miter;stroke-miterlimit:4;stroke-dasharray:none;stroke-opacity:1" />
    <path
       d="M 7.7837148,17.114229 5.6115207,14.897773"
       id="path2314-7"
       style="fill:none;stroke:#000000;stroke-width:0.407423;stroke-linecap:round;stroke-linejoin:miter;stroke-miterlimit:4;stroke-dasharray:none;stroke-opacity:1" />
    <path
       d="M 7.1516586,16.829444 10.581542,16.376699"
       id="path2316-5"
       style="fill:#ff0000;fill-rule:evenodd;stroke:#ff0000;stroke-width:0.407423;stroke-linecap:round;stroke-linejoin:miter;stroke-miterlimit:4;stroke-dasharray:none;stroke-opacity:1" />
  </g>
</svg>
