<?xml version="1.0" encoding="UTF-8" standalone="no"?>
<svg
   version="1.1"
   width="32"
   height="32"
   id="svg4106"
   sodipodi:docname="usb-creator-gtk.svg"
   inkscape:version="1.3.2 (091e20e, 2023-11-25)"
   xmlns:inkscape="http://www.inkscape.org/namespaces/inkscape"
   xmlns:sodipodi="http://sodipodi.sourceforge.net/DTD/sodipodi-0.dtd"
   xmlns:xlink="http://www.w3.org/1999/xlink"
   xmlns="http://www.w3.org/2000/svg"
   xmlns:svg="http://www.w3.org/2000/svg"
   xmlns:rdf="http://www.w3.org/1999/02/22-rdf-syntax-ns#"
   xmlns:cc="http://creativecommons.org/ns#"
   xmlns:dc="http://purl.org/dc/elements/1.1/">
  <sodipodi:namedview
     id="namedview102"
     pagecolor="#ffffff"
     bordercolor="#666666"
     borderopacity="1.0"
     inkscape:pageshadow="2"
     inkscape:pageopacity="0.0"
     inkscape:pagecheckerboard="0"
     showgrid="false"
     inkscape:zoom="8"
     inkscape:cx="-1.125"
     inkscape:cy="28.125"
     inkscape:window-width="1366"
     inkscape:window-height="719"
     inkscape:window-x="0"
     inkscape:window-y="25"
     inkscape:window-maximized="1"
     inkscape:current-layer="svg4106"
     inkscape:showpageshadow="2"
     inkscape:deskcolor="#d1d1d1"
     showguides="true" />
  <defs
     id="defs4108">
    <linearGradient
       id="linearGradient4011-7">
      <stop
         id="stop4013-1"
         style="stop-color:#ffffff;stop-opacity:1"
         offset="0" />
      <stop
         id="stop4015-9"
         style="stop-color:#ffffff;stop-opacity:0.23529412"
         offset="0.507761" />
      <stop
         id="stop4017-8"
         style="stop-color:#ffffff;stop-opacity:0.15686275"
         offset="0.83456558" />
      <stop
         id="stop4019-9"
         style="stop-color:#ffffff;stop-opacity:0.39215687"
         offset="1" />
    </linearGradient>
    <linearGradient
       gradientTransform="matrix(0.25417278,0,0,0.4115372,12.298626,6.0174497)"
       gradientUnits="userSpaceOnUse"
       xlink:href="#linearGradient4075"
       id="linearGradient4161-4"
       y2="41.946075"
       x2="11.11739"
       y1="-7.4956021"
       x1="11.11739" />
    <linearGradient
       id="linearGradient4075">
      <stop
         offset="0"
         style="stop-color:#ffffff;stop-opacity:1"
         id="stop4077" />
      <stop
         offset="0.03367912"
         style="stop-color:#ffffff;stop-opacity:0.23529412"
         id="stop4079" />
      <stop
         offset="0.99223143"
         style="stop-color:#ffffff;stop-opacity:0.15686275"
         id="stop4081" />
      <stop
         offset="1"
         style="stop-color:#ffffff;stop-opacity:0.39215687"
         id="stop4083" />
    </linearGradient>
    <linearGradient
       gradientTransform="matrix(0.96890899,0,0,0.96890899,-4.2538159,0.99491222)"
       gradientUnits="userSpaceOnUse"
       y2="23.996155"
       x2="16.875002"
       y1="0"
       x1="17"
       id="linearGradient4616"
       xlink:href="#linearGradient3600-8" />
    <linearGradient
       id="linearGradient3600-8">
      <stop
         offset="0"
         style="stop-color:#f4f4f4;stop-opacity:1"
         id="stop3602-2" />
      <stop
         offset="1"
         style="stop-color:#dbdbdb;stop-opacity:1"
         id="stop3604-5" />
    </linearGradient>
    <linearGradient
       xlink:href="#linearGradient4614"
       id="linearGradient4604"
       gradientUnits="userSpaceOnUse"
       gradientTransform="matrix(0.41697337,0,0,0.74330018,-33.728958,-1.1123191)"
       x1="116.7913"
       y1="-37.80846"
       x2="116.7913"
       y2="-26.979191" />
    <linearGradient
       id="linearGradient4614">
      <stop
         id="stop4606"
         style="stop-color:#ffffff;stop-opacity:1"
         offset="0" />
      <stop
         id="stop4608"
         style="stop-color:#ffffff;stop-opacity:0.23529412"
         offset="0.03140453" />
      <stop
         id="stop4610"
         style="stop-color:#ffffff;stop-opacity:0.15686275"
         offset="0.9812181" />
      <stop
         id="stop4612"
         style="stop-color:#ffffff;stop-opacity:0.39215687"
         offset="1" />
    </linearGradient>
    <radialGradient
       id="radialGradient7374-3"
       gradientUnits="userSpaceOnUse"
       cy="41.636002"
       cx="23.334999"
       gradientTransform="matrix(0.38537834,0,0,0.08758792,1.287301,26.371194)"
       r="22.627001">
      <stop
         id="stop23421-6"
         offset="0" />
      <stop
         id="stop23423-7"
         style="stop-opacity:0"
         offset="1" />
    </radialGradient>
    <linearGradient
       gradientTransform="matrix(0.57484957,0,0,0.42975527,-1149.0142,-1361.7717)"
       gradientUnits="userSpaceOnUse"
       xlink:href="#linearGradient947-5"
       id="linearGradient11527-6-5"
       y2="3241.9966"
       x2="2035.1652"
       y1="3208.0737"
       x1="2035.1652" />
    <linearGradient
       id="linearGradient947-5">
      <stop
         offset="0"
         style="stop-color:#64baff;stop-opacity:1"
         id="stop943-6" />
      <stop
         offset="1"
         style="stop-color:#3689e6;stop-opacity:1"
         id="stop945-2" />
    </linearGradient>
    <linearGradient
       gradientTransform="matrix(0.35135151,0,0,0.3513515,-2.203686,15.090701)"
       gradientUnits="userSpaceOnUse"
       xlink:href="#linearGradient4011-7"
       id="linearGradient12398-3"
       y2="44.340794"
       x2="71.204407"
       y1="6.2375584"
       x1="71.204407" />
    <radialGradient
       xlink:href="#linearGradient3820-7-2-2"
       id="radialGradient4048"
       gradientUnits="userSpaceOnUse"
       gradientTransform="matrix(0.1035541,0,0,0.02078802,12.731884,26.824566)"
       cx="99.157013"
       cy="186.17059"
       fx="99.157013"
       fy="186.17059"
       r="62.769119" />
    <linearGradient
       id="linearGradient3820-7-2-2">
      <stop
         id="stop3822-2-6-36"
         style="stop-color:#3d3d3d;stop-opacity:1"
         offset="0" />
      <stop
         id="stop3864-8-7-6"
         style="stop-color:#686868;stop-opacity:0.49803922"
         offset="0.5" />
      <stop
         id="stop3824-1-2-4"
         style="stop-color:#686868;stop-opacity:0"
         offset="1" />
    </linearGradient>
    <radialGradient
       cx="5.7800279"
       cy="8.4497671"
       r="19.99999"
       fx="5.7800279"
       fy="8.4497671"
       id="radialGradient3119"
       xlink:href="#linearGradient2867-449-88-871-390-598-476-591-434-148-57-177-3-8"
       gradientUnits="userSpaceOnUse"
       gradientTransform="matrix(0,0.89892574,-0.95095622,-1.6561642e-8,16.035401,-6.0146846)" />
    <linearGradient
       id="linearGradient2867-449-88-871-390-598-476-591-434-148-57-177-3-8">
      <stop
         id="stop3750-8-9"
         style="stop-color:#90dbec;stop-opacity:1"
         offset="0" />
      <stop
         id="stop3752-3-2"
         style="stop-color:#55c1ec;stop-opacity:1"
         offset="0.26238" />
      <stop
         id="stop3754-7-2"
         style="stop-color:#3689e6;stop-opacity:1"
         offset="0.704952" />
      <stop
         id="stop3756-9-3"
         style="stop-color:#2b63a0;stop-opacity:1"
         offset="1" />
    </linearGradient>
    <linearGradient
       x1="24"
       y1="44"
       x2="24"
       y2="3.8990016"
       id="linearGradient3121"
       xlink:href="#linearGradient3707-319-631-407-324-3-8"
       gradientUnits="userSpaceOnUse"
       gradientTransform="matrix(0.38465107,0,0,0.38465106,-1.231625,-1.2316257)" />
    <linearGradient
       id="linearGradient3707-319-631-407-324-3-8">
      <stop
         id="stop3760-7-3"
         style="stop-color:#185f9a;stop-opacity:1"
         offset="0" />
      <stop
         id="stop3762-8-4"
         style="stop-color:#599ec9;stop-opacity:1"
         offset="1" />
    </linearGradient>
    <linearGradient
       x1="71.204407"
       y1="6.2375584"
       x2="71.204407"
       y2="44.340794"
       id="linearGradient3071"
       xlink:href="#linearGradient4011-7"
       gradientUnits="userSpaceOnUse"
       gradientTransform="matrix(0.35135136,0,0,0.35135136,-17.203671,-0.90930013)" />
  </defs>
  <metadata
     id="metadata4111">
    <rdf:RDF>
      <cc:Work
         rdf:about="">
        <dc:format>image/svg+xml</dc:format>
        <dc:type
           rdf:resource="http://purl.org/dc/dcmitype/StillImage" />
      </cc:Work>
    </rdf:RDF>
  </metadata>
  <path
     id="path23417"
     style="display:inline;opacity:0.3;fill:url(#radialGradient7374-3);fill-rule:evenodd;stroke-width:0.968909"
     d="m 19,30.018141 c 0,2.642478 -17.4403619,2.642478 -17.4403619,0 0,-2.642477 17.4403619,-2.642477 17.4403619,0 z" />
  <path
     d="m 29.499999,30.694683 a 6.4999999,1.3048453 0 1 1 -12.999999,0 6.4999999,1.3048453 0 1 1 12.999999,0 z"
     id="path3818-0-2"
     style="display:inline;fill:url(#radialGradient4048);fill-opacity:1;stroke:none;stroke-width:0.807871" />
  <rect
     id="rect3448"
     style="display:inline;fill:#e6e6e6;fill-opacity:1;stroke:#000000;stroke-width:0.968909;stroke-opacity:0.302326"
     transform="scale(1,-1)"
     rx="0.96890897"
     ry="0.96890897"
     height="10.657999"
     width="10.657999"
     y="-30.546637"
     x="4.95082" />
  <path
     style="display:inline;opacity:0.4;fill:#000000;fill-opacity:1;stroke:none;stroke-width:1.93782;stroke-linecap:round;stroke-linejoin:round;stroke-miterlimit:4;stroke-dasharray:none;stroke-dashoffset:0;stroke-opacity:0.4"
     d="m 7.373092,27.155455 v 1.937818 h 1.9378181 v -1.937818 z m 3.875636,0 v 1.937818 h 1.937818 V 27.155455 Z M 7.8575465,27.63991 h 0.9689091 v 0.968909 H 7.8575465 Z m 3.8756365,0 h 0.968909 v 0.968909 h -0.968909 z"
     id="rect4570" />
  <rect
     id="rect3458"
     style="display:inline;opacity:0.6;fill:none;fill-opacity:1;stroke:url(#linearGradient4604);stroke-width:0.968909;stroke-linecap:round;stroke-linejoin:round;stroke-miterlimit:4;stroke-dasharray:none;stroke-dashoffset:0;stroke-opacity:1;marker:none"
     transform="scale(1,-1)"
     height="8.7201805"
     width="8.7201805"
     y="-29.550745"
     x="5.9143295" />
  <path
     style="display:inline;overflow:visible;visibility:visible;fill:url(#linearGradient4616);fill-opacity:1;fill-rule:nonzero;stroke:#000000;stroke-width:0.968909;stroke-opacity:0.265116;marker:none;enable-background:accumulate"
     id="rect2990"
     d="M 3.0130016,2.9327306 3.023958,23.764274 c -0.032395,1.00427 0.9124385,0.960831 0.9124385,0.960831 H 16.435254 c 1.036667,0.0324 1.100429,-0.960831 1.100429,-0.960831 l 0.01095,-20.8315434 c 0,0 -0.01901,-1.4533635 -1.453364,-1.4533635 H 4.466365 c -0.8074241,0 -1.4537882,0.6459395 -1.4533634,1.4533635 z" />
  <path
     style="color:#000000;display:inline;overflow:visible;visibility:visible;opacity:0.8;fill:none;stroke:url(#linearGradient4161-4);stroke-width:0.968909;stroke-linecap:round;stroke-linejoin:round;stroke-miterlimit:4;stroke-dasharray:none;stroke-dashoffset:0;stroke-opacity:1;marker:none;enable-background:accumulate"
     id="path4034"
     d="m 4.466365,2.4179977 c 0,0 -0.5095322,0.038257 -0.4844544,0.5147329 V 23.764274 H 16.577728 V 2.9327306 C 16.552468,2.4014466 16.093273,2.4179977 16.093273,2.4179977 Z" />
  <path
     d="m 8.809833,21.514321 c 0,-1.012592 0.3365476,-1.275292 0.7487893,-1.628835 0.3309522,-0.15976 0.3838324,-0.268828 0.379481,-0.782631 C 9.9333556,18.535063 9.8789514,18.599921 8.8265825,17.686384 7.2197845,16.291634 7.0036945,15.955292 6.8150334,14.555705 6.6758671,13.523454 6.7734769,13.750561 6.3739918,13.353499 5.6386935,12.622688 5.7646691,11.55091 6.6399971,11.090276 c 0.7885601,-0.41496 1.7226911,0.02638 2.0107565,0.95004 0.141981,0.455223 -0.1984035,1.241365 -0.655465,1.513816 -0.4182596,0.249343 -0.5917816,-0.166364 -0.4961338,0.752752 0.052942,0.508707 0.1819398,1.093765 0.2866702,1.300104 0.1798711,0.354368 1.9412383,2.022567 2.1328332,2.022567 V 7.4597083 H 8.9422925 C 9.3941307,6.6765232 9.8340774,5.8803377 10.271647,5.0919207 l 1.393324,2.3681047 H 10.715955 V 14.44957 c 0.13199,0 1.426061,-1.313342 1.86149,-1.904615 0.188139,-0.25547 0.30231,-0.618217 0.30231,-0.960507 0,-0.516232 0.17024,-0.624784 -0.223509,-0.624784 H 12.236752 V 8.5406675 h 2.37714 v 2.4189965 h -0.384537 c -0.34311,0.04017 -0.588347,0.215058 -0.65312,0.787466 -0.0966,0.853655 -0.462214,1.413934 -1.807746,2.770239 l -1.052543,1.135065 v 4.047831 l 0.311039,0.185634 c 0.211499,0.102098 0.502775,0.432012 0.647284,0.733142 0.514462,1.074105 -0.201345,2.228273 -1.381671,2.228273 -0.8553209,-0.0317 -1.483137,-0.470863 -1.483137,-1.331733 z"
     style="display:inline;opacity:0.4;fill:#ffffff;fill-opacity:1;stroke-width:0.968909"
     id="path4625" />
  <path
     id="path3690"
     style="display:inline;fill:#aaaaaa;stroke-width:0.968909"
     d="m 8.809833,20.545412 c 0,-1.012592 0.3365476,-1.275292 0.7487893,-1.628835 0.3309522,-0.15976 0.3838324,-0.268828 0.379481,-0.782631 C 9.9333556,17.566154 9.8789514,17.631012 8.8265825,16.717475 7.2197845,15.322725 7.0036945,14.986383 6.8150334,13.586796 6.6758671,12.554545 6.7734769,12.781652 6.3739918,12.38459 5.6386935,11.653779 5.7646691,10.582001 6.6399971,10.121367 c 0.7885601,-0.414961 1.7226911,0.02638 2.0107565,0.950041 0.141981,0.455222 -0.1984035,1.241364 -0.655465,1.513815 -0.4182596,0.249343 -0.5917816,-0.166364 -0.4961338,0.752752 0.052942,0.508707 0.1819398,1.093765 0.2866702,1.300104 0.1798711,0.354368 1.9412383,2.022567 2.1328332,2.022567 V 6.4907993 H 8.9422925 C 9.3941307,5.7076141 9.8340774,4.9114287 10.271647,4.1230117 l 1.393324,2.3681047 h -0.949016 v 6.9895446 c 0.13199,0 1.426061,-1.313342 1.86149,-1.904615 0.188139,-0.25547 0.30231,-0.618217 0.30231,-0.960507 0,-0.516232 0.17024,-0.624784 -0.223509,-0.624784 H 12.236752 V 7.5717585 h 2.37714 V 9.990755 h -0.384537 c -0.34311,0.040172 -0.588347,0.215058 -0.65312,0.787466 -0.0966,0.853655 -0.462214,1.413934 -1.807746,2.770239 l -1.052543,1.135065 v 4.047831 l 0.311039,0.185634 c 0.211499,0.102098 0.502775,0.432012 0.647284,0.733142 0.514462,1.074105 -0.201345,2.228273 -1.381671,2.228273 -0.8553209,-0.0317 -1.483137,-0.470863 -1.483137,-1.331733 z" />
  <g
     id="g4622"
     style="display:inline;opacity:0.2"
     transform="matrix(0.96890899,0,0,0.96890899,-1.347089,7.7772756)">
    <path
       id="rect4618"
       d="m 9.5,20.5 v 1 h 1 v -1 z m 4,0 v 1 h 1 v -1 z"
       style="opacity:1;fill:#000000;fill-opacity:1;stroke:none;stroke-width:2;stroke-linecap:round;stroke-linejoin:round;stroke-miterlimit:4;stroke-dasharray:none;stroke-dashoffset:0;stroke-opacity:0.4" />
  </g>
  <path
     id="path4666"
     d="m 5.435274,25.217637 h 9.68909"
     style="display:inline;opacity:0.1;fill:none;fill-rule:evenodd;stroke:#000000;stroke-width:0.968909px;stroke-linecap:butt;stroke-linejoin:miter;stroke-opacity:1" />
  <path
     style="color:#000000;display:inline;overflow:visible;visibility:visible;opacity:0.99;fill:url(#linearGradient11527-6-5);fill-opacity:1;fill-rule:nonzero;stroke:none;stroke-width:0.999996;marker:none;enable-background:accumulate"
     id="path2555-7-8-5-0-9"
     d="m 23,16.5 c -4.138243,0 -7.5,3.361757 -7.5,7.5 0,4.138242 3.361757,7.499999 7.5,7.499999 4.138243,0 7.500007,-3.361757 7.5,-7.499999 0,-4.138243 -3.361757,-7.5 -7.5,-7.5 z" />
  <path
     style="color:#000000;display:inline;overflow:visible;visibility:visible;opacity:0.5;fill:none;stroke:url(#linearGradient12398-3);stroke-width:0.999996;stroke-linecap:round;stroke-linejoin:round;stroke-miterlimit:4;stroke-dasharray:none;stroke-dashoffset:0;stroke-opacity:1;marker:none;enable-background:accumulate"
     id="path8655-6-0-9-5-0"
     d="m 29.499998,23.999768 c 0,3.589972 -2.910367,6.500236 -6.499921,6.500236 -3.589885,0 -6.500079,-2.910298 -6.500079,-6.500236 0,-3.589801 2.910194,-6.49977 6.500079,-6.49977 3.589554,0 6.499921,2.909969 6.499921,6.49977 z" />
  <path
     style="color:#000000;clip-rule:nonzero;display:inline;overflow:visible;visibility:visible;opacity:0.5;isolation:auto;mix-blend-mode:normal;color-interpolation:sRGB;color-interpolation-filters:linearRGB;solid-color:#000000;solid-opacity:1;vector-effect:none;fill:none;fill-opacity:1;fill-rule:nonzero;stroke:#002e99;stroke-width:1;stroke-linecap:round;stroke-linejoin:round;stroke-miterlimit:4;stroke-dasharray:none;stroke-dashoffset:0;stroke-opacity:1;marker:none;color-rendering:auto;image-rendering:auto;shape-rendering:auto;text-rendering:auto;enable-background:accumulate"
     id="path2555-4"
     d="M 23.000001,16.5 C 18.86176,16.5 15.5,19.861759 15.5,24 c 0,4.138241 3.36176,7.500001 7.500001,7.5 4.13824,0 7.500004,-3.361759 7.5,-7.5 0,-4.138241 -3.36176,-7.5 -7.5,-7.5 z" />
  <g
     transform="translate(15.002007,15.99912)"
     id="layer1-5"
     style="display:inline">
    <path
       d="m 8.000001,0.49999997 c -4.138241,0 -7.50000103,3.36175853 -7.50000103,7.49999993 C 0.49999997,12.138242 3.86176,15.500001 8.000001,15.5 12.13824,15.5 15.500004,12.138242 15.5,7.9999999 15.5,3.8617585 12.13824,0.49999997 8.000001,0.49999997 Z"
       id="path2555-7"
       style="color:#000000;display:inline;overflow:visible;visibility:visible;fill:url(#radialGradient3119);fill-opacity:1;fill-rule:nonzero;stroke:url(#linearGradient3121);stroke-width:1;stroke-linecap:round;stroke-linejoin:round;stroke-miterlimit:4;stroke-dasharray:none;stroke-dashoffset:0;stroke-opacity:1;marker:none;enable-background:accumulate" />
    <path
       d="M 14.5,7.999769 C 14.5,11.589737 11.589636,14.5 8.0000824,14.5 4.4101993,14.5 1.5,11.589703 1.5,7.999769 1.5,4.4099697 4.4101993,1.5000003 8.0000824,1.5000003 11.589636,1.5000003 14.5,4.4099697 14.5,7.999769 Z"
       id="path8655-6"
       style="color:#000000;display:inline;overflow:visible;visibility:visible;opacity:0.5;fill:none;stroke:url(#linearGradient3071);stroke-width:1;stroke-linecap:round;stroke-linejoin:round;stroke-miterlimit:4;stroke-dasharray:none;stroke-dashoffset:0;stroke-opacity:1;marker:none;enable-background:accumulate" />
  </g>
  <path
     style="color:#000000;display:inline;opacity:0.05;fill:#002e99;-inkscape-stroke:none"
     d="m 22.714844,19.00869 c -0.973998,-0.01136 -1.796096,0.942079 -1.694461,1.900566 -0.0055,1.033145 -0.01098,2.066289 -0.01648,3.099434 -0.639821,0.02211 -1.343914,-0.109188 -1.899364,0.295441 -0.831571,0.521524 -1.018591,1.790244 -0.342823,2.509249 1.026269,1.079388 2.038776,2.172746 3.07366,3.243387 0.719269,0.678208 1.969343,0.56674 2.576595,-0.205423 0.961078,-1.039352 1.935231,-2.06735 2.888138,-3.1138 0.654505,-0.777635 0.348972,-2.080369 -0.556621,-2.525128 -0.533085,-0.299013 -1.1558,-0.178922 -1.73763,-0.203726 9.85e-4,-1.138952 0.02225,-2.278565 0.01042,-3.417099 -0.07587,-0.928576 -0.977726,-1.681443 -1.905382,-1.582901 -0.132017,0 -0.264035,0 -0.396052,0 z"
     id="path37740"
     sodipodi:nodetypes="sscccccccccscccccccccccs" />
  <path
     style="display:inline;opacity:0.15;vector-effect:none;fill:#002e99;fill-opacity:1;stroke:none;stroke-width:0.999994;stroke-linecap:butt;stroke-linejoin:miter;stroke-miterlimit:4;stroke-dasharray:none;stroke-dashoffset:0;stroke-opacity:1;marker:none;paint-order:normal"
     d="m 23.022323,29.49969 c 0.200311,0 0.400618,-0.07614 0.551439,-0.224837 l 2.916839,-3.135011 c 0.339686,-0.405712 -0.0087,-1.125179 -0.551437,-1.140624 h -1.938803 l 0.02233,-4.297605 c -0.01506,-0.381531 -0.294202,-0.687504 -0.69385,-0.701923 h -0.613023 c -0.34622,0 -0.690451,0.36373 -0.693849,0.701923 l -0.02233,4.297605 h -1.938817 c -0.542614,0.01544 -0.891123,0.734912 -0.551437,1.140624 l 2.961501,3.135011 c 0.150813,0.148692 0.35113,0.224837 0.551437,0.224837 z"
     id="path37738"
     sodipodi:nodetypes="sccccccscccccs" />
  <path
     style="display:inline;opacity:1;vector-effect:none;fill:#ffffff;fill-opacity:1;stroke:none;stroke-width:0.999994;stroke-linecap:butt;stroke-linejoin:miter;stroke-miterlimit:4;stroke-dasharray:none;stroke-dashoffset:0;stroke-opacity:1;marker:none;paint-order:normal"
     d="m 23.022323,28.49969 c 0.200311,0 0.400618,-0.07614 0.551439,-0.224837 l 2.916839,-3.135011 c 0.339686,-0.405712 -0.0087,-1.125179 -0.551437,-1.140624 h -1.938803 l 0.02233,-4.297605 c -0.01506,-0.381531 -0.294202,-0.687504 -0.69385,-0.701923 h -0.613023 c -0.34622,0 -0.690451,0.36373 -0.693849,0.701923 l -0.02233,4.297605 h -1.938817 c -0.542614,0.01544 -0.891123,0.734912 -0.551437,1.140624 l 2.961501,3.135011 c 0.150813,0.148692 0.35113,0.224837 0.551437,0.224837 z"
     id="path818-7"
     sodipodi:nodetypes="sccccccscccccs" />
</svg>
