<?xml version="1.0" encoding="UTF-8" standalone="no"?>
<svg
   version="1.0"
   width="32"
   height="32"
   id="svg3721"
   xmlns:xlink="http://www.w3.org/1999/xlink"
   xmlns="http://www.w3.org/2000/svg"
   xmlns:svg="http://www.w3.org/2000/svg"
   xmlns:rdf="http://www.w3.org/1999/02/22-rdf-syntax-ns#"
   xmlns:cc="http://creativecommons.org/ns#"
   xmlns:dc="http://purl.org/dc/elements/1.1/">
  <metadata
     id="metadata147771">
    <rdf:RDF>
      <cc:Work
         rdf:about="">
        <dc:format>image/svg+xml</dc:format>
        <dc:type
           rdf:resource="http://purl.org/dc/dcmitype/StillImage" />
        <dc:title />
      </cc:Work>
    </rdf:RDF>
  </metadata>
  <defs
     id="defs3723">
    <linearGradient
       id="linearGradient5638">
      <stop
         id="stop5640"
         style="stop-color:#ffffff;stop-opacity:1"
         offset="0" />
      <stop
         id="stop5642"
         style="stop-color:#ffffff;stop-opacity:0"
         offset="1" />
    </linearGradient>
    <radialGradient
       xlink:href="#linearGradient3837"
       id="radialGradient3843"
       cx="15.046189"
       cy="24.644342"
       fx="15.046189"
       fy="24.644342"
       r="23"
       gradientTransform="matrix(-1.0329952,0.84230662,-0.7706288,-0.90063048,61.830983,1032.3565)"
       gradientUnits="userSpaceOnUse" />
    <linearGradient
       id="linearGradient3837">
      <stop
         style="stop-color:#242424;stop-opacity:1;"
         offset="0"
         id="stop3839" />
      <stop
         style="stop-color:#000000;stop-opacity:1;"
         offset="1"
         id="stop3841" />
    </linearGradient>
    <linearGradient
       xlink:href="#linearGradient3880"
       id="linearGradient3886"
       x1="21.094191"
       y1="43.350079"
       x2="21.094191"
       y2="-16.821482"
       gradientUnits="userSpaceOnUse"
       gradientTransform="matrix(1,0,0,0.97619517,0,1004.4232)" />
    <linearGradient
       id="linearGradient3880">
      <stop
         style="stop-color:#000000;stop-opacity:1;"
         offset="0"
         id="stop3882" />
      <stop
         style="stop-color:#6d6d6d;stop-opacity:1;"
         offset="1"
         id="stop3884" />
    </linearGradient>
    <radialGradient
       r="19.99999"
       fy="8.4497671"
       fx="5.7800279"
       cy="8.4497671"
       cx="5.7800279"
       gradientTransform="matrix(0,0.83909693,-0.88766738,-1.5459367e-8,15.638031,-5.2380202)"
       gradientUnits="userSpaceOnUse"
       id="radialGradient4076"
       xlink:href="#linearGradient2867-449-88-871-390-598-476-591-434-148-57-177-3-8-7" />
    <linearGradient
       id="linearGradient2867-449-88-871-390-598-476-591-434-148-57-177-3-8-7">
      <stop
         id="stop3750-8-9-0"
         style="stop-color:#90dbec;stop-opacity:1;"
         offset="0" />
      <stop
         id="stop3752-3-2-4"
         style="stop-color:#55c1ec;stop-opacity:1;"
         offset="0.26238" />
      <stop
         id="stop3754-7-2-8"
         style="stop-color:#3689e6;stop-opacity:1;"
         offset="0.704952" />
      <stop
         id="stop3756-9-3-4"
         style="stop-color:#2b63a0;stop-opacity:1;"
         offset="1" />
    </linearGradient>
    <linearGradient
       y2="3.8990016"
       x2="24"
       y1="44"
       x1="24"
       gradientTransform="matrix(0.35905145,0,0,0.35905026,-0.47982496,-0.77330212)"
       gradientUnits="userSpaceOnUse"
       id="linearGradient4078"
       xlink:href="#linearGradient3707-319-631-407-324-3-8-8" />
    <linearGradient
       id="linearGradient3707-319-631-407-324-3-8-8">
      <stop
         id="stop3760-7-3-1"
         style="stop-color:#185f9a;stop-opacity:1;"
         offset="0" />
      <stop
         id="stop3762-8-4-6"
         style="stop-color:#599ec9;stop-opacity:1;"
         offset="1" />
    </linearGradient>
    <linearGradient
       xlink:href="#linearGradient3707-319-631-407-324-3-8-8"
       id="linearGradient4037"
       gradientUnits="userSpaceOnUse"
       x1="7.8555918"
       y1="15.85593"
       x2="7.8555918"
       y2="-0.12225635"
       gradientTransform="matrix(0.93344716,0,0,0.9334441,0.6698319,0.52144241)" />
    <linearGradient
       xlink:href="#linearGradient4011-8"
       id="linearGradient3071"
       gradientUnits="userSpaceOnUse"
       gradientTransform="matrix(0.2942387,0,0,0.29461082,-12.998505,0.37071625)"
       x1="71.204407"
       y1="6.2375584"
       x2="71.204407"
       y2="44.340794" />
    <linearGradient
       id="linearGradient4011-8">
      <stop
         id="stop4013-5"
         style="stop-color:#ffffff;stop-opacity:1;"
         offset="0" />
      <stop
         offset="0.507761"
         style="stop-color:#ffffff;stop-opacity:0.23529412;"
         id="stop4015-2" />
      <stop
         id="stop4017-1"
         style="stop-color:#ffffff;stop-opacity:0.15686275;"
         offset="0.83456558" />
      <stop
         id="stop4019-9"
         style="stop-color:#ffffff;stop-opacity:0.39215687;"
         offset="1" />
    </linearGradient>
    <radialGradient
       xlink:href="#linearGradient3688-166-749"
       id="radialGradient3013"
       gradientUnits="userSpaceOnUse"
       gradientTransform="matrix(2.003784,0,0,1.4,27.98813,-17.4)"
       cx="4.9929786"
       cy="43.5"
       fx="4.9929786"
       fy="43.5"
       r="2.5" />
    <linearGradient
       id="linearGradient3688-166-749">
      <stop
         offset="0"
         style="stop-color:#181818;stop-opacity:1"
         id="stop2883" />
      <stop
         offset="1"
         style="stop-color:#181818;stop-opacity:0"
         id="stop2885" />
    </linearGradient>
    <radialGradient
       xlink:href="#linearGradient3688-166-749"
       id="radialGradient3015"
       gradientUnits="userSpaceOnUse"
       gradientTransform="matrix(2.003784,0,0,1.4,-20.01187,-104.4)"
       cx="4.9929786"
       cy="43.5"
       fx="4.9929786"
       fy="43.5"
       r="2.5" />
    <linearGradient
       y2="39.999443"
       x2="25.058096"
       y1="47.027729"
       x1="25.058096"
       gradientUnits="userSpaceOnUse"
       id="linearGradient3063"
       xlink:href="#linearGradient3702-501-757" />
    <linearGradient
       id="linearGradient3702-501-757">
      <stop
         offset="0"
         style="stop-color:#181818;stop-opacity:0"
         id="stop2895" />
      <stop
         offset="0.5"
         style="stop-color:#181818;stop-opacity:1"
         id="stop2897" />
      <stop
         offset="1"
         style="stop-color:#181818;stop-opacity:0"
         id="stop2899" />
    </linearGradient>
    <linearGradient
       xlink:href="#linearGradient5638"
       id="linearGradient3878"
       x1="23.664051"
       y1="1013.0043"
       x2="23.664051"
       y2="1062.3185"
       gradientUnits="userSpaceOnUse"
       gradientTransform="matrix(0.9724254,0,0,0.93371713,0.6455127,67.670826)" />
  </defs>
  <g
     id="layer1"
     transform="matrix(0.64427764,0,0,0.6439918,0.53741667,-645.78853)"
     style="display:inline;stroke-width:1.55248">
    <path
       style="fill:url(#radialGradient3843);fill-opacity:1;stroke:url(#linearGradient3886);stroke-width:1.55248;stroke-opacity:1"
       d="m 33.5,1007.8399 -3,6.8333 H 6.125 c -2.5545286,0 -4.625,1.6948 -4.625,4.0269 v 21.0492 c 0,2.332 2.0704714,4.2098 4.625,4.2098 h 35.75 c 2.554529,0 4.625,-1.8778 4.625,-4.2098 v -21.0492 c 0,-2.3321 -2.070471,-4.0269 -4.625,-4.0269 H 36.5 Z"
       id="path3867" />
    <g
       style="display:inline;opacity:0.6;stroke-width:1.55248"
       id="g3712"
       transform="matrix(1.2105263,0,0,0.6428571,-5.0526311,1017.1479)">
      <rect
         style="fill:url(#radialGradient3013);fill-opacity:1;stroke:none;stroke-width:1.55248"
         id="rect2801"
         y="40"
         x="38"
         height="7"
         width="5" />
      <rect
         style="fill:url(#radialGradient3015);fill-opacity:1;stroke:none;stroke-width:1.55248"
         id="rect3696"
         transform="scale(-1)"
         y="-47"
         x="-10"
         height="7"
         width="5" />
      <rect
         style="fill:url(#linearGradient3063);fill-opacity:1;stroke:none;stroke-width:1.55248"
         id="rect3700"
         y="40"
         x="10"
         height="7.0000005"
         width="28" />
    </g>
    <g
       id="g3003"
       transform="translate(5,1021.3622)"
       style="display:inline;stroke-width:1.55248">
      <path
         d="m 8.1374101,0.84307362 c -3.8628293,0 -7.0008547,3.13801368 -7.0008547,7.00083068 0,3.8628177 3.1380254,7.0008317 7.0008547,7.0008307 3.8628279,0 7.0008569,-3.138013 7.0008529,-7.0008307 0,-3.862817 -3.138025,-7.00083068 -7.0008529,-7.00083068 z"
         id="path2555-7-9"
         style="color:#000000;display:inline;overflow:visible;visibility:visible;fill:url(#radialGradient4076);fill-opacity:1;fill-rule:nonzero;stroke:url(#linearGradient4078);stroke-width:1.55248;stroke-linecap:round;stroke-linejoin:round;stroke-miterlimit:4;stroke-dasharray:none;stroke-dashoffset:0;stroke-opacity:1;marker:none;enable-background:accumulate" />
      <path
         d="M 6.1594346,6.6855221 C 6.2632478,6.9401313 6.3768913,7.1453145 6.5901111,6.8497932 6.8618196,6.670382 7.7653783,5.8956357 7.7004899,6.6212275 7.4544819,7.9690024 7.1430558,9.3053649 6.9179024,10.656414 6.6561908,11.401795 7.3422289,12.038566 8.0124286,11.533547 8.7327087,11.197334 9.3432324,10.672537 9.9690025,10.188448 9.8725466,9.9733124 9.8016251,9.661529 9.5701694,9.9573906 9.2572508,10.117179 8.5884362,10.837782 8.436628,10.271997 8.6473749,8.8148574 9.0885237,7.4019905 9.34907,5.9543812 9.6148591,5.2828481 9.1055117,4.4686464 8.41371,5.043303 7.5740464,5.4558213 6.8837317,6.1020325 6.1594346,6.6855221 Z m 2.979911,-4.993039 C 8.2656079,1.6808996 7.8659508,3.1262503 8.7098775,3.4830698 9.3930954,3.7356452 10.097431,3.0060474 9.9056737,2.3133608 9.8403697,1.9512707 9.5065373,1.6653098 9.1393456,1.6924831 Z"
         id="path3536-3"
         style="font-style:normal;font-variant:normal;font-weight:bold;font-stretch:normal;font-size:40px;line-height:100%;font-family:'URW Palladio L';-inkscape-font-specification:'URW Palladio L Bold';text-align:start;writing-mode:lr-tb;text-anchor:start;fill:url(#linearGradient4037);fill-opacity:1;stroke:none;stroke-width:1.55248" />
      <path
         d="m 13.551689,7.8410394 c 0,3.0102156 -2.43728,5.4504946 -5.4433467,5.4504946 -3.0063424,0 -5.4434846,-2.440307 -5.4434846,-5.4504946 0,-3.0100744 2.4371422,-5.4501061 5.4434846,-5.4501061 3.0060667,0 5.4433467,2.4400317 5.4433467,5.4501061 z"
         id="path8655-6-6"
         style="color:#000000;display:inline;overflow:visible;visibility:visible;opacity:0.5;fill:none;stroke:url(#linearGradient3071);stroke-width:1.55248;stroke-linecap:round;stroke-linejoin:round;stroke-miterlimit:4;stroke-dasharray:none;stroke-dashoffset:0;stroke-opacity:1;marker:none;enable-background:accumulate" />
      <path
         d="M 6.159313,7.6192353 C 6.2631261,7.8738445 6.3767697,8.0790277 6.5899894,7.7835064 6.861698,7.6040952 7.7652566,6.829349 7.7003683,7.5549407 7.4543603,8.9027156 7.1429341,10.239078 6.9177808,11.590127 6.6560692,12.335507 7.3421073,12.97228 8.012307,12.46726 8.7325871,12.131047 9.3431107,11.60625 9.9688811,11.122161 9.8724243,10.907025 9.8015028,10.595242 9.5700481,10.891104 9.2571291,11.050891 8.5883145,11.771495 8.4365063,11.20571 8.6472533,9.7485708 9.088402,8.3357037 9.3489484,6.8880944 9.6147378,6.2165613 9.10539,5.4023596 8.4135883,5.9770162 7.5739248,6.3895346 6.8836101,7.0357457 6.159313,7.6192353 Z M 9.1392239,2.6261964 C 8.2654863,2.6146128 7.8658291,4.0599635 8.7097559,4.416783 9.3929738,4.6693584 10.097309,3.9397606 9.9055523,3.247074 9.8402484,2.8849839 9.5064159,2.5990231 9.1392248,2.6261964 Z"
         id="path3536-0"
         style="font-style:normal;font-variant:normal;font-weight:bold;font-stretch:normal;font-size:40px;line-height:100%;font-family:'URW Palladio L';-inkscape-font-specification:'URW Palladio L Bold';text-align:start;writing-mode:lr-tb;text-anchor:start;fill:#ffffff;fill-opacity:1;stroke:none;stroke-width:1.55248" />
    </g>
    <path
       id="path3870"
       d="m 33.495202,1011.698 -1.995261,4.5375 H 6.0116103 c -1.7765784,0.051 -2.9611468,1.1526 -2.9602967,2.5692 l 0.012478,20.7923 c 8.21e-4,1.3683 0.8894901,2.7729 3.1611452,2.7739 l 35.4132405,0.015 c 1.983875,8e-4 3.29819,-1.1217 3.298919,-2.6249 l 0.01017,-20.9553 c 8.34e-4,-1.7188 -1.475214,-2.6047 -3.419305,-2.5825 l -6.045696,0.01 z"
       style="display:inline;stroke-width:1.55248;opacity:0.3;fill:none;stroke:url(#linearGradient3878);stroke-opacity:1" />
    <rect
       y="1024.5447"
       x="24.004486"
       height="1.535565"
       width="2.0707295"
       id="rect4147"
       style="display:inline;fill:#d6d6d6;fill-opacity:1;fill-rule:nonzero;stroke:none;stroke-width:1.55248" />
    <rect
       style="display:inline;fill:#d6d6d6;fill-opacity:1;fill-rule:nonzero;stroke:none;stroke-width:1.55248"
       id="rect4149"
       width="2.0707295"
       height="1.535565"
       x="28.145947"
       y="1024.5447" />
    <rect
       y="1024.5447"
       x="32.287403"
       height="1.535565"
       width="6.2121887"
       id="rect4151"
       style="display:inline;fill:#d6d6d6;fill-opacity:1;fill-rule:nonzero;stroke:none;stroke-width:1.55248" />
    <rect
       style="display:inline;fill:#d6d6d6;fill-opacity:1;fill-rule:nonzero;stroke:none;stroke-width:1.55248"
       id="rect4153"
       width="2.0707295"
       height="1.535565"
       x="40.57032"
       y="1024.5447" />
    <rect
       style="display:inline;fill:#d6d6d6;fill-opacity:1;fill-rule:nonzero;stroke:none;stroke-width:1.55248"
       id="rect4155"
       width="4.6444674"
       height="1.5323901"
       x="24.004936"
       y="1030.7511" />
    <rect
       y="1030.7476"
       x="30.203714"
       height="1.5362717"
       width="3.1072445"
       id="rect4157"
       style="display:inline;fill:#d6d6d6;fill-opacity:1;fill-rule:nonzero;stroke:none;stroke-width:1.55249" />
    <rect
       style="display:inline;fill:#d6d6d6;fill-opacity:1;fill-rule:nonzero;stroke:none;stroke-width:1.55249"
       id="rect4159"
       width="7.7541189"
       height="1.5349283"
       x="34.871136"
       y="1030.7511" />
    <rect
       style="display:inline;opacity:0.3;fill:#d6d6d6;fill-opacity:1;fill-rule:nonzero;stroke:none;stroke-width:1.55248"
       id="rect3912"
       width="2.0707295"
       height="1.535565"
       x="24.004486"
       y="1026.0803" />
    <rect
       y="1026.0803"
       x="28.145947"
       height="1.535565"
       width="2.0707295"
       id="rect3914"
       style="display:inline;opacity:0.3;fill:#d6d6d6;fill-opacity:1;fill-rule:nonzero;stroke:none;stroke-width:1.55248" />
    <rect
       style="display:inline;opacity:0.3;fill:#d6d6d6;fill-opacity:1;fill-rule:nonzero;stroke:none;stroke-width:1.55248"
       id="rect3916"
       width="6.2121887"
       height="1.535565"
       x="32.287403"
       y="1026.0803" />
    <rect
       y="1026.0803"
       x="40.57032"
       height="1.535565"
       width="2.0707295"
       id="rect3918"
       style="display:inline;opacity:0.3;fill:#d6d6d6;fill-opacity:1;fill-rule:nonzero;stroke:none;stroke-width:1.55248" />
    <rect
       y="1032.2936"
       x="23.999979"
       height="1.5439534"
       width="4.6573348"
       id="rect3920"
       style="display:inline;opacity:0.3;fill:#d6d6d6;fill-opacity:1;fill-rule:nonzero;stroke:none;stroke-width:1.55247" />
    <rect
       style="display:inline;opacity:0.3;fill:#d6d6d6;fill-opacity:1;fill-rule:nonzero;stroke:none;stroke-width:1.55249"
       id="rect3922"
       width="3.1012812"
       height="1.539186"
       x="30.200256"
       y="1032.3003" />
    <rect
       y="1032.2957"
       x="34.868496"
       height="1.5444831"
       width="7.7521362"
       id="rect3924"
       style="display:inline;opacity:0.3;fill:#d6d6d6;fill-opacity:1;fill-rule:nonzero;stroke:none;stroke-width:1.55248" />
  </g>
</svg>
