<?xml version="1.0" encoding="UTF-8" standalone="no"?>
<svg
   height="32"
   id="svg11300"
   style="display:inline;enable-background:new"
   version="1.0"
   viewBox="0 0 32 32"
   width="32"
   xmlns:xlink="http://www.w3.org/1999/xlink"
   xmlns="http://www.w3.org/2000/svg"
   xmlns:svg="http://www.w3.org/2000/svg"
   xmlns:rdf="http://www.w3.org/1999/02/22-rdf-syntax-ns#"
   xmlns:cc="http://creativecommons.org/ns#"
   xmlns:dc="http://purl.org/dc/elements/1.1/">
  <metadata
     id="metadata154">
    <rdf:RDF>
      <cc:Work
         rdf:about="">
        <dc:format>image/svg+xml</dc:format>
        <dc:type
           rdf:resource="http://purl.org/dc/dcmitype/StillImage" />
        <dc:title>elementary Icon Template</dc:title>
      </cc:Work>
    </rdf:RDF>
  </metadata>
  <title
     id="title4162">elementary Icon Template</title>
  <defs
     id="defs3">
    <linearGradient
       id="linearGradient4712">
      <stop
         id="stop4708"
         offset="0"
         style="stop-color:#000000;stop-opacity:1;" />
      <stop
         id="stop4710"
         offset="1"
         style="stop-color:#000000;stop-opacity:0;" />
    </linearGradient>
    <linearGradient
       id="4632">
      <stop
         id="stop4634-4-4-7-7-4"
         offset="0"
         style="stop-color:#b4cee1;stop-opacity:1" />
      <stop
         id="stop4636-3-1-5-1-3"
         offset="1"
         style="stop-color:#5d9fcd;stop-opacity:1" />
    </linearGradient>
    <linearGradient
       id="50485">
      <stop
         id="stop2667-18"
         offset="0"
         style="stop-color:#000000;stop-opacity:0" />
      <stop
         id="stop2669-9"
         offset="0.5"
         style="stop-color:#000000;stop-opacity:1" />
      <stop
         id="stop2671-33"
         offset="1"
         style="stop-color:#000000;stop-opacity:0" />
    </linearGradient>
    <linearGradient
       id="46464">
      <stop
         id="stop4648-8-0-3-6"
         offset="0"
         style="stop-color:#f9f9f9;stop-opacity:1" />
      <stop
         id="stop4650-1-7-3-4"
         offset="1"
         style="stop-color:#d8d8d8;stop-opacity:1" />
    </linearGradient>
    <linearGradient
       id="61299">
      <stop
         id="stop4661"
         offset="0"
         style="stop-color:#000000;stop-opacity:0.498" />
      <stop
         id="stop4663"
         offset="1"
         style="stop-color:#000000;stop-opacity:0" />
    </linearGradient>
    <linearGradient
       y2="3.6336823"
       x2="-51.786404"
       y1="53.514328"
       x1="-51.786404"
       gradientTransform="matrix(0.50703384,0,0,0.50300255,68.029219,1.329769)"
       gradientUnits="userSpaceOnUse"
       id="linearGradient14236"
       xlink:href="#linearGradient3104-8-8-97-4-6-11-5-5-0" />
    <linearGradient
       id="linearGradient3104-8-8-97-4-6-11-5-5-0">
      <stop
         offset="0"
         style="stop-color:#000000;stop-opacity:0.32173914"
         id="stop3106-5-4-3-5-0-2-1-0-6" />
      <stop
         offset="1"
         style="stop-color:#000000;stop-opacity:0.27826086"
         id="stop3108-4-3-7-8-2-0-7-9-1" />
    </linearGradient>
    <linearGradient
       xlink:href="#46464"
       id="linearGradient5899"
       gradientUnits="userSpaceOnUse"
       gradientTransform="matrix(0.61904762,0,0,0.61904762,-30.391811,1.428569)"
       x1="63.639435"
       y1="17.474169"
       x2="63.627701"
       y2="20.454905" />
    <linearGradient
       xlink:href="#linearGradient4325"
       id="linearGradient5903"
       gradientUnits="userSpaceOnUse"
       gradientTransform="matrix(0.54383556,0,0,0.61466406,3.2688794,5.091139)"
       x1="21.554926"
       y1="4.5536318"
       x2="21.610973"
       y2="33.870327" />
    <linearGradient
       id="linearGradient4325">
      <stop
         offset="0"
         style="stop-color:#ffffff;stop-opacity:1"
         id="stop4327" />
      <stop
         offset="0.1106325"
         style="stop-color:#ffffff;stop-opacity:0.23529412"
         id="stop4329" />
      <stop
         offset="0.99001008"
         style="stop-color:#ffffff;stop-opacity:0.15686275"
         id="stop4331" />
      <stop
         offset="1"
         style="stop-color:#ffffff;stop-opacity:0.39215687"
         id="stop4333" />
    </linearGradient>
    <linearGradient
       xlink:href="#50485"
       id="linearGradient5905"
       gradientUnits="userSpaceOnUse"
       gradientTransform="matrix(0.05114282,0,0,0.01591575,-2.4899573,22.29927)"
       x1="302.85715"
       y1="366.64789"
       x2="302.85715"
       y2="609.50507" />
    <radialGradient
       xlink:href="#linearGradient4712"
       id="radialGradient5907"
       gradientUnits="userSpaceOnUse"
       gradientTransform="matrix(0.01983573,0,0,0.01591575,16.38765,22.29927)"
       cx="605.71429"
       cy="486.64789"
       fx="605.71429"
       fy="486.64789"
       r="117.14286" />
    <radialGradient
       xlink:href="#linearGradient4712"
       id="radialGradient5909"
       gradientUnits="userSpaceOnUse"
       gradientTransform="matrix(-0.01983573,0,0,0.01591575,15.60139,22.29927)"
       cx="605.71429"
       cy="486.64789"
       fx="605.71429"
       fy="486.64789"
       r="117.14286" />
    <linearGradient
       y2="21.303808"
       y1="7.3523898"
       x2="27.86915"
       x1="27.914858"
       id="linearGradient8576"
       xlink:href="#34542-8"
       gradientUnits="userSpaceOnUse"
       gradientTransform="matrix(0.89186139,0,0,0.86792712,91.12074,183.57503)" />
    <linearGradient
       id="34542-8">
      <stop
         style="stop-color:#ffffff;stop-opacity:1"
         offset="0"
         id="stop3456-4-9-38-1-8-5" />
      <stop
         style="stop-color:#ffffff;stop-opacity:0.23529412"
         offset="0.0063873"
         id="stop3458-39-80-3-5-5-0" />
      <stop
         style="stop-color:#ffffff;stop-opacity:0.15686275"
         offset="0.99001008"
         id="stop3460-7-0-2-4-2-9" />
      <stop
         style="stop-color:#ffffff;stop-opacity:0.39215687"
         offset="1"
         id="stop3462-0-9-8-7-2-6" />
    </linearGradient>
    <linearGradient
       xlink:href="#4632"
       id="linearGradient1"
       gradientUnits="userSpaceOnUse"
       gradientTransform="matrix(0.64444432,0,0,0.54135319,88.53343,179.48872)"
       x1="35.792694"
       y1="17.118193"
       x2="35.792694"
       y2="43.761127" />
    <linearGradient
       xlink:href="#61299"
       id="linearGradient2"
       gradientUnits="userSpaceOnUse"
       gradientTransform="translate(8,-4)"
       x1="96"
       y1="210"
       x2="96"
       y2="203" />
  </defs>
  <g
     id="layer1"
     style="display:inline;enable-background:new"
     transform="translate(3.8759346e-4)">
    <path
       d="m 4.0001794,6.500079 c -0.43342,0.005 -0.5,0.21723 -0.5,0.6349 v 1.36502 c -0.9820038,-0.00284 -1,-0.002 -1,0.54389 L 2.5,16.5 h 27 l 1.79e-4,-7.456111 c 10e-6,-0.41767 -0.34799,-0.54876 -0.78141,-0.54389 h -14.21859 v -1.36502 c 0,-0.41767 -0.26424,-0.63977 -0.69767,-0.6349 z"
       id="path3468-10"
       style="color:#000000;display:inline;overflow:visible;visibility:visible;opacity:0.8;fill:none;stroke:url(#linearGradient14236);stroke-width:1;stroke-linecap:butt;stroke-linejoin:miter;stroke-miterlimit:4;stroke-dasharray:none;stroke-dashoffset:0;stroke-opacity:1;marker:none;enable-background:accumulate" />
    <path
       style="color:#000000;display:inline;overflow:visible;visibility:visible;fill:url(#linearGradient5899);fill-opacity:1;fill-rule:nonzero;stroke:none;stroke-width:1;marker:none;enable-background:accumulate"
       d="m 4.0001794,6.999999 v 2 h -1 V 16 H 29.000179 V 8.999999 h -15 v -2 z"
       id="rect3409-5" />
    <path
       style="color:#000000;display:inline;overflow:visible;visibility:visible;fill:none;stroke:url(#linearGradient5903);stroke-width:1;stroke-linecap:round;stroke-linejoin:miter;stroke-miterlimit:4;stroke-dasharray:none;stroke-dashoffset:0;stroke-opacity:1;marker:none;enable-background:accumulate"
       d="m 4.5001794,7.499999 v 2 h -1 L 3.5,15.5 h 25 l 1.79e-4,-6.000001 h -15 v -2 z"
       id="rect3409" />
    <g
       transform="translate(1.7935663e-4,-1.000001)"
       id="g2458"
       style="display:inline">
      <rect
         width="24.694677"
         height="3.8652544"
         x="3.6471815"
         y="28.134747"
         id="rect4173-1"
         style="display:inline;overflow:visible;visibility:visible;opacity:0.3;fill:url(#linearGradient5905);fill-opacity:1;fill-rule:nonzero;stroke:none;stroke-width:1;marker:none" />
      <path
         d="m 28.341859,28.13488 c 0,0 0,3.865041 0,3.865041 1.021491,0.0073 2.469468,-0.86596 2.469468,-1.932769 0,-1.06681 -1.139908,-1.932272 -2.469468,-1.932272 z"
         id="path5058-4"
         style="display:inline;overflow:visible;visibility:visible;opacity:0.3;fill:url(#radialGradient5907);fill-opacity:1;fill-rule:nonzero;stroke:none;stroke-width:1;marker:none" />
      <path
         d="m 3.6471816,28.13488 c 0,0 0,3.865041 0,3.865041 -1.0214912,0.0073 -2.4694678,-0.86596 -2.4694678,-1.932769 0,-1.06681 1.1399068,-1.932272 2.4694678,-1.932272 z"
         id="path5018-84"
         style="display:inline;overflow:visible;visibility:visible;opacity:0.3;fill:url(#radialGradient5909);fill-opacity:1;fill-rule:nonzero;stroke:none;stroke-width:1;marker:none" />
    </g>
    <path
       style="color:#000000;display:inline;overflow:visible;visibility:visible;fill:url(#linearGradient1);fill-opacity:1;fill-rule:nonzero;stroke:#000000;stroke-width:1;stroke-dasharray:none;stroke-opacity:0.301961;marker:none;enable-background:accumulate"
       id="use8315"
       d="m 88.556521,188.5 1.633,15 h 27.619999 l 1.632,-15 z"
       transform="translate(-87.999521,-174)" />
    <path
       style="color:#000000;display:inline;overflow:visible;visibility:visible;opacity:0.5;fill:none;stroke:url(#linearGradient8576);stroke-width:1;stroke-linecap:round;stroke-linejoin:miter;stroke-miterlimit:4;stroke-dasharray:none;stroke-dashoffset:0;stroke-opacity:1;marker:none;enable-background:accumulate"
       id="use8572"
       d="m 89.669557,189.5 1.416388,13 h 25.831775 l 1.41545,-13 z"
       transform="translate(-87.999521,-174)" />
    <path
       style="color:#000000;font-style:normal;font-variant:normal;font-weight:normal;font-stretch:normal;font-size:medium;line-height:normal;font-family:sans-serif;font-variant-ligatures:normal;font-variant-position:normal;font-variant-caps:normal;font-variant-numeric:normal;font-variant-alternates:normal;font-feature-settings:normal;text-indent:0;text-align:start;text-decoration:none;text-decoration-line:none;text-decoration-style:solid;text-decoration-color:#000000;letter-spacing:normal;word-spacing:normal;text-transform:none;writing-mode:lr-tb;direction:ltr;text-orientation:mixed;dominant-baseline:auto;baseline-shift:baseline;text-anchor:start;white-space:normal;shape-padding:0;clip-rule:nonzero;display:inline;overflow:visible;visibility:visible;opacity:0.3;isolation:auto;mix-blend-mode:normal;color-interpolation:sRGB;color-interpolation-filters:linearRGB;solid-color:#000000;solid-opacity:1;vector-effect:none;fill:url(#linearGradient2);fill-opacity:1;fill-rule:nonzero;stroke:none;stroke-width:1;stroke-linecap:butt;stroke-linejoin:round;stroke-miterlimit:4;stroke-dasharray:none;stroke-dashoffset:0;stroke-opacity:1;marker:none;color-rendering:auto;image-rendering:auto;shape-rendering:auto;text-rendering:auto;enable-background:accumulate"
       id="path3971"
       d="m 87.999521,188 1.74,16 28.519999,3.8e-4 1.74,-16.00038 z"
       transform="translate(-87.999521,-174)" />
  </g>
  <g
     id="g13606"
     transform="translate(-2431.9995,-174)"
     style="display:inline;enable-background:new">
    <path
       d="m 2448.7236,195.08192 c -0.8054,0 -1.5024,0.37458 -1.8483,0.91808 a 1.4168319,1.1262692 0 0 0 -0.774,-0.18328 c -0.7995,0 -1.4471,0.52576 -1.4471,1.17483 0,0.10346 0.02,0.2027 0.051,0.29857 a 2.2291064,1.771963 0 0 0 -0.9552,1.46411 c 0,0.97635 0.9679,1.76267 2.1702,1.76267 h 4.1596 c 1.2022,0 2.1702,-0.78632 2.1702,-1.76267 0,-0.77957 -0.62,-1.43709 -1.4806,-1.67062 0.023,-0.10135 0.034,-0.20565 0.034,-0.31249 0,-0.93286 -0.9313,-1.6892 -2.0798,-1.6892 z"
       id="path13565"
       overflow="visible"
       style="color:#000000;display:inline;overflow:visible;opacity:0.2;vector-effect:none;fill:#ffffff;fill-opacity:1;stroke:none;stroke-width:1.82026;stroke-linecap:butt;stroke-linejoin:miter;stroke-miterlimit:4;stroke-dasharray:none;stroke-dashoffset:0;stroke-opacity:1;marker:none;enable-background:new" />
    <path
       d="m 2448.7236,194.08192 c -0.8054,0 -1.5024,0.37458 -1.8483,0.91808 a 1.4168319,1.1262692 0 0 0 -0.774,-0.18328 c -0.7995,0 -1.4471,0.52576 -1.4471,1.17483 0,0.10346 0.02,0.2027 0.051,0.29857 a 2.2291064,1.771963 0 0 0 -0.9552,1.46411 c 0,0.97635 0.9679,1.76267 2.1702,1.76267 h 4.1596 c 1.2022,0 2.1702,-0.78632 2.1702,-1.76267 0,-0.77957 -0.62,-1.43709 -1.4806,-1.67062 0.023,-0.10135 0.034,-0.20565 0.034,-0.31249 0,-0.93286 -0.9313,-1.6892 -2.0798,-1.6892 z"
       id="path13548"
       overflow="visible"
       style="color:#000000;display:inline;overflow:visible;opacity:0.55;vector-effect:none;fill:#175785;fill-opacity:1;stroke:none;stroke-width:1.82026;stroke-linecap:butt;stroke-linejoin:miter;stroke-miterlimit:4;stroke-dasharray:none;stroke-dashoffset:0;stroke-opacity:1;marker:none;enable-background:new" />
    <path
       d="m 2448.7236,194.08192 c -0.8054,0 -1.5024,0.37458 -1.8483,0.91808 a 1.4168319,1.1262692 0 0 0 -0.774,-0.18328 c -0.7995,0 -1.4471,0.52576 -1.4471,1.17483 0,0.10346 0.02,0.2027 0.051,0.29857 a 2.2291064,1.771963 0 0 0 -0.9552,1.46411 c 0,0.97635 0.9679,1.76267 2.1702,1.76267 h 4.1596 c 1.2022,0 2.1702,-0.78632 2.1702,-1.76267 0,-0.77957 -0.62,-1.43709 -1.4806,-1.67062 0.023,-0.10135 0.034,-0.20565 0.034,-0.31249 0,-0.93286 -0.9313,-1.6892 -2.0798,-1.6892 z"
       id="path51"
       overflow="visible"
       style="color:#000000;display:inline;overflow:visible;opacity:0.55;vector-effect:none;fill:#175785;fill-opacity:1;stroke:none;stroke-width:1.82026;stroke-linecap:butt;stroke-linejoin:miter;stroke-miterlimit:4;stroke-dasharray:none;stroke-dashoffset:0;stroke-opacity:1;marker:none;enable-background:new" />
  </g>
</svg>
