<?xml version="1.0" encoding="UTF-8" standalone="no"?>
<svg
   width="32px"
   height="32px"
   id="svg15239"
   version="1.1"
   xmlns:xlink="http://www.w3.org/1999/xlink"
   xmlns="http://www.w3.org/2000/svg"
   xmlns:svg="http://www.w3.org/2000/svg"
   xmlns:rdf="http://www.w3.org/1999/02/22-rdf-syntax-ns#"
   xmlns:cc="http://creativecommons.org/ns#"
   xmlns:dc="http://purl.org/dc/elements/1.1/">
  <defs
     id="defs15241">
    <linearGradient
       id="linearGradient3454-2-5-0-3-4">
      <stop
         offset="0"
         style="stop-color:#ffffff;stop-opacity:1"
         id="stop3456-4-9-38-1-8" />
      <stop
         offset="0.0097359"
         style="stop-color:#ffffff;stop-opacity:0.23529412"
         id="stop3458-39-80-3-5-5" />
      <stop
         offset="0.99001008"
         style="stop-color:#ffffff;stop-opacity:0.15686275"
         id="stop3460-7-0-2-4-2" />
      <stop
         offset="1"
         style="stop-color:#ffffff;stop-opacity:0.39215687"
         id="stop3462-0-9-8-7-2" />
    </linearGradient>
    <linearGradient
       id="linearGradient6129-963-697-142-998-580-273-5">
      <stop
         id="stop2661-1"
         style="stop-color:#0a0a0a;stop-opacity:0.498"
         offset="0" />
      <stop
         id="stop2663-85"
         style="stop-color:#0a0a0a;stop-opacity:0"
         offset="1" />
    </linearGradient>
    <linearGradient
       id="linearGradient4632-0-6-4-3-4">
      <stop
         style="stop-color:#b4cee1;stop-opacity:1;"
         offset="0"
         id="stop4634-4-4-7-7-4" />
      <stop
         style="stop-color:#5d9fcd;stop-opacity:1;"
         offset="1"
         id="stop4636-3-1-5-1-3" />
    </linearGradient>
    <linearGradient
       id="linearGradient5048-585-0">
      <stop
         id="stop2667-18"
         style="stop-color:#000000;stop-opacity:0"
         offset="0" />
      <stop
         id="stop2669-9"
         style="stop-color:#000000;stop-opacity:1"
         offset="0.5" />
      <stop
         id="stop2671-33"
         style="stop-color:#000000;stop-opacity:0"
         offset="1" />
    </linearGradient>
    <linearGradient
       id="linearGradient5060-179-67">
      <stop
         id="stop2675-81"
         style="stop-color:#000000;stop-opacity:1"
         offset="0" />
      <stop
         id="stop2677-2"
         style="stop-color:#000000;stop-opacity:0"
         offset="1" />
    </linearGradient>
    <linearGradient
       id="linearGradient4325">
      <stop
         offset="0"
         style="stop-color:#ffffff;stop-opacity:1"
         id="stop4327" />
      <stop
         offset="0.1106325"
         style="stop-color:#ffffff;stop-opacity:0.23529412"
         id="stop4329" />
      <stop
         offset="0.99001008"
         style="stop-color:#ffffff;stop-opacity:0.15686275"
         id="stop4331" />
      <stop
         offset="1"
         style="stop-color:#ffffff;stop-opacity:0.39215687"
         id="stop4333" />
    </linearGradient>
    <linearGradient
       id="linearGradient4646-7-4-3-5">
      <stop
         offset="0"
         style="stop-color:#f9f9f9;stop-opacity:1"
         id="stop4648-8-0-3-6" />
      <stop
         offset="1"
         style="stop-color:#d8d8d8;stop-opacity:1"
         id="stop4650-1-7-3-4" />
    </linearGradient>
    <linearGradient
       id="linearGradient3104-8-8-97-4-6-11-5-5-0">
      <stop
         offset="0"
         style="stop-color:#000000;stop-opacity:0.32173914"
         id="stop3106-5-4-3-5-0-2-1-0-6" />
      <stop
         offset="1"
         style="stop-color:#000000;stop-opacity:0.27826086"
         id="stop3108-4-3-7-8-2-0-7-9-1" />
    </linearGradient>
    <linearGradient
       y2="3.6336823"
       x2="-51.786404"
       y1="53.514328"
       x1="-51.786404"
       gradientTransform="matrix(0.50703384,0,0,0.50300255,68.029219,1.329769)"
       gradientUnits="userSpaceOnUse"
       id="linearGradient14236"
       xlink:href="#linearGradient3104-8-8-97-4-6-11-5-5-0" />
    <linearGradient
       xlink:href="#linearGradient4646-7-4-3-5"
       id="linearGradient5899"
       gradientUnits="userSpaceOnUse"
       gradientTransform="matrix(0.61904762,0,0,0.61904762,-30.391811,1.428569)"
       x1="62.988873"
       y1="13"
       x2="62.988873"
       y2="16" />
    <linearGradient
       xlink:href="#linearGradient4325"
       id="linearGradient5903"
       gradientUnits="userSpaceOnUse"
       gradientTransform="matrix(0.54383556,0,0,0.61466406,3.2688794,5.091139)"
       x1="21.577099"
       y1="4.5864725"
       x2="21.738884"
       y2="23.706192" />
    <radialGradient
       xlink:href="#linearGradient5060-179-67"
       id="radialGradient5907"
       gradientUnits="userSpaceOnUse"
       gradientTransform="matrix(0.01983573,0,0,0.01591575,16.38765,22.29927)"
       cx="605.71429"
       cy="486.64789"
       fx="605.71429"
       fy="486.64789"
       r="117.14286" />
    <radialGradient
       xlink:href="#linearGradient5060-179-67"
       id="radialGradient5909"
       gradientUnits="userSpaceOnUse"
       gradientTransform="matrix(-0.01983573,0,0,0.01591575,15.60139,22.29927)"
       cx="605.71429"
       cy="486.64789"
       fx="605.71429"
       fy="486.64789"
       r="117.14286" />
    <linearGradient
       y2="101.19796"
       x2="23.616072"
       y1="66.409439"
       x1="23.56572"
       gradientTransform="matrix(0.50413225,0,0,0.49333391,4.108882,-20.937122)"
       gradientUnits="userSpaceOnUse"
       id="linearGradient1048"
       xlink:href="#linearGradient4632-0-6-4-3-4" />
    <linearGradient
       xlink:href="#linearGradient3454-2-5-0-3-4"
       id="linearGradient5926"
       gradientUnits="userSpaceOnUse"
       gradientTransform="matrix(0.89186139,0,0,1.0539115,3.1208294,5.412539)"
       x1="27.901009"
       y1="7.1351118"
       x2="27.890844"
       y2="21.465616" />
    <linearGradient
       xlink:href="#linearGradient6129-963-697-142-998-580-273-5"
       id="linearGradient5922"
       gradientUnits="userSpaceOnUse"
       gradientTransform="matrix(0.7467531,0,0,0.6554922,-1.9218906,1.167619)"
       x1="22.934725"
       y1="49.629246"
       x2="22.809399"
       y2="36.657963" />
    <linearGradient
       xlink:href="#linearGradient5048-585-0"
       id="linearGradient1"
       gradientUnits="userSpaceOnUse"
       gradientTransform="matrix(0.05114282,0,0,0.01591575,-2.4899573,22.29927)"
       x1="302.85715"
       y1="366.64789"
       x2="302.85715"
       y2="609.50507" />
  </defs>
  <metadata
     id="metadata15244">
    <rdf:RDF>
      <cc:Work
         rdf:about="">
        <dc:format>image/svg+xml</dc:format>
        <dc:type
           rdf:resource="http://purl.org/dc/dcmitype/StillImage" />
        <dc:title />
      </cc:Work>
    </rdf:RDF>
  </metadata>
  <g
     id="layer1-4"
     style="display:inline">
    <path
       d="m 4.0001794,6.500079 c -0.43342,0.005 -0.5,0.21723 -0.5,0.6349 v 1.36502 c -0.9820038,-0.00284 -1,-0.002 -1,0.54389 L 2.5,13.5 H 29.500179 V 9.043889 c 0,-0.41767 -0.34799,-0.54876 -0.78141,-0.54389 h -14.21859 v -1.36502 c 0,-0.41767 -0.26424,-0.63977 -0.69767,-0.6349 z"
       id="path3468-10"
       style="color:#000000;display:inline;overflow:visible;visibility:visible;opacity:0.8;fill:none;stroke:url(#linearGradient14236);stroke-width:1;stroke-linecap:butt;stroke-linejoin:miter;stroke-miterlimit:4;stroke-dasharray:none;stroke-dashoffset:0;stroke-opacity:1;marker:none;enable-background:accumulate" />
    <path
       style="color:#000000;display:inline;overflow:visible;visibility:visible;fill:url(#linearGradient5899);fill-opacity:1;fill-rule:nonzero;stroke:none;stroke-width:1;marker:none;enable-background:accumulate"
       d="m 4.0001794,6.999999 v 2 h -1 v 4 H 29.000179 v -4 h -15 v -2 z"
       id="rect3409-5" />
    <path
       style="color:#000000;display:inline;overflow:visible;visibility:visible;fill:none;stroke:url(#linearGradient5903);stroke-width:1;stroke-linecap:round;stroke-linejoin:miter;stroke-miterlimit:4;stroke-dasharray:none;stroke-dashoffset:0;stroke-opacity:1;marker:none;enable-background:accumulate"
       d="m 4.5001794,7.499999 v 2 h -1 V 12.5 H 28.500179 V 9.499999 h -15 v -2 z"
       id="rect3409" />
    <g
       transform="translate(1.7935663e-4,-1.000001)"
       id="g2458"
       style="display:inline">
      <rect
         width="24.694677"
         height="3.8652544"
         x="3.6471815"
         y="28.134747"
         id="rect4173-1"
         style="display:inline;overflow:visible;visibility:visible;opacity:0.3;fill:url(#linearGradient1);fill-opacity:1;fill-rule:nonzero;stroke:none;stroke-width:1;marker:none" />
      <path
         d="m 28.341859,28.13488 c 0,0 0,3.865041 0,3.865041 1.021491,0.0073 2.469468,-0.86596 2.469468,-1.932769 0,-1.06681 -1.139908,-1.932272 -2.469468,-1.932272 z"
         id="path5058-4"
         style="display:inline;overflow:visible;visibility:visible;opacity:0.3;fill:url(#radialGradient5907);fill-opacity:1;fill-rule:nonzero;stroke:none;stroke-width:1;marker:none" />
      <path
         d="m 3.6471816,28.13488 c 0,0 0,3.865041 0,3.865041 -1.0214912,0.0073 -2.4694678,-0.86596 -2.4694678,-1.932769 0,-1.06681 1.1399068,-1.932272 2.4694678,-1.932272 z"
         id="path5018-84"
         style="display:inline;overflow:visible;visibility:visible;opacity:0.3;fill:url(#radialGradient5909);fill-opacity:1;fill-rule:nonzero;stroke:none;stroke-width:1;marker:none" />
    </g>
    <path
       d="m 1.8069913,11.504004 c -0.3025714,0.0057 -0.299023,0.09712 -0.301,0.358 0.023787,0.247029 0.6171137,16.721865 0.6416881,17.251 0.00657,0.384626 0.2370378,0.392936 0.8023119,0.391 H 28.949991 c 0.655864,-0.0038 0.90421,-0.01321 0.902,-0.391 0.023,-0.524078 0.62311,-16.98604 0.646,-17.251 -0.003,-0.261262 -0.02246,-0.358 -0.306,-0.358 z"
       id="path3388-6"
       style="color:#000000;display:inline;overflow:visible;visibility:visible;opacity:1;vector-effect:none;fill:url(#linearGradient1048);fill-opacity:1;fill-rule:nonzero;stroke:#000000;stroke-width:1;stroke-linecap:butt;stroke-linejoin:miter;stroke-miterlimit:4;stroke-dasharray:none;stroke-dashoffset:0;stroke-opacity:0.301961;marker:none;enable-background:accumulate"
       transform="translate(8.7176796e-6,-0.00400405)" />
    <path
       style="color:#000000;display:inline;overflow:visible;visibility:visible;opacity:0.5;fill:none;stroke:url(#linearGradient5926);stroke-width:1;stroke-linecap:round;stroke-linejoin:miter;stroke-miterlimit:4;stroke-dasharray:none;stroke-dashoffset:0;stroke-opacity:1;marker:none;enable-background:accumulate"
       d="m 2.5354373,12.512322 0.5967736,15.994865 25.7357071,-0.0202 0.59421,-15.978776 z"
       id="path3309" />
    <path
       d="M 1.77967,11 30.22,11.000269 c 0.341315,0.0056 0.775221,0.366768 0.776709,0.785783 L 30.342544,29.257764 C 30.289983,29.794599 29.763403,29.980508 29.411639,30 H 2.5630489 C 2.172651,29.995764 1.7470627,29.783529 1.6563332,29.260749 L 1.001171,11.778688 c 0,-0.42163 0.466122,-0.776126 0.778499,-0.778688 z"
       id="path6127-36"
       style="display:inline;opacity:0.4;fill:url(#linearGradient5922);fill-opacity:1;stroke:none" />
  </g>
  <g
     id="layer1">
    <path
       d="m 16,16 c -3.037566,0 -5.5,2.462434 -5.5,5.5 0,3.037566 2.462434,5.5 5.5,5.5 3.037566,0 5.5,-2.462434 5.5,-5.5 C 21.5,18.462434 19.037566,16 16,16 Z m 0,1 c 2.5,0 4.5,2 4.5,4.5 0,2.5 -2,4.5 -4.5,4.5 -2.5,0 -4.5,-2 -4.5,-4.5 0,-2.5 2,-4.5 4.5,-4.5 z"
       id="path2991-3-3-2-3"
       style="opacity:0.3;color:#000000;fill:#ffffff;fill-opacity:1;fill-rule:nonzero;stroke:none;stroke-width:1.70000005;marker:none;visibility:visible;display:inline;overflow:visible;enable-background:accumulate" />
    <path
       d="m 15.271155,18.826925 0,2.961535 -2.221155,0 2.96154,2.96154 2.961535,-2.96154 -2.22115,0 0,-2.961535 z"
       id="rect3005-5-8-6-5-2"
       style="opacity:0.3;color:#000000;fill:#ffffff;fill-opacity:1;fill-rule:nonzero;stroke:none;stroke-width:1.70000005;marker:none;visibility:visible;display:inline;overflow:visible;enable-background:accumulate" />
    <path
       d="m 16,15 c -3.037566,0 -5.5,2.462434 -5.5,5.5 0,3.037566 2.462434,5.5 5.5,5.5 3.037566,0 5.5,-2.462434 5.5,-5.5 C 21.5,17.462434 19.037566,15 16,15 Z m 0,1 c 2.5,0 4.5,2.221825 4.5,4.5 0,2.5 -2,4.5 -4.5,4.5 -2.5,0 -4.5,-2 -4.5,-4.5 0,-2.5 2,-4.5 4.5,-4.5 z"
       id="path2991-3-3-2"
       style="color:#000000;fill:#175785;fill-opacity:0.5521628;fill-rule:nonzero;stroke:none;stroke-width:1.70000005;marker:none;visibility:visible;display:inline;overflow:visible;enable-background:accumulate" />
    <path
       d="m 15.271155,17.849925 0,2.96154 -2.221155,0 2.96154,2.961535 2.961535,-2.961535 -2.22115,0 0,-2.96154 z"
       id="rect3005-5-8-6-5"
       style="color:#000000;fill:#175785;fill-opacity:0.5521628;fill-rule:nonzero;stroke:none;stroke-width:1.70000005;marker:none;visibility:visible;display:inline;overflow:visible;enable-background:accumulate" />
    <path
       d="m 15.271155,17.849925 0,2.96154 -2.221155,0 2.96154,2.961535 2.961535,-2.961535 -2.22115,0 0,-2.96154 z"
       id="path64"
       style="color:#000000;fill:#175785;fill-opacity:0.5521628;fill-rule:nonzero;stroke:none;stroke-width:1.70000005;marker:none;visibility:visible;display:inline;overflow:visible;enable-background:accumulate" />
    <path
       d="m 16,15 c -3.037566,0 -5.5,2.462434 -5.5,5.5 0,3.037566 2.462434,5.5 5.5,5.5 3.037566,0 5.5,-2.462434 5.5,-5.5 C 21.5,17.462434 19.037566,15 16,15 Z m 0,1 c 2.5,0 4.5,2.221825 4.5,4.5 0,2.5 -2,4.5 -4.5,4.5 -2.5,0 -4.5,-2 -4.5,-4.5 0,-2.5 2,-4.5 4.5,-4.5 z"
       id="path66"
       style="color:#000000;fill:#175785;fill-opacity:0.5521628;fill-rule:nonzero;stroke:none;stroke-width:1.70000005;marker:none;visibility:visible;display:inline;overflow:visible;enable-background:accumulate" />
  </g>
</svg>
