<?xml version="1.0" encoding="UTF-8" standalone="no"?>
<svg
   id="svg3828"
   height="24"
   width="24"
   version="1.1"
   xmlns:xlink="http://www.w3.org/1999/xlink"
   xmlns="http://www.w3.org/2000/svg"
   xmlns:svg="http://www.w3.org/2000/svg"
   xmlns:rdf="http://www.w3.org/1999/02/22-rdf-syntax-ns#"
   xmlns:cc="http://creativecommons.org/ns#"
   xmlns:dc="http://purl.org/dc/elements/1.1/">
  <defs
     id="defs3830">
    <linearGradient
       id="linearGradient3977">
      <stop
         offset="0"
         style="stop-color:#ffffff;stop-opacity:1"
         id="stop3979" />
      <stop
         offset="0"
         style="stop-color:#ffffff;stop-opacity:0.23529412"
         id="stop3981" />
      <stop
         offset="1"
         style="stop-color:#ffffff;stop-opacity:0.15686275"
         id="stop3983" />
      <stop
         offset="1"
         style="stop-color:#ffffff;stop-opacity:0.39215687"
         id="stop3985" />
    </linearGradient>
    <linearGradient
       id="linearGradient3600-4">
      <stop
         offset="0"
         style="stop-color:#f4f4f4;stop-opacity:1"
         id="stop3602-7" />
      <stop
         offset="1"
         style="stop-color:#dbdbdb;stop-opacity:1"
         id="stop3604-6" />
    </linearGradient>
    <linearGradient
       id="linearGradient5060">
      <stop
         offset="0"
         style="stop-color:#000000;stop-opacity:1"
         id="stop5062" />
      <stop
         offset="1"
         style="stop-color:#000000;stop-opacity:0"
         id="stop5064" />
    </linearGradient>
    <linearGradient
       id="linearGradient5048">
      <stop
         offset="0"
         style="stop-color:#000000;stop-opacity:0"
         id="stop5050" />
      <stop
         offset="0.5"
         style="stop-color:#000000;stop-opacity:1"
         id="stop5056" />
      <stop
         offset="1"
         style="stop-color:#000000;stop-opacity:0"
         id="stop5052" />
    </linearGradient>
    <linearGradient
       gradientTransform="matrix(0.40540511,0,0,0.51351351,2.2696871,-0.3243195)"
       gradientUnits="userSpaceOnUse"
       xlink:href="#linearGradient3977"
       id="linearGradient3013"
       y2="41.526306"
       x2="23.99999"
       y1="6.4736748"
       x1="23.99999" />
    <linearGradient
       gradientTransform="matrix(0.45714178,0,0,0.43456667,1.0285964,0.90372283)"
       gradientUnits="userSpaceOnUse"
       xlink:href="#linearGradient3600-4"
       id="linearGradient3016"
       y2="47.013336"
       x2="25.132275"
       y1="0.98520643"
       x1="25.132275" />
    <radialGradient
       gradientTransform="matrix(0.01204859,0,0,0.0082353,13.238793,18.980564)"
       gradientUnits="userSpaceOnUse"
       xlink:href="#linearGradient5060"
       id="radialGradient3021"
       fy="486.64789"
       fx="605.71429"
       r="117.14286"
       cy="486.64789"
       cx="605.71429" />
    <radialGradient
       gradientTransform="matrix(-0.01204859,0,0,0.0082353,10.761206,18.980564)"
       gradientUnits="userSpaceOnUse"
       xlink:href="#linearGradient5060"
       id="radialGradient3024"
       fy="486.64789"
       fx="605.71429"
       r="117.14286"
       cy="486.64789"
       cx="605.71429" />
    <linearGradient
       gradientTransform="matrix(0.0352071,0,0,0.0082353,-0.724852,18.980547)"
       gradientUnits="userSpaceOnUse"
       xlink:href="#linearGradient5048"
       id="linearGradient3027"
       y2="609.50507"
       x2="302.85715"
       y1="366.64789"
       x1="302.85715" />
    <radialGradient
       cx="416.80206"
       cy="399.14209"
       r="20.131355"
       fx="416.80206"
       fy="399.14209"
       id="radialGradient2907"
       xlink:href="#linearGradient9162"
       gradientUnits="userSpaceOnUse"
       gradientTransform="matrix(-0.24383917,-0.0411249,0.01853542,-0.1054198,111.07233,77.082896)" />
    <linearGradient
       id="linearGradient9162">
      <stop
         id="stop9170"
         style="stop-color:#8ae234;stop-opacity:1"
         offset="0" />
      <stop
         id="stop9166"
         style="stop-color:#4db07d;stop-opacity:0.88235295"
         offset="1" />
    </linearGradient>
    <radialGradient
       cx="416.65488"
       cy="392.0784"
       r="27.076788"
       fx="416.65488"
       fy="392.0784"
       id="radialGradient7065"
       xlink:href="#linearGradient7192"
       gradientUnits="userSpaceOnUse"
       gradientTransform="matrix(0.17992296,-0.19211484,0.2031471,0.18249679,-139.12999,25.083914)" />
    <linearGradient
       id="linearGradient7192">
      <stop
         id="stop7210"
         style="stop-color:#fce94f;stop-opacity:1"
         offset="0" />
      <stop
         id="stop8189"
         style="stop-color:#66d09a;stop-opacity:1"
         offset="0.5" />
      <stop
         id="stop8187"
         style="stop-color:#66c6d0;stop-opacity:1"
         offset="1" />
    </linearGradient>
    <linearGradient
       x1="32.027035"
       y1="21.986458"
       x2="27.560297"
       y2="15.298627"
       id="linearGradient7067"
       xlink:href="#linearGradient7605"
       gradientUnits="userSpaceOnUse"
       gradientTransform="matrix(0.68679991,0,0,0.67265216,-4.3832399,-1.6478847)" />
    <linearGradient
       id="linearGradient7605">
      <stop
         id="stop7607"
         style="stop-color:#bcae3e;stop-opacity:1"
         offset="0" />
      <stop
         id="stop7609"
         style="stop-color:#3b9a6a;stop-opacity:1"
         offset="0.5" />
      <stop
         id="stop7611"
         style="stop-color:#3d8891;stop-opacity:1"
         offset="1" />
    </linearGradient>
    <linearGradient
       x1="375.62509"
       y1="311.79102"
       x2="393.43311"
       y2="374.92462"
       id="linearGradient7060"
       xlink:href="#linearGradient7176"
       gradientUnits="userSpaceOnUse"
       gradientTransform="matrix(0.14454376,-0.0258744,0.02414305,0.15490929,-55.072724,-35.263332)" />
    <linearGradient
       id="linearGradient7176">
      <stop
         id="stop7178"
         style="stop-color:#204a87;stop-opacity:1"
         offset="0" />
      <stop
         id="stop7180"
         style="stop-color:#97bcd4;stop-opacity:1"
         offset="1" />
    </linearGradient>
    <linearGradient
       x1="13.112816"
       y1="7.2513928"
       x2="20.403833"
       y2="21.766705"
       id="linearGradient7062"
       xlink:href="#linearGradient7613"
       gradientUnits="userSpaceOnUse"
       gradientTransform="matrix(0.62911359,0,0,0.67422865,-3.0534855,-1.6707578)" />
    <linearGradient
       id="linearGradient7613">
      <stop
         id="stop7615"
         style="stop-color:#304456;stop-opacity:1"
         offset="0" />
      <stop
         id="stop7617"
         style="stop-color:#6394be;stop-opacity:1"
         offset="1" />
    </linearGradient>
  </defs>
  <metadata
     id="metadata3833">
    <rdf:RDF>
      <cc:Work
         rdf:about="">
        <dc:format>image/svg+xml</dc:format>
        <dc:type
           rdf:resource="http://purl.org/dc/dcmitype/StillImage" />
      </cc:Work>
    </rdf:RDF>
  </metadata>
  <rect
     style="opacity:0.15;fill:url(#linearGradient3027);fill-opacity:1;fill-rule:nonzero;stroke:none;stroke-width:1;marker:none;visibility:visible;display:inline;overflow:visible"
     id="rect2879"
     y="22"
     x="3.5000007"
     height="2"
     width="16.999998" />
  <path
     style="opacity:0.15;fill:url(#radialGradient3024);fill-opacity:1;fill-rule:nonzero;stroke:none;stroke-width:1;marker:none;visibility:visible;display:inline;overflow:visible"
     id="path2881"
     d="m 3.4999999,22.000085 c 0,0 0,1.999891 0,1.999891 C 2.8795275,24.003776 2,23.551901 2,22.999901 2,22.447902 2.6924,22.000085 3.4999999,22.000085 z" />
  <path
     style="opacity:0.15;fill:url(#radialGradient3021);fill-opacity:1;fill-rule:nonzero;stroke:none;stroke-width:1;marker:none;visibility:visible;display:inline;overflow:visible"
     id="path2883"
     d="m 20.5,22.000085 c 0,0 0,1.999891 0,1.999891 0.620472,0.0038 1.5,-0.448075 1.5,-1.000075 0,-0.551999 -0.692402,-0.999816 -1.5,-0.999816 z" />
  <path
     style="display:inline;fill:url(#linearGradient3016);fill-opacity:1;stroke:none"
     id="path4160-3"
     d="m 4,2 c 3.6664118,0 15.99998,0.0013 15.99998,0.0013 L 20,22 C 20,22 9.3333337,22 4,22 4,15.33334 4,8.6666817 4,2.0000212 Z" />
  <path
     style="fill:none;stroke:url(#linearGradient3013);stroke-width:1;stroke-linecap:round;stroke-linejoin:miter;stroke-miterlimit:4;stroke-opacity:1;stroke-dasharray:none;stroke-dashoffset:0"
     id="rect6741-1"
     d="m 19.5,21.5 -15.0000004,0 0,-19 L 19.5,2.5 z" />
  <path
     style="opacity:0.3;fill:none;stroke:#000000;stroke-width:0.99992186;stroke-linecap:butt;stroke-linejoin:round;stroke-miterlimit:4;stroke-opacity:1;stroke-dasharray:none;stroke-dashoffset:0;display:inline"
     id="path4160-3-1"
     d="m 3.4999601,1.4999569 c 3.8955809,0 17.0000589,0.00136 17.0000589,0.00136 l 2.1e-5,20.9987161 c 0,0 -11.3333862,0 -17.0000799,0 0,-7.000018 0,-14.000035 0,-21.0000538 z" />
  <g
     id="g275"
     transform="translate(0.06634865,0.92762181)">
    <path
       d="m 11.254567,16.179776 c 1.023857,1.287178 2.339658,1.48531 3.938398,1.466311 -0.10967,0.247941 -0.219338,0.495881 -0.329007,0.743821 0.306377,-0.358423 0.534765,-0.747873 1.041334,-0.697997 -0.313393,0.44167 -0.364857,0.727461 -0.483454,1.053206 0.606224,-0.535793 1.556642,-0.719728 2.323279,-0.93454 -0.203948,-0.304872 -0.513907,-0.524982 -0.717855,-0.829855 0.354767,-0.592497 0.5061,-1.395297 0.535295,-2.106321 -0.137244,0.370438 -0.338696,0.667102 -0.529,0.928234 0.388049,-0.943883 -0.538009,-1.929317 -0.867624,-2.716993 0.03598,0.372938 -0.198727,0.836102 0.288372,1.38949 -0.305895,1.098472 -0.205694,1.319066 -0.881335,1.986756 -1.115067,0.271426 -2.823782,0.516569 -4.318403,-0.282112 z"
       id="path8191"
       style="display:inline;fill:url(#radialGradient2907);fill-opacity:1;fill-rule:evenodd;stroke:#4b8748;stroke-width:0.509767;stroke-linecap:butt;stroke-linejoin:miter;stroke-miterlimit:4;stroke-dasharray:none;stroke-opacity:1" />
    <path
       d="m 6.8512427,10.366719 c 0.074132,2.918692 2.6208477,4.647263 4.9812363,5.991252 1.334585,0.490328 2.537749,0.356149 3.911266,0.191143 0.848558,-1.699925 0.493859,-3.106596 -0.250679,-4.786593 C 15.029105,11.107134 14.913259,10.425682 14.81096,9.6581563 14.275642,10.147176 14.555695,10.950459 14.543067,11.640936 14.222951,10.467948 13.480389,9.4959664 12.832008,8.4782114 12.350088,6.7052732 10.560353,5.620551 9.1356003,4.5718641 11.47346,8.1496612 12.028979,8.3323885 11.031856,12.611035 8.8831931,13.374443 7.5122244,12.310858 6.8512427,10.366719 Z"
       id="path27337"
       style="display:inline;fill:url(#radialGradient7065);fill-opacity:1;fill-rule:evenodd;stroke:url(#linearGradient7067);stroke-width:0.509767;stroke-linecap:butt;stroke-linejoin:miter;stroke-miterlimit:4;stroke-dasharray:none;stroke-opacity:1" />
    <path
       d="m 5.2442302,8.0316908 c 0.4886853,1.9941882 1.8185428,3.6182152 3.6081344,4.3913512 0.8012731,0.181964 1.5997934,0.357151 2.2444784,0.153507 -0.152716,-1.268182 0.103813,-2.47889 0.205878,-3.8659046 0.05274,-1.195559 0.109938,-2.2559635 -0.545939,-3.2362866 C 9.7468157,4.013985 8.4388243,3.4642339 6.9170791,3.5675977 6.5465199,4.1219227 6.1752409,4.5850496 5.8937591,5.0616921 5.4251255,5.8552485 5.0630008,7.1828774 5.6523091,8.0379692 6.2321342,8.618973 6.9918964,9.2329943 7.4410684,9.3042967 6.7598145,9.3540008 6.2987221,8.9824341 5.7425171,8.6167689 5.576421,8.4217435 5.4103262,8.2267162 5.2442302,8.0316908 Z"
       id="path24402"
       style="display:inline;fill:url(#linearGradient7060);fill-opacity:1;fill-rule:evenodd;stroke:url(#linearGradient7062);stroke-width:0.48846;stroke-linecap:butt;stroke-linejoin:miter;stroke-miterlimit:4;stroke-dasharray:none;stroke-opacity:1" />
    <path
       d="M 18.116441,19.401527 C 16.622353,18.230138 13.170077,14.972068 12.208007,13.825464 11.488978,12.968524 11.055941,12.763374 10.342656,12.941766 9.6899189,13.10502 9.5870134,13.065968 9.9965495,12.810409 10.317106,12.610385 10.570719,12.347725 10.560135,12.22672 10.549545,12.105717 9.9137055,11.024929 9.1471456,9.8249702 L 6.8120301,3.9924812 c 1.9713438,3.980637 4.2566209,7.5493658 4.6716529,7.0829998 0.197168,-0.221556 0.27026,-0.115636 0.2234,0.323741 -0.08522,0.799008 2.221259,3.47448 5.020717,5.823947 1.079861,0.906282 2.044704,1.911646 2.144095,2.234148 0.225501,0.73168 0.25138,0.733592 -0.755454,-0.05579 z"
       id="path24368-2"
       style="display:inline;fill:#2a6a28" />
  </g>
</svg>
