<?xml version="1.0" encoding="UTF-8" standalone="no"?>
<svg
   width="24"
   height="24"
   id="svg3328"
   version="1.1"
   xmlns:xlink="http://www.w3.org/1999/xlink"
   xmlns="http://www.w3.org/2000/svg"
   xmlns:svg="http://www.w3.org/2000/svg"
   xmlns:rdf="http://www.w3.org/1999/02/22-rdf-syntax-ns#"
   xmlns:cc="http://creativecommons.org/ns#"
   xmlns:dc="http://purl.org/dc/elements/1.1/">
  <defs
     id="defs3330">
    <linearGradient
       y2="22.839001"
       x2="23.673159"
       y1="9.5958176"
       x1="24.097157"
       gradientTransform="matrix(0.630891,0,0,0.6602294,-3.1413818,5.4746089)"
       gradientUnits="userSpaceOnUse"
       id="linearGradient3890-98"
       xlink:href="#linearGradient3230-1" />
    <linearGradient
       id="linearGradient3230-1">
      <stop
         style="stop-color:#ececec;stop-opacity:1"
         offset="0"
         id="stop2915" />
      <stop
         style="stop-color:#c9c9c9;stop-opacity:1"
         offset="1"
         id="stop2917" />
    </linearGradient>
    <linearGradient
       y2="26.294357"
       x2="21.483376"
       y1="9.463129"
       x1="21.483376"
       gradientTransform="matrix(0.7295433,0,0,0.755896,-3.6884053,2.6022196)"
       gradientUnits="userSpaceOnUse"
       id="linearGradient3892-42"
       xlink:href="#linearGradient5178-268" />
    <linearGradient
       id="linearGradient5178-268">
      <stop
         style="stop-color:#ffffff;stop-opacity:1;"
         offset="0"
         id="stop2907" />
      <stop
         id="stop2909"
         offset="0.8918919"
         style="stop-color:#e1e1e1;stop-opacity:1;" />
      <stop
         style="stop-color:#c3c3c3;stop-opacity:0;"
         offset="1"
         id="stop2911" />
    </linearGradient>
    <linearGradient
       gradientTransform="matrix(0.7732717,0,0,0.8121481,-4.612487,0.3506693)"
       y2="33.409534"
       x2="21.483376"
       y1="21.671062"
       x1="21.483376"
       gradientUnits="userSpaceOnUse"
       id="linearGradient3899-40"
       xlink:href="#linearGradient2250-982" />
    <linearGradient
       id="linearGradient2250-982">
      <stop
         style="stop-color:#c7c7c7;stop-opacity:1;"
         offset="0"
         id="stop2895" />
      <stop
         style="stop-color:#a5a5a5;stop-opacity:1"
         offset="1"
         id="stop2897" />
    </linearGradient>
    <linearGradient
       gradientTransform="matrix(0.7732717,0,0,0.8121481,-4.612487,0.3506693)"
       y2="13.090934"
       x2="21.483376"
       y1="36.345936"
       x1="21.483376"
       gradientUnits="userSpaceOnUse"
       id="linearGradient3901-939"
       xlink:href="#linearGradient3903-776" />
    <linearGradient
       id="linearGradient3903-776">
      <stop
         id="stop2901"
         offset="0"
         style="stop-color:#616161;stop-opacity:1;" />
      <stop
         id="stop2903"
         offset="1"
         style="stop-color:#9a9a9a;stop-opacity:1;" />
    </linearGradient>
    <linearGradient
       id="linearGradient8838-105">
      <stop
         style="stop-color:#7e7e7e;stop-opacity:1;"
         offset="0"
         id="stop2889" />
      <stop
         style="stop-color:#868686;stop-opacity:0;"
         offset="1"
         id="stop2891" />
    </linearGradient>
    <radialGradient
       r="10.625"
       fy="4.625"
       fx="62.625"
       cy="4.625"
       cx="62.625"
       gradientTransform="matrix(1,0,0,0.341176,0,3.047059)"
       gradientUnits="userSpaceOnUse"
       id="radialGradient3326"
       xlink:href="#linearGradient8838-105" />
  </defs>
  <metadata
     id="metadata3333">
    <rdf:RDF>
      <cc:Work
         rdf:about="">
        <dc:format>image/svg+xml</dc:format>
        <dc:type
           rdf:resource="http://purl.org/dc/dcmitype/StillImage" />
      </cc:Work>
    </rdf:RDF>
  </metadata>
  <g
     id="layer1"
     transform="translate(0,-8)"
     style="display:inline">
    <path
       style="display:inline;overflow:visible;visibility:visible;opacity:0.56044;fill:url(#radialGradient3326);fill-opacity:1;fill-rule:evenodd;stroke:none;stroke-width:1;marker:none"
       id="path8836"
       d="M 73.25,4.625 C 73.25,6.6270322 68.493025,8.25 62.625,8.25 56.756975,8.25 52,6.6270322 52,4.625 52,2.6229678 56.756975,1 62.625,1 68.493025,1 73.25,2.6229678 73.25,4.625 Z"
       transform="matrix(1.0823528,0,0,0.9655173,-55.782344,24.034483)" />
    <path
       id="path1307"
       d="m 15.568,15.624 c 0.62489,0.452888 6.715983,0.769831 6.928,1.5 0.212017,0.730169 -4.471023,4.597911 -4.723,5.288 -0.251977,0.690089 1.304614,6.625478 0.714,7.055 C 17.896386,29.896522 12.721882,26.611355 12,26.608 11.278118,26.604645 6.1387933,29.90888 5.512,29.467 4.8852067,29.02512 6.4531354,23.103745 6.227,22.412 6.0008646,21.720255 1.2786886,17.859417 1.503,17.124 1.7273114,16.388583 7.8513833,16.055858 8.432,15.624 9.0126167,15.192142 11.249911,9.5123043 12,9.496 c 0.750089,-0.016304 2.94311,5.675112 3.568,6.128 z"
       style="display:inline;overflow:visible;visibility:visible;opacity:1;fill:url(#linearGradient3899-40);fill-opacity:1;fill-rule:nonzero;stroke:url(#linearGradient3901-939);stroke-width:1;stroke-linecap:butt;stroke-linejoin:round;stroke-miterlimit:4;stroke-dasharray:none;stroke-dashoffset:0;stroke-opacity:1;marker:none" />
    <path
       id="path1309"
       d="m 12.005769,11.044019 c 1.056523,2.116168 1.76713,3.42534 2.823653,5.541508 2.268915,0.387177 3.940222,0.607299 6.209136,0.994475 -1.615948,1.695041 -3.461635,3.371833 -5.077583,5.066873 6.077013,10.180728 -9.8040389,9.022868 -7.9816317,-0.0287 C 6.3633962,20.92314 4.5689391,19.277317 2.9529923,17.582276 5.2219061,17.1951 6.8672216,17.03 9.1361353,16.642824 10.192658,14.526656 10.949247,13.160187 12.005769,11.044019 Z"
       style="display:inline;overflow:visible;visibility:visible;fill:none;stroke:url(#linearGradient3892-42);stroke-width:1;stroke-linecap:butt;stroke-linejoin:miter;stroke-miterlimit:4;stroke-dasharray:none;stroke-dashoffset:0;stroke-opacity:1;marker:none" />
    <path
       style="display:inline;overflow:visible;visibility:visible;fill:url(#linearGradient3890-98);fill-opacity:1;fill-rule:nonzero;stroke:none;stroke-width:1;marker:none"
       d="m 11.99048,12.174981 -2.5207352,4.934568 -5.448364,0.826091 3.4529753,3.43184 c 1.9482768,-1.995558 2.1631556,-1.513103 4.5242839,-1.471319 2.361131,0.04178 2.639445,-0.280879 4.513855,1.459346 l 3.485163,-3.444013 -5.499245,-0.8796 z"
       id="path1322" />
  </g>
</svg>
