<?xml version="1.0" encoding="UTF-8" standalone="no"?>
<svg
   version="1.0"
   width="24"
   height="24"
   id="svg5526"
   xmlns:xlink="http://www.w3.org/1999/xlink"
   xmlns="http://www.w3.org/2000/svg"
   xmlns:svg="http://www.w3.org/2000/svg"
   xmlns:rdf="http://www.w3.org/1999/02/22-rdf-syntax-ns#"
   xmlns:cc="http://creativecommons.org/ns#"
   xmlns:dc="http://purl.org/dc/elements/1.1/">
  <metadata
     id="metadata48">
    <rdf:RDF>
      <cc:Work
         rdf:about="">
        <dc:format>image/svg+xml</dc:format>
        <dc:type
           rdf:resource="http://purl.org/dc/dcmitype/StillImage" />
      </cc:Work>
    </rdf:RDF>
  </metadata>
  <defs
     id="defs5528">
    <linearGradient
       id="linearGradient3628">
      <stop
         id="stop3630"
         style="stop-color:#791235;stop-opacity:1"
         offset="0" />
      <stop
         id="stop3632"
         style="stop-color:#dd3b27;stop-opacity:1"
         offset="1" />
    </linearGradient>
    <linearGradient
       id="linearGradient4248">
      <stop
         id="stop4250"
         style="stop-color:#d57557;stop-opacity:1;"
         offset="0" />
      <stop
         id="stop4252"
         style="stop-color:#c34a3e;stop-opacity:1;"
         offset="0.26238" />
      <stop
         id="stop4254"
         style="stop-color:#6a2428;stop-opacity:1;"
         offset="0.66093999" />
      <stop
         id="stop4256"
         style="stop-color:#420f21;stop-opacity:1;"
         offset="1" />
    </linearGradient>
    <linearGradient
       xlink:href="#linearGradient4258"
       id="linearGradient4323"
       gradientUnits="userSpaceOnUse"
       gradientTransform="matrix(0.87152081,0,0,1.0885138,2.594811,-4.3522434)"
       x1="24"
       y1="44"
       x2="24"
       y2="3.8990016" />
    <linearGradient
       id="linearGradient4258">
      <stop
         id="stop4260"
         style="stop-color:#67243b;stop-opacity:1;"
         offset="0" />
      <stop
         id="stop4262"
         style="stop-color:#b9574b;stop-opacity:1;"
         offset="1" />
    </linearGradient>
    <linearGradient
       id="linearGradient3977">
      <stop
         offset="0"
         style="stop-color:#ffffff;stop-opacity:1;"
         id="stop3979" />
      <stop
         id="stop3981"
         style="stop-color:#ffffff;stop-opacity:0.23529412;"
         offset="0.03626217" />
      <stop
         offset="0.95056331"
         style="stop-color:#ffffff;stop-opacity:0.15686275;"
         id="stop3983" />
      <stop
         offset="1"
         style="stop-color:#ffffff;stop-opacity:0.39215687;"
         id="stop3985" />
    </linearGradient>
    <linearGradient
       id="linearGradient4246-9">
      <stop
         offset="0"
         style="stop-color:#ffffff;stop-opacity:1"
         id="stop4248-6" />
      <stop
         offset="1"
         style="stop-color:#dcdcdc;stop-opacity:1"
         id="stop4250-1" />
    </linearGradient>
    <radialGradient
       xlink:href="#linearGradient4248"
       id="radialGradient4283"
       gradientUnits="userSpaceOnUse"
       gradientTransform="matrix(0,2.7670112,-3.3322824,-1.5723221e-7,51.668417,-19.560469)"
       cx="7.4956832"
       cy="8.4497671"
       fx="7.4956832"
       fy="8.4497671"
       r="19.99999" />
    <radialGradient
       xlink:href="#linearGradient3242-7-5-0-3"
       id="radialGradient3195"
       gradientUnits="userSpaceOnUse"
       gradientTransform="matrix(0,2.7670111,-3.3322824,-1.5723221e-7,51.668417,-19.560469)"
       cx="7.4956832"
       cy="8.4497671"
       fx="7.4956832"
       fy="8.4497671"
       r="19.99999" />
    <linearGradient
       id="linearGradient3242-7-5-0-3">
      <stop
         offset="0"
         style="stop-color:#f89b7e;stop-opacity:1"
         id="stop3244-6-7-3-3" />
      <stop
         offset="0.26238"
         style="stop-color:#e35d4f;stop-opacity:1"
         id="stop3246-5-0-7-8" />
      <stop
         offset="0.66093999"
         style="stop-color:#c6262e;stop-opacity:1"
         id="stop3248-6-8-8-3" />
      <stop
         offset="1"
         style="stop-color:#690b2c;stop-opacity:1"
         id="stop3250-9-1-8-7" />
    </linearGradient>
    <linearGradient
       xlink:href="#linearGradient3628"
       id="linearGradient3197"
       gradientUnits="userSpaceOnUse"
       gradientTransform="matrix(0.87152081,0,0,1.0885138,2.5948111,-4.3522433)"
       x1="24"
       y1="44"
       x2="24"
       y2="3.8990016" />
    <linearGradient
       xlink:href="#linearGradient3977"
       id="linearGradient3199"
       gradientUnits="userSpaceOnUse"
       gradientTransform="matrix(0.81052406,0,0,1.0382404,4.0587397,-3.1456703)"
       x1="23.99999"
       y1="5.5641499"
       x2="23.99999"
       y2="43" />
    <linearGradient
       xlink:href="#linearGradient4246-9"
       id="linearGradient3201"
       gradientUnits="userSpaceOnUse"
       gradientTransform="matrix(0.86687307,0,0,1.0637604,3.1791503,-3.7594661)"
       x1="23.969797"
       y1="3.9810441"
       x2="23.969797"
       y2="44.024017" />
    <linearGradient
       xlink:href="#linearGradient3977"
       id="linearGradient9"
       gradientUnits="userSpaceOnUse"
       gradientTransform="matrix(0.81052406,0,0,1.0382404,4.0587397,-3.1456703)"
       x1="23.99999"
       y1="5.5641499"
       x2="23.99999"
       y2="43" />
    <linearGradient
       xlink:href="#linearGradient4246-9"
       id="linearGradient10"
       gradientUnits="userSpaceOnUse"
       gradientTransform="matrix(0.86687307,0,0,1.0637604,3.1791503,-3.7594661)"
       x1="23.969797"
       y1="3.9810441"
       x2="23.969797"
       y2="44.024017" />
    <radialGradient
       xlink:href="#linearGradient4248"
       id="radialGradient17"
       gradientUnits="userSpaceOnUse"
       gradientTransform="matrix(0,2.7670112,-3.3322824,-1.5723221e-7,51.668417,-19.560469)"
       cx="7.4956832"
       cy="8.4497671"
       fx="7.4956832"
       fy="8.4497671"
       r="19.99999" />
    <linearGradient
       xlink:href="#linearGradient4258"
       id="linearGradient17"
       gradientUnits="userSpaceOnUse"
       gradientTransform="matrix(0.87152081,0,0,1.0885138,2.594811,-4.3522434)"
       x1="24"
       y1="44"
       x2="24"
       y2="3.8990016" />
    <linearGradient
       xlink:href="#linearGradient3977"
       id="linearGradient18"
       gradientUnits="userSpaceOnUse"
       gradientTransform="matrix(0.81052406,0,0,1.0382404,4.0587397,-3.1456703)"
       x1="23.99999"
       y1="5.5641499"
       x2="23.99999"
       y2="43" />
    <linearGradient
       xlink:href="#linearGradient4246-9"
       id="linearGradient19"
       gradientUnits="userSpaceOnUse"
       gradientTransform="matrix(0.86687307,0,0,1.0637604,3.1791503,-3.7594661)"
       x1="23.969797"
       y1="3.9810441"
       x2="23.969797"
       y2="44.024017" />
  </defs>
  <g
     id="layer1"
     transform="matrix(0.5,0,0,0.49473716,0.24457793,1.2390639)"
     style="stroke-width:2.01061">
    <g
       id="g17"
       style="display:inline;stroke-width:2.01061"
       transform="translate(3.999532,-2.0425504)">
      <path
         style="color:#000000;display:inline;overflow:visible;visibility:visible;fill:url(#radialGradient17);fill-opacity:1;fill-rule:nonzero;stroke:url(#linearGradient17);stroke-width:2.01061;stroke-linecap:round;stroke-linejoin:round;stroke-miterlimit:4;stroke-dasharray:none;stroke-dashoffset:0;stroke-opacity:1;marker:none;enable-background:accumulate"
         id="path13"
         d="m 6.5166172,0.54336615 c 7.7886938,0 33.9893488,0.002702 33.9893488,0.002702 l 4.1e-5,42.45474585 c 0,0 -22.659593,0 -33.9893898,0 0,-14.152483 0,-28.304966 0,-42.45744785 z" />
      <path
         id="path14"
         d="M 38.506007,40.979537 H 8.5166172 V 2.5646415 H 38.506007 Z"
         style="display:inline;opacity:0.5;fill:none;stroke:url(#linearGradient18);stroke-width:2.01061;stroke-linecap:round;stroke-linejoin:round;stroke-miterlimit:4;stroke-dasharray:none;stroke-dashoffset:0;stroke-opacity:1" />
      <path
         id="path15"
         d="M 27.276018,1.5593364 C 16.048073,13.399649 9.6447898,15.085587 7.5113121,15.269879 v 4.236734 C 9.1216606,19.230278 13.171009,18.264595 17.4819,14.94624 23.009649,10.691198 29.628959,2.61852 29.628959,2.61852 27.816535,6.9877938 27.281624,22.061503 27.246606,41.984842 h 11.588235 c 0.247324,0 0.467953,-0.05866 0.676471,-0.17653 V 37.247938 C 37.888281,32.082908 36.723581,25.582198 35.834841,19.653722 34.935456,11.265929 36.283635,3.922093 36.776018,1.5593364 Z M 7.5113121,22.183994 v 4.707482 c 4.6613259,0 11.8274929,6.887686 15.2941179,15.093366 h 2.911764 C 24.088313,34.525077 11.067528,22.183994 7.5113121,22.183994 Z"
         style="display:inline;fill:url(#linearGradient19);fill-opacity:1;fill-rule:evenodd;stroke:none;stroke-width:2.01061" />
      <path
         id="path16"
         d="M 37.276018,1.5593363 C 32.862846,5.1472648 18.420475,16.074374 7.5113121,14.689963 v 9.903879 c 0,0 22.6321369,4.508137 31.9999999,-3.801812 V 1.8149203 c -0.237344,-0.162124 -0.508088,-0.255584 -0.794118,-0.255584 z"
         style="display:inline;opacity:0.1;fill:#000000;fill-opacity:1;fill-rule:evenodd;stroke:none;stroke-width:2.01061" />
      <path
         id="path17"
         d="m 39.51131,25.81464 c -4.477127,4.52382 -8.944229,10.251815 -11.999999,16.170202 h 3.827027 c 2.368489,-3.890318 5.384329,-8.113258 8.172972,-11.088139 z"
         style="display:inline;opacity:0.1;fill:#000000;fill-opacity:1;fill-rule:evenodd;stroke:none;stroke-width:2.01061" />
    </g>
    <g
       id="g8"
       transform="translate(-4.68e-4,-0.02127514)"
       style="stroke-width:2.01061;display:inline">
      <path
         style="color:#000000;display:inline;overflow:visible;visibility:visible;fill:url(#radialGradient4283);fill-opacity:1;fill-rule:nonzero;stroke:url(#linearGradient4323);stroke-width:2.01061;stroke-linecap:round;stroke-linejoin:round;stroke-miterlimit:4;stroke-dasharray:none;stroke-dashoffset:0;stroke-opacity:1;marker:none;enable-background:accumulate"
         id="path3045"
         d="m 6.5166172,0.54336615 c 7.7886938,0 33.9893488,0.002702 33.9893488,0.002702 l 4.1e-5,42.45474585 c 0,0 -22.659593,0 -33.9893898,0 0,-14.152483 0,-28.304966 0,-42.45744785 z" />
      <path
         id="path5"
         d="M 38.506007,40.979537 H 8.5166172 V 2.5646415 H 38.506007 Z"
         style="display:inline;opacity:0.5;fill:none;stroke:url(#linearGradient9);stroke-width:2.01061;stroke-linecap:round;stroke-linejoin:round;stroke-miterlimit:4;stroke-dasharray:none;stroke-dashoffset:0;stroke-opacity:1" />
      <path
         id="path6"
         d="M 27.276018,1.5593364 C 16.048073,13.399649 9.6447898,15.085587 7.5113121,15.269879 v 4.236734 C 9.1216606,19.230278 13.171009,18.264595 17.4819,14.94624 23.009649,10.691198 29.628959,2.61852 29.628959,2.61852 27.816535,6.9877938 27.281624,22.061503 27.246606,41.984842 h 11.588235 c 0.247324,0 0.467953,-0.05866 0.676471,-0.17653 V 37.247938 C 37.888281,32.082908 36.723581,25.582198 35.834841,19.653722 34.935456,11.265929 36.283635,3.922093 36.776018,1.5593364 Z M 7.5113121,22.183994 v 4.707482 c 4.6613259,0 11.8274929,6.887686 15.2941179,15.093366 h 2.911764 C 24.088313,34.525077 11.067528,22.183994 7.5113121,22.183994 Z"
         style="display:inline;fill:url(#linearGradient10);fill-opacity:1;fill-rule:evenodd;stroke:none;stroke-width:2.01061" />
      <path
         id="path7"
         d="M 37.276018,1.5593363 C 32.862846,5.1472648 18.420475,16.074374 7.5113121,14.689963 v 9.903879 c 0,0 22.6321369,4.508137 31.9999999,-3.801812 V 1.8149203 c -0.237344,-0.162124 -0.508088,-0.255584 -0.794118,-0.255584 z"
         style="display:inline;opacity:0.1;fill:#000000;fill-opacity:1;fill-rule:evenodd;stroke:none;stroke-width:2.01061" />
      <path
         id="path8"
         d="m 39.51131,25.81464 c -4.477127,4.52382 -8.944229,10.251815 -11.999999,16.170202 h 3.827027 c 2.368489,-3.890318 5.384329,-8.113258 8.172972,-11.088139 z"
         style="display:inline;opacity:0.1;fill:#000000;fill-opacity:1;fill-rule:evenodd;stroke:none;stroke-width:2.01061" />
    </g>
    <g
       id="g3024"
       transform="translate(-4.000468,2.0000002)"
       style="display:inline;stroke-width:2.01061">
      <path
         d="m 6.5166172,0.54336619 c 7.7886938,0 33.9893488,0.002702 33.9893488,0.002702 l 4.1e-5,42.45474481 c 0,0 -22.659593,0 -33.9893898,0 0,-14.152483 0,-28.304965 0,-42.45744681 z"
         id="path4160"
         style="color:#000000;display:inline;overflow:visible;visibility:visible;fill:url(#radialGradient3195);fill-opacity:1;fill-rule:nonzero;stroke:url(#linearGradient3197);stroke-width:2.01061;stroke-linecap:round;stroke-linejoin:round;stroke-miterlimit:4;stroke-dasharray:none;stroke-dashoffset:0;stroke-opacity:1;marker:none;enable-background:accumulate" />
      <path
         id="rect6741-1"
         d="M 38.506007,40.979537 H 8.5166172 V 2.5646415 H 38.506007 Z"
         style="display:inline;opacity:0.5;fill:none;stroke:url(#linearGradient3199);stroke-width:2.01061;stroke-linecap:round;stroke-linejoin:round;stroke-miterlimit:4;stroke-dasharray:none;stroke-dashoffset:0;stroke-opacity:1" />
      <path
         id="path6711-2"
         d="M 27.276018,1.5593364 C 16.048073,13.399649 9.6447898,15.085587 7.5113121,15.269879 v 4.236734 C 9.1216606,19.230278 13.171009,18.264595 17.4819,14.94624 23.009649,10.691198 29.628959,2.61852 29.628959,2.61852 27.816535,6.9877938 27.281624,22.061503 27.246606,41.984842 h 11.588235 c 0.247324,0 0.467953,-0.05866 0.676471,-0.17653 V 37.247938 C 37.888281,32.082908 36.723581,25.582198 35.834841,19.653722 34.935456,11.265929 36.283635,3.922093 36.776018,1.5593364 Z M 7.5113121,22.183994 v 4.707482 c 4.6613259,0 11.8274929,6.887686 15.2941179,15.093366 h 2.911764 C 24.088313,34.525077 11.067528,22.183994 7.5113121,22.183994 Z"
         style="display:inline;fill:url(#linearGradient3201);fill-opacity:1;fill-rule:evenodd;stroke:none;stroke-width:2.01061" />
      <path
         id="path6713-2"
         d="M 37.276018,1.5593363 C 32.862846,5.1472648 18.420475,16.074374 7.5113121,14.689963 v 9.903879 c 0,0 22.6321369,4.508137 31.9999999,-3.801812 V 1.8149203 c -0.237344,-0.162124 -0.508088,-0.255584 -0.794118,-0.255584 z"
         style="display:inline;opacity:0.1;fill:#000000;fill-opacity:1;fill-rule:evenodd;stroke:none;stroke-width:2.01061" />
      <path
         id="path6715-0"
         d="m 39.51131,25.81464 c -4.477127,4.52382 -8.944229,10.251815 -11.999999,16.170202 h 3.827027 c 2.368489,-3.890318 5.384329,-8.113258 8.172972,-11.088139 z"
         style="display:inline;opacity:0.1;fill:#000000;fill-opacity:1;fill-rule:evenodd;stroke:none;stroke-width:2.01061" />
    </g>
  </g>
</svg>
