<?xml version="1.0" encoding="UTF-8" standalone="no"?>
<svg
   version="1.1"
   width="24"
   height="24"
   id="svg10994"
   xmlns:xlink="http://www.w3.org/1999/xlink"
   xmlns="http://www.w3.org/2000/svg"
   xmlns:svg="http://www.w3.org/2000/svg"
   xmlns:rdf="http://www.w3.org/1999/02/22-rdf-syntax-ns#"
   xmlns:cc="http://creativecommons.org/ns#"
   xmlns:dc="http://purl.org/dc/elements/1.1/">
  <defs
     id="defs10996">
    <linearGradient
       id="linearGradient3454-2-5-0-3-4-1">
      <stop
         id="stop3456-4-9-38-1-8-8"
         style="stop-color:#ffffff;stop-opacity:1"
         offset="0" />
      <stop
         id="stop3458-39-80-3-5-5-8"
         style="stop-color:#ffffff;stop-opacity:0.23529412"
         offset="0.0097359" />
      <stop
         id="stop3460-7-0-2-4-2-7"
         style="stop-color:#ffffff;stop-opacity:0.15686275"
         offset="0.99001008" />
      <stop
         id="stop3462-0-9-8-7-2-3"
         style="stop-color:#ffffff;stop-opacity:0.39215687"
         offset="1" />
    </linearGradient>
    <linearGradient
       id="linearGradient4632-0-6-4-3-4-0">
      <stop
         id="stop4634-4-4-7-7-4-8"
         style="stop-color:#e9e9e9;stop-opacity:1"
         offset="0" />
      <stop
         id="stop4636-3-1-5-1-3-9"
         style="stop-color:#b4b4b4;stop-opacity:1"
         offset="1" />
    </linearGradient>
    <linearGradient
       id="linearGradient4325-0">
      <stop
         id="stop4327-4"
         style="stop-color:#ffffff;stop-opacity:1"
         offset="0" />
      <stop
         id="stop4329-5"
         style="stop-color:#ffffff;stop-opacity:0.23529412"
         offset="0.1106325" />
      <stop
         id="stop4331-6"
         style="stop-color:#ffffff;stop-opacity:0.15686275"
         offset="0.99001008" />
      <stop
         id="stop4333-7"
         style="stop-color:#ffffff;stop-opacity:0.39215687"
         offset="1" />
    </linearGradient>
    <linearGradient
       id="linearGradient4646-7-4-3-5-6">
      <stop
         id="stop4648-8-0-3-6-5"
         style="stop-color:#f9f9f9;stop-opacity:1"
         offset="0" />
      <stop
         id="stop4650-1-7-3-4-8"
         style="stop-color:#d8d8d8;stop-opacity:1"
         offset="1" />
    </linearGradient>
    <linearGradient
       id="linearGradient5048">
      <stop
         id="stop5050"
         style="stop-color:#000000;stop-opacity:0"
         offset="0" />
      <stop
         id="stop5056"
         style="stop-color:#000000;stop-opacity:1"
         offset="0.5" />
      <stop
         id="stop5052"
         style="stop-color:#000000;stop-opacity:0"
         offset="1" />
    </linearGradient>
    <linearGradient
       id="linearGradient5060">
      <stop
         id="stop5062"
         style="stop-color:#000000;stop-opacity:1"
         offset="0" />
      <stop
         id="stop5064"
         style="stop-color:#000000;stop-opacity:0"
         offset="1" />
    </linearGradient>
    <linearGradient
       id="linearGradient3104-8-8-97-4-6-11-5-5-0-5">
      <stop
         id="stop3106-5-4-3-5-0-2-1-0-6-6"
         style="stop-color:#000000;stop-opacity:0.32173914"
         offset="0" />
      <stop
         id="stop3108-4-3-7-8-2-0-7-9-1-4"
         style="stop-color:#000000;stop-opacity:0.27826086"
         offset="1" />
    </linearGradient>
    <linearGradient
       xlink:href="#linearGradient3104-8-8-97-4-6-11-5-5-0-5"
       id="linearGradient3062"
       gradientUnits="userSpaceOnUse"
       gradientTransform="matrix(0.3980766,0,0,0.3949116,52.884534,-1.0035035)"
       x1="-51.786404"
       y1="53.514328"
       x2="-51.786404"
       y2="3.6336823" />
    <linearGradient
       xlink:href="#linearGradient4646-7-4-3-5-6"
       id="linearGradient3059"
       gradientUnits="userSpaceOnUse"
       gradientTransform="matrix(0.48601957,0,0,0.48601957,-24.386658,-0.92593475)"
       x1="62.988873"
       y1="13"
       x2="62.988873"
       y2="16" />
    <linearGradient
       xlink:href="#linearGradient4325-0"
       id="linearGradient3056-5"
       gradientUnits="userSpaceOnUse"
       gradientTransform="matrix(0.42696994,0,0,0.482578,2.0406379,1.9495802)"
       x1="21.37039"
       y1="4.73244"
       x2="21.37039"
       y2="34.143417" />
    <linearGradient
       x1="302.85715"
       y1="366.64789"
       x2="302.85715"
       y2="609.50507"
       id="linearGradient14886"
       xlink:href="#linearGradient5048"
       gradientUnits="userSpaceOnUse"
       gradientTransform="matrix(0.04700148,0,0,0.01591575,-0.98829681,22.29927)" />
    <radialGradient
       cx="605.71429"
       cy="486.64789"
       r="117.14286"
       fx="605.71429"
       fy="486.64789"
       id="radialGradient14888"
       xlink:href="#linearGradient5060"
       gradientUnits="userSpaceOnUse"
       gradientTransform="matrix(0.01983573,0,0,0.01591575,15.387172,22.29927)" />
    <radialGradient
       cx="605.71429"
       cy="486.64789"
       r="117.14286"
       fx="605.71429"
       fy="486.64789"
       id="radialGradient14890"
       xlink:href="#linearGradient5060"
       gradientUnits="userSpaceOnUse"
       gradientTransform="matrix(-0.01983573,0,0,0.01591575,16.601057,22.29927)" />
    <linearGradient
       xlink:href="#linearGradient4632-0-6-4-3-4-0"
       id="linearGradient3049"
       gradientUnits="userSpaceOnUse"
       gradientTransform="matrix(0.50595874,0,0,0.50471254,-0.10691665,-1.3465252)"
       x1="35.792694"
       y1="17.118193"
       x2="35.792694"
       y2="43.761127" />
    <linearGradient
       xlink:href="#linearGradient3454-2-5-0-3-4-1"
       id="linearGradient3043"
       gradientUnits="userSpaceOnUse"
       gradientTransform="matrix(0.70020799,0,0,0.82743492,1.9244026,2.2019141)"
       x1="27.557428"
       y1="7.162672"
       x2="27.557428"
       y2="21.386522" />
  </defs>
  <metadata
     id="metadata10999">
    <rdf:RDF>
      <cc:Work
         rdf:about="">
        <dc:format>image/svg+xml</dc:format>
        <dc:type
           rdf:resource="http://purl.org/dc/dcmitype/StillImage" />
      </cc:Work>
    </rdf:RDF>
  </metadata>
  <path
     style="color:#000000;display:inline;overflow:visible;visibility:visible;opacity:0.8;fill:none;stroke:url(#linearGradient3062);stroke-width:0.785109;stroke-linecap:butt;stroke-linejoin:miter;stroke-miterlimit:4;stroke-dasharray:none;stroke-dashoffset:0;stroke-opacity:1;marker:none;enable-background:accumulate"
     id="use7669"
     d="M 3.4001951,3.055751 C 3.0599134,3.0596766 3.0076408,3.2263002 3.0076408,3.5542164 v 1.0716889 c -0.977994,0 -0.7851085,-0.00157 -0.7851085,0.4270127 0.016958,5.129216 0,5.418372 0,5.853855 0.7076576,0 19.6277137,-1.84418 19.6277137,-2.6380032 V 5.052918 c 0,-0.3279163 -0.27321,-0.4308362 -0.613492,-0.4270127 H 11.643835 V 3.5542164 c 0,-0.3279162 -0.207457,-0.5022888 -0.547747,-0.4984654 z" />
  <path
     style="color:#000000;display:inline;overflow:visible;visibility:visible;fill:url(#linearGradient3059);fill-opacity:1;fill-rule:nonzero;stroke:none;stroke-width:0.785109;marker:none;enable-background:accumulate"
     id="use7671"
     d="M 3.4001951,3.4482425 V 5.0184596 H 2.6150866 V 8.1588938 H 21.457692 V 5.0184596 H 11.251281 V 3.4482425 Z" />
  <path
     style="color:#000000;display:inline;overflow:visible;visibility:visible;fill:none;stroke:url(#linearGradient3056-5);stroke-width:0.785109;stroke-linecap:round;stroke-linejoin:miter;stroke-miterlimit:4;stroke-dasharray:none;stroke-dashoffset:0;stroke-opacity:1;marker:none;enable-background:accumulate"
     id="use7673"
     d="m 3.7927494,3.8407968 v 1.570217 H 3.0076408 V 8.5514481 H 21.065137 V 5.4110138 H 10.858726 v -1.570217 z" />
  <g
     id="use7675"
     transform="matrix(0.78510854,0,0,0.78510854,-0.52564644,-2.8326258)">
    <rect
       style="display:inline;overflow:visible;visibility:visible;opacity:0.3;fill:url(#linearGradient14886);fill-opacity:1;fill-rule:nonzero;stroke:none;stroke-width:1;marker:none"
       id="rect14880"
       y="28.134747"
       x="4.6518807"
       height="3.8652544"
       width="22.695" />
    <path
       style="display:inline;overflow:visible;visibility:visible;opacity:0.3;fill:url(#radialGradient14888);fill-opacity:1;fill-rule:nonzero;stroke:none;stroke-width:1;marker:none"
       id="path14882"
       d="m 27.341381,28.13488 c 0,0 0,3.865041 0,3.865041 1.021491,0.0073 2.469468,-0.86596 2.469468,-1.932769 0,-1.06681 -1.139908,-1.932272 -2.469468,-1.932272 z" />
    <path
       style="display:inline;overflow:visible;visibility:visible;opacity:0.3;fill:url(#radialGradient14890);fill-opacity:1;fill-rule:nonzero;stroke:none;stroke-width:1;marker:none"
       id="path14884"
       d="m 4.6468484,28.13488 c 0,0 0,3.865041 0,3.865041 -1.0214912,0.0073 -2.4694678,-0.86596 -2.4694678,-1.932769 0,-1.06681 1.1399068,-1.932272 2.4694678,-1.932272 z" />
  </g>
  <path
     style="color:#000000;display:inline;overflow:visible;visibility:visible;fill:url(#linearGradient3049);fill-opacity:1;fill-rule:nonzero;stroke:none;stroke-width:0.785109;marker:none;enable-background:accumulate"
     id="use7677"
     d="M 1.7725395,6.9812309 C 1.2299902,7.0437256 1.5197659,7.6898543 1.4765143,8.0531789 1.53948,8.2879735 1.9457815,20.393506 1.9457815,20.809182 c 0,0.361291 0.1779606,0.300084 0.6288798,0.300084 H 21.729331 c 0.485763,0.01123 0.383102,0.0055 0.383102,-0.305776 0.03549,-0.159134 0.502414,-13.3299488 0.520385,-13.5379713 0,-0.2190453 0.04561,-0.2842878 -0.239403,-0.2842878 z" />
  <path
     style="color:#000000;display:inline;overflow:visible;visibility:visible;opacity:0.5;fill:none;stroke:url(#linearGradient3043);stroke-width:0.785109;stroke-linecap:round;stroke-linejoin:miter;stroke-miterlimit:4;stroke-dasharray:none;stroke-dashoffset:0;stroke-opacity:1;marker:none;enable-background:accumulate"
     id="use7681"
     d="M 2.2225323,7.7663395 2.7132094,20.328075 H 21.358886 L 21.849563,7.7663395 Z" />
  <path
     style="color:#000000;display:inline;overflow:visible;visibility:visible;opacity:0.3;fill:none;stroke:#000000;stroke-width:0.785109;stroke-linecap:round;stroke-linejoin:round;stroke-miterlimit:4;stroke-dasharray:none;stroke-dashoffset:0;stroke-opacity:1;marker:none;enable-background:accumulate"
     id="path3388-5-0"
     d="m 1.772194,6.9812309 c -0.5425492,0.062495 -0.2527735,0.7086234 -0.2960251,1.071948 0.062966,0.2347946 0.4692672,12.3403271 0.4692672,12.7560031 0,0.361291 0.1779605,0.300084 0.6288798,0.300084 H 21.728986 c 0.485762,0.01123 0.383101,0.0055 0.383101,-0.305776 0.03549,-0.159134 0.502415,-13.3299488 0.520386,-13.5379713 0,-0.2190453 0.04561,-0.2842878 -0.239403,-0.2842878 z" />
  <path
     style="color:#000000;display:inline;overflow:visible;visibility:visible;opacity:0.6;fill:#ffffff;fill-opacity:1;fill-rule:nonzero;stroke:none;stroke-width:1.33468;marker:none;enable-background:accumulate"
     id="path2998-4-8-1-6"
     d="m 12.046812,10.51422 -4.7807424,4.780743 0.9253061,0.925307 0.7710967,-0.771082 v 3.701226 h 2.4674836 v -1.850613 c 0,-0.341754 0.275117,-0.616871 0.616856,-0.616871 0.341754,0 0.616872,0.275117 0.616872,0.616871 v 1.850613 h 2.467498 v -3.701226 l 0.771081,0.771082 0.925307,-0.925307 z m 1.559009,3e-6 v 0.785109 l 1.570217,1.570217 v -2.355326 z" />
  <path
     style="color:#000000;display:inline;overflow:visible;visibility:visible;fill:#1a1a1a;fill-opacity:0.6;fill-rule:nonzero;stroke:none;stroke-width:1.33468;marker:none;enable-background:accumulate"
     id="path2998-4-8-11"
     d="m 12.046812,9.7291117 -4.7807424,4.7807423 0.9253061,0.925307 0.7710967,-0.771082 v 3.701227 h 2.4674836 v -1.850613 c 0,-0.341754 0.275117,-0.616871 0.616856,-0.616871 0.341754,0 0.616872,0.275117 0.616872,0.616871 v 1.850613 h 2.467498 v -3.701227 l 0.771081,0.771082 0.925307,-0.925307 z m 1.559009,3.1e-6 v 0.7851082 l 1.570217,1.37394 V 9.7291148 Z" />
</svg>
