<?xml version="1.0" encoding="UTF-8" standalone="no"?>
<svg
   version="1.1"
   width="24"
   height="24"
   id="svg3426"
   sodipodi:docname="utilities-terminal.svg"
   inkscape:version="1.3.2 (091e20e, 2023-11-25)"
   xmlns:inkscape="http://www.inkscape.org/namespaces/inkscape"
   xmlns:sodipodi="http://sodipodi.sourceforge.net/DTD/sodipodi-0.dtd"
   xmlns:xlink="http://www.w3.org/1999/xlink"
   xmlns="http://www.w3.org/2000/svg"
   xmlns:svg="http://www.w3.org/2000/svg"
   xmlns:rdf="http://www.w3.org/1999/02/22-rdf-syntax-ns#"
   xmlns:cc="http://creativecommons.org/ns#"
   xmlns:dc="http://purl.org/dc/elements/1.1/">
  <sodipodi:namedview
     id="namedview1"
     pagecolor="#ffffff"
     bordercolor="#000000"
     borderopacity="0.25"
     inkscape:showpageshadow="2"
     inkscape:pageopacity="0.0"
     inkscape:pagecheckerboard="0"
     inkscape:deskcolor="#d1d1d1"
     showgrid="true"
     inkscape:current-layer="svg3426" />
  <defs
     id="defs3428">
    <radialGradient
       cx="4.9929786"
       cy="43.5"
       r="2.5"
       fx="4.9929786"
       fy="43.5"
       id="radialGradient3152"
       xlink:href="#linearGradient3688-166-749"
       gradientUnits="userSpaceOnUse"
       gradientTransform="matrix(2.003784,0,0,1.4,27.98813,-17.4)" />
    <linearGradient
       id="linearGradient3688-166-749">
      <stop
         id="stop2883"
         style="stop-color:#181818;stop-opacity:1"
         offset="0" />
      <stop
         id="stop2885"
         style="stop-color:#181818;stop-opacity:0"
         offset="1" />
    </linearGradient>
    <radialGradient
       cx="4.9929786"
       cy="43.5"
       r="2.5"
       fx="4.9929786"
       fy="43.5"
       id="radialGradient3154"
       xlink:href="#linearGradient3688-464-309"
       gradientUnits="userSpaceOnUse"
       gradientTransform="matrix(2.003784,0,0,1.4,-20.01187,-104.4)" />
    <linearGradient
       id="linearGradient3688-464-309">
      <stop
         id="stop2889"
         style="stop-color:#181818;stop-opacity:1"
         offset="0" />
      <stop
         id="stop2891"
         style="stop-color:#181818;stop-opacity:0"
         offset="1" />
    </linearGradient>
    <linearGradient
       x1="25.058096"
       y1="47.027729"
       x2="25.058096"
       y2="39.999443"
       id="linearGradient3156"
       xlink:href="#linearGradient3702-501-757"
       gradientUnits="userSpaceOnUse" />
    <linearGradient
       id="linearGradient3702-501-757">
      <stop
         id="stop2895"
         style="stop-color:#181818;stop-opacity:0"
         offset="0" />
      <stop
         id="stop2897"
         style="stop-color:#181818;stop-opacity:1"
         offset="0.5" />
      <stop
         id="stop2899"
         style="stop-color:#181818;stop-opacity:0"
         offset="1" />
    </linearGradient>
    <linearGradient
       id="linearGradient3924-64">
      <stop
         id="stop3926-3-6"
         style="stop-color:#ffffff;stop-opacity:1"
         offset="0" />
      <stop
         id="stop3928-0"
         style="stop-color:#ffffff;stop-opacity:0.23529412"
         offset="0" />
      <stop
         id="stop3930-3-59"
         style="stop-color:#ffffff;stop-opacity:0.15686275"
         offset="1" />
      <stop
         id="stop3932-0"
         style="stop-color:#ffffff;stop-opacity:0.39215687"
         offset="1" />
    </linearGradient>
    <linearGradient
       y2="41.414425"
       x2="23.99999"
       y1="6.5908957"
       x1="23.99999"
       gradientTransform="matrix(0.45945947,0,0,0.45945947,0.9742189,0.9717506)"
       gradientUnits="userSpaceOnUse"
       id="linearGradient3101"
       xlink:href="#linearGradient3924-64" />
    <linearGradient
       id="linearGradient2867-449-88-871-390-598-476-591-434-148-57-177-8-3-3-6-4-8-8-8-5-7-8">
      <stop
         offset="0"
         style="stop-color:#404648;stop-opacity:1"
         id="stop3750-1-0-7-6-6-1-3-9-3-9-2" />
      <stop
         offset="1"
         style="stop-color:#0c1011;stop-opacity:1"
         id="stop3754-1-8-5-2-7-6-7-1-9-1-0" />
    </linearGradient>
    <radialGradient
       gradientTransform="matrix(0,2.8928881,-3.5515428,0,47.767971,-26.609032)"
       gradientUnits="userSpaceOnUse"
       xlink:href="#linearGradient2867-449-88-871-390-598-476-591-434-148-57-177-8-3-3-6-4-8-8-8-5-7-8"
       id="radialGradient3988-3-3"
       fy="9.9571075"
       fx="6.952919"
       r="12.671875"
       cy="9.9571075"
       cx="6.952919" />
    <radialGradient
       xlink:href="#linearGradient3688-166-749"
       id="radialGradient3038"
       gradientUnits="userSpaceOnUse"
       gradientTransform="matrix(2.003784,0,0,1.4,27.98813,-17.4)"
       cx="4.9929786"
       cy="43.5"
       fx="4.9929786"
       fy="43.5"
       r="2.5" />
    <radialGradient
       xlink:href="#linearGradient3688-166-749"
       id="radialGradient3040"
       gradientUnits="userSpaceOnUse"
       gradientTransform="matrix(2.003784,0,0,1.4,-20.01187,-104.4)"
       cx="4.9929786"
       cy="43.5"
       fx="4.9929786"
       fy="43.5"
       r="2.5" />
    <linearGradient
       xlink:href="#linearGradient3895"
       id="linearGradient3024"
       gradientUnits="userSpaceOnUse"
       gradientTransform="matrix(0.45945946,0,0,0.45945946,0.9729691,0.97297964)"
       x1="23.99999"
       y1="4.9999938"
       x2="23.99999"
       y2="44.608963" />
    <linearGradient
       id="linearGradient3895">
      <stop
         offset="0"
         style="stop-color:#ffffff;stop-opacity:1"
         id="stop3897" />
      <stop
         offset="0.05263157"
         style="stop-color:#ffffff;stop-opacity:0.23529412"
         id="stop3899" />
      <stop
         offset="0.92366171"
         style="stop-color:#ffffff;stop-opacity:0.15686275"
         id="stop3901" />
      <stop
         offset="1"
         style="stop-color:#ffffff;stop-opacity:0.39215687"
         id="stop3903" />
    </linearGradient>
    <linearGradient
       xlink:href="#linearGradient3680-6-6-6-3-7"
       id="linearGradient3024-3"
       gradientUnits="userSpaceOnUse"
       gradientTransform="matrix(0.66257291,0,0,0.66257291,-1.447654,-1.6424703)"
       x1="20"
       y1="26.000008"
       x2="20"
       y2="13.000008" />
    <linearGradient
       id="linearGradient3680-6-6-6-3-7">
      <stop
         id="stop3682-4-6-1-3-7"
         style="stop-color:#f0f0f0;stop-opacity:1;"
         offset="0" />
      <stop
         id="stop3684-8-5-8-0-2"
         style="stop-color:#ffffff;stop-opacity:1"
         offset="1" />
    </linearGradient>
  </defs>
  <metadata
     id="metadata3431">
    <rdf:RDF>
      <cc:Work
         rdf:about="">
        <dc:format>image/svg+xml</dc:format>
        <dc:type
           rdf:resource="http://purl.org/dc/dcmitype/StillImage" />
      </cc:Work>
    </rdf:RDF>
  </metadata>
  <g
     style="opacity:0.4"
     id="g3712"
     transform="matrix(0.5789476,0,0,0.42857134,-1.894738,2.8571264)">
    <rect
       style="fill:url(#radialGradient3152);fill-opacity:1;stroke:none"
       id="rect2801"
       y="40"
       x="38"
       height="7"
       width="5" />
    <rect
       style="fill:url(#radialGradient3154);fill-opacity:1;stroke:none"
       id="rect3696"
       transform="scale(-1)"
       y="-47"
       x="-10"
       height="7"
       width="5" />
    <rect
       style="fill:url(#linearGradient3156);fill-opacity:1;stroke:none"
       id="rect3700"
       y="40"
       x="10"
       height="7.0000005"
       width="28" />
  </g>
  <rect
     style="color:#000000;clip-rule:nonzero;display:inline;overflow:visible;visibility:visible;opacity:0.9;isolation:auto;mix-blend-mode:normal;color-interpolation:sRGB;color-interpolation-filters:linearRGB;solid-color:#000000;solid-opacity:1;fill:url(#radialGradient3988-3-3);fill-opacity:1;fill-rule:nonzero;stroke:none;stroke-width:1;stroke-linecap:butt;stroke-linejoin:miter;stroke-miterlimit:4;stroke-dasharray:none;stroke-dashoffset:0;stroke-opacity:1;marker:none;color-rendering:auto;image-rendering:auto;shape-rendering:auto;text-rendering:auto;enable-background:accumulate"
     id="rect5505-21-6"
     y="2.5000269"
     x="2.499999"
     ry="0.97020459"
     rx="0.99742985"
     height="19"
     width="19" />
  <rect
     width="19.000002"
     height="19.000002"
     rx="0.98982191"
     ry="0.95179939"
     x="2.4999981"
     y="2.500026"
     id="rect5505-21-8-1"
     style="color:#000000;display:inline;overflow:visible;visibility:visible;opacity:0.7;fill:none;stroke:#000000;stroke-width:1;stroke-linecap:round;stroke-linejoin:round;stroke-miterlimit:4;stroke-dasharray:none;stroke-dashoffset:0;stroke-opacity:1;marker:none;enable-background:accumulate" />
  <path
     style="color:#000000;font-style:normal;font-variant:normal;font-weight:bold;font-stretch:normal;font-size:5.92781px;line-height:125%;font-family:'Open Sans';-inkscape-font-specification:'Open Sans Bold';letter-spacing:0px;word-spacing:0px;clip-rule:nonzero;display:inline;overflow:visible;visibility:visible;opacity:0.15;isolation:auto;mix-blend-mode:normal;color-interpolation:sRGB;color-interpolation-filters:linearRGB;solid-color:#000000;solid-opacity:1;fill:#000000;fill-opacity:1;fill-rule:nonzero;stroke:none;stroke-width:1;stroke-linecap:butt;stroke-linejoin:miter;stroke-miterlimit:4;stroke-dasharray:none;stroke-dashoffset:0;stroke-opacity:1;marker:none;color-rendering:auto;image-rendering:auto;shape-rendering:auto;text-rendering:auto;enable-background:accumulate"
     d="M 6,5 A 1.0001,1.0001 0 0 0 5,6 V 6.3242188 C 4.9359508,6.3606949 4.8716836,6.3613981 4.8085938,6.40625 A 1.0001,1.0001 0 0 0 4.8066438,6.4082 C 4.2713,6.7916936 3.9375,7.4672725 3.9375,8.1074219 c 0,0.3418605 0.08177,0.7178308 0.2851562,1.0488281 0.026671,0.043406 0.070357,0.066492 0.099609,0.1074219 -0.2081758,0.19144 -0.4363859,0.4018501 -0.4394531,0.7246093 a 1.0001,1.0001 0 0 0 0,0.00977 v 0.7636718 c -0.00183,0.47957 0.3385262,0.874187 0.6875,1.017578 0,0 0,0.002 0,0.002 0.1440359,0.0593 0.2856558,0.05158 0.4296875,0.08984 V 12 a 1.0001,1.0001 0 0 0 1,1 h 1 a 1.0001,1.0001 0 0 0 1,-1 v -0.322266 c 0.05989,-0.03318 0.1228119,-0.03446 0.1816406,-0.07422 0.5590889,-0.376813 0.9355469,-1.06421 0.9355469,-1.7382816 0,-0.4797273 -0.1807543,-0.9984925 -0.5253906,-1.375 -0.00504,-0.00553 -0.012517,-0.00627 -0.017578,-0.011719 0.02627,-0.040679 0.075379,-0.043886 0.097656,-0.089844 l 0.3125,-0.6347657 C 9.1227099,7.47235 9.1260377,7.0974712 8.9921875,6.8125 8.8583373,6.5275288 8.6200736,6.3393701 8.3789062,6.2480469 a 1.0001,1.0001 0 0 0 -0.00977,-0.00391 C 8.246421,6.1991518 8.1230007,6.1725675 8,6.1347656 V 6 A 1.0001,1.0001 0 0 0 7,5 Z m 3.8066406,6.087891 c -0.4395033,0.09247 -0.7839908,0.519633 -0.78125,0.96875 v 1 c 0.00768,0.505097 0.463653,0.961069 0.96875,0.96875 h 4.0000004 c 0.505097,-0.0077 0.961069,-0.463653 0.96875,-0.96875 v -1 c -0.0077,-0.505097 -0.463653,-0.961069 -0.96875,-0.96875 H 9.9941406 c -0.06231,-0.006 -0.1251897,-0.006 -0.1875,0 z"
     id="path4407" />
  <path
     style="color:#000000;font-style:normal;font-variant:normal;font-weight:bold;font-stretch:normal;font-size:14.3117px;line-height:125%;font-family:'Open Sans';-inkscape-font-specification:'Open Sans Bold';letter-spacing:0px;word-spacing:0px;display:inline;overflow:visible;visibility:visible;opacity:0.3;fill:#000000;fill-opacity:1;fill-rule:nonzero;stroke:none;marker:none;enable-background:accumulate"
     d="m 6,6 v 0.9707031 c -0.2336342,0.052246 -0.4430714,0.1303828 -0.6113281,0.25 C 5.0879338,7.4361364 4.9375,7.7408865 4.9375,8.1074219 c 0,0.1954364 0.042925,0.3727478 0.1367188,0.5253906 0.090934,0.1479895 0.2141333,0.2761345 0.3652343,0.3867187 0.1537189,0.1125002 0.3709655,0.2237213 0.6582031,0.3378907 0.2985364,0.1200169 0.4979726,0.2090805 0.5800782,0.2558593 a 0.11763009,0.09944686 0 0 0 0.00195,0 c 0.089016,0.049637 0.1515635,0.1007189 0.1914063,0.1484376 a 0.11763009,0.09944686 0 0 0 0,0.00195 c 0.036898,0.042892 0.056641,0.085462 0.056641,0.1425781 0,0.1125111 -0.041122,0.1751091 -0.1269532,0.2265621 -0.085095,0.05196 -0.2229634,0.08789 -0.421875,0.08789 -0.1659421,0 -0.3540978,-0.02413 -0.5625,-0.07031 -0.2045246,-0.04577 -0.460546,-0.126432 -0.7675754,-0.2421859 a 0.11763009,0.09944686 0 0 0 -0.1660156,0.089844 v 0.7675779 a 0.11763009,0.09944686 0 0 0 0.066406,0.08984 C 5.2617046,10.984627 5.6188863,11.045846 6,11.072266 V 12 h 1 v -0.976562 c 0.2386096,-0.05341 0.4504412,-0.13285 0.6230469,-0.25 C 7.94899,10.55376 8.1171875,10.240497 8.1171875,9.8652344 8.1171875,9.5941987 8.0321014,9.3566182 7.8554688,9.1640625 7.6761201,8.9665511 7.3666946,8.7887348 6.9277344,8.6113281 6.6052142,8.4811525 6.3972221,8.3885896 6.3242188,8.3476562 h -0.00195 C 6.2470869,8.3023139 6.1944793,8.2547923 6.1660156,8.2167969 6.1386266,8.1784719 6.125,8.1370169 6.125,8.0800781 c 0,-0.093141 0.032438,-0.1536838 0.1074219,-0.2089843 0.071447,-0.052691 0.1814592,-0.085937 0.3476562,-0.085938 0.1443288,0 0.2936566,0.016775 0.4453125,0.048828 0.153072,0.031932 0.351817,0.089916 0.59375,0.1738281 A 0.11763009,0.09944686 0 0 0 7.7714844,7.953125 L 8.0859375,7.3125 A 0.11763009,0.09944686 0 0 0 8.0253906,7.1835938 C 7.7834995,7.0949168 7.5493812,7.024029 7.3242188,6.9746094 7.2210111,6.951737 7.107654,6.9534842 7,6.9414062 V 6 Z m 3.9941406,6.056641 v 1 h 4.0000004 v -1 z"
     id="path3864" />
  <path
     d="m 9.9937667,11.056144 v 1 h 4.0000003 v -1 z"
     id="path3866"
     style="color:#000000;font-style:normal;font-variant:normal;font-weight:bold;font-stretch:normal;font-size:14.3117px;line-height:125%;font-family:'Open Sans';-inkscape-font-specification:'Open Sans Bold';letter-spacing:0px;word-spacing:0px;clip-rule:nonzero;display:inline;overflow:visible;visibility:visible;isolation:auto;mix-blend-mode:normal;color-interpolation:sRGB;color-interpolation-filters:linearRGB;solid-color:#000000;solid-opacity:1;fill:#ffffff;fill-opacity:1;fill-rule:nonzero;stroke:none;stroke-width:5;stroke-linecap:butt;stroke-linejoin:miter;stroke-miterlimit:4;stroke-dasharray:none;stroke-dashoffset:0;stroke-opacity:1;marker:none;color-rendering:auto;image-rendering:auto;shape-rendering:auto;text-rendering:auto;enable-background:accumulate" />
  <path
     style="color:#000000;font-style:normal;font-variant:normal;font-weight:bold;font-stretch:normal;font-size:5.92781px;line-height:125%;font-family:'Open Sans';-inkscape-font-specification:'Open Sans Bold';letter-spacing:0px;word-spacing:0px;clip-rule:nonzero;display:inline;overflow:visible;visibility:visible;isolation:auto;mix-blend-mode:normal;color-interpolation:sRGB;color-interpolation-filters:linearRGB;solid-color:#000000;solid-opacity:1;fill:#ffffff;fill-opacity:1;fill-rule:nonzero;stroke:none;stroke-width:5;stroke-linecap:butt;stroke-linejoin:miter;stroke-miterlimit:4;stroke-dasharray:none;stroke-dashoffset:0;stroke-opacity:1;marker:none;color-rendering:auto;image-rendering:auto;shape-rendering:auto;text-rendering:auto;enable-background:accumulate"
     d="m 6,5 v 0.9707031 c -0.2336342,0.052246 -0.4430714,0.1303828 -0.6113281,0.25 C 5.0879338,6.4361364 4.9375,6.7408865 4.9375,7.1074219 c 0,0.1954364 0.042925,0.3727478 0.1367188,0.5253906 0.090934,0.1479895 0.2141333,0.2761344 0.3652343,0.3867187 0.1537189,0.1125002 0.3709655,0.2237213 0.6582031,0.3378907 0.2985364,0.1200169 0.4979726,0.2090805 0.5800782,0.2558593 a 0.11763009,0.09944686 0 0 0 0.00195,0 c 0.089016,0.049637 0.1515636,0.1007189 0.1914063,0.1484376 a 0.11763009,0.09944686 0 0 0 0,0.00195 c 0.036898,0.042892 0.056641,0.085462 0.056641,0.1425781 0,0.112511 -0.041122,0.1751085 -0.1269532,0.2265625 -0.085095,0.051958 -0.2229634,0.087891 -0.421875,0.087891 -0.1659422,0 -0.3540978,-0.024128 -0.5625,-0.070312 C 5.6118761,9.1046192 5.3558575,9.0239568 5.0488281,8.9082031 A 0.11763009,0.09944686 0 0 0 4.8828125,8.9980469 V 9.765625 a 0.11763009,0.09944686 0 0 0 0.066406,0.089844 C 5.2617043,9.9846243 5.6188863,10.045846 6,10.072266 V 11 H 7 V 10.023438 C 7.2386096,9.970026 7.4504412,9.8905882 7.6230469,9.7734375 7.94899,9.5537611 8.1171875,9.2404974 8.1171875,8.8652344 8.1171875,8.5941987 8.0321013,8.3566182 7.8554688,8.1640625 7.6761201,7.9665511 7.3666946,7.7887348 6.9277344,7.6113281 6.6052142,7.4811525 6.3972221,7.3885895 6.3242188,7.3476562 h -0.00195 C 6.2470901,7.3023138 6.1944793,7.2547923 6.1660156,7.2167969 6.1386271,7.1784722 6.125,7.1370172 6.125,7.0800781 c 0,-0.093141 0.032438,-0.1536838 0.1074219,-0.2089843 0.071447,-0.052691 0.1814592,-0.085937 0.3476562,-0.085938 0.1443288,0 0.2936566,0.016775 0.4453125,0.048828 0.153072,0.031932 0.351817,0.089916 0.59375,0.1738281 A 0.11763009,0.09944686 0 0 0 7.7714844,6.953125 L 8.0859375,6.3125 A 0.11763009,0.09944686 0 0 0 8.0253906,6.1835938 C 7.7834995,6.0949168 7.5493812,6.024029 7.3242188,5.9746094 7.2210111,5.951737 7.107654,5.9534842 7,5.9414062 V 5 Z"
     id="path4372" />
  <rect
     width="17"
     height="17"
     x="3.5012493"
     y="3.4987738"
     id="rect6741-9-5"
     style="display:inline;opacity:0.3;fill:none;stroke:url(#linearGradient3101);stroke-width:1;stroke-linecap:round;stroke-linejoin:round;stroke-miterlimit:4;stroke-dasharray:none;stroke-dashoffset:0;stroke-opacity:1"
     rx="0"
     ry="0" />
</svg>
