<?xml version="1.0" encoding="UTF-8" standalone="no"?>
<svg
   version="1.0"
   width="24"
   height="24"
   id="svg3320"
   xmlns:xlink="http://www.w3.org/1999/xlink"
   xmlns="http://www.w3.org/2000/svg"
   xmlns:svg="http://www.w3.org/2000/svg"
   xmlns:rdf="http://www.w3.org/1999/02/22-rdf-syntax-ns#"
   xmlns:cc="http://creativecommons.org/ns#"
   xmlns:dc="http://purl.org/dc/elements/1.1/">
  <metadata
     id="metadata4930">
    <rdf:RDF>
      <cc:Work
         rdf:about="">
        <dc:format>image/svg+xml</dc:format>
        <dc:type
           rdf:resource="http://purl.org/dc/dcmitype/StillImage" />
      </cc:Work>
    </rdf:RDF>
  </metadata>
  <defs
     id="defs3322">
    <radialGradient
       xlink:href="#linearGradient3837"
       id="radialGradient3843"
       cx="15.046189"
       cy="24.644342"
       fx="15.046189"
       fy="24.644342"
       r="23"
       gradientTransform="matrix(-1.0327723,0.86210274,-0.77046252,-0.92179735,61.832909,1032.8288)"
       gradientUnits="userSpaceOnUse" />
    <linearGradient
       id="linearGradient3837">
      <stop
         style="stop-color:#242424;stop-opacity:1;"
         offset="0"
         id="stop3839" />
      <stop
         style="stop-color:#000000;stop-opacity:1;"
         offset="1"
         id="stop3841" />
    </linearGradient>
    <linearGradient
       xlink:href="#linearGradient3880"
       id="linearGradient3886"
       x1="21.094191"
       y1="43.350079"
       x2="21.094191"
       y2="-16.821482"
       gradientUnits="userSpaceOnUse"
       gradientTransform="matrix(0.99978423,0,0,0.99913798,0.01526727,1004.2389)" />
    <linearGradient
       id="linearGradient3880">
      <stop
         style="stop-color:#000000;stop-opacity:1;"
         offset="0"
         id="stop3882" />
      <stop
         style="stop-color:#6d6d6d;stop-opacity:1;"
         offset="1"
         id="stop3884" />
    </linearGradient>
    <radialGradient
       xlink:href="#linearGradient3688-166-749"
       id="radialGradient3013"
       gradientUnits="userSpaceOnUse"
       gradientTransform="matrix(2.003784,0,0,1.4,27.98813,-17.4)"
       cx="4.9929786"
       cy="43.5"
       fx="4.9929786"
       fy="43.5"
       r="2.5" />
    <linearGradient
       id="linearGradient3688-166-749">
      <stop
         offset="0"
         style="stop-color:#181818;stop-opacity:1"
         id="stop2883" />
      <stop
         offset="1"
         style="stop-color:#181818;stop-opacity:0"
         id="stop2885" />
    </linearGradient>
    <radialGradient
       xlink:href="#linearGradient3688-166-749"
       id="radialGradient3015"
       gradientUnits="userSpaceOnUse"
       gradientTransform="matrix(2.003784,0,0,1.4,-20.01187,-104.4)"
       cx="4.9929786"
       cy="43.5"
       fx="4.9929786"
       fy="43.5"
       r="2.5" />
    <linearGradient
       y2="39.999443"
       x2="25.058096"
       y1="47.027729"
       x1="25.058096"
       gradientUnits="userSpaceOnUse"
       id="linearGradient3063"
       xlink:href="#linearGradient3702-501-757" />
    <linearGradient
       id="linearGradient3702-501-757">
      <stop
         offset="0"
         style="stop-color:#181818;stop-opacity:0"
         id="stop2895" />
      <stop
         offset="0.5"
         style="stop-color:#181818;stop-opacity:1"
         id="stop2897" />
      <stop
         offset="1"
         style="stop-color:#181818;stop-opacity:0"
         id="stop2899" />
    </linearGradient>
    <radialGradient
       r="19.99999"
       fy="8.4497671"
       fx="5.7800279"
       cy="8.4497671"
       cx="5.7800279"
       gradientTransform="matrix(0,0.89689471,-0.94879583,-1.6524223e-8,18.428686,-4.5991081)"
       gradientUnits="userSpaceOnUse"
       id="radialGradient4076"
       xlink:href="#linearGradient2867-449-88-871-390-598-476-591-434-148-57-177-3-8-7" />
    <linearGradient
       id="linearGradient2867-449-88-871-390-598-476-591-434-148-57-177-3-8-7">
      <stop
         id="stop3750-8-9-0"
         style="stop-color:#90dbec;stop-opacity:1;"
         offset="0" />
      <stop
         id="stop3752-3-2-4"
         style="stop-color:#55c1ec;stop-opacity:1;"
         offset="0.26238" />
      <stop
         id="stop3754-7-2-8"
         style="stop-color:#3689e6;stop-opacity:1;"
         offset="0.704952" />
      <stop
         id="stop3756-9-3-4"
         style="stop-color:#2b63a0;stop-opacity:1;"
         offset="1" />
    </linearGradient>
    <linearGradient
       y2="3.8990016"
       x2="24"
       y1="44"
       x1="24"
       gradientTransform="matrix(0.38377722,0,0,0.38378198,1.2008884,0.173144)"
       gradientUnits="userSpaceOnUse"
       id="linearGradient4078"
       xlink:href="#linearGradient3707-319-631-407-324-3-8-8" />
    <linearGradient
       id="linearGradient3707-319-631-407-324-3-8-8">
      <stop
         id="stop3760-7-3-1"
         style="stop-color:#185f9a;stop-opacity:1;"
         offset="0" />
      <stop
         id="stop3762-8-4-6"
         style="stop-color:#599ec9;stop-opacity:1;"
         offset="1" />
    </linearGradient>
    <linearGradient
       xlink:href="#linearGradient3707-319-631-407-324-3-8-8"
       id="linearGradient4037"
       gradientUnits="userSpaceOnUse"
       x1="7.8555918"
       y1="15.85593"
       x2="7.8555918"
       y2="-0.12225635"
       gradientTransform="matrix(1.1687822,0,0,1.1687783,0.43764382,0.68496893)" />
    <linearGradient
       xlink:href="#linearGradient4011-8"
       id="linearGradient3071"
       gradientUnits="userSpaceOnUse"
       gradientTransform="matrix(0.28845012,0,0,0.28881433,-10.28049,2.0433538)"
       x1="71.204407"
       y1="6.2375584"
       x2="71.204407"
       y2="44.340794" />
    <linearGradient
       id="linearGradient4011-8">
      <stop
         id="stop4013-5"
         style="stop-color:#ffffff;stop-opacity:1;"
         offset="0" />
      <stop
         offset="0.507761"
         style="stop-color:#ffffff;stop-opacity:0.23529412;"
         id="stop4015-2" />
      <stop
         id="stop4017-1"
         style="stop-color:#ffffff;stop-opacity:0.15686275;"
         offset="0.83456558" />
      <stop
         id="stop4019-9"
         style="stop-color:#ffffff;stop-opacity:0.39215687;"
         offset="1" />
    </linearGradient>
    <linearGradient
       xlink:href="#linearGradient5638"
       id="linearGradient3878"
       x1="23.664051"
       y1="1013.0043"
       x2="23.664051"
       y2="1062.3185"
       gradientUnits="userSpaceOnUse"
       gradientTransform="matrix(0.94423364,0,0,0.93878547,1.3327615,62.552837)" />
    <linearGradient
       id="linearGradient5638">
      <stop
         id="stop5640"
         style="stop-color:#ffffff;stop-opacity:1"
         offset="0" />
      <stop
         id="stop5642"
         style="stop-color:#ffffff;stop-opacity:0"
         offset="1" />
    </linearGradient>
  </defs>
  <g
     id="layer1"
     transform="matrix(0.46684799,0,0,0.46611158,0.79132021,-467.44633)"
     style="display:inline;stroke-width:2.14372">
    <path
       style="display:inline;fill:url(#radialGradient3843);fill-opacity:1;stroke:url(#linearGradient3886);stroke-width:2.14372;stroke-opacity:1"
       d="m 33.508039,1007.7359 -2.999353,6.9328 -24.3697404,0.01 c -2.5539772,8e-4 -4.6226835,1.7883 -4.624002,4.1752 l -0.013108,23.729 c -0.00132,2.3868 2.2606565,4.2661 4.8146326,4.265 l 35.6031148,-0.015 c 2.553976,0 4.564988,-2.0715 4.566892,-4.4586 l 0.01876,-23.519 c 0.0019,-2.3869 -2.070199,-4.2143 -4.624002,-4.1844 l -5.393154,0.01 z"
       id="path3867" />
    <g
       style="display:inline;opacity:0.6;stroke-width:2.14372"
       id="g3712"
       transform="matrix(1.2105263,0,0,0.6428571,-5.0526311,1017.1479)">
      <rect
         style="fill:url(#radialGradient3013);fill-opacity:1;stroke:none;stroke-width:2.14372"
         id="rect2801"
         y="40"
         x="38"
         height="7"
         width="5" />
      <rect
         style="fill:url(#radialGradient3015);fill-opacity:1;stroke:none;stroke-width:2.14372"
         id="rect3696"
         transform="scale(-1)"
         y="-47"
         x="-10"
         height="7"
         width="5" />
      <rect
         style="fill:url(#linearGradient3063);fill-opacity:1;stroke:none;stroke-width:2.14372"
         id="rect3700"
         y="40"
         x="10"
         height="7.0000005"
         width="28" />
    </g>
    <g
       id="g3003"
       transform="translate(5,1021.3622)"
       style="display:inline;stroke-width:2.14372">
      <path
         d="m 10.411542,1.9008572 c -4.1288397,0 -7.4829625,3.3541629 -7.4829625,7.4830543 0,4.1288915 3.3541228,7.4830545 7.4829625,7.4830535 4.128839,0 7.482965,-3.354162 7.482961,-7.4830535 0,-4.1288914 -3.354122,-7.4830543 -7.482961,-7.4830543 z"
         id="path2555-7-9"
         style="color:#000000;display:inline;overflow:visible;visibility:visible;fill:url(#radialGradient4076);fill-opacity:1;fill-rule:nonzero;stroke:url(#linearGradient4078);stroke-width:2.14372;stroke-linecap:round;stroke-linejoin:round;stroke-miterlimit:4;stroke-dasharray:none;stroke-dashoffset:0;stroke-opacity:1;marker:none;enable-background:accumulate" />
      <path
         d="m 15.74738,9.3666976 c 0,2.9509884 -2.389331,5.3432544 -5.33626,5.3432544 -2.9471977,0 -5.3363939,-2.392293 -5.3363939,-5.3432544 0,-2.9508509 2.3891962,-5.3428747 5.3363939,-5.3428747 2.946929,0 5.33626,2.3920238 5.33626,5.3428747 z"
         id="path8655-6-6"
         style="display:inline;stroke-width:2.14372;color:#000000;overflow:visible;visibility:visible;opacity:0.5;fill:none;stroke:url(#linearGradient3071);stroke-linecap:round;stroke-linejoin:round;stroke-miterlimit:4;stroke-dasharray:none;stroke-dashoffset:0;stroke-opacity:1;marker:none;enable-background:accumulate" />
      <path
         d="m 7.3112516,8.4030985 c 0.129986,0.3188 0.2722807,0.575713 0.5392561,0.205687 0.34021,-0.224644 1.4715684,-1.1947145 1.3903208,-0.2861909 -0.30803,1.6875664 -0.6979711,3.3608444 -0.9798888,5.0525114 -0.3276927,0.933301 0.5313052,1.730612 1.3704713,1.09827 0.901872,-0.420977 1.666317,-1.078083 2.449852,-1.684218 -0.120779,-0.269372 -0.209575,-0.659762 -0.499384,-0.289309 -0.391809,0.200072 -1.229242,1.10235 -1.419323,0.393922 0.263879,-1.824504 0.816247,-3.5935725 1.142481,-5.4061439 C 11.637836,6.6467911 11.000074,5.6273179 10.13386,6.3468534 9.0825068,6.8633733 8.2181541,7.6725034 7.3112516,8.4030985 Z M 11.042438,2.1512453 C 9.948421,2.1367423 9.4480043,3.9464851 10.504695,4.3932638 11.360162,4.709517 12.242071,3.7959774 12.001968,2.9286548 11.920208,2.4752768 11.502204,2.1172213 11.042438,2.1512453 Z"
         id="path3536-3"
         style="font-style:normal;font-variant:normal;font-weight:bold;font-stretch:normal;font-size:40px;line-height:100%;font-family:'URW Palladio L';-inkscape-font-specification:'URW Palladio L Bold';text-align:start;writing-mode:lr-tb;text-anchor:start;fill:url(#linearGradient4037);fill-opacity:1;stroke:none;stroke-width:2.14372" />
      <path
         d="m 7.4281078,9.4655663 c 0.1293335,0.3171999 0.270914,0.5728227 0.5365494,0.204654 0.3385027,-0.2235166 1.4641827,-1.1887177 1.3833429,-0.2847541 -0.306484,1.6790978 -0.694468,3.3439768 -0.9749706,5.0271528 -0.3260481,0.928617 0.5286385,1.721927 1.363593,1.092759 0.8973465,-0.418865 1.6579535,-1.072672 2.4375585,-1.675764 -0.120173,-0.268022 -0.208525,-0.656451 -0.496878,-0.287858 -0.389844,0.199068 -1.223074,1.096817 -1.412201,0.391945 0.262555,-1.815347 0.812151,-3.575537 1.136748,-5.3790117 C 11.732978,7.7180735 11.098418,6.703717 10.23655,7.4196412 9.1904731,7.9335689 8.3304586,8.7386377 7.4281078,9.4655663 Z M 11.14057,3.2450908 C 10.05204,3.2306593 9.5541361,5.0313202 10.605525,5.4758566 11.456698,5.7905224 12.334179,4.8815679 12.095283,4.0185984 12.013928,3.5674959 11.598028,3.2112374 11.14057,3.2450908 Z"
         id="path3536-0"
         style="font-style:normal;font-variant:normal;font-weight:bold;font-stretch:normal;font-size:40px;line-height:100%;font-family:'URW Palladio L';-inkscape-font-specification:'URW Palladio L Bold';text-align:start;writing-mode:lr-tb;text-anchor:start;display:inline;fill:#ffffff;fill-opacity:1;stroke:none;stroke-width:2.14373" />
    </g>
    <path
       id="path3870"
       d="m 33.495425,1013.1578 -1.595402,3.662 H 5.8383684 c -0.975797,0.116 -2.1694224,0.6833 -2.169553,2.0368 l -0.00226,23.4448 c -1.322e-4,1.3694 0.9472972,2.4279 2.9618001,2.4131 l 35.0362899,-0.025 c 1.89315,-0.028 2.645669,-1.0575 2.675758,-2.7039 l 0.0098,-23.1283 c -0.03123,-1.7125 -1.8621,-2.0487 -2.526411,-2.0324 l -6.745749,0.01 z"
       style="display:inline;opacity:0.3;fill:none;stroke:url(#linearGradient3878);stroke-width:2.14372;stroke-opacity:1" />
    <g
       id="g3"
       style="display:inline">
      <rect
         y="1024.3123"
         x="26.133898"
         height="2.1304605"
         width="2.1387014"
         id="rect4147"
         style="display:inline;fill:#d6d6d6;fill-opacity:1;fill-rule:nonzero;stroke:none;stroke-width:2.14372" />
      <rect
         style="display:inline;fill:#d6d6d6;fill-opacity:1;fill-rule:nonzero;stroke:none;stroke-width:2.14372"
         id="rect4149"
         width="2.1428211"
         height="2.1491463"
         x="30.425718"
         y="1024.3057" />
      <rect
         y="1024.3245"
         x="34.705181"
         height="2.1424651"
         width="6.4284587"
         id="rect4151"
         style="display:inline;fill:#d6d6d6;fill-opacity:1;fill-rule:nonzero;stroke:none;stroke-width:2.14372" />
      <rect
         style="display:inline;fill:#d6d6d6;fill-opacity:1;fill-rule:nonzero;stroke:none;stroke-width:2.14372"
         id="rect4155"
         width="4.2962999"
         height="2.114145"
         x="26.12817"
         y="1030.7677" />
      <rect
         y="1030.7402"
         x="32.562027"
         height="2.1377697"
         width="2.1384602"
         id="rect4157"
         style="display:inline;fill:#d6d6d6;fill-opacity:1;fill-rule:nonzero;stroke:none;stroke-width:2.14375" />
      <rect
         style="display:inline;fill:#d6d6d6;fill-opacity:1;fill-rule:nonzero;stroke:none;stroke-width:2.14375"
         id="rect4159"
         width="4.277565"
         height="2.1680391"
         x="36.852249"
         y="1030.7483" />
      <rect
         style="display:inline;opacity:0.3;fill:#d6d6d6;fill-opacity:1;fill-rule:nonzero;stroke:none;stroke-width:2.14372"
         id="rect3912"
         width="2.1494951"
         height="2.1295364"
         x="26.125168"
         y="1026.4581" />
      <rect
         y="1026.4703"
         x="30.421602"
         height="2.131655"
         width="2.1675737"
         id="rect3914"
         style="display:inline;opacity:0.3;fill:#d6d6d6;fill-opacity:1;fill-rule:nonzero;stroke:none;stroke-width:2.14372" />
      <rect
         style="display:inline;opacity:0.3;fill:#d6d6d6;fill-opacity:1;fill-rule:nonzero;stroke:none;stroke-width:2.14372"
         id="rect3916"
         width="6.4399672"
         height="2.1310802"
         x="34.703121"
         y="1026.4692" />
      <rect
         y="1032.8951"
         x="26.158228"
         height="2.1449218"
         width="4.2550302"
         id="rect3920"
         style="display:inline;opacity:0.3;fill:#d6d6d6;fill-opacity:1;fill-rule:nonzero;stroke:none;stroke-width:2.14371" />
      <rect
         style="display:inline;opacity:0.3;fill:#d6d6d6;fill-opacity:1;fill-rule:nonzero;stroke:none;stroke-width:2.14375"
         id="rect3922"
         width="2.1384983"
         height="2.1641684"
         x="32.56842"
         y="1032.8778" />
      <rect
         y="1032.9329"
         x="36.846382"
         height="2.1218038"
         width="4.2860265"
         id="rect3924"
         style="display:inline;opacity:0.3;fill:#d6d6d6;fill-opacity:1;fill-rule:nonzero;stroke:none;stroke-width:2.14372" />
    </g>
  </g>
</svg>
