<?xml version="1.0" encoding="UTF-8" standalone="no"?>
<svg
   version="1.1"
   width="22"
   height="22"
   id="svg3792"
   xmlns:xlink="http://www.w3.org/1999/xlink"
   xmlns="http://www.w3.org/2000/svg"
   xmlns:svg="http://www.w3.org/2000/svg"
   xmlns:rdf="http://www.w3.org/1999/02/22-rdf-syntax-ns#"
   xmlns:cc="http://creativecommons.org/ns#"
   xmlns:dc="http://purl.org/dc/elements/1.1/">
  <defs
     id="defs3794">
    <radialGradient
       cx="21.385717"
       cy="-18.271673"
       r="19.99999"
       fx="21.385717"
       fy="-18.271673"
       id="radialGradient3008"
       xlink:href="#linearGradient2867-449-88-871-390-598-476-591-434-148-57-177-641-289-620-227-114-444-680-744-4-3"
       gradientUnits="userSpaceOnUse"
       gradientTransform="matrix(1.4102698e-4,1.2856445,-1.3193573,1.4472507e-4,-13.110185,-25.490315)" />
    <linearGradient
       id="linearGradient2867-449-88-871-390-598-476-591-434-148-57-177-641-289-620-227-114-444-680-744-4-3">
      <stop
         id="stop5430-5-6"
         style="stop-color:#737373;stop-opacity:1"
         offset="0" />
      <stop
         id="stop5432-2-7"
         style="stop-color:#636363;stop-opacity:1"
         offset="0.26238" />
      <stop
         id="stop5434-9-5"
         style="stop-color:#4b4b4b;stop-opacity:1"
         offset="0.69985807" />
      <stop
         id="stop5436-2-3"
         style="stop-color:#3f3f3f;stop-opacity:1"
         offset="1" />
    </linearGradient>
  </defs>
  <metadata
     id="metadata3797">
    <rdf:RDF>
      <cc:Work
         rdf:about="">
        <dc:format>image/svg+xml</dc:format>
        <dc:type
           rdf:resource="http://purl.org/dc/dcmitype/StillImage" />
        <dc:title />
      </cc:Work>
    </rdf:RDF>
  </metadata>
  <path
     d="M 3.300291,3.0006875 C 3.12419,3.0451185 2.9908051,3.2356649 3.000302,3.4292357 V 20.571154 c -0.00553,0.225952 0.189093,0.434473 0.399986,0.428548 h 6.196725 c 0.210892,0.0059 0.405515,-0.202596 0.399985,-0.428548 V 3.4292357 C 10.002498,3.2032829 9.807905,2.9947627 9.597013,3.0006875 H 3.400288 c -0.01664,-0.00115 -0.03336,-0.00115 -0.05,0 -0.01664,-0.00115 -0.03336,-0.00115 -0.05,0 z m 9.003758,0 c -0.176102,0.044431 -0.309486,0.2349774 -0.29999,0.4285482 V 20.571154 c -0.0055,0.225952 0.189094,0.434473 0.399986,0.428548 h 6.19568 c 0.210891,0.0059 0.405515,-0.202596 0.399985,-0.428548 V 3.4292357 c 0.0055,-0.2259528 -0.189094,-0.434473 -0.399985,-0.4285482 h -6.19568 c -0.01664,-0.00115 -0.03336,-0.00115 -0.05,0 -0.01664,-0.00115 -0.03336,-0.00115 -0.05,0 z"
     id="path3797-4"
     style="color:#000000;display:inline;overflow:visible;visibility:visible;opacity:0.35;fill:#ffffff;fill-opacity:1;fill-rule:nonzero;stroke:none;stroke-width:1;marker:none;enable-background:accumulate" />
  <path
     d="M 3.337849,1.999825 C 3.139735,2.044256 2.9891407,2.2356641 2.999825,2.4292343 V 19.571154 c -0.00622,0.225952 0.213266,0.434473 0.45052,0.428548 h 6.099221 c 0.237254,0.0059 0.456205,-0.202596 0.449984,-0.428548 V 2.4292344 C 10.00575,2.2032822 9.78682,1.9947615 9.549566,2.0006864 L 3.450345,1.999825 c -0.01872,-0.00115 -0.03752,-0.00115 -0.05625,0 -0.01872,-0.00115 -0.03752,-0.00115 -0.05625,0 z m 9.004377,8.613e-4 c -0.198114,0.044431 -0.348172,0.2349778 -0.337488,0.428548 V 19.571154 c -0.0062,0.225952 0.21273,0.434473 0.449984,0.428548 h 6.09781 c 0.237254,0.0059 0.456205,-0.202596 0.449983,-0.428548 V 2.4292344 c 0.0062,-0.2259522 -0.212729,-0.4344729 -0.449983,-0.428548 h -6.09781 c -0.01872,-0.00115 -0.03753,-0.00115 -0.05625,0 -0.01872,-0.00115 -0.03753,-0.00115 -0.05625,-1e-7 z"
     id="path3797"
     style="color:#000000;display:inline;overflow:visible;visibility:visible;fill:url(#radialGradient3008);fill-opacity:1;fill-rule:nonzero;stroke:none;stroke-width:0.999997;marker:none;enable-background:accumulate" />
  <path
     d="m 3.499825,2.499825 v 17 h 6 v -17 z m 9,0 v 17 h 6 v -17 z"
     id="path2645"
     style="color:#000000;display:inline;overflow:visible;visibility:visible;opacity:0.1;fill:none;stroke:#000000;stroke-width:1.00365;stroke-linecap:round;stroke-linejoin:round;stroke-miterlimit:4;stroke-dasharray:none;stroke-dashoffset:0;stroke-opacity:1;marker:none;enable-background:accumulate" />
  <path
     d="m 13.499825,3.499825 v 15 h 4 v -15 z m -9,0 v 15 h 4 v -15 z"
     id="path2647"
     style="display:inline;overflow:visible;visibility:visible;opacity:0.03;fill:none;stroke:#000000;stroke-width:0.994277;stroke-linecap:round;stroke-linejoin:miter;stroke-miterlimit:4;stroke-dasharray:none;stroke-dashoffset:0;stroke-opacity:1;marker:none" />
</svg>
