<?xml version="1.0" encoding="UTF-8" standalone="no"?>
<svg
   version="1.1"
   width="22"
   height="22"
   id="svg4524"
   xmlns:xlink="http://www.w3.org/1999/xlink"
   xmlns="http://www.w3.org/2000/svg"
   xmlns:svg="http://www.w3.org/2000/svg"
   xmlns:rdf="http://www.w3.org/1999/02/22-rdf-syntax-ns#"
   xmlns:cc="http://creativecommons.org/ns#"
   xmlns:dc="http://purl.org/dc/elements/1.1/">
  <defs
     id="defs4526">
    <linearGradient
       id="linearGradient2867-449-88-871-390-598-476-591-434-148-57-177-641-289-620-227-114-444-680-744-4-1">
      <stop
         id="stop5430-5-0"
         style="stop-color:#737373;stop-opacity:1"
         offset="0" />
      <stop
         id="stop5432-2-0"
         style="stop-color:#636363;stop-opacity:1"
         offset="0.26238" />
      <stop
         id="stop5434-9-6"
         style="stop-color:#4b4b4b;stop-opacity:1"
         offset="0.704952" />
      <stop
         id="stop5436-2-7"
         style="stop-color:#3f3f3f;stop-opacity:1"
         offset="1" />
    </linearGradient>
    <radialGradient
       xlink:href="#linearGradient2867-449-88-871-390-598-476-591-434-148-57-177-641-289-620-227-114-444-680-744-4-1"
       id="radialGradient2997"
       gradientUnits="userSpaceOnUse"
       gradientTransform="matrix(0,1.5000006,1.5241254,0,40.96,-24.077714)"
       cx="16.202444"
       cy="-19.005346"
       fx="16.202444"
       fy="-19.005346"
       r="19.99999" />
  </defs>
  <metadata
     id="metadata4529">
    <rdf:RDF>
      <cc:Work
         rdf:about="">
        <dc:format>image/svg+xml</dc:format>
        <dc:type
           rdf:resource="http://purl.org/dc/dcmitype/StillImage" />
        <dc:title />
      </cc:Work>
    </rdf:RDF>
  </metadata>
  <path
     style="color:#000000;display:inline;overflow:visible;visibility:visible;opacity:0.35;fill:#ffffff;fill-opacity:1;fill-rule:nonzero;stroke:none;stroke-width:1;marker:none;enable-background:accumulate"
     id="path3999-9"
     d="m 20.800158,12.799962 -10.05,6.137944 c -0.302411,0.182339 -0.759865,-0.08451 -0.75,-0.4375 v -4.53125 l -8.25,4.96875 c -0.302411,0.182339 -0.75986498,-0.08451 -0.75,-0.4375 V 6.5004054 c -0.0099,-0.3529912 0.447589,-0.6198389 0.75,-0.4375 l 8.25,4.9687506 V 6.5004054 c -0.0099,-0.3529912 0.447589,-0.6198389 0.75,-0.4375 l 10.05,6.0370566 z" />
  <path
     style="color:#000000;display:inline;overflow:visible;visibility:visible;fill:url(#radialGradient2997);fill-opacity:1;fill-rule:nonzero;stroke:none;stroke-width:1;marker:none;enable-background:accumulate"
     id="path3999-5"
     d="m 20.801565,11.895495 -10.051407,6.041967 c -0.302411,0.182339 -0.759865,-0.08451 -0.75,-0.4375 v -4.53125 l -8.25,4.96875 c -0.302411,0.182339 -0.75986498,-0.08451 -0.75,-0.4375 V 5.4999617 c -0.00986,-0.3529912 0.447589,-0.6198389 0.75,-0.4375 l 8.25,4.9687503 V 5.4999617 c -0.0099,-0.3529912 0.447589,-0.6198389 0.75,-0.4375 L 20.7963,11.099163 c 0.23897,0.139831 0.26349,0.669213 0.0053,0.796332 z" />
  <path
     style="color:#000000;display:inline;overflow:visible;visibility:visible;opacity:0.1;fill:none;stroke:#000000;stroke-width:1;stroke-linecap:round;stroke-linejoin:round;stroke-miterlimit:4;stroke-dasharray:none;stroke-opacity:1;marker:none;enable-background:accumulate"
     id="rect3868-6"
     d="m 10.500158,17.499962 v -5.40625 l -9,5.40625 V 5.4999617 l 9,5.4062503 V 5.4999617 l 10,5.9995013 c 0,0 -6.683814,4.008485 -10,6.000499 z" />
  <path
     style="color:#000000;display:inline;overflow:visible;visibility:visible;opacity:0.03;fill:none;stroke:#000000;stroke-width:1;stroke-linecap:butt;stroke-linejoin:miter;stroke-miterlimit:4;stroke-dasharray:none;stroke-opacity:1;marker:none;enable-background:accumulate"
     id="path4060-2"
     d="m 11.531408,7.3124617 6.96875,4.1875003 -6.96875,4.1875 v -3.59375 c -3.02e-4,-0.210792 -0.06669,-0.421014 -0.1875,-0.59375 0.120812,-0.172736 0.187198,-0.382958 0.1875,-0.59375 z m -9,0 6.96875,4.1875003 -6.96875,4.1875 z" />
</svg>
