<?xml version="1.0" encoding="UTF-8" standalone="no"?>
<svg
   version="1.0"
   width="24"
   height="24"
   id="svg4431"
   xmlns:xlink="http://www.w3.org/1999/xlink"
   xmlns="http://www.w3.org/2000/svg"
   xmlns:svg="http://www.w3.org/2000/svg"
   xmlns:rdf="http://www.w3.org/1999/02/22-rdf-syntax-ns#"
   xmlns:cc="http://creativecommons.org/ns#"
   xmlns:dc="http://purl.org/dc/elements/1.1/">
  <metadata
     id="metadata19">
    <rdf:RDF>
      <cc:Work
         rdf:about="">
        <dc:format>image/svg+xml</dc:format>
        <dc:type
           rdf:resource="http://purl.org/dc/dcmitype/StillImage" />
      </cc:Work>
    </rdf:RDF>
  </metadata>
  <defs
     id="defs4433">
    <linearGradient
       x1="9"
       y1="3"
       x2="9"
       y2="21"
       id="linearGradient2393"
       xlink:href="#linearGradient3678"
       gradientUnits="userSpaceOnUse"
       gradientTransform="translate(-0.99804249,0.00164221)" />
    <linearGradient
       id="linearGradient3678">
      <stop
         id="stop3680"
         style="stop-color:#ffffff;stop-opacity:1"
         offset="0" />
      <stop
         id="stop3682"
         style="stop-color:#e6e6e6;stop-opacity:1"
         offset="1" />
    </linearGradient>
  </defs>
  <path
     d="m 3.0019575,11.001642 v 5 h 2 l 4,4 V 7.0016422 l -4,3.9999998 z"
     id="path2387-4"
     style="display:inline;opacity:0.5;fill:#000000;fill-opacity:1;fill-rule:evenodd;stroke:none" />
  <path
     d="m 3.0019575,10.001642 v 5 h 2 l 4,4 V 6.0016422 l -4,3.9999998 z"
     id="path2387"
     style="display:inline;fill:url(#linearGradient2393);fill-opacity:1;fill-rule:evenodd;stroke:none" />
  <path
     id="path3170"
     style="display:inline;overflow:visible;visibility:visible;opacity:0.5;fill:#000000;fill-opacity:1;stroke:none;stroke-width:1.7;stroke-linecap:butt;stroke-linejoin:miter;stroke-miterlimit:4;stroke-dasharray:none;stroke-dashoffset:0;stroke-opacity:1;marker:none;enable-background:accumulate"
     d="m 21.004618,13.005789 -1.999571,-0.0055 4.3e-5,1.004839 1.995562,-0.0034 z m -4.000766,-9.08e-4 -1.997887,-5.3e-5 -0.0053,0.993006 1.998228,-6.5e-4 z m -4.00514,9.32e-4 -2.001352,-0.0079 0.0057,1.007401 2.003412,-0.0051 z" />
  <path
     id="path2"
     style="display:inline;overflow:visible;visibility:visible;fill:#ffffff;fill-opacity:1;stroke:none;stroke-width:1.7;stroke-linecap:butt;stroke-linejoin:miter;stroke-miterlimit:4;stroke-dasharray:none;stroke-dashoffset:0;stroke-opacity:1;marker:none;enable-background:accumulate"
     d="m 20.998592,12.001087 -1.996867,-9.6e-5 0.0018,0.996908 1.996891,0.0072 z m -4.000125,0.0045 -1.993764,-0.0039 -0.0014,1.003458 2.001228,-0.0052 z m -3.993311,-0.0018 -2.00202,0.0011 7.57e-4,1.000154 1.999639,-6e-6 z" />
</svg>
