<?xml version="1.0" encoding="UTF-8" standalone="no"?>
<svg
   version="1.0"
   width="24"
   height="24"
   id="svg4431"
   xmlns:xlink="http://www.w3.org/1999/xlink"
   xmlns="http://www.w3.org/2000/svg"
   xmlns:svg="http://www.w3.org/2000/svg"
   xmlns:rdf="http://www.w3.org/1999/02/22-rdf-syntax-ns#"
   xmlns:cc="http://creativecommons.org/ns#"
   xmlns:dc="http://purl.org/dc/elements/1.1/">
  <metadata
     id="metadata17">
    <rdf:RDF>
      <cc:Work
         rdf:about="">
        <dc:format>image/svg+xml</dc:format>
        <dc:type
           rdf:resource="http://purl.org/dc/dcmitype/StillImage" />
      </cc:Work>
    </rdf:RDF>
  </metadata>
  <defs
     id="defs4433">
    <linearGradient
       xlink:href="#linearGradient3678"
       id="linearGradient2391-3"
       gradientUnits="userSpaceOnUse"
       gradientTransform="matrix(0,0.7805424,-0.7617909,0,29.869771,-36.749323)"
       x1="50.925655"
       y1="11.648451"
       x2="73.986542"
       y2="11.648451" />
    <linearGradient
       id="linearGradient3678">
      <stop
         style="stop-color:#ffffff;stop-opacity:1;"
         offset="0"
         id="stop3680" />
      <stop
         style="stop-color:#e6e6e6;stop-opacity:1;"
         offset="1"
         id="stop3682" />
    </linearGradient>
    <linearGradient
       xlink:href="#linearGradient3678"
       id="linearGradient3626"
       gradientUnits="userSpaceOnUse"
       gradientTransform="matrix(0,-0.7805424,-0.7617909,0,28.873684,60.749634)"
       x1="50.925655"
       y1="11.648451"
       x2="73.986542"
       y2="11.648451" />
    <linearGradient
       x1="9"
       y1="3"
       x2="9"
       y2="21"
       id="linearGradient2393-6"
       xlink:href="#linearGradient3678"
       gradientUnits="userSpaceOnUse"
       gradientTransform="translate(-1.0039119,3.1052592e-4)" />
  </defs>
  <path
     d="m 14.875726,8.0957865 c 0,0 1.845351,1.744801 1.779696,5.4045245 -0.0662,3.690079 -1.809335,5.404524 -1.809335,5.404524 m -3,-8.682665 c 0,0 0.983474,0.794985 1.008541,3.230647 0.02476,2.405297 -1.008541,3.325635 -1.008541,3.325635"
     id="path3170"
     style="display:inline;overflow:visible;visibility:visible;opacity:0.5;fill:none;stroke:#000000;stroke-width:1.7;stroke-linecap:butt;stroke-linejoin:miter;stroke-miterlimit:4;stroke-dasharray:none;stroke-dashoffset:0;stroke-opacity:1;marker:none;enable-background:accumulate" />
  <path
     d="m 2.996088,11.000311 v 5 h 2 l 4,4 V 7.0003105 l -4,4.0000005 z"
     id="path2387-4"
     style="opacity:0.5;fill:#000000;fill-opacity:1;fill-rule:evenodd;stroke:none" />
  <path
     d="m 2.996088,10.00031 v 5.000001 h 2 l 4,4 V 6.0003105 l -4,3.9999995 z"
     id="path2387"
     style="fill:url(#linearGradient2393-6);fill-opacity:1;fill-rule:evenodd;stroke:none" />
  <g
     id="g3629"
     style="opacity:0.4"
     transform="translate(0.99608796,1.0003105)">
    <path
       d="m 16.854435,4.85 c 0,0 2.613537,2.422712 2.613537,7.634915 C 19.467972,17.671495 16.85,20.15 16.85,20.15"
       id="path3172"
       style="display:inline;overflow:visible;visibility:visible;opacity:0.5;fill:none;stroke:#000000;stroke-width:1.7;stroke-linecap:butt;stroke-linejoin:miter;stroke-miterlimit:4;stroke-dasharray:none;stroke-dashoffset:0;stroke-opacity:1;marker:none;enable-background:accumulate" />
    <path
       d="m 16.854435,19.15 c 0,0 2.613537,-2.422712 2.613537,-7.634915 C 19.467972,6.328505 16.85,3.85 16.85,3.85"
       id="path3166"
       style="display:inline;overflow:visible;visibility:visible;fill:none;stroke:url(#linearGradient3626);stroke-width:1.7;stroke-linecap:butt;stroke-linejoin:miter;stroke-miterlimit:4;stroke-dasharray:none;stroke-dashoffset:0;stroke-opacity:1;marker:none;enable-background:accumulate" />
  </g>
  <path
     d="m 14.875726,7.0957865 c 0,0 1.845351,1.744801 1.779696,5.4045245 -0.0662,3.690079 -1.809335,5.404524 -1.809335,5.404524 m -3,-8.6826655 c 0,0 0.983474,0.7949845 1.008541,3.2306475 0.02476,2.405297 -1.008541,3.325635 -1.008541,3.325635"
     id="path3164"
     style="display:inline;overflow:visible;visibility:visible;fill:none;stroke:url(#linearGradient2391-3);stroke-width:1.7;stroke-linecap:butt;stroke-linejoin:miter;stroke-miterlimit:4;stroke-dasharray:none;stroke-dashoffset:0;stroke-opacity:1;marker:none;enable-background:accumulate" />
</svg>
