<?xml version="1.0" encoding="UTF-8" standalone="no"?>
<svg
   version="1.0"
   width="24"
   height="24"
   id="svg4431"
   xmlns:xlink="http://www.w3.org/1999/xlink"
   xmlns="http://www.w3.org/2000/svg"
   xmlns:svg="http://www.w3.org/2000/svg"
   xmlns:rdf="http://www.w3.org/1999/02/22-rdf-syntax-ns#"
   xmlns:cc="http://creativecommons.org/ns#"
   xmlns:dc="http://purl.org/dc/elements/1.1/">
  <metadata
     id="metadata16">
    <rdf:RDF>
      <cc:Work
         rdf:about="">
        <dc:format>image/svg+xml</dc:format>
        <dc:type
           rdf:resource="http://purl.org/dc/dcmitype/StillImage" />
      </cc:Work>
    </rdf:RDF>
  </metadata>
  <defs
     id="defs4433">
    <linearGradient
       xlink:href="#linearGradient3678-9"
       id="linearGradient3845"
       x1="6"
       y1="21"
       x2="6"
       y2="2"
       gradientUnits="userSpaceOnUse"
       gradientTransform="translate(1.0039811,0.9984057)" />
    <linearGradient
       id="linearGradient3678-9">
      <stop
         style="stop-color:#ffffff;stop-opacity:1;"
         offset="0"
         id="stop3680-7" />
      <stop
         style="stop-color:#e6e6e6;stop-opacity:1;"
         offset="1"
         id="stop3682-8" />
    </linearGradient>
    <linearGradient
       xlink:href="#linearGradient3678-9"
       id="linearGradient3841"
       x1="1"
       y1="20"
       x2="1"
       y2="4"
       gradientUnits="userSpaceOnUse"
       gradientTransform="translate(1.0039811,0.9984057)" />
    <linearGradient
       xlink:href="#linearGradient3678-9"
       id="linearGradient3843"
       x1="1.9036144"
       y1="4.5963855"
       x2="1.9036144"
       y2="19"
       gradientUnits="userSpaceOnUse"
       gradientTransform="translate(1.0039811,0.9984057)" />
  </defs>
  <path
     style="color:#000000;font-style:normal;font-variant:normal;font-weight:normal;font-stretch:normal;font-size:medium;line-height:normal;font-family:Sans;-inkscape-font-specification:Sans;text-indent:0;text-align:start;text-decoration:none;text-decoration-line:none;letter-spacing:normal;word-spacing:normal;text-transform:none;writing-mode:lr-tb;direction:ltr;baseline-shift:baseline;text-anchor:start;display:inline;overflow:visible;visibility:visible;opacity:0.2;fill:#000000;fill-opacity:1;stroke:none;stroke-width:1.7;marker:none;enable-background:accumulate"
     d="m 18.441481,4.2171557 -1.15625,1.25 c 0,0 0.524675,0.4932413 1.125,1.65625 0.600325,1.1630087 1.21875,2.9247253 1.21875,5.3750003 0,2.464031 -0.62078,4.255672 -1.21875,5.40625 -0.59797,1.150578 -1.125,1.625 -1.125,1.625 l 1.15625,1.25 c 0,0 0.759951,-0.729922 1.46875,-2.09375 0.708799,-1.363828 1.40625,-3.439328 1.40625,-6.1875 0,-2.7363053 -0.697589,-4.7833615 -1.40625,-6.1562503 -0.708661,-1.3728888 -1.46875,-2.125 -1.46875,-2.125 z"
     id="path3166" />
  <path
     style="color:#000000;font-style:normal;font-variant:normal;font-weight:normal;font-stretch:normal;font-size:medium;line-height:normal;font-family:Sans;-inkscape-font-specification:Sans;text-indent:0;text-align:start;text-decoration:none;text-decoration-line:none;letter-spacing:normal;word-spacing:normal;text-transform:none;writing-mode:lr-tb;direction:ltr;baseline-shift:baseline;text-anchor:start;display:inline;overflow:visible;visibility:visible;opacity:0.2;fill:#000000;fill-opacity:1;stroke:none;stroke-width:1.7;marker:none;enable-background:accumulate"
     d="m 15.472731,6.4671557 -1.1875,1.25 c 0,0 0.351653,0.3081298 0.75,1.09375 0.398347,0.7856202 0.811472,2.0028573 0.78125,3.6875003 -0.03074,1.713622 -0.450206,2.930108 -0.84375,3.71875 -0.393544,0.788642 -0.71875,1.09375 -0.71875,1.09375 l 1.1875,1.1875 c 0,0 0.567926,-0.540149 1.0625,-1.53125 0.494574,-0.991101 0.964542,-2.492293 1,-4.46875 0.03543,-1.975081 -0.429585,-3.4670392 -0.9375,-4.4687503 -0.507915,-1.0017111 -1.09375,-1.5625 -1.09375,-1.5625 z m -3.09375,2.09375 -1.0625,1.3125 c 0,0 0.09143,0.053904 0.28125,0.4375003 0.189816,0.383595 0.394884,1.051854 0.40625,2.15625 0.01112,1.079834 -0.206519,1.772163 -0.40625,2.1875 -0.199731,0.415337 -0.3125,0.5 -0.3125,0.5 l 1.125,1.25 c 0,0 0.408021,-0.385094 0.71875,-1.03125 0.310729,-0.646156 0.607394,-1.612037 0.59375,-2.9375 -0.0137,-1.331266 -0.316812,-2.283438 -0.625,-2.9062503 -0.308188,-0.6228122 -0.71875,-0.96875 -0.71875,-0.96875 z"
     id="path3164" />
  <path
     style="color:#000000;font-style:normal;font-variant:normal;font-weight:normal;font-stretch:normal;font-size:medium;line-height:normal;font-family:Sans;-inkscape-font-specification:Sans;text-indent:0;text-align:start;text-decoration:none;text-decoration-line:none;letter-spacing:normal;word-spacing:normal;text-transform:none;writing-mode:lr-tb;direction:ltr;baseline-shift:baseline;text-anchor:start;display:inline;overflow:visible;visibility:visible;opacity:0.4;fill:url(#linearGradient3843);fill-opacity:1;stroke:none;stroke-width:1.7;marker:none;enable-background:accumulate"
     d="m 15.472731,7.4671557 -1.1875,1.25 c 0,0 0.351653,0.3081298 0.75,1.09375 0.398347,0.7856203 0.811472,2.0028583 0.78125,3.6875003 -0.03074,1.713622 -0.450206,2.930108 -0.84375,3.71875 -0.393544,0.788642 -0.71875,1.09375 -0.71875,1.09375 l 1.1875,1.1875 c 0,0 0.567926,-0.540149 1.0625,-1.53125 0.494574,-0.991101 0.964542,-2.492293 1,-4.46875 0.03543,-1.975081 -0.429585,-3.467039 -0.9375,-4.4687503 -0.507915,-1.0017111 -1.09375,-1.5625 -1.09375,-1.5625 z m -3.09375,2.09375 -1.0625,1.3125003 c 0,0 0.09143,0.0539 0.28125,0.4375 0.189816,0.383596 0.394884,1.051854 0.40625,2.15625 0.01112,1.079834 -0.206519,1.772163 -0.40625,2.1875 -0.199731,0.415337 -0.3125,0.5 -0.3125,0.5 l 1.125,1.25 c 0,0 0.408021,-0.385094 0.71875,-1.03125 0.310729,-0.646156 0.607394,-1.612037 0.59375,-2.9375 -0.0137,-1.331266 -0.316812,-2.283438 -0.625,-2.90625 -0.308188,-0.6228125 -0.71875,-0.9687503 -0.71875,-0.9687503 z"
     id="path3170" />
  <path
     d="m 3.0039811,9.9984059 v 5.0000001 h 2 l 4,4 V 5.9984057 l -4,4.0000002 z"
     id="path2387"
     style="opacity:0.2;fill:#000000;fill-opacity:1;fill-rule:evenodd;stroke:none" />
  <path
     d="m 3.0039811,10.998406 v 5 h 2 l 4,4 V 6.9984057 l -4,4.0000003 z"
     id="path2387-4"
     style="opacity:0.4;fill:url(#linearGradient3841);fill-opacity:1;fill-rule:evenodd;stroke:none" />
  <path
     style="color:#000000;font-style:normal;font-variant:normal;font-weight:normal;font-stretch:normal;font-size:medium;line-height:normal;font-family:Sans;-inkscape-font-specification:Sans;text-indent:0;text-align:start;text-decoration:none;text-decoration-line:none;letter-spacing:normal;word-spacing:normal;text-transform:none;writing-mode:lr-tb;direction:ltr;baseline-shift:baseline;text-anchor:start;display:inline;overflow:visible;visibility:visible;opacity:0.4;fill:url(#linearGradient3845);fill-opacity:1;stroke:none;stroke-width:1.7;marker:none;enable-background:accumulate"
     d="m 18.441481,5.2171557 -1.15625,1.25 c 0,0 0.52703,0.4744217 1.125,1.625 0.59797,1.1505783 1.21875,2.9422193 1.21875,5.4062503 0,2.450275 -0.618425,4.211991 -1.21875,5.375 -0.600325,1.163009 -1.125,1.65625 -1.125,1.65625 l 1.15625,1.25 c 0,0 0.760089,-0.752111 1.46875,-2.125 0.708661,-1.372889 1.40625,-3.419945 1.40625,-6.15625 0,-2.748173 -0.697451,-4.8236719 -1.40625,-6.1875003 -0.708799,-1.3638284 -1.46875,-2.09375 -1.46875,-2.09375 z"
     id="path3172" />
</svg>
