<?xml version="1.0" encoding="UTF-8" standalone="no"?>
<svg
   version="1.0"
   width="24"
   height="24"
   id="svg4431"
   xmlns:xlink="http://www.w3.org/1999/xlink"
   xmlns="http://www.w3.org/2000/svg"
   xmlns:svg="http://www.w3.org/2000/svg"
   xmlns:rdf="http://www.w3.org/1999/02/22-rdf-syntax-ns#"
   xmlns:cc="http://creativecommons.org/ns#"
   xmlns:dc="http://purl.org/dc/elements/1.1/">
  <metadata
     id="metadata16">
    <rdf:RDF>
      <cc:Work
         rdf:about="">
        <dc:format>image/svg+xml</dc:format>
        <dc:type
           rdf:resource="http://purl.org/dc/dcmitype/StillImage" />
      </cc:Work>
    </rdf:RDF>
  </metadata>
  <defs
     id="defs4433">
    <linearGradient
       xlink:href="#linearGradient3678"
       id="linearGradient2390-3"
       gradientUnits="userSpaceOnUse"
       gradientTransform="matrix(0,0.7805424,-0.7617909,0,29.8755,-36.748682)"
       x1="50.925655"
       y1="11.648451"
       x2="73.986542"
       y2="11.648451" />
    <linearGradient
       id="linearGradient3678">
      <stop
         id="stop3680"
         offset="0"
         style="stop-color:#ffffff;stop-opacity:1;" />
      <stop
         id="stop3682"
         offset="1"
         style="stop-color:#e6e6e6;stop-opacity:1;" />
    </linearGradient>
    <linearGradient
       xlink:href="#linearGradient3678"
       id="linearGradient2393-6"
       gradientUnits="userSpaceOnUse"
       gradientTransform="translate(-0.99818304,9.5339489e-4)"
       x1="9"
       y1="3"
       x2="9"
       y2="21" />
  </defs>
  <path
     style="display:inline;overflow:visible;visibility:visible;opacity:0.5;fill:none;stroke:#000000;stroke-width:1.7;stroke-linecap:butt;stroke-linejoin:miter;stroke-miterlimit:4;stroke-dasharray:none;stroke-dashoffset:0;stroke-opacity:1;marker:none;enable-background:accumulate"
     id="path3209-0-5"
     d="m 17.856251,5.8509535 c 0,0 2.613537,2.422712 2.613537,7.6349145 0,5.186579 -2.617972,7.665084 -2.617972,7.665084 M 14.881455,8.0964295 c 0,0 1.845351,1.7448014 1.779696,5.4045235 -0.0662,3.690078 -1.809335,5.404523 -1.809335,5.404523 m -3,-8.682664 c 0,0 0.983474,0.794985 1.008541,3.230647 0.02476,2.405296 -1.008541,3.325634 -1.008541,3.325634" />
  <path
     style="opacity:0.5;fill:#000000;fill-opacity:1;fill-rule:evenodd;stroke:none"
     id="path2387-4-3"
     d="m 3.001817,11.000953 v 4.999999 h 2 l 4,4 V 7.0009535 l -4,3.9999995 z" />
  <path
     style="fill:url(#linearGradient2393-6);fill-opacity:1;fill-rule:evenodd;stroke:none"
     id="path2387-5"
     d="m 3.001817,10.000954 v 4.999999 h 2 l 4,3.999999 V 6.0009535 l -4,4.0000005 z" />
  <path
     style="display:inline;overflow:visible;visibility:visible;fill:none;stroke:url(#linearGradient2390-3);stroke-width:1.7;stroke-linecap:butt;stroke-linejoin:miter;stroke-miterlimit:4;stroke-dasharray:none;stroke-dashoffset:0;stroke-opacity:1;marker:none;enable-background:accumulate"
     id="path3209-6"
     d="m 17.856251,4.8509535 c 0,0 2.613537,2.422712 2.613537,7.6349145 0,5.186579 -2.617972,7.665084 -2.617972,7.665084 M 14.881455,7.0964295 c 0,0 1.845351,1.744801 1.779696,5.4045235 -0.0662,3.690078 -1.809335,5.404523 -1.809335,5.404523 m -3,-8.6826635 c 0,0 0.983474,0.7949845 1.008541,3.2306465 0.02476,2.405297 -1.008541,3.325634 -1.008541,3.325634" />
</svg>
