<?xml version="1.0" encoding="UTF-8" standalone="no"?>
<svg
   id="svg3215"
   height="24"
   width="24"
   version="1.0"
   xmlns:xlink="http://www.w3.org/1999/xlink"
   xmlns="http://www.w3.org/2000/svg"
   xmlns:svg="http://www.w3.org/2000/svg"
   xmlns:rdf="http://www.w3.org/1999/02/22-rdf-syntax-ns#"
   xmlns:cc="http://creativecommons.org/ns#"
   xmlns:dc="http://purl.org/dc/elements/1.1/">
  <defs
     id="defs8">
    <linearGradient
       x1="45.52272"
       y1="0.94087785"
       x2="45.52272"
       y2="34.003155"
       id="linearGradient2390-3"
       xlink:href="#linearGradient3678"
       gradientUnits="userSpaceOnUse"
       gradientTransform="matrix(0.4101105,0,0,0.5452071,-10.350926,1.4870267)" />
    <linearGradient
       id="linearGradient3678">
      <stop
         style="stop-color:#ffffff;stop-opacity:1;"
         offset="0"
         id="stop3680" />
      <stop
         style="stop-color:#e6e6e6;stop-opacity:1;"
         offset="1"
         id="stop3682" />
    </linearGradient>
  </defs>
  <metadata
     id="metadata12">
    <rdf:RDF>
      <cc:Work
         rdf:about="">
        <dc:format>image/svg+xml</dc:format>
        <dc:type
           rdf:resource="http://purl.org/dc/dcmitype/StillImage" />
        <dc:title />
      </cc:Work>
    </rdf:RDF>
  </metadata>
  <g
     id="layer1"
     transform="translate(1,1)">
    <path
       d="m 10,4.21875 c 0.844149,0.030316 1.701715,-0.073098 2.534088,0.079066 0.905603,0.2439946 1.347367,1.2115035 1.247162,2.088098 0,0.7984452 0,1.5968903 0,2.3953355 -1.854167,0 -3.708333,0 -5.5625,0 C 8.2375632,7.7338132 8.1780822,6.6814969 8.2544528,5.6376154 8.4025451,4.8224285 9.173141,4.2011802 10,4.21875 Z"
       id="path3337"
       style="opacity:0.3;fill:none;fill-opacity:1;stroke:#ffffff;stroke-width:0.5;stroke-miterlimit:4;stroke-dasharray:none;stroke-opacity:1" />
    <path
       d="M 10,3 C 7.784,3 6,4.784 6,7 v 3 H 5 c -0.554,0 -1,0.446 -1,1 v 9 c 0,0.554 0.446,1 1,1 h 12 c 0.554,0 1,-0.446 1,-1 v -9 c 0,-0.554 -0.446,-1 -1,-1 H 16 V 7 C 16,4.784 14.216,3 12,3 Z m 0,2 h 2 c 1.108,0 2,0.892 2,2 v 3 H 8 V 7 C 8,5.892 8.892,5 10,5 Z"
       id="path2416"
       style="display:inline;overflow:visible;visibility:visible;opacity:0.5;fill:#000000;fill-opacity:1;fill-rule:nonzero;stroke:none;stroke-width:1;stroke-linecap:butt;stroke-linejoin:miter;stroke-miterlimit:4;stroke-dasharray:none;stroke-dashoffset:0;stroke-opacity:1;marker:none;marker-start:none;marker-mid:none;marker-end:none;enable-background:accumulate" />
    <path
       d="M 10,2 C 7.784,2 6,3.784 6,6 V 9 H 5 C 4.446,9 4,9.446 4,10 v 9 c 0,0.554 0.446,1 1,1 h 12 c 0.554,0 1,-0.446 1,-1 V 10 C 18,9.446 17.554,9 17,9 H 16 V 6 C 16,3.784 14.216,2 12,2 Z m 0,2 h 2 c 1.108,0 2,0.892 2,2 V 9 H 8 V 6 C 8,4.892 8.892,4 10,4 Z"
       id="rect2822"
       style="display:inline;overflow:visible;visibility:visible;opacity:1;fill:url(#linearGradient2390-3);fill-opacity:1;fill-rule:nonzero;stroke:none;stroke-width:1;stroke-linecap:butt;stroke-linejoin:miter;stroke-miterlimit:4;stroke-dasharray:none;stroke-dashoffset:0;stroke-opacity:1;marker:none;marker-start:none;marker-mid:none;marker-end:none;enable-background:accumulate" />
  </g>
</svg>
