<?xml version="1.0" encoding="UTF-8" standalone="no"?>
<svg
   width="24"
   height="24"
   id="svg2"
   version="1.0"
   xmlns:xlink="http://www.w3.org/1999/xlink"
   xmlns="http://www.w3.org/2000/svg"
   xmlns:svg="http://www.w3.org/2000/svg"
   xmlns:rdf="http://www.w3.org/1999/02/22-rdf-syntax-ns#"
   xmlns:cc="http://creativecommons.org/ns#"
   xmlns:dc="http://purl.org/dc/elements/1.1/">
  <defs
     id="defs4">
    <linearGradient
       xlink:href="#linearGradient3587-6-5-9-5"
       id="linearGradient4068"
       gradientUnits="userSpaceOnUse"
       gradientTransform="matrix(1.0627318,0,0,1.0627318,-26.258345,8.1425844)"
       x1="39.971268"
       y1="-3.8651557"
       x2="39.971268"
       y2="12.195611" />
    <linearGradient
       id="linearGradient3587-6-5-9-5">
      <stop
         id="stop3589-9-2-0-5"
         style="stop-color:#ffffff;stop-opacity:1;"
         offset="0" />
      <stop
         id="stop3591-7-4-6-2"
         style="stop-color:#e6e6e6;stop-opacity:1;"
         offset="1" />
    </linearGradient>
  </defs>
  <metadata
     id="metadata7">
    <rdf:RDF>
      <cc:Work
         rdf:about="">
        <dc:format>image/svg+xml</dc:format>
        <dc:type
           rdf:resource="http://purl.org/dc/dcmitype/StillImage" />
      </cc:Work>
    </rdf:RDF>
  </metadata>
  <path
     style="color:#000000;display:inline;overflow:visible;visibility:visible;opacity:0.5;fill:#000000;fill-opacity:1;fill-rule:evenodd;stroke:none;stroke-width:1;stroke-dasharray:none;marker:none;enable-background:accumulate"
     d="M 6.6345435,4 C 6.2781787,4 6,4.4145814 6,4.9298902 V 6.0659167 C 6,6.5812255 6.2781787,7 6.6345435,7 H 10 v 5.003237 H 6.4507382 c -0.2306839,-0.0037 -0.4553497,0.03151 -0.6642072,0.09751 -0.2175593,0.06188 -0.393656,0.150705 -0.5645763,0.265682 -0.083148,0.06035 -0.1638435,0.128057 -0.2324726,0.199263 -0.1868771,0.185724 -0.3383558,0.395 -0.365314,0.630997 C 4.6052191,13.233399 3.0315323,19.35538 3,19.413033 v 0.89668 c 0.00124,0.812316 0.088208,1.630992 1.1032505,1.69029 H 19.897415 C 20.912457,21.940693 21.002157,21.206988 21,20.309713 V 19.41303 c -0.03152,-0.05764 -1.609932,-6.179635 -1.628886,-6.216344 -0.02696,-0.235997 -0.178436,-0.445273 -0.365314,-0.630997 -0.06863,-0.0712 -0.14932,-0.138917 -0.232473,-0.199263 -0.17092,-0.114977 -0.347018,-0.203805 -0.564577,-0.265682 -0.208855,-0.05941 -0.433522,-0.100813 -0.664206,-0.09751 H 14 V 7 h 3.365 c 0.356365,0 0.634994,-0.4187715 0.634994,-0.9340804 V 4.9298901 C 17.999994,4.4145814 17.721365,4 17.365,4 Z M 10,12.003237 h 4 L 13.9968,15 H 16.3 L 12,19 7.7,15 h 2.303192 z"
     id="path3499-3" />
  <path
     style="color:#000000;display:inline;overflow:visible;visibility:visible;opacity:1;fill:url(#linearGradient4068);fill-opacity:1;fill-rule:evenodd;stroke:none;stroke-width:1;marker:none;enable-background:accumulate;stroke-dasharray:none"
     d="M 6.6345435,3 C 6.2781787,3 6,3.4145814 6,3.9298902 V 5.0659167 C 6,5.5812255 6.2781787,6 6.6345435,6 H 10 v 5.003237 H 6.4507382 c -0.2306839,-0.0037 -0.4553497,0.03151 -0.6642072,0.09751 -0.2175593,0.06188 -0.393656,0.150705 -0.5645763,0.265682 -0.083148,0.06035 -0.1638435,0.128057 -0.2324726,0.199263 -0.1868771,0.185724 -0.3383558,0.395 -0.365314,0.630997 C 4.6052191,12.233399 3.0315323,18.35538 3,18.413033 v 0.89668 c 0.00124,0.812316 0.088208,1.630992 1.1032505,1.69029 H 19.897415 C 20.912457,20.940693 21.002157,20.206988 21,19.309713 V 18.41303 c -0.03152,-0.05764 -1.609932,-6.179635 -1.628886,-6.216344 -0.02696,-0.235997 -0.178436,-0.445273 -0.365314,-0.630997 -0.06863,-0.0712 -0.14932,-0.138917 -0.232473,-0.199263 -0.17092,-0.114977 -0.347018,-0.203805 -0.564577,-0.265682 -0.208855,-0.05941 -0.433522,-0.100813 -0.664206,-0.09751 H 14 V 6 h 3.365 c 0.356365,0 0.634994,-0.4187715 0.634994,-0.9340804 V 3.9298901 C 17.999994,3.4145814 17.721365,3 17.365,3 Z M 10,11.003237 h 4 L 13.9968,14 H 16.3 L 12,18 7.7,14 h 2.303192 z"
     id="path3499-6" />
</svg>
