<?xml version="1.0" encoding="UTF-8" standalone="no"?>
<svg
   version="1.1"
   width="16"
   height="16"
   id="svg3935"
   xmlns:xlink="http://www.w3.org/1999/xlink"
   xmlns="http://www.w3.org/2000/svg"
   xmlns:svg="http://www.w3.org/2000/svg"
   xmlns:rdf="http://www.w3.org/1999/02/22-rdf-syntax-ns#"
   xmlns:cc="http://creativecommons.org/ns#"
   xmlns:dc="http://purl.org/dc/elements/1.1/">
  <defs
     id="defs3937">
    <linearGradient
       id="linearGradient4011">
      <stop
         id="stop4013"
         style="stop-color:#ffffff;stop-opacity:1"
         offset="0" />
      <stop
         id="stop4015"
         style="stop-color:#ffffff;stop-opacity:0.23529412"
         offset="0.507761" />
      <stop
         id="stop4017"
         style="stop-color:#ffffff;stop-opacity:0.15686275"
         offset="0.83456558" />
      <stop
         id="stop4019"
         style="stop-color:#ffffff;stop-opacity:0.39215687"
         offset="1" />
    </linearGradient>
    <radialGradient
       xlink:href="#linearGradient2867-449-88-871-390-598-476-591-434-148-57-177-3-8"
       id="radialGradient3099"
       gradientUnits="userSpaceOnUse"
       gradientTransform="matrix(0,0.94198465,-0.99651048,-2.5639371e-8,16.415015,-6.7289359)"
       cx="5.0450659"
       cy="8.4497671"
       fx="5.0450659"
       fy="8.4497671"
       r="19.99999" />
    <linearGradient
       id="linearGradient2867-449-88-871-390-598-476-591-434-148-57-177-3-8">
      <stop
         id="stop3750-8-9"
         style="stop-color:#90dbec;stop-opacity:1;"
         offset="0" />
      <stop
         id="stop3752-3-2"
         style="stop-color:#42baea;stop-opacity:1"
         offset="0.26238" />
      <stop
         id="stop3754-7-2"
         style="stop-color:#3689e6;stop-opacity:1;"
         offset="0.704952" />
      <stop
         id="stop3756-9-3"
         style="stop-color:#2b63a0;stop-opacity:1;"
         offset="1" />
    </linearGradient>
    <linearGradient
       xlink:href="#linearGradient3707-319-631-407-324-3-8"
       id="linearGradient3101"
       gradientUnits="userSpaceOnUse"
       gradientTransform="matrix(0.40446485,0,0,0.4044636,-1.7124672,-1.7158725)"
       x1="24"
       y1="44"
       x2="24"
       y2="3.8990016" />
    <linearGradient
       id="linearGradient3707-319-631-407-324-3-8">
      <stop
         id="stop3760-7-3"
         style="stop-color:#185f9a;stop-opacity:1;"
         offset="0" />
      <stop
         id="stop3762-8-4"
         style="stop-color:#599ec9;stop-opacity:1;"
         offset="1" />
    </linearGradient>
    <linearGradient
       xlink:href="#linearGradient4011"
       id="linearGradient3096"
       gradientUnits="userSpaceOnUse"
       gradientTransform="matrix(0.41521513,0,0,0.41521374,-21.790153,-2.5373872)"
       x1="71.204407"
       y1="6.2375584"
       x2="71.204407"
       y2="44.340794" />
    <linearGradient
       gradientTransform="matrix(0.30741631,0,0,0.3072592,-1.8413765,-2.3531281)"
       xlink:href="#linearGradient3707-319-631-407-324-3-8"
       id="linearGradient4092"
       x1="31.071823"
       y1="59.665745"
       x2="31.071823"
       y2="0.35299802"
       gradientUnits="userSpaceOnUse" />
    <linearGradient
       xlink:href="#linearGradient3820-7-2"
       id="linearGradient4196"
       gradientUnits="userSpaceOnUse"
       x1="60.948738"
       y1="-5.801291"
       x2="60.948738"
       y2="34.548019"
       gradientTransform="matrix(0.13629795,0,0,0.13923269,-0.92897185,8.4003936)" />
    <linearGradient
       id="linearGradient3820-7-2">
      <stop
         id="stop3822-2-6"
         style="stop-color:#000000;stop-opacity:1"
         offset="0" />
      <stop
         id="stop3824-1-2"
         style="stop-color:#000000;stop-opacity:0"
         offset="1" />
    </linearGradient>
    <linearGradient
       xlink:href="#linearGradient3820-7-2"
       id="linearGradient4193"
       gradientUnits="userSpaceOnUse"
       x1="69.311714"
       y1="-15.790401"
       x2="69.311714"
       y2="33.986996"
       gradientTransform="matrix(0.13629795,0,0,0.13923269,-0.96055543,8.4548012)" />
    <linearGradient
       xlink:href="#linearGradient3820-7-2"
       id="linearGradient4190"
       gradientUnits="userSpaceOnUse"
       x1="72.458694"
       y1="-37.888779"
       x2="72.458694"
       y2="-24.791594"
       gradientTransform="matrix(0.13634045,0,0,0.13939637,-0.86421126,8.120833)" />
    <linearGradient
       xlink:href="#linearGradient3820-7-2"
       id="linearGradient4187"
       gradientUnits="userSpaceOnUse"
       x1="69.311714"
       y1="21.319286"
       x2="69.311714"
       y2="27.727411"
       gradientTransform="matrix(0.13629795,0,0,0.13923269,-0.86982967,8.7993832)" />
  </defs>
  <metadata
     id="metadata3940">
    <rdf:RDF>
      <cc:Work
         rdf:about="">
        <dc:format>image/svg+xml</dc:format>
        <dc:type
           rdf:resource="http://purl.org/dc/dcmitype/StillImage" />
        <dc:title />
      </cc:Work>
    </rdf:RDF>
  </metadata>
  <path
     style="color:#000000;display:inline;overflow:visible;visibility:visible;fill:url(#radialGradient3099);fill-opacity:1;fill-rule:nonzero;stroke:url(#linearGradient3101);stroke-width:0.20484;stroke-linecap:round;stroke-linejoin:round;stroke-miterlimit:4;stroke-dasharray:none;stroke-dashoffset:0;stroke-opacity:1;marker:none;enable-background:accumulate"
     id="path2555-7-3"
     d="m 7.9946894,0.10494549 c -4.3514071,0 -7.88633373,3.53491471 -7.88633373,7.88630841 0,4.3513921 3.53492663,7.8863091 7.88633373,7.8863071 4.3514046,0 7.8863366,-3.534915 7.8863336,-7.8863071 0,-4.3513937 -3.534929,-7.88630841 -7.8863336,-7.88630841 z" />
  <path
     style="color:#000000;display:inline;overflow:visible;visibility:visible;opacity:0.5;fill:none;stroke:url(#linearGradient3096);stroke-width:0.20484;stroke-linecap:round;stroke-linejoin:round;stroke-miterlimit:4;stroke-dasharray:none;stroke-dashoffset:0;stroke-opacity:1;marker:none;enable-background:accumulate"
     id="path8655-6-6"
     d="m 15.676168,7.991017 c 0,4.242487 -3.439369,7.681727 -7.6813826,7.681727 -4.2424022,0 -7.68157688,-3.439279 -7.68157688,-7.681727 0,-4.2422916 3.43917468,-7.68118328 7.68157688,-7.68118328 4.2420136,0 7.6813826,3.43889168 7.6813826,7.68118328 z" />
  <path
     style="font-style:normal;font-variant:normal;font-weight:bold;font-stretch:normal;font-size:40px;line-height:100%;font-family:'URW Palladio L';-inkscape-font-specification:'URW Palladio L Bold';text-align:start;writing-mode:lr-tb;text-anchor:start;fill:url(#linearGradient4092);fill-opacity:1;stroke:none;stroke-width:0.20484"
     id="path3227"
     d="M 5.5366144,7.8258409 C 5.6390128,8.1053557 5.7542697,8.3319239 5.9997777,8.0221226 6.3041541,7.8402795 7.3240039,7.0432004 7.2219549,7.8239569 6.8953993,9.2686997 6.497909,10.698247 6.1939823,12.14744 c -0.3177978,0.793499 0.40386,1.511252 1.1573236,0.995235 0.8008824,-0.33152 1.4900413,-0.87151 2.194093,-1.36687 C 9.4493365,11.539243 9.3853081,11.199422 9.1198763,11.508792 8.7713489,11.667638 8.0101296,12.416534 7.8687084,11.798862 8.1614675,10.234467 8.7038845,8.7279835 9.0506057,7.1760621 9.3696804,6.4624924 8.8485694,5.560871 8.0685263,6.1511451 7.134014,6.5598369 6.3525173,7.2274521 5.5366144,7.8258409 Z M 9.0048885,2.5642449 C 8.05141,2.5134357 7.5528981,4.0568195 8.4589825,4.4791584 9.1940825,4.7818752 9.9944742,4.0248217 9.8148924,3.2683515 9.7591589,2.8744511 9.4069695,2.5509946 9.0048885,2.5642449 Z" />
  <path
     style="font-style:normal;font-variant:normal;font-weight:bold;font-stretch:normal;font-size:40px;line-height:100%;font-family:'URW Palladio L';-inkscape-font-specification:'URW Palladio L Bold';text-align:start;writing-mode:lr-tb;text-anchor:start;fill:#ffffff;fill-opacity:1;stroke:none;stroke-width:0.20484"
     id="path3536-5"
     d="M 5.5366144,8.0306801 C 5.6390128,8.3101956 5.7542697,8.5367638 5.9997777,8.2269625 6.3041541,8.0451186 7.3240039,7.2480401 7.2219549,8.028796 6.8953993,9.4735381 6.497909,10.903087 6.1939823,12.352279 c -0.3177978,0.793499 0.40386,1.511252 1.1573236,0.995235 0.8008824,-0.33152 1.4900413,-0.871509 2.194093,-1.366869 C 9.4493365,11.744083 9.3853081,11.404262 9.1198763,11.713632 8.7713489,11.872476 8.0101296,12.621373 7.8687084,12.003701 8.1614675,10.439307 8.7038845,8.9328234 9.0506057,7.3809022 9.3696804,6.667332 8.8485694,5.7657105 8.0685263,6.3559846 7.134014,6.7646766 6.3525173,7.4322912 5.5366144,8.0306801 Z M 9.0048885,2.7690843 C 8.05141,2.7182749 7.5528981,4.261659 8.4589825,4.6839979 9.1940825,4.9867147 9.9944742,4.2296613 9.8148924,3.4731909 9.7591589,3.0792906 9.4069695,2.7558341 9.0048885,2.7690843 Z" />
  <path
     style="font-style:normal;font-variant:normal;font-weight:bold;font-stretch:normal;font-size:40px;line-height:100%;font-family:'URW Palladio L';-inkscape-font-specification:'URW Palladio L Bold';text-align:start;writing-mode:lr-tb;text-anchor:start;opacity:0.1;fill:none;stroke:url(#linearGradient4196);stroke-width:0.20484;stroke-opacity:1"
     d="M 7.1249365,7.6222775 C 7.4309134,7.6444324 7.3609246,8.0268066 7.2971054,8.2345903 7.000762,9.5510798 6.6419755,10.853306 6.3835516,12.17837 c -0.062338,0.388521 0.1737161,0.884319 0.6019479,0.88801"
     id="path4119" />
  <path
     style="font-style:normal;font-variant:normal;font-weight:bold;font-stretch:normal;font-size:40px;line-height:100%;font-family:'URW Palladio L';-inkscape-font-specification:'URW Palladio L Bold';text-align:start;writing-mode:lr-tb;text-anchor:start;opacity:0.1;fill:none;stroke:url(#linearGradient4193);stroke-width:0.20484;stroke-opacity:1"
     d="M 9.3129031,11.722418 C 9.2873318,11.521334 9.1288852,11.359314 8.972284,11.561007 8.6945609,11.756247 8.4267284,12.032061 8.0738041,12.057525 7.8476619,12.053091 7.7330207,11.774681 7.8249545,11.581261 8.1140284,10.091019 8.683884,8.6587717 8.9758915,7.1698639 9.1076431,6.9173185 8.9402676,6.2341056 8.7078263,6.3353187 8.6694912,6.3148646 8.6273277,6.3025507 8.5845609,6.296695 8.215503,6.3192665 7.8209843,6.6049699 7.4847846,6.7982962 7.06685,7.0497763 6.386428,7.5032366 5.7364439,7.9976976"
     id="path4070" />
  <path
     style="font-style:normal;font-variant:normal;font-weight:bold;font-stretch:normal;font-size:40px;line-height:100%;font-family:'URW Palladio L';-inkscape-font-specification:'URW Palladio L Bold';text-align:start;writing-mode:lr-tb;text-anchor:start;opacity:0.1;fill:none;stroke:url(#linearGradient4190);stroke-width:0.20484;stroke-opacity:1"
     d="M 8.985191,2.8939681 C 8.1773402,2.8501218 7.7549671,4.1665889 8.5226628,4.531053 9.1454898,4.7922868 9.8236351,4.0726432 9.6714817,3.4198352 9.6242635,3.0799121 9.3258618,2.8825331 8.985191,2.8939681 Z"
     id="path3714-3" />
  <path
     style="font-style:normal;font-variant:normal;font-weight:bold;font-stretch:normal;font-size:40px;line-height:100%;font-family:'URW Palladio L';-inkscape-font-specification:'URW Palladio L Bold';text-align:start;writing-mode:lr-tb;text-anchor:start;opacity:0.1;fill:none;stroke:url(#linearGradient4187);stroke-width:0.20484;stroke-opacity:1"
     d="M 9.4036288,12.067 C 9.4251805,11.795241 9.2940227,11.592279 9.0961768,11.85584 8.8184537,12.022673 8.5174541,12.328594 8.1645305,12.368942"
     id="path4070-0" />
</svg>
