<?xml version="1.0" encoding="UTF-8" standalone="no"?>
<svg
   width="16px"
   height="16px"
   id="svg3935"
   version="1.1"
   xmlns:xlink="http://www.w3.org/1999/xlink"
   xmlns="http://www.w3.org/2000/svg"
   xmlns:svg="http://www.w3.org/2000/svg"
   xmlns:rdf="http://www.w3.org/1999/02/22-rdf-syntax-ns#"
   xmlns:cc="http://creativecommons.org/ns#"
   xmlns:dc="http://purl.org/dc/elements/1.1/">
  <defs
     id="defs3937">
    <linearGradient
       xlink:href="#linearGradient3707-319-631-407-324-3-8"
       id="linearGradient3892"
       x1="7.4296298"
       y1="13.162963"
       x2="7.4296298"
       y2="0.12066602"
       gradientUnits="userSpaceOnUse" />
    <linearGradient
       id="linearGradient3707-319-631-407-324-3-8">
      <stop
         id="stop3760-7-3"
         style="stop-color:#185f9a;stop-opacity:1;"
         offset="0" />
      <stop
         id="stop3762-8-4"
         style="stop-color:#599ec9;stop-opacity:1;"
         offset="1" />
    </linearGradient>
    <linearGradient
       id="linearGradient4011">
      <stop
         id="stop4013"
         style="stop-color:#ffffff;stop-opacity:1;"
         offset="0" />
      <stop
         offset="0.507761"
         style="stop-color:#ffffff;stop-opacity:0.23529412;"
         id="stop4015" />
      <stop
         id="stop4017"
         style="stop-color:#ffffff;stop-opacity:0.15686275;"
         offset="0.83456558" />
      <stop
         id="stop4019"
         style="stop-color:#ffffff;stop-opacity:0.39215687;"
         offset="1" />
    </linearGradient>
    <linearGradient
       xlink:href="#linearGradient4011"
       id="linearGradient3096"
       gradientUnits="userSpaceOnUse"
       gradientTransform="matrix(0.41521513,0,0,0.41521374,-21.790089,-2.5369127)"
       x1="71.204407"
       y1="6.2375584"
       x2="71.204407"
       y2="44.340794" />
    <radialGradient
       xlink:href="#linearGradient2867-449-88-871-390-598-476-591-434-148-57-177-3-8-1"
       id="radialGradient3099"
       gradientUnits="userSpaceOnUse"
       gradientTransform="matrix(0,0.94198465,-0.99651048,-2.5639371e-8,16.415079,-6.7284614)"
       cx="5.0450659"
       cy="8.4497671"
       fx="5.0450659"
       fy="8.4497671"
       r="19.99999" />
    <linearGradient
       id="linearGradient2867-449-88-871-390-598-476-591-434-148-57-177-3-8-1">
      <stop
         id="stop3750-8-9-8"
         style="stop-color:#90dbec;stop-opacity:1;"
         offset="0" />
      <stop
         id="stop3752-3-2-7"
         style="stop-color:#42baea;stop-opacity:1"
         offset="0.26238" />
      <stop
         id="stop3754-7-2-9"
         style="stop-color:#3689e6;stop-opacity:1;"
         offset="0.704952" />
      <stop
         id="stop3756-9-3-2"
         style="stop-color:#2b63a0;stop-opacity:1;"
         offset="1" />
    </linearGradient>
    <linearGradient
       xlink:href="#linearGradient3707-319-631-407-324-3-8"
       id="linearGradient3101"
       gradientUnits="userSpaceOnUse"
       gradientTransform="matrix(0.40446485,0,0,0.4044636,-1.7124029,-1.715398)"
       x1="24"
       y1="44"
       x2="24"
       y2="3.8990016" />
  </defs>
  <metadata
     id="metadata3940">
    <rdf:RDF>
      <cc:Work
         rdf:about="">
        <dc:format>image/svg+xml</dc:format>
        <dc:type
           rdf:resource="http://purl.org/dc/dcmitype/StillImage" />
        <dc:title />
      </cc:Work>
    </rdf:RDF>
  </metadata>
  <path
     style="color:#000000;display:inline;overflow:visible;visibility:visible;fill:url(#radialGradient3099);fill-opacity:1;fill-rule:nonzero;stroke:url(#linearGradient3101);stroke-width:0.20484;stroke-linecap:round;stroke-linejoin:round;stroke-miterlimit:4;stroke-dasharray:none;stroke-dashoffset:0;stroke-opacity:1;marker:none;enable-background:accumulate"
     id="path2555-7-3"
     d="m 7.994754,0.10542 c -4.351407,0 -7.886334,3.5349147 -7.886334,7.8863084 0,4.3513926 3.534927,7.8863096 7.886334,7.8863066 4.351404,0 7.886336,-3.534914 7.886333,-7.8863066 0,-4.3513937 -3.534929,-7.8863084 -7.886333,-7.8863084 z" />
  <path
     style="color:#000000;display:inline;overflow:visible;visibility:visible;opacity:0.5;fill:none;stroke:url(#linearGradient3096);stroke-width:0.20484;stroke-linecap:round;stroke-linejoin:round;stroke-miterlimit:4;stroke-dasharray:none;stroke-dashoffset:0;stroke-opacity:1;marker:none;enable-background:accumulate"
     id="path8655-6-6"
     d="m 15.676232,7.9914915 c 0,4.2424865 -3.439369,7.6817275 -7.681382,7.6817275 -4.242402,0 -7.681577,-3.439279 -7.681577,-7.6817275 0,-4.2422916 3.439175,-7.6811833 7.681577,-7.6811833 4.242013,0 7.681382,3.4388917 7.681382,7.6811833 z" />
  <path
     style="font-style:normal;font-weight:bold;font-size:72px;font-family:'Standard Symbols L';fill:url(#linearGradient3892);fill-opacity:1;stroke:none"
     id="path3298-7"
     d="M 8.341414,8.9859802 C 8.316635,8.0787645 8.514805,7.1980506 9.35049,6.5742083 10.233188,5.8686816 11.083296,4.9859726 10.993458,3.9454576 10.973841,2.9419755 9.833867,2.1556379 8.605627,2.0425763 7.224057,1.8462734 5.552367,2.3317052 5.089412,3.4383231 c -0.2348,0.5382209 -0.01706,1.5038522 0.770924,1.5038522 0.460894,0 0.672585,-0.3053592 0.707363,-0.5846914 C 6.594009,4.1461329 6.509409,3.9573975 6.459449,3.7828203 6.402519,3.5839003 6.645544,3.198371 6.910231,3.0412931 7.131406,2.9100331 7.362812,2.8660197 7.396923,2.8576121 8.191227,2.6618253 8.983034,3.0942911 9.31339,3.6206561 9.643746,4.14702 9.28012,4.9454115 8.757319,5.7218165 c -0.522805,0.776406 -1.083868,1.6582439 -1.081626,2.5949 0,0.356586 -0.03098,0.4777262 -0.009,0.6219919 0.01759,0.1152639 0.38971,0.1013339 0.674689,0.047272 z M 7.978919,10.207044 c -0.75948,-0.04229 -1.285147,0.840767 -0.828888,1.403394 0.40746,0.621196 1.549884,0.467848 1.745695,-0.235593 0.203573,-0.547016 -0.286328,-1.176932 -0.916807,-1.167801 z" />
  <path
     style="font-style:normal;font-weight:bold;font-size:72px;font-family:'Standard Symbols L';fill:#ffffff;fill-opacity:1;stroke:none"
     id="path3298"
     d="M 8.341414,9.9859797 C 8.316635,9.078764 8.514805,8.1980501 9.35049,7.5742078 10.233188,6.8686811 11.083296,5.9859721 10.993458,4.9454571 10.973841,3.941975 9.833867,3.1556374 8.605627,3.0425758 7.224057,2.8462729 5.552367,3.3317047 5.089412,4.4383226 c -0.2348,0.5382209 -0.01706,1.5038522 0.770924,1.5038522 0.460894,0 0.672585,-0.3053592 0.707363,-0.5846914 C 6.594009,5.1461324 6.509409,4.957397 6.459449,4.7828198 6.402519,4.5838998 6.645544,4.1983705 6.910231,4.0412926 7.131406,3.9100326 7.362812,3.8660192 7.396923,3.8576116 8.191227,3.6618248 8.983034,4.0942906 9.31339,4.6206556 9.643746,5.1470195 9.28012,5.945411 8.757319,6.721816 8.234514,7.498222 7.673451,8.3800599 7.675693,9.316716 c 0,0.356586 -0.03098,0.4777262 -0.009,0.6219919 0.01759,0.1152641 0.38971,0.1013341 0.674689,0.047272 z M 7.978919,11.207044 c -0.75948,-0.04229 -1.285147,0.840767 -0.828888,1.403394 0.40746,0.621196 1.549884,0.467848 1.745695,-0.235593 0.203573,-0.547016 -0.286328,-1.176932 -0.916807,-1.167801 z" />
</svg>
