<?xml version="1.0" encoding="UTF-8" standalone="no"?>
<svg
   version="1.1"
   width="16"
   height="16"
   id="svg4248"
   xmlns:xlink="http://www.w3.org/1999/xlink"
   xmlns="http://www.w3.org/2000/svg"
   xmlns:svg="http://www.w3.org/2000/svg"
   xmlns:rdf="http://www.w3.org/1999/02/22-rdf-syntax-ns#"
   xmlns:cc="http://creativecommons.org/ns#"
   xmlns:dc="http://purl.org/dc/elements/1.1/">
  <defs
     id="defs4250">
    <linearGradient
       id="linearGradient4011-4">
      <stop
         id="stop4013-8"
         style="stop-color:#ffffff;stop-opacity:1"
         offset="0" />
      <stop
         id="stop4015-5"
         style="stop-color:#ffffff;stop-opacity:0.23529412"
         offset="0.507761" />
      <stop
         id="stop4017-6"
         style="stop-color:#ffffff;stop-opacity:0.15686275"
         offset="0.83456558" />
      <stop
         id="stop4019-1"
         style="stop-color:#ffffff;stop-opacity:0.39215687"
         offset="1" />
    </linearGradient>
    <linearGradient
       y2="44.340794"
       x2="71.204407"
       y1="6.2375584"
       x1="71.204407"
       gradientTransform="matrix(0.39066993,0,0,0.39066984,-20.027662,-1.905862)"
       gradientUnits="userSpaceOnUse"
       id="linearGradient3540"
       xlink:href="#linearGradient4011-4" />
    <radialGradient
       cx="0.96534902"
       cy="8.4497671"
       r="19.99999"
       fx="0.96534902"
       fy="8.4497671"
       id="radialGradient3092"
       xlink:href="#linearGradient2867-449-88-871-390-598-476-591-434-148-57-177-8-3-3-6-4-8-8-8-5"
       gradientUnits="userSpaceOnUse"
       gradientTransform="matrix(0,2.4922051,-2.6364561,-7.005886e-8,30.27395,-9.6209605)" />
    <linearGradient
       id="linearGradient2867-449-88-871-390-598-476-591-434-148-57-177-8-3-3-6-4-8-8-8-5">
      <stop
         id="stop3750-1-0-7-6-6-1-3-9-3"
         style="stop-color:#919caf;stop-opacity:1"
         offset="0" />
      <stop
         id="stop3752-3-7-4-0-32-8-923-0-7"
         style="stop-color:#68758e;stop-opacity:1"
         offset="0.26238" />
      <stop
         id="stop3754-1-8-5-2-7-6-7-1-9"
         style="stop-color:#485a6c;stop-opacity:1"
         offset="0.704952" />
      <stop
         id="stop3756-1-6-2-6-6-1-96-6-0"
         style="stop-color:#444c5c;stop-opacity:1"
         offset="1" />
    </linearGradient>
  </defs>
  <metadata
     id="metadata4253">
    <rdf:RDF>
      <cc:Work
         rdf:about="">
        <dc:format>image/svg+xml</dc:format>
        <dc:type
           rdf:resource="http://purl.org/dc/dcmitype/StillImage" />
      </cc:Work>
    </rdf:RDF>
  </metadata>
  <path
     style="color:#000000;display:inline;overflow:visible;visibility:visible;fill:url(#radialGradient3092);fill-opacity:1;fill-rule:nonzero;stroke:none;stroke-width:0.760778;marker:none;enable-background:accumulate"
     id="path2555-3"
     d="m 7.9964677,0.39266614 c -4.1977105,0 -7.60778137,3.41006926 -7.60778137,7.60778016 0,4.1977137 3.41007087,7.6077827 7.60778137,7.6077827 4.1977103,0 7.6077843,-3.410069 7.6077803,-7.6077827 0,-4.1977109 -3.41007,-7.60778016 -7.6077803,-7.60778016 z" />
  <path
     style="color:#000000;display:inline;overflow:visible;visibility:visible;opacity:0.3;fill:none;stroke:url(#linearGradient3540);stroke-width:0.760777;stroke-linecap:round;stroke-linejoin:round;stroke-miterlimit:4;stroke-dasharray:none;stroke-dashoffset:0;stroke-opacity:1;marker:none;enable-background:accumulate"
     id="path8655-4"
     d="m 15.223861,8.0001907 c 0,3.9917073 -3.236052,7.2276493 -7.227302,7.2276493 -3.9916149,0 -7.22748587,-3.235978 -7.22748587,-7.2276493 0,-3.9915224 3.23587097,-7.22713573 7.22748587,-7.22713573 3.99125,0 7.227302,3.23561333 7.227302,7.22713573 z" />
  <path
     style="color:#000000;clip-rule:nonzero;display:inline;overflow:visible;visibility:visible;opacity:0.5;isolation:auto;mix-blend-mode:normal;color-interpolation:sRGB;color-interpolation-filters:linearRGB;solid-color:#000000;solid-opacity:1;fill:none;fill-opacity:1;fill-rule:nonzero;stroke:#223544;stroke-width:0.760778;stroke-linecap:round;stroke-linejoin:round;stroke-miterlimit:4;stroke-dasharray:none;stroke-dashoffset:0;stroke-opacity:1;marker:none;color-rendering:auto;image-rendering:auto;shape-rendering:auto;text-rendering:auto;enable-background:accumulate"
     id="path2555-6-0"
     d="m 7.9964677,0.39266614 c -4.1977105,0 -7.60778137,3.41006966 -7.60778137,7.60778166 0,4.1977122 3.41007087,7.6077822 7.60778137,7.6077812 4.1977093,0 7.6077843,-3.410069 7.6077803,-7.6077812 0,-4.197712 -3.410071,-7.60778166 -7.6077803,-7.60778166 z" />
  <path
     style="color:#000000;clip-rule:nonzero;display:inline;overflow:visible;visibility:visible;opacity:0.3;isolation:auto;mix-blend-mode:normal;color-interpolation:sRGB;color-interpolation-filters:linearRGB;solid-color:#000000;solid-opacity:1;fill:#1c2c38;fill-opacity:1;fill-rule:nonzero;stroke:none;stroke-width:0.760778;stroke-linecap:round;stroke-linejoin:round;stroke-miterlimit:4;stroke-dasharray:none;stroke-dashoffset:0;stroke-opacity:1;marker:none;color-rendering:auto;image-rendering:auto;shape-rendering:auto;text-rendering:auto;enable-background:accumulate"
     d="m 7.6160779,3.8161678 c -1.2644125,0 -2.2823336,1.0179212 -2.2823336,2.2823343 V 7.2396697 H 6.4749114 V 5.9707151 c 0,-0.5615585 0.4518201,-1.0133801 1.0133794,-1.0133801 h 1.0163515 c 0.5615593,0 1.013381,0.4518216 1.013381,1.0133801 V 7.2396697 H 10.65919 V 6.0985021 c 0,-1.2644131 -1.0179213,-2.2823343 -2.282334,-2.2823343 z M 4.1925771,8.0004471 v 3.8038909 c 0,0.421471 0.339307,0.760779 0.760778,0.760779 h 6.0862239 c 0.42147,0 0.760779,-0.339308 0.760779,-0.760779 V 8.0004471 Z"
     id="path955" />
  <path
     style="color:#000000;clip-rule:nonzero;display:inline;overflow:visible;visibility:visible;isolation:auto;mix-blend-mode:normal;color-interpolation:sRGB;color-interpolation-filters:linearRGB;solid-color:#000000;solid-opacity:1;fill:#ffffff;fill-opacity:1;fill-rule:nonzero;stroke:none;stroke-width:0.760778;stroke-linecap:round;stroke-linejoin:round;stroke-miterlimit:4;stroke-dasharray:none;stroke-dashoffset:0;stroke-opacity:1;marker:none;color-rendering:auto;image-rendering:auto;shape-rendering:auto;text-rendering:auto;enable-background:accumulate"
     d="m 7.6160779,3.0553897 c -1.2644125,0 -2.2823336,1.0179211 -2.2823336,2.2823344 V 7.2396697 H 6.4749114 V 5.2099369 c 0,-0.5615585 0.4518201,-1.0133801 1.0133794,-1.0133801 h 1.0163515 c 0.5615593,0 1.013381,0.4518216 1.013381,1.0133801 V 7.2396697 H 10.65919 V 5.3377241 c 0,-1.2644133 -1.0179213,-2.2823344 -2.282334,-2.2823344 z m -3.4235008,4.18428 v 3.8038893 c 0,0.421472 0.339307,0.760778 0.760778,0.760778 h 6.0862239 c 0.42147,0 0.760779,-0.339306 0.760779,-0.760778 V 7.2396697 Z"
     id="rect4382-7" />
</svg>
