<?xml version="1.0" encoding="UTF-8" standalone="no"?>
<svg
   width="16px"
   height="16px"
   id="svg3033"
   version="1.1"
   xmlns:xlink="http://www.w3.org/1999/xlink"
   xmlns="http://www.w3.org/2000/svg"
   xmlns:svg="http://www.w3.org/2000/svg"
   xmlns:rdf="http://www.w3.org/1999/02/22-rdf-syntax-ns#"
   xmlns:cc="http://creativecommons.org/ns#"
   xmlns:dc="http://purl.org/dc/elements/1.1/">
  <defs
     id="defs3035">
    <linearGradient
       id="linearGradient4011">
      <stop
         id="stop4013"
         style="stop-color:#ffffff;stop-opacity:1;"
         offset="0" />
      <stop
         offset="0.507761"
         style="stop-color:#ffffff;stop-opacity:0.23529412;"
         id="stop4015" />
      <stop
         id="stop4017"
         style="stop-color:#ffffff;stop-opacity:0.15686275;"
         offset="0.83456558" />
      <stop
         id="stop4019"
         style="stop-color:#ffffff;stop-opacity:0.39215687;"
         offset="1" />
    </linearGradient>
    <linearGradient
       id="linearGradient26009">
      <stop
         id="stop26005"
         offset="0"
         style="stop-color:#64baff;stop-opacity:1" />
      <stop
         id="stop26007"
         offset="1"
         style="stop-color:#3689e6;stop-opacity:1" />
    </linearGradient>
    <linearGradient
       gradientTransform="matrix(0.39053705,0,0,0.39053699,-19.982974,-1.906146)"
       gradientUnits="userSpaceOnUse"
       xlink:href="#linearGradient4011"
       id="linearGradient3019"
       y2="44.340794"
       x2="71.204407"
       y1="6.2375584"
       x1="71.204407" />
    <linearGradient
       gradientTransform="matrix(0,0.37098506,-0.37098505,0,16.935262,-0.90684721)"
       gradientUnits="userSpaceOnUse"
       y2="23.999998"
       x2="44.5"
       y1="23.999998"
       x1="3.4999995"
       id="linearGradient887"
       xlink:href="#linearGradient26009" />
  </defs>
  <metadata
     id="metadata3038">
    <rdf:RDF>
      <cc:Work
         rdf:about="">
        <dc:format>image/svg+xml</dc:format>
        <dc:type
           rdf:resource="http://purl.org/dc/dcmitype/StillImage" />
      </cc:Work>
    </rdf:RDF>
  </metadata>
  <path
     style="color:#000000;display:inline;overflow:visible;visibility:visible;fill:url(#linearGradient887);fill-opacity:1;fill-rule:nonzero;stroke:none;stroke-width:0.760519;marker:none;enable-background:accumulate"
     id="path2555-7"
     d="m 15.636814,7.9967955 c 0,-4.1962837 -3.408909,-7.60519502 -7.6051928,-7.60519502 -4.1962824,0 -7.60519468,3.40891132 -7.60519315,7.60519502 0,4.1962805 3.40891075,7.6051965 7.60519315,7.6051915 4.1962838,0 7.6051928,-3.408911 7.6051928,-7.6051915 z" />
  <path
     style="color:#000000;display:inline;overflow:visible;visibility:visible;opacity:0.5;fill:none;stroke:url(#linearGradient3019);stroke-width:0.760518;stroke-linecap:round;stroke-linejoin:round;stroke-miterlimit:4;stroke-dasharray:none;stroke-dashoffset:0;stroke-opacity:1;marker:none;enable-background:accumulate"
     id="path8655-5"
     d="m 15.256558,7.9965377 c 0,3.9903503 -3.234952,7.2251913 -7.2248436,7.2251913 -3.9902565,0 -7.22502668,-3.234879 -7.22502668,-7.2251913 0,-3.9901651 3.23477018,-7.22467791 7.22502668,-7.22467791 3.9898916,0 7.2248436,3.23451281 7.2248436,7.22467791 z" />
  <path
     style="color:#000000;display:inline;overflow:visible;visibility:visible;opacity:0.5;fill:none;stroke:#002e99;stroke-width:0.760519;stroke-linecap:round;stroke-linejoin:round;stroke-miterlimit:4;stroke-dasharray:none;stroke-dashoffset:0;stroke-opacity:1;marker:none;enable-background:accumulate"
     id="path2555-6-3"
     d="m 8.0316221,0.39160048 c -4.1962825,0 -7.60519405,3.40890962 -7.60519405,7.60519282 0,4.1962837 3.40891155,7.6051947 7.60519405,7.6051947 4.1962819,0 7.6051959,-3.408911 7.6051919,-7.6051947 0,-4.1962832 -3.40891,-7.60519282 -7.6051919,-7.60519282 z" />
  <path
     style="color:#bebebe;display:inline;overflow:visible;visibility:visible;opacity:0.2;fill:#002e99;fill-opacity:1;fill-rule:nonzero;stroke:none;stroke-width:0.760517;marker:none;enable-background:accumulate"
     d="m 8.0319474,3.1074151 v 1.4123927 c -2.3401305,0 -4.2371793,1.8970498 -4.2371793,4.2371808 0,2.3401314 1.8970488,4.2371794 4.2371793,4.2371794 2.3401306,0 4.2371776,-1.897048 4.2371776,-4.2371794 h -1.412391 c 0,1.5600864 -1.2646992,2.8247854 -2.8247857,2.8247854 -1.5600873,0 -2.8247868,-1.264699 -2.8247868,-2.8247854 0,-1.5600868 1.2646995,-2.8247872 2.8247868,-2.8247872 v 1.412394 L 11.562929,5.2260057 Z"
     id="path924" />
  <path
     style="color:#bebebe;display:inline;overflow:visible;visibility:visible;fill:#ffffff;fill-opacity:1;fill-rule:nonzero;stroke:none;stroke-width:0.760517;marker:none;enable-background:accumulate"
     d="m 8.0319474,2.3468957 v 1.4123927 c -2.3401305,0 -4.2371793,1.89705 -4.2371793,4.2371808 0,2.3401308 1.8970488,4.2371788 4.2371793,4.2371788 2.3401306,0 4.2371776,-1.897048 4.2371776,-4.2371788 h -1.412391 c 0,1.5600868 -1.2646992,2.8247858 -2.8247857,2.8247858 -1.5600873,0 -2.8247868,-1.264699 -2.8247868,-2.8247858 0,-1.5600868 1.2646995,-2.8247868 2.8247868,-2.8247868 V 6.5840761 L 11.562929,4.4654863 Z"
     id="path2984-75" />
</svg>
