<?xml version="1.0" encoding="UTF-8" standalone="no"?>
<svg
   version="1.1"
   width="128"
   height="128"
   id="svg27522"
   xmlns:xlink="http://www.w3.org/1999/xlink"
   xmlns="http://www.w3.org/2000/svg"
   xmlns:svg="http://www.w3.org/2000/svg"
   xmlns:rdf="http://www.w3.org/1999/02/22-rdf-syntax-ns#"
   xmlns:cc="http://creativecommons.org/ns#"
   xmlns:dc="http://purl.org/dc/elements/1.1/">
  <defs
     id="defs27524">
    <linearGradient
       id="linearGradient8272-4">
      <stop
         id="stop8274-2"
         style="stop-color:#ffffff;stop-opacity:1"
         offset="0" />
      <stop
         id="stop8276-6"
         style="stop-color:#ffffff;stop-opacity:0.23529412"
         offset="0.0221225" />
      <stop
         id="stop8278-2"
         style="stop-color:#ffffff;stop-opacity:0.15686275"
         offset="0.97909725" />
      <stop
         id="stop8280-4"
         style="stop-color:#ffffff;stop-opacity:0.39215687"
         offset="1" />
    </linearGradient>
    <linearGradient
       id="linearGradient6129-963-697-142-998-580-273-3">
      <stop
         id="stop2661-9"
         style="stop-color:#0a0a0a;stop-opacity:0.498"
         offset="0" />
      <stop
         id="stop2663-0"
         style="stop-color:#0a0a0a;stop-opacity:0"
         offset="1" />
    </linearGradient>
    <linearGradient
       id="linearGradient5048-585-6">
      <stop
         id="stop2667-4"
         style="stop-color:#000000;stop-opacity:0"
         offset="0" />
      <stop
         id="stop2669-4"
         style="stop-color:#000000;stop-opacity:1"
         offset="0.5" />
      <stop
         id="stop2671-0"
         style="stop-color:#000000;stop-opacity:0"
         offset="1" />
    </linearGradient>
    <linearGradient
       id="linearGradient5060-179-6">
      <stop
         id="stop2675-0"
         style="stop-color:#000000;stop-opacity:1"
         offset="0" />
      <stop
         id="stop2677-6"
         style="stop-color:#000000;stop-opacity:0"
         offset="1" />
    </linearGradient>
    <linearGradient
       id="linearGradient3104-8-8-97-4-6-11-5-5-1-0-25">
      <stop
         id="stop3106-5-4-3-5-0-2-1-0-1-2-2"
         style="stop-color:#000000;stop-opacity:0.32173914"
         offset="0" />
      <stop
         id="stop3108-4-3-7-8-2-0-7-9-4-9-4"
         style="stop-color:#000000;stop-opacity:0.27826086"
         offset="1" />
    </linearGradient>
    <linearGradient
       id="linearGradient6404-7-5-4">
      <stop
         id="stop6406-1-8-7"
         style="stop-color:#f9f9f9;stop-opacity:1"
         offset="0" />
      <stop
         id="stop6408-9-6-30"
         style="stop-color:#c9c9c9;stop-opacity:1"
         offset="1" />
    </linearGradient>
    <linearGradient
       y2="15.564822"
       x2="63.296383"
       y1="13.66317"
       x1="63.288647"
       gradientTransform="matrix(2.7209303,0,0,2.6722576,-117.2202,-66.213873)"
       gradientUnits="userSpaceOnUse"
       id="linearGradient26390"
       xlink:href="#linearGradient6404-7-5-4" />
    <linearGradient
       xlink:href="#linearGradient1"
       id="linearGradient2"
       x1="104.93672"
       y1="-42.150738"
       x2="105.51221"
       y2="45.481049"
       gradientUnits="userSpaceOnUse"
       gradientTransform="translate(3e-6,-1.57e-4)" />
    <linearGradient
       id="linearGradient1">
      <stop
         style="stop-color:#ffffff;stop-opacity:1;"
         offset="0"
         id="stop1" />
      <stop
         style="stop-color:#ffffff;stop-opacity:0.23529412;"
         offset="0.11246381"
         id="stop3" />
      <stop
         style="stop-color:#ffffff;stop-opacity:0.15686275;"
         offset="0.96927357"
         id="stop4" />
      <stop
         style="stop-color:#ffffff;stop-opacity:0.39215687;"
         offset="1"
         id="stop2" />
    </linearGradient>
    <linearGradient
       xlink:href="#linearGradient5048-585-6"
       id="linearGradient5875"
       gradientUnits="userSpaceOnUse"
       gradientTransform="matrix(0.21479743,0,0,0.06641689,-13.645535,75.518568)"
       x1="302.85715"
       y1="366.64789"
       x2="302.85715"
       y2="609.50507" />
    <radialGradient
       xlink:href="#linearGradient5060-179-6"
       id="radialGradient5877"
       gradientUnits="userSpaceOnUse"
       gradientTransform="matrix(0.08010491,0,0,0.06641978,67.570544,75.516953)"
       cx="605.71429"
       cy="486.64789"
       fx="605.71429"
       fy="486.64789"
       r="117.14286" />
    <radialGradient
       xlink:href="#linearGradient5060-179-6"
       id="radialGradient5879"
       gradientUnits="userSpaceOnUse"
       gradientTransform="matrix(-0.0801049,0,0,0.06641979,60.40621,75.516946)"
       cx="605.71429"
       cy="486.64789"
       fx="605.71429"
       fy="486.64789"
       r="117.14286" />
    <linearGradient
       xlink:href="#linearGradient4632-0-6-4"
       id="linearGradient5883"
       gradientUnits="userSpaceOnUse"
       gradientTransform="matrix(1,0,0,1.0266674,147,-70.186593)"
       x1="-91"
       y1="43.999817"
       x2="-91"
       y2="119.05979" />
    <linearGradient
       id="linearGradient4632-0-6-4">
      <stop
         style="stop-color:#cdc9e3;stop-opacity:1;"
         offset="0"
         id="stop4634-4-4-7" />
      <stop
         style="stop-color:#9389cb;stop-opacity:1;"
         offset="1"
         id="stop4636-3-1-5" />
    </linearGradient>
    <linearGradient
       xlink:href="#linearGradient8272-4"
       id="linearGradient5891"
       gradientUnits="userSpaceOnUse"
       gradientTransform="matrix(2.6658408,0,0,2.7170994,-143.33283,-69.198823)"
       x1="97.685707"
       y1="17.001959"
       x2="97.566002"
       y2="44.160076" />
    <linearGradient
       xlink:href="#linearGradient3104-8-8-97-4-6-11-5-5-1-0-25"
       id="linearGradient3"
       gradientUnits="userSpaceOnUse"
       gradientTransform="matrix(2.1683519,0,0,2.2464645,141.9485,-68.590473)"
       x1="-51.786404"
       y1="53.514328"
       x2="-51.786404"
       y2="3.6336823" />
    <linearGradient
       xlink:href="#linearGradient6129-963-697-142-998-580-273-3"
       id="linearGradient4"
       gradientUnits="userSpaceOnUse"
       gradientTransform="matrix(3.036796,0,0,2.6909701,-8.8831134,-65.364613)"
       x1="22.934725"
       y1="49.629246"
       x2="22.934725"
       y2="36.599415" />
  </defs>
  <metadata
     id="metadata27527">
    <rdf:RDF>
      <cc:Work
         rdf:about="">
        <dc:format>image/svg+xml</dc:format>
        <dc:type
           rdf:resource="http://purl.org/dc/dcmitype/StillImage" />
        <dc:title />
      </cc:Work>
    </rdf:RDF>
  </metadata>
  <g
     id="layer1-6"
     transform="translate(0,64)"
     style="display:inline">
    <path
       d="m 13.662787,-43.499683 c -1.87818,0.0205 -3.16279,0.9143 -3.16279,2.67225 v 5.32743 c -0.9606004,0 -1.4771004,-0.003 -2.1044004,0 -1.67856,0.008 -2.8955966,0.94491 -2.8955966,2.83298 v 31.2565499 l 117,-14.1422999 -2e-5,-17.14209 c 0,-1.75796 -1.15786,-2.82564 -3.03605,-2.80514 H 57.499981 v -5.19887 c 0,-1.75795 -1.18743,-2.80081 -2.94827,-2.80081 z"
       id="path3468"
       style="color:#000000;display:inline;overflow:visible;visibility:visible;opacity:0.8;fill:none;stroke:url(#linearGradient3);stroke-width:1;stroke-linecap:butt;stroke-linejoin:miter;stroke-miterlimit:4;stroke-dasharray:none;stroke-dashoffset:0;stroke-opacity:1;marker:none;enable-background:accumulate" />
    <path
       style="color:#000000;display:inline;overflow:visible;visibility:visible;fill:url(#linearGradient26390);fill-opacity:1;fill-rule:nonzero;stroke:none;stroke-width:1;marker:none;enable-background:accumulate"
       d="m 12.999997,-43 c -1.108,0 -2,0.923407 -2,2.031407 v 5.96875 H 7.9999966 c -1.108,0 -2,0.892 -2,2 V -20 H 122 v -12.999843 c 0,-1.108 -0.892,-2 -2,-2 H 57.000001 V -41 c 0,-1.108 -0.892,-2 -2,-2 z"
       id="rect8678-4" />
    <path
       style="color:#000000;display:inline;overflow:visible;visibility:visible;fill:none;stroke:url(#linearGradient2);stroke-width:1;stroke-linecap:round;stroke-linejoin:round;stroke-miterlimit:4;stroke-dasharray:none;stroke-dashoffset:0;stroke-opacity:1;marker:none;enable-background:accumulate"
       d="m 13.5,-42.5 c -1.366985,0 -2,0.638691 -2,2 v 6 h -3 c -1.331087,0 -2,0.630475 -2,2 v 29.999843 h 115 V -32.5 c 0,-1.328448 -0.66378,-2 -2,-2 h -63 v -6 c 0,-1.324341 -0.67404,-2 -2,-2 z"
       id="rect8678-6" />
    <g
       transform="matrix(1.0027339,0,0,0.9919518,-0.16331336,-57.066403)"
       id="g2479"
       style="display:inline">
      <rect
         width="103.71645"
         height="16.129816"
         x="12.130151"
         y="99.870178"
         id="rect4173"
         style="display:inline;overflow:visible;visibility:visible;opacity:0.3;fill:url(#linearGradient5875);fill-opacity:1;fill-rule:nonzero;stroke:none;stroke-width:1;marker:none" />
      <path
         d="m 115.8466,99.870178 c 0,0 0,16.129622 0,16.129622 4.1252,0.0304 9.97274,-3.61382 9.97274,-8.06585 0,-4.45202 -4.60343,-8.063772 -9.97274,-8.063772 z"
         id="path5058"
         style="display:inline;overflow:visible;visibility:visible;opacity:0.3;fill:url(#radialGradient5877);fill-opacity:1;fill-rule:nonzero;stroke:none;stroke-width:1;marker:none" />
      <path
         d="m 12.130151,99.870176 c 0,0 0,16.129624 0,16.129624 -4.1252053,0.0304 -9.9727358,-3.61382 -9.9727358,-8.06585 0,-4.45202 4.6034169,-8.063774 9.9727358,-8.063774 z"
         id="path5018"
         style="display:inline;overflow:visible;visibility:visible;opacity:0.3;fill:url(#radialGradient5879);fill-opacity:1;fill-rule:nonzero;stroke:none;stroke-width:1;marker:none" />
    </g>
    <path
       d="M 6.2499966,-24.500053 121.74999,-24.5 c 1.66861,0 2.75001,1.184697 2.75001,2.656377 L 121.99,49.881 c -0.1808,2.059441 -1.82852,2.563167 -3.352,2.619 H 9.3616366 c -1.66859,0 -3.1662165,-0.701937 -3.35116,-2.619 l -2.51048,-71.724583 c 0,-1.47169 1.0814,-2.65647 2.75,-2.65647 z"
       id="path3369"
       style="display:inline;overflow:visible;visibility:visible;fill:url(#linearGradient5883);fill-opacity:1;fill-rule:nonzero;stroke:#000000;stroke-width:1;stroke-opacity:0.301961;marker:none;enable-background:accumulate" />
    <path
       style="display:inline;overflow:visible;visibility:visible;opacity:0.5;fill:none;stroke:url(#linearGradient5891);stroke-width:1;stroke-linecap:round;stroke-linejoin:round;stroke-miterlimit:4;stroke-dasharray:none;stroke-dashoffset:0;stroke-opacity:1;marker:none;enable-background:accumulate"
       d="M 6.3304988,-23.5 C 5.2795241,-23.4911 4.4216369,-22.927362 4.5,-21.535 l 2.488181,71.189 c 0.082361,1.363878 1.1256404,1.856812 2.6655148,1.850108 L 118.32442,51.5 c 1.58446,-0.02674 2.60203,-0.482204 2.69529,-1.814575 L 123.5,-21.535 c 0.0617,-1.382839 -0.73707,-1.962423 -1.83,-1.964843 z"
       id="path8263" />
    <path
       d="M 5.7727166,-25.000063 122.22726,-25 c 1.6824,0 2.77274,1.200057 2.77274,2.690867 L 122.44923,49.998 C 122.28687,52.074057 120.41735,53.002768 119.09,53 H 8.9100766 C 7.6501662,53.017431 5.7980522,52.092433 5.5239739,49.998 L 2.9999966,-22.309093 c 0,-1.4908 1.09034,-2.69097 2.77272,-2.69097 z"
       id="path6127"
       style="display:inline;opacity:0.4;fill:url(#linearGradient4);fill-opacity:1;stroke:none" />
  </g>
  <g
     transform="translate(0,64)"
     id="layer1"
     style="display:inline">
    <path
       d="m 61.377797,-4.9998431 c -0.7271,0 -1.3126,0.58537 -1.3126,1.31249 v 4.42968998 c -1.4402,0.36944002 -2.7694,0.98702002 -4.0195,1.72266002 l -3.1992,-3.19922002 c -0.514,-0.51414998 -1.2904,-0.51414998 -1.8047,0 l -3.7733,3.77345002 c -0.5143,0.51415 -0.5143,1.29052 0,1.80469 l 3.1989,3.19922 c -0.7355,1.2501 -1.3531,2.5793491 -1.7223,4.0195191 h -4.4297 c -0.7272,0 -1.3125,0.58539 -1.3125,1.31251 v 5.24999 c 0,0.72714 0.5853,1.3125 1.3125,1.3125 h 4.4297 c 0.3693,1.44018 0.9868,2.76944 1.7223,4.01954 l -3.1989,3.19921 c -0.5143,0.51416 -0.5143,1.29053 0,1.80469 l 3.7733,3.773441 c 0.5143,0.51417 1.2907,0.51417 1.8047,0 l 3.1992,-3.199231 c 1.2501,0.735641 2.5793,1.353221 4.0195,1.722671 v 4.42969 c 0,0.72711 0.5855,1.31249 1.3126,1.31249 h 5.2501 c 0.727,0 1.3123,-0.58538 1.3123,-1.31249 v -4.42969 c 1.4402,-0.36945 2.7695,-0.98703 4.0194,-1.722671 l 3.1995,3.199231 c 0.5142,0.51417 1.2906,0.51417 1.8047,0 l 3.7733,-3.773441 c 0.5143,-0.51416 0.5143,-1.29053 0,-1.80469 l -3.1993,-3.19921 c 0.7359,-1.2501 1.3533,-2.57936 1.7227,-4.01954 h 4.4298 c 0.7271,0 1.3126,-0.58536 1.3126,-1.3125 v -5.24999 c 0,-0.72712 -0.5855,-1.31251 -1.3126,-1.31251 h -4.4298 c -0.3694,-1.44017 -0.9867,-2.7694191 -1.7227,-4.0195191 l 3.1993,-3.19922 c 0.5143,-0.51417 0.5143,-1.29054 0,-1.80469 l -3.7733,-3.77345002 c -0.5141,-0.51414998 -1.2905,-0.51414998 -1.8047,0 l -3.1995,3.19922002 c -1.2499,-0.73564 -2.5792,-1.35322 -4.0194,-1.72266002 V -3.6873531 c 0,-0.72712 -0.5853,-1.31249 -1.3123,-1.31249 z m 2.6251,13.125 c 4.3491,0 7.875,3.5257791 7.875,7.8749991 0,4.34923 -3.5259,7.87501 -7.875,7.87501 -4.3494,0 -7.8751,-3.52578 -7.8751,-7.87501 0,-4.34922 3.5257,-7.8749991 7.8751,-7.8749991 z"
       id="path3575-5-8-4-7-7-5"
       style="color:#000000;display:inline;overflow:visible;visibility:visible;opacity:0.3;fill:#ffffff;fill-opacity:1;fill-rule:nonzero;stroke:none;stroke-width:1.7;marker:none;enable-background:accumulate" />
    <path
       d="m 61.377797,-5.9998431 c -0.7271,0 -1.3126,0.58537 -1.3126,1.31249 v 4.42968998 c -1.4402,0.36944 -2.7694,0.98702 -4.0195,1.72266002 l -3.1992,-3.19922 c -0.514,-0.51415 -1.2904,-0.51415 -1.8047,0 l -3.7733,3.77345 c -0.5143,0.51415 -0.5143,1.29052 0,1.80469 l 3.1989,3.19922 c -0.7355,1.2501 -1.3531,2.57935 -1.7223,4.0195191 h -4.4297 c -0.7272,0 -1.3125,0.58539 -1.3125,1.31251 v 5.24999 c 0,0.72714 0.5853,1.3125 1.3125,1.3125 h 4.4297 c 0.3693,1.44018 0.9868,2.76944 1.7223,4.01954 l -3.1989,3.19921 c -0.5143,0.51416 -0.5143,1.29053 0,1.80469 l 3.7733,3.773441 c 0.5143,0.51417 1.2907,0.51417 1.8047,0 l 3.1992,-3.199231 c 1.2501,0.73564 2.5793,1.35322 4.0195,1.722671 v 4.42969 c 0,0.72711 0.5855,1.31249 1.3126,1.31249 h 5.2501 c 0.727,0 1.3123,-0.58538 1.3123,-1.31249 v -4.42969 c 1.4402,-0.369451 2.7695,-0.987031 4.0194,-1.722671 l 3.1995,3.199231 c 0.5142,0.51417 1.2906,0.51417 1.8047,0 l 3.7733,-3.773441 c 0.5143,-0.51416 0.5143,-1.29053 0,-1.80469 l -3.1993,-3.19921 c 0.7359,-1.2501 1.3533,-2.57936 1.7227,-4.01954 h 4.4298 c 0.7271,0 1.3126,-0.58536 1.3126,-1.3125 v -5.24999 c 0,-0.72712 -0.5855,-1.31251 -1.3126,-1.31251 h -4.4298 c -0.3694,-1.4401691 -0.9867,-2.7694191 -1.7227,-4.0195191 l 3.1993,-3.19922 c 0.5143,-0.51417 0.5143,-1.29054 0,-1.80469 l -3.7733,-3.77345 c -0.5141,-0.51415 -1.2905,-0.51415 -1.8047,0 l -3.1995,3.19922 c -1.2499,-0.73564002 -2.5792,-1.35322002 -4.0194,-1.72266002 V -4.6873531 c 0,-0.72712 -0.5853,-1.31249 -1.3123,-1.31249 z m 2.6251,13.125 c 4.3491,0 7.875,3.5257791 7.875,7.8749991 0,4.34923 -3.5259,7.87501 -7.875,7.87501 -4.3494,0 -7.8751,-3.52578 -7.8751,-7.87501 0,-4.34922 3.5257,-7.8749991 7.8751,-7.8749991 z"
       id="path3575-5-8-4-7-7"
       style="color:#000000;display:inline;overflow:visible;visibility:visible;fill:#382a72;fill-opacity:0.552163;fill-rule:nonzero;stroke:none;stroke-width:1.7;marker:none;enable-background:accumulate" />
  </g>
</svg>
