<?xml version="1.0" encoding="UTF-8" standalone="no"?>
<svg
   height="16"
   width="16"
   version="1.1"
   id="svg1"
   xmlns="http://www.w3.org/2000/svg"
   xmlns:svg="http://www.w3.org/2000/svg">
  <defs
     id="defs1" />
  <g
     transform="translate(-1093,186.997)"
     id="g1">
    <path
       d="m 1101.18,-184.99 a 5.999,5.999 0 0 0 -4.424,1.754 0.5,0.5 0 1 0 0.707,0.707 4.994,4.994 0 0 1 6.035,-0.793 4.983,4.983 0 0 1 2.485,4.322 H 1104 l 2.5,3 2.5,-3 h -2.006 a 6,6 0 0 0 -2.996,-5.19 5.983,5.983 0 0 0 -2.818,-0.8 z m -5.68,2.99 -2.5,3 h 2.004 a 6.014,6.014 0 0 0 1.469,3.938 6.003,6.003 0 0 0 8.771,0.305 0.50027817,0.50027817 0 1 0 -0.707,-0.708 4.998,4.998 0 0 1 -6.037,0.795 4.985,4.985 0 0 1 -2.484,-4.33 H 1098 Z"
       fill="#666666"
       fill-rule="evenodd"
       id="path1" />
  </g>
</svg>
