<?xml version="1.0" encoding="UTF-8" standalone="no"?>
<svg
   height="16"
   width="16"
   version="1.1"
   id="svg1"
   xmlns="http://www.w3.org/2000/svg"
   xmlns:svg="http://www.w3.org/2000/svg">
  <defs
     id="defs1" />
  <g
     transform="translate(-1193,187)"
     id="g1">
    <path
       color="#000000"
       d="m 1205.5,-186 a 2.5,2.5 0 0 0 -2.5,2.5 2.5,2.5 0 0 0 0.051,0.482 l -4.846,2.694 a 2.5,2.5 0 0 0 -1.705,-0.676 2.5,2.5 0 0 0 -2.5,2.5 2.5,2.5 0 0 0 2.5,2.5 2.5,2.5 0 0 0 1.717,-0.684 l 4.834,2.688 a 2.5,2.5 0 0 0 -0.05,0.496 2.5,2.5 0 0 0 2.5,2.5 2.5,2.5 0 0 0 2.5,-2.5 2.5,2.5 0 0 0 -2.5,-2.5 2.5,2.5 0 0 0 -1.722,0.688 l -4.832,-2.688 a 2.5,2.5 0 0 0 0.053,-0.5 2.5,2.5 0 0 0 -0.057,-0.514 l 4.829,-2.683 a 2.5,2.5 0 0 0 1.728,0.697 2.5,2.5 0 0 0 2.5,-2.5 2.5,2.5 0 0 0 -2.5,-2.5 z"
       fill="#666666"
       fill-rule="evenodd"
       overflow="visible"
       style="isolation:auto;mix-blend-mode:normal"
       id="path1" />
  </g>
</svg>
