<?xml version="1.0" encoding="UTF-8" standalone="no"?>
<svg
   height="16"
   width="16"
   version="1.1"
   id="svg1"
   xmlns="http://www.w3.org/2000/svg"
   xmlns:svg="http://www.w3.org/2000/svg">
  <defs
     id="defs1" />
  <g
     transform="translate(-1053,187)"
     id="g1">
    <path
       d="m 1061,-186 a 7,7 0 1 0 0,14 7,7 0 0 0 0,-14 z m -0.094,1.969 A 1,1 0 0 1 1062,-183 v 5 a 1,1 0 1 1 -2,0 v -5 a 1,1 0 0 1 0.781,-1 1,1 0 0 1 0.125,-0.031 z M 1061,-176 a 1,1 0 1 1 0,2 1,1 0 0 1 0,-2 z"
       fill="#666666"
       id="path1" />
  </g>
</svg>
