<?xml version="1.0" encoding="UTF-8" standalone="no"?>
<svg
   height="16"
   width="16"
   version="1.1"
   id="svg1"
   xmlns="http://www.w3.org/2000/svg"
   xmlns:svg="http://www.w3.org/2000/svg">
  <defs
     id="defs1" />
  <g
     color="#bebebe"
     transform="translate(-1173.027,186.98)"
     id="g1"
     style="fill:#666666;fill-opacity:1">
    <path
       d="m 1186.4027,-186.98 -7.3754,1.90504 c -0.5543,0.14892 -1.0005,0.73962 -1.0005,1.31233 v 9.08941 c -0.6266,-0.32255 -1.354,-0.40092 -2.0352,-0.21989 -1.3507,0.35182 -2.1971,1.48425 -1.908,2.53072 0.2902,1.04647 1.6208,1.63117 2.9715,1.28035 1.0765,-0.27986 1.8529,-1.07046 1.9719,-1.90504 v -8.58965 l 7,-1.87405 v 6.77857 c -0.6263,-0.3223 -1.3507,-0.40066 -2.0316,-0.21989 -1.3507,0.35182 -2.1971,1.48425 -1.9079,2.53072 0.2901,1.04647 1.6208,1.63117 2.9704,1.28035 1.0776,-0.27986 1.851,-1.07046 1.9691,-1.90503 l -10e-5,-11.18135 c 0,-0.42978 -0.2651,-0.75162 -0.6253,-0.81259 z"
       fill="#666"
       overflow="visible"
       style="fill:#666666;stroke-width:0.999997;marker:none;fill-opacity:1"
       id="path1" />
  </g>
</svg>
