<?xml version="1.0" encoding="UTF-8" standalone="no"?>
<svg
   height="16"
   width="16"
   version="1.1"
   id="svg1"
   xmlns="http://www.w3.org/2000/svg"
   xmlns:svg="http://www.w3.org/2000/svg">
  <defs
     id="defs1" />
  <g
     transform="translate(-1133.025,186.98)"
     id="g1"
     style="fill:#666666;fill-opacity:1">
    <path
       color="#000000"
       d="m 1142.966,-186.977 c -0.066,0.008 -0.1295,0.0289 -0.187,0.062 l -5.063,2.9355 h 3.969 l 0.812,-0.469 0.282,0.469 h 2.28 l -1.593,-2.7475 c -0.1021,-0.17539 -0.2984,-0.27357 -0.5,-0.25 z m -6.941,3.97 -2.746,1.593 c -0.2411,0.13868 -0.3251,0.44598 -0.188,0.688 l 2.934,5.062 v -3.968 l -0.47,-0.813 0.47,-0.281 z m 1.5,0.027 c -0.277,0 -0.5,0.224 -0.5,0.5 v 11 c 0,0.278 0.223,0.5 0.5,0.5 h 11 c 0.277,0 0.5,-0.222 0.5,-0.5 v -11 c 0,-0.276 -0.223,-0.5 -0.5,-0.5 z m 1.5,2 h 8 v 7 h -8 z"
       fill="#666"
       overflow="visible"
       style="fill:#666666;marker:none;fill-opacity:1"
       id="path1" />
  </g>
</svg>
