<?xml version="1.0" encoding="UTF-8" standalone="no"?>
<svg
   height="16"
   width="16"
   version="1.1"
   id="svg1"
   xmlns="http://www.w3.org/2000/svg"
   xmlns:svg="http://www.w3.org/2000/svg">
  <defs
     id="defs1" />
  <path
     d="M 1.75,1 A 0.748,0.748 0 0 0 1,1.75 v 13.5 C 1,15.666 1.334,16 1.75,16 h 12.5 C 14.665,16 15,15.666 15,15.25 V 1.75 A 0.748,0.748 0 0 0 14.25,1 Z M 2,2 H 3 V 3 H 2 Z m 2.5,0 h 7 C 11.777,2 12,2.223 12,2.5 v 5 C 12,7.777 11.777,8 11.5,8 h -7 A 0.499,0.499 0 0 1 4,7.5 v -5 C 4,2.223 4.223,2 4.5,2 Z M 13,2 h 1 V 3 H 13 Z M 2,4 H 3 V 5 H 2 Z m 11,0 h 1 V 5 H 13 Z M 2,6 H 3 V 7 H 2 Z m 11,0 h 1 V 7 H 13 Z M 2,8 H 3 V 9 H 2 Z m 11,0 h 1 V 9 H 13 Z M 4.5,9 h 7 C 11.777,9 12,9.223 12,9.5 v 5 c 0,0.277 -0.223,0.5 -0.5,0.5 h -7 A 0.499,0.499 0 0 1 4,14.5 v -5 C 4,9.223 4.223,9 4.5,9 Z M 2,10 h 1 v 1 H 2 Z m 11,0 h 1 v 1 H 13 Z M 2,12 h 1 v 1 H 2 Z m 11,0 h 1 v 1 H 13 Z M 2,14 h 1 v 1 H 2 Z m 11,0 h 1 v 1 h -1 z"
     fill="#666666"
     overflow="visible"
     style="color:#bebebe;marker:none"
     id="path1" />
</svg>
