<?xml version="1.0" encoding="UTF-8" standalone="no"?>
<svg
   height="24"
   width="24"
   id="svg2"
   version="1.1"
   xmlns:xlink="http://www.w3.org/1999/xlink"
   xmlns="http://www.w3.org/2000/svg"
   xmlns:svg="http://www.w3.org/2000/svg"
   xmlns:rdf="http://www.w3.org/1999/02/22-rdf-syntax-ns#"
   xmlns:cc="http://creativecommons.org/ns#"
   xmlns:dc="http://purl.org/dc/elements/1.1/">
  <metadata
     id="metadata16">
    <rdf:RDF>
      <cc:Work
         rdf:about="">
        <dc:format>image/svg+xml</dc:format>
        <dc:type
           rdf:resource="http://purl.org/dc/dcmitype/StillImage" />
      </cc:Work>
    </rdf:RDF>
  </metadata>
  <defs
     id="defs14">
    <linearGradient
       id="linearGradient2">
      <stop
         style="stop-color:#000000;stop-opacity:1;"
         offset="0"
         id="stop2" />
      <stop
         style="stop-color:#363636;stop-opacity:1;"
         offset="1"
         id="stop3" />
    </linearGradient>
    <linearGradient
       xlink:href="#linearGradient3587-6-5"
       id="linearGradient2390"
       gradientUnits="userSpaceOnUse"
       gradientTransform="matrix(0,0.7805424,-0.73368357,0,29.208492,-36.746105)"
       x1="50.925655"
       y1="11.648451"
       x2="73.986542"
       y2="11.648451" />
    <linearGradient
       id="linearGradient3587-6-5">
      <stop
         id="stop3589-9-2"
         style="stop-color:#000000;stop-opacity:1"
         offset="0" />
      <stop
         id="stop3591-7-4"
         style="stop-color:#363636;stop-opacity:1"
         offset="1" />
    </linearGradient>
    <linearGradient
       xlink:href="#linearGradient3587-6-5"
       id="linearGradient1"
       gradientUnits="userSpaceOnUse"
       gradientTransform="translate(-1.000183,0.0035288)"
       x1="9"
       y1="3"
       x2="9"
       y2="21" />
    <linearGradient
       xlink:href="#linearGradient2"
       id="linearGradient3"
       x1="10.610237"
       y1="13.43503"
       x2="-3.5391693"
       y2="27.577166"
       gradientUnits="userSpaceOnUse" />
  </defs>
  <path
     style="display:inline;overflow:visible;visibility:visible;opacity:0.24;fill:none;stroke:#ffffff;stroke-width:1.7;stroke-linecap:butt;stroke-linejoin:miter;stroke-miterlimit:4;stroke-dasharray:none;stroke-dashoffset:0;stroke-opacity:1;marker:none;enable-background:accumulate"
     id="path3209-0"
     d="m 17.63271,5.8535288 c 0,0 2.517107,2.422712 2.517107,7.6349152 0,5.18658 -2.521378,7.665085 -2.521378,7.665085 M 14.767673,8.0990048 c 0,0 1.777264,1.744801 1.714032,5.4045242 -0.06376,3.690079 -1.742577,5.404524 -1.742577,5.404524 m -2.889311,-8.682665 c 0,0 0.947187,0.794985 0.971329,3.230647 0.02385,2.405297 -0.971329,3.325635 -0.971329,3.325635" />
  <path
     style="display:inline;opacity:0.24;fill:#ffffff;fill-opacity:1;fill-rule:evenodd;stroke:none"
     id="path2387-4-5"
     d="m 2.999817,11.003529 v 5 h 2 l 4,4 V 7.0035288 l -4,4.0000002 z" />
  <path
     style="display:inline;opacity:0.32;fill:url(#linearGradient1);fill-opacity:1;fill-rule:evenodd;stroke:none"
     id="path2387-3"
     d="m 2.999817,10.003529 v 5 h 2 l 4,4 V 6.0035288 l -4,4.0000002 z" />
  <path
     style="display:inline;overflow:visible;visibility:visible;opacity:0.32;fill:none;stroke:url(#linearGradient2390);stroke-width:1.7;stroke-linecap:butt;stroke-linejoin:miter;stroke-miterlimit:4;stroke-dasharray:none;stroke-dashoffset:0;stroke-opacity:1;marker:none;enable-background:accumulate"
     id="path3209"
     d="m 17.63271,4.8535288 c 0,0 2.517107,2.422712 2.517107,7.6349152 0,5.18658 -2.521378,7.665085 -2.521378,7.665085 M 14.767673,7.0990048 c 0,0 1.777264,1.744801 1.714032,5.4045242 -0.06376,3.690079 -1.742577,5.404524 -1.742577,5.404524 M 11.849817,9.2253878 c 0,0 0.947187,0.7949852 0.971329,3.2306472 0.02385,2.405297 -0.971329,3.325635 -0.971329,3.325635" />
  <rect
     style="font-variation-settings:normal;opacity:0.6;vector-effect:none;fill:#ffffff;fill-opacity:1;stroke:none;stroke-width:1;stroke-linecap:round;stroke-linejoin:round;stroke-miterlimit:4;stroke-dasharray:none;stroke-dashoffset:0;stroke-opacity:1;-inkscape-stroke:none;paint-order:markers fill stroke;stop-color:#000000;stop-opacity:1"
     id="rect1197"
     width="2"
     height="26"
     x="-1.8484881"
     y="4.8190508"
     rx="0.13440861"
     ry="0.13440861"
     transform="rotate(-45)" />
  <rect
     style="font-variation-settings:normal;opacity:0.7;vector-effect:none;fill:url(#linearGradient3);fill-opacity:0.993615;stroke:none;stroke-width:1;stroke-linecap:round;stroke-linejoin:round;stroke-miterlimit:4;stroke-dasharray:none;stroke-dashoffset:0;stroke-opacity:1;-inkscape-stroke:none;paint-order:markers fill stroke;stop-color:#000000;stop-opacity:1"
     id="rect3"
     width="2"
     height="26"
     x="-1"
     y="3.9705627"
     rx="0.13440861"
     ry="0.13440861"
     transform="rotate(-45)" />
</svg>
