<?xml version="1.0" encoding="UTF-8" standalone="no"?>
<svg
   id="svg3215"
   height="24"
   width="24"
   version="1.0"
   xmlns:xlink="http://www.w3.org/1999/xlink"
   xmlns="http://www.w3.org/2000/svg"
   xmlns:svg="http://www.w3.org/2000/svg"
   xmlns:rdf="http://www.w3.org/1999/02/22-rdf-syntax-ns#"
   xmlns:cc="http://creativecommons.org/ns#"
   xmlns:dc="http://purl.org/dc/elements/1.1/">
  <defs
     id="defs8">
    <linearGradient
       x1="45.52272"
       y1="0.94087785"
       x2="45.52272"
       y2="34.003155"
       id="linearGradient2390"
       xlink:href="#linearGradient3587-6-5-3"
       gradientUnits="userSpaceOnUse"
       gradientTransform="matrix(0.4101105,0,0,0.5452071,-12.350926,1.4870267)" />
    <linearGradient
       id="linearGradient3587-6-5-3">
      <stop
         id="stop3589-9-2-2"
         style="stop-color:#000000;stop-opacity:1"
         offset="0" />
      <stop
         id="stop3591-7-4-73"
         style="stop-color:#363636;stop-opacity:1"
         offset="1" />
    </linearGradient>
  </defs>
  <metadata
     id="metadata12">
    <rdf:RDF>
      <cc:Work
         rdf:about="">
        <dc:format>image/svg+xml</dc:format>
        <dc:type
           rdf:resource="http://purl.org/dc/dcmitype/StillImage" />
        <dc:title />
      </cc:Work>
    </rdf:RDF>
  </metadata>
  <g
     id="layer1"
     transform="translate(3,1)">
    <path
       d="m 8,4.21875 c 0.844149,0.030316 1.701715,-0.073098 2.534088,0.079066 0.905603,0.2439946 1.347367,1.2115035 1.247162,2.088098 0,0.7984452 0,1.5968903 0,2.3953355 -1.854167,0 -3.708333,0 -5.5625,0 C 6.2375632,7.7338132 6.1780822,6.6814969 6.2544528,5.6376154 6.4025451,4.8224285 7.173141,4.2011802 8,4.21875 Z"
       id="path3337"
       style="opacity:0.3;fill:none;stroke:#000000;stroke-width:0.5;stroke-miterlimit:4;stroke-dasharray:none;stroke-opacity:1" />
    <path
       d="M 8,3 C 5.784,3 4,4.784 4,7 v 3 H 3 c -0.554,0 -1,0.446 -1,1 v 9 c 0,0.554 0.446,1 1,1 h 12 c 0.554,0 1,-0.446 1,-1 v -9 c 0,-0.554 -0.446,-1 -1,-1 H 14 V 7 C 14,4.784 12.216,3 10,3 Z m 0,2 h 2 c 1.108,0 2,0.892 2,2 v 3 H 6 V 7 C 6,5.892 6.892,5 8,5 Z"
       id="path2416"
       style="display:inline;overflow:visible;visibility:visible;opacity:0.6;fill:#ffffff;fill-opacity:1;fill-rule:nonzero;stroke:none;stroke-width:1;marker:none;enable-background:accumulate" />
    <path
       d="M 8,2 C 5.784,2 4,3.784 4,6 V 9 H 3 C 2.446,9 2,9.446 2,10 v 9 c 0,0.554 0.446,1 1,1 h 12 c 0.554,0 1,-0.446 1,-1 V 10 C 16,9.446 15.554,9 15,9 H 14 V 6 C 14,3.784 12.216,2 10,2 Z m 0,2 h 2 c 1.108,0 2,0.892 2,2 V 9 H 6 V 6 C 6,4.892 6.892,4 8,4 Z"
       id="rect2822"
       style="display:inline;overflow:visible;visibility:visible;opacity:0.7;fill:url(#linearGradient2390);fill-opacity:1;fill-rule:nonzero;stroke:none;stroke-width:1;marker:none;enable-background:accumulate" />
  </g>
</svg>
