<?xml version="1.0" encoding="UTF-8" standalone="no"?>
<svg
   version="1.1"
   id="svg18157"
   height="96"
   width="96"
   xmlns:xlink="http://www.w3.org/1999/xlink"
   xmlns="http://www.w3.org/2000/svg"
   xmlns:svg="http://www.w3.org/2000/svg"
   xmlns:rdf="http://www.w3.org/1999/02/22-rdf-syntax-ns#"
   xmlns:cc="http://creativecommons.org/ns#"
   xmlns:dc="http://purl.org/dc/elements/1.1/">
  <defs
     id="defs18159">
    <linearGradient
       id="linearGradient5060-820-91-9-0">
      <stop
         offset="0"
         style="stop-color:#000000;stop-opacity:1"
         id="stop2681-778-5-1" />
      <stop
         offset="1"
         style="stop-color:#000000;stop-opacity:0"
         id="stop2683-2-86-2" />
    </linearGradient>
    <linearGradient
       id="linearGradient5048-585-73-1-5">
      <stop
         offset="0"
         style="stop-color:#000000;stop-opacity:0"
         id="stop2667-99-4-6" />
      <stop
         offset="0.5"
         style="stop-color:#000000;stop-opacity:1"
         id="stop2669-5-9-4" />
      <stop
         offset="1"
         style="stop-color:#000000;stop-opacity:0"
         id="stop2671-56-4-2" />
    </linearGradient>
    <linearGradient
       xlink:href="#linearGradient6404-7-5"
       id="linearGradient27222"
       gradientUnits="userSpaceOnUse"
       gradientTransform="matrix(2.0187548,0,0,1.9826428,-86.453709,-48.481497)"
       x1="62.988873"
       y1="14.090554"
       x2="62.988873"
       y2="16.997795" />
    <linearGradient
       id="linearGradient6404-7-5">
      <stop
         offset="0"
         style="stop-color:#f9f9f9;stop-opacity:1"
         id="stop6406-1-8" />
      <stop
         offset="1"
         style="stop-color:#c9c9c9;stop-opacity:1"
         id="stop6408-9-6" />
    </linearGradient>
    <linearGradient
       y2="3.6336823"
       x2="-51.786404"
       y1="53.514328"
       x1="-51.786404"
       gradientTransform="matrix(1.6087773,0,0,1.6667318,105.83276,-50.244781)"
       gradientUnits="userSpaceOnUse"
       id="linearGradient22230"
       xlink:href="#linearGradient3104-8-8-97-4-6-11-5-5-1-0" />
    <linearGradient
       id="linearGradient3104-8-8-97-4-6-11-5-5-1-0">
      <stop
         id="stop3106-5-4-3-5-0-2-1-0-1-2"
         style="stop-color:#000000;stop-opacity:0.32173914"
         offset="0" />
      <stop
         id="stop3108-4-3-7-8-2-0-7-9-4-9"
         style="stop-color:#000000;stop-opacity:0.27826086"
         offset="1" />
    </linearGradient>
    <linearGradient
       y2="44.260689"
       x2="97.538795"
       y1="8.8103228"
       x1="97.538795"
       gradientTransform="matrix(1.977882,0,0,1.963835,-105.8276,-48.359552)"
       gradientUnits="userSpaceOnUse"
       id="linearGradient22234"
       xlink:href="#linearGradient9235" />
    <linearGradient
       id="linearGradient9235">
      <stop
         offset="0"
         style="stop-color:#ffffff;stop-opacity:1"
         id="stop9237" />
      <stop
         offset="0.1088333"
         style="stop-color:#ffffff;stop-opacity:0.23529412"
         id="stop9239" />
      <stop
         offset="0.97909725"
         style="stop-color:#ffffff;stop-opacity:0.15686275"
         id="stop9241" />
      <stop
         offset="1"
         style="stop-color:#ffffff;stop-opacity:0.39215687"
         id="stop9243" />
    </linearGradient>
    <linearGradient
       y2="609.50507"
       x2="302.85715"
       y1="366.64789"
       x1="302.85715"
       gradientTransform="matrix(0.2134205,0,0,0.06641689,-13.147881,75.518568)"
       gradientUnits="userSpaceOnUse"
       id="linearGradient22244"
       xlink:href="#linearGradient5048-585-73-1-5" />
    <radialGradient
       r="117.14286"
       fy="486.64789"
       fx="605.71429"
       cy="486.64789"
       cx="605.71429"
       gradientTransform="matrix(0.08277507,0,0,0.06641689,65.628912,75.518568)"
       gradientUnits="userSpaceOnUse"
       id="radialGradient22246"
       xlink:href="#linearGradient5060-820-91-9-0" />
    <radialGradient
       r="117.14286"
       fy="486.64789"
       fx="605.71429"
       cy="486.64789"
       cx="605.71429"
       gradientTransform="matrix(-0.08277505,0,0,0.06641689,62.347829,75.518568)"
       gradientUnits="userSpaceOnUse"
       id="radialGradient22248"
       xlink:href="#linearGradient5060-820-91-9-0" />
    <linearGradient
       y2="119.05979"
       x2="-91"
       y1="43.999817"
       x1="-91"
       gradientTransform="matrix(0.74193552,0,0,0.76172101,109.58065,-51.428999)"
       gradientUnits="userSpaceOnUse"
       id="linearGradient22252"
       xlink:href="#linearGradient4632-0-6-4" />
    <linearGradient
       id="linearGradient4632-0-6-4">
      <stop
         id="stop4634-4-4-7"
         offset="0"
         style="stop-color:#b4cee1;stop-opacity:1;" />
      <stop
         id="stop4636-3-1-5"
         offset="1"
         style="stop-color:#5d9fcd;stop-opacity:1;" />
    </linearGradient>
    <linearGradient
       y2="36.599415"
       x2="22.934725"
       y1="49.629246"
       x1="22.934725"
       gradientTransform="matrix(2.2531068,0,0,1.9965263,-6.0745684,-47.8514)"
       gradientUnits="userSpaceOnUse"
       id="linearGradient22256"
       xlink:href="#linearGradient6129-963-697-142-998-580-273" />
    <linearGradient
       id="linearGradient6129-963-697-142-998-580-273">
      <stop
         offset="0"
         style="stop-color:#0a0a0a;stop-opacity:0.498"
         id="stop2661" />
      <stop
         offset="1"
         style="stop-color:#0a0a0a;stop-opacity:0"
         id="stop2663" />
    </linearGradient>
    <linearGradient
       y2="44.260689"
       x2="97.538795"
       y1="16.962049"
       x1="97.538795"
       gradientTransform="matrix(1.977882,0,0,2.0159126,-105.8276,-50.696137)"
       gradientUnits="userSpaceOnUse"
       id="linearGradient22260"
       xlink:href="#linearGradient8272" />
    <linearGradient
       id="linearGradient8272">
      <stop
         id="stop8274"
         style="stop-color:#ffffff;stop-opacity:1"
         offset="0" />
      <stop
         id="stop8276"
         style="stop-color:#ffffff;stop-opacity:0.23529412"
         offset="0.0221225" />
      <stop
         id="stop8278"
         style="stop-color:#ffffff;stop-opacity:0.15686275"
         offset="0.97909725" />
      <stop
         id="stop8280"
         style="stop-color:#ffffff;stop-opacity:0.39215687"
         offset="1" />
    </linearGradient>
  </defs>
  <metadata
     id="metadata18162">
    <rdf:RDF>
      <cc:Work
         rdf:about="">
        <dc:format>image/svg+xml</dc:format>
        <dc:type
           rdf:resource="http://purl.org/dc/dcmitype/StillImage" />
      </cc:Work>
    </rdf:RDF>
  </metadata>
  <g
     transform="translate(0,47)"
     id="g15726">
    <path
       style="color:#000000;display:inline;overflow:visible;visibility:visible;fill:url(#linearGradient27222);fill-opacity:1;fill-rule:nonzero;stroke:none;stroke-width:0.741935;marker:none;enable-background:accumulate"
       d="m 10.161288,-31.234998 c -0.8220641,0 -1.4838705,0.661807 -1.4838705,1.483871 v 4.428428 H 6.4516106 c -0.8220646,0 -1.483871,0.661806 -1.483871,1.483871 v 8.161291 c 0,0.822064 0.6618064,1.483871 1.483871,1.483871 H 89.548391 c 0.822065,0 1.483871,-0.661807 1.483871,-1.483871 v -8.161291 c 0,-0.822065 -0.661806,-1.483871 -1.483871,-1.483871 H 42.806452 v -4.428428 c 0,-0.822064 -0.661806,-1.483871 -1.483871,-1.483871 z"
       id="use12083" />
    <path
       d="m 10.653036,-31.629032 c -1.3934885,0.01521 -2.3465863,0.678351 -2.3465863,1.982637 v 3.952609 c -0.7127036,0 -1.0959133,-0.0022 -1.5613294,0 -1.2453833,0.0059 -2.1350085,0.701063 -2.1350085,2.101889 0.069445,20.4014831 -0.013355,21.4582145 -0.013355,23.19034456 2.8978591,0 86.8064582,-7.33524936 86.8064582,-10.49267456 v -12.718326 c 0,-1.304292 -0.859057,-2.096442 -2.252553,-2.081233 H 43.177405 v -3.857226 c 0,-1.304285 -0.880996,-2.07802 -2.187426,-2.07802 H 10.653021 Z"
       id="use12085"
       style="color:#000000;display:inline;overflow:visible;visibility:visible;opacity:0.8;fill:none;stroke:url(#linearGradient22230);stroke-width:0.741935;stroke-linecap:butt;stroke-linejoin:miter;stroke-miterlimit:4;stroke-dasharray:none;stroke-dashoffset:0;stroke-opacity:1;marker:none;enable-background:accumulate" />
    <path
       style="color:#000000;display:inline;overflow:visible;visibility:visible;fill:none;stroke:url(#linearGradient22234);stroke-width:0.741935;stroke-linecap:round;stroke-linejoin:round;stroke-miterlimit:4;stroke-dasharray:none;stroke-dashoffset:0;stroke-opacity:1;marker:none;enable-background:accumulate"
       d="m 10.532256,-30.887215 c -0.8220643,0 -1.4838708,0.661806 -1.4838708,1.483871 v 4.451613 H 6.8225784 c -0.8220646,0 -1.4838711,0.661806 -1.4838711,1.483871 v 8.16129 c 0,0.822065 0.6618065,1.483871 1.4838711,1.483871 H 89.177424 c 0.822064,0 1.483871,-0.661806 1.483871,-1.483871 v -8.16129 c 0,-0.822065 -0.661807,-1.483871 -1.483871,-1.483871 h -46.74194 v -4.451613 c 0,-0.822065 -0.661806,-1.483871 -1.483871,-1.483871 z"
       id="use12087" />
    <g
       transform="matrix(0.7439639,0,0,0.73596427,0.39496098,-41.694664)"
       id="use12089">
      <rect
         width="103.05159"
         height="16.129816"
         x="12.462574"
         y="99.870178"
         id="rect22238"
         style="display:inline;overflow:visible;visibility:visible;opacity:0.3;fill:url(#linearGradient22244);fill-opacity:1;fill-rule:nonzero;stroke:none;stroke-width:1;marker:none" />
      <path
         d="m 115.51417,99.870734 c 0,0 0,16.128926 0,16.128926 4.26271,0.0304 10.30516,-3.61367 10.30516,-8.0655 0,-4.45183 -4.75687,-8.063426 -10.30516,-8.063426 z"
         id="path22240"
         style="display:inline;overflow:visible;visibility:visible;opacity:0.3;fill:url(#radialGradient22246);fill-opacity:1;fill-rule:nonzero;stroke:none;stroke-width:1;marker:none" />
      <path
         d="m 12.462574,99.870734 c 0,0 0,16.128926 0,16.128926 -4.2627113,0.0304 -10.3051588,-3.61367 -10.3051588,-8.0655 0,-4.45183 4.7568636,-8.063426 10.3051588,-8.063426 z"
         id="path22242"
         style="display:inline;overflow:visible;visibility:visible;opacity:0.3;fill:url(#radialGradient22248);fill-opacity:1;fill-rule:nonzero;stroke:none;stroke-width:1;marker:none" />
    </g>
    <path
       d="m 5.1532234,-17.532532 85.6935476,7.42e-4 c 1.238001,0 2.04033,0.878266 2.04033,1.970158 l -2.015453,53.256636 c 0.02864,1.381566 -0.408176,1.929359 -1.846559,1.900386 L 7.4618597,39.560742 c -1.2379862,0 -2.4863447,-0.81535 -2.4863447,-1.907249 L 3.1129008,-15.561602 c 0,-1.0919 0.802329,-1.97093 2.0403226,-1.97093 z"
       id="use12091"
       style="display:inline;overflow:visible;visibility:visible;fill:url(#linearGradient22252);fill-opacity:1;fill-rule:nonzero;stroke:none;stroke-width:0.741935;marker:none;enable-background:accumulate" />
    <path
       d="m 4.7991125,-17.903507 86.4017625,7.42e-4 c 1.248232,0 2.057194,0.88967 2.057194,1.995754 L 91.22596,38.041273 c 0.02886,1.399505 -0.411552,1.954414 -1.861821,1.925063 L 7.1268313,39.931168 c -1.2482175,0 -2.5068889,-0.825945 -2.5068889,-1.93203 L 2.741933,-15.906981 c 0,-1.106077 0.808962,-1.996526 2.0571795,-1.996526 z"
       id="use12093"
       style="opacity:0.4;fill:url(#linearGradient22256);fill-opacity:1;stroke:none;stroke-width:0.741935" />
    <path
       style="display:inline;overflow:visible;visibility:visible;opacity:0.5;fill:none;stroke:url(#linearGradient22260);stroke-width:0.741935;stroke-linecap:round;stroke-linejoin:round;stroke-miterlimit:4;stroke-dasharray:none;stroke-dashoffset:0;stroke-opacity:1;marker:none;enable-background:accumulate"
       d="m 5.1532234,-16.790448 c -2.1136407,0.220028 -1.0456319,2.794789 -1.2166926,4.243997 0.5830426,16.7291252 1.1682962,33.458198 1.7499588,50.187346 0.8819239,1.847226 3.2868414,0.951198 4.9252054,1.168051 26.142203,0.01521 52.284412,0.03057 78.426616,0.04578 1.903806,-0.122649 0.858575,-2.832732 1.226842,-4.196053 0.634095,-16.745106 1.886683,-50.133585 1.886683,-50.133585 0,-0.862196 -0.578651,-1.315526 -1.637734,-1.315526 -27.517878,0 -57.843001,0 -85.3608786,0 z"
       id="use12095" />
    <g
       transform="matrix(2.2258066,0,0,2.2258066,30.193548,-5.2904401)"
       style="color:#000000;display:inline;overflow:visible;visibility:visible;opacity:0.3;fill:#ffffff;fill-opacity:1;fill-rule:nonzero;stroke:none;stroke-width:1.7;marker:none;enable-background:accumulate"
       id="g12587-31-2-0-6">
      <path
         d="M 8,0 C 3.5817219,0 0,3.5817221 0,8 c 0,4.418278 3.5817219,8 8,8 4.418278,0 8,-3.581722 8,-8 C 16,3.5817221 12.418278,0 8,0 Z m 0,2 c 3.313708,0 6,2.6862915 6,6 0,3.313708 -2.686292,6 -6,6 C 4.6862915,14 2,11.313708 2,8 2,4.6862915 4.6862915,2 8,2 Z"
         id="path2991-3-3-6-2"
         style="color:#000000;display:inline;overflow:visible;visibility:visible;fill:#ffffff;fill-opacity:1;fill-rule:nonzero;stroke:none;stroke-width:1.7;marker:none;enable-background:accumulate" />
      <path
         d="M 7,4 V 8 H 4 l 4,4 4,-4 H 9 V 4 Z"
         id="rect3005-5-8-6-7-9"
         style="color:#000000;display:inline;overflow:visible;visibility:visible;fill:#ffffff;fill-opacity:1;fill-rule:nonzero;stroke:none;stroke-width:1.7;marker:none;enable-background:accumulate" />
    </g>
    <g
       transform="matrix(2.2258066,0,0,2.2258066,30.193548,-6.0325537)"
       style="color:#000000;display:inline;overflow:visible;visibility:visible;fill:#175785;fill-opacity:0.552163;fill-rule:nonzero;stroke:none;stroke-width:1.7;marker:none;enable-background:accumulate"
       id="g12587-31-2-0">
      <path
         d="M 8,0 C 3.5817219,0 0,3.5817221 0,8 c 0,4.418278 3.5817219,8 8,8 4.418278,0 8,-3.581722 8,-8 C 16,3.5817221 12.418278,0 8,0 Z m 0,2 c 3.313708,0 6,2.6862915 6,6 0,3.313708 -2.686292,6 -6,6 C 4.6862915,14 2,11.313708 2,8 2,4.6862915 4.6862915,2 8,2 Z"
         id="path2991-3-3-6"
         style="color:#000000;display:inline;overflow:visible;visibility:visible;fill:#175785;fill-opacity:0.552163;fill-rule:nonzero;stroke:none;stroke-width:1.7;marker:none;enable-background:accumulate" />
      <path
         d="M 7,4 V 8 H 4 l 4,4 4,-4 H 9 V 4 Z"
         id="rect3005-5-8-6-7"
         style="color:#000000;display:inline;overflow:visible;visibility:visible;fill:#175785;fill-opacity:0.552163;fill-rule:nonzero;stroke:none;stroke-width:1.7;marker:none;enable-background:accumulate" />
      <path
         d="M 8,0 C 3.5817219,0 0,3.5817221 0,8 c 0,4.418278 3.5817219,8 8,8 4.418278,0 8,-3.581722 8,-8 C 16,3.5817221 12.418278,0 8,0 Z m 0,2 c 3.313708,0 6,2.6862915 6,6 0,3.313708 -2.686292,6 -6,6 C 4.6862915,14 2,11.313708 2,8 2,4.6862915 4.6862915,2 8,2 Z"
         id="path167"
         style="color:#000000;display:inline;overflow:visible;visibility:visible;fill:#175785;fill-opacity:0.552163;fill-rule:nonzero;stroke:none;stroke-width:1.7;marker:none;enable-background:accumulate" />
      <path
         d="M 7,4 V 8 H 4 l 4,4 4,-4 H 9 V 4 Z"
         id="path169"
         style="color:#000000;display:inline;overflow:visible;visibility:visible;fill:#175785;fill-opacity:0.552163;fill-rule:nonzero;stroke:none;stroke-width:1.7;marker:none;enable-background:accumulate" />
    </g>
    <path
       style="display:inline;overflow:visible;visibility:visible;opacity:0.3;fill:none;stroke:#000000;stroke-width:0.741935;stroke-linecap:round;stroke-linejoin:round;stroke-miterlimit:4;stroke-dasharray:none;stroke-dashoffset:0;stroke-opacity:1;marker:none;enable-background:accumulate"
       id="path3369-7-2"
       d="m 5.1532234,-17.532532 85.6935476,7.42e-4 c 1.238001,0 2.04033,0.878266 2.04033,1.970158 l -2.015453,53.256636 c 0.02864,1.381566 -0.408176,1.929359 -1.846559,1.900386 L 7.4618597,39.560742 c -1.2379862,0 -2.4863447,-0.81535 -2.4863447,-1.907249 L 3.1129008,-15.561602 c 0,-1.0919 0.802329,-1.97093 2.0403226,-1.97093 z" />
  </g>
</svg>
