<?xml version="1.0" encoding="UTF-8" standalone="no"?>
<svg
   version="1.1"
   id="svg18157"
   height="96"
   width="96"
   xmlns:xlink="http://www.w3.org/1999/xlink"
   xmlns="http://www.w3.org/2000/svg"
   xmlns:svg="http://www.w3.org/2000/svg"
   xmlns:rdf="http://www.w3.org/1999/02/22-rdf-syntax-ns#"
   xmlns:cc="http://creativecommons.org/ns#"
   xmlns:dc="http://purl.org/dc/elements/1.1/">
  <defs
     id="defs18159">
    <linearGradient
       id="linearGradient5060-820-91-9-0">
      <stop
         offset="0"
         style="stop-color:#000000;stop-opacity:1"
         id="stop2681-778-5-1" />
      <stop
         offset="1"
         style="stop-color:#000000;stop-opacity:0"
         id="stop2683-2-86-2" />
    </linearGradient>
    <linearGradient
       id="linearGradient5048-585-73-1-5">
      <stop
         offset="0"
         style="stop-color:#000000;stop-opacity:0"
         id="stop2667-99-4-6" />
      <stop
         offset="0.5"
         style="stop-color:#000000;stop-opacity:1"
         id="stop2669-5-9-4" />
      <stop
         offset="1"
         style="stop-color:#000000;stop-opacity:0"
         id="stop2671-56-4-2" />
    </linearGradient>
    <linearGradient
       id="linearGradient4646-7-4-3">
      <stop
         id="stop4648-8-0-3"
         style="stop-color:#f9f9f9;stop-opacity:1"
         offset="0" />
      <stop
         id="stop4650-1-7-3"
         style="stop-color:#d8d8d8;stop-opacity:1"
         offset="1" />
    </linearGradient>
    <linearGradient
       y2="21.215551"
       y1="19.663828"
       x2="63.412205"
       x1="63.412205"
       id="linearGradient2443"
       xlink:href="#linearGradient4646-7-4-3"
       gradientUnits="userSpaceOnUse"
       gradientTransform="matrix(2.7619048,0,0,2.7619048,137.02045,83.355707)" />
    <linearGradient
       y2="609.50507"
       y1="366.64789"
       x2="302.85715"
       x1="302.85715"
       id="linearGradient2445"
       xlink:href="#linearGradient5048-585-73-1-5"
       gradientUnits="userSpaceOnUse"
       gradientTransform="matrix(0.21400397,0,0,0.06588235,266.65286,168.99436)" />
    <radialGradient
       r="117.14286"
       id="radialGradient2447"
       xlink:href="#linearGradient5060-820-91-9-0"
       gradientUnits="userSpaceOnUse"
       gradientTransform="matrix(0.08300137,0,0,0.06588235,345.64502,168.99436)"
       fy="486.64789"
       fx="605.71429"
       cy="486.64789"
       cx="605.71429" />
    <radialGradient
       r="117.14286"
       id="radialGradient2449"
       xlink:href="#linearGradient5060-820-91-9-0"
       gradientUnits="userSpaceOnUse"
       gradientTransform="matrix(-0.08300135,0,0,0.06588235,342.35497,168.99436)"
       fy="486.64789"
       fx="605.71429"
       cy="486.64789"
       cx="605.71429" />
    <linearGradient
       y2="43.430573"
       y1="-8.291666"
       x2="36.413651"
       x1="36.413651"
       id="linearGradient2451"
       xlink:href="#4632"
       gradientUnits="userSpaceOnUse"
       gradientTransform="matrix(1.2888812,0,0,1.0827001,283.06692,154.97773)" />
    <linearGradient
       id="4632">
      <stop
         style="stop-color:#b4cee1;stop-opacity:1"
         offset="0"
         id="stop4634-4-4-7-7-4" />
      <stop
         style="stop-color:#5d9fcd;stop-opacity:1"
         offset="1"
         id="stop4636-3-1-5-1-3" />
    </linearGradient>
    <linearGradient
       y2="22.380869"
       y1="-11.032269"
       x2="27.3354"
       x1="27.3354"
       id="linearGradient2453"
       xlink:href="#34542"
       gradientUnits="userSpaceOnUse"
       gradientTransform="matrix(1.7837124,0,0,1.7358442,288.24151,163.1503)" />
    <linearGradient
       id="34542">
      <stop
         style="stop-color:#ffffff;stop-opacity:1"
         offset="0"
         id="stop3456-4-9-38-1-8" />
      <stop
         style="stop-color:#ffffff;stop-opacity:0.23529412"
         offset="0.002736"
         id="stop3458-39-80-3-5-5" />
      <stop
         style="stop-color:#ffffff;stop-opacity:0.15686275"
         offset="0.99001008"
         id="stop3460-7-0-2-4-2" />
      <stop
         style="stop-color:#ffffff;stop-opacity:0.39215687"
         offset="1"
         id="stop3462-0-9-8-7-2" />
    </linearGradient>
    <linearGradient
       y2="264"
       y1="292"
       x2="356"
       x1="356"
       id="linearGradient2455"
       xlink:href="#61299"
       gradientUnits="userSpaceOnUse"
       gradientTransform="translate(0,-80)" />
    <linearGradient
       id="61299">
      <stop
         style="stop-color:#000000;stop-opacity:0.498"
         offset="0"
         id="stop4661" />
      <stop
         style="stop-color:#000000;stop-opacity:0"
         offset="1"
         id="stop4663" />
    </linearGradient>
  </defs>
  <metadata
     id="metadata18162">
    <rdf:RDF>
      <cc:Work
         rdf:about="">
        <dc:format>image/svg+xml</dc:format>
        <dc:type
           rdf:resource="http://purl.org/dc/dcmitype/StillImage" />
      </cc:Work>
    </rdf:RDF>
  </metadata>
  <g
     transform="translate(-1.7920898e-4,48.000002)"
     id="g3222">
    <g
       style="display:inline;enable-background:new"
       transform="matrix(0.75271758,0,0,0.75271758,-210.96524,-113.54078)"
       id="use5389">
      <path
         style="color:#000000;display:inline;overflow:visible;visibility:visible;fill:url(#linearGradient2443);fill-opacity:1;fill-rule:nonzero;stroke:none;stroke-width:0.999922;marker:none;enable-background:accumulate"
         id="path2423"
         d="m 292.83723,108.03109 c -1.108,-9e-5 -1.83721,1.07377 -1.83721,2.18177 l -2e-5,5.7873 h -3 c -1.108,0 -2,0.892 -2,2 V 149 h 116 l 0.0361,-30.99984 c 0.001,-1.108 -0.892,-2 -2,-2 L 337,116 l -0.0495,-5.96537 c -0.009,-1.10796 -0.892,-1.99991 -2,-2 z" />
      <path
         style="color:#000000;display:inline;overflow:visible;visibility:visible;opacity:0.3;fill:none;stroke:#000000;stroke-width:1;stroke-linecap:butt;stroke-linejoin:miter;stroke-miterlimit:4;stroke-dasharray:none;stroke-dashoffset:0;stroke-opacity:1;marker:none;enable-background:accumulate"
         id="path2425"
         d="m 293.50002,107.5 c -1.87818,0.0205 -2.99999,1.09607 -3,2.85402 L 290.5,115.5 c -0.9606,0 -1.4771,-0.003 -2.1044,0 -1.67856,0.008 -2.87762,0.94491 -2.87762,2.83298 C 285.61158,145.83063 285.5,149.5 285.5,149.5 h 117 l 0.036,-31.19486 c 0.002,-1.75796 -1.15786,-2.82564 -3.03605,-2.80514 h -62 v -5.01742 c 0,-1.75795 -1.23699,-2.97889 -2.99783,-2.97904 L 293.5,107.5 Z" />
      <path
         style="color:#000000;display:inline;overflow:visible;visibility:visible;opacity:0.3;fill:none;stroke:#ffffff;stroke-width:1;stroke-linecap:round;stroke-linejoin:round;stroke-miterlimit:4;stroke-dasharray:none;stroke-dashoffset:0;stroke-opacity:1;marker:none;enable-background:accumulate"
         id="path2427"
         d="m 293.33723,108.49984 c -1.108,-1e-4 -1.83721,1.07377 -1.83721,2.18177 l -2e-5,5.81855 h -3 c -1.108,0 -2,0.892 -2,2 l 2e-5,29.99984 h 115 l 0.036,-29.99984 c 10e-4,-1.108 -0.892,-2 -2,-2 L 336.5,116.5 l 2e-5,-5.81839 c 0,-1.108 -0.94156,-2.17814 -2.04956,-2.17823 z" />
      <rect
         y="193.14998"
         x="292.33334"
         width="103.33332"
         style="display:inline;overflow:visible;visibility:visible;opacity:0.3;fill:url(#linearGradient2445);fill-opacity:1;fill-rule:nonzero;stroke:none;stroke-width:0.997328;marker:none"
         id="rect2429"
         height="16" />
      <path
         style="display:inline;overflow:visible;visibility:visible;opacity:0.3;fill:url(#radialGradient2447);fill-opacity:1;fill-rule:nonzero;stroke:none;stroke-width:0.997328;marker:none"
         id="path2431"
         d="m 395.66666,193.15053 c 0,0 0,15.99912 0,15.99912 4.27437,0.0301 10.33334,-3.58459 10.33334,-8.00059 0,-4.416 -4.76988,-7.99853 -10.33334,-7.99853 z" />
      <path
         style="display:inline;overflow:visible;visibility:visible;opacity:0.3;fill:url(#radialGradient2449);fill-opacity:1;fill-rule:nonzero;stroke:none;stroke-width:0.997328;marker:none"
         id="path2433"
         d="m 292.33334,193.15053 c 0,0 0,15.99912 0,15.99912 C 288.05897,209.1798 282,205.56506 282,201.14906 c 0,-4.416 4.76987,-7.99853 10.33334,-7.99853 z" />
      <path
         style="color:#000000;display:inline;overflow:visible;visibility:visible;fill:url(#linearGradient2451);fill-opacity:1;fill-rule:nonzero;stroke:#000000;stroke-width:1;stroke-miterlimit:4;stroke-dasharray:none;stroke-opacity:0.301961;marker:none;enable-background:accumulate"
         id="path2435"
         d="m 281.5,145.5 4.5,56 c 0,0 0,2 2,2 H 399.99935 C 402,203.5 402,201.5 402,201.5 l 4.5,-56 c 0.097,-0.99902 0.5,-3 -2,-3 H 284 c -3,0 -2.61436,2.02287 -2.5,3 z" />
      <path
         style="color:#000000;display:inline;overflow:visible;visibility:visible;opacity:0.5;fill:none;stroke:url(#linearGradient2453);stroke-width:1;stroke-linecap:round;stroke-linejoin:miter;stroke-miterlimit:4;stroke-dasharray:none;stroke-dashoffset:0;stroke-opacity:1;marker:none;enable-background:accumulate"
         id="path2437"
         d="M 282.53891,145.64127 287,201.5 c 0,0 0,1 1,1 h 112 c 1,0 1,-1 1,-1 l 4.5,-56 c 0.15378,-1.59495 0,-2 -1,-2 H 284.04143 c -1.04143,0 -1.80961,-0.22529 -1.50252,2.14127 z" />
      <path
         style="color:#000000;font-style:normal;font-variant:normal;font-weight:normal;font-stretch:normal;font-size:medium;line-height:normal;font-family:sans-serif;font-variant-ligatures:normal;font-variant-position:normal;font-variant-caps:normal;font-variant-numeric:normal;font-variant-alternates:normal;font-feature-settings:normal;text-indent:0;text-align:start;text-decoration:none;text-decoration-line:none;text-decoration-style:solid;text-decoration-color:#000000;letter-spacing:normal;word-spacing:normal;text-transform:none;writing-mode:lr-tb;direction:ltr;text-orientation:mixed;dominant-baseline:auto;baseline-shift:baseline;text-anchor:start;white-space:normal;shape-padding:0;clip-rule:nonzero;display:inline;overflow:visible;visibility:visible;opacity:0.3;isolation:auto;mix-blend-mode:normal;color-interpolation:sRGB;color-interpolation-filters:linearRGB;solid-color:#000000;solid-opacity:1;vector-effect:none;fill:url(#linearGradient2455);fill-opacity:1;fill-rule:nonzero;stroke:none;stroke-width:1;stroke-linecap:butt;stroke-linejoin:miter;stroke-miterlimit:4;stroke-dasharray:none;stroke-dashoffset:0;stroke-opacity:1;marker:none;color-rendering:auto;image-rendering:auto;shape-rendering:auto;text-rendering:auto;enable-background:accumulate"
         id="path2439"
         d="m 284,142 c -0.80619,0 -1.42834,0.13451 -1.9082,0.39062 -0.47987,0.25612 -0.8,0.64331 -0.97071,1.04883 -0.3414,0.81105 -0.17145,1.65546 -0.11718,2.11914 l 4.49804,55.98243 -0.002,-0.041 c 0,0 -0.007,0.6034 0.30273,1.22266 C 286.11236,203.34191 286.83333,204 288,204 h 112 c 1.16694,0 1.88753,-0.65612 2.19727,-1.27539 C 402.507,202.10534 402.5,201.5 402.5,201.5 l -0.002,0.041 4.5,-55.99219 v -0.006 c 0.0457,-0.46584 0.20373,-1.27941 -0.0488,-2.07031 -0.12664,-0.39657 -0.37984,-0.7924 -0.79492,-1.0625 C 405.73921,142.14005 405.1917,142 404.5,142 Z" />
    </g>
    <path
       style="color:#000000;display:inline;overflow:visible;visibility:visible;opacity:0.2;fill:#ffffff;fill-opacity:1;fill-rule:nonzero;stroke:none;stroke-width:1.27962;marker:none;enable-background:accumulate"
       id="path11381"
       d="m 35.139159,5.3885909 c -1.251016,0 -2.200216,0.797308 -2.127315,1.787704 l 1.465744,25.0278621 c 0.07294,0.99038 1.139449,1.787704 2.390466,1.787704 h 1.771535 6.914118 13.954684 c 1.251016,0 2.316089,-0.797324 2.38899,-1.787704 L 62.9309,14.327112 C 63.00376,13.336716 53.375873,5.3885909 52.124856,5.3885909 h -6.571149 -6.537759 z m 1.259914,1.787704 h 2.616875 6.537759 6.438836 l -0.07015,7.1508171 h 8.750342 l -0.967363,16.983193 c -0.03643,0.495198 -0.569724,0.893852 -1.195232,0.893852 H 45.553692 38.639574 37.864802 c -0.625508,0 -1.157311,-0.398654 -1.193765,-0.893852 L 35.336138,8.0701469 c -0.03643,-0.495198 0.437412,-0.893852 1.06292,-0.893852 z" />
    <path
       style="color:#000000;display:inline;overflow:visible;visibility:visible;opacity:0.55;fill:#175785;fill-opacity:1;fill-rule:nonzero;stroke:none;stroke-width:1.27962;marker:none;enable-background:accumulate"
       id="rect21401-5-9"
       d="m 35.139159,4.6358729 c -1.251016,0 -2.200216,0.797309 -2.127315,1.787705 l 1.465744,25.0278611 c 0.07294,0.990381 1.139449,1.787705 2.390466,1.787705 h 1.771535 6.914118 13.954684 c 1.251016,0 2.316089,-0.797324 2.38899,-1.787705 L 62.9309,13.574395 C 63.00376,12.583999 53.375873,4.6358729 52.124856,4.6358729 h -6.571149 -6.537759 z m 1.259914,1.787705 h 2.616875 6.537759 6.438836 l -0.07015,7.1508171 h 8.750342 l -0.967363,16.983192 c -0.03643,0.495198 -0.569724,0.893852 -1.195232,0.893852 H 45.553692 38.639574 37.864802 c -0.625508,0 -1.157311,-0.398654 -1.193765,-0.893852 L 35.336138,7.3174299 c -0.03643,-0.495198 0.437412,-0.893852 1.06292,-0.893852 z" />
    <path
       style="color:#000000;display:inline;overflow:visible;visibility:visible;opacity:0.55;fill:#175785;fill-opacity:1;fill-rule:nonzero;stroke:none;stroke-width:1.27962;marker:none;enable-background:accumulate"
       id="path152"
       d="m 35.139159,4.6358729 c -1.251016,0 -2.200216,0.797309 -2.127315,1.787705 l 1.465744,25.0278611 c 0.07294,0.990381 1.139449,1.787705 2.390466,1.787705 h 1.771535 6.914118 13.954684 c 1.251016,0 2.316089,-0.797324 2.38899,-1.787705 L 62.9309,13.574395 C 63.00376,12.583999 53.375873,4.6358729 52.124856,4.6358729 h -6.571149 -6.537759 z m 1.259914,1.787705 h 2.616875 6.537759 6.438836 l -0.07015,7.1508171 h 8.750342 l -0.967363,16.983192 c -0.03643,0.495198 -0.569724,0.893852 -1.195232,0.893852 H 45.553692 38.639574 37.864802 c -0.625508,0 -1.157311,-0.398654 -1.193765,-0.893852 L 35.336138,7.3174299 c -0.03643,-0.495198 0.437412,-0.893852 1.06292,-0.893852 z" />
  </g>
</svg>
