<?xml version="1.0" encoding="UTF-8" standalone="no"?>
<svg
   version="1.1"
   id="svg18157"
   height="96"
   width="96"
   xmlns:xlink="http://www.w3.org/1999/xlink"
   xmlns="http://www.w3.org/2000/svg"
   xmlns:svg="http://www.w3.org/2000/svg"
   xmlns:rdf="http://www.w3.org/1999/02/22-rdf-syntax-ns#"
   xmlns:cc="http://creativecommons.org/ns#"
   xmlns:dc="http://purl.org/dc/elements/1.1/">
  <defs
     id="defs18159">
    <linearGradient
       id="linearGradient5060-820-91-9-0">
      <stop
         offset="0"
         style="stop-color:#000000;stop-opacity:1"
         id="stop2681-778-5-1" />
      <stop
         offset="1"
         style="stop-color:#000000;stop-opacity:0"
         id="stop2683-2-86-2" />
    </linearGradient>
    <linearGradient
       id="linearGradient5048-585-73-1-5">
      <stop
         offset="0"
         style="stop-color:#000000;stop-opacity:0"
         id="stop2667-99-4-6" />
      <stop
         offset="0.5"
         style="stop-color:#000000;stop-opacity:1"
         id="stop2669-5-9-4" />
      <stop
         offset="1"
         style="stop-color:#000000;stop-opacity:0"
         id="stop2671-56-4-2" />
    </linearGradient>
    <linearGradient
       id="linearGradient4646-7-4-3">
      <stop
         id="stop4648-8-0-3"
         style="stop-color:#f9f9f9;stop-opacity:1"
         offset="0" />
      <stop
         id="stop4650-1-7-3"
         style="stop-color:#d8d8d8;stop-opacity:1"
         offset="1" />
    </linearGradient>
    <linearGradient
       y2="264"
       y1="292"
       x2="356"
       x1="356"
       id="linearGradient2435"
       xlink:href="#61299"
       gradientUnits="userSpaceOnUse"
       gradientTransform="matrix(0.75271757,0,0,0.75271757,-210.96523,-173.75296)" />
    <linearGradient
       id="61299">
      <stop
         style="stop-color:#000000;stop-opacity:0.498"
         offset="0"
         id="stop4661" />
      <stop
         style="stop-color:#000000;stop-opacity:0"
         offset="1"
         id="stop4663" />
    </linearGradient>
    <linearGradient
       y2="22.380869"
       y1="-11.032269"
       x2="27.3354"
       x1="27.3354"
       id="linearGradient2433"
       xlink:href="#34542"
       gradientUnits="userSpaceOnUse"
       gradientTransform="matrix(1.3426317,0,0,1.3066004,5.999213,9.2705415)" />
    <linearGradient
       id="34542">
      <stop
         style="stop-color:#ffffff;stop-opacity:1"
         offset="0"
         id="stop3456-4-9-38-1-8" />
      <stop
         style="stop-color:#ffffff;stop-opacity:0.23529412"
         offset="0.002736"
         id="stop3458-39-80-3-5-5" />
      <stop
         style="stop-color:#ffffff;stop-opacity:0.15686275"
         offset="0.99001008"
         id="stop3460-7-0-2-4-2" />
      <stop
         style="stop-color:#ffffff;stop-opacity:0.39215687"
         offset="1"
         id="stop3462-0-9-8-7-2" />
    </linearGradient>
    <linearGradient
       y2="43.430573"
       y1="-8.291666"
       x2="36.413651"
       x1="36.413651"
       id="linearGradient2431"
       xlink:href="#4632"
       gradientUnits="userSpaceOnUse"
       gradientTransform="matrix(0.97016352,0,0,0.81496739,2.1042082,3.1189045)" />
    <linearGradient
       id="4632">
      <stop
         style="stop-color:#b4cee1;stop-opacity:1"
         offset="0"
         id="stop4634-4-4-7-7-4" />
      <stop
         style="stop-color:#5d9fcd;stop-opacity:1"
         offset="1"
         id="stop4636-3-1-5-1-3" />
    </linearGradient>
    <radialGradient
       r="117.14286"
       id="radialGradient2429"
       xlink:href="#linearGradient5060-820-91-9-0"
       gradientUnits="userSpaceOnUse"
       gradientTransform="matrix(-0.06247657,0,0,0.0495908,46.731364,13.669468)"
       fy="486.64789"
       fx="605.71429"
       cy="486.64789"
       cx="605.71429" />
    <radialGradient
       r="117.14286"
       id="radialGradient2427"
       xlink:href="#linearGradient5060-820-91-9-0"
       gradientUnits="userSpaceOnUse"
       gradientTransform="matrix(0.06247659,0,0,0.0495908,49.207844,13.669468)"
       fy="486.64789"
       fx="605.71429"
       cy="486.64789"
       cx="605.71429" />
    <linearGradient
       y2="609.50507"
       y1="366.64789"
       x2="302.85715"
       x1="302.85715"
       id="linearGradient2425"
       xlink:href="#linearGradient5048-585-73-1-5"
       gradientUnits="userSpaceOnUse"
       gradientTransform="matrix(0.16108455,0,0,0.0495908,-10.250943,13.669468)" />
    <linearGradient
       y2="21.215551"
       y1="19.663828"
       x2="63.412205"
       x1="63.412205"
       id="linearGradient2423"
       xlink:href="#linearGradient4646-7-4-3"
       gradientUnits="userSpaceOnUse"
       gradientTransform="matrix(2.0789343,0,0,2.0789343,-107.82753,-50.79225)" />
  </defs>
  <metadata
     id="metadata18162">
    <rdf:RDF>
      <cc:Work
         rdf:about="">
        <dc:format>image/svg+xml</dc:format>
        <dc:type
           rdf:resource="http://purl.org/dc/dcmitype/StillImage" />
      </cc:Work>
    </rdf:RDF>
  </metadata>
  <g
     transform="translate(-1.7920898e-4,48.000002)"
     id="g3222">
    <path
       style="color:#000000;display:inline;overflow:visible;visibility:visible;fill:url(#linearGradient2423);fill-opacity:1;fill-rule:nonzero;stroke:none;stroke-width:0.752659;marker:none;enable-background:accumulate"
       id="path2403"
       d="m 9.4584922,-32.218656 c -0.8340111,-6.8e-5 -1.3829003,0.808245 -1.3829003,1.642256 l -1.5e-5,4.356203 H 5.8174241 c -0.834011,0 -1.5054351,0.671424 -1.5054351,1.505435 v 23.3341235 h 87.315239 l 0.02717,-23.3341235 c 7.53e-4,-0.834011 -0.671424,-1.505435 -1.505435,-1.505435 l -47.448382,-1.21e-4 -0.03726,-4.490239 c -0.0068,-0.833981 -0.671424,-1.505367 -1.505435,-1.505435 z" />
    <path
       style="color:#000000;display:inline;overflow:visible;visibility:visible;opacity:0.3;fill:none;stroke:#000000;stroke-width:0.752718;stroke-linecap:butt;stroke-linejoin:miter;stroke-miterlimit:4;stroke-dasharray:none;stroke-dashoffset:0;stroke-opacity:1;marker:none;enable-background:accumulate"
       id="path2405"
       d="m 9.9573859,-32.618417 c -1.4137391,0.01543 -2.2581452,0.825031 -2.2581527,2.148271 l -1.51e-5,3.873469 c -0.7230605,0 -1.1118392,-0.0023 -1.5840189,0 -1.2634816,0.006 -2.1660351,0.711251 -2.1660351,2.132434 0.070454,20.6979645 -0.013534,23.4599635 -0.013534,23.4599635 H 92.003587 l 0.0271,-23.4809185 c 0.0015,-1.323248 -0.871542,-2.126909 -2.285288,-2.111479 H 43.076906 v -3.7767 c 0,-1.32324 -0.931104,-2.242263 -2.25652,-2.242376 l -30.8630152,-0.0026 z" />
    <path
       style="color:#000000;display:inline;overflow:visible;visibility:visible;opacity:0.3;fill:none;stroke:#ffffff;stroke-width:0.752718;stroke-linecap:round;stroke-linejoin:round;stroke-miterlimit:4;stroke-dasharray:none;stroke-dashoffset:0;stroke-opacity:1;marker:none;enable-background:accumulate"
       id="path2407"
       d="m 9.834851,-31.86582 c -0.8340111,-7.5e-5 -1.3829003,0.808246 -1.3829003,1.642257 l -1.5e-5,4.379724 H 6.1937829 c -0.834011,0 -1.5054351,0.671424 -1.5054351,1.505436 l 1.51e-5,22.5814055 H 91.250884 l 0.0271,-22.5814055 c 7.53e-4,-0.834012 -0.671424,-1.505436 -1.505435,-1.505436 l -47.448321,-1.2e-4 1.5e-5,-4.379604 c 0,-0.834011 -0.708729,-1.639525 -1.54274,-1.639592 z" />
    <rect
       y="31.851826"
       x="9.0792084"
       width="77.780807"
       style="display:inline;overflow:visible;visibility:visible;opacity:0.3;fill:url(#linearGradient2425);fill-opacity:1;fill-rule:nonzero;stroke:none;stroke-width:0.750706;marker:none;enable-background:new"
       id="rect2409"
       height="12.043481" />
    <path
       style="display:inline;overflow:visible;visibility:visible;opacity:0.3;fill:url(#radialGradient2427);fill-opacity:1;fill-rule:nonzero;stroke:none;stroke-width:0.750706;marker:none;enable-background:new"
       id="path2411"
       d="m 86.860012,31.852242 c 0,0 0,12.042819 0,12.042819 3.217393,0.02266 7.778086,-2.698184 7.778086,-6.022184 0,-3.324002 -3.590372,-6.020635 -7.778086,-6.020635 z" />
    <path
       style="display:inline;overflow:visible;visibility:visible;opacity:0.3;fill:url(#radialGradient2429);fill-opacity:1;fill-rule:nonzero;stroke:none;stroke-width:0.750706;marker:none;enable-background:new"
       id="path2413"
       d="m 9.0792053,31.852242 c 0,0 0,12.042819 0,12.042819 -3.2173934,0.0227 -7.7780865,-2.698184 -7.7780865,-6.022184 0,-3.324002 3.5903649,-6.020635 7.7780865,-6.020635 z" />
    <path
       style="color:#000000;display:inline;overflow:visible;visibility:visible;fill:url(#linearGradient2431);fill-opacity:1;fill-rule:nonzero;stroke:#000000;stroke-width:0.752718;stroke-miterlimit:4;stroke-dasharray:none;stroke-opacity:0.301961;marker:none;enable-background:accumulate"
       id="path2415"
       d="M 0.92475996,-4.0151495 4.311989,38.137035 c 0,0 0,1.505435 1.5054351,1.505435 H 90.121304 c 1.505924,0 1.505924,-1.505435 1.505924,-1.505435 l 3.387229,-42.1521845 c 0.07301,-0.75198 0.376359,-2.258153 -1.505435,-2.258153 H 2.8065539 c -2.25815274,0 -1.96787474,1.52265 -1.88179394,2.258153 z" />
    <path
       style="color:#000000;display:inline;overflow:visible;visibility:visible;opacity:0.5;fill:none;stroke:url(#linearGradient2433);stroke-width:0.752718;stroke-linecap:round;stroke-linejoin:miter;stroke-miterlimit:4;stroke-dasharray:none;stroke-dashoffset:0;stroke-opacity:1;marker:none;enable-background:accumulate"
       id="path2417"
       d="M 1.7067658,-3.9088135 5.0647066,38.137035 c 0,0 0,0.752718 0.7527175,0.752718 H 90.121793 c 0.752718,0 0.752718,-0.752718 0.752718,-0.752718 L 94.26174,-4.0151495 c 0.115753,-1.200547 0,-1.505436 -0.752718,-1.505436 H 2.837739 c -0.7839027,0 -1.3621253,-0.169579 -1.1309732,1.611772 z" />
    <path
       style="color:#000000;font-style:normal;font-variant:normal;font-weight:normal;font-stretch:normal;font-size:medium;line-height:normal;font-family:sans-serif;font-variant-ligatures:normal;font-variant-position:normal;font-variant-caps:normal;font-variant-numeric:normal;font-variant-alternates:normal;font-feature-settings:normal;text-indent:0;text-align:start;text-decoration:none;text-decoration-line:none;text-decoration-style:solid;text-decoration-color:#000000;letter-spacing:normal;word-spacing:normal;text-transform:none;writing-mode:lr-tb;direction:ltr;text-orientation:mixed;dominant-baseline:auto;baseline-shift:baseline;text-anchor:start;white-space:normal;shape-padding:0;clip-rule:nonzero;display:inline;overflow:visible;visibility:visible;opacity:0.3;isolation:auto;mix-blend-mode:normal;color-interpolation:sRGB;color-interpolation-filters:linearRGB;solid-color:#000000;solid-opacity:1;vector-effect:none;fill:url(#linearGradient2435);fill-opacity:1;fill-rule:nonzero;stroke:none;stroke-width:0.752718;stroke-linecap:butt;stroke-linejoin:miter;stroke-miterlimit:4;stroke-dasharray:none;stroke-dashoffset:0;stroke-opacity:1;marker:none;color-rendering:auto;image-rendering:auto;shape-rendering:auto;text-rendering:auto;enable-background:accumulate"
       id="path2419"
       d="m 2.8065539,-6.6496615 c -0.6068334,0 -1.0751366,0.101248 -1.4363357,0.294027 -0.3612066,0.192786 -0.60217404,0.48423 -0.73067044,0.789472 -0.2569778,0.610492 -0.1290535,1.246094 -0.088204,1.595114 l 3.38575384,42.1389605 -0.00151,-0.03086 c 0,0 -0.00527,0.45419 0.2278702,0.920318 0.2331016,0.466105 0.7757884,0.961461 1.6539613,0.961461 H 90.121793 c 0.878376,0 1.420777,-0.493873 1.653924,-0.960008 0.233139,-0.466136 0.22787,-0.921786 0.22787,-0.921786 l -0.0015,0.03086 3.38723,-42.1463065 v -0.0045 c 0.0344,-0.350646 0.153351,-0.963034 -0.03673,-1.558358 -0.09532,-0.298506 -0.285912,-0.596454 -0.59835,-0.799763 -0.312431,-0.203196 -0.724551,-0.308614 -1.245206,-0.308614 z" />
    <path
       style="color:#000000;display:inline;overflow:visible;visibility:visible;opacity:0.2;fill:#ffffff;fill-opacity:1;fill-rule:nonzero;stroke:none;stroke-width:1.27962;marker:none;enable-background:accumulate"
       id="path14061"
       d="m 32.477927,4.6411025 c -0.938262,0 -1.648752,0.655519 -1.590718,1.46868 l 1.849427,26.4186255 c 0.05796,0.813161 0.858249,1.46868 1.796511,1.46868 h 13.196118 0.48076 13.196044 c 0.938262,0 1.737121,-0.655519 1.79508,-1.46868 L 65.052082,6.1097825 c 0.05796,-0.813161 -0.653961,-1.46868 -1.592224,-1.46868 H 48.721572 47.216137 Z m 0.702737,1.95824 h 2.258153 l 0.133758,1.953836 h -2.258153 z m 5.645382,0 h 8.425394 1.436335 8.425469 c 0.625509,0 1.100549,0.437005 1.062913,0.979119 l -0.685124,9.7823935 c -0.03764,0.542115 -0.575603,0.97912 -1.201111,0.97912 h -7.80794 -1.02618 -7.807939 c -0.625508,0 -1.161744,-0.437005 -1.199681,-0.97912 L 37.763058,7.5784615 c -0.03764,-0.542114 0.43748,-0.979119 1.062988,-0.979119 z m 21.674427,0 h 2.258153 l -0.133833,1.953836 H 60.36664 Z M 33.452621,10.511419 h 2.258153 l 0.136693,1.95824 h -2.258152 z m 26.775895,0 h 2.258153 l -0.138198,1.95824 h -2.258153 z m -26.501002,3.91648 h 2.258152 l 0.138199,1.953836 h -2.258152 z m 26.226035,0 h 2.258152 l -0.138199,1.953836 H 59.81535 Z m -25.949638,3.912076 h 2.258153 l 0.132328,1.95824 h -2.258153 z m 25.67324,0 h 2.258152 l -0.133757,1.95824 h -2.258153 z m -19.89553,1.95824 h 7.707978 0.958586 7.707979 c 0.625508,0 1.096107,0.437005 1.058471,0.97912 l -0.685047,9.782393 c -0.03764,0.542115 -0.569732,0.97912 -1.19524,0.97912 h -7.090525 -0.548354 -7.090601 c -0.625508,0 -1.158657,-0.437005 -1.196669,-0.97912 L 38.72458,21.277335 c -0.03764,-0.542115 0.431533,-0.97912 1.057041,-0.97912 z m -5.507183,1.95824 h 2.258153 l 0.138199,1.953836 h -2.258153 z m 25.130756,0 h 2.258153 l -0.136694,1.953836 H 59.2685 Z m -24.854358,3.912076 h 2.258153 l 0.136693,1.958241 H 34.68753 Z m 24.579465,0 h 2.258153 l -0.138199,1.958241 h -2.258152 z m -24.304572,3.916481 h 2.258152 l 0.133758,1.953836 h -2.258153 z m 24.028175,0 h 2.258152 l -0.132327,1.953836 h -2.258152 z" />
    <path
       style="color:#000000;display:inline;overflow:visible;visibility:visible;opacity:0.55;fill:#175785;fill-opacity:1;fill-rule:nonzero;stroke:none;stroke-width:1.27962;marker:none;enable-background:accumulate"
       id="path14035"
       d="m 32.477927,3.8883845 c -0.938262,0 -1.648752,0.655519 -1.590718,1.46868 l 1.849427,26.4186265 c 0.05796,0.81316 0.858249,1.46868 1.796511,1.46868 h 13.196118 0.48076 13.196044 c 0.938262,0 1.737121,-0.65552 1.79508,-1.46868 L 65.052082,5.3570645 c 0.05796,-0.813161 -0.653961,-1.46868 -1.592224,-1.46868 H 48.721572 47.216137 Z m 0.702737,1.95824 h 2.258153 l 0.133758,1.953836 h -2.258153 z m 5.645382,0 h 8.425394 1.436335 8.425469 c 0.625509,0 1.100549,0.437005 1.062913,0.97912 l -0.685124,9.7823925 c -0.03764,0.542115 -0.575603,0.97912 -1.201111,0.97912 h -7.80794 -1.02618 -7.807939 c -0.625508,0 -1.161744,-0.437005 -1.199681,-0.97912 L 37.763058,6.8257445 c -0.03764,-0.542115 0.43748,-0.97912 1.062988,-0.97912 z m 21.674427,0 h 2.258153 l -0.133833,1.953836 H 60.36664 Z m -27.047852,3.912076 h 2.258153 l 0.136693,1.9582405 h -2.258152 z m 26.775895,0 h 2.258153 L 62.348471,11.716941 H 60.090318 Z M 33.727514,13.675181 h 2.258152 l 0.138199,1.953836 h -2.258152 z m 26.226035,0 h 2.258152 l -0.138199,1.953836 H 59.81535 Z m -25.949638,3.912076 h 2.258153 l 0.132328,1.95824 h -2.258153 z m 25.67324,0 h 2.258152 l -0.133757,1.95824 h -2.258153 z m -19.89553,1.95824 h 7.707978 0.958586 7.707979 c 0.625508,0 1.096107,0.437005 1.058471,0.97912 l -0.685047,9.782394 c -0.03764,0.542114 -0.569732,0.97912 -1.19524,0.97912 h -7.090525 -0.548354 -7.090601 c -0.625508,0 -1.158657,-0.437006 -1.196669,-0.97912 L 38.72458,20.524617 c -0.03764,-0.542115 0.431533,-0.97912 1.057041,-0.97912 z m -5.507183,1.95824 h 2.258153 l 0.138199,1.953837 h -2.258153 z m 25.130756,0 h 2.258153 l -0.136694,1.953837 H 59.2685 Z m -24.854358,3.912077 h 2.258153 l 0.136693,1.95824 H 34.68753 Z m 24.579465,0 h 2.258153 l -0.138199,1.95824 h -2.258152 z m -24.304572,3.91648 h 2.258152 l 0.133758,1.953837 h -2.258153 z m 24.028175,0 h 2.258152 l -0.132327,1.953837 h -2.258152 z" />
    <path
       style="color:#000000;display:inline;overflow:visible;visibility:visible;opacity:0.55;fill:#175785;fill-opacity:1;fill-rule:nonzero;stroke:none;stroke-width:1.27962;marker:none;enable-background:accumulate"
       id="path47"
       d="m 32.477927,3.8883845 c -0.938262,0 -1.648752,0.655519 -1.590718,1.46868 l 1.849427,26.4186265 c 0.05796,0.81316 0.858249,1.46868 1.796511,1.46868 h 13.196118 0.48076 13.196044 c 0.938262,0 1.737121,-0.65552 1.79508,-1.46868 L 65.052082,5.3570645 c 0.05796,-0.813161 -0.653961,-1.46868 -1.592224,-1.46868 H 48.721572 47.216137 Z m 0.702737,1.95824 h 2.258153 l 0.133758,1.953836 h -2.258153 z m 5.645382,0 h 8.425394 1.436335 8.425469 c 0.625509,0 1.100549,0.437005 1.062913,0.97912 l -0.685124,9.7823925 c -0.03764,0.542115 -0.575603,0.97912 -1.201111,0.97912 h -7.80794 -1.02618 -7.807939 c -0.625508,0 -1.161744,-0.437005 -1.199681,-0.97912 L 37.763058,6.8257445 c -0.03764,-0.542115 0.43748,-0.97912 1.062988,-0.97912 z m 21.674427,0 h 2.258153 l -0.133833,1.953836 H 60.36664 Z m -27.047852,3.912076 h 2.258153 l 0.136693,1.9582405 h -2.258152 z m 26.775895,0 h 2.258153 L 62.348471,11.716941 H 60.090318 Z M 33.727514,13.675181 h 2.258152 l 0.138199,1.953836 h -2.258152 z m 26.226035,0 h 2.258152 l -0.138199,1.953836 H 59.81535 Z m -25.949638,3.912076 h 2.258153 l 0.132328,1.95824 h -2.258153 z m 25.67324,0 h 2.258152 l -0.133757,1.95824 h -2.258153 z m -19.89553,1.95824 h 7.707978 0.958586 7.707979 c 0.625508,0 1.096107,0.437005 1.058471,0.97912 l -0.685047,9.782394 c -0.03764,0.542114 -0.569732,0.97912 -1.19524,0.97912 h -7.090525 -0.548354 -7.090601 c -0.625508,0 -1.158657,-0.437006 -1.196669,-0.97912 L 38.72458,20.524617 c -0.03764,-0.542115 0.431533,-0.97912 1.057041,-0.97912 z m -5.507183,1.95824 h 2.258153 l 0.138199,1.953837 h -2.258153 z m 25.130756,0 h 2.258153 l -0.136694,1.953837 H 59.2685 Z m -24.854358,3.912077 h 2.258153 l 0.136693,1.95824 H 34.68753 Z m 24.579465,0 h 2.258153 l -0.138199,1.95824 h -2.258152 z m -24.304572,3.91648 h 2.258152 l 0.133758,1.953837 h -2.258153 z m 24.028175,0 h 2.258152 l -0.132327,1.953837 h -2.258152 z" />
  </g>
</svg>
