<?xml version="1.0" encoding="UTF-8" standalone="no"?>
<svg
   version="1.1"
   id="svg18157"
   height="96"
   width="96"
   xmlns:xlink="http://www.w3.org/1999/xlink"
   xmlns="http://www.w3.org/2000/svg"
   xmlns:svg="http://www.w3.org/2000/svg"
   xmlns:rdf="http://www.w3.org/1999/02/22-rdf-syntax-ns#"
   xmlns:cc="http://creativecommons.org/ns#"
   xmlns:dc="http://purl.org/dc/elements/1.1/">
  <defs
     id="defs18159">
    <linearGradient
       id="linearGradient5060-820-91-9-0">
      <stop
         offset="0"
         style="stop-color:#000000;stop-opacity:1"
         id="stop2681-778-5-1" />
      <stop
         offset="1"
         style="stop-color:#000000;stop-opacity:0"
         id="stop2683-2-86-2" />
    </linearGradient>
    <linearGradient
       id="linearGradient5048-585-73-1-5">
      <stop
         offset="0"
         style="stop-color:#000000;stop-opacity:0"
         id="stop2667-99-4-6" />
      <stop
         offset="0.5"
         style="stop-color:#000000;stop-opacity:1"
         id="stop2669-5-9-4" />
      <stop
         offset="1"
         style="stop-color:#000000;stop-opacity:0"
         id="stop2671-56-4-2" />
    </linearGradient>
    <linearGradient
       y2="44.260689"
       x2="97.538795"
       y1="16.962049"
       x1="97.538795"
       gradientTransform="matrix(1.977882,0,0,2.0159126,-105.82759,-50.696137)"
       gradientUnits="userSpaceOnUse"
       id="linearGradient8270-7"
       xlink:href="#linearGradient8272-0" />
    <linearGradient
       id="linearGradient8272-0">
      <stop
         id="stop8274-1"
         style="stop-color:#ffffff;stop-opacity:1"
         offset="0" />
      <stop
         id="stop8276-8"
         style="stop-color:#ffffff;stop-opacity:0.23529412"
         offset="0.0221225" />
      <stop
         id="stop8278-4"
         style="stop-color:#ffffff;stop-opacity:0.15686275"
         offset="0.97909725" />
      <stop
         id="stop8280-49"
         style="stop-color:#ffffff;stop-opacity:0.39215687"
         offset="1" />
    </linearGradient>
    <linearGradient
       gradientTransform="matrix(2.2531068,0,0,1.9965263,-6.0745684,-47.851393)"
       gradientUnits="userSpaceOnUse"
       xlink:href="#linearGradient6129-963-697-142-998-580-273-7"
       id="linearGradient2438-5"
       y2="36.599415"
       x2="22.934725"
       y1="49.629246"
       x1="22.934725" />
    <linearGradient
       id="linearGradient6129-963-697-142-998-580-273-7">
      <stop
         offset="0"
         style="stop-color:#0a0a0a;stop-opacity:0.498"
         id="stop2661-15" />
      <stop
         offset="1"
         style="stop-color:#0a0a0a;stop-opacity:0"
         id="stop2663-8" />
    </linearGradient>
    <linearGradient
       gradientTransform="matrix(0.74193552,0,0,0.76172101,109.58065,-51.428991)"
       gradientUnits="userSpaceOnUse"
       y2="119.05979"
       x2="-91"
       y1="43.999817"
       x1="-91"
       id="linearGradient8211-5"
       xlink:href="#linearGradient4632-0-6-4-9" />
    <linearGradient
       id="linearGradient4632-0-6-4-9">
      <stop
         id="stop4634-4-4-7-0"
         offset="0"
         style="stop-color:#b4cee1;stop-opacity:1;" />
      <stop
         id="stop4636-3-1-5-1"
         offset="1"
         style="stop-color:#5d9fcd;stop-opacity:1;" />
    </linearGradient>
    <linearGradient
       gradientTransform="matrix(0.2134205,0,0,0.06641689,-13.147881,75.518568)"
       gradientUnits="userSpaceOnUse"
       xlink:href="#linearGradient5048-585-73-1-5"
       id="linearGradient2484-9"
       y2="609.50507"
       x2="302.85715"
       y1="366.64789"
       x1="302.85715" />
    <radialGradient
       gradientTransform="matrix(0.08277507,0,0,0.06641689,65.628912,75.518568)"
       gradientUnits="userSpaceOnUse"
       xlink:href="#linearGradient5060-820-91-9-0"
       id="radialGradient2486-2"
       fy="486.64789"
       fx="605.71429"
       r="117.14286"
       cy="486.64789"
       cx="605.71429" />
    <radialGradient
       xlink:href="#linearGradient5060-820-91-9-0"
       id="radialGradient3092-2"
       gradientUnits="userSpaceOnUse"
       gradientTransform="matrix(-0.08277505,0,0,0.06641689,62.347829,75.518568)"
       cx="605.71429"
       cy="486.64789"
       fx="605.71429"
       fy="486.64789"
       r="117.14286" />
    <linearGradient
       y2="44.260689"
       x2="97.538795"
       y1="8.8103228"
       x1="97.538795"
       gradientTransform="matrix(1.977882,0,0,1.963835,-105.82759,-48.359552)"
       gradientUnits="userSpaceOnUse"
       id="linearGradient8270-2-4"
       xlink:href="#linearGradient9235-0" />
    <linearGradient
       id="linearGradient9235-0">
      <stop
         offset="0"
         style="stop-color:#ffffff;stop-opacity:1"
         id="stop9237-1" />
      <stop
         offset="0.1088333"
         style="stop-color:#ffffff;stop-opacity:0.23529412"
         id="stop9239-9" />
      <stop
         offset="0.97909725"
         style="stop-color:#ffffff;stop-opacity:0.15686275"
         id="stop9241-7" />
      <stop
         offset="1"
         style="stop-color:#ffffff;stop-opacity:0.39215687"
         id="stop9243-4" />
    </linearGradient>
    <linearGradient
       xlink:href="#linearGradient3104-8-8-97-4-6-11-5-5-1-0-9"
       id="linearGradient8560-7-76"
       gradientUnits="userSpaceOnUse"
       gradientTransform="matrix(1.6087773,0,0,1.6667318,105.83276,-50.244781)"
       x1="-51.786404"
       y1="53.514328"
       x2="-51.786404"
       y2="3.6336823" />
    <linearGradient
       id="linearGradient3104-8-8-97-4-6-11-5-5-1-0-9">
      <stop
         id="stop3106-5-4-3-5-0-2-1-0-1-2-6"
         style="stop-color:#000000;stop-opacity:0.32173914"
         offset="0" />
      <stop
         id="stop3108-4-3-7-8-2-0-7-9-4-9-8"
         style="stop-color:#000000;stop-opacity:0.27826086"
         offset="1" />
    </linearGradient>
    <linearGradient
       xlink:href="#linearGradient6404-7-5-49"
       id="linearGradient26670"
       gradientUnits="userSpaceOnUse"
       gradientTransform="matrix(2.0187548,0,0,1.9826428,-86.453701,-48.481489)"
       x1="62.988873"
       y1="14.090554"
       x2="62.988873"
       y2="16.997795" />
    <linearGradient
       id="linearGradient6404-7-5-49">
      <stop
         offset="0"
         style="stop-color:#f9f9f9;stop-opacity:1"
         id="stop6406-1-8-77" />
      <stop
         offset="1"
         style="stop-color:#c9c9c9;stop-opacity:1"
         id="stop6408-9-6-8" />
    </linearGradient>
  </defs>
  <metadata
     id="metadata18162">
    <rdf:RDF>
      <cc:Work
         rdf:about="">
        <dc:format>image/svg+xml</dc:format>
        <dc:type
           rdf:resource="http://purl.org/dc/dcmitype/StillImage" />
      </cc:Work>
    </rdf:RDF>
  </metadata>
  <g
     transform="translate(0,47)"
     id="g15726">
    <path
       id="rect8678-4-6"
       d="m 10.161288,-31.23499 c -0.8220641,0 -1.4838706,0.661806 -1.4838706,1.483871 v 4.428427 H 6.4516106 c -0.8220646,0 -1.483871,0.661807 -1.483871,1.483871 v 8.161291 c 0,0.822065 0.6618064,1.483871 1.483871,1.483871 H 89.548391 c 0.822065,0 1.483871,-0.661806 1.483871,-1.483871 v -8.161291 c 0,-0.822064 -0.661806,-1.483871 -1.483871,-1.483871 H 42.806454 v -4.428427 c 0,-0.822065 -0.661807,-1.483871 -1.483871,-1.483871 z"
       style="color:#000000;display:inline;overflow:visible;visibility:visible;fill:url(#linearGradient26670);fill-opacity:1;fill-rule:nonzero;stroke:none;stroke-width:0.741935;marker:none;enable-background:accumulate" />
    <path
       style="color:#000000;display:inline;overflow:visible;visibility:visible;opacity:0.8;fill:none;stroke:url(#linearGradient8560-7-76);stroke-width:0.741935;stroke-linecap:butt;stroke-linejoin:miter;stroke-miterlimit:4;stroke-dasharray:none;stroke-dashoffset:0;stroke-opacity:1;marker:none;enable-background:accumulate"
       id="path3468-1"
       d="m 10.653036,-31.629032 c -1.3934885,0.01521 -2.3465863,0.678351 -2.3465863,1.982637 v 3.952609 c -0.7127036,0 -1.0959133,-0.0022 -1.5613294,0 -1.2453833,0.0059 -2.1350085,0.701063 -2.1350085,2.101889 0.069445,20.4014832 -0.013355,21.4582145 -0.013355,23.19034463 2.8978591,0 86.8064582,-7.33524943 86.8064582,-10.49267463 v -12.718326 c 0,-1.304292 -0.859057,-2.096442 -2.252553,-2.081233 H 43.177406 v -3.857226 c 0,-1.304285 -0.880996,-2.07802 -2.187426,-2.07802 H 10.653021 Z" />
    <path
       id="rect8678-9"
       d="m 10.532256,-30.887215 c -0.8220643,0 -1.4838708,0.661806 -1.4838708,1.483871 v 4.451613 H 6.8225784 c -0.8220646,0 -1.4838711,0.661806 -1.4838711,1.483871 v 8.16129 c 0,0.822065 0.6618065,1.483872 1.4838711,1.483872 H 89.177423 c 0.822065,0 1.483872,-0.661807 1.483872,-1.483872 v -8.16129 c 0,-0.822065 -0.661807,-1.483871 -1.483872,-1.483871 H 42.435486 v -4.451613 c 0,-0.822065 -0.661807,-1.483871 -1.483871,-1.483871 z"
       style="color:#000000;display:inline;overflow:visible;visibility:visible;fill:none;stroke:url(#linearGradient8270-2-4);stroke-width:0.741935;stroke-linecap:round;stroke-linejoin:round;stroke-miterlimit:4;stroke-dasharray:none;stroke-dashoffset:0;stroke-opacity:1;marker:none;enable-background:accumulate" />
    <g
       id="g2479-4"
       transform="matrix(0.7439639,0,0,0.73596427,0.39496098,-41.694656)">
      <rect
         style="display:inline;overflow:visible;visibility:visible;opacity:0.3;fill:url(#linearGradient2484-9);fill-opacity:1;fill-rule:nonzero;stroke:none;stroke-width:1;marker:none"
         id="rect4173-8"
         y="99.870178"
         x="12.462574"
         height="16.129816"
         width="103.05159" />
      <path
         style="display:inline;overflow:visible;visibility:visible;opacity:0.3;fill:url(#radialGradient2486-2);fill-opacity:1;fill-rule:nonzero;stroke:none;stroke-width:1;marker:none"
         id="path5058-5"
         d="m 115.51417,99.870734 c 0,0 0,16.128926 0,16.128926 4.26271,0.0304 10.30516,-3.61367 10.30516,-8.0655 0,-4.45183 -4.75687,-8.063426 -10.30516,-8.063426 z" />
      <path
         style="display:inline;overflow:visible;visibility:visible;opacity:0.3;fill:url(#radialGradient3092-2);fill-opacity:1;fill-rule:nonzero;stroke:none;stroke-width:1;marker:none"
         id="path5018-8"
         d="m 12.462574,99.870734 c 0,0 0,16.128926 0,16.128926 -4.2627113,0.0304 -10.3051588,-3.61367 -10.3051588,-8.0655 0,-4.45183 4.7568636,-8.063426 10.3051588,-8.063426 z" />
    </g>
    <path
       style="display:inline;overflow:visible;visibility:visible;fill:url(#linearGradient8211-5);fill-opacity:1;fill-rule:nonzero;stroke:none;stroke-width:0.741935;marker:none;enable-background:accumulate"
       id="path3369-1"
       d="m 5.1532234,-17.532524 85.6935476,7.41e-4 c 1.238001,0 2.04033,0.878267 2.04033,1.970158 l -2.015453,53.256639 c 0.02864,1.381565 -0.408176,1.929358 -1.846559,1.900386 L 7.4618597,39.560751 c -1.2379862,0 -2.4863447,-0.81535 -2.4863447,-1.907249 L 3.1129008,-15.561595 c 0,-1.091899 0.802329,-1.970929 2.0403226,-1.970929 z" />
    <path
       style="opacity:0.4;fill:url(#linearGradient2438-5);fill-opacity:1;stroke:none;stroke-width:0.741935"
       id="path6127-3"
       d="m 4.7991124,-17.9035 86.4017626,7.42e-4 c 1.248232,0 2.057194,0.88967 2.057194,1.995755 l -2.03211,53.948285 c 0.02886,1.399506 -0.411551,1.954414 -1.86182,1.925063 L 7.1268313,39.931178 c -1.2482175,0 -2.5068889,-0.825945 -2.5068889,-1.93203 L 2.741933,-15.906973 c 0,-1.106078 0.808962,-1.996527 2.0571794,-1.996527 z" />
    <path
       id="path8263-1"
       d="m 5.1532234,-16.790448 c -2.1136407,0.220028 -1.045632,2.79479 -1.2166926,4.243997 0.5830426,16.7291253 1.1682962,33.458198 1.7499588,50.187348 0.8819239,1.847226 3.2868414,0.951198 4.9252054,1.168051 26.142204,0.01521 52.284414,0.03057 78.426616,0.04578 1.903806,-0.12265 0.858575,-2.832732 1.226842,-4.196054 0.634095,-16.745108 1.886683,-50.133587 1.886683,-50.133587 0,-0.862196 -0.578651,-1.315526 -1.637734,-1.315526 -27.517877,0 -57.843,0 -85.3608786,0 z"
       style="display:inline;overflow:visible;visibility:visible;opacity:0.5;fill:none;stroke:url(#linearGradient8270-7);stroke-width:0.741935;stroke-linecap:round;stroke-linejoin:round;stroke-miterlimit:4;stroke-dasharray:none;stroke-dashoffset:0;stroke-opacity:1;marker:none;enable-background:accumulate" />
    <path
       id="rect21401-5-9-7"
       d="m 36.870969,-5.2904326 c -1.233096,0 -2.225806,0.9927097 -2.225806,2.2258066 v 31.161294 c 0,1.233097 0.99271,2.225807 2.225806,2.225807 h 22.258066 c 1.233097,0 2.225807,-0.99271 2.225807,-2.225807 V 5.8386002 c 0,-1.2330968 -9.895936,-11.1290328 -11.129033,-11.1290328 z m 1.112904,2.2258066 h 12.241936 v 8.9032262 h 8.903226 V 26.983762 c 0,0.616551 -0.496355,1.112906 -1.112903,1.112906 H 37.983873 c -0.616549,0 -1.112904,-0.496355 -1.112904,-1.112906 V -1.9517228 c 0,-0.6165484 0.496355,-1.1129032 1.112904,-1.1129032 z"
       style="color:#000000;display:inline;overflow:visible;visibility:visible;opacity:0.3;fill:#ffffff;fill-opacity:1;fill-rule:nonzero;stroke:none;stroke-width:1.26129;marker:none;enable-background:accumulate" />
    <path
       id="rect21401-5-9"
       d="m 36.870969,-6.0325462 c -1.233096,0 -2.225806,0.9927097 -2.225806,2.2258066 V 27.354552 c 0,1.233099 0.99271,2.225809 2.225806,2.225809 h 22.258066 c 1.233097,0 2.225807,-0.99271 2.225807,-2.225809 V 5.0964866 c 0,-1.2330968 -9.895936,-11.1290328 -11.129033,-11.1290328 z m 1.112904,2.2258066 h 12.241936 v 8.9032262 h 8.903226 V 26.241649 c 0,0.616548 -0.496355,1.112903 -1.112903,1.112903 H 37.983873 c -0.616549,0 -1.112904,-0.496355 -1.112904,-1.112903 V -2.6938363 c 0,-0.6165485 0.496355,-1.1129033 1.112904,-1.1129033 z"
       style="color:#000000;display:inline;overflow:visible;visibility:visible;fill:#175785;fill-opacity:0.552163;fill-rule:nonzero;stroke:none;stroke-width:1.26129;marker:none;enable-background:accumulate" />
    <path
       style="display:inline;overflow:visible;visibility:visible;opacity:0.3;fill:none;stroke:#000000;stroke-width:0.741935;stroke-linecap:round;stroke-linejoin:round;stroke-miterlimit:4;stroke-dasharray:none;stroke-dashoffset:0;stroke-opacity:1;marker:none;enable-background:accumulate"
       id="path3369-1-3"
       d="m 5.1532234,-17.532532 85.6935476,7.42e-4 c 1.238001,0 2.04033,0.878266 2.04033,1.970158 l -2.015453,53.256638 c 0.02864,1.381566 -0.408176,1.929359 -1.846559,1.900386 L 7.4618597,39.560744 c -1.2379862,0 -2.4863447,-0.81535 -2.4863447,-1.907249 L 3.1129008,-15.561602 c 0,-1.0919 0.802329,-1.97093 2.0403226,-1.97093 z" />
    <path
       id="path163"
       d="m 36.870969,-6.0325462 c -1.233096,0 -2.225806,0.9927097 -2.225806,2.2258066 V 27.354552 c 0,1.233099 0.99271,2.225809 2.225806,2.225809 h 22.258066 c 1.233097,0 2.225807,-0.99271 2.225807,-2.225809 V 5.0964866 c 0,-1.2330968 -9.895936,-11.1290328 -11.129033,-11.1290328 z m 1.112904,2.2258066 h 12.241936 v 8.9032262 h 8.903226 V 26.241649 c 0,0.616548 -0.496355,1.112903 -1.112903,1.112903 H 37.983873 c -0.616549,0 -1.112904,-0.496355 -1.112904,-1.112903 V -2.6938363 c 0,-0.6165485 0.496355,-1.1129033 1.112904,-1.1129033 z"
       style="color:#000000;display:inline;overflow:visible;visibility:visible;fill:#175785;fill-opacity:0.552163;fill-rule:nonzero;stroke:none;stroke-width:1.26129;marker:none;enable-background:accumulate" />
  </g>
</svg>
