<?xml version="1.0" encoding="UTF-8" standalone="no"?>
<svg
   version="1.1"
   id="svg18157"
   height="96"
   width="96"
   xmlns:xlink="http://www.w3.org/1999/xlink"
   xmlns="http://www.w3.org/2000/svg"
   xmlns:svg="http://www.w3.org/2000/svg"
   xmlns:rdf="http://www.w3.org/1999/02/22-rdf-syntax-ns#"
   xmlns:cc="http://creativecommons.org/ns#"
   xmlns:dc="http://purl.org/dc/elements/1.1/">
  <defs
     id="defs18159">
    <linearGradient
       id="linearGradient5060-820-91-9-0">
      <stop
         offset="0"
         style="stop-color:#000000;stop-opacity:1"
         id="stop2681-778-5-1" />
      <stop
         offset="1"
         style="stop-color:#000000;stop-opacity:0"
         id="stop2683-2-86-2" />
    </linearGradient>
    <linearGradient
       id="linearGradient5048-585-73-1-5">
      <stop
         offset="0"
         style="stop-color:#000000;stop-opacity:0"
         id="stop2667-99-4-6" />
      <stop
         offset="0.5"
         style="stop-color:#000000;stop-opacity:1"
         id="stop2669-5-9-4" />
      <stop
         offset="1"
         style="stop-color:#000000;stop-opacity:0"
         id="stop2671-56-4-2" />
    </linearGradient>
    <linearGradient
       gradientTransform="matrix(1.977882,0,0,2.0159126,-105.8276,-50.696137)"
       gradientUnits="userSpaceOnUse"
       xlink:href="#linearGradient8272"
       id="linearGradient22448"
       y2="44.260689"
       x2="97.538795"
       y1="16.962049"
       x1="97.538795" />
    <linearGradient
       id="linearGradient8272">
      <stop
         offset="0"
         style="stop-color:#ffffff;stop-opacity:1"
         id="stop8274" />
      <stop
         offset="0.0221225"
         style="stop-color:#ffffff;stop-opacity:0.23529412"
         id="stop8276" />
      <stop
         offset="0.97909725"
         style="stop-color:#ffffff;stop-opacity:0.15686275"
         id="stop8278" />
      <stop
         offset="1"
         style="stop-color:#ffffff;stop-opacity:0.39215687"
         id="stop8280" />
    </linearGradient>
    <linearGradient
       gradientTransform="matrix(2.2531068,0,0,1.9965263,-6.074568,-47.8514)"
       gradientUnits="userSpaceOnUse"
       xlink:href="#linearGradient6129-963-697-142-998-580-273"
       id="linearGradient22444"
       y2="36.599415"
       x2="22.934725"
       y1="49.629246"
       x1="22.934725" />
    <linearGradient
       id="linearGradient6129-963-697-142-998-580-273">
      <stop
         offset="0"
         style="stop-color:#0a0a0a;stop-opacity:0.498"
         id="stop2661" />
      <stop
         offset="1"
         style="stop-color:#0a0a0a;stop-opacity:0"
         id="stop2663" />
    </linearGradient>
    <linearGradient
       gradientTransform="matrix(0.74193552,0,0,0.76172101,109.58064,-51.428999)"
       gradientUnits="userSpaceOnUse"
       xlink:href="#linearGradient4632-0-6-4"
       id="linearGradient22440"
       y2="119.05979"
       x2="-91"
       y1="43.999817"
       x1="-91" />
    <linearGradient
       id="linearGradient4632-0-6-4">
      <stop
         offset="0"
         style="stop-color:#b4cee1;stop-opacity:1"
         id="stop4634-4-4-7" />
      <stop
         offset="1"
         style="stop-color:#5d9fcd;stop-opacity:1"
         id="stop4636-3-1-5" />
    </linearGradient>
    <linearGradient
       gradientTransform="matrix(0.2134205,0,0,0.06641689,-13.147881,75.518568)"
       gradientUnits="userSpaceOnUse"
       xlink:href="#linearGradient5048-585-73-1-5"
       id="linearGradient22432"
       y2="609.50507"
       x2="302.85715"
       y1="366.64789"
       x1="302.85715" />
    <radialGradient
       gradientTransform="matrix(0.08277507,0,0,0.06641689,65.628912,75.518568)"
       gradientUnits="userSpaceOnUse"
       xlink:href="#linearGradient5060-820-91-9-0"
       id="radialGradient22434"
       fy="486.64789"
       fx="605.71429"
       r="117.14286"
       cy="486.64789"
       cx="605.71429" />
    <radialGradient
       gradientTransform="matrix(-0.08277505,0,0,0.06641689,62.347829,75.518568)"
       gradientUnits="userSpaceOnUse"
       xlink:href="#linearGradient5060-820-91-9-0"
       id="radialGradient22436"
       fy="486.64789"
       fx="605.71429"
       r="117.14286"
       cy="486.64789"
       cx="605.71429" />
    <linearGradient
       gradientTransform="matrix(1.977882,0,0,1.963835,-105.8276,-48.359552)"
       gradientUnits="userSpaceOnUse"
       xlink:href="#linearGradient9235"
       id="linearGradient22422"
       y2="44.260689"
       x2="97.538795"
       y1="8.8103228"
       x1="97.538795" />
    <linearGradient
       id="linearGradient9235">
      <stop
         offset="0"
         style="stop-color:#ffffff;stop-opacity:1"
         id="stop9237" />
      <stop
         offset="0.1088333"
         style="stop-color:#ffffff;stop-opacity:0.23529412"
         id="stop9239" />
      <stop
         offset="0.97909725"
         style="stop-color:#ffffff;stop-opacity:0.15686275"
         id="stop9241" />
      <stop
         offset="1"
         style="stop-color:#ffffff;stop-opacity:0.39215687"
         id="stop9243" />
    </linearGradient>
    <linearGradient
       gradientTransform="matrix(1.6087773,0,0,1.6667318,105.83275,-50.24478)"
       gradientUnits="userSpaceOnUse"
       xlink:href="#linearGradient3104-8-8-97-4-6-11-5-5-1-0"
       id="linearGradient22418"
       y2="3.6336823"
       x2="-51.786404"
       y1="53.514328"
       x1="-51.786404" />
    <linearGradient
       id="linearGradient3104-8-8-97-4-6-11-5-5-1-0">
      <stop
         offset="0"
         style="stop-color:#000000;stop-opacity:0.32173914"
         id="stop3106-5-4-3-5-0-2-1-0-1-2" />
      <stop
         offset="1"
         style="stop-color:#000000;stop-opacity:0.27826086"
         id="stop3108-4-3-7-8-2-0-7-9-4-9" />
    </linearGradient>
    <linearGradient
       gradientTransform="matrix(2.0187548,0,0,1.9826428,-86.453712,-48.481497)"
       gradientUnits="userSpaceOnUse"
       xlink:href="#linearGradient6404-7-5"
       id="linearGradient28614"
       y2="16.997795"
       x2="62.988873"
       y1="14.090554"
       x1="62.988873" />
    <linearGradient
       id="linearGradient6404-7-5">
      <stop
         offset="0"
         style="stop-color:#f9f9f9;stop-opacity:1"
         id="stop6406-1-8" />
      <stop
         offset="1"
         style="stop-color:#c9c9c9;stop-opacity:1"
         id="stop6408-9-6" />
    </linearGradient>
  </defs>
  <metadata
     id="metadata18162">
    <rdf:RDF>
      <cc:Work
         rdf:about="">
        <dc:format>image/svg+xml</dc:format>
        <dc:type
           rdf:resource="http://purl.org/dc/dcmitype/StillImage" />
      </cc:Work>
    </rdf:RDF>
  </metadata>
  <g
     transform="translate(0,47)"
     id="g15726">
    <path
       style="color:#000000;display:inline;overflow:visible;visibility:visible;fill:url(#linearGradient28614);fill-opacity:1;fill-rule:nonzero;stroke:none;stroke-width:0.741935;marker:none;enable-background:accumulate"
       id="use14083"
       d="m 10.161289,-31.234998 c -0.822065,0 -1.483871,0.661807 -1.483871,1.483871 v 4.428428 H 6.451611 c -0.822065,0 -1.483871,0.661806 -1.483871,1.483871 v 8.161291 c 0,0.822064 0.661806,1.483871 1.483871,1.483871 h 83.09678 c 0.822065,0 1.483871,-0.661807 1.483871,-1.483871 v -8.161291 c 0,-0.822065 -0.661806,-1.483871 -1.483871,-1.483871 H 42.806448 v -4.428428 c 0,-0.822064 -0.661807,-1.483871 -1.483871,-1.483871 z" />
    <path
       style="color:#000000;display:inline;overflow:visible;visibility:visible;opacity:0.8;fill:none;stroke:url(#linearGradient22418);stroke-width:0.741935;stroke-linecap:butt;stroke-linejoin:miter;stroke-miterlimit:4;stroke-dasharray:none;stroke-dashoffset:0;stroke-opacity:1;marker:none;enable-background:accumulate"
       id="use14085"
       d="m 10.653036,-31.629032 c -1.393488,0.01521 -2.346586,0.678351 -2.346586,1.982637 v 3.952609 c -0.712703,0 -1.095913,-0.0022 -1.561329,0 -1.245384,0.0059 -2.135009,0.701063 -2.135009,2.101889 0.06944,20.4014825 -0.01336,21.4582145 -0.01336,23.19034451 2.89786,0 86.806458,-7.33525001 86.806458,-10.49267451 v -12.718326 c 0,-1.304292 -0.859057,-2.096442 -2.252553,-2.081233 H 43.177401 v -3.857226 c 0,-1.304285 -0.880997,-2.07802 -2.187427,-2.07802 H 10.653021 Z" />
    <path
       style="color:#000000;display:inline;overflow:visible;visibility:visible;fill:none;stroke:url(#linearGradient22422);stroke-width:0.741935;stroke-linecap:round;stroke-linejoin:round;stroke-miterlimit:4;stroke-dasharray:none;stroke-dashoffset:0;stroke-opacity:1;marker:none;enable-background:accumulate"
       id="use14087"
       d="m 10.532256,-30.887215 c -0.822064,0 -1.483871,0.661806 -1.483871,1.483871 v 4.451613 H 6.822579 c -0.822065,0 -1.483871,0.661806 -1.483871,1.483871 v 8.16129 c 0,0.822065 0.661806,1.483872 1.483871,1.483872 h 82.354845 c 0.822064,0 1.483871,-0.661807 1.483871,-1.483872 v -8.16129 c 0,-0.822065 -0.661807,-1.483871 -1.483871,-1.483871 H 42.43548 v -4.451613 c 0,-0.822065 -0.661807,-1.483871 -1.483871,-1.483871 z" />
    <g
       id="use14089"
       transform="matrix(0.7439639,0,0,0.73596427,0.39496097,-41.694664)">
      <rect
         style="display:inline;overflow:visible;visibility:visible;opacity:0.3;fill:url(#linearGradient22432);fill-opacity:1;fill-rule:nonzero;stroke:none;stroke-width:1;marker:none"
         id="rect22426"
         y="99.870178"
         x="12.462574"
         height="16.129816"
         width="103.05159" />
      <path
         style="display:inline;overflow:visible;visibility:visible;opacity:0.3;fill:url(#radialGradient22434);fill-opacity:1;fill-rule:nonzero;stroke:none;stroke-width:1;marker:none"
         id="path22428"
         d="m 115.51417,99.870734 c 0,0 0,16.128926 0,16.128926 4.26271,0.0304 10.30516,-3.61367 10.30516,-8.0655 0,-4.45183 -4.75687,-8.063426 -10.30516,-8.063426 z" />
      <path
         style="display:inline;overflow:visible;visibility:visible;opacity:0.3;fill:url(#radialGradient22436);fill-opacity:1;fill-rule:nonzero;stroke:none;stroke-width:1;marker:none"
         id="path22430"
         d="m 12.462574,99.870734 c 0,0 0,16.128926 0,16.128926 -4.2627113,0.0304 -10.3051588,-3.61367 -10.3051588,-8.0655 0,-4.45183 4.7568636,-8.063426 10.3051588,-8.063426 z" />
    </g>
    <path
       style="display:inline;overflow:visible;visibility:visible;fill:url(#linearGradient22440);fill-opacity:1;fill-rule:nonzero;stroke:none;stroke-width:0.741935;marker:none;enable-background:accumulate"
       id="use14091"
       d="m 5.153224,-17.532532 85.693547,7.42e-4 c 1.238001,0 2.04033,0.878266 2.04033,1.970158 l -2.015453,53.256638 c 0.02864,1.381566 -0.408176,1.929359 -1.846559,1.900386 L 7.46186,39.560742 c -1.237986,0 -2.486345,-0.81535 -2.486345,-1.907249 L 3.112901,-15.561604 c 0,-1.0919 0.802329,-1.97093 2.040323,-1.97093 z" />
    <path
       style="opacity:0.4;fill:url(#linearGradient22444);fill-opacity:1;stroke:none;stroke-width:0.741935"
       id="use14093"
       d="m 4.799113,-17.903507 86.401762,7.42e-4 c 1.248232,0 2.057194,0.88967 2.057194,1.995754 l -2.03211,53.948286 c 0.02886,1.399505 -0.411551,1.954414 -1.86182,1.925063 L 7.126832,39.931168 c -1.248218,0 -2.506889,-0.825945 -2.506889,-1.93203 l -1.87801,-53.906121 c 0,-1.106077 0.808962,-1.996526 2.05718,-1.996526 z" />
    <path
       style="display:inline;overflow:visible;visibility:visible;opacity:0.5;fill:none;stroke:url(#linearGradient22448);stroke-width:0.741935;stroke-linecap:round;stroke-linejoin:round;stroke-miterlimit:4;stroke-dasharray:none;stroke-dashoffset:0;stroke-opacity:1;marker:none;enable-background:accumulate"
       id="use14095"
       d="m 5.153224,-16.790448 c -2.113641,0.220028 -1.045632,2.79479 -1.216693,4.243997 0.583043,16.7291248 1.168296,33.458198 1.749959,50.187348 0.881924,1.847226 3.286841,0.951198 4.925205,1.168051 26.142199,0.01521 52.284408,0.03057 78.426616,0.04578 1.903806,-0.12265 0.858575,-2.832732 1.226842,-4.196054 0.634095,-16.745109 1.886683,-50.133587 1.886683,-50.133587 0,-0.862196 -0.578651,-1.315526 -1.637734,-1.315526 -27.517882,0 -57.843006,0 -85.360878,0 z" />
    <path
       style="display:inline;overflow:visible;visibility:visible;opacity:0.3;fill:none;stroke:#000000;stroke-width:0.741935;stroke-linecap:round;stroke-linejoin:round;stroke-miterlimit:4;stroke-dasharray:none;stroke-dashoffset:0;stroke-opacity:1;marker:none;enable-background:accumulate"
       id="path3369-7-1"
       d="m 5.153224,-17.532539 85.693547,7.42e-4 c 1.238001,0 2.04033,0.878266 2.04033,1.970157 l -2.015453,53.256639 c 0.02864,1.381565 -0.408176,1.929359 -1.846559,1.900386 L 7.46186,39.560735 c -1.237986,0 -2.486345,-0.81535 -2.486345,-1.90725 L 3.112901,-15.561612 c 0,-1.091899 0.802329,-1.970929 2.040323,-1.970929 z" />
    <path
       style="color:#000000;display:inline;overflow:visible;visibility:visible;opacity:0.3;fill:#ffffff;fill-opacity:1;fill-rule:nonzero;stroke:none;stroke-width:1.26129;marker:none;enable-background:accumulate"
       id="rect6430-9-7"
       d="m 49.599795,-5.2677445 c -0.213603,-0.01491 -0.449012,0.04674 -0.649194,0.162298 l -11.24496,6.491936 h 8.903226 l 2.318549,-1.34475799 0.765121,1.34475799 h 4.3125 l -3.524194,-6.097783 c -0.192628,-0.333633 -0.525038,-0.531567 -0.881048,-0.556451 z M 33.903221,3.5891105 27.759068,7.1364897 C 27.225245,7.4446972 27.033529,8.1097311 27.341729,8.6435463 L 33.903221,20.004434 V 12.585079 L 32.233866,9.6868931 33.903221,8.7131027 Z m 3.33871,0.092742 c -0.616407,0 -1.112903,0.4965032 -1.112903,1.1129033 V 29.255445 c 0,0.6164 0.496496,1.112903 1.112903,1.112903 h 24.483872 c 0.6164,0 1.112904,-0.496503 1.112904,-1.112903 V 4.7947558 c 0,-0.6164001 -0.496504,-1.1129033 -1.112904,-1.1129033 z m 2.596775,4.4284276 H 59.129029 V 23.690927 H 39.838706 Z" />
    <path
       style="color:#000000;display:inline;overflow:visible;visibility:visible;fill:#175785;fill-opacity:0.552163;fill-rule:nonzero;stroke:none;stroke-width:1.26129;marker:none;enable-background:accumulate"
       id="rect6430-9"
       d="m 49.599795,-6.0093095 c -0.213603,-0.01491 -0.449012,0.04674 -0.649194,0.162299 l -11.24496,6.49193501 h 8.903226 l 2.318549,-1.344758 0.765121,1.344758 h 4.3125 L 50.480843,-5.4528575 c -0.192628,-0.333634 -0.525038,-0.531567 -0.881048,-0.556452 z M 33.903221,2.847546 27.759068,6.3949252 C 27.225245,6.7031326 27.033529,7.3681665 27.341729,7.9019817 L 33.903221,19.262869 V 11.843514 L 32.233866,8.9453285 33.903221,7.9715382 Z m 3.33871,0.092742 c -0.616407,0 -1.112903,0.4965033 -1.112903,1.1129033 V 28.513881 c 0,0.6164 0.496496,1.112903 1.112903,1.112903 h 24.483872 c 0.6164,0 1.112904,-0.496503 1.112904,-1.112903 V 4.0531912 c 0,-0.6164 -0.496504,-1.1129033 -1.112904,-1.1129033 z m 2.596775,4.4284277 H 59.129029 V 22.949362 H 39.838706 Z" />
    <path
       style="color:#000000;display:inline;overflow:visible;visibility:visible;fill:#175785;fill-opacity:0.552163;fill-rule:nonzero;stroke:none;stroke-width:1.26129;marker:none;enable-background:accumulate"
       id="path163"
       d="m 49.599795,-6.0093095 c -0.213603,-0.01491 -0.449012,0.04674 -0.649194,0.162299 l -11.24496,6.49193501 h 8.903226 l 2.318549,-1.344758 0.765121,1.344758 h 4.3125 L 50.480843,-5.4528575 c -0.192628,-0.333634 -0.525038,-0.531567 -0.881048,-0.556452 z M 33.903221,2.847546 27.759068,6.3949252 C 27.225245,6.7031326 27.033529,7.3681665 27.341729,7.9019817 L 33.903221,19.262869 V 11.843514 L 32.233866,8.9453285 33.903221,7.9715382 Z m 3.33871,0.092742 c -0.616407,0 -1.112903,0.4965033 -1.112903,1.1129033 V 28.513881 c 0,0.6164 0.496496,1.112903 1.112903,1.112903 h 24.483872 c 0.6164,0 1.112904,-0.496503 1.112904,-1.112903 V 4.0531912 c 0,-0.6164 -0.496504,-1.1129033 -1.112904,-1.1129033 z m 2.596775,4.4284277 H 59.129029 V 22.949362 H 39.838706 Z" />
  </g>
</svg>
