<?xml version="1.0" encoding="UTF-8" standalone="no"?>
<svg
   version="1.1"
   id="svg18157"
   height="96"
   width="96"
   xmlns:xlink="http://www.w3.org/1999/xlink"
   xmlns="http://www.w3.org/2000/svg"
   xmlns:svg="http://www.w3.org/2000/svg"
   xmlns:rdf="http://www.w3.org/1999/02/22-rdf-syntax-ns#"
   xmlns:cc="http://creativecommons.org/ns#"
   xmlns:dc="http://purl.org/dc/elements/1.1/">
  <defs
     id="defs18159">
    <linearGradient
       id="linearGradient5060-820-91-9-0">
      <stop
         offset="0"
         style="stop-color:#000000;stop-opacity:1"
         id="stop2681-778-5-1" />
      <stop
         offset="1"
         style="stop-color:#000000;stop-opacity:0"
         id="stop2683-2-86-2" />
    </linearGradient>
    <linearGradient
       id="linearGradient5048-585-73-1-5">
      <stop
         offset="0"
         style="stop-color:#000000;stop-opacity:0"
         id="stop2667-99-4-6" />
      <stop
         offset="0.5"
         style="stop-color:#000000;stop-opacity:1"
         id="stop2669-5-9-4" />
      <stop
         offset="1"
         style="stop-color:#000000;stop-opacity:0"
         id="stop2671-56-4-2" />
    </linearGradient>
    <linearGradient
       id="linearGradient4646-7-4-3">
      <stop
         id="stop4648-8-0-3"
         style="stop-color:#f9f9f9;stop-opacity:1"
         offset="0" />
      <stop
         id="stop4650-1-7-3"
         style="stop-color:#d8d8d8;stop-opacity:1"
         offset="1" />
    </linearGradient>
    <linearGradient
       gradientTransform="matrix(0.75271761,0,0,0.75271761,-210.96525,-173.75298)"
       gradientUnits="userSpaceOnUse"
       xlink:href="#61299"
       id="linearGradient2448"
       x1="356"
       x2="356"
       y1="292"
       y2="264" />
    <linearGradient
       id="61299">
      <stop
         id="stop4661"
         offset="0"
         style="stop-color:#000000;stop-opacity:0.498" />
      <stop
         id="stop4663"
         offset="1"
         style="stop-color:#000000;stop-opacity:0" />
    </linearGradient>
    <linearGradient
       gradientTransform="matrix(1.3426317,0,0,1.3066005,5.9992141,9.2705349)"
       gradientUnits="userSpaceOnUse"
       xlink:href="#34542"
       id="linearGradient2446"
       x1="27.3354"
       x2="27.3354"
       y1="-11.032269"
       y2="22.380869" />
    <linearGradient
       id="34542">
      <stop
         id="stop3456-4-9-38-1-8"
         offset="0"
         style="stop-color:#ffffff;stop-opacity:1" />
      <stop
         id="stop3458-39-80-3-5-5"
         offset="0.002736"
         style="stop-color:#ffffff;stop-opacity:0.23529412" />
      <stop
         id="stop3460-7-0-2-4-2"
         offset="0.99001008"
         style="stop-color:#ffffff;stop-opacity:0.15686275" />
      <stop
         id="stop3462-0-9-8-7-2"
         offset="1"
         style="stop-color:#ffffff;stop-opacity:0.39215687" />
    </linearGradient>
    <linearGradient
       gradientTransform="matrix(0.97016358,0,0,0.81496743,2.1042081,3.1188975)"
       gradientUnits="userSpaceOnUse"
       xlink:href="#4632"
       id="linearGradient2444"
       x1="36.413651"
       x2="36.413651"
       y1="-8.291666"
       y2="43.430573" />
    <linearGradient
       id="4632">
      <stop
         id="stop4634-4-4-7-7-4"
         offset="0"
         style="stop-color:#b4cee1;stop-opacity:1" />
      <stop
         id="stop4636-3-1-5-1-3"
         offset="1"
         style="stop-color:#5d9fcd;stop-opacity:1" />
    </linearGradient>
    <radialGradient
       cx="605.71429"
       cy="486.64789"
       fx="605.71429"
       fy="486.64789"
       gradientTransform="matrix(-0.06247658,0,0,0.04959081,46.731368,13.669462)"
       gradientUnits="userSpaceOnUse"
       xlink:href="#linearGradient5060-820-91-9-0"
       id="radialGradient2442"
       r="117.14286" />
    <radialGradient
       cx="605.71429"
       cy="486.64789"
       fx="605.71429"
       fy="486.64789"
       gradientTransform="matrix(0.06247659,0,0,0.04959081,49.207846,13.669462)"
       gradientUnits="userSpaceOnUse"
       xlink:href="#linearGradient5060-820-91-9-0"
       id="radialGradient2440"
       r="117.14286" />
    <linearGradient
       gradientTransform="matrix(0.16108456,0,0,0.04959081,-10.250944,13.669462)"
       gradientUnits="userSpaceOnUse"
       xlink:href="#linearGradient5048-585-73-1-5"
       id="linearGradient2438"
       x1="302.85715"
       x2="302.85715"
       y1="366.64789"
       y2="609.50507" />
    <linearGradient
       gradientTransform="matrix(2.0789344,0,0,2.0789344,-107.82754,-50.79226)"
       gradientUnits="userSpaceOnUse"
       xlink:href="#linearGradient4646-7-4-3"
       id="linearGradient2436"
       x1="63.412205"
       x2="63.412205"
       y1="19.663828"
       y2="21.215551" />
  </defs>
  <metadata
     id="metadata18162">
    <rdf:RDF>
      <cc:Work
         rdf:about="">
        <dc:format>image/svg+xml</dc:format>
        <dc:type
           rdf:resource="http://purl.org/dc/dcmitype/StillImage" />
      </cc:Work>
    </rdf:RDF>
  </metadata>
  <g
     transform="translate(-1.7920898e-4,48.000002)"
     id="g3222">
    <path
       d="m 9.4584931,-32.218664 c -0.834011,-6.8e-5 -1.3829,0.808245 -1.3829,1.642256 l -1.6e-5,4.356203 h -2.258152 c -0.834011,0 -1.505436,0.671424 -1.505436,1.505435 V -1.3806445 H 91.627228 l 0.02717,-23.3341255 c 7.52e-4,-0.834011 -0.671428,-1.505435 -1.505439,-1.505435 l -47.448383,-1.2e-4 -0.03726,-4.49024 c -0.0068,-0.833981 -0.671424,-1.505367 -1.505435,-1.505435 z"
       id="path2416"
       style="color:#000000;display:inline;overflow:visible;visibility:visible;fill:url(#linearGradient2436);fill-opacity:1;fill-rule:nonzero;stroke:none;stroke-width:0.752659;marker:none;enable-background:accumulate" />
    <path
       d="m 9.9573871,-32.618425 c -1.41374,0.01543 -2.258146,0.825031 -2.258153,2.148271 l -1.5e-5,3.87347 c -0.723061,0 -1.11184,-0.0023 -1.584019,0 -1.263482,0.006 -2.166036,0.71125 -2.166036,2.132434 0.07046,20.6979645 -0.01353,23.4599635 -0.01353,23.4599635 H 92.00359 l 0.0271,-23.4809195 c 0.0015,-1.323247 -0.871538,-2.126909 -2.285284,-2.111478 H 43.076909 v -3.776701 c 0,-1.32324 -0.931104,-2.242263 -2.25652,-2.242376 l -30.8630169,-0.0026 z"
       id="path2418"
       style="color:#000000;display:inline;overflow:visible;visibility:visible;opacity:0.3;fill:none;stroke:#000000;stroke-width:0.752718;stroke-linecap:butt;stroke-linejoin:miter;stroke-miterlimit:4;stroke-dasharray:none;stroke-dashoffset:0;stroke-opacity:1;marker:none;enable-background:accumulate" />
    <path
       d="m 9.8348521,-31.865828 c -0.834011,-7.5e-5 -1.382901,0.808246 -1.382901,1.642257 l -1.5e-5,4.379725 h -2.258153 c -0.834011,0 -1.505435,0.671424 -1.505435,1.505435 l 1.5e-5,22.5814075 H 91.250888 l 0.0271,-22.5814075 c 7.53e-4,-0.834011 -0.671424,-1.505435 -1.505435,-1.505435 l -47.448322,-1.21e-4 1.5e-5,-4.379604 c 0,-0.834011 -0.708729,-1.639525 -1.54274,-1.639592 z"
       id="path2420"
       style="color:#000000;display:inline;overflow:visible;visibility:visible;opacity:0.3;fill:none;stroke:#ffffff;stroke-width:0.752718;stroke-linecap:round;stroke-linejoin:round;stroke-miterlimit:4;stroke-dasharray:none;stroke-dashoffset:0;stroke-opacity:1;marker:none;enable-background:accumulate" />
    <rect
       height="12.043482"
       id="rect2422"
       style="display:inline;overflow:visible;visibility:visible;opacity:0.3;fill:url(#linearGradient2438);fill-opacity:1;fill-rule:nonzero;stroke:none;stroke-width:0.750706;marker:none;enable-background:new"
       width="77.780807"
       x="9.0792093"
       y="31.85182" />
    <path
       d="m 86.860016,31.852238 c 0,0 0,12.042819 0,12.042819 3.217393,0.02266 7.778083,-2.698184 7.778083,-6.022185 0,-3.324001 -3.590369,-6.020634 -7.778083,-6.020634 z"
       id="path2424"
       style="display:inline;overflow:visible;visibility:visible;opacity:0.3;fill:url(#radialGradient2440);fill-opacity:1;fill-rule:nonzero;stroke:none;stroke-width:0.750706;marker:none;enable-background:new" />
    <path
       d="m 9.0792061,31.852238 c 0,0 0,12.042819 0,12.042819 -3.217394,0.02269 -7.778087,-2.698184 -7.778087,-6.022185 0,-3.324001 3.590365,-6.020634 7.778087,-6.020634 z"
       id="path2426"
       style="display:inline;overflow:visible;visibility:visible;opacity:0.3;fill:url(#radialGradient2442);fill-opacity:1;fill-rule:nonzero;stroke:none;stroke-width:0.750706;marker:none;enable-background:new" />
    <path
       d="M 0.92476007,-4.0151565 4.3119891,38.137031 c 0,0 0,1.505435 1.505436,1.505435 H 90.121308 c 1.50592,0 1.50592,-1.505435 1.50592,-1.505435 l 3.38723,-42.1521875 c 0.07301,-0.75198 0.376358,-2.258153 -1.505436,-2.258153 H 2.8065541 c -2.25815303,0 -1.96787503,1.52265 -1.88179403,2.258153 z"
       id="path2428"
       style="color:#000000;display:inline;overflow:visible;visibility:visible;fill:url(#linearGradient2444);fill-opacity:1;fill-rule:nonzero;stroke:#000000;stroke-width:0.752718;stroke-miterlimit:4;stroke-dasharray:none;stroke-opacity:0.301961;marker:none;enable-background:accumulate" />
    <path
       d="m 1.7067661,-3.9088205 3.357941,42.0458515 c 0,0 0,0.752718 0.752718,0.752718 H 90.121797 c 0.752718,0 0.752718,-0.752718 0.752718,-0.752718 L 94.26174,-4.0151565 c 0.115753,-1.200547 0,-1.505435 -0.752718,-1.505435 H 2.8377391 c -0.783902,0 -1.362125,-0.16958 -1.130973,1.611771 z"
       id="path2430"
       style="color:#000000;display:inline;overflow:visible;visibility:visible;opacity:0.5;fill:none;stroke:url(#linearGradient2446);stroke-width:0.752718;stroke-linecap:round;stroke-linejoin:miter;stroke-miterlimit:4;stroke-dasharray:none;stroke-dashoffset:0;stroke-opacity:1;marker:none;enable-background:accumulate" />
    <path
       d="m 2.8065541,-6.6496685 c -0.606833,0 -1.075136,0.101248 -1.436336,0.294027 -0.361206,0.192786 -0.60217403,0.484231 -0.73067003,0.789473 -0.256978,0.610491 -0.129053,1.246094 -0.0882,1.595114 l 3.38575303,42.1389615 -0.0015,-0.03086 c 0,0 -0.0053,0.45419 0.22787,0.920318 0.233102,0.466105 0.775789,0.961461 1.653962,0.961461 H 90.121805 c 0.878376,0 1.420773,-0.493873 1.653928,-0.960009 0.233139,-0.466135 0.227862,-0.921785 0.227862,-0.921785 l -0.0015,0.03086 3.387229,-42.1463085 v -0.0045 c 0.0344,-0.350646 0.153344,-0.963035 -0.03673,-1.558359 -0.09532,-0.298505 -0.285912,-0.596453 -0.598357,-0.799762 -0.312431,-0.203197 -0.724551,-0.308615 -1.245206,-0.308615 z"
       id="path2432"
       style="color:#000000;font-style:normal;font-variant:normal;font-weight:normal;font-stretch:normal;font-size:medium;line-height:normal;font-family:sans-serif;font-variant-ligatures:normal;font-variant-position:normal;font-variant-caps:normal;font-variant-numeric:normal;font-variant-alternates:normal;font-feature-settings:normal;text-indent:0;text-align:start;text-decoration:none;text-decoration-line:none;text-decoration-style:solid;text-decoration-color:#000000;letter-spacing:normal;word-spacing:normal;text-transform:none;writing-mode:lr-tb;direction:ltr;text-orientation:mixed;dominant-baseline:auto;baseline-shift:baseline;text-anchor:start;white-space:normal;shape-padding:0;clip-rule:nonzero;display:inline;overflow:visible;visibility:visible;opacity:0.3;isolation:auto;mix-blend-mode:normal;color-interpolation:sRGB;color-interpolation-filters:linearRGB;solid-color:#000000;solid-opacity:1;vector-effect:none;fill:url(#linearGradient2448);fill-opacity:1;fill-rule:nonzero;stroke:none;stroke-width:0.752718;stroke-linecap:butt;stroke-linejoin:miter;stroke-miterlimit:4;stroke-dasharray:none;stroke-dashoffset:0;stroke-opacity:1;marker:none;color-rendering:auto;image-rendering:auto;shape-rendering:auto;text-rendering:auto;enable-background:accumulate" />
    <path
       d="m 57.379033,4.2647372 c -3.702242,0 -6.703779,2.4482216 -6.703779,5.4682752 0,0.3578496 0.06097,0.6974076 0.140006,1.0360856 l -9.314881,4.086828 c -1.18824,-0.874018 -2.719719,-1.439031 -4.445851,-1.439031 -3.702242,0 -6.703778,2.448222 -6.703778,5.468275 0,3.020032 3.001536,5.468276 6.703778,5.468276 1.690679,0 3.195964,-0.539202 4.375171,-1.38147 l 9.385561,4.259509 c -0.06323,0.303631 -0.140006,0.60243 -0.140006,0.920965 0,3.020031 3.001537,5.468275 6.703779,5.468275 3.702467,0 6.704004,-2.448244 6.704004,-5.468275 0,-3.020054 -3.001537,-5.468276 -6.704004,-5.468276 -1.674195,0 -3.200255,0.496139 -4.375172,1.32391 l -9.385334,-4.259508 c 0.05645,-0.285883 0.140005,-0.564517 0.140005,-0.863406 0,-0.277188 -0.02258,-0.539743 -0.07,-0.805844 l 9.456015,-4.144388 c 1.158884,0.780079 2.614264,1.26635 4.234037,1.26635 3.702467,0 6.703778,-2.448245 6.703778,-5.4682756 0,-3.0200536 -3.001311,-5.4682752 -6.703778,-5.4682752 z"
       id="path13506"
       style="color:#000000;display:inline;overflow:visible;visibility:visible;opacity:0.2;fill:#ffffff;fill-opacity:1;fill-rule:nonzero;stroke:none;stroke-width:0.848591;marker:none;enable-background:accumulate" />
    <path
       d="m 57.379033,3.5120196 c -3.702242,0 -6.703779,2.4482216 -6.703779,5.4682752 0,0.3578495 0.06097,0.6974079 0.140006,1.0360852 l -9.314881,4.086828 c -1.18824,-0.874018 -2.719719,-1.43903 -4.445851,-1.43903 -3.702242,0 -6.703778,2.448221 -6.703778,5.468275 0,3.020031 3.001536,5.468275 6.703778,5.468275 1.690679,0 3.195964,-0.539201 4.375171,-1.38147 l 9.385561,4.259509 c -0.06323,0.303632 -0.140006,0.60243 -0.140006,0.920966 0,3.020031 3.001537,5.468275 6.703779,5.468275 3.702467,0 6.704004,-2.448244 6.704004,-5.468275 0,-3.020055 -3.001537,-5.468276 -6.704004,-5.468276 -1.674195,0 -3.200255,0.496138 -4.375172,1.323909 l -9.385334,-4.259509 c 0.05645,-0.285882 0.140005,-0.564515 0.140005,-0.863404 0,-0.277189 -0.02258,-0.539744 -0.07,-0.805845 l 9.456015,-4.144388 c 1.158884,0.780079 2.614264,1.26635 4.234037,1.26635 3.702467,0 6.703778,-2.448244 6.703778,-5.4682752 0,-3.0200536 -3.001311,-5.4682752 -6.703778,-5.4682752 z"
       id="path13489"
       style="color:#000000;display:inline;overflow:visible;visibility:visible;opacity:0.55;fill:#175785;fill-opacity:1;fill-rule:nonzero;stroke:none;stroke-width:0.848591;marker:none;enable-background:accumulate" />
    <path
       d="m 57.379033,3.5120196 c -3.702242,0 -6.703779,2.4482216 -6.703779,5.4682752 0,0.3578495 0.06097,0.6974079 0.140006,1.0360852 l -9.314881,4.086828 c -1.18824,-0.874018 -2.719719,-1.43903 -4.445851,-1.43903 -3.702242,0 -6.703778,2.448221 -6.703778,5.468275 0,3.020031 3.001536,5.468275 6.703778,5.468275 1.690679,0 3.195964,-0.539201 4.375171,-1.38147 l 9.385561,4.259509 c -0.06323,0.303632 -0.140006,0.60243 -0.140006,0.920966 0,3.020031 3.001537,5.468275 6.703779,5.468275 3.702467,0 6.704004,-2.448244 6.704004,-5.468275 0,-3.020055 -3.001537,-5.468276 -6.704004,-5.468276 -1.674195,0 -3.200255,0.496138 -4.375172,1.323909 l -9.385334,-4.259509 c 0.05645,-0.285882 0.140005,-0.564515 0.140005,-0.863404 0,-0.277189 -0.02258,-0.539744 -0.07,-0.805845 l 9.456015,-4.144388 c 1.158884,0.780079 2.614264,1.26635 4.234037,1.26635 3.702467,0 6.703778,-2.448244 6.703778,-5.4682752 0,-3.0200536 -3.001311,-5.4682752 -6.703778,-5.4682752 z"
       id="path47"
       style="color:#000000;display:inline;overflow:visible;visibility:visible;opacity:0.55;fill:#175785;fill-opacity:1;fill-rule:nonzero;stroke:none;stroke-width:0.848591;marker:none;enable-background:accumulate" />
  </g>
</svg>
