<?xml version="1.0" encoding="UTF-8" standalone="no"?>
<svg
   version="1.1"
   id="svg18157"
   height="96"
   width="96"
   xmlns:xlink="http://www.w3.org/1999/xlink"
   xmlns="http://www.w3.org/2000/svg"
   xmlns:svg="http://www.w3.org/2000/svg"
   xmlns:rdf="http://www.w3.org/1999/02/22-rdf-syntax-ns#"
   xmlns:cc="http://creativecommons.org/ns#"
   xmlns:dc="http://purl.org/dc/elements/1.1/">
  <defs
     id="defs18159">
    <linearGradient
       id="linearGradient5060-820-91-9-0">
      <stop
         offset="0"
         style="stop-color:#000000;stop-opacity:1"
         id="stop2681-778-5-1" />
      <stop
         offset="1"
         style="stop-color:#000000;stop-opacity:0"
         id="stop2683-2-86-2" />
    </linearGradient>
    <linearGradient
       id="linearGradient5048-585-73-1-5">
      <stop
         offset="0"
         style="stop-color:#000000;stop-opacity:0"
         id="stop2667-99-4-6" />
      <stop
         offset="0.5"
         style="stop-color:#000000;stop-opacity:1"
         id="stop2669-5-9-4" />
      <stop
         offset="1"
         style="stop-color:#000000;stop-opacity:0"
         id="stop2671-56-4-2" />
    </linearGradient>
    <linearGradient
       id="4632">
      <stop
         style="stop-color:#b4cee1;stop-opacity:1"
         offset="0"
         id="stop4634-4-4-7-7-4" />
      <stop
         style="stop-color:#5d9fcd;stop-opacity:1"
         offset="1"
         id="stop4636-3-1-5-1-3" />
    </linearGradient>
    <linearGradient
       id="linearGradient3104-8-8-97-4-6-11-5-5-1-0">
      <stop
         id="stop3106-5-4-3-5-0-2-1-0-1-2"
         style="stop-color:#000000;stop-opacity:0.32173914"
         offset="0" />
      <stop
         id="stop3108-4-3-7-8-2-0-7-9-4-9"
         style="stop-color:#000000;stop-opacity:0.27826086"
         offset="1" />
    </linearGradient>
    <linearGradient
       id="linearGradient9235">
      <stop
         offset="0"
         style="stop-color:#ffffff;stop-opacity:1"
         id="stop9237" />
      <stop
         offset="0.1088333"
         style="stop-color:#ffffff;stop-opacity:0.23529412"
         id="stop9239" />
      <stop
         offset="0.97909725"
         style="stop-color:#ffffff;stop-opacity:0.15686275"
         id="stop9241" />
      <stop
         offset="1"
         style="stop-color:#ffffff;stop-opacity:0.39215687"
         id="stop9243" />
    </linearGradient>
    <linearGradient
       id="linearGradient6129-963-697-142-998-580-273">
      <stop
         offset="0"
         style="stop-color:#0a0a0a;stop-opacity:0.498"
         id="stop2661" />
      <stop
         offset="1"
         style="stop-color:#0a0a0a;stop-opacity:0"
         id="stop2663" />
    </linearGradient>
    <linearGradient
       id="linearGradient8272">
      <stop
         id="stop8274"
         style="stop-color:#ffffff;stop-opacity:1"
         offset="0" />
      <stop
         id="stop8276"
         style="stop-color:#ffffff;stop-opacity:0.23529412"
         offset="0.0221225" />
      <stop
         id="stop8278"
         style="stop-color:#ffffff;stop-opacity:0.15686275"
         offset="0.97909725" />
      <stop
         id="stop8280"
         style="stop-color:#ffffff;stop-opacity:0.39215687"
         offset="1" />
    </linearGradient>
    <linearGradient
       y2="21.451139"
       x2="55.364479"
       y1="19.073107"
       x1="55.369274"
       gradientTransform="matrix(2.7208842,0,0,2.6681693,-117.21619,-66.161783)"
       gradientUnits="userSpaceOnUse"
       id="linearGradient26390-3"
       xlink:href="#linearGradient6404-7-5" />
    <linearGradient
       id="linearGradient6404-7-5">
      <stop
         offset="0"
         style="stop-color:#f9f9f9;stop-opacity:1"
         id="stop6406-1-8" />
      <stop
         offset="1"
         style="stop-color:#c9c9c9;stop-opacity:1;"
         id="stop6408-9-6" />
    </linearGradient>
    <linearGradient
       xlink:href="#linearGradient9235"
       id="linearGradient4"
       gradientUnits="userSpaceOnUse"
       gradientTransform="matrix(2.6659104,0,0,2.641186,-143.31564,-65.951102)"
       x1="97.373955"
       y1="10.671803"
       x2="97.538795"
       y2="44.260689" />
    <linearGradient
       xlink:href="#linearGradient5048-585-73-1-5"
       id="linearGradient1-3"
       gradientUnits="userSpaceOnUse"
       gradientTransform="matrix(0.21630186,0,0,0.06775067,-14.860509,74.563179)"
       x1="302.85715"
       y1="366.64789"
       x2="302.85715"
       y2="609.50507" />
    <radialGradient
       xlink:href="#linearGradient5060-820-91-9-0"
       id="radialGradient5877-7-7"
       gradientUnits="userSpaceOnUse"
       gradientTransform="matrix(0.08171356,0,0,0.06775361,66.293042,74.561528)"
       cx="605.71429"
       cy="486.64789"
       fx="605.71429"
       fy="486.64789"
       r="117.14286" />
    <radialGradient
       xlink:href="#linearGradient5060-820-91-9-0"
       id="radialGradient5879-0-5"
       gradientUnits="userSpaceOnUse"
       gradientTransform="matrix(-0.08171356,0,0,0.06775361,60.341243,74.561528)"
       cx="605.71429"
       cy="486.64789"
       fx="605.71429"
       fy="486.64789"
       r="117.14286" />
    <linearGradient
       xlink:href="#linearGradient8272"
       id="linearGradient5891-6-3"
       gradientUnits="userSpaceOnUse"
       gradientTransform="matrix(2.6765094,0,0,2.7082642,-144.75274,-69.253692)"
       x1="97.556915"
       y1="22.971161"
       x2="97.489944"
       y2="44.09827" />
    <linearGradient
       xlink:href="#linearGradient3104-8-8-97-4-6-11-5-5-1-0"
       id="linearGradient2"
       gradientUnits="userSpaceOnUse"
       gradientTransform="matrix(2.1671336,0,0,2.2423817,141.92926,-68.494689)"
       x1="-51.786404"
       y1="53.514328"
       x2="-51.786404"
       y2="3.6336823" />
    <linearGradient
       xlink:href="#4632"
       id="linearGradient3"
       gradientUnits="userSpaceOnUse"
       gradientTransform="matrix(1.011623,0,0,1.0335888,147.29556,-71.10204)"
       x1="-90.695114"
       y1="60.633263"
       x2="-91"
       y2="119.05979" />
    <linearGradient
       xlink:href="#linearGradient6129-963-697-142-998-580-273"
       id="linearGradient5"
       gradientUnits="userSpaceOnUse"
       gradientTransform="matrix(3.0808527,0,0,2.721491,-10.613541,-66.610377)"
       x1="22.934725"
       y1="48.1544"
       x2="22.934725"
       y2="36.599415" />
  </defs>
  <metadata
     id="metadata18162">
    <rdf:RDF>
      <cc:Work
         rdf:about="">
        <dc:format>image/svg+xml</dc:format>
        <dc:type
           rdf:resource="http://purl.org/dc/dcmitype/StillImage" />
      </cc:Work>
    </rdf:RDF>
  </metadata>
  <g
     id="layer1-1"
     transform="matrix(0.73523509,0,0,0.73523509,1.439817,47.960254)"
     style="display:inline;stroke-width:1.3601">
    <path
       d="m 12.499284,-44.14949 c -1.714452,-0.01503 -2.8966644,1.091953 -2.8966644,2.846709 v 5.313946 c -0.9600604,0 -1.8515319,-0.003 -2.4784794,0 -1.6776169,0.008 -2.9619573,0.968054 -2.9619573,2.852692 l -4.6e-6,31.1500381 H 122.46579 l 0.0259,-31.1888811 c 0.003,-1.754763 -1.15721,-2.834311 -3.03435,-2.813849 H 57.206441 v -5.364896 c 0,-1.754755 -1.153404,-2.803588 -2.913237,-2.79572 z"
       id="path3468-2-5"
       style="color:#000000;display:inline;overflow:visible;visibility:visible;opacity:0.8;fill:none;stroke:url(#linearGradient2);stroke-width:1.3601;stroke-linecap:butt;stroke-linejoin:miter;stroke-miterlimit:4;stroke-dasharray:none;stroke-dashoffset:0;stroke-opacity:1;marker:none;enable-background:accumulate" />
    <path
       style="color:#000000;display:inline;overflow:visible;visibility:visible;fill:url(#linearGradient26390-3);fill-opacity:1;fill-rule:nonzero;stroke:none;stroke-width:1.3601;marker:none;enable-background:accumulate"
       d="m 12.331514,-43.469435 c -1.210633,0 -2.04884,0.94361 -2.04884,2.049916 v 6.110739 H 7.1046377 c -1.3243775,0.03531 -2.2624002,0.697491 -2.2624002,2.10157 V -2.6661595 H 121.81163 V -33.305379 c 0,-1.028489 -0.70599,-2.003401 -2.32083,-2.003401 H 56.526387 v -6.105443 c 0,-1.184823 -0.836955,-2.055212 -2.117872,-2.055212 z"
       id="rect8678-4-0-5" />
    <path
       style="color:#000000;display:inline;overflow:visible;visibility:visible;fill:none;stroke:url(#linearGradient4);stroke-width:1.3601;stroke-linecap:round;stroke-linejoin:round;stroke-miterlimit:4;stroke-dasharray:none;stroke-dashoffset:0;stroke-opacity:1;marker:none;enable-background:accumulate"
       d="m 12.532645,-42.78938 c -1.088609,0.0164 -1.569916,0.556685 -1.569916,1.529946 l 1e-6,6.630709 H 7.1366854 c -0.9896117,1.82e-4 -1.6143981,0.523851 -1.6143978,1.340155 l 4.6e-6,29.9423559 H 121.13157 l 1e-5,-29.5968319 c 0.0112,-1.351286 -0.61088,-1.703676 -1.7966,-1.686228 l -63.488648,5.49e-4 v -6.56591 c -0.0014,-1.036195 -0.417962,-1.601366 -1.438133,-1.594745 z"
       id="rect8678-3-4" />
    <g
       transform="matrix(1.0027339,0,0,0.9919518,-0.16331336,-57.066403)"
       id="g2479-7-7"
       style="display:inline;stroke-width:1.3601">
      <rect
         width="104.44287"
         height="16.453733"
         x="11.095708"
         y="99.403816"
         id="rect4173-5-6"
         style="display:inline;overflow:visible;visibility:visible;opacity:0.3;fill:url(#linearGradient1-3);fill-opacity:1;fill-rule:nonzero;stroke:none;stroke-width:1.3601;marker:none" />
      <path
         d="m 115.53858,99.403811 c 0,0 0,16.453539 0,16.453539 4.20805,0.031 10.17301,-3.6864 10.17301,-8.22783 0,-4.54143 -4.69587,-8.225709 -10.17301,-8.225709 z"
         id="path5058-9-5"
         style="display:inline;overflow:visible;visibility:visible;opacity:0.3;fill:url(#radialGradient5877-7-7);fill-opacity:1;fill-rule:nonzero;stroke:none;stroke-width:1.3601;marker:none" />
      <path
         d="m 11.095708,99.403811 c 0,0 0,16.453539 0,16.453539 -4.2080471,0.031 -10.1730073,-3.6864 -10.1730073,-8.22783 0,-4.54143 4.6958624,-8.225709 10.1730073,-8.225709 z"
         id="path5018-2-6"
         style="display:inline;overflow:visible;visibility:visible;opacity:0.3;fill:url(#radialGradient5879-0-5);fill-opacity:1;fill-rule:nonzero;stroke:none;stroke-width:1.3601;marker:none" />
    </g>
    <path
       d="M 1.4461337,-8.7866508 H 125.21543 c 1.26132,0.036452 2.27069,0.7572209 2.04016,2.7202184 l -5.25954,55.8474434 c -0.27665,1.702233 -1.45954,2.594051 -3.41252,2.637252 H 8.0773824 C 6.372245,52.445929 4.9608106,51.419249 4.6648685,49.781011 L -0.59467374,-6.0664324 c -0.15576009,-1.965689 0.78896997,-2.7149588 2.04080744,-2.7202184 z"
       id="path3369-2-1"
       style="display:inline;overflow:visible;visibility:visible;fill:url(#linearGradient3);fill-opacity:1;fill-rule:nonzero;stroke:#000000;stroke-width:1.3601;stroke-opacity:0.301961;marker:none;enable-background:accumulate"
       transform="translate(-0.0035254)" />
    <path
       style="display:inline;overflow:visible;visibility:visible;opacity:0.5;fill:none;stroke:url(#linearGradient5891-6-3);stroke-width:1.3601;stroke-linecap:round;stroke-linejoin:round;stroke-miterlimit:4;stroke-dasharray:none;stroke-dashoffset:0;stroke-opacity:1;marker:none;enable-background:accumulate"
       d="m 1.44549,-7.4265416 c -0.66139419,0.014934 -0.74092833,0.3659875 -0.68005456,1.2240982 L 6.0249777,49.732047 c 0.2199438,0.893238 1.2562375,1.374221 2.2210583,1.326106 H 118.41488 c 1.27977,-0.0072 2.06683,-0.464688 2.22143,-1.325479 l 5.25917,-55.9351174 c 0.11214,-0.9752993 -0.0419,-1.2221278 -0.68005,-1.2240982 z"
       id="path8263-9-2"
       transform="translate(-0.0035254)" />
    <path
       d="m 1.5382171,-9.4661899 123.5663929,10e-4 c 1.70681,0 2.83332,1.1959314 2.83332,2.7036494 l -5.263,56.5114925 c -0.24457,2.306196 -2.23515,3.308962 -4.0136,3.359997 L 7.7764768,53.11023 C 6.1210897,53.100913 4.2292605,51.707327 3.9726903,49.849109 L -1.2747284,-6.7446989 c 0,-1.507708 1.10615807,-2.721491 2.8129455,-2.721491 z"
       id="path6127-8-9"
       style="display:inline;opacity:0.4;fill:url(#linearGradient5);fill-opacity:1;stroke:none;stroke-width:1.3601"
       transform="translate(-0.0035254)" />
  </g>
  <g
     transform="translate(-1.7920898e-4,49.018828)"
     id="g3222"
     style="display:inline">
    <path
       style="color:#000000;display:inline;overflow:visible;visibility:visible;opacity:0.2;fill:#ffffff;fill-opacity:1;fill-rule:nonzero;stroke:none;stroke-width:1;stroke-dasharray:none;marker:none;enable-background:accumulate"
       id="path14061"
       d="m 32.477927,2.999998 c -0.938262,0 -1.648752,0.655519 -1.590718,1.46868 l 1.849427,26.418625 c 0.05796,0.813161 0.858249,1.46868 1.796511,1.46868 h 13.196118 0.48076 13.196044 c 0.938262,0 1.737121,-0.655519 1.79508,-1.46868 L 65.052082,4.468678 c 0.05796,-0.813161 -0.653961,-1.46868 -1.592224,-1.46868 H 48.721572 47.216137 Z m 0.702737,1.95824 h 2.258153 l 0.133758,1.953836 h -2.258153 z m 5.645382,0 h 8.425394 1.436335 8.425469 c 0.625509,0 1.100549,0.437005 1.062913,0.979119 l -0.685124,9.782393 c -0.03764,0.542115 -0.575603,0.97912 -1.201111,0.97912 h -7.80794 -1.02618 -7.807939 c -0.625508,0 -1.161744,-0.437005 -1.199681,-0.97912 L 37.763058,5.937357 c -0.03764,-0.542114 0.43748,-0.979119 1.062988,-0.979119 z m 21.674427,0 h 2.258153 L 62.624793,6.912074 H 60.36664 Z M 33.452621,8.870314 h 2.258153 l 0.136693,1.95824 h -2.258152 z m 26.775895,0 h 2.258153 l -0.138198,1.95824 h -2.258153 z m -26.501002,3.91648 h 2.258152 l 0.138199,1.953836 h -2.258152 z m 26.226035,0 h 2.258152 L 62.073502,14.74063 H 59.81535 Z M 34.003911,16.69887 h 2.258153 l 0.132328,1.95824 h -2.258153 z m 25.67324,0 h 2.258152 l -0.133757,1.95824 h -2.258153 z m -19.89553,1.95824 h 7.707978 0.958586 7.707979 c 0.625508,0 1.096107,0.437005 1.058471,0.97912 l -0.685047,9.782393 c -0.03764,0.542115 -0.569732,0.97912 -1.19524,0.97912 h -7.090525 -0.548354 -7.090601 c -0.625508,0 -1.158657,-0.437005 -1.196669,-0.97912 L 38.72458,19.63623 c -0.03764,-0.542115 0.431533,-0.97912 1.057041,-0.97912 z m -5.507183,1.95824 h 2.258153 l 0.138199,1.953836 h -2.258153 z m 25.130756,0 h 2.258153 l -0.136694,1.953836 H 59.2685 Z m -24.854358,3.912076 h 2.258153 l 0.136693,1.958241 H 34.68753 Z m 24.579465,0 h 2.258153 l -0.138199,1.958241 h -2.258152 z m -24.304572,3.916481 h 2.258152 l 0.133758,1.953836 h -2.258153 z m 24.028175,0 h 2.258152 l -0.132327,1.953836 h -2.258152 z" />
    <path
       style="color:#000000;display:inline;overflow:visible;visibility:visible;opacity:0.55;fill:#175785;fill-opacity:1;fill-rule:nonzero;stroke:none;stroke-width:1;stroke-dasharray:none;marker:none;enable-background:accumulate"
       id="path14035"
       d="m 32.477927,1.999998 c -0.938262,0 -1.648752,0.655519 -1.590718,1.46868 l 1.849427,26.418627 c 0.05796,0.81316 0.858249,1.46868 1.796511,1.46868 h 13.196118 0.48076 13.196044 c 0.938262,0 1.737121,-0.65552 1.79508,-1.46868 L 65.052082,3.468678 c 0.05796,-0.813161 -0.653961,-1.46868 -1.592224,-1.46868 H 48.721572 47.216137 Z m 0.702737,1.95824 h 2.258153 l 0.133758,1.953836 h -2.258153 z m 5.645382,0 h 8.425394 1.436335 8.425469 c 0.625509,0 1.100549,0.437005 1.062913,0.97912 l -0.685124,9.782393 c -0.03764,0.542114 -0.575603,0.97912 -1.201111,0.97912 h -7.80794 -1.02618 -7.807939 c -0.625508,0 -1.161744,-0.437005 -1.199681,-0.97912 L 37.763058,4.937358 c -0.03764,-0.542115 0.43748,-0.97912 1.062988,-0.97912 z m 21.674427,0 h 2.258153 L 62.624793,5.912074 H 60.36664 Z M 33.452621,7.870314 h 2.258153 l 0.136693,1.9582405 h -2.258152 z m 26.775895,0 h 2.258153 l -0.138198,1.9582405 h -2.258153 z m -26.501002,3.916481 h 2.258152 l 0.138199,1.953836 h -2.258152 z m 26.226035,0 h 2.258152 l -0.138199,1.953836 H 59.81535 Z m -25.949638,3.912076 h 2.258153 l 0.132328,1.95824 h -2.258153 z m 25.67324,0 h 2.258152 l -0.133757,1.95824 h -2.258153 z m -19.89553,1.95824 h 7.707978 0.958586 7.707979 c 0.625508,0 1.096107,0.437004 1.058471,0.979119 l -0.685047,9.782395 c -0.03764,0.542114 -0.569732,0.97912 -1.19524,0.97912 h -7.090525 -0.548354 -7.090601 c -0.625508,0 -1.158657,-0.437006 -1.196669,-0.979121 L 38.72458,18.63623 c -0.03764,-0.542115 0.431533,-0.97912 1.057041,-0.979119 z m -5.507183,1.95824 h 2.258153 l 0.138199,1.953837 h -2.258153 z m 25.130756,0 h 2.258153 l -0.136694,1.953837 H 59.2685 Z m -24.854358,3.912077 h 2.258153 l 0.136693,1.95824 H 34.68753 Z m 24.579465,0 h 2.258153 l -0.138199,1.95824 h -2.258152 z m -24.304572,3.91648 h 2.258152 l 0.133758,1.953837 h -2.258153 z m 24.028175,0 h 2.258152 l -0.132327,1.953837 h -2.258152 z" />
    <path
       style="color:#000000;display:inline;overflow:visible;visibility:visible;opacity:0.55;fill:#175785;fill-opacity:1;fill-rule:nonzero;stroke:none;stroke-width:1;stroke-dasharray:none;marker:none;enable-background:accumulate"
       id="path47"
       d="m 32.477927,1.999998 c -0.938262,0 -1.648752,0.655519 -1.590718,1.46868 l 1.849427,26.418627 c 0.05796,0.81316 0.858249,1.46868 1.796511,1.46868 h 13.196118 0.48076 13.196044 c 0.938262,0 1.737121,-0.65552 1.79508,-1.46868 L 65.052082,3.468678 c 0.05796,-0.813161 -0.653961,-1.46868 -1.592224,-1.46868 H 48.721572 47.216137 Z m 0.702737,1.95824 h 2.258153 l 0.133758,1.953836 h -2.258153 z m 5.645382,0 h 8.425394 1.436335 8.425469 c 0.625509,0 1.100549,0.437005 1.062913,0.97912 l -0.685124,9.782393 c -0.03764,0.542114 -0.575603,0.97912 -1.201111,0.97912 h -7.80794 -1.02618 -7.807939 c -0.625508,0 -1.161744,-0.437005 -1.199681,-0.97912 L 37.763058,4.937358 c -0.03764,-0.542115 0.43748,-0.97912 1.062988,-0.97912 z m 21.674427,0 h 2.258153 L 62.624793,5.912074 H 60.36664 Z M 33.452621,7.870314 h 2.258153 l 0.136693,1.9582405 h -2.258152 z m 26.775895,0 h 2.258153 l -0.138198,1.9582405 h -2.258153 z m -26.501002,3.916481 h 2.258152 l 0.138199,1.953836 h -2.258152 z m 26.226035,0 h 2.258152 l -0.138199,1.953836 H 59.81535 Z m -25.949638,3.912076 h 2.258153 l 0.132328,1.95824 h -2.258153 z m 25.67324,0 h 2.258152 l -0.133757,1.95824 h -2.258153 z m -19.89553,1.95824 h 7.707978 0.958586 7.707979 c 0.625508,0 1.096107,0.437004 1.058471,0.979119 l -0.685047,9.782395 c -0.03764,0.542114 -0.569732,0.97912 -1.19524,0.97912 h -7.090525 -0.548354 -7.090601 c -0.625508,0 -1.158657,-0.437006 -1.196669,-0.979121 L 38.72458,18.63623 c -0.03764,-0.542115 0.431533,-0.97912 1.057041,-0.979119 z m -5.507183,1.95824 h 2.258153 l 0.138199,1.953837 h -2.258153 z m 25.130756,0 h 2.258153 l -0.136694,1.953837 H 59.2685 Z m -24.854358,3.912077 h 2.258153 l 0.136693,1.95824 H 34.68753 Z m 24.579465,0 h 2.258153 l -0.138199,1.95824 h -2.258152 z m -24.304572,3.91648 h 2.258152 l 0.133758,1.953837 h -2.258153 z m 24.028175,0 h 2.258152 l -0.132327,1.953837 h -2.258152 z" />
  </g>
</svg>
