<?xml version="1.0" encoding="UTF-8" standalone="no"?>
<svg
   version="1.1"
   id="svg18157"
   height="96"
   width="96"
   xmlns:xlink="http://www.w3.org/1999/xlink"
   xmlns="http://www.w3.org/2000/svg"
   xmlns:svg="http://www.w3.org/2000/svg"
   xmlns:rdf="http://www.w3.org/1999/02/22-rdf-syntax-ns#"
   xmlns:cc="http://creativecommons.org/ns#"
   xmlns:dc="http://purl.org/dc/elements/1.1/">
  <defs
     id="defs18159">
    <linearGradient
       id="linearGradient5060-820-91-9-0">
      <stop
         offset="0"
         style="stop-color:#000000;stop-opacity:1"
         id="stop2681-778-5-1" />
      <stop
         offset="1"
         style="stop-color:#000000;stop-opacity:0"
         id="stop2683-2-86-2" />
    </linearGradient>
    <linearGradient
       id="linearGradient5048-585-73-1-5">
      <stop
         offset="0"
         style="stop-color:#000000;stop-opacity:0"
         id="stop2667-99-4-6" />
      <stop
         offset="0.5"
         style="stop-color:#000000;stop-opacity:1"
         id="stop2669-5-9-4" />
      <stop
         offset="1"
         style="stop-color:#000000;stop-opacity:0"
         id="stop2671-56-4-2" />
    </linearGradient>
    <linearGradient
       id="linearGradient4646-7-4-3">
      <stop
         id="stop4648-8-0-3"
         style="stop-color:#f9f9f9;stop-opacity:1"
         offset="0" />
      <stop
         id="stop4650-1-7-3"
         style="stop-color:#d8d8d8;stop-opacity:1"
         offset="1" />
    </linearGradient>
    <linearGradient
       gradientTransform="matrix(2.7619048,0,0,2.7619048,137.02045,83.355707)"
       gradientUnits="userSpaceOnUse"
       xlink:href="#linearGradient4646-7-4-3"
       id="linearGradient2402"
       x1="63.412205"
       x2="63.412205"
       y1="19.663828"
       y2="21.215551" />
    <linearGradient
       gradientTransform="matrix(0.21400397,0,0,0.06588235,266.65286,168.99436)"
       gradientUnits="userSpaceOnUse"
       xlink:href="#linearGradient5048-585-73-1-5"
       id="linearGradient2404"
       x1="302.85715"
       x2="302.85715"
       y1="366.64789"
       y2="609.50507" />
    <radialGradient
       cx="605.71429"
       cy="486.64789"
       fx="605.71429"
       fy="486.64789"
       gradientTransform="matrix(0.08300137,0,0,0.06588235,345.64502,168.99436)"
       gradientUnits="userSpaceOnUse"
       xlink:href="#linearGradient5060-820-91-9-0"
       id="radialGradient2406"
       r="117.14286" />
    <radialGradient
       cx="605.71429"
       cy="486.64789"
       fx="605.71429"
       fy="486.64789"
       gradientTransform="matrix(-0.08300135,0,0,0.06588235,342.35497,168.99436)"
       gradientUnits="userSpaceOnUse"
       xlink:href="#linearGradient5060-820-91-9-0"
       id="radialGradient2408"
       r="117.14286" />
    <linearGradient
       gradientTransform="matrix(1.2888812,0,0,1.0827001,283.06692,154.97773)"
       gradientUnits="userSpaceOnUse"
       xlink:href="#4632"
       id="linearGradient2410"
       x1="36.413651"
       x2="36.413651"
       y1="-8.291666"
       y2="43.430573" />
    <linearGradient
       id="4632">
      <stop
         id="stop4634-4-4-7-7-4"
         offset="0"
         style="stop-color:#b4cee1;stop-opacity:1" />
      <stop
         id="stop4636-3-1-5-1-3"
         offset="1"
         style="stop-color:#5d9fcd;stop-opacity:1" />
    </linearGradient>
    <linearGradient
       gradientTransform="matrix(1.7837124,0,0,1.7358442,288.24151,163.1503)"
       gradientUnits="userSpaceOnUse"
       xlink:href="#34542"
       id="linearGradient2412"
       x1="27.3354"
       x2="27.3354"
       y1="-11.032269"
       y2="22.380869" />
    <linearGradient
       id="34542">
      <stop
         id="stop3456-4-9-38-1-8"
         offset="0"
         style="stop-color:#ffffff;stop-opacity:1" />
      <stop
         id="stop3458-39-80-3-5-5"
         offset="0.002736"
         style="stop-color:#ffffff;stop-opacity:0.23529412" />
      <stop
         id="stop3460-7-0-2-4-2"
         offset="0.99001008"
         style="stop-color:#ffffff;stop-opacity:0.15686275" />
      <stop
         id="stop3462-0-9-8-7-2"
         offset="1"
         style="stop-color:#ffffff;stop-opacity:0.39215687" />
    </linearGradient>
    <linearGradient
       gradientTransform="translate(0,-80)"
       gradientUnits="userSpaceOnUse"
       xlink:href="#61299"
       id="linearGradient2414"
       x1="356"
       x2="356"
       y1="292"
       y2="264" />
    <linearGradient
       id="61299">
      <stop
         id="stop4661"
         offset="0"
         style="stop-color:#000000;stop-opacity:0.498" />
      <stop
         id="stop4663"
         offset="1"
         style="stop-color:#000000;stop-opacity:0" />
    </linearGradient>
  </defs>
  <metadata
     id="metadata18162">
    <rdf:RDF>
      <cc:Work
         rdf:about="">
        <dc:format>image/svg+xml</dc:format>
        <dc:type
           rdf:resource="http://purl.org/dc/dcmitype/StillImage" />
      </cc:Work>
    </rdf:RDF>
  </metadata>
  <g
     transform="translate(-1.7920898e-4,48.000002)"
     id="g3222">
    <g
       style="display:inline;enable-background:new"
       id="use5540"
       transform="matrix(0.75271758,0,0,0.75271758,-210.96524,-113.54078)">
      <path
         d="m 292.83723,108.03109 c -1.108,-9e-5 -1.83721,1.07377 -1.83721,2.18177 l -2e-5,5.7873 h -3 c -1.108,0 -2,0.892 -2,2 V 149 h 116 l 0.0361,-30.99984 c 0.001,-1.108 -0.892,-2 -2,-2 L 337,116 l -0.0495,-5.96537 c -0.009,-1.10796 -0.892,-1.99991 -2,-2 z"
         id="path2382"
         style="color:#000000;display:inline;overflow:visible;visibility:visible;fill:url(#linearGradient2402);fill-opacity:1;fill-rule:nonzero;stroke:none;stroke-width:0.999922;marker:none;enable-background:accumulate" />
      <path
         d="m 293.50002,107.5 c -1.87818,0.0205 -2.99999,1.09607 -3,2.85402 L 290.5,115.5 c -0.9606,0 -1.4771,-0.003 -2.1044,0 -1.67856,0.008 -2.87762,0.94491 -2.87762,2.83298 C 285.61158,145.83063 285.5,149.5 285.5,149.5 h 117 l 0.036,-31.19486 c 0.002,-1.75796 -1.15786,-2.82564 -3.03605,-2.80514 h -62 v -5.01742 c 0,-1.75795 -1.23699,-2.97889 -2.99783,-2.97904 L 293.5,107.5 Z"
         id="path2384"
         style="color:#000000;display:inline;overflow:visible;visibility:visible;opacity:0.3;fill:none;stroke:#000000;stroke-width:1;stroke-linecap:butt;stroke-linejoin:miter;stroke-miterlimit:4;stroke-dasharray:none;stroke-dashoffset:0;stroke-opacity:1;marker:none;enable-background:accumulate" />
      <path
         d="m 293.33723,108.49984 c -1.108,-1e-4 -1.83721,1.07377 -1.83721,2.18177 l -2e-5,5.81855 h -3 c -1.108,0 -2,0.892 -2,2 l 2e-5,29.99984 h 115 l 0.036,-29.99984 c 10e-4,-1.108 -0.892,-2 -2,-2 L 336.5,116.5 l 2e-5,-5.81839 c 0,-1.108 -0.94156,-2.17814 -2.04956,-2.17823 z"
         id="path2386"
         style="color:#000000;display:inline;overflow:visible;visibility:visible;opacity:0.3;fill:none;stroke:#ffffff;stroke-width:1;stroke-linecap:round;stroke-linejoin:round;stroke-miterlimit:4;stroke-dasharray:none;stroke-dashoffset:0;stroke-opacity:1;marker:none;enable-background:accumulate" />
      <rect
         height="16"
         id="rect2388"
         style="display:inline;overflow:visible;visibility:visible;opacity:0.3;fill:url(#linearGradient2404);fill-opacity:1;fill-rule:nonzero;stroke:none;stroke-width:0.997328;marker:none"
         width="103.33332"
         x="292.33334"
         y="193.14998" />
      <path
         d="m 395.66666,193.15053 c 0,0 0,15.99912 0,15.99912 4.27437,0.0301 10.33334,-3.58459 10.33334,-8.00059 0,-4.416 -4.76988,-7.99853 -10.33334,-7.99853 z"
         id="path2390"
         style="display:inline;overflow:visible;visibility:visible;opacity:0.3;fill:url(#radialGradient2406);fill-opacity:1;fill-rule:nonzero;stroke:none;stroke-width:0.997328;marker:none" />
      <path
         d="m 292.33334,193.15053 c 0,0 0,15.99912 0,15.99912 C 288.05897,209.1798 282,205.56506 282,201.14906 c 0,-4.416 4.76987,-7.99853 10.33334,-7.99853 z"
         id="path2392"
         style="display:inline;overflow:visible;visibility:visible;opacity:0.3;fill:url(#radialGradient2408);fill-opacity:1;fill-rule:nonzero;stroke:none;stroke-width:0.997328;marker:none" />
      <path
         d="m 281.5,145.5 4.5,56 c 0,0 0,2 2,2 H 399.99935 C 402,203.5 402,201.5 402,201.5 l 4.5,-56 c 0.097,-0.99902 0.5,-3 -2,-3 H 284 c -3,0 -2.61436,2.02287 -2.5,3 z"
         id="path2394"
         style="color:#000000;display:inline;overflow:visible;visibility:visible;fill:url(#linearGradient2410);fill-opacity:1;fill-rule:nonzero;stroke:#000000;stroke-width:1;stroke-miterlimit:4;stroke-dasharray:none;stroke-opacity:0.301961;marker:none;enable-background:accumulate" />
      <path
         d="M 282.53891,145.64127 287,201.5 c 0,0 0,1 1,1 h 112 c 1,0 1,-1 1,-1 l 4.5,-56 c 0.15378,-1.59495 0,-2 -1,-2 H 284.04143 c -1.04143,0 -1.80961,-0.22529 -1.50252,2.14127 z"
         id="path2396"
         style="color:#000000;display:inline;overflow:visible;visibility:visible;opacity:0.5;fill:none;stroke:url(#linearGradient2412);stroke-width:1;stroke-linecap:round;stroke-linejoin:miter;stroke-miterlimit:4;stroke-dasharray:none;stroke-dashoffset:0;stroke-opacity:1;marker:none;enable-background:accumulate" />
      <path
         d="m 284,142 c -0.80619,0 -1.42834,0.13451 -1.9082,0.39062 -0.47987,0.25612 -0.8,0.64331 -0.97071,1.04883 -0.3414,0.81105 -0.17145,1.65546 -0.11718,2.11914 l 4.49804,55.98243 -0.002,-0.041 c 0,0 -0.007,0.6034 0.30273,1.22266 C 286.11236,203.34191 286.83333,204 288,204 h 112 c 1.16694,0 1.88753,-0.65612 2.19727,-1.27539 C 402.507,202.10534 402.5,201.5 402.5,201.5 l -0.002,0.041 4.5,-55.99219 v -0.006 c 0.0457,-0.46584 0.20373,-1.27941 -0.0488,-2.07031 -0.12664,-0.39657 -0.37984,-0.7924 -0.79492,-1.0625 C 405.73921,142.14005 405.1917,142 404.5,142 Z"
         id="path2398"
         style="color:#000000;font-style:normal;font-variant:normal;font-weight:normal;font-stretch:normal;font-size:medium;line-height:normal;font-family:sans-serif;font-variant-ligatures:normal;font-variant-position:normal;font-variant-caps:normal;font-variant-numeric:normal;font-variant-alternates:normal;font-feature-settings:normal;text-indent:0;text-align:start;text-decoration:none;text-decoration-line:none;text-decoration-style:solid;text-decoration-color:#000000;letter-spacing:normal;word-spacing:normal;text-transform:none;writing-mode:lr-tb;direction:ltr;text-orientation:mixed;dominant-baseline:auto;baseline-shift:baseline;text-anchor:start;white-space:normal;shape-padding:0;clip-rule:nonzero;display:inline;overflow:visible;visibility:visible;opacity:0.3;isolation:auto;mix-blend-mode:normal;color-interpolation:sRGB;color-interpolation-filters:linearRGB;solid-color:#000000;solid-opacity:1;vector-effect:none;fill:url(#linearGradient2414);fill-opacity:1;fill-rule:nonzero;stroke:none;stroke-width:1;stroke-linecap:butt;stroke-linejoin:miter;stroke-miterlimit:4;stroke-dasharray:none;stroke-dashoffset:0;stroke-opacity:1;marker:none;color-rendering:auto;image-rendering:auto;shape-rendering:auto;text-rendering:auto;enable-background:accumulate" />
    </g>
    <path
       d="m 49.940673,3.8809048 c -0.144521,0.013549 -0.28814,0.05126 -0.423403,0.1147141 L 37.386699,9.3856037 h 9.660603 l 1.834749,-0.8601078 0.635219,0.8601078 h 5.550539 L 51.06975,4.3396711 C 50.835128,4.0095292 50.377174,3.8364869 49.940673,3.8809499 Z m -16.364607,7.2822042 -6.20992,2.924353 c -0.541731,0.254132 -0.736383,0.821312 -0.423403,1.261494 l 7.232185,9.289137 -0.598862,-7.282226 -1.058622,-1.490855 1.058622,-0.516056 z m 3.387229,0.05736 c -0.625734,0 -1.14398,0.409425 -1.129076,0.917465 l 0.598862,20.183776 c 0.02258,0.508039 0.503342,0.917442 1.129077,0.917442 h 24.640059 c 0.625508,0 1.096559,-0.410216 1.129076,-0.917442 l 1.297309,-20.183776 c 0.03161,-0.507227 -0.503568,-0.917465 -1.129076,-0.917465 z m 3.38723,3.669791 h 19.761772 l -0.949403,12.844216 h -18.38746 z"
       id="path13349"
       style="color:#000000;display:inline;overflow:visible;visibility:visible;opacity:0.2;fill:#ffffff;fill-opacity:1;fill-rule:nonzero;stroke:none;stroke-width:1.27962;marker:none;enable-background:accumulate" />
    <path
       d="m 49.940673,3.1281872 c -0.144521,0.013549 -0.28814,0.05126 -0.423403,0.1147142 L 37.386699,8.6328861 h 9.660603 l 1.834749,-0.8601078 0.635219,0.8601078 h 5.550539 L 51.06975,3.5869535 C 50.835128,3.2568116 50.377174,3.0837693 49.940673,3.1282324 Z m -16.364607,7.2822038 -6.20992,2.924353 c -0.541731,0.254133 -0.736383,0.821313 -0.423403,1.261494 l 7.232185,9.289138 -0.598862,-7.282227 -1.058622,-1.490855 1.058622,-0.516056 z m 3.387229,0.05736 c -0.625734,0 -1.14398,0.409426 -1.129076,0.917465 l 0.598862,20.183776 c 0.02258,0.50804 0.503342,0.917443 1.129077,0.917443 h 24.640059 c 0.625508,0 1.096559,-0.410216 1.129076,-0.917443 l 1.297309,-20.183776 c 0.03161,-0.507226 -0.503568,-0.917465 -1.129076,-0.917465 z m 3.38723,3.669792 h 19.761772 l -0.949403,12.844215 h -18.38746 z"
       id="path13326"
       style="color:#000000;display:inline;overflow:visible;visibility:visible;opacity:0.55;fill:#175785;fill-opacity:1;fill-rule:nonzero;stroke:none;stroke-width:1.27962;marker:none;enable-background:accumulate" />
    <path
       d="m 49.940673,3.1281872 c -0.144521,0.013549 -0.28814,0.05126 -0.423403,0.1147142 L 37.386699,8.6328861 h 9.660603 l 1.834749,-0.8601078 0.635219,0.8601078 h 5.550539 L 51.06975,3.5869535 C 50.835128,3.2568116 50.377174,3.0837693 49.940673,3.1282324 Z m -16.364607,7.2822038 -6.20992,2.924353 c -0.541731,0.254133 -0.736383,0.821313 -0.423403,1.261494 l 7.232185,9.289138 -0.598862,-7.282227 -1.058622,-1.490855 1.058622,-0.516056 z m 3.387229,0.05736 c -0.625734,0 -1.14398,0.409426 -1.129076,0.917465 l 0.598862,20.183776 c 0.02258,0.50804 0.503342,0.917443 1.129077,0.917443 h 24.640059 c 0.625508,0 1.096559,-0.410216 1.129076,-0.917443 l 1.297309,-20.183776 c 0.03161,-0.507226 -0.503568,-0.917465 -1.129076,-0.917465 z m 3.38723,3.669792 h 19.761772 l -0.949403,12.844215 h -18.38746 z"
       id="path152"
       style="color:#000000;display:inline;overflow:visible;visibility:visible;opacity:0.55;fill:#175785;fill-opacity:1;fill-rule:nonzero;stroke:none;stroke-width:1.27962;marker:none;enable-background:accumulate" />
  </g>
</svg>
