<?xml version="1.0" encoding="UTF-8" standalone="no"?>
<svg
   version="1.1"
   id="svg18157"
   height="96"
   width="96"
   xmlns:xlink="http://www.w3.org/1999/xlink"
   xmlns="http://www.w3.org/2000/svg"
   xmlns:svg="http://www.w3.org/2000/svg"
   xmlns:rdf="http://www.w3.org/1999/02/22-rdf-syntax-ns#"
   xmlns:cc="http://creativecommons.org/ns#"
   xmlns:dc="http://purl.org/dc/elements/1.1/">
  <defs
     id="defs18159">
    <linearGradient
       id="linearGradient5060-820-91-9-0">
      <stop
         offset="0"
         style="stop-color:#000000;stop-opacity:1"
         id="stop2681-778-5-1" />
      <stop
         offset="1"
         style="stop-color:#000000;stop-opacity:0"
         id="stop2683-2-86-2" />
    </linearGradient>
    <linearGradient
       id="linearGradient5048-585-73-1-5">
      <stop
         offset="0"
         style="stop-color:#000000;stop-opacity:0"
         id="stop2667-99-4-6" />
      <stop
         offset="0.5"
         style="stop-color:#000000;stop-opacity:1"
         id="stop2669-5-9-4" />
      <stop
         offset="1"
         style="stop-color:#000000;stop-opacity:0"
         id="stop2671-56-4-2" />
    </linearGradient>
    <linearGradient
       id="linearGradient4646-7-4-3">
      <stop
         id="stop4648-8-0-3"
         style="stop-color:#f9f9f9;stop-opacity:1"
         offset="0" />
      <stop
         id="stop4650-1-7-3"
         style="stop-color:#d8d8d8;stop-opacity:1"
         offset="1" />
    </linearGradient>
    <linearGradient
       y2="21.215551"
       y1="19.663828"
       x2="63.412205"
       x1="63.412205"
       id="linearGradient2517"
       xlink:href="#linearGradient4646-7-4-3"
       gradientUnits="userSpaceOnUse"
       gradientTransform="matrix(2.0789343,0,0,2.0789343,-107.82754,-50.797474)" />
    <linearGradient
       y2="609.50507"
       y1="366.64789"
       x2="302.85715"
       x1="302.85715"
       id="linearGradient2519"
       xlink:href="#linearGradient5048-585-73-1-5"
       gradientUnits="userSpaceOnUse"
       gradientTransform="matrix(0.16108455,0,0,0.0495908,-10.250945,13.664246)" />
    <radialGradient
       r="117.14286"
       id="radialGradient2521"
       xlink:href="#linearGradient5060-820-91-9-0"
       gradientUnits="userSpaceOnUse"
       gradientTransform="matrix(0.06247659,0,0,0.0495908,49.207843,13.664246)"
       fy="486.64789"
       fx="605.71429"
       cy="486.64789"
       cx="605.71429" />
    <radialGradient
       r="117.14286"
       id="radialGradient2523"
       xlink:href="#linearGradient5060-820-91-9-0"
       gradientUnits="userSpaceOnUse"
       gradientTransform="matrix(-0.06247658,0,0,0.0495908,46.731365,13.664246)"
       fy="486.64789"
       fx="605.71429"
       cy="486.64789"
       cx="605.71429" />
    <linearGradient
       y2="43.430573"
       y1="-8.291666"
       x2="36.413651"
       x1="36.413651"
       id="linearGradient2525"
       xlink:href="#4632"
       gradientUnits="userSpaceOnUse"
       gradientTransform="matrix(0.97016354,0,0,0.8149674,2.104207,3.1136819)" />
    <linearGradient
       id="4632">
      <stop
         style="stop-color:#b4cee1;stop-opacity:1"
         offset="0"
         id="stop4634-4-4-7-7-4" />
      <stop
         style="stop-color:#5d9fcd;stop-opacity:1"
         offset="1"
         id="stop4636-3-1-5-1-3" />
    </linearGradient>
    <linearGradient
       y2="22.380869"
       y1="-11.032269"
       x2="27.3354"
       x1="27.3354"
       id="linearGradient2527"
       xlink:href="#34542"
       gradientUnits="userSpaceOnUse"
       gradientTransform="matrix(1.3426317,0,0,1.3066004,5.9992119,9.265319)" />
    <linearGradient
       id="34542">
      <stop
         style="stop-color:#ffffff;stop-opacity:1"
         offset="0"
         id="stop3456-4-9-38-1-8" />
      <stop
         style="stop-color:#ffffff;stop-opacity:0.23529412"
         offset="0.002736"
         id="stop3458-39-80-3-5-5" />
      <stop
         style="stop-color:#ffffff;stop-opacity:0.15686275"
         offset="0.99001008"
         id="stop3460-7-0-2-4-2" />
      <stop
         style="stop-color:#ffffff;stop-opacity:0.39215687"
         offset="1"
         id="stop3462-0-9-8-7-2" />
    </linearGradient>
    <linearGradient
       y2="264"
       y1="292"
       x2="356"
       x1="356"
       id="linearGradient2529"
       xlink:href="#61299"
       gradientUnits="userSpaceOnUse"
       gradientTransform="matrix(0.75271758,0,0,0.75271758,-210.96524,-173.75819)" />
    <linearGradient
       id="61299">
      <stop
         style="stop-color:#000000;stop-opacity:0.498"
         offset="0"
         id="stop4661" />
      <stop
         style="stop-color:#000000;stop-opacity:0"
         offset="1"
         id="stop4663" />
    </linearGradient>
  </defs>
  <metadata
     id="metadata18162">
    <rdf:RDF>
      <cc:Work
         rdf:about="">
        <dc:format>image/svg+xml</dc:format>
        <dc:type
           rdf:resource="http://purl.org/dc/dcmitype/StillImage" />
      </cc:Work>
    </rdf:RDF>
  </metadata>
  <g
     transform="translate(-1.7920898e-4,48.000002)"
     id="g3222">
    <path
       style="color:#000000;display:inline;overflow:visible;visibility:visible;fill:url(#linearGradient2517);fill-opacity:1;fill-rule:nonzero;stroke:none;stroke-width:0.752659;marker:none;enable-background:accumulate"
       id="path2497"
       d="m 9.4584911,-32.223879 c -0.8340111,-6.8e-5 -1.3829003,0.808245 -1.3829003,1.642256 l -1.5e-5,4.356203 H 5.817423 c -0.834011,0 -1.5054351,0.671424 -1.5054351,1.505435 V -1.3858606 H 91.627227 L 91.6544,-24.719985 c 7.53e-4,-0.834011 -0.671424,-1.505435 -1.505435,-1.505435 l -47.448381,-1.21e-4 -0.03726,-4.490239 c -0.0068,-0.833981 -0.671424,-1.505367 -1.505435,-1.505435 z" />
    <path
       style="color:#000000;display:inline;overflow:visible;visibility:visible;opacity:0.3;fill:none;stroke:#000000;stroke-width:0.752718;stroke-linecap:butt;stroke-linejoin:miter;stroke-miterlimit:4;stroke-dasharray:none;stroke-dashoffset:0;stroke-opacity:1;marker:none;enable-background:accumulate"
       id="path2499"
       d="m 9.9573848,-32.62364 c -1.4137391,0.01543 -2.2581452,0.825031 -2.2581528,2.148271 l -1.5e-5,3.873469 c -0.7230605,0 -1.1118391,-0.0023 -1.5840189,0 -1.2634816,0.006 -2.1660351,0.711251 -2.1660351,2.132434 0.070454,20.6979649 -0.013534,23.4599642 -0.013534,23.4599642 h 88.067957 l 0.0271,-23.4809192 c 0.0015,-1.323248 -0.871542,-2.126909 -2.285288,-2.111479 h -46.66849 v -3.7767 c 0,-1.32324 -0.931105,-2.242263 -2.25652,-2.242376 l -30.8630163,-0.0027 z" />
    <path
       style="color:#000000;display:inline;overflow:visible;visibility:visible;opacity:0.3;fill:none;stroke:#ffffff;stroke-width:0.752718;stroke-linecap:round;stroke-linejoin:round;stroke-miterlimit:4;stroke-dasharray:none;stroke-dashoffset:0;stroke-opacity:1;marker:none;enable-background:accumulate"
       id="path2501"
       d="m 9.8348499,-31.871043 c -0.8340111,-7.5e-5 -1.3829003,0.808246 -1.3829003,1.642257 l -1.5e-5,4.379725 H 6.1937818 c -0.834011,0 -1.5054351,0.671424 -1.5054351,1.505435 l 1.5e-5,22.5814066 H 91.250883 l 0.0271,-22.5814066 c 7.53e-4,-0.834011 -0.671424,-1.505435 -1.505435,-1.505435 l -47.44832,-1.21e-4 1.5e-5,-4.379604 c 0,-0.834011 -0.708729,-1.639525 -1.54274,-1.639592 z" />
    <rect
       y="31.846605"
       x="9.0792065"
       width="77.780807"
       style="display:inline;overflow:visible;visibility:visible;opacity:0.3;fill:url(#linearGradient2519);fill-opacity:1;fill-rule:nonzero;stroke:none;stroke-width:0.750706;marker:none"
       id="rect2503"
       height="12.043481" />
    <path
       style="display:inline;overflow:visible;visibility:visible;opacity:0.3;fill:url(#radialGradient2521);fill-opacity:1;fill-rule:nonzero;stroke:none;stroke-width:0.750706;marker:none"
       id="path2505"
       d="m 86.860011,31.84702 c 0,0 0,12.042818 0,12.042818 3.217393,0.02266 7.778086,-2.698184 7.778086,-6.022184 0,-3.324001 -3.590372,-6.020634 -7.778086,-6.020634 z" />
    <path
       style="display:inline;overflow:visible;visibility:visible;opacity:0.3;fill:url(#radialGradient2523);fill-opacity:1;fill-rule:nonzero;stroke:none;stroke-width:0.750706;marker:none"
       id="path2507"
       d="m 9.0792042,31.84702 c 0,0 0,12.042818 0,12.042818 -3.2173934,0.0227 -7.7780866,-2.698184 -7.7780866,-6.022184 0,-3.324001 3.590365,-6.020634 7.7780866,-6.020634 z" />
    <path
       style="color:#000000;display:inline;overflow:visible;visibility:visible;fill:url(#linearGradient2525);fill-opacity:1;fill-rule:nonzero;stroke:#000000;stroke-width:0.752718;stroke-miterlimit:4;stroke-dasharray:none;stroke-opacity:0.301961;marker:none;enable-background:accumulate"
       id="path2509"
       d="M 0.92475877,-4.0203721 4.3119879,38.131812 c 0,0 0,1.505436 1.5054351,1.505436 h 84.30388 c 1.505924,0 1.505924,-1.505436 1.505924,-1.505436 l 3.387229,-42.1521841 c 0.07301,-0.7519799 0.376359,-2.2581527 -1.505435,-2.2581527 H 2.8065527 c -2.25815272,0 -1.96787471,1.5226498 -1.88179393,2.2581527 z" />
    <path
       style="color:#000000;display:inline;overflow:visible;visibility:visible;opacity:0.5;fill:none;stroke:url(#linearGradient2527);stroke-width:0.752718;stroke-linecap:round;stroke-linejoin:miter;stroke-miterlimit:4;stroke-dasharray:none;stroke-dashoffset:0;stroke-opacity:1;marker:none;enable-background:accumulate"
       id="path2511"
       d="M 1.7067646,-3.9140357 5.0647055,38.131812 c 0,0 0,0.752718 0.7527175,0.752718 h 84.304369 c 0.752718,0 0.752718,-0.752718 0.752718,-0.752718 l 3.387229,-42.1521841 c 0.115753,-1.2005469 0,-1.5054352 -0.752718,-1.5054352 H 2.8377378 c -0.7839027,0 -1.3621253,-0.1695797 -1.1309732,1.6117716 z" />
    <path
       style="color:#000000;font-style:normal;font-variant:normal;font-weight:normal;font-stretch:normal;font-size:medium;line-height:normal;font-family:sans-serif;font-variant-ligatures:normal;font-variant-position:normal;font-variant-caps:normal;font-variant-numeric:normal;font-variant-alternates:normal;font-feature-settings:normal;text-indent:0;text-align:start;text-decoration:none;text-decoration-line:none;text-decoration-style:solid;text-decoration-color:#000000;letter-spacing:normal;word-spacing:normal;text-transform:none;writing-mode:lr-tb;direction:ltr;text-orientation:mixed;dominant-baseline:auto;baseline-shift:baseline;text-anchor:start;white-space:normal;shape-padding:0;clip-rule:nonzero;display:inline;overflow:visible;visibility:visible;opacity:0.3;isolation:auto;mix-blend-mode:normal;color-interpolation:sRGB;color-interpolation-filters:linearRGB;solid-color:#000000;solid-opacity:1;vector-effect:none;fill:url(#linearGradient2529);fill-opacity:1;fill-rule:nonzero;stroke:none;stroke-width:0.752718;stroke-linecap:butt;stroke-linejoin:miter;stroke-miterlimit:4;stroke-dasharray:none;stroke-dashoffset:0;stroke-opacity:1;marker:none;color-rendering:auto;image-rendering:auto;shape-rendering:auto;text-rendering:auto;enable-background:accumulate"
       id="path2513"
       d="m 2.8065527,-6.6548836 c -0.6068334,0 -1.0751366,0.101248 -1.4363357,0.2940265 -0.3612066,0.192786 -0.60217403,0.4842307 -0.73067045,0.7894728 -0.25697778,0.6104916 -0.12905343,1.2460938 -0.0882034,1.5951139 l 3.38575375,42.1389594 -0.00151,-0.03086 c 0,0 -0.00527,0.45419 0.2278701,0.920318 0.2331016,0.466105 0.7757884,0.961461 1.6539614,0.961461 H 90.121787 c 0.878376,0 1.420777,-0.493873 1.653924,-0.960008 0.233139,-0.466136 0.22787,-0.921786 0.22787,-0.921786 l -0.0015,0.03086 3.387229,-42.146306 v -0.00452 c 0.0344,-0.3506459 0.153351,-0.9630344 -0.03673,-1.5583587 -0.09532,-0.2985052 -0.285912,-0.5964534 -0.59835,-0.7997624 -0.312431,-0.2031961 -0.724551,-0.3086142 -1.245206,-0.3086142 z" />
    <path
       style="color:#000000;display:inline;overflow:visible;visibility:visible;opacity:0.2;fill:#ffffff;fill-opacity:1;fill-rule:nonzero;stroke:none;stroke-width:3.83874;marker:none;enable-background:accumulate"
       id="path14800"
       d="M 60.41832,4.6357519 42.160244,8.0418148 c -1.251576,0.2652377 -2.292713,1.3209083 -2.259162,2.3451582 l 0.532252,16.248595 c -1.269132,-0.525594 -2.899084,-0.738125 -4.588923,-0.39086 -3.049335,0.626646 -4.960182,2.651864 -4.306528,4.522805 0.653653,1.870941 3.657552,2.915967 6.706887,2.289321 2.432742,-0.499934 4.10968,-1.914449 4.377127,-3.406063 L 42.160244,14.29557 59.571135,10.945344 58.506631,23.061994 c -1.269132,-0.525594 -2.899083,-0.738126 -4.588923,-0.39086 -3.049336,0.626646 -4.960182,2.651864 -4.306528,4.522805 0.653653,1.870941 3.657552,2.915967 6.706888,2.289321 2.432742,-0.499934 4.10968,-1.914449 4.377126,-3.406063 L 61.830297,6.0875164 c 0,-0.7685994 -0.600585,-1.3436431 -1.411977,-1.4517645 z" />
    <path
       style="color:#000000;display:inline;overflow:visible;visibility:visible;opacity:0.55;fill:#175785;fill-opacity:1;fill-rule:nonzero;stroke:none;stroke-width:3.83874;marker:none;enable-background:accumulate"
       id="rect2996-4-9"
       d="M 60.41832,3.8830339 42.160244,7.2890968 C 40.908668,7.5543345 39.867531,8.6100051 39.901082,9.6342549 L 40.433334,25.88285 c -1.269132,-0.525594 -2.899084,-0.738125 -4.588923,-0.39086 -3.049335,0.626646 -4.960182,2.651864 -4.306528,4.522805 0.653653,1.870941 3.657552,2.915967 6.706887,2.289321 2.432742,-0.499934 4.10968,-1.914449 4.377127,-3.406063 l -0.461653,-15.355201 17.410891,-3.350226 -1.064504,12.11665 c -1.269132,-0.525594 -2.899083,-0.738126 -4.588923,-0.39086 -3.049336,0.626646 -4.960182,2.651864 -4.306528,4.522805 0.653653,1.870941 3.657552,2.915967 6.706888,2.289321 2.432742,-0.499934 4.10968,-1.914449 4.377126,-3.406063 L 61.830297,5.3347984 c 0,-0.7685994 -0.600585,-1.3436431 -1.411977,-1.4517645 z" />
    <path
       style="color:#000000;display:inline;overflow:visible;visibility:visible;opacity:0.55;fill:#175785;fill-opacity:1;fill-rule:nonzero;stroke:none;stroke-width:3.83874;marker:none;enable-background:accumulate"
       id="path151"
       d="M 60.41832,3.8830339 42.160244,7.2890968 C 40.908668,7.5543345 39.867531,8.6100051 39.901082,9.6342549 L 40.433334,25.88285 c -1.269132,-0.525594 -2.899084,-0.738125 -4.588923,-0.39086 -3.049335,0.626646 -4.960182,2.651864 -4.306528,4.522805 0.653653,1.870941 3.657552,2.915967 6.706887,2.289321 2.432742,-0.499934 4.10968,-1.914449 4.377127,-3.406063 l -0.461653,-15.355201 17.410891,-3.350226 -1.064504,12.11665 c -1.269132,-0.525594 -2.899083,-0.738126 -4.588923,-0.39086 -3.049336,0.626646 -4.960182,2.651864 -4.306528,4.522805 0.653653,1.870941 3.657552,2.915967 6.706888,2.289321 2.432742,-0.499934 4.10968,-1.914449 4.377126,-3.406063 L 61.830297,5.3347984 c 0,-0.7685994 -0.600585,-1.3436431 -1.411977,-1.4517645 z" />
  </g>
</svg>
