<?xml version="1.0" encoding="UTF-8" standalone="no"?>
<svg
   version="1.1"
   id="svg18157"
   height="96"
   width="96"
   xmlns:xlink="http://www.w3.org/1999/xlink"
   xmlns="http://www.w3.org/2000/svg"
   xmlns:svg="http://www.w3.org/2000/svg"
   xmlns:rdf="http://www.w3.org/1999/02/22-rdf-syntax-ns#"
   xmlns:cc="http://creativecommons.org/ns#"
   xmlns:dc="http://purl.org/dc/elements/1.1/">
  <defs
     id="defs18159">
    <linearGradient
       id="linearGradient5060-820-91-9-0">
      <stop
         offset="0"
         style="stop-color:#000000;stop-opacity:1"
         id="stop2681-778-5-1" />
      <stop
         offset="1"
         style="stop-color:#000000;stop-opacity:0"
         id="stop2683-2-86-2" />
    </linearGradient>
    <linearGradient
       id="linearGradient5048-585-73-1-5">
      <stop
         offset="0"
         style="stop-color:#000000;stop-opacity:0"
         id="stop2667-99-4-6" />
      <stop
         offset="0.5"
         style="stop-color:#000000;stop-opacity:1"
         id="stop2669-5-9-4" />
      <stop
         offset="1"
         style="stop-color:#000000;stop-opacity:0"
         id="stop2671-56-4-2" />
    </linearGradient>
    <linearGradient
       y2="44.260689"
       x2="97.538795"
       y1="16.962049"
       x1="97.538795"
       gradientTransform="matrix(1.977882,0,0,2.0159126,-105.8276,-50.696137)"
       gradientUnits="userSpaceOnUse"
       id="linearGradient22498"
       xlink:href="#linearGradient8272" />
    <linearGradient
       id="linearGradient8272">
      <stop
         id="stop8274"
         style="stop-color:#ffffff;stop-opacity:1"
         offset="0" />
      <stop
         id="stop8276"
         style="stop-color:#ffffff;stop-opacity:0.23529412"
         offset="0.0221225" />
      <stop
         id="stop8278"
         style="stop-color:#ffffff;stop-opacity:0.15686275"
         offset="0.97909725" />
      <stop
         id="stop8280"
         style="stop-color:#ffffff;stop-opacity:0.39215687"
         offset="1" />
    </linearGradient>
    <linearGradient
       y2="36.599415"
       x2="22.934725"
       y1="49.629246"
       x1="22.934725"
       gradientTransform="matrix(2.2531068,0,0,1.9965263,-6.074568,-47.851401)"
       gradientUnits="userSpaceOnUse"
       id="linearGradient22492"
       xlink:href="#linearGradient6129-963-697-142-998-580-273" />
    <linearGradient
       id="linearGradient6129-963-697-142-998-580-273">
      <stop
         offset="0"
         style="stop-color:#0a0a0a;stop-opacity:0.498"
         id="stop2661" />
      <stop
         offset="1"
         style="stop-color:#0a0a0a;stop-opacity:0"
         id="stop2663" />
    </linearGradient>
    <linearGradient
       y2="119.05979"
       x2="-91"
       y1="43.999817"
       x1="-91"
       gradientTransform="matrix(0.74193552,0,0,0.76172101,109.58065,-51.428999)"
       gradientUnits="userSpaceOnUse"
       id="linearGradient22486"
       xlink:href="#linearGradient4632-0-6-4" />
    <linearGradient
       id="linearGradient4632-0-6-4">
      <stop
         id="stop4634-4-4-7"
         offset="0"
         style="stop-color:#b4cee1;stop-opacity:1;" />
      <stop
         id="stop4636-3-1-5"
         offset="1"
         style="stop-color:#5d9fcd;stop-opacity:1;" />
    </linearGradient>
    <linearGradient
       y2="609.50507"
       x2="302.85715"
       y1="366.64789"
       x1="302.85715"
       gradientTransform="matrix(0.2134205,0,0,0.06641689,-13.147881,75.518568)"
       gradientUnits="userSpaceOnUse"
       id="linearGradient22476"
       xlink:href="#linearGradient5048-585-73-1-5" />
    <radialGradient
       r="117.14286"
       fy="486.64789"
       fx="605.71429"
       cy="486.64789"
       cx="605.71429"
       gradientTransform="matrix(0.08277507,0,0,0.06641689,65.628912,75.518568)"
       gradientUnits="userSpaceOnUse"
       id="radialGradient22478"
       xlink:href="#linearGradient5060-820-91-9-0" />
    <radialGradient
       r="117.14286"
       fy="486.64789"
       fx="605.71429"
       cy="486.64789"
       cx="605.71429"
       gradientTransform="matrix(-0.08277505,0,0,0.06641689,62.347829,75.518568)"
       gradientUnits="userSpaceOnUse"
       id="radialGradient22480"
       xlink:href="#linearGradient5060-820-91-9-0" />
    <linearGradient
       y2="44.260689"
       x2="97.538795"
       y1="8.8103228"
       x1="97.538795"
       gradientTransform="matrix(1.977882,0,0,1.963835,-105.8276,-48.359552)"
       gradientUnits="userSpaceOnUse"
       id="linearGradient22466"
       xlink:href="#linearGradient9235" />
    <linearGradient
       id="linearGradient9235">
      <stop
         offset="0"
         style="stop-color:#ffffff;stop-opacity:1"
         id="stop9237" />
      <stop
         offset="0.1088333"
         style="stop-color:#ffffff;stop-opacity:0.23529412"
         id="stop9239" />
      <stop
         offset="0.97909725"
         style="stop-color:#ffffff;stop-opacity:0.15686275"
         id="stop9241" />
      <stop
         offset="1"
         style="stop-color:#ffffff;stop-opacity:0.39215687"
         id="stop9243" />
    </linearGradient>
    <linearGradient
       y2="3.6336823"
       x2="-51.786404"
       y1="53.514328"
       x1="-51.786404"
       gradientTransform="matrix(1.6087773,0,0,1.6667318,105.83276,-50.244781)"
       gradientUnits="userSpaceOnUse"
       id="linearGradient22460"
       xlink:href="#linearGradient3104-8-8-97-4-6-11-5-5-1-0" />
    <linearGradient
       id="linearGradient3104-8-8-97-4-6-11-5-5-1-0">
      <stop
         id="stop3106-5-4-3-5-0-2-1-0-1-2"
         style="stop-color:#000000;stop-opacity:0.32173914"
         offset="0" />
      <stop
         id="stop3108-4-3-7-8-2-0-7-9-4-9"
         style="stop-color:#000000;stop-opacity:0.27826086"
         offset="1" />
    </linearGradient>
    <linearGradient
       xlink:href="#linearGradient6404-7-5"
       id="linearGradient28104"
       gradientUnits="userSpaceOnUse"
       gradientTransform="matrix(2.0187548,0,0,1.9826428,-86.45371,-48.481497)"
       x1="62.988873"
       y1="14.090554"
       x2="62.988873"
       y2="16.997795" />
    <linearGradient
       id="linearGradient6404-7-5">
      <stop
         offset="0"
         style="stop-color:#f9f9f9;stop-opacity:1"
         id="stop6406-1-8" />
      <stop
         offset="1"
         style="stop-color:#c9c9c9;stop-opacity:1"
         id="stop6408-9-6" />
    </linearGradient>
  </defs>
  <metadata
     id="metadata18162">
    <rdf:RDF>
      <cc:Work
         rdf:about="">
        <dc:format>image/svg+xml</dc:format>
        <dc:type
           rdf:resource="http://purl.org/dc/dcmitype/StillImage" />
      </cc:Work>
    </rdf:RDF>
  </metadata>
  <g
     transform="translate(0,47)"
     id="g15726">
    <path
       style="color:#000000;display:inline;overflow:visible;visibility:visible;fill:url(#linearGradient28104);fill-opacity:1;fill-rule:nonzero;stroke:none;stroke-width:0.741935;marker:none;enable-background:accumulate"
       d="m 10.161289,-31.234998 c -0.822065,0 -1.483871,0.661807 -1.483871,1.483871 v 4.428428 H 6.451611 c -0.822065,0 -1.483871,0.661806 -1.483871,1.483871 v 8.161291 c 0,0.822064 0.661806,1.483871 1.483871,1.483871 h 83.09678 c 0.822065,0 1.483871,-0.661807 1.483871,-1.483871 v -8.161291 c 0,-0.822065 -0.661806,-1.483871 -1.483871,-1.483871 h -46.74194 v -4.428428 c 0,-0.822064 -0.661806,-1.483871 -1.483871,-1.483871 z"
       id="use5361" />
    <path
       d="m 10.653036,-31.629032 c -1.393488,0.01521 -2.346586,0.678351 -2.346586,1.982637 v 3.952609 c -0.712703,0 -1.095913,-0.0022 -1.561329,0 -1.245384,0.0059 -2.135009,0.701063 -2.135009,2.101889 0.06944,20.4014827 -0.01335,21.458214 -0.01335,23.19034414 2.89786,0 86.806458,-7.33524944 86.806458,-10.49267514 v -12.718325 c 0,-1.304292 -0.859057,-2.096442 -2.252553,-2.081233 H 43.177404 v -3.857226 c 0,-1.304285 -0.880996,-2.07802 -2.187426,-2.07802 H 10.653021 Z"
       id="use5363"
       style="color:#000000;display:inline;overflow:visible;visibility:visible;opacity:0.8;fill:none;stroke:url(#linearGradient22460);stroke-width:0.741935;stroke-linecap:butt;stroke-linejoin:miter;stroke-miterlimit:4;stroke-dasharray:none;stroke-dashoffset:0;stroke-opacity:1;marker:none;enable-background:accumulate" />
    <path
       style="color:#000000;display:inline;overflow:visible;visibility:visible;fill:none;stroke:url(#linearGradient22466);stroke-width:0.741935;stroke-linecap:round;stroke-linejoin:round;stroke-miterlimit:4;stroke-dasharray:none;stroke-dashoffset:0;stroke-opacity:1;marker:none;enable-background:accumulate"
       d="m 10.532256,-30.887215 c -0.822064,0 -1.483871,0.661806 -1.483871,1.483871 v 4.451613 H 6.822579 c -0.822065,0 -1.483871,0.661806 -1.483871,1.483871 v 8.16129 c 0,0.822065 0.661806,1.483872 1.483871,1.483872 h 82.354845 c 0.822064,0 1.483871,-0.661807 1.483871,-1.483872 v -8.16129 c 0,-0.822065 -0.661807,-1.483871 -1.483871,-1.483871 h -46.74194 v -4.451613 c 0,-0.822065 -0.661807,-1.483871 -1.483871,-1.483871 z"
       id="use5365" />
    <g
       transform="matrix(0.7439639,0,0,0.73596427,0.39496097,-41.694664)"
       id="use5367">
      <rect
         width="103.05159"
         height="16.129816"
         x="12.462574"
         y="99.870178"
         id="rect22470"
         style="display:inline;overflow:visible;visibility:visible;opacity:0.3;fill:url(#linearGradient22476);fill-opacity:1;fill-rule:nonzero;stroke:none;stroke-width:1;marker:none" />
      <path
         d="m 115.51417,99.870734 c 0,0 0,16.128926 0,16.128926 4.26271,0.0304 10.30516,-3.61367 10.30516,-8.0655 0,-4.45183 -4.75687,-8.063426 -10.30516,-8.063426 z"
         id="path22472"
         style="display:inline;overflow:visible;visibility:visible;opacity:0.3;fill:url(#radialGradient22478);fill-opacity:1;fill-rule:nonzero;stroke:none;stroke-width:1;marker:none" />
      <path
         d="m 12.462574,99.870734 c 0,0 0,16.128926 0,16.128926 -4.2627113,0.0304 -10.3051588,-3.61367 -10.3051588,-8.0655 0,-4.45183 4.7568636,-8.063426 10.3051588,-8.063426 z"
         id="path22474"
         style="display:inline;overflow:visible;visibility:visible;opacity:0.3;fill:url(#radialGradient22480);fill-opacity:1;fill-rule:nonzero;stroke:none;stroke-width:1;marker:none" />
    </g>
    <path
       d="m 5.153224,-17.532532 85.693547,7.42e-4 c 1.238001,0 2.04033,0.878266 2.04033,1.970158 l -2.015453,53.256638 c 0.02864,1.381566 -0.408176,1.929359 -1.846559,1.900386 L 7.46186,39.560742 c -1.237986,0 -2.486345,-0.81535 -2.486345,-1.907249 L 3.112901,-15.561604 c 0,-1.0919 0.802329,-1.97093 2.040323,-1.97093 z"
       id="use5369"
       style="display:inline;overflow:visible;visibility:visible;fill:url(#linearGradient22486);fill-opacity:1;fill-rule:nonzero;stroke:none;stroke-width:0.741935;marker:none;enable-background:accumulate" />
    <path
       d="m 4.799113,-17.903507 86.401762,7.42e-4 c 1.248232,0 2.057194,0.88967 2.057194,1.995754 l -2.03211,53.948286 c 0.02886,1.399505 -0.411551,1.954414 -1.86182,1.925063 L 7.126832,39.931168 c -1.248218,0 -2.506889,-0.825945 -2.506889,-1.93203 l -1.87801,-53.906121 c 0,-1.106077 0.808962,-1.996526 2.05718,-1.996526 z"
       id="use5371"
       style="opacity:0.4;fill:url(#linearGradient22492);fill-opacity:1;stroke:none;stroke-width:0.741935" />
    <path
       style="display:inline;overflow:visible;visibility:visible;opacity:0.5;fill:none;stroke:url(#linearGradient22498);stroke-width:0.741935;stroke-linecap:round;stroke-linejoin:round;stroke-miterlimit:4;stroke-dasharray:none;stroke-dashoffset:0;stroke-opacity:1;marker:none;enable-background:accumulate"
       d="m 5.153224,-16.790448 c -2.113641,0.220028 -1.045632,2.79479 -1.216693,4.243997 0.583043,16.7291248 1.168296,33.458198 1.749959,50.187348 0.881924,1.847226 3.286841,0.951198 4.925205,1.168051 26.142204,0.01521 52.284412,0.03057 78.426616,0.04578 1.903806,-0.12265 0.858575,-2.832732 1.226842,-4.196054 0.634095,-16.745108 1.886683,-50.133587 1.886683,-50.133587 0,-0.862196 -0.578651,-1.315526 -1.637734,-1.315526 -27.517879,0 -57.843002,0 -85.360878,0 z"
       id="use5373" />
    <g
       transform="matrix(0.72870854,0,0,0.85940075,-8.78257,-9.7755965)"
       id="g3294-2-5-2-0"
       style="color:#000000;display:inline;overflow:visible;visibility:visible;opacity:0.3;fill:#ffffff;fill-opacity:1;fill-rule:nonzero;stroke:none;stroke-width:4.78147;marker:none;enable-background:accumulate">
      <path
         d="m 77.5703,6.9454345 c -11.317079,0 -20.630635,6.3193555 -21.648617,15.5397085 h -5.489571 l 8.107675,8.633172 8.107674,-8.633172 h -5.29251 c 1.001307,-6.722239 7.890308,-11.035445 16.215349,-11.035445 9.013029,0 16.327956,6.104178 16.327956,13.625397 -3e-6,7.521219 -7.314924,13.625398 -16.327956,13.625398 -4.889999,0 -9.280846,-1.799942 -12.274118,-4.645022 L 61.3268,37.124 c 3.98185,3.735752 9.784188,6.080755 16.2435,6.080756 11.996656,0 21.733071,-8.122088 21.733072,-18.129661 0,-10.007573 -9.736418,-18.1296605 -21.733072,-18.1296605 z"
         id="path2504-1-2-9-0"
         style="color:#000000;display:inline;overflow:visible;visibility:visible;fill:#ffffff;fill-opacity:1;fill-rule:nonzero;stroke:none;stroke-width:4.78147;marker:none;enable-background:accumulate" />
      <path
         d="m 78.940345,13.851971 h -2.036302 l -2.036301,12.086441 10.18151,6.906538 2e-6,-1.726635 -6.108907,-6.906537 z"
         id="path3288-4-0-7-5"
         style="color:#000000;display:inline;overflow:visible;visibility:visible;fill:#ffffff;fill-opacity:1;fill-rule:nonzero;stroke:none;stroke-width:4.78147;marker:none;enable-background:accumulate" />
    </g>
    <g
       transform="matrix(0.72870854,0,0,0.85940075,-8.78257,-10.517591)"
       id="g3294-2-5-2"
       style="color:#000000;display:inline;overflow:visible;visibility:visible;fill:#175785;fill-opacity:0.552163;fill-rule:nonzero;stroke:none;stroke-width:4.78147;marker:none;enable-background:accumulate">
      <path
         d="m 77.5703,6.9454345 c -11.317079,0 -20.630635,6.3193555 -21.648617,15.5397085 h -5.489571 l 8.107675,8.633172 8.107674,-8.633172 h -5.29251 c 1.001307,-6.722239 7.890308,-11.035445 16.215349,-11.035445 9.013029,0 16.327956,6.104178 16.327956,13.625397 -3e-6,7.521219 -7.314924,13.625398 -16.327956,13.625398 -4.889999,0 -9.280846,-1.799942 -12.274118,-4.645022 L 61.3268,37.124 c 3.98185,3.735752 9.784188,6.080755 16.2435,6.080756 11.996656,0 21.733071,-8.122088 21.733072,-18.129661 0,-10.007573 -9.736418,-18.1296605 -21.733072,-18.1296605 z"
         id="path2504-1-2-9"
         style="color:#000000;display:inline;overflow:visible;visibility:visible;fill:#175785;fill-opacity:0.552163;fill-rule:nonzero;stroke:none;stroke-width:4.78147;marker:none;enable-background:accumulate" />
      <path
         d="m 78.940345,13.851971 h -2.036302 l -2.036301,12.086441 10.18151,6.906538 2e-6,-1.726635 -6.108907,-6.906537 z"
         id="path3288-4-0-7"
         style="color:#000000;display:inline;overflow:visible;visibility:visible;fill:#175785;fill-opacity:0.552163;fill-rule:nonzero;stroke:none;stroke-width:4.78147;marker:none;enable-background:accumulate" />
      <path
         d="m 77.5703,6.9454345 c -11.317079,0 -20.630635,6.3193555 -21.648617,15.5397085 h -5.489571 l 8.107675,8.633172 8.107674,-8.633172 h -5.29251 c 1.001307,-6.722239 7.890308,-11.035445 16.215349,-11.035445 9.013029,0 16.327956,6.104178 16.327956,13.625397 -3e-6,7.521219 -7.314924,13.625398 -16.327956,13.625398 -4.889999,0 -9.280846,-1.799942 -12.274118,-4.645022 L 61.3268,37.124 c 3.98185,3.735752 9.784188,6.080755 16.2435,6.080756 11.996656,0 21.733071,-8.122088 21.733072,-18.129661 0,-10.007573 -9.736418,-18.1296605 -21.733072,-18.1296605 z"
         id="path63"
         style="color:#000000;display:inline;overflow:visible;visibility:visible;fill:#175785;fill-opacity:0.552163;fill-rule:nonzero;stroke:none;stroke-width:4.78147;marker:none;enable-background:accumulate" />
      <path
         d="m 78.940345,13.851971 h -2.036302 l -2.036301,12.086441 10.18151,6.906538 2e-6,-1.726635 -6.108907,-6.906537 z"
         id="path65"
         style="color:#000000;display:inline;overflow:visible;visibility:visible;fill:#175785;fill-opacity:0.552163;fill-rule:nonzero;stroke:none;stroke-width:4.78147;marker:none;enable-background:accumulate" />
    </g>
    <path
       style="display:inline;overflow:visible;visibility:visible;opacity:0.3;fill:none;stroke:#000000;stroke-width:0.741935;stroke-linecap:round;stroke-linejoin:round;stroke-miterlimit:4;stroke-dasharray:none;stroke-dashoffset:0;stroke-opacity:1;marker:none;enable-background:accumulate"
       id="path3369-7-3"
       d="m 5.153224,-17.532539 85.693547,7.42e-4 c 1.238001,0 2.04033,0.878266 2.04033,1.970157 l -2.015453,53.256639 c 0.02864,1.381565 -0.408176,1.929359 -1.846559,1.900386 L 7.46186,39.560735 c -1.237986,0 -2.486345,-0.81535 -2.486345,-1.90725 L 3.112901,-15.561612 c 0,-1.091899 0.802329,-1.970929 2.040323,-1.970929 z" />
  </g>
</svg>
