<?xml version="1.0" encoding="UTF-8" standalone="no"?>
<svg
   version="1.1"
   id="svg18157"
   height="96"
   width="96"
   xmlns:xlink="http://www.w3.org/1999/xlink"
   xmlns="http://www.w3.org/2000/svg"
   xmlns:svg="http://www.w3.org/2000/svg"
   xmlns:rdf="http://www.w3.org/1999/02/22-rdf-syntax-ns#"
   xmlns:cc="http://creativecommons.org/ns#"
   xmlns:dc="http://purl.org/dc/elements/1.1/">
  <defs
     id="defs18159">
    <linearGradient
       id="linearGradient5060-820-91-9-0">
      <stop
         offset="0"
         style="stop-color:#000000;stop-opacity:1"
         id="stop2681-778-5-1" />
      <stop
         offset="1"
         style="stop-color:#000000;stop-opacity:0"
         id="stop2683-2-86-2" />
    </linearGradient>
    <linearGradient
       id="linearGradient5048-585-73-1-5">
      <stop
         offset="0"
         style="stop-color:#000000;stop-opacity:0"
         id="stop2667-99-4-6" />
      <stop
         offset="0.5"
         style="stop-color:#000000;stop-opacity:1"
         id="stop2669-5-9-4" />
      <stop
         offset="1"
         style="stop-color:#000000;stop-opacity:0"
         id="stop2671-56-4-2" />
    </linearGradient>
    <linearGradient
       xlink:href="#linearGradient6404-7-5"
       id="linearGradient26390"
       gradientUnits="userSpaceOnUse"
       gradientTransform="matrix(2.0187548,0,0,1.9826428,-86.453701,-1.4814963)"
       x1="62.988873"
       y1="14.090554"
       x2="62.988873"
       y2="16.997795" />
    <linearGradient
       id="linearGradient6404-7-5">
      <stop
         offset="0"
         style="stop-color:#f9f9f9;stop-opacity:1"
         id="stop6406-1-8" />
      <stop
         offset="1"
         style="stop-color:#c9c9c9;stop-opacity:1"
         id="stop6408-9-6" />
    </linearGradient>
    <linearGradient
       y2="3.6336823"
       x2="-51.786404"
       y1="53.514328"
       x1="-51.786404"
       gradientTransform="matrix(1.6087773,0,0,1.6667318,105.83276,-3.2447803)"
       gradientUnits="userSpaceOnUse"
       id="linearGradient5869"
       xlink:href="#linearGradient3104-8-8-97-4-6-11-5-5-1-0" />
    <linearGradient
       id="linearGradient3104-8-8-97-4-6-11-5-5-1-0">
      <stop
         id="stop3106-5-4-3-5-0-2-1-0-1-2"
         style="stop-color:#000000;stop-opacity:0.32173914"
         offset="0" />
      <stop
         id="stop3108-4-3-7-8-2-0-7-9-4-9"
         style="stop-color:#000000;stop-opacity:0.27826086"
         offset="1" />
    </linearGradient>
    <linearGradient
       y2="44.260689"
       x2="97.538795"
       y1="8.8103228"
       x1="97.538795"
       gradientTransform="matrix(1.977882,0,0,1.963835,-105.82759,-1.3595518)"
       gradientUnits="userSpaceOnUse"
       id="linearGradient5873"
       xlink:href="#linearGradient9235" />
    <linearGradient
       id="linearGradient9235">
      <stop
         offset="0"
         style="stop-color:#ffffff;stop-opacity:1"
         id="stop9237" />
      <stop
         offset="0.1088333"
         style="stop-color:#ffffff;stop-opacity:0.23529412"
         id="stop9239" />
      <stop
         offset="0.97909725"
         style="stop-color:#ffffff;stop-opacity:0.15686275"
         id="stop9241" />
      <stop
         offset="1"
         style="stop-color:#ffffff;stop-opacity:0.39215687"
         id="stop9243" />
    </linearGradient>
    <linearGradient
       y2="609.50507"
       x2="302.85715"
       y1="366.64789"
       x1="302.85715"
       gradientTransform="matrix(0.2134205,0,0,0.06641689,-13.147881,75.518568)"
       gradientUnits="userSpaceOnUse"
       id="linearGradient5875"
       xlink:href="#linearGradient5048-585-73-1-5" />
    <radialGradient
       r="117.14286"
       fy="486.64789"
       fx="605.71429"
       cy="486.64789"
       cx="605.71429"
       gradientTransform="matrix(0.08277507,0,0,0.06641689,65.628912,75.518568)"
       gradientUnits="userSpaceOnUse"
       id="radialGradient5877"
       xlink:href="#linearGradient5060-820-91-9-0" />
    <radialGradient
       r="117.14286"
       fy="486.64789"
       fx="605.71429"
       cy="486.64789"
       cx="605.71429"
       gradientTransform="matrix(-0.08277505,0,0,0.06641689,62.347829,75.518568)"
       gradientUnits="userSpaceOnUse"
       id="radialGradient5879"
       xlink:href="#linearGradient5060-820-91-9-0" />
    <linearGradient
       y2="119.05979"
       x2="-91"
       y1="43.999817"
       x1="-91"
       gradientTransform="matrix(0.74193552,0,0,0.76172101,109.58065,-4.4289984)"
       gradientUnits="userSpaceOnUse"
       id="linearGradient5883"
       xlink:href="#linearGradient4632-0-6-4" />
    <linearGradient
       id="linearGradient4632-0-6-4">
      <stop
         id="stop4634-4-4-7"
         offset="0"
         style="stop-color:#b4cee1;stop-opacity:1;" />
      <stop
         id="stop4636-3-1-5"
         offset="1"
         style="stop-color:#5d9fcd;stop-opacity:1;" />
    </linearGradient>
    <linearGradient
       y2="36.599415"
       x2="22.934725"
       y1="49.629246"
       x1="22.934725"
       gradientTransform="matrix(2.2531068,0,0,1.9965263,-6.0745684,-0.85140014)"
       gradientUnits="userSpaceOnUse"
       id="linearGradient5887"
       xlink:href="#linearGradient6129-963-697-142-998-580-273" />
    <linearGradient
       id="linearGradient6129-963-697-142-998-580-273">
      <stop
         offset="0"
         style="stop-color:#0a0a0a;stop-opacity:0.498"
         id="stop2661" />
      <stop
         offset="1"
         style="stop-color:#0a0a0a;stop-opacity:0"
         id="stop2663" />
    </linearGradient>
    <linearGradient
       y2="44.260689"
       x2="97.538795"
       y1="16.962049"
       x1="97.538795"
       gradientTransform="matrix(1.977882,0,0,2.0159126,-105.82759,-3.6961367)"
       gradientUnits="userSpaceOnUse"
       id="linearGradient5891"
       xlink:href="#linearGradient8272" />
    <linearGradient
       id="linearGradient8272">
      <stop
         id="stop8274"
         style="stop-color:#ffffff;stop-opacity:1"
         offset="0" />
      <stop
         id="stop8276"
         style="stop-color:#ffffff;stop-opacity:0.23529412"
         offset="0.0221225" />
      <stop
         id="stop8278"
         style="stop-color:#ffffff;stop-opacity:0.15686275"
         offset="0.97909725" />
      <stop
         id="stop8280"
         style="stop-color:#ffffff;stop-opacity:0.39215687"
         offset="1" />
    </linearGradient>
  </defs>
  <metadata
     id="metadata18162">
    <rdf:RDF>
      <cc:Work
         rdf:about="">
        <dc:format>image/svg+xml</dc:format>
        <dc:type
           rdf:resource="http://purl.org/dc/dcmitype/StillImage" />
      </cc:Work>
    </rdf:RDF>
  </metadata>
  <path
     id="rect8678-4"
     d="m 10.161288,15.765003 c -0.8220641,0 -1.4838705,0.661806 -1.4838705,1.483871 v 4.428427 H 6.4516106 c -0.8220646,0 -1.483871,0.661807 -1.483871,1.483871 v 8.161291 c 0,0.822065 0.6618064,1.483871 1.483871,1.483871 H 89.548391 c 0.822065,0 1.483871,-0.661806 1.483871,-1.483871 v -8.161291 c 0,-0.822064 -0.661806,-1.483871 -1.483871,-1.483871 H 42.806454 v -4.428427 c 0,-0.822065 -0.661806,-1.483871 -1.483871,-1.483871 z"
     style="color:#000000;display:inline;overflow:visible;visibility:visible;fill:url(#linearGradient26390);fill-opacity:1;fill-rule:nonzero;stroke:none;stroke-width:0.741935;marker:none;enable-background:accumulate" />
  <path
     style="color:#000000;display:inline;overflow:visible;visibility:visible;opacity:0.8;fill:none;stroke:url(#linearGradient5869);stroke-width:0.741935;stroke-linecap:butt;stroke-linejoin:miter;stroke-miterlimit:4;stroke-dasharray:none;stroke-dashoffset:0;stroke-opacity:1;marker:none;enable-background:accumulate"
     id="path3468"
     d="m 10.653036,15.370968 c -1.3934885,0.01521 -2.3465863,0.678352 -2.3465863,1.982637 v 3.95261 c -0.7127036,0 -1.0959133,-0.0022 -1.5613294,0 -1.2453833,0.0059 -2.1350085,0.701062 -2.1350085,2.101888 0.069445,20.401483 -0.013355,21.458215 -0.013355,23.190345 2.8978591,0 86.8064582,-7.335249 86.8064582,-10.492675 V 23.387448 c 0,-1.304293 -0.859057,-2.096443 -2.252553,-2.081233 H 43.177407 v -3.857227 c 0,-1.304285 -0.880996,-2.07802 -2.187426,-2.07802 h -30.33696 z" />
  <path
     id="rect8678"
     d="m 10.532256,16.112785 c -0.8220643,0 -1.4838708,0.661806 -1.4838708,1.483871 v 4.451613 H 6.8225784 c -0.8220646,0 -1.4838711,0.661807 -1.4838711,1.483871 v 8.161291 c 0,0.822064 0.6618065,1.483871 1.4838711,1.483871 H 89.177424 c 0.822064,0 1.483871,-0.661807 1.483871,-1.483871 V 23.53214 c 0,-0.822064 -0.661807,-1.483871 -1.483871,-1.483871 H 42.435487 v -4.451613 c 0,-0.822065 -0.661807,-1.483871 -1.483871,-1.483871 z"
     style="color:#000000;display:inline;overflow:visible;visibility:visible;fill:none;stroke:url(#linearGradient5873);stroke-width:0.741935;stroke-linecap:round;stroke-linejoin:round;stroke-miterlimit:4;stroke-dasharray:none;stroke-dashoffset:0;stroke-opacity:1;marker:none;enable-background:accumulate" />
  <g
     id="g2479"
     transform="matrix(0.7439639,0,0,0.73596427,0.39496098,5.3053366)">
    <rect
       style="display:inline;overflow:visible;visibility:visible;opacity:0.3;fill:url(#linearGradient5875);fill-opacity:1;fill-rule:nonzero;stroke:none;stroke-width:1;marker:none"
       id="rect4173"
       y="99.870178"
       x="12.462574"
       height="16.129816"
       width="103.05159" />
    <path
       style="display:inline;overflow:visible;visibility:visible;opacity:0.3;fill:url(#radialGradient5877);fill-opacity:1;fill-rule:nonzero;stroke:none;stroke-width:1;marker:none"
       id="path5058"
       d="m 115.51417,99.870734 c 0,0 0,16.128926 0,16.128926 4.26271,0.0304 10.30516,-3.61367 10.30516,-8.0655 0,-4.45183 -4.75687,-8.063426 -10.30516,-8.063426 z" />
    <path
       style="display:inline;overflow:visible;visibility:visible;opacity:0.3;fill:url(#radialGradient5879);fill-opacity:1;fill-rule:nonzero;stroke:none;stroke-width:1;marker:none"
       id="path5018"
       d="m 12.462574,99.870734 c 0,0 0,16.128926 0,16.128926 -4.2627113,0.0304 -10.3051588,-3.61367 -10.3051588,-8.0655 0,-4.45183 4.7568636,-8.063426 10.3051588,-8.063426 z" />
  </g>
  <path
     style="display:inline;overflow:visible;visibility:visible;fill:url(#linearGradient5883);fill-opacity:1;fill-rule:nonzero;stroke:none;stroke-width:0.741935;marker:none;enable-background:accumulate"
     id="path3369"
     d="m 5.1532234,29.467468 85.6935476,7.42e-4 c 1.238001,0 2.04033,0.878267 2.04033,1.970158 l -2.015453,53.256636 c 0.02864,1.381566 -0.408176,1.929359 -1.846559,1.900387 L 7.4618597,86.560742 c -1.2379862,0 -2.4863447,-0.81535 -2.4863447,-1.907249 L 3.1129008,31.438398 c 0,-1.091899 0.802329,-1.97093 2.0403226,-1.97093 z" />
  <path
     style="opacity:0.4;fill:url(#linearGradient5887);fill-opacity:1;stroke:none;stroke-width:0.741935"
     id="path6127"
     d="m 4.7991125,29.096493 86.4017625,7.42e-4 c 1.248232,0 2.057194,0.88967 2.057194,1.995755 L 91.22596,85.041273 c 0.02886,1.399506 -0.411552,1.954414 -1.861821,1.925063 L 7.1268313,86.931168 c -1.2482175,0 -2.5068889,-0.825945 -2.5068889,-1.932029 L 2.741933,31.093019 c 0,-1.106077 0.808962,-1.996526 2.0571795,-1.996526 z" />
  <path
     id="path8263"
     d="m 5.1532234,30.209552 c -2.1136407,0.220029 -1.0456319,2.79479 -1.2166926,4.243998 0.5830426,16.729125 1.1682962,33.458198 1.7499588,50.187345 0.8819239,1.847227 3.2868414,0.951198 4.9252054,1.168051 26.142207,0.01521 52.284415,0.03057 78.426616,0.04578 1.903806,-0.12265 0.858575,-2.832732 1.226842,-4.196054 0.634095,-16.745106 1.886683,-50.133584 1.886683,-50.133584 0,-0.862196 -0.578651,-1.315526 -1.637734,-1.315526 -27.517876,0 -57.842999,0 -85.3608786,0 z"
     style="display:inline;overflow:visible;visibility:visible;opacity:0.5;fill:none;stroke:url(#linearGradient5891);stroke-width:0.741935;stroke-linecap:round;stroke-linejoin:round;stroke-miterlimit:4;stroke-dasharray:none;stroke-dashoffset:0;stroke-opacity:1;marker:none;enable-background:accumulate" />
  <path
     style="display:inline;overflow:visible;visibility:visible;opacity:0.3;fill:none;stroke:#000000;stroke-width:0.741935;stroke-linecap:round;stroke-linejoin:round;stroke-miterlimit:4;stroke-dasharray:none;stroke-dashoffset:0;stroke-opacity:1;marker:none;enable-background:accumulate"
     id="path3369-7"
     d="m 5.1532234,29.467468 85.6935476,7.42e-4 c 1.238001,0 2.04033,0.878267 2.04033,1.970158 l -2.015453,53.256636 c 0.02864,1.381566 -0.408176,1.929359 -1.846559,1.900387 L 7.4618597,86.560742 c -1.2379862,0 -2.4863447,-0.81535 -2.4863447,-1.907249 L 3.1129008,31.438398 c 0,-1.091899 0.802329,-1.97093 2.0403226,-1.97093 z" />
</svg>
