<?xml version="1.0" encoding="UTF-8" standalone="no"?>
<svg
   version="1.1"
   id="svg18157"
   height="96"
   width="96"
   xmlns:xlink="http://www.w3.org/1999/xlink"
   xmlns="http://www.w3.org/2000/svg"
   xmlns:svg="http://www.w3.org/2000/svg"
   xmlns:rdf="http://www.w3.org/1999/02/22-rdf-syntax-ns#"
   xmlns:cc="http://creativecommons.org/ns#"
   xmlns:dc="http://purl.org/dc/elements/1.1/">
  <defs
     id="defs18159">
    <linearGradient
       id="linearGradient5060-820-91-9-0">
      <stop
         offset="0"
         style="stop-color:#000000;stop-opacity:1"
         id="stop2681-778-5-1" />
      <stop
         offset="1"
         style="stop-color:#000000;stop-opacity:0"
         id="stop2683-2-86-2" />
    </linearGradient>
    <linearGradient
       id="linearGradient5048-585-73-1-5">
      <stop
         offset="0"
         style="stop-color:#000000;stop-opacity:0"
         id="stop2667-99-4-6" />
      <stop
         offset="0.5"
         style="stop-color:#000000;stop-opacity:1"
         id="stop2669-5-9-4" />
      <stop
         offset="1"
         style="stop-color:#000000;stop-opacity:0"
         id="stop2671-56-4-2" />
    </linearGradient>
    <linearGradient
       id="linearGradient4646-7-4-3">
      <stop
         id="stop4648-8-0-3"
         style="stop-color:#f9f9f9;stop-opacity:1"
         offset="0" />
      <stop
         id="stop4650-1-7-3"
         style="stop-color:#d8d8d8;stop-opacity:1"
         offset="1" />
    </linearGradient>
    <linearGradient
       gradientTransform="matrix(0.75271758,0,0,0.75271758,-210.96524,-173.75297)"
       gradientUnits="userSpaceOnUse"
       xlink:href="#61299"
       id="linearGradient4275"
       x1="356"
       x2="356"
       y1="292"
       y2="272" />
    <linearGradient
       id="61299">
      <stop
         id="stop4661"
         offset="0"
         style="stop-color:#000000;stop-opacity:0.498" />
      <stop
         id="stop4663"
         offset="1"
         style="stop-color:#000000;stop-opacity:0" />
    </linearGradient>
    <linearGradient
       gradientTransform="matrix(1.3426317,0,0,1.3066004,5.9992131,9.2705335)"
       gradientUnits="userSpaceOnUse"
       xlink:href="#34542"
       id="linearGradient4242"
       x1="27.3354"
       x2="27.3354"
       y1="-11.032269"
       y2="22.380869" />
    <linearGradient
       id="34542">
      <stop
         id="stop3456-4-9-38-1-8"
         offset="0"
         style="stop-color:#ffffff;stop-opacity:1" />
      <stop
         id="stop3458-39-80-3-5-5"
         offset="0.002736"
         style="stop-color:#ffffff;stop-opacity:0.23529412" />
      <stop
         id="stop3460-7-0-2-4-2"
         offset="0.99001008"
         style="stop-color:#ffffff;stop-opacity:0.15686275" />
      <stop
         id="stop3462-0-9-8-7-2"
         offset="1"
         style="stop-color:#ffffff;stop-opacity:0.39215687" />
    </linearGradient>
    <linearGradient
       gradientTransform="matrix(0.97016354,0,0,0.8149674,2.1042081,3.1188965)"
       gradientUnits="userSpaceOnUse"
       xlink:href="#4632"
       id="linearGradient4240"
       x1="36.413651"
       x2="36.413651"
       y1="-8.291666"
       y2="43.430573" />
    <linearGradient
       id="4632">
      <stop
         id="stop4634-4-4-7-7-4"
         offset="0"
         style="stop-color:#b4cee1;stop-opacity:1" />
      <stop
         id="stop4636-3-1-5-1-3"
         offset="1"
         style="stop-color:#5d9fcd;stop-opacity:1" />
    </linearGradient>
    <radialGradient
       cx="605.71429"
       cy="486.64789"
       fx="605.71429"
       fy="486.64789"
       gradientTransform="matrix(-0.06247658,0,0,0.0495908,46.731366,13.669461)"
       gradientUnits="userSpaceOnUse"
       xlink:href="#linearGradient5060-820-91-9-0"
       id="radialGradient22550"
       r="117.14286" />
    <radialGradient
       cx="605.71429"
       cy="486.64789"
       fx="605.71429"
       fy="486.64789"
       gradientTransform="matrix(0.06247659,0,0,0.0495908,49.207844,13.669461)"
       gradientUnits="userSpaceOnUse"
       xlink:href="#linearGradient5060-820-91-9-0"
       id="radialGradient22548"
       r="117.14286" />
    <linearGradient
       gradientTransform="matrix(0.16108455,0,0,0.0495908,-10.250943,13.669461)"
       gradientUnits="userSpaceOnUse"
       xlink:href="#linearGradient5048-585-73-1-5"
       id="linearGradient22546"
       x1="302.85715"
       x2="302.85715"
       y1="366.64789"
       y2="609.50507" />
    <linearGradient
       gradientTransform="matrix(2.0789343,0,0,2.0789343,-107.82754,-50.792259)"
       gradientUnits="userSpaceOnUse"
       xlink:href="#linearGradient4646-7-4-3"
       id="linearGradient29482"
       x1="63.412205"
       x2="63.412205"
       y1="19.663828"
       y2="21.215551" />
  </defs>
  <metadata
     id="metadata18162">
    <rdf:RDF>
      <cc:Work
         rdf:about="">
        <dc:format>image/svg+xml</dc:format>
        <dc:type
           rdf:resource="http://purl.org/dc/dcmitype/StillImage" />
        <dc:title />
      </cc:Work>
    </rdf:RDF>
  </metadata>
  <g
     transform="translate(-1.7920898e-4,48.000002)"
     id="g3222">
    <path
       d="m 9.4584931,-32.218664 c -0.834012,-6.8e-5 -1.382901,0.808245 -1.382901,1.642256 l -1.5e-5,4.356203 h -2.258153 c -0.834011,0 -1.505435,0.671424 -1.505435,1.505435 V -1.3806465 H 91.627229 l 0.02717,-23.3341235 c 7.52e-4,-0.834011 -0.671424,-1.505435 -1.505435,-1.505435 l -47.448381,-1.21e-4 -0.03726,-4.490239 c -0.0068,-0.833981 -0.671424,-1.505367 -1.505435,-1.505435 z"
       id="rect8678-4-5"
       style="color:#000000;display:inline;overflow:visible;visibility:visible;fill:url(#linearGradient29482);fill-opacity:1;fill-rule:nonzero;stroke:none;stroke-width:0.752659;marker:none;enable-background:accumulate" />
    <path
       d="m 9.9573861,-32.618425 c -1.413739,0.01543 -2.258145,0.825031 -2.258153,2.148271 l -1.5e-5,3.873469 c -0.72306,0 -1.111839,-0.0023 -1.584018,0 -1.263482,0.006 -2.166036,0.711251 -2.166036,2.132434 0.07046,20.6979645 -0.01353,23.4599635 -0.01353,23.4599635 H 92.003591 l 0.0271,-23.4809185 c 0.0015,-1.323248 -0.871541,-2.126909 -2.285288,-2.111479 H 43.076907 v -3.7767 c 0,-1.32324 -0.931104,-2.242263 -2.256519,-2.242376 l -30.8630169,-0.0026 z"
       id="path3468-0"
       style="color:#000000;display:inline;overflow:visible;visibility:visible;opacity:0.3;fill:none;stroke:#000000;stroke-width:0.752718;stroke-linecap:butt;stroke-linejoin:miter;stroke-miterlimit:4;stroke-dasharray:none;stroke-dashoffset:0;stroke-opacity:1;marker:none;enable-background:accumulate" />
    <path
       d="m 9.8348511,-31.865828 c -0.834011,-7.5e-5 -1.3829,0.808246 -1.3829,1.642257 l -1.5e-5,4.379724 h -2.258153 c -0.834011,0 -1.505435,0.671425 -1.505435,1.505436 l 1.5e-5,22.5814065 H 91.250885 l 0.0271,-22.5814065 c 7.52e-4,-0.834011 -0.671424,-1.505436 -1.505435,-1.505436 l -47.448321,-1.2e-4 1.5e-5,-4.379604 c 0,-0.834011 -0.708729,-1.639525 -1.54274,-1.639592 z"
       id="rect8678-8"
       style="color:#000000;display:inline;overflow:visible;visibility:visible;opacity:0.3;fill:none;stroke:#ffffff;stroke-width:0.752718;stroke-linecap:round;stroke-linejoin:round;stroke-miterlimit:4;stroke-dasharray:none;stroke-dashoffset:0;stroke-opacity:1;marker:none;enable-background:accumulate" />
    <rect
       height="12.043481"
       id="rect22540"
       style="display:inline;overflow:visible;visibility:visible;opacity:0.3;fill:url(#linearGradient22546);fill-opacity:1;fill-rule:nonzero;stroke:none;stroke-width:0.750706;marker:none;enable-background:new"
       width="77.780807"
       x="9.0792093"
       y="31.851824" />
    <path
       d="m 86.860012,31.852236 c 0,0 0,12.042819 0,12.042819 3.217394,0.02266 7.778087,-2.698184 7.778087,-6.022185 0,-3.324 -3.590373,-6.020634 -7.778087,-6.020634 z"
       id="path22542"
       style="display:inline;overflow:visible;visibility:visible;opacity:0.3;fill:url(#radialGradient22548);fill-opacity:1;fill-rule:nonzero;stroke:none;stroke-width:0.750706;marker:none;enable-background:new" />
    <path
       d="m 9.0792061,31.852236 c 0,0 0,12.042819 0,12.042819 -3.217394,0.02269 -7.778087,-2.698184 -7.778087,-6.022185 0,-3.324 3.590365,-6.020634 7.778087,-6.020634 z"
       id="path22544"
       style="display:inline;overflow:visible;visibility:visible;opacity:0.3;fill:url(#radialGradient22550);fill-opacity:1;fill-rule:nonzero;stroke:none;stroke-width:0.750706;marker:none;enable-background:new" />
    <path
       d="M 0.92476007,-4.0151575 4.3119891,38.137029 c 0,0 0,1.505435 1.505435,1.505435 H 90.121304 c 1.505925,0 1.505925,-1.505435 1.505925,-1.505435 l 3.387229,-42.1521865 c 0.07301,-0.75198 0.376358,-2.258153 -1.505435,-2.258153 H 2.8065541 c -2.25815303,0 -1.96787503,1.52265 -1.88179403,2.258153 z"
       id="path4232"
       style="color:#000000;display:inline;overflow:visible;visibility:visible;fill:url(#linearGradient4240);fill-opacity:1;fill-rule:nonzero;stroke:#000000;stroke-width:0.752718;stroke-miterlimit:4;stroke-dasharray:none;stroke-opacity:0.301961;marker:none;enable-background:accumulate" />
    <path
       d="m 1.7067661,-3.9088215 3.357941,42.0458505 c 0,0 0,0.752718 0.752717,0.752718 H 90.121793 c 0.752718,0 0.752718,-0.752718 0.752718,-0.752718 L 94.26174,-4.0151575 c 0.115753,-1.200547 0,-1.505435 -0.752717,-1.505435 H 2.8377391 c -0.783902,0 -1.362125,-0.16958 -1.130973,1.611771 z"
       id="path4234"
       style="color:#000000;display:inline;overflow:visible;visibility:visible;opacity:0.5;fill:none;stroke:url(#linearGradient4242);stroke-width:0.752718;stroke-linecap:round;stroke-linejoin:miter;stroke-miterlimit:4;stroke-dasharray:none;stroke-dashoffset:0;stroke-opacity:1;marker:none;enable-background:accumulate" />
    <path
       d="m 2.8065541,-6.6496695 c -0.606833,0 -1.075137,0.101248 -1.436336,0.294027 -0.361206,0.192786 -0.60217403,0.484231 -0.73067003,0.789473 -0.256978,0.610491 -0.129053,1.246094 -0.0882,1.595114 l 3.38575303,42.1389615 -0.0015,-0.03086 c 0,0 -0.0053,0.454189 0.22787,0.920317 0.233102,0.466106 0.775788,0.961462 1.653961,0.961462 H 90.121793 c 0.878377,0 1.420777,-0.493874 1.653924,-0.960009 0.233139,-0.466135 0.22787,-0.921785 0.22787,-0.921785 l -0.0015,0.03086 3.387229,-42.1463085 v -0.0045 c 0.0344,-0.350646 0.153351,-0.963035 -0.03673,-1.558359 -0.09532,-0.298505 -0.285912,-0.596453 -0.59835,-0.799762 -0.31243,-0.203197 -0.724551,-0.308615 -1.245205,-0.308615 z"
       id="path4265"
       style="color:#000000;font-style:normal;font-variant:normal;font-weight:normal;font-stretch:normal;font-size:medium;line-height:normal;font-family:sans-serif;font-variant-ligatures:normal;font-variant-position:normal;font-variant-caps:normal;font-variant-numeric:normal;font-variant-alternates:normal;font-feature-settings:normal;text-indent:0;text-align:start;text-decoration:none;text-decoration-line:none;text-decoration-style:solid;text-decoration-color:#000000;letter-spacing:normal;word-spacing:normal;text-transform:none;writing-mode:lr-tb;direction:ltr;text-orientation:mixed;dominant-baseline:auto;baseline-shift:baseline;text-anchor:start;white-space:normal;shape-padding:0;clip-rule:nonzero;display:inline;overflow:visible;visibility:visible;opacity:0.3;isolation:auto;mix-blend-mode:normal;color-interpolation:sRGB;color-interpolation-filters:linearRGB;solid-color:#000000;solid-opacity:1;vector-effect:none;fill:url(#linearGradient4275);fill-opacity:1;fill-rule:nonzero;stroke:none;stroke-width:0.752718;stroke-linecap:butt;stroke-linejoin:miter;stroke-miterlimit:4;stroke-dasharray:none;stroke-dashoffset:0;stroke-opacity:1;marker:none;color-rendering:auto;image-rendering:auto;shape-rendering:auto;text-rendering:auto;enable-background:accumulate" />
  </g>
</svg>
