<?xml version="1.0" encoding="UTF-8" standalone="no"?>
<svg
   version="1.1"
   id="svg18157"
   height="96"
   width="96"
   xmlns:xlink="http://www.w3.org/1999/xlink"
   xmlns="http://www.w3.org/2000/svg"
   xmlns:svg="http://www.w3.org/2000/svg"
   xmlns:rdf="http://www.w3.org/1999/02/22-rdf-syntax-ns#"
   xmlns:cc="http://creativecommons.org/ns#"
   xmlns:dc="http://purl.org/dc/elements/1.1/">
  <defs
     id="defs18159">
    <linearGradient
       id="linearGradient5060-820-91-9-0">
      <stop
         offset="0"
         style="stop-color:#000000;stop-opacity:1"
         id="stop2681-778-5-1" />
      <stop
         offset="1"
         style="stop-color:#000000;stop-opacity:0"
         id="stop2683-2-86-2" />
    </linearGradient>
    <linearGradient
       id="linearGradient5048-585-73-1-5">
      <stop
         offset="0"
         style="stop-color:#000000;stop-opacity:0"
         id="stop2667-99-4-6" />
      <stop
         offset="0.5"
         style="stop-color:#000000;stop-opacity:1"
         id="stop2669-5-9-4" />
      <stop
         offset="1"
         style="stop-color:#000000;stop-opacity:0"
         id="stop2671-56-4-2" />
    </linearGradient>
    <linearGradient
       id="linearGradient4646-7-4-3">
      <stop
         id="stop4648-8-0-3"
         style="stop-color:#f9f9f9;stop-opacity:1"
         offset="0" />
      <stop
         id="stop4650-1-7-3"
         style="stop-color:#d8d8d8;stop-opacity:1"
         offset="1" />
    </linearGradient>
    <linearGradient
       y2="264"
       y1="292"
       x2="356"
       x1="356"
       id="linearGradient2401"
       xlink:href="#61299"
       gradientUnits="userSpaceOnUse"
       gradientTransform="matrix(0.7527176,0,0,0.7527176,-210.96525,-173.75296)" />
    <linearGradient
       id="61299">
      <stop
         style="stop-color:#000000;stop-opacity:0.498"
         offset="0"
         id="stop4661" />
      <stop
         style="stop-color:#000000;stop-opacity:0"
         offset="1"
         id="stop4663" />
    </linearGradient>
    <linearGradient
       y2="22.380869"
       y1="-11.032269"
       x2="27.3354"
       x1="27.3354"
       id="linearGradient2399"
       xlink:href="#34542"
       gradientUnits="userSpaceOnUse"
       gradientTransform="matrix(1.3426317,0,0,1.3066005,5.9992132,9.2705425)" />
    <linearGradient
       id="34542">
      <stop
         style="stop-color:#ffffff;stop-opacity:1"
         offset="0"
         id="stop3456-4-9-38-1-8" />
      <stop
         style="stop-color:#ffffff;stop-opacity:0.23529412"
         offset="0.002736"
         id="stop3458-39-80-3-5-5" />
      <stop
         style="stop-color:#ffffff;stop-opacity:0.15686275"
         offset="0.99001008"
         id="stop3460-7-0-2-4-2" />
      <stop
         style="stop-color:#ffffff;stop-opacity:0.39215687"
         offset="1"
         id="stop3462-0-9-8-7-2" />
    </linearGradient>
    <linearGradient
       y2="43.430573"
       y1="-8.291666"
       x2="36.413651"
       x1="36.413651"
       id="linearGradient2397"
       xlink:href="#4632"
       gradientUnits="userSpaceOnUse"
       gradientTransform="matrix(0.97016356,0,0,0.81496742,2.1042082,3.1189055)" />
    <linearGradient
       id="4632">
      <stop
         style="stop-color:#b4cee1;stop-opacity:1"
         offset="0"
         id="stop4634-4-4-7-7-4" />
      <stop
         style="stop-color:#5d9fcd;stop-opacity:1"
         offset="1"
         id="stop4636-3-1-5-1-3" />
    </linearGradient>
    <radialGradient
       r="117.14286"
       id="radialGradient2395"
       xlink:href="#linearGradient5060-820-91-9-0"
       gradientUnits="userSpaceOnUse"
       gradientTransform="matrix(-0.06247658,0,0,0.0495908,46.731367,13.66947)"
       fy="486.64789"
       fx="605.71429"
       cy="486.64789"
       cx="605.71429" />
    <radialGradient
       r="117.14286"
       id="radialGradient2393"
       xlink:href="#linearGradient5060-820-91-9-0"
       gradientUnits="userSpaceOnUse"
       gradientTransform="matrix(0.06247659,0,0,0.0495908,49.207846,13.66947)"
       fy="486.64789"
       fx="605.71429"
       cy="486.64789"
       cx="605.71429" />
    <linearGradient
       y2="609.50507"
       y1="366.64789"
       x2="302.85715"
       x1="302.85715"
       id="linearGradient2391"
       xlink:href="#linearGradient5048-585-73-1-5"
       gradientUnits="userSpaceOnUse"
       gradientTransform="matrix(0.16108455,0,0,0.0495908,-10.250944,13.66947)" />
    <linearGradient
       y2="21.215551"
       y1="19.663828"
       x2="63.412205"
       x1="63.412205"
       id="linearGradient2389"
       xlink:href="#linearGradient4646-7-4-3"
       gradientUnits="userSpaceOnUse"
       gradientTransform="matrix(2.0789344,0,0,2.0789344,-107.82755,-50.792251)" />
  </defs>
  <metadata
     id="metadata18162">
    <rdf:RDF>
      <cc:Work
         rdf:about="">
        <dc:format>image/svg+xml</dc:format>
        <dc:type
           rdf:resource="http://purl.org/dc/dcmitype/StillImage" />
      </cc:Work>
    </rdf:RDF>
  </metadata>
  <g
     transform="translate(-1.7920898e-4,48.000002)"
     id="g3222">
    <path
       style="color:#000000;display:inline;overflow:visible;visibility:visible;fill:url(#linearGradient2389);fill-opacity:1;fill-rule:nonzero;stroke:none;stroke-width:0.752659;marker:none;enable-background:accumulate"
       id="path2369"
       d="m 9.4584929,-32.218656 c -0.8340111,-6.8e-5 -1.3829003,0.808245 -1.3829003,1.642256 l -1.51e-5,4.356203 H 5.8174244 c -0.8340111,0 -1.5054352,0.671424 -1.5054352,1.505435 V -1.3806375 H 91.627228 l 0.02717,-23.3341245 c 7.53e-4,-0.834011 -0.671424,-1.505435 -1.505435,-1.505435 l -47.448379,-1.21e-4 -0.03726,-4.490239 c -0.0068,-0.833981 -0.671424,-1.505367 -1.505435,-1.505435 z" />
    <path
       style="color:#000000;display:inline;overflow:visible;visibility:visible;opacity:0.3;fill:none;stroke:#000000;stroke-width:0.752718;stroke-linecap:butt;stroke-linejoin:miter;stroke-miterlimit:4;stroke-dasharray:none;stroke-dashoffset:0;stroke-opacity:1;marker:none;enable-background:accumulate"
       id="path2371"
       d="m 9.9573866,-32.618417 c -1.4137392,0.01543 -2.2581456,0.825031 -2.2581531,2.148271 l -1.51e-5,3.87347 c -0.7230605,0 -1.1118392,-0.0023 -1.5840189,0 -1.2634817,0.006 -2.1660352,0.71125 -2.1660352,2.132434 0.070454,20.6979645 -0.013534,23.4599635 -0.013534,23.4599635 H 92.003587 l 0.0271,-23.4809195 c 0.0015,-1.323248 -0.871542,-2.126909 -2.285289,-2.111478 h -46.66849 v -3.776701 c 0,-1.32324 -0.931104,-2.242263 -2.256519,-2.242376 l -30.8630175,-0.0026 z" />
    <path
       style="color:#000000;display:inline;overflow:visible;visibility:visible;opacity:0.3;fill:none;stroke:#ffffff;stroke-width:0.752718;stroke-linecap:round;stroke-linejoin:round;stroke-miterlimit:4;stroke-dasharray:none;stroke-dashoffset:0;stroke-opacity:1;marker:none;enable-background:accumulate"
       id="path2373"
       d="m 9.8348517,-31.86582 c -0.8340111,-7.5e-5 -1.3829003,0.808246 -1.3829003,1.642257 l -1.51e-5,4.379725 H 6.1937832 c -0.8340111,0 -1.5054352,0.671424 -1.5054352,1.505435 l 1.51e-5,22.5814075 H 91.250884 l 0.0271,-22.5814075 c 7.53e-4,-0.834011 -0.671424,-1.505435 -1.505435,-1.505435 l -47.448319,-1.21e-4 1.5e-5,-4.379604 c 0,-0.834011 -0.708729,-1.639525 -1.54274,-1.639592 z" />
    <rect
       y="31.85183"
       x="9.0792093"
       width="77.780807"
       style="display:inline;overflow:visible;visibility:visible;opacity:0.3;fill:url(#linearGradient2391);fill-opacity:1;fill-rule:nonzero;stroke:none;stroke-width:0.750706;marker:none;enable-background:new"
       id="rect2375"
       height="12.043482" />
    <path
       style="display:inline;overflow:visible;visibility:visible;opacity:0.3;fill:url(#radialGradient2393);fill-opacity:1;fill-rule:nonzero;stroke:none;stroke-width:0.750706;marker:none;enable-background:new"
       id="path2377"
       d="m 86.860012,31.852245 c 0,0 0,12.042819 0,12.042819 3.217393,0.02266 7.778086,-2.698184 7.778086,-6.022185 0,-3.324001 -3.590372,-6.020634 -7.778086,-6.020634 z" />
    <path
       style="display:inline;overflow:visible;visibility:visible;opacity:0.3;fill:url(#radialGradient2395);fill-opacity:1;fill-rule:nonzero;stroke:none;stroke-width:0.750706;marker:none;enable-background:new"
       id="path2379"
       d="m 9.079206,31.852245 c 0,0 0,12.042819 0,12.042819 -3.2173938,0.02269 -7.7780873,-2.698184 -7.7780873,-6.022185 0,-3.324001 3.5903652,-6.020634 7.7780873,-6.020634 z" />
    <path
       style="color:#000000;display:inline;overflow:visible;visibility:visible;fill:url(#linearGradient2397);fill-opacity:1;fill-rule:nonzero;stroke:#000000;stroke-width:0.752718;stroke-miterlimit:4;stroke-dasharray:none;stroke-opacity:0.301961;marker:none;enable-background:accumulate"
       id="path2381"
       d="M 0.92475995,-4.0151485 4.3119892,38.137038 c 0,0 0,1.505435 1.5054352,1.505435 H 90.121304 c 1.505924,0 1.505924,-1.505435 1.505924,-1.505435 l 3.387229,-42.1521865 c 0.07301,-0.75198 0.376359,-2.258153 -1.505435,-2.258153 H 2.806554 c -2.25815286,0 -1.96787484,1.52265 -1.88179405,2.258153 z" />
    <path
       style="color:#000000;display:inline;overflow:visible;visibility:visible;opacity:0.5;fill:none;stroke:url(#linearGradient2399);stroke-width:0.752718;stroke-linecap:round;stroke-linejoin:miter;stroke-miterlimit:4;stroke-dasharray:none;stroke-dashoffset:0;stroke-opacity:1;marker:none;enable-background:accumulate"
       id="path2383"
       d="m 1.7067658,-3.9088125 3.357941,42.0458505 c 0,0 0,0.752718 0.7527176,0.752718 H 90.121793 c 0.752717,0 0.752717,-0.752718 0.752717,-0.752718 l 3.38723,-42.1521865 c 0.115753,-1.200547 0,-1.505435 -0.752718,-1.505435 H 2.8377391 c -0.7839027,0 -1.3621254,-0.16958 -1.1309733,1.611771 z" />
    <path
       style="color:#000000;font-style:normal;font-variant:normal;font-weight:normal;font-stretch:normal;font-size:medium;line-height:normal;font-family:sans-serif;font-variant-ligatures:normal;font-variant-position:normal;font-variant-caps:normal;font-variant-numeric:normal;font-variant-alternates:normal;font-feature-settings:normal;text-indent:0;text-align:start;text-decoration:none;text-decoration-line:none;text-decoration-style:solid;text-decoration-color:#000000;letter-spacing:normal;word-spacing:normal;text-transform:none;writing-mode:lr-tb;direction:ltr;text-orientation:mixed;dominant-baseline:auto;baseline-shift:baseline;text-anchor:start;white-space:normal;shape-padding:0;clip-rule:nonzero;display:inline;overflow:visible;visibility:visible;opacity:0.3;isolation:auto;mix-blend-mode:normal;color-interpolation:sRGB;color-interpolation-filters:linearRGB;solid-color:#000000;solid-opacity:1;vector-effect:none;fill:url(#linearGradient2401);fill-opacity:1;fill-rule:nonzero;stroke:none;stroke-width:0.752718;stroke-linecap:butt;stroke-linejoin:miter;stroke-miterlimit:4;stroke-dasharray:none;stroke-dashoffset:0;stroke-opacity:1;marker:none;color-rendering:auto;image-rendering:auto;shape-rendering:auto;text-rendering:auto;enable-background:accumulate"
       id="path2385"
       d="m 2.806554,-6.6496605 c -0.6068334,0 -1.0751367,0.101248 -1.4363358,0.294027 -0.3612066,0.192786 -0.60217406,0.48423 -0.73067048,0.789472 -0.25697779,0.610492 -0.12905343,1.246094 -0.0882035,1.595114 l 3.38575393,42.1389625 -0.00151,-0.03086 c 0,0 -0.00527,0.45419 0.2278702,0.920318 0.2331015,0.466105 0.7757884,0.961461 1.6539614,0.961461 H 90.121793 c 0.878376,0 1.420777,-0.493873 1.653924,-0.960008 0.233139,-0.466136 0.22787,-0.921786 0.22787,-0.921786 l -0.0015,0.03086 3.38723,-42.1463085 v -0.0045 c 0.0344,-0.350646 0.153351,-0.963035 -0.03673,-1.558359 -0.09532,-0.298505 -0.285912,-0.596454 -0.59835,-0.799763 -0.312431,-0.203196 -0.724551,-0.308614 -1.245206,-0.308614 z" />
    <path
       style="color:#000000;font-style:normal;font-variant:normal;font-weight:normal;font-stretch:normal;font-size:medium;line-height:normal;font-family:Sans;-inkscape-font-specification:Sans;text-indent:0;text-align:start;text-decoration:none;text-decoration-line:none;letter-spacing:normal;word-spacing:normal;text-transform:none;writing-mode:lr-tb;direction:ltr;baseline-shift:baseline;text-anchor:start;display:inline;overflow:visible;visibility:visible;opacity:0.2;fill:#ffffff;fill-opacity:1;stroke:none;stroke-width:3.76359;marker:none;enable-background:accumulate"
       id="path15987"
       d="M 64.928262,30.233503 H 28.812119 v 0 0 L 67.953435,5.5551815 Z M 59.413778,16.565619 46.017061,25.108045 h 12.342611 z" />
    <path
       style="color:#000000;font-style:normal;font-variant:normal;font-weight:normal;font-stretch:normal;font-size:medium;line-height:normal;font-family:Sans;-inkscape-font-specification:Sans;text-indent:0;text-align:start;text-decoration:none;text-decoration-line:none;letter-spacing:normal;word-spacing:normal;text-transform:none;writing-mode:lr-tb;direction:ltr;baseline-shift:baseline;text-anchor:start;display:inline;overflow:visible;visibility:visible;opacity:0.55;fill:#175785;fill-opacity:1;stroke:none;stroke-width:3.76359;marker:none;enable-background:accumulate"
       id="path13642"
       d="M 64.928262,29.480785 H 28.812119 v 0 0 L 67.953435,4.8024635 Z M 59.413778,15.812901 46.017061,24.355327 h 12.342611 z" />
    <path
       style="color:#000000;font-style:normal;font-variant:normal;font-weight:normal;font-stretch:normal;font-size:medium;line-height:normal;font-family:Sans;-inkscape-font-specification:Sans;text-indent:0;text-align:start;text-decoration:none;text-decoration-line:none;letter-spacing:normal;word-spacing:normal;text-transform:none;writing-mode:lr-tb;direction:ltr;baseline-shift:baseline;text-anchor:start;display:inline;overflow:visible;visibility:visible;opacity:0.55;fill:#175785;fill-opacity:1;stroke:none;stroke-width:3.76359;marker:none;enable-background:accumulate"
       id="path47"
       d="M 64.928262,29.480785 H 28.812119 v 0 0 L 67.953435,4.8024635 Z M 59.413778,15.812901 46.017061,24.355327 h 12.342611 z" />
  </g>
</svg>
