<?xml version="1.0" encoding="UTF-8" standalone="no"?>
<svg
   version="1.0"
   width="96"
   height="96"
   id="svg3478"
   xmlns:xlink="http://www.w3.org/1999/xlink"
   xmlns="http://www.w3.org/2000/svg"
   xmlns:svg="http://www.w3.org/2000/svg"
   xmlns:rdf="http://www.w3.org/1999/02/22-rdf-syntax-ns#"
   xmlns:cc="http://creativecommons.org/ns#"
   xmlns:dc="http://purl.org/dc/elements/1.1/">
  <metadata
     id="metadata94">
    <rdf:RDF>
      <cc:Work
         rdf:about="">
        <dc:format>image/svg+xml</dc:format>
        <dc:type
           rdf:resource="http://purl.org/dc/dcmitype/StillImage" />
        <dc:title />
      </cc:Work>
    </rdf:RDF>
  </metadata>
  <defs
     id="defs3480">
    <linearGradient
       id="linearGradient3414">
      <stop
         id="stop3416"
         style="stop-color:#000000;stop-opacity:1"
         offset="0" />
      <stop
         id="stop3418"
         style="stop-color:#000000;stop-opacity:0"
         offset="1" />
    </linearGradient>
    <linearGradient
       id="linearGradient3341">
      <stop
         id="stop3343"
         style="stop-color:#ffffff;stop-opacity:1"
         offset="0" />
      <stop
         id="stop3345"
         style="stop-color:#ffffff;stop-opacity:0"
         offset="1" />
    </linearGradient>
    <radialGradient
       r="9.2146597"
       fy="20.146597"
       fx="10.471204"
       cy="20.146597"
       cx="10.471204"
       gradientTransform="matrix(5.2090906,0,0,1.7363636,-6.5454513,2.348348)"
       gradientUnits="userSpaceOnUse"
       id="radialGradient3340"
       xlink:href="#linearGradient3414" />
    <linearGradient
       xlink:href="#linearGradient3243"
       id="linearGradient2874"
       gradientUnits="userSpaceOnUse"
       gradientTransform="matrix(5.3333333,0,0,5.3333333,-132.83333,-74.833332)"
       x1="39.905758"
       y1="6.1230369"
       x2="39.905758"
       y2="24.0341" />
    <linearGradient
       id="linearGradient3243">
      <stop
         id="stop3245"
         style="stop-color:#fff4e9;stop-opacity:1"
         offset="0" />
      <stop
         id="stop3247"
         style="stop-color:#e7d6c5;stop-opacity:1"
         offset="1" />
    </linearGradient>
    <linearGradient
       xlink:href="#linearGradient3251-8"
       id="linearGradient2876"
       gradientUnits="userSpaceOnUse"
       gradientTransform="matrix(5.3333333,0,0,5.3333333,-132.83333,-74.833332)"
       x1="32.015705"
       y1="24.011269"
       x2="32.015705"
       y2="5" />
    <linearGradient
       id="linearGradient3251-8">
      <stop
         id="stop3253-2"
         style="stop-color:#917f6e;stop-opacity:1"
         offset="0" />
      <stop
         id="stop3255-0"
         style="stop-color:#cbbaa9;stop-opacity:1"
         offset="1" />
    </linearGradient>
    <linearGradient
       xlink:href="#linearGradient3341"
       id="linearGradient2871"
       gradientUnits="userSpaceOnUse"
       gradientTransform="matrix(5.835569,0,0,5.8355808,-151.25687,-81.850163)"
       x1="38.382198"
       y1="5.90625"
       x2="38.382198"
       y2="22.697742" />
    <linearGradient
       xlink:href="#linearGradient3341"
       id="linearGradient2868"
       gradientUnits="userSpaceOnUse"
       gradientTransform="matrix(3.7348495,0,0,3.7348365,-68.919239,-58.852598)"
       x1="40.006763"
       y1="12.910877"
       x2="40.006763"
       y2="7.0924568" />
    <linearGradient
       xlink:href="#linearGradient3251-8"
       id="linearGradient2865"
       gradientUnits="userSpaceOnUse"
       gradientTransform="matrix(5.3333333,0,0,5.3333333,-5.333333,-58.669593)"
       x1="17.591623"
       y1="7"
       x2="17.591623"
       y2="-0.02451775" />
  </defs>
  <g
     id="layer1"
     transform="matrix(0.74982899,0,0,0.74982899,0.12846268,48.099622)">
    <path
       style="display:inline;overflow:visible;visibility:visible;opacity:0.3;fill:url(#radialGradient3340);fill-opacity:1;fill-rule:evenodd;stroke:none;stroke-width:1;marker:none;enable-background:accumulate"
       id="path3281"
       d="M 95.999994,37.33017 A 47.999998,16 0 1 1 7.0000002e-7,37.33017 47.999998,16 0 1 1 95.999994,37.33017 Z" />
    <path
       style="fill:url(#linearGradient2874);fill-opacity:1;fill-rule:evenodd;stroke:url(#linearGradient2876);stroke-width:1px;stroke-linecap:butt;stroke-linejoin:miter;stroke-opacity:1"
       id="path2463"
       d="M 59.166665,-45.5 8.4999997,7 52.5,50.5 104.5,-0.166667 V -45.5 Z m 21.333334,16 c 4.416,0 8,3.584 8,8 0,4.416 -3.584,8 -8,8 -4.416,0 -8,-3.584 -8,-8 0,-4.416 3.584,-8 8,-8 z" />
    <path
       style="opacity:0.6;fill:none;stroke:url(#linearGradient2871);stroke-width:1px;stroke-linecap:butt;stroke-linejoin:miter;stroke-opacity:1"
       id="path3265"
       d="m 59.629672,-44.5 c 0,0 -49.67726,51.47043 -49.67726,51.47043 0,0 42.53615,41.98714 42.53615,41.98714 0,0 51.011438,-49.664547 51.011438,-49.664547 0,0 0,-43.793023 0,-43.793023 0,0 -43.870328,0 -43.870328,0 z" />
    <path
       style="opacity:0.6;fill:none;stroke:url(#linearGradient2868);stroke-width:1px;stroke-linecap:butt;stroke-linejoin:miter;stroke-opacity:1"
       id="path3294"
       d="m 80.474738,-30.491183 c 5.651902,-0.199253 10.312165,5.803162 8.703503,11.229981 -1.194552,5.325199 -7.751738,8.394113 -12.595882,5.856203 -4.986015,-2.20239 -6.72403,-9.214169 -3.30661,-13.472475 1.660116,-2.24646 4.402068,-3.635344 7.198989,-3.613709 z" />
    <path
       style="fill:none;stroke:url(#linearGradient2865);stroke-width:1px;stroke-linecap:butt;stroke-linejoin:miter;stroke-opacity:1"
       id="path3298"
       d="m 82.666666,-24.002927 c 5.914763,-3.131834 13.621462,-4.091301 20.943314,-4.254607 3.29145,-0.07339 6.61837,0.5968 9.84816,-0.171414 4.11063,-0.97776 6.91191,-3.989402 6.50213,-6.742661 -0.55008,-3.695808 -5.51476,-6.424128 -10.17099,-8.376528 -4.13018,-1.731819 -7.30904,-4.817877 -8.98899,-8.077947 -0.848781,-1.647109 0.63352,-3.376591 3.01116,-3.90752 2.15998,-0.482325 4.4223,-0.672975 6.62024,-0.183232 3.34529,0.745396 7.2943,1.654775 8.85051,4.024854" />
  </g>
</svg>
