<?xml version="1.0" encoding="UTF-8" standalone="no"?>
<svg
   version="1.0"
   width="96"
   height="96"
   id="svg3247"
   xmlns:xlink="http://www.w3.org/1999/xlink"
   xmlns="http://www.w3.org/2000/svg"
   xmlns:svg="http://www.w3.org/2000/svg"
   xmlns:rdf="http://www.w3.org/1999/02/22-rdf-syntax-ns#"
   xmlns:cc="http://creativecommons.org/ns#"
   xmlns:dc="http://purl.org/dc/elements/1.1/">
  <metadata
     id="metadata95874">
    <rdf:RDF>
      <cc:Work
         rdf:about="">
        <dc:format>image/svg+xml</dc:format>
        <dc:type
           rdf:resource="http://purl.org/dc/dcmitype/StillImage" />
      </cc:Work>
    </rdf:RDF>
  </metadata>
  <defs
     id="defs3249">
    <linearGradient
       xlink:href="#linearGradient3524"
       id="linearGradient13148"
       gradientUnits="userSpaceOnUse"
       gradientTransform="matrix(1.7808395,0,0,1.0122157,4.7405529,21.68321)"
       x1="18.993803"
       y1="37.999992"
       x2="23.910248"
       y2="37.999992" />
    <linearGradient
       id="linearGradient3524">
      <stop
         id="stop3526"
         offset="0"
         style="stop-color:#000000;stop-opacity:1;" />
      <stop
         id="stop3528"
         offset="1"
         style="stop-color:#000000;stop-opacity:0;" />
    </linearGradient>
    <linearGradient
       xlink:href="#linearGradient3690"
       id="linearGradient13153"
       gradientUnits="userSpaceOnUse"
       gradientTransform="matrix(1.8623483,0,0,2.608705,-5.1543502,-12.979456)"
       x1="9.5"
       y1="16.26436"
       x2="9.5"
       y2="13.408723" />
    <linearGradient
       id="linearGradient3690">
      <stop
         id="stop3692"
         offset="0"
         style="stop-color:white;stop-opacity:1;" />
      <stop
         id="stop3694"
         offset="1"
         style="stop-color:white;stop-opacity:0.46875" />
    </linearGradient>
    <linearGradient
       id="linearGradient3600-5">
      <stop
         style="stop-color:#f4f4f4;stop-opacity:1"
         offset="0"
         id="stop3602" />
      <stop
         style="stop-color:#dbdbdb;stop-opacity:1"
         offset="1"
         id="stop3604-5" />
    </linearGradient>
    <linearGradient
       id="linearGradient3104-9">
      <stop
         id="stop3106-3"
         offset="0"
         style="stop-color:#9c9c9c;stop-opacity:1;" />
      <stop
         id="stop3108-4"
         offset="1"
         style="stop-color:#afafaf;stop-opacity:1;" />
    </linearGradient>
    <linearGradient
       y2="40.240307"
       x2="27.066463"
       y1="11.286958"
       x1="27.066463"
       gradientTransform="matrix(1.8858769,0,0,2.6729815,-5.0232989,-16.142952)"
       gradientUnits="userSpaceOnUse"
       id="linearGradient3106"
       xlink:href="#linearGradient3600-5" />
    <linearGradient
       gradientTransform="matrix(3.9020318,0,0,3.7929544,-1049.5729,-1028.3545)"
       y2="274.76862"
       x2="277.05368"
       y1="294.66794"
       x1="277.05368"
       gradientUnits="userSpaceOnUse"
       id="linearGradient3108-1"
       xlink:href="#linearGradient3104-9" />
    <linearGradient
       xlink:href="#linearGradient3155-40-9"
       id="linearGradient3176"
       gradientUnits="userSpaceOnUse"
       gradientTransform="matrix(0.87539065,-0.87968181,0.97932539,0.97445279,-3.0169552,27.152318)"
       spreadMethod="pad"
       x1="23.575972"
       y1="25.356892"
       x2="23.575972"
       y2="31.210939" />
    <linearGradient
       id="linearGradient3155-40-9">
      <stop
         id="stop2541-1"
         style="stop-color:#181818;stop-opacity:1"
         offset="0" />
      <stop
         id="stop2543-6"
         style="stop-color:#dbdbdb;stop-opacity:1"
         offset="0.13482948" />
      <stop
         id="stop2545-5-3"
         style="stop-color:#a4a4a4;stop-opacity:1"
         offset="0.20224422" />
      <stop
         id="stop2547-1"
         style="stop-color:#ffffff;stop-opacity:1"
         offset="0.26965895" />
      <stop
         id="stop2549-3"
         style="stop-color:#8d8d8d;stop-opacity:1"
         offset="0.44650277" />
      <stop
         id="stop2551-6-6"
         style="stop-color:#959595;stop-opacity:1"
         offset="0.57114136" />
      <stop
         id="stop2553-7"
         style="stop-color:#cecece;stop-opacity:1"
         offset="0.72038066" />
      <stop
         id="stop2555-8"
         style="stop-color:#181818;stop-opacity:1"
         offset="1" />
    </linearGradient>
    <linearGradient
       xlink:href="#linearGradient3240-279-0"
       id="linearGradient3171"
       gradientUnits="userSpaceOnUse"
       gradientTransform="matrix(0.85064445,-0.85481442,1.146122,1.1404196,-6.2249016,22.651052)"
       x1="30.037716"
       y1="24.989594"
       x2="30.037716"
       y2="30.000141" />
    <linearGradient
       id="linearGradient3240-279-0">
      <stop
         id="stop2559-4"
         style="stop-color:#565656;stop-opacity:1"
         offset="0" />
      <stop
         id="stop2561-7-7"
         style="stop-color:#9a9a9a;stop-opacity:1"
         offset="0.5" />
      <stop
         id="stop2563-2"
         style="stop-color:#545454;stop-opacity:1"
         offset="1" />
    </linearGradient>
    <linearGradient
       xlink:href="#linearGradient3223-789-1"
       id="linearGradient3168"
       gradientUnits="userSpaceOnUse"
       gradientTransform="matrix(0.85064445,-0.85481442,1.146122,1.1404196,-6.4685146,22.89586)"
       x1="30.037716"
       y1="24.989594"
       x2="30.037716"
       y2="30.000141" />
    <linearGradient
       id="linearGradient3223-789-1">
      <stop
         id="stop2567-9"
         style="stop-color:#b1b1b1;stop-opacity:1"
         offset="0" />
      <stop
         id="stop2569-3"
         style="stop-color:#ffffff;stop-opacity:1"
         offset="0.5" />
      <stop
         id="stop2571-1"
         style="stop-color:#8f8f8f;stop-opacity:1"
         offset="1" />
    </linearGradient>
    <linearGradient
       xlink:href="#linearGradient3240-279-0"
       id="linearGradient3165"
       gradientUnits="userSpaceOnUse"
       gradientTransform="matrix(0.85064445,-0.85481442,1.146122,1.1404196,-5.3783496,21.800349)"
       x1="30.037716"
       y1="24.989594"
       x2="30.037716"
       y2="30.000141" />
    <linearGradient
       xlink:href="#linearGradient3223-789-1"
       id="linearGradient3162"
       gradientUnits="userSpaceOnUse"
       gradientTransform="matrix(0.85064445,-0.85481442,1.146122,1.1404196,-5.6219636,22.045155)"
       x1="30.037716"
       y1="24.989594"
       x2="30.037716"
       y2="30.000141" />
    <linearGradient
       xlink:href="#linearGradient3240-279-0"
       id="linearGradient3159"
       gradientUnits="userSpaceOnUse"
       gradientTransform="matrix(0.85064445,-0.85481442,1.146122,1.1404196,-4.5277046,20.945534)"
       x1="30.037716"
       y1="24.989594"
       x2="30.037716"
       y2="30.000141" />
    <linearGradient
       xlink:href="#linearGradient3223-789-1"
       id="linearGradient3156"
       gradientUnits="userSpaceOnUse"
       gradientTransform="matrix(0.85064445,-0.85481442,1.146122,1.1404196,-4.7713176,21.190343)"
       x1="30.037716"
       y1="24.989594"
       x2="30.037716"
       y2="30.000141" />
    <linearGradient
       xlink:href="#linearGradient3290-678-4"
       id="linearGradient3151"
       gradientUnits="userSpaceOnUse"
       gradientTransform="matrix(0.85064445,-0.85481442,1.1461221,1.1404197,-6.5479896,22.97572)"
       x1="9"
       y1="29.056757"
       x2="9"
       y2="26.02973" />
    <linearGradient
       id="linearGradient3290-678-4">
      <stop
         id="stop2607-3"
         style="stop-color:#ece5a5;stop-opacity:1"
         offset="0" />
      <stop
         id="stop2609-5"
         style="stop-color:#fcfbf2;stop-opacity:1"
         offset="1" />
    </linearGradient>
    <linearGradient
       xlink:href="#linearGradient3191-577-7"
       id="linearGradient3153"
       gradientUnits="userSpaceOnUse"
       gradientTransform="matrix(0.74712277,0.03224699,0.03220731,0.74620134,24.394615,18.140574)"
       x1="5.5178981"
       y1="37.371799"
       x2="9.5220556"
       y2="41.391716" />
    <linearGradient
       id="linearGradient3191-577-7">
      <stop
         id="stop2613-9"
         style="stop-color:#dbce48;stop-opacity:1"
         offset="0" />
      <stop
         id="stop2615-4"
         style="stop-color:#c5b625;stop-opacity:1"
         offset="1" />
    </linearGradient>
  </defs>
  <path
     style="fill:url(#linearGradient3106);fill-opacity:1;stroke:url(#linearGradient3108-1);stroke-width:1;stroke-miterlimit:4;stroke-dasharray:none;stroke-opacity:1"
     d="m 64.293252,14.647276 c 2.900927,0 4.5515,-0.05269 4.235748,4.41829 v 66.672933 c 0.06983,3.285608 -2.593774,4.055997 -5.239976,3.763183 H 14.801169 c -3.36839,0.0679 -4.602829,-1.48654 -4.302646,-4.067682 V 11.615142 c 1.270112,-2.6163056 23.405901,0.874037 39.969792,2.982578 3.933832,0 10.030641,-0.123516 13.824937,0.04944 z"
     id="rect1915" />
  <path
     style="fill:#6392c4;fill-opacity:1;stroke:#49759f;stroke-width:0.999999;stroke-miterlimit:4;stroke-dasharray:none;stroke-opacity:1"
     d="m 10.498523,15.609936 v -5.398921 c 0,-2.0556215 2.057763,-3.7105699 4.061035,-3.7105699 h 30.735409 c 2.00327,0 3.550966,1.6549484 3.550966,3.7105699 v 5.398921"
     id="path1917" />
  <path
     style="opacity:0.6;fill:none;stroke:url(#linearGradient13153);stroke-width:0.999999;stroke-miterlimit:4;stroke-dasharray:none;stroke-opacity:1"
     d="m 13.403898,7.5245487 h 32.057407 c 3.085281,-0.047602 2.211436,2.3668546 2.347543,4.0409023 0,1.39984 -0.0085,3.33873 0.03772,4.099833 4.254992,0 7.998797,0.04926 15.174821,0.04926 4.221118,0 4.501301,0.743566 4.501305,2.972172 l 1.15e-4,67.992751 c -0.2557,2.425613 -3.149107,1.646854 -4.907618,1.776471 H 13.405314 C 10.857275,88.21239 11.516677,85.461152 11.516677,83.784062 V 9.3010193 C 11.491527,8.348549 12.404734,7.499013 13.405323,7.524589 Z"
     id="rect1919" />
  <rect
     style="fill:#a2a2a1;fill-opacity:1;stroke:none;stroke-width:0.999999"
     id="rect2574"
     width="30.274271"
     height="2.0244315"
     x="29.672228"
     y="43.951973"
     rx="0.576455"
     ry="0.61856759" />
  <rect
     style="opacity:0.4;fill:url(#linearGradient13148);fill-opacity:1;stroke:none;stroke-width:0.999999"
     id="rect3634"
     width="30.274271"
     height="2.0244315"
     x="29.672228"
     y="60.147427"
     rx="0.7493915"
     ry="0.80413777" />
  <rect
     style="fill:#878885;fill-opacity:1;stroke:none;stroke-width:0.999999"
     id="rect2582"
     width="30.274271"
     height="2.0244315"
     x="29.672228"
     y="76.34288"
     rx="0.576455"
     ry="0.61856759" />
  <rect
     style="opacity:0.4;fill:#333333;fill-opacity:1;stroke:none;stroke-width:0.999999"
     id="rect16160"
     width="30.274271"
     height="2.0244315"
     x="29.672228"
     y="27.756525"
     rx="0.576455"
     ry="0.61856759" />
  <rect
     style="opacity:0.3;fill:#888a85;fill-opacity:1;stroke:#2e3436;stroke-width:0.999999;stroke-linecap:round;stroke-linejoin:miter;stroke-miterlimit:4;stroke-dasharray:none;stroke-dashoffset:0;stroke-opacity:1"
     id="rect16162"
     width="4.0365696"
     height="4.0488629"
     x="18.571663"
     y="26.744308"
     rx="0.84160548"
     ry="0.85291696" />
  <rect
     ry="0.85291696"
     rx="0.84160548"
     y="42.939758"
     x="18.571663"
     height="4.0488629"
     width="4.0365696"
     id="rect4018"
     style="opacity:0.3;fill:#888a85;fill-opacity:1;stroke:#2e3436;stroke-width:0.999999;stroke-linecap:round;stroke-linejoin:miter;stroke-miterlimit:4;stroke-dasharray:none;stroke-dashoffset:0;stroke-opacity:1" />
  <rect
     style="opacity:0.3;fill:#888a85;fill-opacity:1;stroke:#2e3436;stroke-width:0.999999;stroke-linecap:round;stroke-linejoin:miter;stroke-miterlimit:4;stroke-dasharray:none;stroke-dashoffset:0;stroke-opacity:1"
     id="rect4020"
     width="4.0365696"
     height="4.0488629"
     x="18.571663"
     y="59.135208"
     rx="0.84160548"
     ry="0.85291696" />
  <rect
     ry="0.85291696"
     rx="0.84160548"
     y="75.330658"
     x="18.571663"
     height="4.0488629"
     width="4.0365696"
     id="rect4022"
     style="opacity:0.3;fill:#888a85;fill-opacity:1;stroke:#2e3436;stroke-width:0.999999;stroke-linecap:round;stroke-linejoin:miter;stroke-miterlimit:4;stroke-dasharray:none;stroke-dashoffset:0;stroke-opacity:1" />
  <g
     transform="matrix(1.5069724,0,0,1.5069724,4.8825652,-7.7916518)"
     id="g3103"
     style="display:inline">
    <path
       d="m 49.623605,32.593851 c -0.231,-0.13598 -0.40974,-0.10061 -0.527823,-0.02495 l -15.727509,10.014828 -2.894616,1.848398 -0.08912,0.0374 -3.427059,7.72242 8.49318,0.255815 0.0705,-0.04718 2.913229,-1.838602 15.72359,-10.1012 c 0.472343,-0.302645 -0.274679,-2.308458 -1.675739,-4.507318 -1.050799,-1.649136 -2.165636,-2.951672 -2.85864,-3.359609 v 0 z"
       id="path2422"
       style="opacity:0.15;fill:#0c0c0c;fill-opacity:1;fill-rule:evenodd;stroke:none" />
    <path
       d="m 31.57772,42.038752 c 0.594537,-0.446137 2.262714,0.39074 3.795697,1.916096 1.529317,1.521706 2.335133,3.150009 1.899097,3.750366 -0.0016,0.0023 0.03752,0.03339 0.03581,0.03564 L 58.654191,26.29035 c 0.541954,-0.544611 -0.300099,-2.265649 -1.88175,-3.839428 -1.581645,-1.57378 -3.306905,-2.407285 -3.848863,-1.862671 z"
       id="rect2383"
       style="fill:url(#linearGradient3176);fill-opacity:1;stroke:#0c0c0c;stroke-width:0.5;stroke-linecap:butt;stroke-linejoin:round;stroke-miterlimit:4;stroke-dasharray:none;stroke-dashoffset:0;stroke-opacity:1" />
    <path
       d="m 50.318482,23.20612 c 0.594537,-0.446136 2.262715,0.390742 3.795697,1.916096 1.529316,1.521706 2.335133,3.150009 1.899096,3.750365 -0.0016,0.0023 0.03752,0.03338 0.03581,0.03564 l 2.605098,-2.61787 0.05317,-0.05342 c 0.0017,-0.0023 -0.03748,-0.03336 -0.03581,-0.03564 0.43603,-0.600356 -0.369788,-2.228658 -1.899104,-3.750363 -1.53298,-1.525355 -3.201157,-2.362234 -3.795696,-1.916096 l -0.05317,0.05342 -2.605096,2.617869 h 4e-6 z"
       id="rect3175"
       style="opacity:0.8;fill:#ffb6ed;fill-opacity:1;stroke:#e28ccd;stroke-width:0.5;stroke-linecap:butt;stroke-linejoin:round;stroke-miterlimit:4;stroke-dasharray:none;stroke-dashoffset:0;stroke-opacity:1" />
    <path
       d="m 31.57772,42.038749 c 0.594537,-0.446136 2.262715,0.390742 3.795696,1.916096 1.529317,1.521707 2.335134,3.150009 1.899097,3.750366 -0.0016,0.0023 0.03752,0.03339 0.03583,0.03564 l 14.700196,-14.772261 0.05317,-0.05343 c 0.0017,-0.0023 -0.03748,-0.03336 -0.03581,-0.03564 0.436028,-0.600361 -0.369789,-2.228662 -1.899105,-3.750369 -1.532982,-1.525354 -3.201161,-2.362232 -3.795698,-1.916094 l -0.05317,0.05342 -14.700191,14.772262 h -7e-6 z"
       id="path3208"
       style="opacity:0.6;fill:#0c0c0c;fill-opacity:1;stroke:none" />
    <path
       d="m 47.398481,26.140433 c 0.594536,-0.446138 2.262717,0.390741 3.795698,1.916096 1.529315,1.521705 2.335133,3.150007 1.899095,3.750365 -0.0016,0.0023 0.03752,0.03339 0.03581,0.03564 L 53.394912,31.5754 c 0.0017,-0.0023 -0.03748,-0.03336 -0.03581,-0.03564 0.436038,-0.600357 -0.36978,-2.22866 -1.899097,-3.750363 -1.532981,-1.525356 -3.20116,-2.362234 -3.795696,-1.916097 l -0.265827,0.26713 v 2e-6 z"
       id="path3233"
       style="fill:url(#linearGradient3171);fill-opacity:1;stroke:none" />
    <path
       d="m 47.154867,26.38524 c 0.594539,-0.446138 2.262718,0.39074 3.795697,1.916095 1.529319,1.521706 2.335136,3.150007 1.899097,3.750364 -0.0016,0.0023 0.03751,0.03339 0.03581,0.03564 l 0.265825,-0.267132 c 0.0017,-0.0023 -0.03748,-0.03336 -0.03581,-0.03564 0.436041,-0.600355 -0.369777,-2.228658 -1.899095,-3.750363 C 49.68341,26.50885 48.015232,25.67197 47.420692,26.118108 l -0.265825,0.267131 z"
       id="path3216"
       style="fill:url(#linearGradient3168);fill-opacity:1;stroke:none" />
    <path
       d="m 48.245034,25.28973 c 0.594537,-0.446138 2.262715,0.39074 3.795697,1.916096 1.529316,1.521705 2.335134,3.150006 1.899097,3.750364 -0.0016,0.0023 0.03751,0.03338 0.03581,0.03564 l 0.265826,-0.26713 c 0.0017,-0.0023 -0.03748,-0.03336 -0.03581,-0.03564 C 54.641691,30.088704 53.835875,28.4604 52.306556,26.938696 50.773576,25.413341 49.1054,24.576462 48.510859,25.0226 Z"
       id="path3248"
       style="fill:url(#linearGradient3165);fill-opacity:1;stroke:none" />
    <path
       d="m 48.00142,25.534537 c 0.59454,-0.446138 2.262718,0.39074 3.795697,1.916095 1.529318,1.521706 2.335135,3.150007 1.899098,3.750364 -0.0016,0.0023 0.03752,0.03339 0.03581,0.03564 l 0.265825,-0.267131 c 0.0017,-0.0023 -0.03748,-0.03336 -0.03581,-0.03564 0.436039,-0.600357 -0.369778,-2.228661 -1.899095,-3.750364 -1.53298,-1.525355 -3.201159,-2.362235 -3.795699,-1.916096 l -0.265826,0.267131 z"
       id="path3250"
       style="fill:url(#linearGradient3162);fill-opacity:1;stroke:none" />
    <path
       d="m 49.095679,24.434915 c 0.594536,-0.446137 2.262714,0.390741 3.795696,1.916096 1.529316,1.521705 2.335134,3.150007 1.899097,3.750364 -0.0016,0.0023 0.0375,0.03339 0.03581,0.03564 l 0.265824,-0.267131 c 0.0017,-0.0023 -0.03748,-0.03336 -0.03581,-0.03564 0.436038,-0.600356 -0.36978,-2.22866 -1.899097,-3.750365 -1.532978,-1.525354 -3.201157,-2.362234 -3.795696,-1.916094 l -0.265825,0.267129 z"
       id="path3256"
       style="fill:url(#linearGradient3159);fill-opacity:1;stroke:none" />
    <path
       d="m 48.852067,24.679722 c 0.594534,-0.446138 2.262715,0.39074 3.795696,1.916097 1.529315,1.521704 2.335135,3.150007 1.899095,3.750362 -0.0016,0.0023 0.03752,0.03339 0.03581,0.03564 l 0.265826,-0.267128 c 0.0017,-0.0023 -0.03748,-0.03336 -0.03581,-0.03564 0.436038,-0.600359 -0.36978,-2.228661 -1.899096,-3.750365 -1.532981,-1.525356 -3.20116,-2.362235 -3.795697,-1.916096 l -0.265825,0.267129 v 0 z"
       id="path3258"
       style="fill:url(#linearGradient3156);fill-opacity:1;stroke:none" />
    <path
       d="m 27.487084,51.747568 9.711253,-3.960957 0.08274,-0.08273 c 0.436037,-0.600362 -0.380288,-2.22879 -1.909605,-3.7505 -1.532982,-1.525354 -3.199188,-2.357607 -3.793726,-1.911469 l -4.090658,9.705656 h -7e-6 z"
       id="path3270"
       style="fill:url(#linearGradient3151);fill-opacity:1;fill-rule:evenodd;stroke:url(#linearGradient3153);stroke-width:0.5;stroke-linecap:butt;stroke-linejoin:miter;stroke-miterlimit:4;stroke-dasharray:none;stroke-opacity:1" />
    <path
       d="m 28.595131,49.118873 -1.108643,2.618307 2.648745,-1.085868 C 29.92294,50.397024 29.726959,50.138742 29.472072,49.885124 29.178629,49.59314 28.890001,49.35623 28.595131,49.118873 Z"
       id="path3281"
       style="fill:#0c0c0c;fill-opacity:1;fill-rule:evenodd;stroke:#0c0c0c;stroke-width:0.5;stroke-linecap:butt;stroke-linejoin:miter;stroke-miterlimit:4;stroke-dasharray:none;stroke-opacity:1" />
  </g>
</svg>
