<?xml version="1.0" encoding="UTF-8" standalone="no"?>
<svg
   width="96"
   height="96"
   id="svg2"
   version="1.1"
   xmlns:xlink="http://www.w3.org/1999/xlink"
   xmlns="http://www.w3.org/2000/svg"
   xmlns:svg="http://www.w3.org/2000/svg"
   xmlns:rdf="http://www.w3.org/1999/02/22-rdf-syntax-ns#"
   xmlns:cc="http://creativecommons.org/ns#"
   xmlns:dc="http://purl.org/dc/elements/1.1/">
  <defs
     id="defs4">
    <linearGradient
       id="linearGradient4322">
      <stop
         style="stop-color:#696969;stop-opacity:1;"
         offset="0"
         id="stop4324" />
      <stop
         style="stop-color:#949494;stop-opacity:1;"
         offset="1"
         id="stop4326" />
    </linearGradient>
    <linearGradient
       id="linearGradient4308">
      <stop
         style="stop-color:#b3b3b3;stop-opacity:1;"
         offset="0"
         id="stop4310" />
      <stop
         style="stop-color:#8e8e8e;stop-opacity:1;"
         offset="1"
         id="stop4312" />
    </linearGradient>
    <linearGradient
       id="linearGradient4299">
      <stop
         style="stop-color:#7d7d7d;stop-opacity:1;"
         offset="0"
         id="stop4301" />
      <stop
         style="stop-color:#a0a0a0;stop-opacity:1;"
         offset="1"
         id="stop4303" />
    </linearGradient>
    <linearGradient
       id="linearGradient4236">
      <stop
         style="stop-color:#ffffff;stop-opacity:1;"
         offset="0"
         id="stop4238" />
      <stop
         style="stop-color:#ffffff;stop-opacity:0;"
         offset="1"
         id="stop4240" />
    </linearGradient>
    <linearGradient
       id="linearGradient4226">
      <stop
         style="stop-color:#ffffff;stop-opacity:1;"
         offset="0"
         id="stop4228" />
      <stop
         style="stop-color:#ffffff;stop-opacity:0;"
         offset="1"
         id="stop4230" />
    </linearGradient>
    <linearGradient
       id="linearGradient4194">
      <stop
         style="stop-color:#ffffff;stop-opacity:1;"
         offset="0"
         id="stop4196" />
      <stop
         style="stop-color:#ffffff;stop-opacity:0;"
         offset="1"
         id="stop4198" />
    </linearGradient>
    <linearGradient
       id="linearGradient4184">
      <stop
         style="stop-color:#ffffff;stop-opacity:1;"
         offset="0"
         id="stop4186" />
      <stop
         style="stop-color:#ffffff;stop-opacity:0;"
         offset="1"
         id="stop4188" />
    </linearGradient>
    <linearGradient
       id="linearGradient4106">
      <stop
         style="stop-color:#34b2f4;stop-opacity:1;"
         offset="0"
         id="stop4108" />
      <stop
         style="stop-color:#136ebc;stop-opacity:1;"
         offset="1"
         id="stop4110" />
    </linearGradient>
    <linearGradient
       id="linearGradient3707-319-631-407-324-6">
      <stop
         id="stop3760-3"
         style="stop-color:#0e73c8;stop-opacity:1;"
         offset="0" />
      <stop
         id="stop3762-1"
         style="stop-color:#40a5e4;stop-opacity:1;"
         offset="1" />
    </linearGradient>
    <linearGradient
       id="linearGradient2867-449-88-871-390-598-476-591-434-148-57-177-0">
      <stop
         id="stop3750-4"
         style="stop-color:#90dbec;stop-opacity:1;"
         offset="0" />
      <stop
         id="stop3752-4"
         style="stop-color:#55c1ec;stop-opacity:1;"
         offset="0.26238" />
      <stop
         id="stop3754-4"
         style="stop-color:#3689e6;stop-opacity:1;"
         offset="0.704952" />
      <stop
         id="stop3756-4"
         style="stop-color:#2b63a0;stop-opacity:1;"
         offset="1" />
    </linearGradient>
    <filter
       id="filter4128"
       x="-0.29760004"
       width="1.5952001"
       y="-1.2399999"
       height="3.4799998">
      <feGaussianBlur
         stdDeviation="0.78286824"
         id="feGaussianBlur4130" />
    </filter>
    <linearGradient
       xlink:href="#linearGradient4106"
       id="linearGradient4126"
       gradientUnits="userSpaceOnUse"
       x1="28.553572"
       y1="1038.7025"
       x2="28.553572"
       y2="1037.3331"
       gradientTransform="matrix(2,0,0,1.9999999,2.0652557e-6,-1006.3621)" />
    <linearGradient
       xlink:href="#linearGradient4184"
       id="linearGradient4190"
       x1="22.667517"
       y1="1020.6206"
       x2="22.667517"
       y2="1069.5356"
       gradientUnits="userSpaceOnUse"
       gradientTransform="matrix(2.0881921,0,0,2.0699351,-1.0732636,-1075.3468)" />
    <linearGradient
       xlink:href="#linearGradient4194"
       id="linearGradient4200"
       x1="31.704607"
       y1="1039.8879"
       x2="31.704607"
       y2="1034.458"
       gradientUnits="userSpaceOnUse"
       gradientTransform="matrix(2,0,0,1.9999999,2.0652557e-6,-1004.3621)" />
    <linearGradient
       xlink:href="#linearGradient4226"
       id="linearGradient4232"
       x1="11.904188"
       y1="1040.6718"
       x2="11.904188"
       y2="1033.1851"
       gradientUnits="userSpaceOnUse"
       gradientTransform="matrix(1.9998877,0,0,1.9998878,0.50117443,-1004.7456)" />
    <linearGradient
       xlink:href="#linearGradient4236"
       id="linearGradient4246"
       gradientUnits="userSpaceOnUse"
       x1="10.757614"
       y1="1030.2664"
       x2="10.757614"
       y2="1023.424"
       gradientTransform="matrix(2.0000035,0,0,2.0000035,0.49995591,-1025.8658)" />
    <linearGradient
       xlink:href="#linearGradient4194"
       id="linearGradient4250"
       gradientUnits="userSpaceOnUse"
       x1="31.704607"
       y1="1039.8879"
       x2="31.704607"
       y2="1034.458"
       gradientTransform="matrix(2,0,0,1.9999999,2.0652557e-6,-1025.3621)" />
    <linearGradient
       xlink:href="#linearGradient4194"
       id="linearGradient4258"
       gradientUnits="userSpaceOnUse"
       gradientTransform="matrix(2,0,0,1.9999999,2.0652557e-6,-1045.3621)"
       x1="31.704607"
       y1="1039.8879"
       x2="31.704607"
       y2="1034.458" />
    <radialGradient
       xlink:href="#linearGradient2867-449-88-871-390-598-476-591-434-148-57-177-0"
       id="radialGradient4286"
       gradientUnits="userSpaceOnUse"
       gradientTransform="matrix(0,0.94022029,-0.64071639,0,31.913933,1060.2632)"
       cx="0.75304806"
       cy="8.4497671"
       fx="0.75304806"
       fy="8.4497671"
       r="19.99999" />
    <linearGradient
       xlink:href="#linearGradient3707-319-631-407-324-6"
       id="linearGradient4297"
       x1="9.6843271"
       y1="1034.521"
       x2="9.6843271"
       y2="1041.2181"
       gradientUnits="userSpaceOnUse"
       gradientTransform="matrix(1.9998857,0,0,1.999886,0.50120047,-1004.7438)" />
    <radialGradient
       xlink:href="#linearGradient4308"
       id="radialGradient4318"
       gradientUnits="userSpaceOnUse"
       gradientTransform="matrix(1.3308854e-6,6.064303,-5.4986583,1.2067489e-6,5662.9901,941.14559)"
       cx="13.631346"
       cy="1024.8368"
       fx="13.631346"
       fy="1024.8368"
       r="1.9999999" />
    <linearGradient
       xlink:href="#linearGradient4299"
       id="linearGradient4320"
       gradientUnits="userSpaceOnUse"
       x1="11"
       y1="1024.8933"
       x2="11"
       y2="1029.6985"
       gradientTransform="matrix(2.0000002,0,0,2.0000011,0.49999931,-1025.8633)" />
    <linearGradient
       xlink:href="#linearGradient4322"
       id="linearGradient4328"
       x1="22.914341"
       y1="1016.0691"
       x2="22.914341"
       y2="1017.8691"
       gradientUnits="userSpaceOnUse"
       gradientTransform="matrix(2,0,0,1.9999999,2.0652557e-6,-1005.3621)" />
    <linearGradient
       xlink:href="#linearGradient4322"
       id="linearGradient4332"
       gradientUnits="userSpaceOnUse"
       x1="22.914341"
       y1="1016.0691"
       x2="22.914341"
       y2="1017.8691"
       gradientTransform="matrix(2,0,0,1.9999999,2.0652557e-6,-985.36206)" />
    <radialGradient
       xlink:href="#linearGradient4308"
       id="radialGradient4318-3"
       gradientUnits="userSpaceOnUse"
       gradientTransform="matrix(1.3308854e-6,6.064303,-5.4986583,1.2067489e-6,5662.9901,962.14562)"
       cx="13.631346"
       cy="1024.8368"
       fx="13.631346"
       fy="1024.8368"
       r="1.9999999" />
    <linearGradient
       xlink:href="#linearGradient4236"
       id="linearGradient1819"
       gradientUnits="userSpaceOnUse"
       gradientTransform="matrix(2.0000035,0,0,2.0000035,0.49995708,-1004.8658)"
       x1="10.757614"
       y1="1030.2664"
       x2="10.757614"
       y2="1023.424" />
    <linearGradient
       xlink:href="#linearGradient4299"
       id="linearGradient1821"
       gradientUnits="userSpaceOnUse"
       gradientTransform="matrix(2.0000002,0,0,2.0000011,0.50000048,-1004.8633)"
       x1="11"
       y1="1024.8933"
       x2="11"
       y2="1029.6985" />
    <linearGradient
       xlink:href="#linearGradient3155-40-9"
       id="linearGradient3176"
       gradientUnits="userSpaceOnUse"
       gradientTransform="matrix(0.87539065,-0.87968181,0.97932539,0.97445279,-3.0169552,27.152318)"
       spreadMethod="pad"
       x1="23.575972"
       y1="25.356892"
       x2="23.575972"
       y2="31.210939" />
    <linearGradient
       id="linearGradient3155-40-9">
      <stop
         id="stop2541-1"
         style="stop-color:#181818;stop-opacity:1"
         offset="0" />
      <stop
         id="stop2543-6"
         style="stop-color:#dbdbdb;stop-opacity:1"
         offset="0.13482948" />
      <stop
         id="stop2545-5-3"
         style="stop-color:#a4a4a4;stop-opacity:1"
         offset="0.20224422" />
      <stop
         id="stop2547-1"
         style="stop-color:#ffffff;stop-opacity:1"
         offset="0.26965895" />
      <stop
         id="stop2549-3"
         style="stop-color:#8d8d8d;stop-opacity:1"
         offset="0.44650277" />
      <stop
         id="stop2551-6-6"
         style="stop-color:#959595;stop-opacity:1"
         offset="0.57114136" />
      <stop
         id="stop2553-7"
         style="stop-color:#cecece;stop-opacity:1"
         offset="0.72038066" />
      <stop
         id="stop2555-8"
         style="stop-color:#181818;stop-opacity:1"
         offset="1" />
    </linearGradient>
    <linearGradient
       xlink:href="#linearGradient3240-279-0"
       id="linearGradient3171"
       gradientUnits="userSpaceOnUse"
       gradientTransform="matrix(0.85064445,-0.85481442,1.146122,1.1404196,-6.2249016,22.651052)"
       x1="30.037716"
       y1="24.989594"
       x2="30.037716"
       y2="30.000141" />
    <linearGradient
       id="linearGradient3240-279-0">
      <stop
         id="stop2559-4"
         style="stop-color:#565656;stop-opacity:1"
         offset="0" />
      <stop
         id="stop2561-7-7"
         style="stop-color:#9a9a9a;stop-opacity:1"
         offset="0.5" />
      <stop
         id="stop2563-2"
         style="stop-color:#545454;stop-opacity:1"
         offset="1" />
    </linearGradient>
    <linearGradient
       xlink:href="#linearGradient3223-789-1-3"
       id="linearGradient3168"
       gradientUnits="userSpaceOnUse"
       gradientTransform="matrix(0.85064445,-0.85481442,1.146122,1.1404196,-6.4685146,22.89586)"
       x1="30.037716"
       y1="24.989594"
       x2="30.037716"
       y2="30.000141" />
    <linearGradient
       id="linearGradient3223-789-1-3">
      <stop
         id="stop2567-9"
         style="stop-color:#b1b1b1;stop-opacity:1"
         offset="0" />
      <stop
         id="stop2569-3"
         style="stop-color:#ffffff;stop-opacity:1"
         offset="0.5" />
      <stop
         id="stop2571-1"
         style="stop-color:#8f8f8f;stop-opacity:1"
         offset="1" />
    </linearGradient>
    <linearGradient
       xlink:href="#linearGradient3240-279-0"
       id="linearGradient3165"
       gradientUnits="userSpaceOnUse"
       gradientTransform="matrix(0.85064445,-0.85481442,1.146122,1.1404196,-5.3783496,21.800349)"
       x1="30.037716"
       y1="24.989594"
       x2="30.037716"
       y2="30.000141" />
    <linearGradient
       xlink:href="#linearGradient3223-789-1-3"
       id="linearGradient3162"
       gradientUnits="userSpaceOnUse"
       gradientTransform="matrix(0.85064445,-0.85481442,1.146122,1.1404196,-5.6219636,22.045155)"
       x1="30.037716"
       y1="24.989594"
       x2="30.037716"
       y2="30.000141" />
    <linearGradient
       xlink:href="#linearGradient3240-279-0"
       id="linearGradient3159"
       gradientUnits="userSpaceOnUse"
       gradientTransform="matrix(0.85064445,-0.85481442,1.146122,1.1404196,-4.5277046,20.945534)"
       x1="30.037716"
       y1="24.989594"
       x2="30.037716"
       y2="30.000141" />
    <linearGradient
       xlink:href="#linearGradient3223-789-1-3"
       id="linearGradient3156"
       gradientUnits="userSpaceOnUse"
       gradientTransform="matrix(0.85064445,-0.85481442,1.146122,1.1404196,-4.7713176,21.190343)"
       x1="30.037716"
       y1="24.989594"
       x2="30.037716"
       y2="30.000141" />
    <linearGradient
       xlink:href="#linearGradient3290-678-4"
       id="linearGradient3151"
       gradientUnits="userSpaceOnUse"
       gradientTransform="matrix(0.85064445,-0.85481442,1.1461221,1.1404197,-6.5479896,22.97572)"
       x1="9"
       y1="29.056757"
       x2="9"
       y2="26.02973" />
    <linearGradient
       id="linearGradient3290-678-4">
      <stop
         id="stop2607-3"
         style="stop-color:#ece5a5;stop-opacity:1"
         offset="0" />
      <stop
         id="stop2609-5"
         style="stop-color:#fcfbf2;stop-opacity:1"
         offset="1" />
    </linearGradient>
    <linearGradient
       xlink:href="#linearGradient3191-577-7-6"
       id="linearGradient3153"
       gradientUnits="userSpaceOnUse"
       gradientTransform="matrix(0.74712277,0.03224699,0.03220731,0.74620134,24.394615,18.140574)"
       x1="5.5178981"
       y1="37.371799"
       x2="9.5220556"
       y2="41.391716" />
    <linearGradient
       id="linearGradient3191-577-7-6">
      <stop
         id="stop2613-9"
         style="stop-color:#dbce48;stop-opacity:1"
         offset="0" />
      <stop
         id="stop2615-4-7"
         style="stop-color:#c5b625;stop-opacity:1"
         offset="1" />
    </linearGradient>
  </defs>
  <metadata
     id="metadata7">
    <rdf:RDF>
      <cc:Work
         rdf:about="">
        <dc:format>image/svg+xml</dc:format>
        <dc:type
           rdf:resource="http://purl.org/dc/dcmitype/StillImage" />
      </cc:Work>
    </rdf:RDF>
  </metadata>
  <g
     id="layer1"
     transform="translate(0,-1004.3622)">
    <path
       style="opacity:0.08;fill:#000000;fill-opacity:1;stroke:none;stroke-width:0.491988;filter:url(#filter4128)"
       id="path4114"
       d="m 17.5514,45.853424 c 0,0.418419 -1.413315,0.757615 -3.156727,0.757615 -1.743412,0 -3.156726,-0.339196 -3.156726,-0.757615 0,-0.418419 1.413314,-0.757614 3.156726,-0.757614 1.743412,0 3.156727,0.339195 3.156727,0.757614 z"
       transform="matrix(2.018212,0,0,2.0470301,-0.3453278,1004.0472)" />
    <path
       style="color:#000000;display:inline;overflow:visible;visibility:visible;fill:#eeeeee;fill-opacity:1;stroke:#b1b1b1;stroke-width:0.999999;stroke-linecap:round;stroke-linejoin:round;stroke-miterlimit:4;stroke-dashoffset:0;stroke-opacity:1;marker:none;enable-background:accumulate"
       d="m 15.24359,1009.8622 h 65.512821 c 2.073948,0 3.743588,1.7083 3.743588,3.838 v 69.3239 c 0,2.1298 -1.66964,3.8382 -3.743588,3.8382 h -42.8953 l -8.111111,9.9999 -8.111111,-9.9999 H 15.24359 c -2.073948,0 -3.743589,-1.7084 -3.743589,-3.8382 v -69.3239 c 0,-2.1297 1.669641,-3.838 3.743589,-3.838 z"
       id="rect5505-21-3-2" />
    <rect
       ry="2"
       rx="2"
       y="1027.3622"
       x="38"
       height="4"
       width="36"
       id="rect4256"
       style="opacity:0.6;fill:none;stroke:url(#linearGradient4258);stroke-width:2;stroke-miterlimit:4;stroke-dasharray:none;stroke-opacity:1" />
    <path
       id="path4096"
       d="m 16.140936,1010.8622 h 63.716632 c 2.760394,0 3.640948,1.342 3.640948,3.735 v 67.5408 c 0,2.1938 -1.463262,3.7242 -3.640948,3.7242 H 37.292139 l -7.551424,9.1739 -7.56837,-9.1739 h -6.031409 c -2.664688,0 -3.640951,-1.2349 -3.640951,-3.7242 v -67.5408 c 0,-2.59 1.020218,-3.735 3.640951,-3.735 z"
       style="color:#000000;display:inline;overflow:visible;visibility:visible;opacity:0.7;fill:none;stroke:url(#linearGradient4190);stroke-width:0.999996;stroke-linecap:round;stroke-linejoin:miter;stroke-miterlimit:4;stroke-dasharray:none;stroke-dashoffset:0;stroke-opacity:1;marker:none;enable-background:accumulate" />
    <rect
       width="10.00001"
       height="10.00001"
       rx="0.5"
       ry="0.5"
       x="21.499994"
       y="1064.8622"
       id="rect4204"
       style="color:#000000;display:inline;overflow:visible;visibility:visible;opacity:0.7;fill:none;stroke:url(#linearGradient4232);stroke-width:2.99999;stroke-linecap:round;stroke-linejoin:round;stroke-miterlimit:4;stroke-dasharray:none;stroke-dashoffset:0;stroke-opacity:1;marker:none;enable-background:accumulate" />
    <rect
       style="color:#000000;display:inline;overflow:visible;visibility:visible;fill:url(#radialGradient4286);fill-opacity:1;fill-rule:nonzero;stroke:url(#linearGradient4297);stroke-width:1;stroke-linecap:round;stroke-linejoin:round;stroke-miterlimit:4;stroke-dasharray:none;stroke-dashoffset:0;stroke-opacity:1;marker:none;enable-background:accumulate"
       id="rect3315"
       y="1064.8622"
       x="21.5"
       ry="0.25"
       rx="0.25"
       height="10.000001"
       width="10" />
    <rect
       ry="2"
       rx="2"
       y="1068.3622"
       x="38"
       height="4"
       width="36"
       id="rect4192"
       style="opacity:0.6;fill:none;stroke:url(#linearGradient4200);stroke-width:2;stroke-miterlimit:4;stroke-dasharray:none;stroke-opacity:1" />
    <rect
       style="fill:url(#linearGradient4126);fill-opacity:1;fill-rule:nonzero;stroke:none;stroke-width:1"
       id="rect4179"
       width="36"
       height="4"
       x="38"
       y="1068.3622"
       rx="2"
       ry="2" />
    <rect
       style="opacity:0.6;fill:none;stroke:url(#linearGradient4250);stroke-width:2;stroke-miterlimit:4;stroke-dasharray:none;stroke-opacity:1"
       id="rect4248"
       width="36"
       height="4"
       x="38"
       y="1047.3622"
       rx="2"
       ry="2" />
    <rect
       ry="2"
       rx="2"
       y="1047.3622"
       x="38"
       height="4"
       width="36"
       id="rect4330"
       style="fill:url(#linearGradient4332);fill-opacity:1;fill-rule:nonzero;stroke:none;stroke-width:1" />
    <rect
       style="fill:url(#linearGradient4328);fill-opacity:1;fill-rule:nonzero;stroke:none;stroke-width:0.999997"
       id="rect4207"
       width="36"
       height="4"
       x="38"
       y="1027.3622"
       rx="2"
       ry="2" />
    <rect
       width="6"
       height="6.00001"
       rx="0.5"
       ry="0.5"
       x="23.499994"
       y="1025.8622"
       id="rect4244"
       style="color:#000000;display:inline;overflow:visible;visibility:visible;opacity:0.6;fill:none;stroke:url(#linearGradient4246);stroke-width:2.99999;stroke-linecap:round;stroke-linejoin:round;stroke-miterlimit:4;stroke-dasharray:none;stroke-dashoffset:0;stroke-opacity:1;marker:none;enable-background:accumulate" />
    <rect
       style="color:#000000;display:inline;overflow:visible;visibility:visible;fill:url(#radialGradient4318);fill-opacity:1;fill-rule:nonzero;stroke:url(#linearGradient4320);stroke-width:1;stroke-linecap:round;stroke-linejoin:round;stroke-miterlimit:4;stroke-dasharray:none;stroke-dashoffset:0;stroke-opacity:1;marker:none;enable-background:accumulate"
       id="rect4316"
       y="1025.8622"
       x="23.5"
       ry="0.25"
       rx="0.25"
       height="6.0000029"
       width="6" />
    <rect
       width="6"
       height="6.00001"
       rx="0.5"
       ry="0.5"
       x="23.499994"
       y="1046.8622"
       id="rect4244-2"
       style="color:#000000;display:inline;overflow:visible;visibility:visible;opacity:0.6;fill:none;stroke:url(#linearGradient1819);stroke-width:2.99999;stroke-linecap:round;stroke-linejoin:round;stroke-miterlimit:4;stroke-dasharray:none;stroke-dashoffset:0;stroke-opacity:1;marker:none;enable-background:accumulate" />
    <rect
       style="color:#000000;display:inline;overflow:visible;visibility:visible;fill:url(#radialGradient4318-3);fill-opacity:1;fill-rule:nonzero;stroke:url(#linearGradient1821);stroke-width:1;stroke-linecap:round;stroke-linejoin:round;stroke-miterlimit:4;stroke-dasharray:none;stroke-dashoffset:0;stroke-opacity:1;marker:none;enable-background:accumulate"
       id="rect4316-9"
       y="1046.8622"
       x="23.5"
       ry="0.25"
       rx="0.25"
       height="6.0000029"
       width="6" />
    <g
       transform="matrix(1.9694592,0,0,1.9694592,-23.439239,968.25302)"
       id="g3103"
       style="display:inline">
      <path
         d="m 49.623605,32.593851 c -0.231,-0.13598 -0.40974,-0.10061 -0.527823,-0.02495 l -15.727509,10.014828 -2.894616,1.848398 -0.08912,0.0374 -3.427059,7.72242 8.49318,0.255815 0.0705,-0.04718 2.913229,-1.838602 15.72359,-10.1012 c 0.472343,-0.302645 -0.274679,-2.308458 -1.675739,-4.507318 -1.050799,-1.649136 -2.165636,-2.951672 -2.85864,-3.359609 v 0 z"
         id="path2422"
         style="opacity:0.15;fill:#0c0c0c;fill-opacity:1;fill-rule:evenodd;stroke:none" />
      <path
         d="m 31.57772,42.038752 c 0.594537,-0.446137 2.262714,0.39074 3.795697,1.916096 1.529317,1.521706 2.335133,3.150009 1.899097,3.750366 -0.0016,0.0023 0.03752,0.03339 0.03581,0.03564 L 58.654191,26.29035 c 0.541954,-0.544611 -0.300099,-2.265649 -1.88175,-3.839428 -1.581645,-1.57378 -3.306905,-2.407285 -3.848863,-1.862671 z"
         id="rect2383"
         style="fill:url(#linearGradient3176);fill-opacity:1;stroke:#0c0c0c;stroke-width:0.5;stroke-linecap:butt;stroke-linejoin:round;stroke-miterlimit:4;stroke-dasharray:none;stroke-dashoffset:0;stroke-opacity:1" />
      <path
         d="m 50.318482,23.20612 c 0.594537,-0.446136 2.262715,0.390742 3.795697,1.916096 1.529316,1.521706 2.335133,3.150009 1.899096,3.750365 -0.0016,0.0023 0.03752,0.03338 0.03581,0.03564 l 2.605098,-2.61787 0.05317,-0.05342 c 0.0017,-0.0023 -0.03748,-0.03336 -0.03581,-0.03564 0.43603,-0.600356 -0.369788,-2.228658 -1.899104,-3.750363 -1.53298,-1.525355 -3.201157,-2.362234 -3.795696,-1.916096 l -0.05317,0.05342 -2.605096,2.617869 h 4e-6 z"
         id="rect3175"
         style="opacity:0.8;fill:#ffb6ed;fill-opacity:1;stroke:#e28ccd;stroke-width:0.5;stroke-linecap:butt;stroke-linejoin:round;stroke-miterlimit:4;stroke-dasharray:none;stroke-dashoffset:0;stroke-opacity:1" />
      <path
         d="m 31.57772,42.038749 c 0.594537,-0.446136 2.262715,0.390742 3.795696,1.916096 1.529317,1.521707 2.335134,3.150009 1.899097,3.750366 -0.0016,0.0023 0.03752,0.03339 0.03583,0.03564 l 14.700196,-14.772261 0.05317,-0.05343 c 0.0017,-0.0023 -0.03748,-0.03336 -0.03581,-0.03564 0.436028,-0.600361 -0.369789,-2.228662 -1.899105,-3.750369 -1.532982,-1.525354 -3.201161,-2.362232 -3.795698,-1.916094 l -0.05317,0.05342 -14.700191,14.772262 h -7e-6 z"
         id="path3208"
         style="opacity:0.6;fill:#0c0c0c;fill-opacity:1;stroke:none" />
      <path
         d="m 47.398481,26.140433 c 0.594536,-0.446138 2.262717,0.390741 3.795698,1.916096 1.529315,1.521705 2.335133,3.150007 1.899095,3.750365 -0.0016,0.0023 0.03752,0.03339 0.03581,0.03564 L 53.394912,31.5754 c 0.0017,-0.0023 -0.03748,-0.03336 -0.03581,-0.03564 0.436038,-0.600357 -0.36978,-2.22866 -1.899097,-3.750363 -1.532981,-1.525356 -3.20116,-2.362234 -3.795696,-1.916097 l -0.265827,0.26713 v 2e-6 z"
         id="path3233"
         style="fill:url(#linearGradient3171);fill-opacity:1;stroke:none" />
      <path
         d="m 47.154867,26.38524 c 0.594539,-0.446138 2.262718,0.39074 3.795697,1.916095 1.529319,1.521706 2.335136,3.150007 1.899097,3.750364 -0.0016,0.0023 0.03751,0.03339 0.03581,0.03564 l 0.265825,-0.267132 c 0.0017,-0.0023 -0.03748,-0.03336 -0.03581,-0.03564 0.436041,-0.600355 -0.369777,-2.228658 -1.899095,-3.750363 C 49.68341,26.50885 48.015232,25.67197 47.420692,26.118108 l -0.265825,0.267131 z"
         id="path3216"
         style="fill:url(#linearGradient3168);fill-opacity:1;stroke:none" />
      <path
         d="m 48.245034,25.28973 c 0.594537,-0.446138 2.262715,0.39074 3.795697,1.916096 1.529316,1.521705 2.335134,3.150006 1.899097,3.750364 -0.0016,0.0023 0.03751,0.03338 0.03581,0.03564 l 0.265826,-0.26713 c 0.0017,-0.0023 -0.03748,-0.03336 -0.03581,-0.03564 C 54.641691,30.088704 53.835875,28.4604 52.306556,26.938696 50.773576,25.413341 49.1054,24.576462 48.510859,25.0226 Z"
         id="path3248"
         style="fill:url(#linearGradient3165);fill-opacity:1;stroke:none" />
      <path
         d="m 48.00142,25.534537 c 0.59454,-0.446138 2.262718,0.39074 3.795697,1.916095 1.529318,1.521706 2.335135,3.150007 1.899098,3.750364 -0.0016,0.0023 0.03752,0.03339 0.03581,0.03564 l 0.265825,-0.267131 c 0.0017,-0.0023 -0.03748,-0.03336 -0.03581,-0.03564 0.436039,-0.600357 -0.369778,-2.228661 -1.899095,-3.750364 -1.53298,-1.525355 -3.201159,-2.362235 -3.795699,-1.916096 l -0.265826,0.267131 z"
         id="path3250"
         style="fill:url(#linearGradient3162);fill-opacity:1;stroke:none" />
      <path
         d="m 49.095679,24.434915 c 0.594536,-0.446137 2.262714,0.390741 3.795696,1.916096 1.529316,1.521705 2.335134,3.150007 1.899097,3.750364 -0.0016,0.0023 0.0375,0.03339 0.03581,0.03564 l 0.265824,-0.267131 c 0.0017,-0.0023 -0.03748,-0.03336 -0.03581,-0.03564 0.436038,-0.600356 -0.36978,-2.22866 -1.899097,-3.750365 -1.532978,-1.525354 -3.201157,-2.362234 -3.795696,-1.916094 l -0.265825,0.267129 z"
         id="path3256"
         style="fill:url(#linearGradient3159);fill-opacity:1;stroke:none" />
      <path
         d="m 48.852067,24.679722 c 0.594534,-0.446138 2.262715,0.39074 3.795696,1.916097 1.529315,1.521704 2.335135,3.150007 1.899095,3.750362 -0.0016,0.0023 0.03752,0.03339 0.03581,0.03564 l 0.265826,-0.267128 c 0.0017,-0.0023 -0.03748,-0.03336 -0.03581,-0.03564 0.436038,-0.600359 -0.36978,-2.228661 -1.899096,-3.750365 -1.532981,-1.525356 -3.20116,-2.362235 -3.795697,-1.916096 l -0.265825,0.267129 v 0 z"
         id="path3258"
         style="fill:url(#linearGradient3156);fill-opacity:1;stroke:none" />
      <path
         d="m 27.487084,51.747568 9.711253,-3.960957 0.08274,-0.08273 c 0.436037,-0.600362 -0.380288,-2.22879 -1.909605,-3.7505 -1.532982,-1.525354 -3.199188,-2.357607 -3.793726,-1.911469 l -4.090658,9.705656 h -7e-6 z"
         id="path3270"
         style="fill:url(#linearGradient3151);fill-opacity:1;fill-rule:evenodd;stroke:url(#linearGradient3153);stroke-width:0.5;stroke-linecap:butt;stroke-linejoin:miter;stroke-miterlimit:4;stroke-dasharray:none;stroke-opacity:1" />
      <path
         d="m 28.595131,49.118873 -1.108643,2.618307 2.648745,-1.085868 C 29.92294,50.397024 29.726959,50.138742 29.472072,49.885124 29.178629,49.59314 28.890001,49.35623 28.595131,49.118873 Z"
         id="path3281"
         style="fill:#0c0c0c;fill-opacity:1;fill-rule:evenodd;stroke:#0c0c0c;stroke-width:0.5;stroke-linecap:butt;stroke-linejoin:miter;stroke-miterlimit:4;stroke-dasharray:none;stroke-opacity:1" />
    </g>
  </g>
</svg>
