<?xml version="1.0" encoding="UTF-8" standalone="no"?>
<svg
   version="1.1"
   width="96"
   height="96"
   id="svg6086"
   xmlns:xlink="http://www.w3.org/1999/xlink"
   xmlns="http://www.w3.org/2000/svg"
   xmlns:svg="http://www.w3.org/2000/svg"
   xmlns:rdf="http://www.w3.org/1999/02/22-rdf-syntax-ns#"
   xmlns:cc="http://creativecommons.org/ns#"
   xmlns:dc="http://purl.org/dc/elements/1.1/">
  <defs
     id="defs6088">
    <linearGradient
       x1="23.99999"
       y1="4.999989"
       x2="23.99999"
       y2="43"
       id="linearGradient3966"
       xlink:href="#linearGradient3924-2-2-5-8"
       gradientUnits="userSpaceOnUse"
       gradientTransform="matrix(2.1351349,0,0,2.1351358,-3.2432451,-3.2432421)" />
    <linearGradient
       id="linearGradient3924-2-2-5-8">
      <stop
         id="stop3926-9-4-9-6"
         style="stop-color:#ffffff;stop-opacity:1"
         offset="0" />
      <stop
         id="stop3928-9-8-6-5"
         style="stop-color:#ffffff;stop-opacity:0.23529412"
         offset="0.06316455" />
      <stop
         id="stop3930-3-5-1-7"
         style="stop-color:#ffffff;stop-opacity:0.15686275"
         offset="0.95056331" />
      <stop
         id="stop3932-8-0-4-8"
         style="stop-color:#ffffff;stop-opacity:0.39215687"
         offset="1" />
    </linearGradient>
    <linearGradient
       x1="167.98311"
       y1="8.50811"
       x2="167.98311"
       y2="54.780239"
       id="linearGradient4385-4"
       xlink:href="#linearGradient5803-2-7"
       gradientUnits="userSpaceOnUse"
       gradientTransform="matrix(1.4814814,0,0,1.4837337,-85.333408,0.58133075)" />
    <linearGradient
       id="linearGradient5803-2-7">
      <stop
         id="stop5805-3-6"
         style="stop-color:#fffdf3;stop-opacity:1"
         offset="0" />
      <stop
         id="stop5807-0-0"
         style="stop-color:#fbebeb;stop-opacity:1"
         offset="1" />
    </linearGradient>
    <radialGradient
       cx="8.276144"
       cy="9.9941158"
       r="12.671875"
       fx="8.276144"
       fy="9.9941158"
       id="radialGradient3969"
       xlink:href="#linearGradient3242"
       gradientUnits="userSpaceOnUse"
       gradientTransform="matrix(0,13.848418,-17.001438,0,218.0645,-127.42266)" />
    <linearGradient
       id="linearGradient3242">
      <stop
         id="stop3244"
         style="stop-color:#f89b7e;stop-opacity:1"
         offset="0" />
      <stop
         id="stop3246"
         style="stop-color:#e35d4f;stop-opacity:1"
         offset="0.26238" />
      <stop
         id="stop3248"
         style="stop-color:#c6262e;stop-opacity:1"
         offset="0.66093999" />
      <stop
         id="stop3250"
         style="stop-color:#690b2c;stop-opacity:1"
         offset="1" />
    </linearGradient>
    <radialGradient
       cx="4.9929786"
       cy="43.5"
       r="2.5"
       fx="4.9929786"
       fy="43.5"
       id="radialGradient3337-2-2"
       xlink:href="#linearGradient3688-166-749-4-0-3-8"
       gradientUnits="userSpaceOnUse"
       gradientTransform="matrix(2.003784,0,0,1.4,27.98813,-17.4)" />
    <linearGradient
       id="linearGradient3688-166-749-4-0-3-8">
      <stop
         id="stop2883-4-0-1-8"
         style="stop-color:#181818;stop-opacity:1"
         offset="0" />
      <stop
         id="stop2885-9-2-9-6"
         style="stop-color:#181818;stop-opacity:0"
         offset="1" />
    </linearGradient>
    <radialGradient
       cx="4.9929786"
       cy="43.5"
       r="2.5"
       fx="4.9929786"
       fy="43.5"
       id="radialGradient3339-1-4"
       xlink:href="#linearGradient3688-464-309-9-2-4-2"
       gradientUnits="userSpaceOnUse"
       gradientTransform="matrix(2.003784,0,0,1.4,-20.01187,-104.4)" />
    <linearGradient
       id="linearGradient3688-464-309-9-2-4-2">
      <stop
         id="stop2889-7-9-6-9"
         style="stop-color:#181818;stop-opacity:1"
         offset="0" />
      <stop
         id="stop2891-6-6-1-7"
         style="stop-color:#181818;stop-opacity:0"
         offset="1" />
    </linearGradient>
    <linearGradient
       id="linearGradient3702-501-757-8-4-1-1">
      <stop
         id="stop2895-8-9-9-1"
         style="stop-color:#181818;stop-opacity:0"
         offset="0" />
      <stop
         id="stop2897-7-8-7-7"
         style="stop-color:#181818;stop-opacity:1"
         offset="0.5" />
      <stop
         id="stop2899-4-5-1-5"
         style="stop-color:#181818;stop-opacity:0"
         offset="1" />
    </linearGradient>
    <linearGradient
       x1="25.058096"
       y1="47.027729"
       x2="25.058096"
       y2="39.999443"
       id="linearGradient6084"
       xlink:href="#linearGradient3702-501-757-8-4-1-1"
       gradientUnits="userSpaceOnUse" />
  </defs>
  <metadata
     id="metadata6091">
    <rdf:RDF>
      <cc:Work
         rdf:about="">
        <dc:format>image/svg+xml</dc:format>
        <dc:type
           rdf:resource="http://purl.org/dc/dcmitype/StillImage" />
      </cc:Work>
    </rdf:RDF>
  </metadata>
  <g
     style="display:inline;opacity:0.6"
     id="g3712-8-2-4-4"
     transform="matrix(2.3827895,0,0,1.07792,-9.1849476,40.8642)">
    <rect
       style="fill:url(#radialGradient3337-2-2);fill-opacity:1;stroke:none"
       id="rect2801-5-5-7-9"
       y="40"
       x="38"
       height="7"
       width="5" />
    <rect
       style="fill:url(#radialGradient3339-1-4);fill-opacity:1;stroke:none"
       id="rect3696-3-0-3-7"
       transform="scale(-1)"
       y="-47"
       x="-10"
       height="7"
       width="5" />
    <rect
       style="fill:url(#linearGradient6084);fill-opacity:1;stroke:none"
       id="rect3700-5-6-8-4"
       y="40"
       x="10"
       height="7.0000005"
       width="28" />
  </g>
  <rect
     style="color:#000000;display:inline;overflow:visible;visibility:visible;fill:url(#radialGradient3969);fill-opacity:1;fill-rule:nonzero;stroke:none;stroke-width:1;marker:none;enable-background:accumulate"
     id="rect5505-21-3-8-5-2"
     y="7.5"
     x="7.5"
     ry="4.4181795"
     rx="4.4181809"
     height="81"
     width="81" />
  <path
     style="color:#000000;display:inline;overflow:visible;visibility:visible;opacity:0.15;fill:#661215;fill-opacity:1;fill-rule:evenodd;stroke:none;stroke-width:0.999996;marker:none;enable-background:accumulate"
     id="path4280"
     d="M 56.466731,7.5065156 C 56.207786,7.5657099 55.871175,7.986426 55.678204,8.1704448 28.730255,31.503492 12.873376,34.729938 8.1443181,35.065356 7.9183056,35.076815 7.6978971,34.749616 7.5,34.860375 V 45.5 C 11.511681,44.93477 22.604608,42.823547 33.257876,36.090347 43.892588,29.368874 54.084956,20.063359 58.855489,15.449217 57.568014,20.803284 56.662952,28.933623 56.030504,38.436346 55.13597,51.876984 54.77704,69.111206 54.787207,88.49995 H 84.081818 C 86.529492,88.49995 88.5,86.511518 88.5,84.04159 V 83 C 83.791928,72.555929 80.530058,57.962405 78.098862,44.659464 c -0.0044,-0.03205 0.0044,-0.06077 0,-0.0929 C 75.992157,28.28247 79.236458,12.086069 80.400428,7.5 Z M 7.9602271,48.811926 C 7.7975697,48.847331 7.6419842,48.519405 7.5,48.606964 v 11.544989 c 0.2253077,0.125387 0.4790888,-0.0061 0.7363636,-0.0098 5.0354444,0 11.8487134,3.139565 18.4624074,8.442661 C 32.942575,73.591314 39.327823,81.094565 43.4,88.5 h 8.951363 C 50.072595,80.391479 42.345346,71.759553 32.904545,63.793989 28.138108,59.772361 23.219627,56.001324 18.913637,53.427948 14.607649,50.854571 11.078445,48.811926 8.2363636,48.811926 c -0.091845,-0.0087 -0.1842916,-0.0087 -0.2761365,0 z" />
  <path
     style="color:#000000;display:inline;overflow:visible;visibility:visible;opacity:0.3;fill:#661215;fill-opacity:1;fill-rule:evenodd;stroke:none;stroke-width:0.999999;marker:none;enable-background:accumulate"
     id="path6711-4"
     d="M 56.00926,8 C 28.741393,31.615983 13.181303,34.968865 8,35.336444 V 44.5 c 3.91084,-0.551162 13.564974,-2.672889 24.212963,-9 C 45.822682,27.413007 61.456789,11.27564 61.456789,11.27564 57.353523,24.202209 56.88754,51.753552 56.50963,88 h 27.786664 c 1.231113,0 2.075574,-0.569462 2.878908,-1.380299 C 87.526596,86.023434 87.980767,84.637068 88,84.105612 82.783793,73.246863 79.355452,58.095098 76.796295,44.074762 74.612074,27.344969 77.869022,12.71261 79.064815,8 Z M 8,49.168221 V 59.1 C 19.168579,59.234057 35.797661,72.477494 44.1,88 h 7.927779 C 47.400578,73.069531 16.520474,49.168221 8,49.168221 Z" />
  <path
     style="color:#000000;display:inline;overflow:visible;visibility:visible;fill:url(#linearGradient4385-4);fill-opacity:1;fill-rule:nonzero;stroke:none;stroke-width:0.999997;marker:none;enable-background:accumulate"
     id="path6711"
     d="M 56.026312,8 C 28.758444,31.432886 13.181302,34.740528 8,35.105261 V 43.5 C 11.91084,42.953112 21.741215,41.080434 32.210518,34.51316 45.635053,26.092111 61.684206,10.105261 61.684206,10.105261 57.282608,18.752385 55.903589,48.57019 55.818537,88 H 84.052624 C 86.2556,88 88,86.255608 88,84.052632 82.783793,73.278067 79.37495,57.701117 76.815793,43.78948 74.63157,27.189391 77.856846,12.676075 79.052622,8 Z M 8,48.828702 v 9.326808 c 11.320356,0 28.723644,13.604816 37.142592,29.84449 h 7.071525 C 48.258267,73.236552 16.636519,48.828702 8,48.828702 Z" />
  <path
     style="display:inline;opacity:0.05;fill:#000000;fill-opacity:1;fill-rule:evenodd;stroke:none;stroke-width:0.999997"
     id="path6713"
     d="M 80.314816,8 C 69.597111,14.540729 34.493687,34.454194 8,31.930433 v 18.040582 c 0,0 58.911688,8.803924 80,-8.626086 V 12.173911 C 88,9.5270742 86.269261,8 83.787036,8 Z M 88,48.904347 C 77.397806,59.482343 66.501288,73.530393 59.249998,88 h 8.472225 C 73.591808,78.067007 81.258519,67.134637 88,60.405798 Z" />
  <rect
     style="display:inline;opacity:0.5;fill:none;stroke:url(#linearGradient3966);stroke-width:1;stroke-linecap:round;stroke-linejoin:round;stroke-miterlimit:4;stroke-dasharray:none;stroke-dashoffset:0;stroke-opacity:1"
     id="rect6741-5-0-2-3"
     y="8.5"
     x="8.5"
     ry="3.4309292"
     rx="3.4494202"
     height="79"
     width="79" />
  <rect
     style="color:#000000;display:inline;overflow:visible;visibility:visible;opacity:0.35;fill:none;stroke:#410000;stroke-width:1;stroke-linecap:round;stroke-linejoin:round;stroke-miterlimit:4;stroke-dasharray:none;stroke-dashoffset:0;stroke-opacity:1;marker:none;enable-background:accumulate"
     id="rect5505-21-3-8-9-1-1"
     y="7.5"
     x="7.5"
     ry="4.418179"
     rx="4.4181809"
     height="81"
     width="81" />
</svg>
