<?xml version="1.0" encoding="UTF-8" standalone="no"?>
<svg
   width="96"
   height="96"
   id="svg18157"
   version="1.1"
   xmlns:xlink="http://www.w3.org/1999/xlink"
   xmlns="http://www.w3.org/2000/svg"
   xmlns:svg="http://www.w3.org/2000/svg"
   xmlns:rdf="http://www.w3.org/1999/02/22-rdf-syntax-ns#"
   xmlns:cc="http://creativecommons.org/ns#"
   xmlns:dc="http://purl.org/dc/elements/1.1/">
  <defs
     id="defs18159">
    <linearGradient
       id="linearGradient5060-820-91-9-0">
      <stop
         id="stop2681-778-5-1"
         style="stop-color:#000000;stop-opacity:1"
         offset="0" />
      <stop
         id="stop2683-2-86-2"
         style="stop-color:#000000;stop-opacity:0"
         offset="1" />
    </linearGradient>
    <linearGradient
       xlink:href="#linearGradient4011-2"
       id="linearGradient3122"
       gradientUnits="userSpaceOnUse"
       gradientTransform="matrix(1.2756498,0,0,1.2756498,-21.814493,37.438934)"
       x1="71.204407"
       y1="6.2375584"
       x2="71.204407"
       y2="44.340794" />
    <linearGradient
       id="linearGradient4011-2">
      <stop
         offset="0"
         style="stop-color:#ffffff;stop-opacity:1"
         id="stop4013-7" />
      <stop
         offset="0.507761"
         style="stop-color:#ffffff;stop-opacity:0.23529412"
         id="stop4015-9" />
      <stop
         offset="0.83456558"
         style="stop-color:#ffffff;stop-opacity:0.15686275"
         id="stop4017-5" />
      <stop
         offset="1"
         style="stop-color:#ffffff;stop-opacity:0.39215687"
         id="stop4019-6" />
    </linearGradient>
    <radialGradient
       xlink:href="#linearGradient2867-449-88-871-390-598-476-591-434-148-57-177-3-8-5"
       id="radialGradient3125"
       gradientUnits="userSpaceOnUse"
       gradientTransform="matrix(0,2.6595184,-2.8134532,-7.2388004e-8,93.465497,25.858276)"
       cx="6.0693989"
       cy="8.4497671"
       fx="6.0693989"
       fy="8.4497671"
       r="19.99999" />
    <linearGradient
       id="linearGradient2867-449-88-871-390-598-476-591-434-148-57-177-3-8-5">
      <stop
         offset="0"
         style="stop-color:#90dbec;stop-opacity:1"
         id="stop3750-8-9-1" />
      <stop
         offset="0.26238"
         style="stop-color:#42baea;stop-opacity:1"
         id="stop3752-3-2-2" />
      <stop
         offset="0.704952"
         style="stop-color:#3689e6;stop-opacity:1"
         id="stop3754-7-2-5" />
      <stop
         offset="1"
         style="stop-color:#2b63a0;stop-opacity:1"
         id="stop3756-9-3-2" />
    </linearGradient>
    <linearGradient
       xlink:href="#linearGradient3707-319-631-407-324-3-8-4"
       id="linearGradient3127"
       gradientUnits="userSpaceOnUse"
       gradientTransform="matrix(1.2487677,0,0,1.2487677,39.721939,39.815444)"
       x1="24"
       y1="44"
       x2="24"
       y2="3.8990016" />
    <linearGradient
       id="linearGradient3707-319-631-407-324-3-8-4">
      <stop
         offset="0"
         style="stop-color:#185f9a;stop-opacity:1"
         id="stop3760-7-3-4" />
      <stop
         offset="1"
         style="stop-color:#599ec9;stop-opacity:1"
         id="stop3762-8-4-6" />
    </linearGradient>
    <linearGradient
       x1="18.775953"
       y1="4.0378027"
       x2="18.203465"
       y2="45.962208"
       id="linearGradient2651"
       xlink:href="#linearGradient6036"
       gradientUnits="userSpaceOnUse"
       gradientTransform="matrix(0.81361317,0,0,0.8136128,28.156758,27.719018)" />
    <linearGradient
       id="linearGradient6036">
      <stop
         id="stop6038"
         style="stop-color:#ffffff;stop-opacity:1"
         offset="0" />
      <stop
         id="stop6040"
         style="stop-color:#ffffff;stop-opacity:0"
         offset="1" />
    </linearGradient>
    <linearGradient
       x1="20.580074"
       y1="10.774516"
       x2="24.27351"
       y2="9.8622112"
       id="linearGradient2682"
       xlink:href="#linearGradient3487"
       gradientUnits="userSpaceOnUse"
       spreadMethod="reflect" />
    <linearGradient
       id="linearGradient3487">
      <stop
         id="stop3489"
         style="stop-color:#e6cde2;stop-opacity:1"
         offset="0" />
      <stop
         id="stop3491"
         style="stop-color:#e6cde2;stop-opacity:0"
         offset="1" />
    </linearGradient>
    <linearGradient
       x1="17.494959"
       y1="11.200086"
       x2="21.047453"
       y2="9.7956104"
       id="linearGradient2684"
       xlink:href="#linearGradient3495"
       gradientUnits="userSpaceOnUse"
       spreadMethod="reflect" />
    <linearGradient
       id="linearGradient3495">
      <stop
         id="stop3497"
         style="stop-color:#c1cbe4;stop-opacity:1"
         offset="0" />
      <stop
         id="stop3499"
         style="stop-color:#c1cbe4;stop-opacity:0"
         offset="1" />
    </linearGradient>
    <linearGradient
       x1="14.084608"
       y1="13.045606"
       x2="16.994024"
       y2="10.732353"
       id="linearGradient2686"
       xlink:href="#linearGradient3503"
       gradientUnits="userSpaceOnUse"
       spreadMethod="reflect" />
    <linearGradient
       id="linearGradient3503">
      <stop
         id="stop3505"
         style="stop-color:#c4ebdd;stop-opacity:1"
         offset="0" />
      <stop
         id="stop3507"
         style="stop-color:#c4ebdd;stop-opacity:0"
         offset="1" />
    </linearGradient>
    <linearGradient
       x1="12.371647"
       y1="16.188046"
       x2="14.609327"
       y2="13.461712"
       id="linearGradient2688"
       xlink:href="#linearGradient3511"
       gradientUnits="userSpaceOnUse"
       spreadMethod="reflect" />
    <linearGradient
       id="linearGradient3511">
      <stop
         id="stop3513"
         style="stop-color:#ebeec7;stop-opacity:1"
         offset="0" />
      <stop
         id="stop3515"
         style="stop-color:#ebeec7;stop-opacity:0"
         offset="1" />
    </linearGradient>
    <linearGradient
       x1="10.609375"
       y1="17.886322"
       x2="9.7297754"
       y2="20.612656"
       id="linearGradient2690"
       xlink:href="#linearGradient3519"
       gradientUnits="userSpaceOnUse"
       spreadMethod="reflect" />
    <linearGradient
       id="linearGradient3519">
      <stop
         id="stop3521"
         style="stop-color:#fcd9cd;stop-opacity:1"
         offset="0" />
      <stop
         id="stop3523"
         style="stop-color:#fcd9cd;stop-opacity:0"
         offset="1" />
    </linearGradient>
    <linearGradient
       x1="10.50172"
       y1="3.6100161"
       x2="48.798885"
       y2="54.698483"
       id="linearGradient2642"
       xlink:href="#linearGradient6036"
       gradientUnits="userSpaceOnUse"
       gradientTransform="matrix(2.0624144,0,0,2.0624142,-2.2477981,-3.5010107)" />
    <linearGradient
       x1="21.448364"
       y1="15.5"
       x2="21.448364"
       y2="32.509201"
       id="linearGradient2654"
       xlink:href="#linearGradient3428"
       gradientUnits="userSpaceOnUse"
       gradientTransform="matrix(1.9015289,0,0,1.9015289,2.3291038,2.4226481)" />
    <linearGradient
       id="linearGradient3428">
      <stop
         id="stop3430"
         style="stop-color:#aaaaaa;stop-opacity:1"
         offset="0" />
      <stop
         id="stop3432"
         style="stop-color:#d4d4d4;stop-opacity:1"
         offset="1" />
    </linearGradient>
    <linearGradient
       x1="12.2744"
       y1="32.4165"
       x2="35.391201"
       y2="14.2033"
       id="linearGradient2658"
       xlink:href="#linearGradient3263"
       gradientUnits="userSpaceOnUse"
       gradientTransform="matrix(0,2.3760267,-2.3760267,0,102.85202,-8.9653088)" />
    <linearGradient
       x1="12.2744"
       y1="32.4165"
       x2="35.391201"
       y2="14.2033"
       id="linearGradient3263"
       gradientUnits="userSpaceOnUse">
      <stop
         id="stop3265"
         style="stop-color:#dedbde;stop-opacity:1"
         offset="0" />
      <stop
         id="stop3267"
         style="stop-color:#e6e6e6;stop-opacity:1"
         offset="0.5" />
      <stop
         id="stop3269"
         style="stop-color:#d2d2d2;stop-opacity:1"
         offset="1" />
    </linearGradient>
    <linearGradient
       x1="-21.915663"
       y1="3"
       x2="-21.915663"
       y2="45.032898"
       id="linearGradient2660"
       xlink:href="#linearGradient3772"
       gradientUnits="userSpaceOnUse"
       gradientTransform="matrix(2.0282975,0,0,2.0282975,101.23916,-0.61979744)" />
    <linearGradient
       id="linearGradient3772">
      <stop
         id="stop3774"
         style="stop-color:#b4b4b4;stop-opacity:1"
         offset="0" />
      <stop
         id="stop3776"
         style="stop-color:#969696;stop-opacity:1"
         offset="1" />
    </linearGradient>
    <radialGradient
       cx="23.334524"
       cy="41.63604"
       r="22.627417"
       fx="23.334524"
       fy="41.63604"
       id="radialGradient2584"
       xlink:href="#linearGradient5060-820-91-9-0"
       gradientUnits="userSpaceOnUse"
       gradientTransform="matrix(1.986593,0,0,0.59592243,1.6096019,54.713515)" />
    <linearGradient
       xlink:href="#linearGradient3487"
       id="linearGradient726"
       gradientUnits="userSpaceOnUse"
       x1="20.580074"
       y1="10.774516"
       x2="24.27351"
       y2="9.8622112"
       spreadMethod="reflect" />
    <linearGradient
       xlink:href="#linearGradient3495"
       id="linearGradient728"
       gradientUnits="userSpaceOnUse"
       x1="17.494959"
       y1="11.200086"
       x2="21.047453"
       y2="9.7956104"
       spreadMethod="reflect" />
    <linearGradient
       xlink:href="#linearGradient3503"
       id="linearGradient730"
       gradientUnits="userSpaceOnUse"
       x1="14.084608"
       y1="13.045606"
       x2="16.994024"
       y2="10.732353"
       spreadMethod="reflect" />
    <linearGradient
       xlink:href="#linearGradient3511"
       id="linearGradient732"
       gradientUnits="userSpaceOnUse"
       x1="12.371647"
       y1="16.188046"
       x2="14.609327"
       y2="13.461712"
       spreadMethod="reflect" />
    <linearGradient
       xlink:href="#linearGradient3519"
       id="linearGradient734"
       gradientUnits="userSpaceOnUse"
       x1="10.609375"
       y1="17.886322"
       x2="9.7297754"
       y2="20.612656"
       spreadMethod="reflect" />
  </defs>
  <metadata
     id="metadata18162">
    <rdf:RDF>
      <cc:Work
         rdf:about="">
        <dc:format>image/svg+xml</dc:format>
        <dc:type
           rdf:resource="http://purl.org/dc/dcmitype/StillImage" />
      </cc:Work>
    </rdf:RDF>
  </metadata>
  <path
     d="M 92.917276,79.525355 C 92.919176,86.972949 72.793454,93.0108 47.965806,93.0108 23.138156,93.0108 3.0120221,86.972949 3.0143372,79.525355 3.0120272,72.07776 23.138156,66.039926 47.965806,66.039926 c 24.827648,0 44.953785,6.037834 44.95147,13.485429 z"
     id="path23417"
     style="display:inline;overflow:visible;visibility:visible;opacity:0.3;fill:url(#radialGradient2584);fill-opacity:1;fill-rule:evenodd;stroke:none;stroke-width:1.49839;marker:none" />
  <path
     d="m 89.545898,48.059343 c 0,-23.047466 -18.53264,-41.5800995 -41.580101,-41.5800995 -23.047468,0 -41.5800981,18.5326355 -41.5800981,41.5800995 C 6.3856945,71.1068 24.918332,89.63944 47.965797,89.63944 71.013256,89.639432 89.545898,71.1068 89.545898,48.059343 Z m -26.367869,0 c 0,8.373075 -6.671618,15.212229 -15.212232,15.212229 -8.708151,0 -15.212231,-7.008402 -15.212231,-15.212229 0,-8.371399 6.169001,-15.212231 15.212231,-15.212231 9.043231,0 15.212232,7.006691 15.212232,15.212231 z"
     id="path2781"
     style="fill:url(#linearGradient2658);fill-rule:nonzero;stroke:url(#linearGradient2660);stroke-width:0.749192;stroke-miterlimit:4;stroke-opacity:1" />
  <path
     d="m 47.965797,32.32633 c -8.684623,0 -15.733013,7.048388 -15.733013,15.733013 0,8.684624 7.04839,15.733014 15.733013,15.733014 8.684624,0 15.733013,-7.04839 15.733013,-15.733014 0,-8.684625 -7.048389,-15.733013 -15.733013,-15.733013 z m 0,7.866507 c 4.342311,0 7.866508,3.524193 7.866508,7.866506 0,4.342311 -3.524197,7.866506 -7.866508,7.866506 -4.342312,0 -7.866506,-3.524195 -7.866506,-7.866506 0,-4.342313 3.524194,-7.866506 7.866506,-7.866506 z"
     id="path2474"
     style="display:inline;overflow:visible;visibility:visible;opacity:0.5;fill:#ffffff;fill-opacity:1;fill-rule:nonzero;stroke:none;stroke-width:0.749192;marker:none;enable-background:accumulate" />
  <path
     d="m 47.965797,32.847112 c -8.397153,0 -15.212231,6.815079 -15.212231,15.212231 0,8.397151 6.815078,15.212229 15.212231,15.212229 8.397151,0 15.212232,-6.815078 15.212232,-15.212229 0,-8.397152 -6.815081,-15.212231 -15.212232,-15.212231 z m 0,7.606114 c 4.198575,0 7.606115,3.40754 7.606115,7.606117 0,4.198575 -3.40754,7.606114 -7.606115,7.606114 -4.198576,0 -7.606116,-3.407539 -7.606116,-7.606114 0,-4.198577 3.40754,-7.606117 7.606116,-7.606117 z"
     id="path3418"
     style="display:inline;overflow:visible;visibility:visible;fill:none;stroke:url(#linearGradient2654);stroke-width:0.749192;stroke-linecap:butt;stroke-linejoin:round;stroke-miterlimit:4;stroke-dasharray:none;stroke-dashoffset:0;stroke-opacity:1;marker:none;enable-background:accumulate" />
  <g
     transform="matrix(2.0468203,0,0,2.0468203,-0.7991072,-0.69371924)"
     id="g3527">
    <path
       d="M 15.856928,5.7307748 20.625,16.34375 C 21.660403,15.885186 22.795334,15.625 24,15.625 c 0.03206,0 0.06178,-3.6e-4 0.09375,0 L 24.10801,4.0047512 c -2.94215,-0.070687 -5.543041,0.6572865 -8.251082,1.7260236 z"
       transform="rotate(1.618417,24.093743,24.175959)"
       id="path3296"
       style="opacity:0.8;fill:url(#linearGradient726);fill-opacity:1;fill-rule:nonzero;stroke:none" />
    <path
       d="m 12.121471,7.9060109 6.931026,9.3601041 c 0.913109,-0.669755 1.965938,-1.167064 3.142629,-1.425169 0.03132,-0.0069 0.06026,-0.01359 0.09157,-0.02009 L 19.857174,4.426276 c -2.888973,0.5613244 -5.31953,1.8556038 -7.735703,3.4797349 z"
       id="path3308"
       style="opacity:0.8;fill:url(#linearGradient728);fill-opacity:1;fill-rule:nonzero;stroke:none" />
    <path
       d="m 8.2523933,11.646535 9.2137237,7.155818 c 0.70865,-0.883264 1.596891,-1.636119 2.666685,-2.18998 0.02847,-0.01474 0.05469,-0.02872 0.08325,-0.0431 L 14.86585,6.2506132 C 12.220599,7.5405321 10.165881,9.452393 8.2523933,11.646535 Z"
       id="path3310"
       style="opacity:0.8;fill:url(#linearGradient730);fill-opacity:1;fill-rule:nonzero;stroke:none" />
    <path
       d="m 5.6328855,16.073974 c 7.1748065,2.242248 7.8502625,7.031463 12.7767855,1.754127 L 10.499985,9.1321388 C 8.2787249,11.062747 6.9132871,13.459349 5.6328855,16.073974 Z"
       id="path3312"
       style="opacity:0.8;fill:url(#linearGradient732);fill-opacity:1;fill-rule:nonzero;stroke:none" />
    <path
       d="M 7.155289,13.193173 C 5.9722117,14.945185 5.2475768,16.829547 4.6301929,18.837116 L 15.96875,21.8125 C 16.184264,21.049497 16.486796,20.297733 16.9375,19.59375 16.95479,19.56675 16.98246,19.52673 17,19.5 Z"
       id="path3314"
       style="opacity:0.8;fill:url(#linearGradient734);fill-opacity:1;fill-rule:nonzero;stroke:none" />
  </g>
  <path
     d="m 47.96581,7.228421 c -22.631994,0 -40.8309202,18.198926 -40.8309202,40.830917 0,22.631998 18.1989262,40.830912 40.8309202,40.830912 22.631994,0 40.830914,-18.198914 40.830914,-40.830912 0,-22.631991 -18.19892,-40.830917 -40.830914,-40.830917 z"
     id="path3272"
     style="opacity:0.5;fill:none;stroke:url(#linearGradient2642);stroke-width:0.749192;stroke-miterlimit:4;stroke-opacity:1" />
  <g
     transform="matrix(-2.0282975,0,0,-2.0282975,96.644937,96.719884)"
     id="g3297">
    <path
       d="M 15.856928,5.7307748 20.625,16.34375 C 21.660403,15.885186 22.795334,15.625 24,15.625 c 0.03206,0 0.06178,-3.6e-4 0.09375,0 L 24.10801,4.0047512 c -2.94215,-0.070687 -5.543041,0.6572865 -8.251082,1.7260236 z"
       transform="rotate(1.618417,24.093743,24.175959)"
       id="path3299"
       style="opacity:0.8;fill:url(#linearGradient2682);fill-opacity:1;fill-rule:nonzero;stroke:none" />
    <path
       d="m 12.121471,7.9060109 6.931026,9.3601041 c 0.913109,-0.669755 1.965938,-1.167064 3.142629,-1.425169 0.03132,-0.0069 0.06026,-0.01359 0.09157,-0.02009 L 19.857174,4.426276 c -2.888973,0.5613244 -5.31953,1.8556038 -7.735703,3.4797349 z"
       id="path3301"
       style="opacity:0.8;fill:url(#linearGradient2684);fill-opacity:1;fill-rule:nonzero;stroke:none" />
    <path
       d="m 8.2523933,11.646535 9.2137237,7.155818 c 0.70865,-0.883264 1.596891,-1.636119 2.666685,-2.18998 0.02847,-0.01474 0.05469,-0.02872 0.08325,-0.0431 L 14.86585,6.2506132 C 12.220599,7.5405321 10.165881,9.452393 8.2523933,11.646535 Z"
       id="path3303"
       style="opacity:0.8;fill:url(#linearGradient2686);fill-opacity:1;fill-rule:nonzero;stroke:none" />
    <path
       d="m 5.6328855,16.073974 c 7.1748065,2.242248 7.8502625,7.031463 12.7767855,1.754127 L 10.499985,9.1321388 C 8.2787249,11.062747 6.9132871,13.459349 5.6328855,16.073974 Z"
       id="path3305"
       style="opacity:0.8;fill:url(#linearGradient2688);fill-opacity:1;fill-rule:nonzero;stroke:none" />
    <path
       d="M 7.155289,13.193173 C 5.9722117,14.945185 5.2475768,16.829547 4.6301929,18.837116 L 15.96875,21.8125 C 16.184264,21.049497 16.486796,20.297733 16.9375,19.59375 16.95479,19.56675 16.98246,19.52673 17,19.5 Z"
       id="path3307"
       style="opacity:0.8;fill:url(#linearGradient2690);fill-opacity:1;fill-rule:nonzero;stroke:none" />
  </g>
  <path
     d="m 47.965799,31.951733 c -8.928221,0 -16.107611,7.17939 -16.107611,16.10761 0,8.928218 7.17939,16.107609 16.107611,16.107609 8.928218,0 16.107607,-7.179391 16.107607,-16.107609 0,-8.92822 -7.179389,-16.10761 -16.107607,-16.10761 z"
     id="path3281"
     style="opacity:0.8;fill:none;stroke:url(#linearGradient2651);stroke-width:0.749192;stroke-miterlimit:4;stroke-opacity:1" />
  <path
     d="m 69.692348,45.437166 c -13.434788,0 -24.34871,10.913929 -24.34871,24.348706 0,13.434791 10.913922,24.348715 24.34871,24.348715 13.43478,0 24.348714,-10.913924 24.348714,-24.348715 0,-13.434777 -10.913934,-24.348706 -24.348714,-24.348706 z"
     id="path2555-7-1"
     style="color:#000000;display:inline;overflow:visible;visibility:visible;fill:url(#radialGradient3125);fill-opacity:1;fill-rule:nonzero;stroke:url(#linearGradient3127);stroke-width:0.749192;stroke-linecap:round;stroke-linejoin:round;stroke-miterlimit:4;stroke-dasharray:none;stroke-dashoffset:0;stroke-opacity:1;marker:none;enable-background:accumulate" />
  <path
     d="m 93.291871,69.785036 c 0,13.034081 -10.566647,23.600359 -23.599223,23.600359 -13.033768,0 -23.59982,-10.566395 -23.59982,-23.600359 0,-13.033471 10.566052,-23.598678 23.59982,-23.598678 13.032576,0 23.599223,10.565207 23.599223,23.598678 z"
     id="path8655-6-6"
     style="color:#000000;display:inline;overflow:visible;visibility:visible;opacity:0.5;fill:none;stroke:url(#linearGradient3122);stroke-width:0.749192;stroke-linecap:round;stroke-linejoin:round;stroke-miterlimit:4;stroke-dasharray:none;stroke-dashoffset:0;stroke-opacity:1;marker:none;enable-background:accumulate" />
  <path
     d="M 58.454482,71.284255 69.692348,82.74688 80.930215,71.284255 Z"
     id="rect3005-5-5"
     style="color:#000000;display:inline;overflow:visible;visibility:visible;fill:#3077ac;fill-opacity:1;fill-rule:nonzero;stroke:none;stroke-width:0.749192;marker:none;enable-background:accumulate" />
  <path
     d="M 67.444775,57.049629 V 70.535064 H 58.454482 L 69.692348,81.997688 80.930215,70.535064 H 71.939922 V 57.049629 Z"
     id="rect3005-5"
     style="color:#000000;display:inline;overflow:visible;visibility:visible;fill:#ffffff;fill-opacity:1;fill-rule:nonzero;stroke:none;stroke-width:0.749192;marker:none;enable-background:accumulate" />
</svg>
