<?xml version="1.0" encoding="UTF-8" standalone="no"?>
<svg
   viewBox="0 0 96 96"
   version="1.0"
   width="96"
   height="96"
   id="svg11300"
   sodipodi:docname="usb-creator-gtk.svg"
   inkscape:version="1.3.2 (091e20e, 2023-11-25)"
   xmlns:inkscape="http://www.inkscape.org/namespaces/inkscape"
   xmlns:sodipodi="http://sodipodi.sourceforge.net/DTD/sodipodi-0.dtd"
   xmlns:xlink="http://www.w3.org/1999/xlink"
   xmlns="http://www.w3.org/2000/svg"
   xmlns:svg="http://www.w3.org/2000/svg"
   xmlns:rdf="http://www.w3.org/1999/02/22-rdf-syntax-ns#"
   xmlns:cc="http://creativecommons.org/ns#"
   xmlns:dc="http://purl.org/dc/elements/1.1/">
  <sodipodi:namedview
     pagecolor="#ffffff"
     bordercolor="#666666"
     borderopacity="1"
     objecttolerance="10"
     gridtolerance="10"
     guidetolerance="10"
     inkscape:pageopacity="0"
     inkscape:pageshadow="2"
     inkscape:window-width="1366"
     inkscape:window-height="719"
     id="namedview38"
     showgrid="false"
     inkscape:zoom="27.812868"
     inkscape:cx="67.93618"
     inkscape:cy="70.075477"
     inkscape:window-x="0"
     inkscape:window-y="25"
     inkscape:window-maximized="1"
     inkscape:current-layer="svg11300"
     inkscape:pagecheckerboard="0"
     inkscape:showpageshadow="2"
     inkscape:deskcolor="#d1d1d1"
     showguides="true" />
  <metadata
     id="metadata49">
    <rdf:RDF>
      <cc:Work
         rdf:about="">
        <dc:format>image/svg+xml</dc:format>
        <dc:type
           rdf:resource="http://purl.org/dc/dcmitype/StillImage" />
      </cc:Work>
    </rdf:RDF>
  </metadata>
  <defs
     id="defs3">
    <linearGradient
       id="linearGradient4614">
      <stop
         offset="0"
         style="stop-color:#ffffff;stop-opacity:1"
         id="stop4606" />
      <stop
         offset="0.02750255"
         style="stop-color:#ffffff;stop-opacity:0.23529412"
         id="stop4608" />
      <stop
         offset="0.9812181"
         style="stop-color:#ffffff;stop-opacity:0.15686275"
         id="stop4610" />
      <stop
         offset="1"
         style="stop-color:#ffffff;stop-opacity:0.39215687"
         id="stop4612" />
    </linearGradient>
    <linearGradient
       id="linearGradient3742">
      <stop
         id="stop3734"
         style="stop-color:#ffffff;stop-opacity:1"
         offset="0" />
      <stop
         id="stop3736"
         style="stop-color:#ffffff;stop-opacity:0.23529412"
         offset="0.01900466" />
      <stop
         id="stop3738"
         style="stop-color:#ffffff;stop-opacity:0.15686275"
         offset="0.9812181" />
      <stop
         id="stop3740"
         style="stop-color:#ffffff;stop-opacity:0.39215687"
         offset="1" />
    </linearGradient>
    <radialGradient
       r="22.627001"
       gradientTransform="matrix(0.97226462,0,0,0.2209741,10.312924,80.797776)"
       cx="23.334999"
       cy="41.636002"
       gradientUnits="userSpaceOnUse"
       id="radialGradient7374">
      <stop
         offset="0"
         id="stop23421" />
      <stop
         offset="1"
         style="stop-opacity:0"
         id="stop23423" />
    </radialGradient>
    <linearGradient
       id="linearGradient3600-8">
      <stop
         id="stop3602-2"
         style="stop-color:#f4f4f4;stop-opacity:1"
         offset="0" />
      <stop
         id="stop3604-5"
         style="stop-color:#dbdbdb;stop-opacity:1"
         offset="1" />
    </linearGradient>
    <linearGradient
       x1="11.098394"
       y1="5.9702148"
       x2="11.098394"
       y2="45.68882"
       id="linearGradient5466-8-3"
       xlink:href="#linearGradient3600-8"
       gradientUnits="userSpaceOnUse"
       gradientTransform="matrix(2.0073162,0,0,1.7107328,19.688663,-7.2203116)" />
    <linearGradient
       y2="31.67935"
       x2="118.57409"
       y1="3.7037382"
       x1="118.57409"
       gradientTransform="matrix(1.3413942,0,0,2.3201011,-108.55791,-4.0467514)"
       gradientUnits="userSpaceOnUse"
       id="linearGradient3730"
       xlink:href="#linearGradient3742" />
    <linearGradient
       y2="-26.979191"
       x2="116.7913"
       y1="-37.973656"
       x1="116.7913"
       gradientTransform="matrix(1.3866946,0,0,2.4719333,-113.33848,5.0753801)"
       gradientUnits="userSpaceOnUse"
       id="linearGradient4604"
       xlink:href="#linearGradient4614" />
    <linearGradient
       id="linearGradient7056">
      <stop
         id="stop7064"
         style="stop-color:#e6e6e6;stop-opacity:1"
         offset="0" />
      <stop
         id="stop7060"
         style="stop-color:#c8c8c8;stop-opacity:1"
         offset="1" />
    </linearGradient>
    <linearGradient
       gradientUnits="userSpaceOnUse"
       y2="-44.395805"
       x2="25"
       y1="-35"
       x1="25"
       id="linearGradient4763"
       xlink:href="#linearGradient7056"
       gradientTransform="matrix(2,0,0,2,-15,-1.0014)" />
    <radialGradient
       cx="62.625"
       cy="4.625"
       r="10.625"
       fx="62.625"
       fy="4.625"
       id="radialGradient12301"
       xlink:href="#linearGradient8838"
       gradientUnits="userSpaceOnUse"
       gradientTransform="matrix(1.8823529,0,0,0.564705,-51.88234,87.38824)" />
    <linearGradient
       id="linearGradient8838">
      <stop
         id="stop8840"
         style="stop-color:#000000;stop-opacity:1"
         offset="0" />
      <stop
         id="stop8842"
         style="stop-color:#000000;stop-opacity:0"
         offset="1" />
    </linearGradient>
    <linearGradient
       id="linearGradient4011-2">
      <stop
         id="stop4013-7"
         style="stop-color:#ffffff;stop-opacity:1"
         offset="0" />
      <stop
         id="stop4015-9"
         style="stop-color:#ffffff;stop-opacity:0.23529412"
         offset="0.507761" />
      <stop
         id="stop4017-5"
         style="stop-color:#ffffff;stop-opacity:0.15686275"
         offset="0.83456558" />
      <stop
         id="stop4019-6"
         style="stop-color:#ffffff;stop-opacity:0.39215687"
         offset="1" />
    </linearGradient>
    <linearGradient
       x1="2035.1652"
       y1="3208.0737"
       x2="2035.1652"
       y2="3241.9966"
       id="linearGradient11527-6-5-3"
       xlink:href="#linearGradient947-2"
       gradientUnits="userSpaceOnUse"
       gradientTransform="matrix(1.5712551,0,0,1.1746643,-3137.5049,-3715.7752)" />
    <linearGradient
       id="linearGradient947-2">
      <stop
         offset="0"
         style="stop-color:#64baff;stop-opacity:1"
         id="stop943-7" />
      <stop
         offset="1"
         style="stop-color:#3689e6;stop-opacity:1"
         id="stop945-0" />
    </linearGradient>
    <linearGradient
       x1="71.204407"
       y1="6.2375584"
       x2="71.204407"
       y2="44.340794"
       id="linearGradient3071"
       xlink:href="#linearGradient4011-2"
       gradientUnits="userSpaceOnUse"
       gradientTransform="matrix(1.0540539,0,0,1.0540539,-9.6110023,45.272097)" />
    <radialGradient
       xlink:href="#linearGradient2867-449-88-871-390-598-476-591-434-148-57-177-3-8-5"
       id="radialGradient3125"
       gradientUnits="userSpaceOnUse"
       gradientTransform="matrix(0,2.6595184,-2.8134532,-7.2388004e-8,93.465497,25.858276)"
       cx="6.0693989"
       cy="8.4497671"
       fx="6.0693989"
       fy="8.4497671"
       r="19.99999" />
    <linearGradient
       id="linearGradient2867-449-88-871-390-598-476-591-434-148-57-177-3-8-5">
      <stop
         offset="0"
         style="stop-color:#90dbec;stop-opacity:1"
         id="stop3750-8-9-1" />
      <stop
         offset="0.26238"
         style="stop-color:#42baea;stop-opacity:1"
         id="stop3752-3-2-2" />
      <stop
         offset="0.704952"
         style="stop-color:#3689e6;stop-opacity:1"
         id="stop3754-7-2-5" />
      <stop
         offset="1"
         style="stop-color:#2b63a0;stop-opacity:1"
         id="stop3756-9-3-2" />
    </linearGradient>
    <linearGradient
       xlink:href="#linearGradient3707-319-631-407-324-3-8-4"
       id="linearGradient3127"
       gradientUnits="userSpaceOnUse"
       gradientTransform="matrix(1.2487677,0,0,1.2487677,39.721939,39.815444)"
       x1="24"
       y1="44"
       x2="24"
       y2="3.8990016" />
    <linearGradient
       id="linearGradient3707-319-631-407-324-3-8-4">
      <stop
         offset="0"
         style="stop-color:#185f9a;stop-opacity:1"
         id="stop3760-7-3-4" />
      <stop
         offset="1"
         style="stop-color:#599ec9;stop-opacity:1"
         id="stop3762-8-4-6" />
    </linearGradient>
    <linearGradient
       xlink:href="#linearGradient4011-2"
       id="linearGradient3122"
       gradientUnits="userSpaceOnUse"
       gradientTransform="matrix(1.2756498,0,0,1.2756498,-21.814493,37.438934)"
       x1="71.204407"
       y1="6.2375584"
       x2="71.204407"
       y2="44.340794" />
  </defs>
  <path
     d="m 55,89.9986 a 22,5 0 1 1 -44,0 22,5 0 1 1 44,0 z"
     style="opacity:0.3;fill:url(#radialGradient7374);fill-rule:evenodd;stroke-width:2"
     id="path23417"
     inkscape:connector-curvature="0" />
  <rect
     x="18"
     y="-90.001404"
     width="30"
     height="30"
     ry="1.5"
     rx="1.5"
     transform="scale(1,-1)"
     style="fill:url(#linearGradient4763);fill-opacity:1;stroke:none;stroke-width:2"
     id="rect3448" />
  <rect
     x="17.5"
     y="-90.5"
     width="31"
     height="30.999998"
     ry="2"
     rx="2"
     transform="scale(1,-1)"
     style="opacity:0.4;fill:none;stroke:#000000;stroke-width:1;stroke-miterlimit:4;stroke-dasharray:none;stroke-opacity:1"
     id="rect3448-9" />
  <path
     id="rect3450"
     d="m 23.5,78.5 v 5 h 7 v -5 z m 12,0 v 5 h 7 v -5 z"
     style="opacity:1;fill:#bfbfbf;fill-opacity:1;stroke:#000000;stroke-width:1;stroke-linecap:butt;stroke-linejoin:miter;stroke-miterlimit:4;stroke-dasharray:none;stroke-dashoffset:0;stroke-opacity:0.25"
     inkscape:connector-curvature="0"
     sodipodi:nodetypes="cccccccccc" />
  <rect
     x="18.5"
     y="-89.5"
     width="29"
     height="29"
     transform="scale(1,-1)"
     style="opacity:0.6;fill:none;fill-opacity:1;stroke:url(#linearGradient4604);stroke-width:1;stroke-linecap:round;stroke-linejoin:round;stroke-miterlimit:4;stroke-dasharray:none;stroke-dashoffset:0;stroke-opacity:1;marker:none"
     id="rect3458"
     rx="1.0357143"
     ry="1.0357143" />
  <rect
     x="12"
     y="3.0000002"
     width="42"
     height="68"
     ry="2.5"
     rx="2.5"
     style="opacity:1;fill:url(#linearGradient5466-8-3);fill-opacity:1;stroke:none;stroke-width:1.99984;stroke-linecap:butt;stroke-linejoin:round;stroke-miterlimit:4;stroke-dasharray:none;stroke-dashoffset:0;stroke-opacity:1;marker:none"
     id="rect5391" />
  <rect
     x="11.5"
     y="2.5"
     width="43"
     height="69"
     ry="3"
     rx="3"
     style="opacity:0.3;fill:none;fill-opacity:1;stroke:#000000;stroke-width:1;stroke-linecap:butt;stroke-linejoin:round;stroke-miterlimit:4;stroke-dasharray:none;stroke-dashoffset:0;stroke-opacity:1;marker:none"
     id="rect5391-2" />
  <path
     style="opacity:1;fill:none;fill-opacity:1;stroke:url(#linearGradient3730);stroke-width:1;stroke-linecap:round;stroke-linejoin:round;stroke-miterlimit:4;stroke-dasharray:none;stroke-dashoffset:0;stroke-opacity:1;marker:none"
     d="m 14.657896,3.5 c -1.195474,0 -2.157895,0.9338125 -2.157895,2.09375 v 62.8125 c 0,1.159937 0.962421,2.09375 2.157895,2.09375 h 36.684211 c 1.195474,0 2.157895,-0.933813 2.157895,-2.09375 V 5.59375 C 53.500002,4.4338125 52.537581,3.5 51.342107,3.5 Z"
     id="rect5391-2-0"
     inkscape:connector-curvature="0" />
  <path
     d="m 29.356342,57.63682 c 0,-2.5548 0.84912,-3.2176 1.88922,-4.1096 0.835,-0.40308 0.96842,-0.67826 0.95744,-1.9746 -0.012,-1.43256 -0.14924,-1.26892 -2.8044,-3.5738 -4.054,-3.519 -4.5992,-4.3676 -5.0752,-7.8988 -0.35112,-2.6044 -0.10484,-2.0314 -1.11276,-3.0332 -1.85518,-1.84386 -1.53734,-4.548 0.67114,-5.7102 1.98956,-1.04696 4.3464,0.06656 5.0732,2.397 0.35822,1.14854 -0.50058,3.132 -1.65376,3.8194 -1.05528,0.6291 -1.49308,-0.41974 -1.25176,1.89922 0.13356,1.28348 0.45904,2.7596 0.72328,3.2802 0.45382,0.89408 4.8978,5.103 5.3812,5.103 v -24.864 h -2.4634 c 1.14,-1.976 2.25,-3.9848 3.354,-5.974 l 3.5154,5.9748 h -2.3944 v 16.84 c 0.33302,0 3.598,-3.3136 4.6966,-4.8054 0.47468,-0.64456 0.76274,-1.55978 0.76274,-2.4234 0,-1.30248 0.42952,-1.57636 -0.56392,-1.57636 h -1.0584 v -6.1032 h 5.9976 v 6.1032 h -0.9702 c -0.86568,0.10136 -1.48442,0.5426 -1.64784,1.98682 -0.24372,2.1538 -1.16618,3.5674 -4.561,6.9894 l -2.6556,2.8638 v 10.2128 l 0.78476,0.46836 c 0.53362,0.2576 1.26852,1.08998 1.63312,1.84974 1.298,2.71 -0.508,5.622 -3.486,5.622 -2.158,-0.08 -3.742,-1.188 -3.742,-3.36 z"
     style="opacity:0.3;fill:#ffffff;stroke-width:2"
     id="path3690-6"
     inkscape:connector-curvature="0" />
  <path
     d="m 29.356342,55.63694 c 0,-2.5548 0.84912,-3.2176 1.88922,-4.1096 0.835,-0.40308 0.96842,-0.67826 0.95744,-1.9746 -0.012,-1.43256 -0.14924,-1.26892 -2.8044,-3.5738 -4.054,-3.519 -4.5992,-4.3676 -5.0752,-7.8988 -0.35112,-2.6044 -0.10484,-2.0314 -1.11276,-3.0332 -1.85518,-1.84386 -1.53734,-4.548 0.67114,-5.7102 1.98956,-1.04696 4.3464,0.06656 5.0732,2.397 0.35822,1.14854 -0.50058,3.132 -1.65376,3.8194 -1.05528,0.6291 -1.49308,-0.41974 -1.25176,1.89922 0.13356,1.28348 0.45904,2.7596 0.72328,3.2802 0.45382,0.89408 4.8978,5.103 5.3812,5.103 v -24.864 H 29.25 l 3.875,-5.974 3.875,5.9748 h -2.834458 v 16.84 c 0.33302,0 3.598,-3.3136 4.6966,-4.8054 0.47468,-0.64456 0.76274,-1.55978 0.76274,-2.4234 0,-1.30248 0.42952,-1.57636 -0.56392,-1.57636 h -1.0584 V 22.904 h 5.9976 v 6.1032 h -0.9702 c -0.86568,0.10136 -1.48442,0.5426 -1.64784,1.98682 -0.24372,2.1538 -1.16618,3.5674 -4.561,6.9894 l -2.6556,2.8638 v 10.2128 l 0.78476,0.46836 c 0.53362,0.2576 1.26852,1.08998 1.63312,1.84974 1.298,2.71 -0.508,5.622 -3.486,5.622 -2.158,-0.08 -3.742,-1.188 -3.742,-3.36 z"
     style="opacity:0.95;fill:#aaaaaa;stroke-width:2"
     id="path3690"
     inkscape:connector-curvature="0"
     sodipodi:nodetypes="cccccccccsccccccccssscccccscccccccc" />
  <path
     d="m 86,90 c 0,3.3137 -8.95429,6 -20,6 -11.04571,0 -20,-2.6863 -20,-6 0,-3.3137 8.95429,-6 20,-6 11.04571,0 20,2.6863 20,6 z"
     id="path8836"
     style="display:inline;overflow:visible;visibility:visible;opacity:0.3;fill:url(#radialGradient12301);fill-opacity:1;fill-rule:evenodd;stroke:none;stroke-width:0.999995;marker:none" />
  <rect
     y="75"
     x="26"
     height="1"
     width="2"
     id="rect4665"
     style="opacity:0.2;fill:#000000;fill-opacity:1;stroke:none;stroke-width:3;stroke-linecap:round;stroke-linejoin:round;stroke-miterlimit:4;stroke-dasharray:none;stroke-dashoffset:0;stroke-opacity:1" />
  <rect
     style="opacity:0.4;fill:#ffffff;fill-opacity:1;stroke:none;stroke-width:3;stroke-linecap:round;stroke-linejoin:round;stroke-miterlimit:4;stroke-dasharray:none;stroke-dashoffset:0;stroke-opacity:1"
     id="rect4669"
     width="2"
     height="1"
     x="26"
     y="76" />
  <rect
     y="75"
     x="38"
     height="1"
     width="2"
     id="rect2757"
     style="opacity:0.2;fill:#000000;fill-opacity:1;stroke:none;stroke-width:3;stroke-linecap:round;stroke-linejoin:round;stroke-miterlimit:4;stroke-dasharray:none;stroke-dashoffset:0;stroke-opacity:1" />
  <rect
     style="opacity:0.4;fill:#ffffff;fill-opacity:1;stroke:none;stroke-width:3;stroke-linecap:round;stroke-linejoin:round;stroke-miterlimit:4;stroke-dasharray:none;stroke-dashoffset:0;stroke-opacity:1"
     id="rect2759"
     width="2"
     height="1"
     x="38"
     y="76" />
  <path
     d="M 66.000004,51.5 C 54.688804,51.5 45.5,60.688802 45.5,71.999998 c 0,11.311195 9.188804,20.499994 20.500004,20.499994 11.311181,0 20.500017,-9.188799 20.499996,-20.499994 C 86.5,60.688802 77.311185,51.5 66.000004,51.5 Z"
     id="path2555-7-8-5-0-9-2"
     style="color:#000000;display:inline;overflow:visible;visibility:visible;opacity:0.99;fill:url(#linearGradient11527-6-5-3);fill-opacity:1;fill-rule:nonzero;stroke:none;stroke-width:1;marker:none;enable-background:accumulate" />
  <path
     style="color:#000000;clip-rule:nonzero;display:inline;overflow:visible;visibility:visible;opacity:0.5;isolation:auto;mix-blend-mode:normal;color-interpolation:sRGB;color-interpolation-filters:linearRGB;solid-color:#000000;solid-opacity:1;fill:none;fill-opacity:1;fill-rule:nonzero;stroke:#002e99;stroke-width:1;stroke-linecap:round;stroke-linejoin:round;stroke-miterlimit:4;stroke-dasharray:none;stroke-dashoffset:0;stroke-opacity:1;marker:none;color-rendering:auto;image-rendering:auto;shape-rendering:auto;text-rendering:auto;enable-background:accumulate"
     id="path2555-7"
     d="M 66.000008,51.5 C 54.688805,51.5 45.5,60.688805 45.5,72 c 0,11.311193 9.188805,20.5 20.500008,20.499998 11.311183,0 20.5,-9.188805 20.5,-20.499998 0,-11.311195 -9.188817,-20.5 -20.5,-20.5 z" />
  <path
     style="color:#000000;display:inline;overflow:visible;visibility:visible;opacity:0.5;fill:none;stroke:url(#linearGradient3071);stroke-width:0.999999;stroke-linecap:round;stroke-linejoin:round;stroke-miterlimit:4;stroke-dasharray:none;stroke-dashoffset:0;stroke-opacity:1;marker:none;enable-background:accumulate"
     id="path8655-6"
     d="m 85.500001,71.9993 c 0,10.769904 -8.731102,19.500693 -19.499758,19.500693 -10.769654,0 -19.500244,-8.730892 -19.500244,-19.500693 0,-10.769393 8.73059,-19.499301 19.500244,-19.499301 10.768656,0 19.499758,8.729908 19.499758,19.499301 z" />
  <g
     id="g2"
     transform="matrix(0.84951508,0,0,0.84951508,6.7849978,12.714299)"
     style="display:inline">
    <path
       d="m 69.692348,45.437166 c -13.434788,0 -24.34871,10.913929 -24.34871,24.348706 0,13.434791 10.913922,24.348715 24.34871,24.348715 13.43478,0 24.348714,-10.913924 24.348714,-24.348715 0,-13.434777 -10.913934,-24.348706 -24.348714,-24.348706 z"
       id="path2555-7-1"
       style="color:#000000;display:inline;overflow:visible;visibility:visible;fill:url(#radialGradient3125);fill-opacity:1;fill-rule:nonzero;stroke:url(#linearGradient3127);stroke-width:0.749192;stroke-linecap:round;stroke-linejoin:round;stroke-miterlimit:4;stroke-dasharray:none;stroke-dashoffset:0;stroke-opacity:1;marker:none;enable-background:accumulate" />
    <path
       d="m 93.291871,69.785036 c 0,13.034081 -10.566647,23.600359 -23.599223,23.600359 -13.033768,0 -23.59982,-10.566395 -23.59982,-23.600359 0,-13.033471 10.566052,-23.598678 23.59982,-23.598678 13.032576,0 23.599223,10.565207 23.599223,23.598678 z"
       id="path8655-6-6"
       style="color:#000000;display:inline;overflow:visible;visibility:visible;opacity:0.5;fill:none;stroke:url(#linearGradient3122);stroke-width:0.749192;stroke-linecap:round;stroke-linejoin:round;stroke-miterlimit:4;stroke-dasharray:none;stroke-dashoffset:0;stroke-opacity:1;marker:none;enable-background:accumulate" />
  </g>
  <path
     style="color:#000000;fill:#002e99;fill-opacity:0.05;stroke-width:0.749719;-inkscape-stroke:none"
     d="m 64.276519,60.000389 c -1.160121,0 -2.138235,0.934296 -2.1408,2.093942 v 0.0015 9.900064 h -4.606672 c -1.156684,0 -2.140799,0.927315 -2.140799,2.089548 0,0.551862 0.22316,1.062301 0.578396,1.433547 l 8.429947,9.368556 0.02343,0.02197 c 0.386359,0.361987 0.910957,0.581325 1.478938,0.581325 h 0.0015 c 0.56771,-1.5e-5 1.092634,-0.21963 1.478939,-0.581325 l 0.02343,-0.02197 8.400664,-9.370018 c 0.354834,-0.371186 0.576894,-0.880545 0.576894,-1.432085 0,-1.162237 -0.984112,-2.089548 -2.140801,-2.089548 H 69.63291 v -9.898635 -0.0015 c 0.0014,-1.162623 -0.981164,-2.095371 -2.140799,-2.095371 z"
     id="path2713"
     sodipodi:nodetypes="ssccssccssscccssccsss" />
  <path
     id="path2711"
     d="m 65.899682,84.740833 c -0.376056,0 -0.717265,-0.144404 -0.967652,-0.378998 l -8.423873,-9.361337 c -0.229759,-0.240113 -0.37019,-0.56142 -0.37019,-0.914476 0,-0.743537 0.622868,-1.340518 1.391215,-1.340518 h 5.356257 L 62.885568,62.0964 c 0.0016,-0.745846 0.620477,-1.346292 1.391219,-1.346292 h 3.215055 c 0.770741,0 1.392618,0.600446 1.39122,1.346292 l 1.29e-4,10.649104 h 5.356248 c 0.768349,0 1.391224,0.596981 1.391224,1.340518 0,0.352839 -0.140273,0.673988 -0.369792,0.914056 l -8.393886,9.362072 c -0.250354,0.234407 -0.591417,0.378675 -0.967303,0.378683 z"
     style="vector-effect:none;fill:#002e99;fill-opacity:0.15;stroke:none;stroke-width:0.749719;stroke-linecap:butt;stroke-linejoin:miter;stroke-miterlimit:4;stroke-dasharray:none;stroke-dashoffset:0;stroke-opacity:1;marker:none;paint-order:normal"
     sodipodi:nodetypes="sccssccssccssccs" />
  <path
     id="rect1041-6"
     d="m 65.899682,83.991219 c -0.376056,0 -0.717265,-0.144404 -0.967652,-0.378998 l -8.423873,-9.361337 c -0.229759,-0.240115 -0.37019,-0.561426 -0.37019,-0.91448 0,-0.743537 0.622868,-1.340518 1.391215,-1.340518 h 5.356257 l 1.29e-4,-10.649104 c 0.0016,-0.745846 0.620477,-1.346292 1.391219,-1.346292 h 3.215055 c 0.770741,0 1.392618,0.600446 1.39122,1.346292 l 1.29e-4,10.649104 h 5.356248 c 0.768349,0 1.391224,0.596981 1.391224,1.340518 0,0.352838 -0.140273,0.673987 -0.369792,0.914052 l -8.393886,9.36208 c -0.250354,0.234407 -0.591417,0.378675 -0.967303,0.378683 z"
     style="vector-effect:none;fill:#ffffff;fill-opacity:1;stroke:none;stroke-width:0.749719;stroke-linecap:butt;stroke-linejoin:miter;stroke-miterlimit:4;stroke-dasharray:none;stroke-dashoffset:0;stroke-opacity:1;marker:none;paint-order:normal"
     sodipodi:nodetypes="sccssccssccssccs" />
</svg>
