<?xml version="1.0" encoding="UTF-8" standalone="no"?>
<svg
   version="1.0"
   width="16"
   height="16"
   id="svg3721"
   xmlns:xlink="http://www.w3.org/1999/xlink"
   xmlns="http://www.w3.org/2000/svg"
   xmlns:svg="http://www.w3.org/2000/svg"
   xmlns:rdf="http://www.w3.org/1999/02/22-rdf-syntax-ns#"
   xmlns:cc="http://creativecommons.org/ns#"
   xmlns:dc="http://purl.org/dc/elements/1.1/">
  <metadata
     id="metadata147771">
    <rdf:RDF>
      <cc:Work
         rdf:about="">
        <dc:format>image/svg+xml</dc:format>
        <dc:type
           rdf:resource="http://purl.org/dc/dcmitype/StillImage" />
      </cc:Work>
    </rdf:RDF>
  </metadata>
  <defs
     id="defs3723">
    <linearGradient
       id="linearGradient3426-9">
      <stop
         id="stop3428-4"
         style="stop-color:#ffffff;stop-opacity:1"
         offset="0" />
      <stop
         id="stop3431-9"
         style="stop-color:#ffffff;stop-opacity:0"
         offset="1" />
    </linearGradient>
    <linearGradient
       id="linearGradient6297">
      <stop
         style="stop-color:#dc8378;stop-opacity:1;"
         offset="0"
         id="stop6299" />
      <stop
         id="stop6281"
         offset="1"
         style="stop-color:#9f3529;stop-opacity:1;" />
    </linearGradient>
    <linearGradient
       id="linearGradient6699">
      <stop
         id="stop6701"
         offset="0"
         style="stop-color:#f8b17e;stop-opacity:1;" />
      <stop
         id="stop6295"
         offset="1"
         style="stop-color:#da3e46;stop-opacity:1;" />
    </linearGradient>
    <linearGradient
       collect="always"
       xlink:href="#linearGradient6297"
       id="linearGradient6411-0"
       gradientUnits="userSpaceOnUse"
       x1="6.4584079"
       y1="3"
       x2="9.3125"
       y2="16.1875" />
    <linearGradient
       collect="always"
       xlink:href="#linearGradient6699"
       id="linearGradient5559-6"
       gradientUnits="userSpaceOnUse"
       gradientTransform="matrix(0.8314752,0,0,1.0063685,27.496278,-13.609279)"
       x1="-25.286484"
       y1="17.743382"
       x2="-16.964699"
       y2="32.402924" />
    <linearGradient
       collect="always"
       xlink:href="#linearGradient3426-9"
       id="linearGradient5546-7"
       gradientUnits="userSpaceOnUse"
       gradientTransform="matrix(0.76002524,0,0,0.9237064,26.148222,-11.226666)"
       x1="-20.75"
       y1="29"
       x2="-19.5"
       y2="18.75" />
  </defs>
  <g
     id="g5512"
     transform="matrix(0.72679388,0,0,0.69976598,-0.7162592,-0.39943534)"
     style="stroke-width:1.40223">
    <path
       id="path6385"
       d="M 12,2 C 8.0492443,1.9816107 4.1926249,3.9441597 2.1559208,7.5134687 1.3558613,8.9910881 0.99554648,10.291502 0.98226378,12.001059 c 0.013452,1.941248 0.64413652,3.98263 1.82841322,5.53231 1.7605234,2.301077 3.3539367,3.231503 6.4295995,4.148777 l 0.00689,-9.681905 13.7547477,0.0046 C 22.998119,11.796311 22.884036,10.605347 22.884166,10.398126 22.228041,6.9103455 19.705872,4.336592 16.791906,2.997049 15.315033,2.3255924 13.648046,1.9997103 12,2 Z"
       style="display:inline;fill:url(#linearGradient6411-0);fill-opacity:1;fill-rule:nonzero;stroke:none;stroke-width:1.40223;stroke-miterlimit:4;stroke-opacity:1" />
    <path
       style="display:inline;opacity:1;fill:#b40000;fill-opacity:1;stroke-width:1.40222"
       id="path2"
       d="m 21.624093,12.003206 a 9.631341,8.574295 0 0 1 -9.631141,8.574295 9.631341,8.574295 0 0 1 -9.6315409,-8.573938 9.631341,8.574295 0 0 1 9.6307399,-8.5746518 9.631341,8.574295 0 0 1 9.631942,8.5735818 l -9.631341,7.13e-4 z" />
    <path
       id="path6402"
       d="m 14.745245,12.00396 v 9.667498 c 4.500708,-0.962706 7.70856,-4.671838 8.206107,-8.623486 L 23.0035,11.99988 Z"
       style="display:inline;opacity:1;fill:#285378;fill-opacity:1;fill-rule:nonzero;stroke:none;stroke-width:1.40223;stroke-miterlimit:4;stroke-opacity:1"
       nodetypes="ccccc" />
    <path
       id="path6413"
       d="m 9.2355612,17.720209 0.00456,3.965095 c 1.3466798,0.26092 2.8919598,0.421818 4.3360318,0.220753 0.362116,-0.08245 0.807076,-0.125927 1.162216,-0.229343 l 0.0075,-3.952546 z"
       style="display:inline;opacity:1;fill:#5c852f;fill-opacity:1;fill-rule:nonzero;stroke:none;stroke-width:1.40223;stroke-miterlimit:4;stroke-opacity:1" />
    <path
       r_cy="true"
       r_cx="true"
       style="display:inline;fill:url(#linearGradient5559-6);fill-opacity:1;fill-rule:nonzero;stroke:none;stroke-width:1.40223;stroke-miterlimit:4;stroke-dasharray:none"
       d="m 21.624094,11.288682 c -0.01473,3.96498 -4.108264,7.85977 -9.631341,7.85977 -5.5230783,0 -9.7433619,-3.770365 -9.6313418,-7.85977 C 2.4663357,7.4583057 6.4704637,3.484098 11.992753,3.4289111 17.5308,3.3735667 21.63836,7.4482537 21.624094,11.288682 Z"
       id="path3935" />
    <path
       id="path5580"
       d="m 14.734513,12.002203 0.0096,8.215435 c 3.925943,-1.197265 6.833263,-4.385789 6.833263,-6.824222 v -1.406433 z"
       style="display:inline;fill:#3774a5;fill-opacity:1;fill-rule:nonzero;stroke:none;stroke-width:1.40223;stroke-miterlimit:4" />
    <path
       nodetypes="cccc"
       r_cy="true"
       r_cx="true"
       style="display:inline;fill:#8badea;fill-opacity:1;fill-rule:nonzero;stroke:none;stroke-width:1.40223;stroke-miterlimit:4"
       d="m 21.603335,12.006132 c -0.832019,5.124997 -5.685988,6.521395 -6.848552,6.824112 l -2.764761,-6.825495 z"
       id="path3939" />
    <path
       nodetypes="cccscc"
       id="path5568"
       d="m 14.738229,18.839608 -5.4921256,-0.02331 0.00706,1.430709 c 0.7197533,0.14277 1.6398873,0.338001 2.7270203,0.335244 1.150276,-0.0029 2.036313,-0.178873 2.771339,-0.351734 z"
       style="display:inline;fill:#7cb040;fill-opacity:1;fill-rule:nonzero;stroke:none;stroke-width:1.40223;stroke-miterlimit:4" />
    <path
       r_cy="true"
       r_cx="true"
       style="display:inline;fill:#d7e866;fill-opacity:1;fill-rule:nonzero;stroke:none;stroke-width:1.40223;stroke-miterlimit:4"
       d="m 11.981478,11.996652 2.771762,6.835264 c -2.45,0.702112 -5.0121696,0.141596 -5.5121696,-0.03041 z"
       id="path3943"
       nodetypes="cccc" />
    <path
       r_cy="true"
       r_cx="true"
       type="arc"
       style="display:inline;overflow:visible;visibility:visible;opacity:0.311111;fill:none;fill-opacity:1;fill-rule:evenodd;stroke:url(#linearGradient5546-7);stroke-width:1.40209;stroke-linecap:butt;stroke-linejoin:miter;stroke-miterlimit:4;stroke-dasharray:none;stroke-dashoffset:0;stroke-opacity:1;marker:none;marker-start:none;marker-mid:none;marker-end:none"
       id="path5959"
       cx="-18.625"
       cy="24.375"
       rx="11.75"
       ry="7.75"
       d="m 20.923049,11.288682 c 0,3.953655 -3.998229,7.158725 -8.930297,7.158725 -4.9320663,0 -8.9302958,-3.20507 -8.9302958,-7.158725 0,-3.9536553 3.9982295,-7.1587259 8.9302958,-7.1587259 4.932068,0 8.930297,3.2050706 8.930297,7.1587259 z" />
  </g>
</svg>
