<?xml version="1.0" encoding="UTF-8" standalone="no"?>
<svg
   height="16"
   width="16"
   version="1.1"
   id="svg1"
   xmlns="http://www.w3.org/2000/svg"
   xmlns:svg="http://www.w3.org/2000/svg">
  <defs
     id="defs1" />
  <path
     d="M 8,0 C 3.588,0 0,3.588 0,8 c 0,4.412 3.588,8 8,8 2.3424,-5.5e-4 4.5662,-1.030201 6.082,-2.816 0.6227,-0.135687 1.1211,-0.499562 1.489,-1.02 0.399,-0.571 0.502,-1.243 0.368,-1.852 C 15.895,10.123102 15.854,9.971394 15.799,9.764 15.9314,9.185298 15.9988,8.593643 16,8 16,3.588 12.412,0 8,0 Z m 0,1 c 3.872,0 7,3.128 7,7 0,0.218 -0.026,0.43 -0.047,0.643 l -1.7,-1.565 C 13.172,7.00425 13.0698,6.958939 12.961,6.949 c 0.062,-0.122156 0.068,-0.265201 0.016,-0.392 0,0 -0.561,-1.325 -2.02,-1.325 -0.73,0 -1.254,0.34 -1.543,0.674 C 9.2399,6.109283 9.108,6.345203 9.026,6.6 8.849,7.243 9.813,7.509 9.99,6.865 c 0,0 0.037,-0.141 0.18,-0.306 0.142,-0.165 0.341,-0.327 0.787,-0.327 0.891,0 1.082,0.676 1.082,0.676 0.138,0.27 0.291,0.344 0.41,0.352 l -1.05,2.13 c -0.287,0.581 -0.415,1.22 -0.32,1.837 0.097,0.650303 0.4645,1.229403 1.011,1.595 0.207,0.14 0.43,0.232 0.658,0.303 C 11.4605,14.329654 9.7632,14.99991 8,15 4.128,15 1,11.872 1,8 1,4.128 4.128,1 8,1 Z m 1.633,1.387 -0.86,0.51 c 1.201,2.026 3.563,1.925 3.563,1.925 L 12.291,3.824 c 0,0 -1.757,0.083 -2.658,-1.437 z M 6.397,2.4 C 5.477,3.91 3.721,3.805 3.721,3.805 L 3.664,4.803 c 0,0 2.36,0.13 3.586,-1.881 z m -1.44,2.832 c -0.73,0 -1.254,0.34 -1.543,0.674 C 3.2395,6.109197 3.1073,6.345124 3.025,6.6 2.848,7.243 3.813,7.509 3.99,6.865 c 0,0 0.037,-0.141 0.18,-0.306 0.142,-0.165 0.341,-0.327 0.787,-0.327 0.891,0 1.082,0.676 1.082,0.676 0.234,0.626 1.173,0.274 0.938,-0.351 0,0 -0.561,-1.325 -2.02,-1.325 z m 8.111,3.034 1.286,1.183 c 0.152,0.14 0.273,0.296 0.378,0.455 v 0.004 c 0.035,0.054 0.062,0.108 0.092,0.162 0.081,0.151 0.155,0.304 0.188,0.455 0.08,0.371 0.032,0.72 -0.211,1.067 -0.07,0.1 -0.15,0.186 -0.236,0.263 -0.02,0.018 -0.042,0.031 -0.062,0.047 -0.072,0.05913 -0.1488,0.111674 -0.23,0.157 l -0.063,0.03 c -0.083,0.04096 -0.1692,0.07442 -0.258,0.1 l -0.07,0.02 c -0.1055,0.02584 -0.2134,0.04092 -0.322,0.045 h -0.01 c -0.3225,0.0092 -0.6399,-0.0824 -0.908,-0.262 -0.3203,-0.203528 -0.533,-0.539435 -0.58,-0.916 -0.057,-0.375 0.02,-0.82 0.228,-1.242 V 9.832 Z M 8,11.004 c -1.3256,0.0013 -2.5964,0.529009 -3.533,1.467 l 0.707,0.707 C 5.9232,12.427559 6.9396,12.005287 8,12.004 c 1.0604,0.0013 2.0768,0.423559 2.826,1.174 l 0.707,-0.707 C 10.5964,11.532916 9.3256,11.005234 8,11.004 Z"
     fill="#666"
     overflow="visible"
     style="color:#bebebe;fill:#666666;fill-opacity:1;marker:none"
     id="path1" />
</svg>
