<?xml version="1.0" encoding="UTF-8" standalone="no"?>
<svg
   version="1.1"
   width="128"
   height="128"
   id="svg3172"
   xmlns:xlink="http://www.w3.org/1999/xlink"
   xmlns="http://www.w3.org/2000/svg"
   xmlns:svg="http://www.w3.org/2000/svg"
   xmlns:rdf="http://www.w3.org/1999/02/22-rdf-syntax-ns#"
   xmlns:cc="http://creativecommons.org/ns#"
   xmlns:dc="http://purl.org/dc/elements/1.1/">
  <defs
     id="defs3174">
    <linearGradient
       id="linearGradient3600">
      <stop
         id="stop3602"
         style="stop-color:#f4f4f4;stop-opacity:1"
         offset="0" />
      <stop
         id="stop3604"
         style="stop-color:#dbdbdb;stop-opacity:1"
         offset="1" />
    </linearGradient>
    <linearGradient
       id="linearGradient3702-501-757-486">
      <stop
         id="stop3100"
         style="stop-color:#181818;stop-opacity:0"
         offset="0" />
      <stop
         id="stop3102"
         style="stop-color:#181818;stop-opacity:1"
         offset="0.5" />
      <stop
         id="stop3104"
         style="stop-color:#181818;stop-opacity:0"
         offset="1" />
    </linearGradient>
    <linearGradient
       id="linearGradient3688-464-309-255">
      <stop
         id="stop3094"
         style="stop-color:#181818;stop-opacity:1"
         offset="0" />
      <stop
         id="stop3096"
         style="stop-color:#181818;stop-opacity:0"
         offset="1" />
    </linearGradient>
    <linearGradient
       x1="25.132275"
       y1="0.98520643"
       x2="25.132275"
       y2="47.013336"
       id="linearGradient3019-2"
       xlink:href="#linearGradient3600"
       gradientUnits="userSpaceOnUse"
       gradientTransform="matrix(2.6285655,0,0,2.5204893,0.914429,-4.3579715)" />
    <linearGradient
       x1="23.99999"
       y1="5.5641499"
       x2="23.99999"
       y2="42.194839"
       id="linearGradient3016-9"
       xlink:href="#linearGradient3977-3"
       gradientUnits="userSpaceOnUse"
       gradientTransform="matrix(2.4594595,0,0,3.1081081,4.9729852,-14.594554)" />
    <linearGradient
       id="linearGradient3977-3">
      <stop
         id="stop3979-6"
         style="stop-color:#ffffff;stop-opacity:1"
         offset="0" />
      <stop
         id="stop3981-0"
         style="stop-color:#ffffff;stop-opacity:0.23529412"
         offset="0.00648027" />
      <stop
         id="stop3983-6"
         style="stop-color:#ffffff;stop-opacity:0.15686275"
         offset="0.99423188" />
      <stop
         id="stop3985-2"
         style="stop-color:#ffffff;stop-opacity:0.39215687"
         offset="1" />
    </linearGradient>
    <linearGradient
       x1="-51.786404"
       y1="50.786446"
       x2="-51.786404"
       y2="2.9062471"
       id="linearGradient3148"
       xlink:href="#linearGradient3104-6"
       gradientUnits="userSpaceOnUse"
       gradientTransform="matrix(2.1456297,0,0,2.3791292,158.08983,-7.746462)" />
    <linearGradient
       id="linearGradient3104-6">
      <stop
         id="stop3106-3"
         style="stop-color:#000000;stop-opacity:0.31782946"
         offset="0" />
      <stop
         id="stop3108-9"
         style="stop-color:#000000;stop-opacity:0.24031007"
         offset="1" />
    </linearGradient>
    <linearGradient
       gradientUnits="userSpaceOnUse"
       xlink:href="#linearGradient3702-501-757-486"
       id="linearGradient4097"
       y2="39.999443"
       x2="25.058096"
       y1="47.027729"
       x1="25.058096"
       gradientTransform="matrix(2.8421052,0,0,0.71428566,-4.2105336,87.430066)" />
    <radialGradient
       gradientTransform="matrix(5.6949649,0,0,0.99999992,-52.665305,-162.00149)"
       gradientUnits="userSpaceOnUse"
       xlink:href="#linearGradient3688-464-309-255"
       id="radialGradient4095"
       fy="43.5"
       fx="4.9929786"
       r="2.5"
       cy="43.5"
       cx="4.9929786" />
    <radialGradient
       gradientTransform="matrix(5.6949649,0,0,0.99999992,75.334676,75.001496)"
       gradientUnits="userSpaceOnUse"
       xlink:href="#linearGradient3688-464-309-255"
       id="radialGradient4093"
       fy="43.5"
       fx="4.9929786"
       r="2.5"
       cy="43.5"
       cx="4.9929786" />
    <radialGradient
       xlink:href="#linearGradient9162"
       id="radialGradient3168"
       gradientUnits="userSpaceOnUse"
       gradientTransform="matrix(-0.3550367,-0.06113843,0.0269881,-0.1567226,108.46718,1085.7968)"
       cx="416.80206"
       cy="399.14209"
       fx="416.80206"
       fy="399.14209"
       r="20.131355" />
    <linearGradient
       id="linearGradient9162">
      <stop
         offset="0"
         style="stop-color:#8ae234;stop-opacity:1"
         id="stop9170" />
      <stop
         offset="1"
         style="stop-color:#4db07d;stop-opacity:0.88235295"
         id="stop9166" />
    </linearGradient>
    <radialGradient
       xlink:href="#linearGradient7192"
       id="radialGradient3170"
       gradientUnits="userSpaceOnUse"
       gradientTransform="matrix(0.2619729,-0.285608,0.2957879,0.2713093,-255.83444,1008.4924)"
       cx="416.65488"
       cy="392.0784"
       fx="416.65488"
       fy="392.0784"
       r="27.076788" />
    <linearGradient
       id="linearGradient7192">
      <stop
         offset="0"
         style="stop-color:#fce94f;stop-opacity:1"
         id="stop7210" />
      <stop
         offset="0.5"
         style="stop-color:#66d09a;stop-opacity:1"
         id="stop8189" />
      <stop
         offset="1"
         style="stop-color:#66c6d0;stop-opacity:1"
         id="stop8187" />
    </linearGradient>
    <linearGradient
       xlink:href="#linearGradient7605"
       id="linearGradient3172"
       gradientUnits="userSpaceOnUse"
       gradientTransform="translate(-59.639373,968.75146)"
       x1="32.027035"
       y1="21.986458"
       x2="27.560297"
       y2="15.298627" />
    <linearGradient
       id="linearGradient7605">
      <stop
         offset="0"
         style="stop-color:#bcae3e;stop-opacity:1"
         id="stop7607" />
      <stop
         offset="0.5"
         style="stop-color:#3b9a6a;stop-opacity:1"
         id="stop7609" />
      <stop
         offset="1"
         style="stop-color:#3d8891;stop-opacity:1"
         id="stop7611" />
    </linearGradient>
    <linearGradient
       xlink:href="#linearGradient7176"
       id="linearGradient3174"
       gradientUnits="userSpaceOnUse"
       gradientTransform="matrix(0.2297578,-0.0383763,0.0383763,0.2297578,-142.32593,918.92775)"
       x1="375.62509"
       y1="311.79102"
       x2="393.43311"
       y2="374.92462" />
    <linearGradient
       id="linearGradient7176">
      <stop
         offset="0"
         style="stop-color:#204a87;stop-opacity:1"
         id="stop7178" />
      <stop
         offset="1"
         style="stop-color:#97bcd4;stop-opacity:1"
         id="stop7180" />
    </linearGradient>
    <linearGradient
       xlink:href="#linearGradient7613"
       id="linearGradient3176"
       gradientUnits="userSpaceOnUse"
       gradientTransform="translate(-59.639373,968.75146)"
       x1="13.112816"
       y1="7.2513928"
       x2="20.403833"
       y2="21.766705" />
    <linearGradient
       id="linearGradient7613">
      <stop
         offset="0"
         style="stop-color:#304456;stop-opacity:1"
         id="stop7615" />
      <stop
         offset="1"
         style="stop-color:#6394be;stop-opacity:1"
         id="stop7617" />
    </linearGradient>
  </defs>
  <metadata
     id="metadata3177">
    <rdf:RDF>
      <cc:Work
         rdf:about="">
        <dc:format>image/svg+xml</dc:format>
        <dc:type
           rdf:resource="http://purl.org/dc/dcmitype/StillImage" />
      </cc:Work>
    </rdf:RDF>
  </metadata>
  <g
     id="g978"
     style="opacity:0.2;stroke-width:1.03923047"
     transform="matrix(0.92592591,0,0,1,4.7407489,0)">
    <rect
       style="fill:url(#radialGradient4093);fill-opacity:1;stroke:none;stroke-width:1.48070288"
       id="rect2801"
       y="116.00149"
       x="103.78947"
       height="4.9999995"
       width="14.210526" />
    <rect
       style="fill:url(#radialGradient4095);fill-opacity:1;stroke:none;stroke-width:1.48070288"
       id="rect3696"
       transform="scale(-1)"
       y="-121.00149"
       x="-24.210518"
       height="4.9999995"
       width="14.210526" />
    <rect
       style="fill:url(#linearGradient4097);fill-opacity:1;stroke:none;stroke-width:1.48070288"
       id="rect3700"
       y="116.00149"
       x="24.210518"
       height="5"
       width="79.578949" />
  </g>
  <path
     d="m 18,2.0004521 c 21.081878,0 91.99989,0.00694 91.99989,0.00694 L 110,118 c 0,0 -61.333339,0 -91.999999,0 0,-38.666664 0,-77.33333 0,-115.999995 z"
     id="path4160"
     style="display:inline;fill:url(#linearGradient3019-2);fill-opacity:1;stroke:none" />
  <path
     d="m 109.5,117.5 h -91 V 2.500002 h 91 z"
     id="rect6741-1"
     style="fill:none;stroke:url(#linearGradient3016-9);stroke-width:1;stroke-linecap:round;stroke-linejoin:round;stroke-miterlimit:4;stroke-dasharray:none;stroke-dashoffset:0;stroke-opacity:1" />
  <path
     d="m 17.500001,1.49999 c 21.311001,0 92.999899,0.008 92.999899,0.008 l 1e-4,116.99202 c 0,0 -61.999997,0 -92.999999,0 0,-39.000096 0,-77.999807 0,-116.999456 z"
     id="path4160-6-1"
     style="display:inline;fill:none;stroke:url(#linearGradient3148);stroke-width:0.99999994;stroke-linecap:butt;stroke-linejoin:round;stroke-miterlimit:4;stroke-dasharray:none;stroke-dashoffset:0;stroke-opacity:1" />
  <g
     id="g3162"
     transform="matrix(3.0386333,0,0,3.0386333,169.99599,-2943.3937)">
    <path
       d="m -36.870286,995.255 c 1.490765,1.91358 3.406608,2.20814 5.734418,2.17989 -0.159682,0.3686 -0.319362,0.7372 -0.479043,1.10581 0.446093,-0.53286 0.778633,-1.11183 1.516212,-1.03768 -0.45631,0.65661 -0.531242,1.08148 -0.703923,1.56575 0.882679,-0.79654 2.266515,-1.06999 3.382759,-1.38934 -0.296953,-0.45324 -0.748263,-0.78047 -1.045216,-1.2337 0.51655,-0.88084 0.736895,-2.07433 0.779404,-3.13137 -0.199831,0.55071 -0.493151,0.99175 -0.770238,1.37996 0.56501,-1.40323 0.136239,-2.33169 -0.343689,-3.50269 0.05238,0.55443 0.104757,1.10886 0.157136,1.66329 -0.445391,1.63304 -0.956351,1.82686 -1.940103,2.81948 -1.623569,0.40352 -4.111506,0.76796 -6.287717,-0.4194 z"
       id="path8191"
       style="display:inline;fill:url(#radialGradient3168);fill-opacity:1;fill-rule:evenodd;stroke:#4b8748;stroke-width:0.487942;stroke-linecap:butt;stroke-linejoin:miter;stroke-miterlimit:4;stroke-dasharray:none;stroke-opacity:1" />
    <path
       d="m -43.28165,986.613 c 0.107938,4.33908 3.816028,6.90887 7.252821,8.90691 1.943192,0.72895 3.695033,0.52947 5.694913,0.28416 1.235524,-2.52719 0.719072,-4.61842 -0.364996,-7.116 -0.67554,-0.97433 -0.844216,-1.98741 -0.993165,-3.12846 -0.779439,0.72701 -0.371674,1.92121 -0.39006,2.94771 -0.466098,-1.74383 -1.547289,-3.18883 -2.491351,-4.70187 -0.701689,-2.63575 -3.307593,-4.24835 -5.382073,-5.80738 3.403989,5.31894 4.212841,5.59059 2.761002,11.95145 -3.128514,1.13492 -5.124683,-0.44626 -6.087091,-3.33652 z"
       id="path27337"
       style="display:inline;fill:url(#radialGradient3170);fill-opacity:1;fill-rule:evenodd;stroke:url(#linearGradient3172);stroke-width:0.487942;stroke-linecap:butt;stroke-linejoin:miter;stroke-miterlimit:4;stroke-dasharray:none;stroke-opacity:1" />
    <path
       d="m -46.449838,983.1419 c 0.776784,2.95774 2.890643,5.36646 5.735267,6.51315 1.273654,0.26989 2.542932,0.52972 3.567683,0.22768 -0.242747,-1.88094 0.165015,-3.67663 0.327252,-5.73382 0.08384,-1.77322 0.17475,-3.34599 -0.867792,-4.79998 -1.605379,-2.16599 -3.684481,-2.98137 -6.103353,-2.82806 -0.589018,0.82216 -1.17918,1.50906 -1.626606,2.216 -0.744911,1.17699 -1.320522,3.14609 -0.383794,4.41435 0.921654,0.86173 2.129325,1.77243 2.843301,1.87818 -1.082879,0.0737 -1.815803,-0.47738 -2.699912,-1.01972 -0.264016,-0.28926 -0.52803,-0.57852 -0.792046,-0.86778 z"
       id="path24402"
       style="display:inline;fill:url(#linearGradient3174);fill-opacity:1;fill-rule:evenodd;stroke:url(#linearGradient3176);stroke-width:0.487942;stroke-linecap:butt;stroke-linejoin:miter;stroke-miterlimit:4;stroke-dasharray:none;stroke-opacity:1" />
    <path
       d="m -23.361359,999.66171 c -1.578727,-0.64821 -5.226572,-2.45115 -6.243142,-3.08565 -0.759762,-0.47421 -1.21733,-0.58773 -1.971022,-0.48901 -0.689714,0.0903 -0.798449,0.0687 -0.365713,-0.0727 0.338716,-0.11069 0.606696,-0.25604 0.595512,-0.323 -0.01119,-0.067 -0.683049,-0.66504 -1.493034,-1.32907 -5.246732,-4.30127 -9.201449,-10.04196 -10.308747,-14.96425 -0.211216,-0.93892 -0.284661,-1.40489 -0.163214,-1.0355 1.73131,5.26592 3.616163,8.48965 7.146532,12.22299 2.083019,2.20278 5.355786,4.72684 5.79433,4.46876 0.208337,-0.1226 0.28557,-0.064 0.236055,0.17915 -0.09005,0.44215 2.347092,1.92269 5.305137,3.22282 1.141034,0.50152 2.160535,1.05786 2.265556,1.23632 0.238275,0.40493 0.26562,0.40593 -0.79825,-0.0309 z"
       id="path24368"
       style="display:inline;fill:#2a6a28" />
  </g>
</svg>
