<?xml version="1.0" encoding="UTF-8" standalone="no"?>
<svg
   version="1.1"
   width="16"
   height="16"
   id="svg7989"
   xmlns:xlink="http://www.w3.org/1999/xlink"
   xmlns="http://www.w3.org/2000/svg"
   xmlns:svg="http://www.w3.org/2000/svg"
   xmlns:rdf="http://www.w3.org/1999/02/22-rdf-syntax-ns#"
   xmlns:cc="http://creativecommons.org/ns#"
   xmlns:dc="http://purl.org/dc/elements/1.1/">
  <defs
     id="defs7991">
    <linearGradient
       x1="11.325727"
       y1="0.6237275"
       x2="11.350123"
       y2="8.1598244"
       id="linearGradient10270-0-0"
       xlink:href="#linearGradient3454-2-5-0-3-8-7"
       gradientUnits="userSpaceOnUse"
       gradientTransform="matrix(0.89189031,0,0,0.94046961,3.1436,5.346537)" />
    <linearGradient
       id="linearGradient3454-2-5-0-3-8-7">
      <stop
         id="stop3456-4-9-38-1-9-7"
         style="stop-color:#ffffff;stop-opacity:1"
         offset="0" />
      <stop
         id="stop3458-39-80-3-5-6-2"
         style="stop-color:#ffffff;stop-opacity:0.23529412"
         offset="0.0097359" />
      <stop
         id="stop3460-7-0-2-4-4-4"
         style="stop-color:#ffffff;stop-opacity:0.15686275"
         offset="0.99001008" />
      <stop
         id="stop3462-0-9-8-7-8-46"
         style="stop-color:#ffffff;stop-opacity:0.39215687"
         offset="1" />
    </linearGradient>
    <linearGradient
       x1="76.041"
       y1="49.372032"
       x2="76.041"
       y2="35.430561"
       id="linearGradient10268-4-4"
       xlink:href="#linearGradient6129-963-697-142-998-580-273-44-2-2-2-6"
       gradientUnits="userSpaceOnUse"
       gradientTransform="matrix(0.38156409,0,0,0.32896952,-18.242,0.28216681)" />
    <linearGradient
       id="linearGradient6129-963-697-142-998-580-273-44-2-2-2-6">
      <stop
         id="stop2661-01-6-2-4-6"
         style="stop-color:#0a0a0a;stop-opacity:0.498"
         offset="0" />
      <stop
         id="stop2663-64-5-5-3-6"
         style="stop-color:#0a0a0a;stop-opacity:0"
         offset="1" />
    </linearGradient>
    <linearGradient
       x1="84.30883"
       y1="16.110577"
       x2="84.30883"
       y2="42.923553"
       id="linearGradient10262-3-6"
       xlink:href="#linearGradient4632-92-3-0-8-1"
       gradientUnits="userSpaceOnUse"
       gradientTransform="matrix(0.33333327,0,0,0.34148555,-17.0866,-0.60407319)" />
    <linearGradient
       id="linearGradient4632-92-3-0-8-1">
      <stop
         id="stop4634-68-8-0-2-9"
         style="stop-color:#cdc9e3;stop-opacity:1"
         offset="0" />
      <stop
         id="stop4636-8-21-7-1-4"
         style="stop-color:#9389cb;stop-opacity:1"
         offset="1" />
    </linearGradient>
    <linearGradient
       x1="-51.786404"
       y1="53.514328"
       x2="-51.786404"
       y2="2.0612748"
       id="linearGradient10473-4-0-02"
       xlink:href="#linearGradient3104-8-8-97-4-6-11-5-5-4-4-2"
       gradientUnits="userSpaceOnUse"
       gradientTransform="matrix(0.31070043,0,0,0.27489387,20.1768,-0.10316319)" />
    <linearGradient
       id="linearGradient3104-8-8-97-4-6-11-5-5-4-4-2">
      <stop
         id="stop3106-5-4-3-5-0-2-1-0-7-7-7"
         style="stop-color:#000000;stop-opacity:0.32173914"
         offset="0" />
      <stop
         id="stop3108-4-3-7-8-2-0-7-9-0-6-6"
         style="stop-color:#000000;stop-opacity:0.27826086"
         offset="1" />
    </linearGradient>
    <linearGradient
       id="linearGradient4346-1">
      <stop
         id="stop4348-9"
         style="stop-color:#ffffff;stop-opacity:1"
         offset="0" />
      <stop
         id="stop4350-2"
         style="stop-color:#d8d8d8;stop-opacity:1"
         offset="1" />
    </linearGradient>
    <linearGradient
       x1="62.988873"
       y1="11.645091"
       x2="62.988873"
       y2="15.385052"
       id="linearGradient7987"
       xlink:href="#linearGradient4346-1"
       gradientUnits="userSpaceOnUse"
       gradientTransform="matrix(0.33333327,0,0,0.32971018,-17.441,-0.64784319)" />
  </defs>
  <metadata
     id="metadata7994">
    <rdf:RDF>
      <cc:Work
         rdf:about="">
        <dc:format>image/svg+xml</dc:format>
        <dc:type
           rdf:resource="http://purl.org/dc/dcmitype/StillImage" />
      </cc:Work>
    </rdf:RDF>
  </metadata>
  <g
     id="layer1">
    <path
       d="M 2,2 V 3 H 1 V 7 H 15 V 3 H 8 V 2 Z"
       id="rect4170-0-5"
       style="color:#000000;display:inline;overflow:visible;visibility:visible;fill:url(#linearGradient7987);fill-opacity:1;fill-rule:nonzero;stroke:none;stroke-width:0.999922;marker:none;enable-background:accumulate" />
    <path
       d="M 15.5,4 V 2.726667 C 15.5,2.588167 15.411399,2.5004788 15.2729,2.5 H 8.5 V 1.757917 C 8.5,1.6194171 8.4114,1.5 8.2729,1.5 h -6.5 C 1.6344,1.5 1.5,1.619417 1.5,1.757917 V 2.5 H 0.7729 c -0.1385,0 -0.24750958,0.088189 -0.25,0.226667 L 0.5,4"
       id="rect4170-9"
       style="color:#000000;display:inline;overflow:visible;visibility:visible;opacity:0.8;fill:none;stroke:url(#linearGradient10473-4-0-02);stroke-width:1;stroke-linecap:butt;stroke-linejoin:miter;stroke-miterlimit:4;stroke-dasharray:none;stroke-dashoffset:0;stroke-opacity:1;marker:none;enable-background:accumulate" />
    <path
       d="m 0.5,4.5 h 15 v 10 h -15 c 7.4459e-4,-0.03242 0,-10 0,-10 z"
       id="rect3086-8"
       style="color:#000000;display:inline;overflow:visible;visibility:visible;fill:url(#linearGradient10262-3-6);fill-opacity:1;fill-rule:nonzero;stroke:none;stroke-width:1;marker:none;enable-background:accumulate" />
    <path
       d="M 0,4 H 16 V 15 H 0 C 0.0110679,14.994725 0,4 0,4 Z"
       id="rect3086-1-7"
       style="color:#000000;display:inline;overflow:visible;visibility:visible;opacity:0.4;fill:url(#linearGradient10268-4-4);fill-opacity:1;fill-rule:nonzero;stroke:none;stroke-width:1;marker:none;enable-background:accumulate" />
    <path
       d="m 1.5,5.5 h 13 v 8 h -13 z"
       id="rect3086-9-8"
       style="color:#000000;display:inline;overflow:visible;visibility:visible;opacity:0.5;fill:none;stroke:url(#linearGradient10270-0-0);stroke-width:1;stroke-linecap:round;stroke-linejoin:miter;stroke-miterlimit:4;stroke-dasharray:none;stroke-dashoffset:0;stroke-opacity:1;marker:none;enable-background:accumulate" />
    <path
       d="m 7.6481,7.003947 c -0.1039,0 -0.1875,0.0836 -0.1875,0.1875 v 0.63282 c -0.2057,0.0528 -0.3956,0.14099 -0.5743,0.24608 l -0.457,-0.45703 c -0.073,-0.0735 -0.1843,-0.0735 -0.2578,0 l -0.539,0.53906 c -0.074,0.0735 -0.074,0.18437 0,0.25782 l 0.457,0.45703 C 5.9844,9.045817 5.8962,9.235707 5.8434,9.441447 H 5.2106 c -0.1039,0 -0.1875,0.0836 -0.1875,0.1875 v 0.75 c 0,0.10388 0.084,0.1875 0.1875,0.1875 h 0.6328 c 0.052,0.20574 0.141,0.39563 0.2461,0.57422 l -0.457,0.45703 c -0.074,0.0735 -0.074,0.18436 0,0.25782 l 0.539,0.53906 c 0.074,0.0735 0.1845,0.0735 0.2578,0 l 0.457,-0.45703 c 0.1787,0.10509 0.3686,0.19331 0.5743,0.24608 v 0.63282 c 0,0.10388 0.084,0.1875 0.1875,0.1875 h 0.75 c 0.1039,0 0.1875,-0.0836 0.1875,-0.1875 v -0.63282 c 0.2057,-0.0528 0.3956,-0.14099 0.5742,-0.24608 l 0.4571,0.45703 c 0.073,0.0735 0.1843,0.0735 0.2578,0 l 0.539,-0.53906 c 0.074,-0.0735 0.074,-0.18437 0,-0.25782 l -0.457,-0.45703 c 0.1051,-0.17859 0.1933,-0.36848 0.2461,-0.57422 h 0.6328 c 0.1039,0 0.1875,-0.0836 0.1875,-0.1875 v -0.75 c 0,-0.10388 -0.084,-0.1875 -0.1875,-0.1875 h -0.6328 c -0.052,-0.20574 -0.141,-0.39563 -0.2461,-0.57422 l 0.457,-0.45703 c 0.074,-0.0735 0.074,-0.18436 0,-0.25782 l -0.539,-0.53906 c -0.074,-0.0735 -0.1845,-0.0735 -0.2578,0 L 9.1598,8.070347 C 8.9812,7.965257 8.7913,7.877037 8.5856,7.824267 v -0.63282 c 0,-0.10388 -0.084,-0.1875 -0.1875,-0.1875 z m 0.375,1.875 c 0.6213,0 1.125,0.50368 1.125,1.125 0,0.62132 -0.5037,1.125 -1.125,1.125 -0.6214,0 -1.125,-0.50368 -1.125,-1.125 0,-0.62132 0.5036,-1.125 1.125,-1.125 z"
       id="path3575-5-8-4-7-6-5"
       style="color:#000000;display:inline;overflow:visible;visibility:visible;opacity:0.3;fill:#ffffff;fill-opacity:0.552163;fill-rule:nonzero;stroke:none;stroke-width:1.7;marker:none;enable-background:accumulate" />
    <path
       d="m 7.6481,6.503947 c -0.1039,0 -0.1875,0.0836 -0.1875,0.1875 v 0.63282 c -0.2057,0.0528 -0.3956,0.14099 -0.5743,0.24608 l -0.457,-0.45703 c -0.073,-0.0735 -0.1843,-0.0735 -0.2578,0 l -0.539,0.53906 c -0.074,0.0735 -0.074,0.18437 0,0.25782 l 0.457,0.45703 C 5.9844,8.545817 5.8962,8.735707 5.8434,8.941447 H 5.2106 c -0.1039,0 -0.1875,0.0836 -0.1875,0.1875 v 0.75 c 0,0.10388 0.084,0.1875 0.1875,0.1875 h 0.6328 c 0.052,0.20574 0.141,0.39563 0.2461,0.57422 l -0.457,0.45703 c -0.074,0.0735 -0.074,0.18436 0,0.25782 l 0.539,0.53906 c 0.074,0.0735 0.1845,0.0735 0.2578,0 l 0.457,-0.45703 c 0.1787,0.10509 0.3686,0.19331 0.5743,0.24608 v 0.63282 c 0,0.10388 0.084,0.1875 0.1875,0.1875 h 0.75 c 0.1039,0 0.1875,-0.0836 0.1875,-0.1875 v -0.63282 c 0.2057,-0.0528 0.3956,-0.14099 0.5742,-0.24608 l 0.4571,0.45703 c 0.073,0.0735 0.1843,0.0735 0.2578,0 l 0.539,-0.53906 c 0.074,-0.0735 0.074,-0.18437 0,-0.25782 l -0.457,-0.45703 c 0.1051,-0.17859 0.1933,-0.36848 0.2461,-0.57422 h 0.6328 c 0.1039,0 0.1875,-0.0836 0.1875,-0.1875 v -0.75 c 0,-0.10388 -0.084,-0.1875 -0.1875,-0.1875 h -0.6328 c -0.052,-0.20574 -0.141,-0.39563 -0.2461,-0.57422 l 0.457,-0.45703 c 0.074,-0.0735 0.074,-0.18436 0,-0.25782 l -0.539,-0.53906 c -0.074,-0.0735 -0.1845,-0.0735 -0.2578,0 L 9.1598,7.570347 C 8.9812,7.465257 8.7913,7.377037 8.5856,7.324267 v -0.63282 c 0,-0.10388 -0.084,-0.1875 -0.1875,-0.1875 z m 0.375,1.875 c 0.6213,0 1.125,0.50368 1.125,1.125 0,0.62132 -0.5037,1.125 -1.125,1.125 -0.6214,0 -1.125,-0.50368 -1.125,-1.125 0,-0.62132 0.5036,-1.125 1.125,-1.125 z"
       id="path3575-5-8-4-7-6"
       style="color:#000000;display:inline;overflow:visible;visibility:visible;fill:#382a72;fill-opacity:0.552163;fill-rule:nonzero;stroke:none;stroke-width:1.7;marker:none;enable-background:accumulate" />
    <path
       d="m 0.5,4.5 h 15 v 10 h -15 z"
       id="rect3086-8-1"
       style="color:#000000;display:inline;overflow:visible;visibility:visible;opacity:0.3;fill:none;stroke:#000000;stroke-width:1;stroke-linecap:round;stroke-linejoin:round;stroke-miterlimit:4;stroke-dasharray:none;stroke-dashoffset:0;stroke-opacity:1;marker:none;enable-background:accumulate" />
  </g>
</svg>
