<?xml version="1.0" encoding="UTF-8" standalone="no"?>
<svg
   width="24"
   height="24"
   id="svg2"
   version="1.0"
   xmlns:xlink="http://www.w3.org/1999/xlink"
   xmlns="http://www.w3.org/2000/svg"
   xmlns:svg="http://www.w3.org/2000/svg"
   xmlns:rdf="http://www.w3.org/1999/02/22-rdf-syntax-ns#"
   xmlns:cc="http://creativecommons.org/ns#"
   xmlns:dc="http://purl.org/dc/elements/1.1/">
  <defs
     id="defs4">
    <linearGradient
       id="linearGradient6222">
      <stop
         id="stop6224"
         offset="0"
         style="stop-color:#000000;stop-opacity:1;" />
      <stop
         id="stop6226"
         offset="1"
         style="stop-color:#000000;stop-opacity:0;" />
    </linearGradient>
    <linearGradient
       id="linearGradient2264">
      <stop
         id="stop3244-gr"
         style="stop-color:#cdf87e;stop-opacity:1"
         offset="0" />
      <stop
         id="stop3246-gr"
         style="stop-color:#a2e34f;stop-opacity:1"
         offset="0.26238" />
      <stop
         id="stop3248-gr"
         style="stop-color:#68b723;stop-opacity:1"
         offset="0.66093999" />
      <stop
         id="stop3250-gr"
         style="stop-color:#1d7e0d;stop-opacity:1"
         offset="1" />
    </linearGradient>
    <linearGradient
       id="linearGradient3977">
      <stop
         id="stop3979"
         style="stop-color:#ffffff;stop-opacity:1"
         offset="0" />
      <stop
         id="stop3981"
         style="stop-color:#ffffff;stop-opacity:0.23529412"
         offset="0" />
      <stop
         id="stop3983"
         style="stop-color:#ffffff;stop-opacity:0.15686275"
         offset="1" />
      <stop
         id="stop3985"
         style="stop-color:#ffffff;stop-opacity:0.39215687"
         offset="1" />
    </linearGradient>
    <radialGradient
       cx="5"
       cy="41.5"
       fx="5"
       fy="41.5"
       gradientTransform="matrix(0.27196938,0,0,0.6,-5.2159268,-73.9)"
       gradientUnits="userSpaceOnUse"
       xlink:href="#linearGradient6222"
       id="i-6-9-7-8-9"
       r="5" />
    <linearGradient
       xlink:href="#h"
       id="linearGradient121754"
       gradientUnits="userSpaceOnUse"
       gradientTransform="matrix(0.5777446,0,0,0.54545625,-3.0769464,26.90875)"
       x1="17.554001"
       y1="46"
       x2="17.554001"
       y2="35" />
    <linearGradient
       id="h">
      <stop
         offset="0"
         stop-opacity="0"
         id="stop54" />
      <stop
         offset=".5"
         id="stop56" />
      <stop
         offset="1"
         stop-opacity="0"
         id="stop58" />
    </linearGradient>
    <radialGradient
       cx="5"
       cy="41.5"
       fx="5"
       fy="41.5"
       gradientTransform="matrix(0.27196938,0,0,0.6,15.78458,-73.9)"
       gradientUnits="userSpaceOnUse"
       xlink:href="#linearGradient6222"
       id="k-0-7-3-9-3"
       r="5" />
    <linearGradient
       xlink:href="#linearGradient106305"
       id="linearGradient1703"
       gradientUnits="userSpaceOnUse"
       gradientTransform="matrix(0.40654575,0,0,0.43692415,21.600114,3.360609)"
       x1="-5.8870335"
       y1="11.482978"
       x2="-5.8870335"
       y2="22.148865" />
    <linearGradient
       id="linearGradient106305">
      <stop
         offset="0"
         stop-color="#dac197"
         id="stop106301"
         style="stop-color:#e7c591;stop-opacity:1" />
      <stop
         offset="1"
         stop-color="#b19974"
         id="stop106303"
         style="stop-color:#cfa25e;stop-opacity:1" />
    </linearGradient>
    <linearGradient
       xlink:href="#linearGradient106305"
       id="linearGradient121756"
       gradientUnits="userSpaceOnUse"
       gradientTransform="matrix(0.40654575,0,0,0.42658187,21.595313,3.813626)"
       x1="-5.8870335"
       y1="19.190628"
       x2="-5.8870335"
       y2="42.632786" />
    <linearGradient
       xlink:href="#linearGradient3977"
       id="linearGradient121760"
       gradientUnits="userSpaceOnUse"
       gradientTransform="matrix(0.29729766,0,0,0.24324357,8.8648551,11.162154)"
       x1="23.99999"
       y1="7.5555792"
       x2="23.99999"
       y2="40.444424" />
    <linearGradient
       xlink:href="#c"
       id="linearGradient121762"
       gradientUnits="userSpaceOnUse"
       gradientTransform="matrix(0.49691652,0,0,0.49380475,4.0800939,4.136325)"
       x1="24.537001"
       y1="21.915001"
       x2="24.537001"
       y2="7.9130001" />
    <linearGradient
       id="c">
      <stop
         offset="0"
         stop-color="#fff"
         id="stop36" />
      <stop
         offset="0.28147671"
         stop-color="#fff"
         id="stop38" />
      <stop
         offset="0.42782003"
         stop-color="#fff"
         stop-opacity=".643"
         id="stop40" />
      <stop
         offset="1"
         stop-color="#fff"
         stop-opacity=".391"
         id="stop42" />
    </linearGradient>
    <linearGradient
       id="linearGradient4346">
      <stop
         offset="0"
         style="stop-color:#ffffff;stop-opacity:1"
         id="stop4348" />
      <stop
         offset="1"
         style="stop-color:#d8d8d8;stop-opacity:1"
         id="stop4350" />
    </linearGradient>
    <linearGradient
       id="linearGradient3454-2-5-0-3-8">
      <stop
         offset="0"
         style="stop-color:#ffffff;stop-opacity:1"
         id="stop3456-4-9-38-1-9" />
      <stop
         offset="0.0097359"
         style="stop-color:#ffffff;stop-opacity:0.23529412"
         id="stop3458-39-80-3-5-6" />
      <stop
         offset="0.99001008"
         style="stop-color:#ffffff;stop-opacity:0.15686275"
         id="stop3460-7-0-2-4-4" />
      <stop
         offset="1"
         style="stop-color:#ffffff;stop-opacity:0.39215687"
         id="stop3462-0-9-8-7-8" />
    </linearGradient>
    <radialGradient
       cx="65.297462"
       cy="48.216358"
       r="31.000002"
       fx="65.297462"
       fy="48.216358"
       id="radialGradient3900-3"
       xlink:href="#linearGradient2264"
       gradientUnits="userSpaceOnUse"
       gradientTransform="matrix(0,0.52544994,-0.5716256,0,46.193389,-21.123812)" />
    <linearGradient
       x1="24.138529"
       y1="10.631441"
       x2="24.138529"
       y2="35.62291"
       id="linearGradient3030"
       xlink:href="#linearGradient4154-3"
       gradientUnits="userSpaceOnUse"
       gradientTransform="matrix(0.2817955,0,0,0.2800956,12.196562,12.014885)" />
    <linearGradient
       id="linearGradient4154-3">
      <stop
         id="stop4156-4"
         style="stop-color:#ffffff;stop-opacity:1"
         offset="0" />
      <stop
         id="stop4158-4"
         style="stop-color:#ffffff;stop-opacity:0.23529412"
         offset="0.00000002" />
      <stop
         id="stop4160-52"
         style="stop-color:#ffffff;stop-opacity:0.15686275"
         offset="1" />
      <stop
         id="stop4162-8"
         style="stop-color:#ffffff;stop-opacity:0.39215687"
         offset="1" />
    </linearGradient>
    <linearGradient
       x1="24.138529"
       y1="21.34207"
       x2="24.138529"
       y2="24.912279"
       id="linearGradient3030-1"
       xlink:href="#linearGradient4333"
       gradientUnits="userSpaceOnUse"
       gradientTransform="matrix(0.2817955,0,0,0.2800956,12.178741,12.02218)" />
    <linearGradient
       id="linearGradient4333">
      <stop
         offset="0"
         style="stop-color:#ffffff;stop-opacity:1"
         id="stop4335" />
      <stop
         offset="0.00000019"
         style="stop-color:#ffffff;stop-opacity:0.23529412"
         id="stop4337" />
      <stop
         offset="1"
         style="stop-color:#ffffff;stop-opacity:0.15686275"
         id="stop4339" />
      <stop
         offset="1"
         style="stop-color:#ffffff;stop-opacity:0.39215687"
         id="stop4341" />
    </linearGradient>
    <linearGradient
       xlink:href="#linearGradient4346"
       id="linearGradient8858-5"
       gradientUnits="userSpaceOnUse"
       gradientTransform="matrix(0.33333327,0,0,0.32971018,-17.44063,-0.64784268)"
       x1="62.988873"
       y1="11.645091"
       x2="62.988873"
       y2="15.385052" />
    <linearGradient
       y2="2.0612748"
       x2="-51.786404"
       y1="53.514328"
       x1="-51.786404"
       gradientTransform="matrix(0.31070043,0,0,0.27489387,20.17717,-0.10316268)"
       gradientUnits="userSpaceOnUse"
       id="linearGradient3018"
       xlink:href="#linearGradient3104-8-8-97-4-6-11-5-5-4-4" />
    <linearGradient
       id="linearGradient3104-8-8-97-4-6-11-5-5-4-4">
      <stop
         id="stop3106-5-4-3-5-0-2-1-0-7-7"
         style="stop-color:#000000;stop-opacity:0.32173914"
         offset="0" />
      <stop
         id="stop3108-4-3-7-8-2-0-7-9-0-6"
         style="stop-color:#000000;stop-opacity:0.27826086"
         offset="1" />
    </linearGradient>
    <linearGradient
       y2="42.923553"
       x2="84.30883"
       y1="16.110577"
       x1="84.30883"
       gradientTransform="matrix(0.33333327,0,0,0.34148555,-17.08621,-0.60407268)"
       gradientUnits="userSpaceOnUse"
       id="linearGradient10262-3"
       xlink:href="#linearGradient4632-0-6-4-4" />
    <linearGradient
       id="linearGradient4632-0-6-4-4">
      <stop
         id="stop4634-4-4-7-5"
         offset="0"
         style="stop-color:#b4cee1;stop-opacity:1;" />
      <stop
         id="stop4636-3-1-5-4"
         offset="1"
         style="stop-color:#5d9fcd;stop-opacity:1;" />
    </linearGradient>
    <linearGradient
       y2="35.430561"
       x2="76.041"
       y1="49.372032"
       x1="76.041"
       gradientTransform="matrix(0.38156409,0,0,0.32896952,-18.24159,0.28216731)"
       gradientUnits="userSpaceOnUse"
       id="linearGradient10268-4"
       xlink:href="#linearGradient6129-963-697-142-998-580-273-44-2-2-2" />
    <linearGradient
       id="linearGradient6129-963-697-142-998-580-273-44-2-2-2">
      <stop
         offset="0"
         style="stop-color:#0a0a0a;stop-opacity:0.498"
         id="stop2661-01-6-2-4" />
      <stop
         offset="1"
         style="stop-color:#0a0a0a;stop-opacity:0"
         id="stop2663-64-5-5-3" />
    </linearGradient>
    <linearGradient
       y2="8.1721792"
       x2="11.350123"
       y1="0.66696572"
       x1="11.350123"
       gradientTransform="matrix(0.89189031,0,0,0.94046961,3.14398,5.346537)"
       gradientUnits="userSpaceOnUse"
       id="linearGradient10270-0-7"
       xlink:href="#linearGradient3454-2-5-0-3-8" />
  </defs>
  <metadata
     id="metadata7">
    <rdf:RDF>
      <cc:Work
         rdf:about="">
        <dc:format>image/svg+xml</dc:format>
        <dc:type
           rdf:resource="http://purl.org/dc/dcmitype/StillImage" />
      </cc:Work>
    </rdf:RDF>
  </metadata>
  <g
     id="layer1"
     transform="matrix(0.9297781,0,0,0.9297781,1.0962181,0.1973469)"
     style="display:inline">
    <path
       id="rect4170-0-9"
       d="m 2.02332,1.976667 v 1 h -1 v 4 h 14 v -4 h -7 v -1 z"
       style="color:#000000;display:inline;overflow:visible;visibility:visible;fill:url(#linearGradient8858-5);fill-opacity:1;fill-rule:nonzero;stroke:none;stroke-width:0.999922;marker:none;enable-background:accumulate" />
    <path
       id="rect4170-6"
       d="m 1.78125,1 c -0.4068514,0 -0.75,0.3431486 -0.75,0.75 v 0.21875 h -0.25 c -0.40685138,0 -0.75,0.3431486 -0.75,0.75 V 4 h 1 V 2.96875 h 0.5 0.5 v -0.5 V 2 h 6 v 0.46875 0.5 h 0.5 6.5 V 4 h 1 V 2.71875 c 0,-0.4068514 -0.343149,-0.75 -0.75,-0.75 h -6.25 V 1.75 C 9.03125,1.3431486 8.6881014,1 8.28125,1 Z"
       style="color:#000000;font-style:normal;font-variant:normal;font-weight:normal;font-stretch:normal;font-size:medium;line-height:normal;font-family:Sans;-inkscape-font-specification:Sans;text-indent:0;text-align:start;text-decoration:none;text-decoration-line:none;letter-spacing:normal;word-spacing:normal;text-transform:none;writing-mode:lr-tb;direction:ltr;baseline-shift:baseline;text-anchor:start;display:inline;overflow:visible;visibility:visible;opacity:0.8;fill:url(#linearGradient3018);fill-opacity:1;stroke:none;stroke-width:1;marker:none;enable-background:accumulate" />
    <path
       style="color:#000000;display:inline;overflow:visible;visibility:visible;fill:url(#linearGradient10262-3);fill-opacity:1;fill-rule:nonzero;stroke:none;stroke-width:1;marker:none;enable-background:accumulate"
       id="rect3086-3"
       d="m 0.55988,4.453367 c 0.75732,0 14.39951,0.0316 14.98675,0.0316 0,0.6186 -0.0285,10.00962 -0.0624,10.00962 -5.26001,0.0178 -13.45265,-0.014 -14.98423,-0.014 0,-1.16748 0.0599,-7.62459 0.0599,-10.02721 z" />
    <path
       style="color:#000000;display:inline;overflow:visible;visibility:visible;opacity:0.4;fill:url(#linearGradient10268-4);fill-opacity:1;fill-rule:nonzero;stroke:none;stroke-width:1;marker:none;enable-background:accumulate"
       id="rect3086-1"
       d="m 0.08698,3.976647 c 0.8053,0 15.31189,0.0341 15.93634,0.0341 0,0.67729 -0.0303,10.95971 -0.0663,10.95971 -5.5933,0.02 -14.30504,-0.0148 -15.93366,-0.0148 0,-1.2783 0.0636,-8.34831 0.0636,-10.97898 z" />
    <path
       style="color:#000000;display:inline;overflow:visible;visibility:visible;opacity:0.5;fill:none;stroke:url(#linearGradient10270-0-7);stroke-width:1;stroke-linecap:round;stroke-linejoin:miter;stroke-miterlimit:4;stroke-dasharray:none;stroke-dashoffset:0;stroke-opacity:1;marker:none;enable-background:accumulate"
       id="rect3086-9-9"
       d="m 1.57504,5.476667 c 0.65431,0 12.44092,0.0251 12.94828,0.0251 0,0.49259 -0.0246,7.97055 -0.0539,7.97055 -4.54455,0.0142 -11.62285,-0.0111 -12.9461,-0.0111 0,-0.92965 0.0517,-6.07138 0.0517,-7.98455 z" />
    <path
       id="rect3086-0-3"
       d="m 0.40625,3.96875 a 0.50005,0.50005 0 0 0 -0.34375,0.5 0.50005,0.50005 0 0 0 0,0.09375 C 0.0613979,7.0088498 0,13.295273 0,14.46875 a 0.50005,0.50005 0 0 0 0.5,0.5 c 1.5214827,0 9.703777,0.04882 14.96875,0.03125 0.01099,-3.7e-5 0.02028,3.7e-5 0.03125,0 0.0012,-7.95e-4 -0.0019,-0.03002 0,-0.03125 0.06056,-0.03863 0.437378,-0.249737 0.4375,-0.25 1.32e-4,-2.86e-4 0.02699,-0.106637 0.03125,-0.125 0.0085,-0.03673 -0.0014,-0.05081 0,-0.0625 C 15.97145,14.50787 15.99919,14.51368 16,14.5 c 0.0016,-0.02736 -0.0011,-0.05688 0,-0.09375 0.0022,-0.07374 -0.002,-0.182299 0,-0.3125 0.0041,-0.260402 -0.0037,-0.616858 0,-1.0625 0.0074,-0.891284 0.02557,-2.099644 0.03125,-3.3125 0.01137,-2.4257122 0,-4.9017714 0,-5.21875 a 0.50005,0.50005 0 0 0 -0.5,-0.5 C 14.961947,4 1.3337287,3.96875 0.5625,3.96875 a 0.50005,0.50005 0 0 0 -0.15625,0 z m 0.65625,1 C 2.5331431,4.97065 13.680989,4.998096 15.03125,5 c -0.0012,0.6360494 0.01027,2.5265847 0,4.71875 C 15.02557,10.930974 15.007429,12.111137 15,13 c -0.0034,0.406338 0.0036,0.748851 0,1 -5.0789999,0.01381 -12.1556038,-0.02935 -14,-0.03125 0.00512,-1.492643 0.057379,-6.4863005 0.0625,-9 z"
       style="color:#000000;font-style:normal;font-variant:normal;font-weight:normal;font-stretch:normal;font-size:medium;line-height:normal;font-family:Sans;-inkscape-font-specification:Sans;text-indent:0;text-align:start;text-decoration:none;text-decoration-line:none;letter-spacing:normal;word-spacing:normal;text-transform:none;writing-mode:lr-tb;direction:ltr;baseline-shift:baseline;text-anchor:start;display:inline;overflow:visible;visibility:visible;opacity:0.3;fill:#000000;fill-opacity:1;stroke:none;stroke-width:1;marker:none;enable-background:accumulate" />
  </g>
  <g
     id="g2827"
     transform="translate(5.5,-28)">
    <rect
       fill="url(#i)"
       height="6"
       opacity="0.4"
       transform="scale(-1)"
       width="1.3559322"
       x="-3.8559322"
       y="-52"
       id="rect77-9-90-2-7-8"
       style="fill:url(#i-6-9-7-8-9);stroke-width:0.999999" />
    <rect
       fill="url(#j)"
       height="6"
       opacity="0.4"
       width="13.288136"
       x="3.8559322"
       y="46"
       id="rect79-7-2-0-1-4"
       style="fill:url(#linearGradient121754);stroke-width:0.999995" />
    <rect
       fill="url(#k)"
       height="6"
       opacity="0.4"
       transform="scale(1,-1)"
       width="1.3559322"
       x="17.144068"
       y="-52"
       id="rect81-3-8-6-7-8"
       style="fill:url(#k-0-7-3-9-3);stroke-width:0.999999" />
  </g>
  <path
     id="rect5505-21-1-5-0-6-5-1-2-5-10"
     style="color:#000000;font-variation-settings:normal;display:inline;overflow:visible;visibility:visible;vector-effect:none;fill:url(#linearGradient1703);fill-opacity:1;fill-rule:nonzero;stroke:none;stroke-width:0.999996;stroke-linecap:butt;stroke-linejoin:miter;stroke-miterlimit:4;stroke-dasharray:none;stroke-dashoffset:0;stroke-opacity:0.3;-inkscape-stroke:none;marker:none;enable-background:accumulate;stop-color:#000000"
     d="m 11.863636,9.499998 c -0.785673,0 -1.099092,0.463863 -1.418183,1.181821 -0.244584,0.548866 -0.5291592,1.116756 -0.7552554,1.65455 -0.1202477,0.208506 -0.1901996,0.450154 -0.1901996,0.709093 h 13.00001 c 0,-0.258939 -0.06996,-0.500587 -0.190201,-0.709093 -0.232224,-0.535071 -0.503833,-1.108761 -0.755255,-1.65455 -0.328759,-0.713584 -0.63251,-1.181821 -1.418183,-1.181821 z" />
  <path
     id="rect5505-21-1-5-0-6-5-1-2-3"
     style="color:#000000;font-variation-settings:normal;display:inline;overflow:visible;visibility:visible;vector-effect:none;fill:url(#linearGradient121756);fill-opacity:1;fill-rule:nonzero;stroke:none;stroke-width:1;stroke-linecap:butt;stroke-linejoin:miter;stroke-miterlimit:4;stroke-dasharray:none;stroke-dashoffset:0;stroke-opacity:0.3;-inkscape-stroke:none;marker:none;enable-background:accumulate;stop-color:#000000"
     d="M 10.918183,12 C 10.327273,12 9.5,12.502856 9.5,13.73077 v 7.384621 c 0,0.05816 0.00484,0.115092 0.012008,0.171272 0.00166,0.01302 0.004,0.02585 0.006,0.03876 0.00714,0.04538 0.016168,0.0901 0.027699,0.133865 0.00296,0.01131 0.00555,0.02262 0.00877,0.0338 0.032375,0.111086 0.077924,0.216752 0.1357249,0.314605 1.702e-4,3e-4 2.363e-4,5.99e-4 4.727e-4,8.99e-4 C 9.9353915,22.222215 10.391815,22.5 10.91818,22.5 h 10.163646 c 0.526366,0 0.98279,-0.277785 1.227523,-0.691406 1.32e-4,-3e-4 2.36e-4,-6e-4 4.73e-4,-9e-4 0.0578,-0.09785 0.103349,-0.203519 0.135724,-0.314605 0.0032,-0.01118 0.0058,-0.02249 0.0088,-0.0338 0.01154,-0.04378 0.02057,-0.08848 0.0277,-0.133865 0.0019,-0.01292 0.0044,-0.02573 0.006,-0.03876 0.0072,-0.05619 0.01199,-0.11312 0.01199,-0.171274 V 13.846155 C 22.500036,12.98177 22.14549,12 21.081853,12 Z" />
  <rect
     style="opacity:0.3;fill:none;stroke:url(#linearGradient121760);stroke-width:0.999986;stroke-linecap:round;stroke-linejoin:round;stroke-miterlimit:4;stroke-dasharray:none;stroke-dashoffset:0;stroke-opacity:1"
     id="rect6741-5-0-2-3-4-2-4"
     y="12.499992"
     x="10.499992"
     ry="0.49882391"
     height="9.0000143"
     width="11.000014"
     rx="0.49882391" />
  <path
     d="m 15,9 h 2 v 6 C 16.804546,15 16.608761,14.619406 16.412976,14.619406 16.212884,14.619406 16.012461,15 15.812038,15 15.651037,15 15.489705,14.666708 15.328371,14.666708 15.22303,14.666708 15.117679,15 15.012334,15 Z"
     fill="url(#n)"
     opacity="0.3"
     overflow="visible"
     style="fill:url(#linearGradient121762);stroke-width:0.999996;marker:none"
     id="path87-0-9-7-6-4" />
  <path
     id="rect5505-21-1-5-0-6-5-1-2-5-1-4"
     style="color:#000000;font-variation-settings:normal;display:inline;overflow:visible;visibility:visible;vector-effect:none;fill:none;fill-opacity:1;fill-rule:nonzero;stroke:#804b00;stroke-width:0.999996;stroke-linecap:butt;stroke-linejoin:miter;stroke-miterlimit:4;stroke-dasharray:none;stroke-dashoffset:0;stroke-opacity:0.5;-inkscape-stroke:none;marker:none;enable-background:accumulate;stop-color:#000000"
     d="m 11.863636,9.499998 c -0.785673,0 -1.099092,0.463863 -1.418183,1.181821 -0.244584,0.548866 -0.5291592,1.116756 -0.7552554,1.65455 -0.1202477,0.208506 -0.1901996,0.450154 -0.1901996,0.709093 v 8.036385 c 0,0.785674 0.63251,1.418184 1.418183,1.418184 h 10.163644 c 0.785673,0 1.418183,-0.63251 1.418183,-1.418184 v -8.036385 c 0,-0.258939 -0.06996,-0.500587 -0.190201,-0.709093 -0.232224,-0.535071 -0.503833,-1.108761 -0.755255,-1.65455 -0.328759,-0.713584 -0.63251,-1.181821 -1.418183,-1.181821 z" />
  <g
     id="g4474"
     transform="translate(-11.982179,-1.007295)">
    <path
       style="color:#000000;display:inline;overflow:visible;visibility:visible;fill:url(#radialGradient3900-3);fill-opacity:1;fill-rule:nonzero;stroke:none;stroke-width:0.985427;marker:none;enable-background:accumulate"
       id="path2262"
       d="m 16.482179,16.507295 v -3 h 4 v 3 h 3 v 4 h -3 v 2.999991 h -4 v -2.999991 h -3 v -4 z" />
    <path
       style="display:inline;opacity:0.5;fill:none;stroke:url(#linearGradient3030);stroke-width:1;stroke-linecap:butt;stroke-linejoin:miter;stroke-miterlimit:4;stroke-dasharray:none;stroke-opacity:1"
       id="path2272"
       d="m 17.482179,18.007286 v -3.5 h 2 v 3.5 m 0,1 v 3.5 h -2 v -3.5" />
    <path
       style="color:#000000;clip-rule:nonzero;display:inline;overflow:visible;visibility:visible;opacity:0.5;isolation:auto;mix-blend-mode:normal;color-interpolation:sRGB;color-interpolation-filters:linearRGB;solid-color:#000000;solid-opacity:1;fill:none;fill-opacity:1;fill-rule:nonzero;stroke:#0f5a00;stroke-width:1;stroke-linecap:round;stroke-linejoin:round;stroke-miterlimit:4;stroke-dasharray:none;stroke-dashoffset:0;stroke-opacity:1;marker:none;color-rendering:auto;image-rendering:auto;shape-rendering:auto;text-rendering:auto;enable-background:accumulate"
       id="path2262-2"
       d="m 16.482179,16.507295 v -3 h 4 v 3 h 3 v 4 h -3 v 2.999991 h -4 v -2.999991 h -3 v -4 z" />
    <path
       style="display:inline;opacity:0.5;fill:none;stroke:url(#linearGradient3030-1);stroke-width:1;stroke-linecap:butt;stroke-linejoin:miter;stroke-miterlimit:4;stroke-dasharray:none;stroke-opacity:1"
       id="path2272-2"
       d="m 19.982179,17.507295 2.5,-9e-6 v 2 l -2.5,9e-6 m -3,0 -2.5,-9e-6 v -2 l 2.5,9e-6" />
  </g>
</svg>
