<?xml version="1.0" encoding="UTF-8" standalone="no"?>
<svg
   height="24"
   width="24"
   version="1.1"
   id="svg1"
   xmlns="http://www.w3.org/2000/svg"
   xmlns:svg="http://www.w3.org/2000/svg">
  <defs
     id="defs1" />
  <g
     transform="translate(-353,295)"
     id="g1">
    <path
       color="#bebebe"
       d="m 373,-293 c 0,0 2,0 2,2 v 16 c 0,2 -2,2 -2,2 h -16 c 0,0 -2,0 -2,-2 v -4.748 l 2,1.498 v 2.25 c 0,1 1,1 1,1 h 14 c 0,0 1,0 1,-1 v -14 c 0,-1 -1,-1 -1,-1 h -14 c -1,0 -1,1 -1,1 v 2.248 l -2,1.5 V -291 c 0,-2 2,-2 2,-2 z m -12.472,5 a 0.5,0.5 0 0 1 0.472,0.5 v 2.5 h 5 c 0,0 0.229,-0.007 0.473,0.115 0.244,0.122 0.527,0.468 0.527,0.885 v 2 c 0,0 0.007,0.228 -0.115,0.473 A 1.04,1.04 0 0 1 366,-281 h -5 v 2 c 0,0.165 0.014,0.326 -0.14,0.543 a 0.658,0.658 0 0 1 -0.368,0.242 0.655,0.655 0 0 1 -0.34,-0.02 c -0.344,-0.104 -0.513,-0.286 -0.833,-0.527 l -5.12,-3.838 a 0.5,0.5 0 0 1 0,-0.8 l 6,-4.5 a 0.5,0.5 0 0 1 0.329,-0.1 z"
       fill="#666666"
       overflow="visible"
       style="marker:none"
       id="path1" />
  </g>
</svg>
