<?xml version="1.0" encoding="UTF-8" standalone="no"?>
<svg
   width="24"
   height="24"
   id="svg2"
   version="1.0"
   xmlns:xlink="http://www.w3.org/1999/xlink"
   xmlns="http://www.w3.org/2000/svg"
   xmlns:svg="http://www.w3.org/2000/svg"
   xmlns:rdf="http://www.w3.org/1999/02/22-rdf-syntax-ns#"
   xmlns:cc="http://creativecommons.org/ns#"
   xmlns:dc="http://purl.org/dc/elements/1.1/">
  <defs
     id="defs4">
    <linearGradient
       y2="2.0612748"
       x2="-51.786404"
       y1="53.514328"
       x1="-51.786404"
       gradientTransform="matrix(0.31070043,0,0,0.27489387,20.17717,-0.10316268)"
       gradientUnits="userSpaceOnUse"
       id="linearGradient3018"
       xlink:href="#linearGradient3104-8-8-97-4-6-11-5-5-4-4" />
    <linearGradient
       xlink:href="#linearGradient4346"
       id="linearGradient8858"
       gradientUnits="userSpaceOnUse"
       gradientTransform="matrix(0.33333327,0,0,0.32971018,-17.44063,-0.64784268)"
       x1="62.988873"
       y1="11.645091"
       x2="62.988873"
       y2="15.385052" />
    <linearGradient
       id="linearGradient4346">
      <stop
         offset="0"
         style="stop-color:#ffffff;stop-opacity:1"
         id="stop4348" />
      <stop
         offset="1"
         style="stop-color:#d8d8d8;stop-opacity:1"
         id="stop4350" />
    </linearGradient>
    <linearGradient
       id="linearGradient3104-8-8-97-4-6-11-5-5-4-4">
      <stop
         id="stop3106-5-4-3-5-0-2-1-0-7-7"
         style="stop-color:#000000;stop-opacity:0.32173914"
         offset="0" />
      <stop
         id="stop3108-4-3-7-8-2-0-7-9-0-6"
         style="stop-color:#000000;stop-opacity:0.27826086"
         offset="1" />
    </linearGradient>
    <linearGradient
       id="linearGradient4632-0-6-4-4">
      <stop
         id="stop4634-4-4-7-5"
         offset="0"
         style="stop-color:#b4cee1;stop-opacity:1;" />
      <stop
         id="stop4636-3-1-5-4"
         offset="1"
         style="stop-color:#5d9fcd;stop-opacity:1;" />
    </linearGradient>
    <linearGradient
       id="linearGradient6129-963-697-142-998-580-273-44-2-2-2">
      <stop
         offset="0"
         style="stop-color:#0a0a0a;stop-opacity:0.498"
         id="stop2661-01-6-2-4" />
      <stop
         offset="1"
         style="stop-color:#0a0a0a;stop-opacity:0"
         id="stop2663-64-5-5-3" />
    </linearGradient>
    <linearGradient
       id="linearGradient3454-2-5-0-3-8">
      <stop
         id="stop3456-4-9-38-1-9"
         style="stop-color:#ffffff;stop-opacity:1"
         offset="0" />
      <stop
         id="stop3458-39-80-3-5-6"
         style="stop-color:#ffffff;stop-opacity:0.23529412"
         offset="0.0097359" />
      <stop
         id="stop3460-7-0-2-4-4"
         style="stop-color:#ffffff;stop-opacity:0.15686275"
         offset="0.99001008" />
      <stop
         id="stop3462-0-9-8-7-8"
         style="stop-color:#ffffff;stop-opacity:0.39215687"
         offset="1" />
    </linearGradient>
    <linearGradient
       xlink:href="#linearGradient4632-0-6-4-4"
       id="linearGradient10262-3-3"
       gradientUnits="userSpaceOnUse"
       gradientTransform="matrix(0.33320858,0,0,0.34136345,-17.075171,-0.6022476)"
       x1="84.30883"
       y1="16.110577"
       x2="84.30883"
       y2="42.923553" />
    <linearGradient
       xlink:href="#linearGradient6129-963-697-142-998-580-273-44-2-2-2"
       id="linearGradient10268-4-2"
       gradientUnits="userSpaceOnUse"
       gradientTransform="matrix(0.38156409,0,0,0.32896952,-18.26495,0.30552031)"
       x1="76.041"
       y1="49.372032"
       x2="76.041"
       y2="35.430561" />
    <linearGradient
       xlink:href="#linearGradient3454-2-5-0-3-8"
       id="linearGradient10270-0-2"
       gradientUnits="userSpaceOnUse"
       gradientTransform="matrix(0.89189031,0,0,0.94046961,3.12066,5.36987)"
       x1="11.667268"
       y1="0.66284746"
       x2="11.617917"
       y2="9.1802835" />
  </defs>
  <metadata
     id="metadata7">
    <rdf:RDF>
      <cc:Work
         rdf:about="">
        <dc:format>image/svg+xml</dc:format>
        <dc:type
           rdf:resource="http://purl.org/dc/dcmitype/StillImage" />
        <dc:title />
      </cc:Work>
    </rdf:RDF>
  </metadata>
  <path
     id="path3841"
     d="M 2.1328043,4.14434 C 1.9522649,4.3616196 2.0081808,4.6758327 2.0081808,5.0072918 v 2 c 0,0.554 0.223,1 0.5,1 0.277,0 0.5,-0.446 0.5,-1 v -2 h 1.25 c 0.4155,0 0.75,-0.223 0.75,-0.5 0,-0.277 -0.3345,-0.5 -0.75,-0.5 h -1.5 C 2.5604878,4.0245212 2.3133438,3.9270604 2.1328043,4.14434 Z M 7.7581808,4.0072918 c -0.4155,0 -0.75,0.223 -0.75,0.5 0,0.277 0.3345,0.5 0.75,0.5 h 1.5 c 0.4155,0 0.7500002,-0.223 0.7500002,-0.5 0,-0.277 -0.3345002,-0.5 -0.7500002,-0.5 z m 5.0000002,0 c -0.4155,0 -0.75,0.223 -0.75,0.5 0,0.277 0.3345,0.5 0.75,0.5 h 1.5 c 0.4155,0 0.75,-0.223 0.75,-0.5 0,-0.277 -0.3345,-0.5 -0.75,-0.5 z m 4.75,0 c -0.277,0 -0.5,0.223 -0.5,0.5 0,0.277 0.223,0.5 0.5,0.5 h 0.5 v 1.25 c 0,0.4155 0.223,0.75 0.5,0.75 0.277,0 0.5,-0.3345 0.5,-0.75 -0.0033,-0.5741535 0,-1.2026168 0,-1.75 0,-0.277 -0.223,-0.5 -0.5,-0.5 z m 1,5 c -0.277,0 -0.5,1.0000002 -0.5,1.0000002 h 1 c 0,0 -0.223,-1.0000002 -0.5,-1.0000002 z M 2.5081808,10.007292 c -0.277,0 -0.5,0.3345 -0.5,0.75 v 1.5 c 0,0.4155 0.223,0.75 0.5,0.75 0.277,0 0.5,-0.3345 0.5,-0.75 v -1.5 c 0,-0.4155 -0.223,-0.75 -0.5,-0.75 z m 16.0000002,4 c -0.277,0 -0.5,0.446 -0.5,1 v 2 h -1.25 c -0.4155,0 -0.75,0.223 -0.75,0.5 0,0.277 0.3345,0.5 0.75,0.5 h 1.5 c 0.08107,0 0.145728,-0.01553 0.21875,-0.03125 0.01356,0.0022 0.0174,0.03125 0.03125,0.03125 0.06925,0 0.127641,-0.04328 0.1875,-0.09375 0.186084,-0.09082 0.3125,-0.24005 0.3125,-0.40625 0,-0.04501 -0.01467,-0.08357 -0.03125,-0.125 0.02523,-0.119719 0.03125,-0.2365 0.03125,-0.375 v -2 c 0,-0.554 -0.223,-1 -0.5,-1 z m -16.0000002,1 c -0.277,0 -0.5,0.3345 -0.5,0.75 0.00331,0.574154 0,1.202617 0,1.75 0,0.277 0.223,0.5 0.5,0.5 h 1 c 0.277,0 0.5,-0.223 0.5,-0.5 0,-0.277 -0.223,-0.5 -0.5,-0.5 h -0.5 v -1.25 c 0,-0.4155 -0.223,-0.75 -0.5,-0.75 z m 5.25,2 c -0.4155,0 -0.75,0.223 -0.75,0.5 0,0.277 0.3345,0.5 0.75,0.5 h 0.5 c 0.4155,0 0.75,-0.223 0.75,-0.5 0,-0.277 -0.3345,-0.5 -0.75,-0.5 z m 4.0000002,0 c -0.4155,0 -0.75,0.223 -0.75,0.5 0,0.277 0.3345,0.5 0.75,0.5 h 1.5 c 0.4155,0 0.75,-0.223 0.75,-0.5 0,-0.277 -0.3345,-0.5 -0.75,-0.5 z"
     style="opacity:0.3;fill:#ffffff;fill-opacity:1;stroke:none" />
  <path
     style="opacity:0.5;fill:#000000;fill-opacity:1;stroke:none"
     d="M 2.1328043,3.14434 C 1.9522649,3.3616196 2.0081808,3.6758327 2.0081808,4.0072918 v 2 c 0,0.554 0.223,1 0.5,1 0.277,0 0.5,-0.446 0.5,-1 v -2 h 1.25 c 0.4155,0 0.75,-0.223 0.75,-0.5 0,-0.277 -0.3345,-0.5 -0.75,-0.5 h -1.5 C 2.5604878,3.0245212 2.3133438,2.9270604 2.1328043,3.14434 Z M 7.7581808,3.0072918 c -0.4155,0 -0.75,0.223 -0.75,0.5 0,0.277 0.3345,0.5 0.75,0.5 h 1.5 c 0.4155,0 0.7500002,-0.223 0.7500002,-0.5 0,-0.277 -0.3345002,-0.5 -0.7500002,-0.5 z m 5.0000002,0 c -0.4155,0 -0.75,0.223 -0.75,0.5 0,0.277 0.3345,0.5 0.75,0.5 h 1.5 c 0.4155,0 0.75,-0.223 0.75,-0.5 0,-0.277 -0.3345,-0.5 -0.75,-0.5 z m 4.75,0 c -0.277,0 -0.5,0.223 -0.5,0.5 0,0.277 0.223,0.5 0.5,0.5 h 0.5 v 1.25 c 0,0.4155 0.223,0.75 0.5,0.75 0.277,0 0.5,-0.3345 0.5,-0.75 -0.0033,-0.5741535 0,-1.2026168 0,-1.75 0,-0.277 -0.223,-0.5 -0.5,-0.5 z m 1,5 c -0.277,0 -0.5,1 -0.5,1 h 1 c 0,0 -0.223,-1 -0.5,-1 z m -16.0000002,1 c -0.277,0 -0.5,0.3345 -0.5,0.75 v 1.5000002 c 0,0.4155 0.223,0.75 0.5,0.75 0.277,0 0.5,-0.3345 0.5,-0.75 V 9.7572918 c 0,-0.4155 -0.223,-0.75 -0.5,-0.75 z M 18.508181,13.007292 c -0.277,0 -0.5,0.446 -0.5,1 v 2 h -1.25 c -0.4155,0 -0.75,0.223 -0.75,0.5 0,0.277 0.3345,0.5 0.75,0.5 h 1.5 c 0.08107,0 0.145728,-0.01553 0.21875,-0.03125 0.01356,0.0022 0.0174,0.03125 0.03125,0.03125 0.06925,0 0.127641,-0.04328 0.1875,-0.09375 0.186084,-0.09082 0.3125,-0.24005 0.3125,-0.40625 0,-0.04501 -0.01467,-0.08357 -0.03125,-0.125 0.02523,-0.119719 0.03125,-0.2365 0.03125,-0.375 v -2 c 0,-0.554 -0.223,-1 -0.5,-1 z m -16.0000002,1 c -0.277,0 -0.5,0.3345 -0.5,0.75 0.00331,0.574154 0,1.202617 0,1.75 0,0.277 0.223,0.5 0.5,0.5 h 1 c 0.277,0 0.5,-0.223 0.5,-0.5 0,-0.277 -0.223,-0.5 -0.5,-0.5 h -0.5 v -1.25 c 0,-0.4155 -0.223,-0.75 -0.5,-0.75 z m 5.25,2 c -0.4155,0 -0.75,0.223 -0.75,0.5 0,0.277 0.3345,0.5 0.75,0.5 h 0.5 c 0.4155,0 0.75,-0.223 0.75,-0.5 0,-0.277 -0.3345,-0.5 -0.75,-0.5 z m 4.0000002,0 c -0.4155,0 -0.75,0.223 -0.75,0.5 0,0.277 0.3345,0.5 0.75,0.5 h 1.5 c 0.4155,0 0.75,-0.223 0.75,-0.5 0,-0.277 -0.3345,-0.5 -0.75,-0.5 z"
     id="rect4043" />
  <g
     id="layer1"
     transform="translate(6,7)">
    <path
       style="color:#000000;display:inline;overflow:visible;visibility:visible;fill:url(#linearGradient8858);fill-opacity:1;fill-rule:nonzero;stroke:none;stroke-width:0.999922;marker:none;enable-background:accumulate"
       d="M 2,2 V 3 H 1 V 7 H 15 V 3 H 8 V 2 Z"
       id="rect4170-0" />
    <path
       style="color:#000000;font-style:normal;font-variant:normal;font-weight:normal;font-stretch:normal;font-size:medium;line-height:normal;font-family:Sans;-inkscape-font-specification:Sans;text-indent:0;text-align:start;text-decoration:none;text-decoration-line:none;letter-spacing:normal;word-spacing:normal;text-transform:none;writing-mode:lr-tb;direction:ltr;baseline-shift:baseline;text-anchor:start;display:inline;overflow:visible;visibility:visible;opacity:0.8;fill:url(#linearGradient3018);fill-opacity:1;stroke:none;stroke-width:1;marker:none;enable-background:accumulate"
       d="M 1.78125,1 C 1.3743986,1 1,1.3431486 1,1.75 V 2 H 0.78174579 C 0.37489441,2 0,2.3142812 0,2.7211326 V 4 H 1 V 3 H 2 V 2 h 6 v 1 h 7 v 1 h 1 V 2.71875 C 16,2.3118986 15.649118,2 15.242267,2 H 9 V 1.7454994 C 9,1.338648 8.6509312,1 8.2440798,1 Z"
       id="rect4170" />
    <path
       d="M 15.5,4.5 V 14.500011 L 0.5,14.5 V 4.500008 Z"
       id="rect3086"
       style="color:#000000;display:inline;overflow:visible;visibility:visible;fill:url(#linearGradient10262-3-3);fill-opacity:1;fill-rule:nonzero;stroke:none;stroke-width:1;marker:none;enable-background:accumulate" />
    <path
       d="M 0,4 H 16 V 15 H 0 Z"
       id="rect3086-1"
       style="color:#000000;display:inline;overflow:visible;visibility:visible;opacity:0.4;fill:url(#linearGradient10268-4-2);fill-opacity:1;fill-rule:nonzero;stroke:none;stroke-width:1;marker:none;enable-background:accumulate" />
    <path
       d="m 1.5,5.5 h 13 l -5.2e-5,8 H 1.5 Z"
       id="rect3086-9"
       style="color:#000000;display:inline;overflow:visible;visibility:visible;opacity:0.5;fill:none;stroke:url(#linearGradient10270-0-2);stroke-width:1;stroke-linecap:round;stroke-linejoin:miter;stroke-miterlimit:4;stroke-dasharray:none;stroke-dashoffset:0;stroke-opacity:1;marker:none;enable-background:accumulate" />
    <path
       style="color:#000000;font-style:normal;font-variant:normal;font-weight:normal;font-stretch:normal;font-size:medium;line-height:normal;font-family:Sans;-inkscape-font-specification:Sans;text-indent:0;text-align:start;text-decoration:none;text-decoration-line:none;letter-spacing:normal;word-spacing:normal;text-transform:none;writing-mode:lr-tb;direction:ltr;baseline-shift:baseline;text-anchor:start;display:inline;overflow:visible;visibility:visible;opacity:0.3;fill:#000000;fill-opacity:1;stroke:none;stroke-width:1;marker:none;enable-background:accumulate"
       d="m 0,4 v 10.5 c 2.7608953e-5,0.276131 0.22386906,0.499972 0.5,0.5 h 15 c 0.29621,0.0061 0.498325,-0.21597 0.5,-0.5 V 4 Z m 1,1 h 14 v 9 H 1 Z"
       id="rect3086-0" />
  </g>
</svg>
