<?xml version="1.0" encoding="UTF-8" standalone="no"?>
<svg
   width="24"
   height="24"
   id="svg3946"
   version="1.1"
   xmlns:xlink="http://www.w3.org/1999/xlink"
   xmlns="http://www.w3.org/2000/svg"
   xmlns:svg="http://www.w3.org/2000/svg"
   xmlns:rdf="http://www.w3.org/1999/02/22-rdf-syntax-ns#"
   xmlns:cc="http://creativecommons.org/ns#"
   xmlns:dc="http://purl.org/dc/elements/1.1/">
  <defs
     id="defs3948">
    <linearGradient
       id="linearGradient4661">
      <stop
         style="stop-color:#000000;stop-opacity:1;"
         offset="0"
         id="stop4663" />
      <stop
         style="stop-color:#000000;stop-opacity:0;"
         offset="1"
         id="stop4665" />
    </linearGradient>
    <linearGradient
       id="linearGradient4011">
      <stop
         offset="0"
         style="stop-color:#ffffff;stop-opacity:1;"
         id="stop4013" />
      <stop
         id="stop4015"
         style="stop-color:#ffffff;stop-opacity:0.23529412;"
         offset="0.507761" />
      <stop
         offset="0.83456558"
         style="stop-color:#ffffff;stop-opacity:0.15686275;"
         id="stop4017" />
      <stop
         offset="1"
         style="stop-color:#ffffff;stop-opacity:0.39215687;"
         id="stop4019" />
    </linearGradient>
    <linearGradient
       id="linearGradient3707-319-631-407-324-3-8">
      <stop
         offset="0"
         style="stop-color:#185f9a;stop-opacity:1;"
         id="stop3760-7-3" />
      <stop
         offset="1"
         style="stop-color:#599ec9;stop-opacity:1;"
         id="stop3762-8-4" />
    </linearGradient>
    <linearGradient
       id="linearGradient2867-449-88-871-390-598-476-591-434-148-57-177-3-8">
      <stop
         offset="0"
         style="stop-color:#90dbec;stop-opacity:1;"
         id="stop3750-8-9" />
      <stop
         offset="0.26238"
         style="stop-color:#42baea;stop-opacity:1;"
         id="stop3752-3-2" />
      <stop
         offset="0.704952"
         style="stop-color:#3689e6;stop-opacity:1;"
         id="stop3754-7-2" />
      <stop
         offset="1"
         style="stop-color:#2b63a0;stop-opacity:1;"
         id="stop3756-9-3" />
    </linearGradient>
    <linearGradient
       xlink:href="#linearGradient4661"
       id="linearGradient3080-9"
       gradientUnits="userSpaceOnUse"
       gradientTransform="matrix(0.39988408,0,0,0.41417811,2.44033,2.5018059)"
       x1="24.693371"
       y1="34.39452"
       x2="24.693371"
       y2="39.173557" />
    <linearGradient
       gradientTransform="matrix(1.0675429,0,0,1.0671662,-0.76964,-1.33583)"
       xlink:href="#linearGradient3707-319-631-407-324-3-8"
       id="linearGradient3887-0"
       x1="11.801105"
       y1="19.013813"
       x2="11.801105"
       y2="0.86377394"
       gradientUnits="userSpaceOnUse" />
    <linearGradient
       xlink:href="#linearGradient4011"
       id="linearGradient3096"
       gradientUnits="userSpaceOnUse"
       gradientTransform="matrix(0.57149306,0,0,0.57149114,-28.982146,-2.48829)"
       x1="71.204407"
       y1="6.2375584"
       x2="71.204407"
       y2="44.340794" />
    <radialGradient
       xlink:href="#linearGradient2867-449-88-871-390-598-476-591-434-148-57-177-3-8"
       id="radialGradient3099"
       gradientUnits="userSpaceOnUse"
       gradientTransform="matrix(0,1.2965271,-1.3715753,-3.5289472e-8,23.602616,-8.257447)"
       cx="5.0450659"
       cy="8.4497671"
       fx="5.0450659"
       fy="8.4497671"
       r="19.99999" />
    <linearGradient
       xlink:href="#linearGradient3707-319-631-407-324-3-8"
       id="linearGradient3101"
       gradientUnits="userSpaceOnUse"
       gradientTransform="matrix(0.55669661,0,0,0.55669489,-1.347656,-1.3575751)"
       x1="24"
       y1="44"
       x2="24"
       y2="3.8990016" />
    <radialGradient
       gradientTransform="matrix(0.11151981,0,0,0.03548359,0.942029,15.166729)"
       gradientUnits="userSpaceOnUse"
       xlink:href="#linearGradient3820-7-2-2"
       id="radialGradient3108"
       fy="186.17059"
       fx="99.157013"
       r="62.769119"
       cy="186.17059"
       cx="99.157013" />
    <linearGradient
       id="linearGradient3820-7-2-2">
      <stop
         id="stop3822-2-6-36"
         style="stop-color:#3d3d3d;stop-opacity:1"
         offset="0" />
      <stop
         id="stop3864-8-7-6"
         style="stop-color:#686868;stop-opacity:0.49803922"
         offset="0.5" />
      <stop
         id="stop3824-1-2-4"
         style="stop-color:#686868;stop-opacity:0"
         offset="1" />
    </linearGradient>
  </defs>
  <metadata
     id="metadata3951">
    <rdf:RDF>
      <cc:Work
         rdf:about="">
        <dc:format>image/svg+xml</dc:format>
        <dc:type
           rdf:resource="http://purl.org/dc/dcmitype/StillImage" />
        <dc:title />
      </cc:Work>
    </rdf:RDF>
  </metadata>
  <path
     style="display:inline;fill:url(#radialGradient3108);fill-opacity:1;stroke:none"
     id="path3818-0-2-5"
     d="m 19,21.772727 a 7,2.2272727 0 0 1 -14,0 7,2.2272727 0 1 1 14,0 z" />
  <path
     style="color:#000000;display:inline;overflow:visible;visibility:visible;fill:url(#radialGradient3099);fill-opacity:1;fill-rule:nonzero;stroke:url(#linearGradient3101);stroke-width:0.281937;stroke-linecap:round;stroke-linejoin:round;stroke-miterlimit:4;stroke-dasharray:none;stroke-dashoffset:0;stroke-opacity:1;marker:none;enable-background:accumulate"
     id="path2555-7"
     d="m 12.013063,1.1485591 c -5.989182,0 -10.854578,4.8653797 -10.854578,10.8545429 0,5.989162 4.865396,10.854544 10.854578,10.854542 5.989179,0 10.854582,-4.86538 10.854577,-10.854542 0,-5.9891632 -4.865398,-10.8545429 -10.854577,-10.8545429 z" />
  <path
     style="color:#000000;display:inline;overflow:visible;visibility:visible;opacity:0.5;fill:none;stroke:url(#linearGradient3096);stroke-width:0.281937;stroke-linecap:round;stroke-linejoin:round;stroke-miterlimit:4;stroke-dasharray:none;stroke-dashoffset:0;stroke-opacity:1;marker:none;enable-background:accumulate"
     id="path8655-6"
     d="m 22.585683,12.002776 c 0,5.839268 -4.733873,10.572963 -10.572488,10.572963 -5.83915,0 -10.572755,-4.733749 -10.572755,-10.572963 0,-5.8389976 4.733605,-10.5722132 10.572755,-10.5722132 5.838615,0 10.572488,4.7332156 10.572488,10.5722132 z" />
  <path
     style="font-style:normal;font-weight:bold;font-size:72px;font-family:'Standard Symbols L';display:inline;fill:url(#linearGradient3887-0);fill-opacity:1;stroke:none;stroke-width:1"
     id="path9053"
     d="m 12.526841,13.691763 c -0.03527,-1.258596 0.246802,-2.480423 1.43631,-3.345891 C 15.219574,9.3670845 16.429609,8.1424878 16.301734,6.6989652 16.273817,5.306817 14.651184,4.2159181 12.902919,4.059066 10.936406,3.7867327 8.556938,4.4601796 7.897972,5.9954081 7.563759,6.7420915 7.873682,8.0817266 8.995296,8.0817266 c 0.656033,0 0.957353,-0.4236287 1.006855,-0.8111509 0.03745,-0.2932114 -0.08297,-0.5550459 -0.154082,-0.7972414 -0.08103,-0.275965 0.264886,-0.8108148 0.641639,-1.0287333 0.314819,-0.182097 0.644201,-0.2431581 0.692753,-0.2548222 1.130606,-0.2716184 2.257657,0.3283489 2.727881,1.0585819 0.470226,0.730233 -0.04734,1.8378555 -0.791505,2.9149751 -0.744156,1.0771192 -1.542768,2.3005082 -1.539578,3.5999472 0,0.494697 -0.04409,0.662756 -0.01277,0.862899 0.02503,0.159908 0.554709,0.140583 0.960346,0.06558 z m -0.515972,1.694002 c -1.081039,-0.05866 -1.829266,1.166411 -1.179833,1.946952 0.579976,0.861793 2.206092,0.649053 2.484808,-0.326842 0.289763,-0.758884 -0.407558,-1.632778 -1.304975,-1.62011 z" />
  <path
     style="font-style:normal;font-weight:bold;font-size:72px;font-family:'Standard Symbols L';display:inline;fill:#ffffff;fill-opacity:1;stroke:none;stroke-width:1"
     id="path3298"
     d="m 12.526841,14.758929 c -0.03527,-1.258596 0.246802,-2.480424 1.43631,-3.345891 1.256423,-0.978787 2.466458,-2.203384 2.338583,-3.6469077 -0.02792,-1.3921471 -1.65055,-2.483046 -3.398815,-2.6398981 -1.966513,-0.2723333 -4.345981,0.4011136 -5.004947,1.9363421 -0.334213,0.7466834 -0.02429,2.0863196 1.097324,2.0863196 0.656033,0 0.957353,-0.4236309 1.006855,-0.8111531 C 10.039601,8.0445295 9.919181,7.782696 9.84807,7.5405005 9.76704,7.2645355 10.112955,6.7296857 10.489708,6.5117682 c 0.314819,-0.1820991 0.644201,-0.243158 0.692753,-0.2548232 1.130606,-0.2716173 2.257657,0.3283489 2.727881,1.0585829 0.470226,0.7302331 -0.04734,1.8378545 -0.791505,2.9149751 -0.744156,1.077119 -1.542768,2.300507 -1.539578,3.599945 0,0.494698 -0.04409,0.662758 -0.01277,0.8629 0.02503,0.159909 0.554709,0.140584 0.960346,0.06558 z m -0.515972,1.694001 c -1.081039,-0.05866 -1.829266,1.166413 -1.179833,1.946952 0.579976,0.861795 2.206092,0.649055 2.484808,-0.326842 0.289763,-0.758883 -0.407558,-1.632777 -1.304975,-1.62011 z" />
  <path
     style="font-style:normal;font-weight:bold;font-size:72px;font-family:'Standard Symbols L';display:inline;opacity:0.1;fill:none;stroke:url(#linearGradient3080-9);stroke-width:1;stroke-opacity:1"
     d="m 12.00006,16.933323 c -0.543624,-0.06072 -1.091339,0.620041 -0.757324,1.133798 0.332319,0.548562 1.268792,0.492476 1.540213,-0.0858 0.216221,-0.52337 -0.266995,-1.077117 -0.782889,-1.048001 z"
     id="path4669" />
</svg>
