<?xml version="1.0" encoding="UTF-8" standalone="no"?>
<svg
   version="1.2"
   width="24"
   height="24"
   id="svg2"
   xmlns:xlink="http://www.w3.org/1999/xlink"
   xmlns="http://www.w3.org/2000/svg"
   xmlns:svg="http://www.w3.org/2000/svg"
   xmlns:rdf="http://www.w3.org/1999/02/22-rdf-syntax-ns#"
   xmlns:cc="http://creativecommons.org/ns#"
   xmlns:dc="http://purl.org/dc/elements/1.1/">
  <defs
     id="defs4">
    <linearGradient
       id="linearGradient4011">
      <stop
         id="stop4013"
         style="stop-color:#ffffff;stop-opacity:1"
         offset="0" />
      <stop
         id="stop4015-3"
         style="stop-color:#ffffff;stop-opacity:0.23529412"
         offset="0.507761" />
      <stop
         id="stop4017-2"
         style="stop-color:#ffffff;stop-opacity:0.15686275"
         offset="0.83456558" />
      <stop
         id="stop4019"
         style="stop-color:#ffffff;stop-opacity:0.39215687"
         offset="1" />
    </linearGradient>
    <radialGradient
       gradientTransform="matrix(0.11151981,0,0,0.03548359,0.942029,15.166729)"
       gradientUnits="userSpaceOnUse"
       xlink:href="#linearGradient3820-7-2-2"
       id="radialGradient3108"
       fy="186.17059"
       fx="99.157013"
       r="62.769119"
       cy="186.17059"
       cx="99.157013" />
    <linearGradient
       id="linearGradient3820-7-2-2">
      <stop
         id="stop3822-2-6-36"
         style="stop-color:#3d3d3d;stop-opacity:1"
         offset="0" />
      <stop
         id="stop3864-8-7-6"
         style="stop-color:#686868;stop-opacity:0.49803922"
         offset="0.5" />
      <stop
         id="stop3824-1-2-4"
         style="stop-color:#686868;stop-opacity:0"
         offset="1" />
    </linearGradient>
    <linearGradient
       id="linearGradient3820-7-2">
      <stop
         id="stop3822-2-6"
         style="stop-color:#000000;stop-opacity:1"
         offset="0" />
      <stop
         id="stop3824-1-2"
         style="stop-color:#000000;stop-opacity:0"
         offset="1" />
    </linearGradient>
    <radialGradient
       xlink:href="#linearGradient2867-449-88-871-390-598-476-591-434-148-57-177-3-8"
       id="radialGradient3099"
       gradientUnits="userSpaceOnUse"
       gradientTransform="matrix(0,1.2965271,-1.3715753,-3.5289472e-8,23.602616,-8.2574466)"
       cx="5.0450659"
       cy="8.4497671"
       fx="5.0450659"
       fy="8.4497671"
       r="19.99999" />
    <linearGradient
       id="linearGradient2867-449-88-871-390-598-476-591-434-148-57-177-3-8">
      <stop
         id="stop3750-8-9"
         style="stop-color:#90dbec;stop-opacity:1;"
         offset="0" />
      <stop
         id="stop3752-3-2"
         style="stop-color:#42baea;stop-opacity:1"
         offset="0.26238" />
      <stop
         id="stop3754-7-2"
         style="stop-color:#3689e6;stop-opacity:1;"
         offset="0.704952" />
      <stop
         id="stop3756-9-3"
         style="stop-color:#2b63a0;stop-opacity:1;"
         offset="1" />
    </linearGradient>
    <linearGradient
       xlink:href="#linearGradient3707-319-631-407-324-3-8"
       id="linearGradient3101"
       gradientUnits="userSpaceOnUse"
       gradientTransform="matrix(0.55669661,0,0,0.55669489,-1.3476557,-1.3575751)"
       x1="24"
       y1="44"
       x2="24"
       y2="3.8990016" />
    <linearGradient
       id="linearGradient3707-319-631-407-324-3-8">
      <stop
         id="stop3760-7-3"
         style="stop-color:#185f9a;stop-opacity:1;"
         offset="0" />
      <stop
         id="stop3762-8-4"
         style="stop-color:#599ec9;stop-opacity:1;"
         offset="1" />
    </linearGradient>
    <linearGradient
       xlink:href="#linearGradient4011"
       id="linearGradient3096"
       gradientUnits="userSpaceOnUse"
       gradientTransform="matrix(0.57149306,0,0,0.57149114,-28.982146,-2.48829)"
       x1="71.204407"
       y1="6.2375584"
       x2="71.204407"
       y2="44.340794" />
    <linearGradient
       gradientTransform="matrix(0.42312112,0,0,0.42290487,-1.5250843,-2.2346798)"
       xlink:href="#linearGradient3707-319-631-407-324-3-8"
       id="linearGradient4092"
       x1="31.071823"
       y1="59.665745"
       x2="31.071823"
       y2="0.35299802"
       gradientUnits="userSpaceOnUse" />
    <linearGradient
       xlink:href="#linearGradient3820-7-2"
       id="linearGradient4196"
       gradientUnits="userSpaceOnUse"
       x1="60.948738"
       y1="-5.801291"
       x2="60.948738"
       y2="34.548019"
       gradientTransform="matrix(0.18759753,0,0,0.19163684,-0.26927014,12.566233)" />
    <linearGradient
       xlink:href="#linearGradient3820-7-2"
       id="linearGradient4193"
       gradientUnits="userSpaceOnUse"
       x1="69.311714"
       y1="-15.790401"
       x2="69.311714"
       y2="33.986996"
       gradientTransform="matrix(0.18759753,0,0,0.19163684,-0.31274138,12.641118)" />
    <linearGradient
       xlink:href="#linearGradient3820-7-2"
       id="linearGradient4190"
       gradientUnits="userSpaceOnUse"
       x1="72.458694"
       y1="-37.888779"
       x2="72.458694"
       y2="-24.791594"
       gradientTransform="matrix(0.18765602,0,0,0.19186213,-0.18013521,12.181452)" />
    <linearGradient
       xlink:href="#linearGradient3820-7-2"
       id="linearGradient4187"
       gradientUnits="userSpaceOnUse"
       x1="69.311714"
       y1="21.319286"
       x2="69.311714"
       y2="27.727411"
       gradientTransform="matrix(0.18759753,0,0,0.19163684,-0.18786817,13.115394)" />
  </defs>
  <metadata
     id="metadata7">
    <rdf:RDF>
      <cc:Work
         rdf:about="">
        <dc:format>image/svg+xml</dc:format>
        <dc:type
           rdf:resource="http://purl.org/dc/dcmitype/StillImage" />
        <dc:title />
      </cc:Work>
    </rdf:RDF>
  </metadata>
  <path
     style="display:inline;fill:url(#radialGradient3108);fill-opacity:1;stroke:none"
     id="path3818-0-2-5"
     d="m 19,21.772727 a 7,2.2272727 0 0 1 -14,0 7,2.2272727 0 1 1 14,0 z" />
  <path
     style="color:#000000;display:inline;overflow:visible;visibility:visible;fill:url(#radialGradient3099);fill-opacity:1;fill-rule:nonzero;stroke:url(#linearGradient3101);stroke-width:0.281937;stroke-linecap:round;stroke-linejoin:round;stroke-miterlimit:4;stroke-dasharray:none;stroke-dashoffset:0;stroke-opacity:1;marker:none;enable-background:accumulate"
     id="path2555-7"
     d="m 12.013063,1.1485591 c -5.9891817,0 -10.8545781,4.8653797 -10.8545781,10.8545429 0,5.989162 4.8653964,10.854544 10.8545781,10.854542 5.989179,0 10.854582,-4.86538 10.854577,-10.854542 0,-5.9891632 -4.865398,-10.8545429 -10.854577,-10.8545429 z" />
  <path
     style="color:#000000;display:inline;overflow:visible;visibility:visible;opacity:0.5;fill:none;stroke:url(#linearGradient3096);stroke-width:0.281937;stroke-linecap:round;stroke-linejoin:round;stroke-miterlimit:4;stroke-dasharray:none;stroke-dashoffset:0;stroke-opacity:1;marker:none;enable-background:accumulate"
     id="path8655-6"
     d="m 22.585683,12.002776 c 0,5.839268 -4.733873,10.572963 -10.572488,10.572963 -5.8391503,0 -10.5727552,-4.733749 -10.5727552,-10.572963 0,-5.8389976 4.7336049,-10.5722132 10.5727552,-10.5722132 5.838615,0 10.572488,4.7332156 10.572488,10.5722132 z" />
  <path
     style="font-style:normal;font-variant:normal;font-weight:bold;font-stretch:normal;font-size:40px;line-height:100%;font-family:'URW Palladio L';-inkscape-font-specification:'URW Palladio L Bold';text-align:start;writing-mode:lr-tb;text-anchor:start;fill:url(#linearGradient4092);fill-opacity:1;stroke:none;stroke-width:0.281937"
     id="path3227"
     d="m 8.6298223,11.775431 c 0.1409387,0.384718 0.2995754,0.696562 0.6374873,0.270158 0.4189369,-0.250285 1.8226364,-1.347367 1.6821784,-0.272751 -0.449464,1.988512 -0.9965605,3.956112 -1.4148788,5.950749 -0.4374102,1.092154 0.5558638,2.080054 1.5929148,1.36982 1.102317,-0.456298 2.05086,-1.199528 3.019901,-1.88133 -0.132218,-0.3256 -0.220345,-0.793321 -0.58568,-0.367511 -0.479705,0.218631 -1.527431,1.249396 -1.72208,0.399246 0.402947,-2.153199 1.149518,-4.226691 1.626738,-6.362722 C 13.90557,9.8989483 13.188324,8.6579762 12.11469,9.4704166 10.828448,10.032931 9.7528132,10.951822 8.6298223,11.775431 Z M 13.403479,4.5334852 C 12.091132,4.4635526 11.404991,6.5878325 12.652106,7.1691305 13.663881,7.5857834 14.765523,6.5437914 14.51835,5.5026022 14.441644,4.9604463 13.956894,4.5152479 13.403479,4.5334852 Z" />
  <path
     style="font-style:normal;font-variant:normal;font-weight:bold;font-stretch:normal;font-size:40px;line-height:100%;font-family:'URW Palladio L';-inkscape-font-specification:'URW Palladio L Bold';text-align:start;writing-mode:lr-tb;text-anchor:start;fill:#ffffff;fill-opacity:1;stroke:none;stroke-width:0.281937"
     id="path3536-5"
     d="m 8.6298223,12.057367 c 0.1409387,0.384719 0.2995754,0.696563 0.6374873,0.270159 0.4189369,-0.250286 1.8226364,-1.347367 1.6821784,-0.272752 -0.449464,1.988512 -0.9965605,3.956113 -1.4148788,5.950749 -0.4374102,1.092154 0.5558638,2.080054 1.5929148,1.36982 1.102317,-0.456297 2.05086,-1.199527 3.019901,-1.881329 -0.132218,-0.3256 -0.220345,-0.793322 -0.58568,-0.367511 -0.479705,0.21863 -1.527431,1.249396 -1.72208,0.399245 0.402947,-2.153198 1.149518,-4.22669 1.626738,-6.362721 C 13.90557,10.180885 13.188324,8.9399128 12.11469,9.7523532 10.828448,10.314868 9.7528132,11.233758 8.6298223,12.057367 Z M 13.403479,4.8154218 C 12.091132,4.7454892 11.404991,6.8697691 12.652106,7.4510671 13.663881,7.86772 14.765523,6.8257281 14.51835,5.7845388 14.441644,5.2423829 13.956894,4.7971845 13.403479,4.8154218 Z" />
  <path
     style="font-style:normal;font-variant:normal;font-weight:bold;font-stretch:normal;font-size:40px;line-height:100%;font-family:'URW Palladio L';-inkscape-font-specification:'URW Palladio L Bold';text-align:start;writing-mode:lr-tb;text-anchor:start;opacity:0.1;fill:none;stroke:url(#linearGradient4196);stroke-width:0.281937;stroke-opacity:1"
     d="m 10.815954,11.495251 c 0.42114,0.03049 0.324808,0.556785 0.236969,0.842774 -0.40788,1.811987 -0.901706,3.604344 -1.2573945,5.428134 -0.085802,0.534751 0.2390985,1.217156 0.8285075,1.222238"
     id="path4119" />
  <path
     style="font-style:normal;font-variant:normal;font-weight:bold;font-stretch:normal;font-size:40px;line-height:100%;font-family:'URW Palladio L';-inkscape-font-specification:'URW Palladio L Bold';text-align:start;writing-mode:lr-tb;text-anchor:start;opacity:0.1;fill:none;stroke:url(#linearGradient4193);stroke-width:0.281937;stroke-opacity:1"
     d="m 13.827423,17.138596 c -0.03519,-0.276768 -0.253278,-0.499768 -0.46882,-0.222163 -0.382252,0.268725 -0.750891,0.648349 -1.236649,0.683397 -0.311257,-0.0061 -0.469046,-0.389301 -0.342511,-0.65552 0.397875,-2.051137 1.182212,-4.022451 1.584125,-6.071751 0.18134,-0.347598 -0.04903,-1.2879573 -0.368959,-1.1486499 -0.05276,-0.028153 -0.110797,-0.045101 -0.16966,-0.053161 -0.507963,0.031067 -1.05097,0.4243029 -1.513708,0.6903929 -0.575236,0.346132 -1.5117541,0.970265 -2.4063783,1.65083"
     id="path4070" />
  <path
     style="font-style:normal;font-variant:normal;font-weight:bold;font-stretch:normal;font-size:40px;line-height:100%;font-family:'URW Palladio L';-inkscape-font-specification:'URW Palladio L Bold';text-align:start;writing-mode:lr-tb;text-anchor:start;opacity:0.1;fill:none;stroke:url(#linearGradient4190);stroke-width:0.281937;stroke-opacity:1"
     d="M 13.376368,4.987309 C 12.264459,4.92696 11.683114,6.7389167 12.739754,7.2405571 13.596999,7.6001137 14.530384,6.6096118 14.320963,5.7111011 14.255973,5.2432383 13.845259,4.9715702 13.376368,4.987309 Z"
     id="path3714-3" />
  <path
     style="font-style:normal;font-variant:normal;font-weight:bold;font-stretch:normal;font-size:40px;line-height:100%;font-family:'URW Palladio L';-inkscape-font-specification:'URW Palladio L Bold';text-align:start;writing-mode:lr-tb;text-anchor:start;opacity:0.1;fill:none;stroke:url(#linearGradient4187);stroke-width:0.281937;stroke-opacity:1"
     d="m 13.952296,17.612871 c 0.02966,-0.374043 -0.150859,-0.653395 -0.42317,-0.290636 -0.382252,0.229626 -0.796541,0.650688 -1.282298,0.706222"
     id="path4070-0" />
</svg>
