<?xml version="1.0" encoding="UTF-8" standalone="no"?>
<svg
   height="24"
   width="24"
   version="1.1"
   id="svg6"
   xmlns="http://www.w3.org/2000/svg"
   xmlns:svg="http://www.w3.org/2000/svg"
   xmlns:rdf="http://www.w3.org/1999/02/22-rdf-syntax-ns#"
   xmlns:cc="http://creativecommons.org/ns#"
   xmlns:dc="http://purl.org/dc/elements/1.1/">
  <metadata
     id="metadata12">
    <rdf:RDF>
      <cc:Work
         rdf:about="">
        <dc:format>image/svg+xml</dc:format>
        <dc:type
           rdf:resource="http://purl.org/dc/dcmitype/StillImage" />
      </cc:Work>
    </rdf:RDF>
  </metadata>
  <defs
     id="defs10" />
  <path
     id="rect839"
     style="fill:#666666;fill-opacity:1;stroke-width:4;stroke-linecap:round;stroke-linejoin:round;stop-color:#000000"
     d="M 5,3 C 4.446,3 4,3.4014 4,3.9 V 20.1 C 4,20.5986 4.446,21 5,21 h 4 c 0.554,0 1,-0.4014 1,-0.9 V 3.9 C 10,3.4014 9.554,3 9,3 Z m 10,0 c -0.554,0 -1,0.4014 -1,0.9 v 16.2 c 0,0.4986 0.446,0.9 1,0.9 h 4 c 0.554,0 1,-0.4014 1,-0.9 V 3.9 C 20,3.4014 19.554,3 19,3 Z" />
</svg>
