<?xml version="1.0" encoding="UTF-8" standalone="no"?>
<svg
   width="24"
   height="24"
   id="svg3850"
   version="1.1"
   xmlns:xlink="http://www.w3.org/1999/xlink"
   xmlns="http://www.w3.org/2000/svg"
   xmlns:svg="http://www.w3.org/2000/svg"
   xmlns:rdf="http://www.w3.org/1999/02/22-rdf-syntax-ns#"
   xmlns:cc="http://creativecommons.org/ns#"
   xmlns:dc="http://purl.org/dc/elements/1.1/">
  <defs
     id="defs3852">
    <linearGradient
       id="linearGradient4715">
      <stop
         style="stop-color:#555555;stop-opacity:1;"
         offset="0"
         id="stop4717" />
      <stop
         style="stop-color:#666666;stop-opacity:1;"
         offset="1"
         id="stop4719" />
    </linearGradient>
    <linearGradient
       xlink:href="#linearGradient4715"
       id="linearGradient4728"
       gradientUnits="userSpaceOnUse"
       x1="8"
       y1="19.5"
       x2="8"
       y2="-2.5"
       gradientTransform="translate(4,-4)" />
  </defs>
  <metadata
     id="metadata3855">
    <rdf:RDF>
      <cc:Work
         rdf:about="">
        <dc:format>image/svg+xml</dc:format>
        <dc:type
           rdf:resource="http://purl.org/dc/dcmitype/StillImage" />
      </cc:Work>
    </rdf:RDF>
  </metadata>
  <g
     id="layer1"
     transform="translate(0,8)">
    <path
       style="color:#bebebe;fill:url(#linearGradient4728);fill-opacity:1;fill-rule:nonzero;stroke:none;stroke-width:1;marker:none;visibility:visible;display:inline;overflow:visible;enable-background:accumulate"
       d="m 12,-4.90625 -0.40625,0.625 -4,6 L 7.0625,2.5 8,2.5 l 2.5,0 0,2.5 C 10.5,5 10.4892,5.882602 9.96875,6.75 9.7018652,7.194809 9.3421356,7.64753 8.75,7.96875 8.1522901,8.292994 7.3011884,8.5 6,8.5 l -2,0 -0.5,0 0,0.5 0,2 0,0.5 0.5,0 2,0 c 3.0248595,0 4.877496,-1.305285 5.96875,-2.71875 l 0.03125,0 0.03125,0 C 13.122504,10.194715 14.97514,11.5 18,11.5 l 2,0 0.5,0 0,-0.5 0,-2 0,-0.5 -0.5,0 -2,0 c -1.301189,0 -2.15229,-0.207006 -2.75,-0.53125 l -0.03125,0 C 14.640137,7.648211 14.294713,7.189106 14.03125,6.75 13.510811,5.882597 13.5,5 13.5,5 l 0,-2.5 2.5,0 0.9375,0 -0.53125,-0.78125 -4,-6 L 12,-4.90625 z"
       id="path2843-39-5-5" />
    <path
       id="path4737"
       d="m 12,-4.90625 -0.40625,0.625 -4,6 L 7.0625,2.5 8,2.5 l 2.5,0 0,2.5 C 10.5,5 10.4892,5.882602 9.96875,6.75 9.7018652,7.194809 9.3421356,7.64753 8.75,7.96875 8.1522901,8.292994 7.3011884,8.5 6,8.5 l -2,0 -0.5,0 0,0.5 0,2 0,0.5 0.5,0 2,0 c 3.0248595,0 4.877496,-1.305285 5.96875,-2.71875 l 0.03125,0 0.03125,0 C 13.122504,10.194715 14.97514,11.5 18,11.5 l 2,0 0.5,0 0,-0.5 0,-2 0,-0.5 -0.5,0 -2,0 c -1.301189,0 -2.15229,-0.207006 -2.75,-0.53125 l -0.03125,0 C 14.640137,7.648211 14.294713,7.189106 14.03125,6.75 13.510811,5.882597 13.5,5 13.5,5 l 0,-2.5 2.5,0 0.9375,0 -0.53125,-0.78125 -4,-6 L 12,-4.90625 z"
       style="opacity:0.61000001;color:#bebebe;fill:none;stroke:#000000;stroke-width:1;stroke-opacity:1;marker:none;visibility:visible;display:inline;overflow:visible;enable-background:accumulate" />
    <path
       style="color:#bebebe;display:inline;overflow:visible;visibility:visible;opacity:0.3;fill:#ffffff;fill-opacity:1;fill-rule:nonzero;stroke:none;stroke-width:1;marker:none;enable-background:accumulate"
       d="M 12,-4 8,2 h 1 l 3,-4.5 3,4.5 h 1 z M 11,5 C 11,5 11.0021,6.006907 10.40625,7 10.11439,7.486435 9.6906092,8.03161 9,8.40625 8.3058252,8.782824 7.3542184,9 6,9 H 4 v 1 H 6 C 7.3542184,10 8.3058252,9.782824 9,9.40625 9.6906092,9.03161 10.11439,8.486435 10.40625,8 11.0021,7.006907 11,6 11,6 Z m 2,0 v 1 c 0,0 -0.0021,1.006906 0.59375,2 0.283554,0.472592 0.693145,1.028517 1.375,1.40625 H 15 l 0.09375,0.0625 h 0.125 H 15.25 C 15.924744,9.788403 16.759752,10 18,10 h 2 V 9 H 18 C 16.759752,9 15.924744,8.788403 15.25,8.46875 h -0.03125 -0.125 L 15,8.40625 H 14.96875 C 14.286895,8.028517 13.877304,7.472592 13.59375,7 12.9979,6.006906 13,5 13,5 Z"
       id="path4739" />
  </g>
</svg>
