<?xml version="1.0" encoding="UTF-8" standalone="no"?>
<svg
   height="24"
   width="24"
   id="svg2"
   version="1.1"
   xmlns="http://www.w3.org/2000/svg"
   xmlns:svg="http://www.w3.org/2000/svg"
   xmlns:rdf="http://www.w3.org/1999/02/22-rdf-syntax-ns#"
   xmlns:cc="http://creativecommons.org/ns#"
   xmlns:dc="http://purl.org/dc/elements/1.1/">
  <metadata
     id="metadata12">
    <rdf:RDF>
      <cc:Work
         rdf:about="">
        <dc:format>image/svg+xml</dc:format>
        <dc:type
           rdf:resource="http://purl.org/dc/dcmitype/StillImage" />
      </cc:Work>
    </rdf:RDF>
  </metadata>
  <defs
     id="defs10" />
  <g
     color="#bebebe"
     transform="translate(-873,-57)"
     id="g4"
     style="display:inline">
    <path
       id="path1"
       style="display:inline;fill:#666666;fill-opacity:1;marker:none"
       d="M 12.5,10 C 12.223,10 12,10.223 12,10.5 v 1 c 0,0.277 0.223,0.5 0.5,0.5 h 1 c 0.277,0 0.5,-0.223 0.5,-0.5 v -1 C 14,10.223 13.777,10 13.5,10 Z m 2.5,1 v 1 h 4 v -1 z m -2.5,2 C 12.223,13 12,13.223 12,13.5 v 1 c 0,0.277 0.223,0.5 0.5,0.5 h 1 c 0.277,0 0.5,-0.223 0.5,-0.5 v -1 C 14,13.223 13.777,13 13.5,13 Z m 2.5,1 v 1 h 4 v -1 z m -2.5,2 C 12.223,16 12,16.223 12,16.5 v 1 c 0,0.277 0.223,0.5 0.5,0.5 h 1 c 0.277,0 0.5,-0.223 0.5,-0.5 v -1 C 14,16.223 13.777,16 13.5,16 Z m 2.5,1 v 1 h 4 v -1 z"
       transform="translate(873,57)" />
    <path
       id="path2"
       style="display:inline;fill:#666666;fill-opacity:1;marker:none"
       d="m 9,10 v 8 h 1.000913 L 10,10 Z"
       transform="translate(873,57)" />
    <path
       style="baseline-shift:baseline;display:inline;overflow:visible;opacity:1;vector-effect:none;fill:#666666;fill-rule:evenodd;stroke-width:1;stroke-linecap:round;enable-background:accumulate;stop-color:#000000;stop-opacity:1"
       d="m 5.4182942,5.0000003 c -1.559e-4,0 -0.1430825,0.025988 -0.1432292,0.026042 -1.467e-4,5.41e-5 -0.1105425,0.060118 -0.1106767,0.060222 -2.7e-4,2.06e-4 -0.1121016,0.1298397 -0.112305,0.1302084 C 5.0516758,5.2172091 5,5.4204198 5,5.4215498 v 4.156901 c 0,0.00117 0.051675,0.2043408 0.052083,0.2050775 2.034e-4,3.692e-4 0.112035,0.1300025 0.112305,0.1302083 1.342e-4,1.034e-4 0.11053,0.060167 0.1106767,0.060225 C 5.2752117,9.9740125 5.4182942,10 5.4182942,10 H 10 V 5.4215498 C 10,5.4204165 9.9483254,5.2172091 9.9479171,5.2164716 9.9477137,5.216103 9.8358821,5.0864692 9.8356121,5.0862633 9.8354779,5.0861604 9.7250821,5.0260958 9.7249354,5.0260416 9.7247887,5.0259875 9.5818621,5 9.5817062,5 Z m 0.4150391,0.8333333 h 3.3333333 v 3.333333 H 5.8333333 Z"
       id="rect2"
       transform="translate(873,57)" />
  </g>
</svg>
