<?xml version="1.0" encoding="UTF-8" standalone="no"?>
<svg
   version="1.1"
   width="16"
   height="16"
   id="svg3184"
   xmlns:xlink="http://www.w3.org/1999/xlink"
   xmlns="http://www.w3.org/2000/svg"
   xmlns:svg="http://www.w3.org/2000/svg"
   xmlns:rdf="http://www.w3.org/1999/02/22-rdf-syntax-ns#"
   xmlns:cc="http://creativecommons.org/ns#"
   xmlns:dc="http://purl.org/dc/elements/1.1/">
  <defs
     id="defs3186">
    <linearGradient
       xlink:href="#linearGradient3678"
       id="linearGradient2396-3"
       gradientUnits="userSpaceOnUse"
       gradientTransform="matrix(0.4101105,0,0,0.5452071,-35.509578,-3.9154991)"
       x1="95.494781"
       y1="7.181673"
       x2="95.494781"
       y2="34.699265" />
    <linearGradient
       id="linearGradient3678">
      <stop
         style="stop-color:#ffffff;stop-opacity:1;"
         offset="0"
         id="stop3680" />
      <stop
         style="stop-color:#e6e6e6;stop-opacity:1;"
         offset="1"
         id="stop3682" />
    </linearGradient>
    <linearGradient
       xlink:href="#linearGradient3678"
       id="linearGradient2401-6"
       gradientUnits="userSpaceOnUse"
       gradientTransform="translate(-28.710843,-5.9586168)"
       x1="41.73494"
       y1="3.9481401"
       x2="41.73494"
       y2="20.989416" />
    <linearGradient
       xlink:href="#linearGradient3678"
       id="linearGradient2404-7"
       gradientUnits="userSpaceOnUse"
       gradientTransform="matrix(0.30758288,0,0,0.5452071,-24.632183,-3.9154991)"
       x1="121.69988"
       y1="10.850004"
       x2="121.69988"
       y2="31.026016" />
  </defs>
  <metadata
     id="metadata3189">
    <rdf:RDF>
      <cc:Work
         rdf:about="">
        <dc:format>image/svg+xml</dc:format>
        <dc:type
           rdf:resource="http://purl.org/dc/dcmitype/StillImage" />
      </cc:Work>
    </rdf:RDF>
  </metadata>
  <rect
     style="display:inline;overflow:visible;visibility:visible;opacity:0.3;fill:none;fill-opacity:1;fill-rule:nonzero;stroke:#ffffff;stroke-width:0.5;stroke-linecap:round;stroke-linejoin:miter;stroke-miterlimit:4;stroke-dasharray:none;stroke-dashoffset:0;stroke-opacity:1;marker:none;marker-start:none;marker-mid:none;marker-end:none;enable-background:accumulate"
     id="rect3236"
     transform="rotate(-90)"
     y="10.25"
     x="-13.75"
     ry="0.20454545"
     rx="0.25"
     height="4.5"
     width="12.5" />
  <rect
     style="display:inline;overflow:visible;visibility:visible;opacity:0.5;fill:#000000;fill-opacity:1;fill-rule:nonzero;stroke:none;stroke-width:1;stroke-linecap:butt;stroke-linejoin:miter;stroke-miterlimit:4;stroke-dasharray:none;stroke-dashoffset:0;stroke-opacity:1;marker:none;marker-start:none;marker-mid:none;marker-end:none;enable-background:accumulate"
     id="rect3296"
     y="3"
     x="11"
     ry="0"
     rx="0"
     height="11"
     width="3" />
  <path
     style="display:inline;overflow:visible;visibility:visible;opacity:0.5;fill:none;fill-opacity:1;fill-rule:nonzero;stroke:#000000;stroke-width:1;stroke-linecap:round;stroke-linejoin:miter;stroke-miterlimit:4;stroke-dasharray:none;stroke-dashoffset:0;stroke-opacity:1;marker:none;marker-start:none;marker-mid:none;marker-end:none;enable-background:accumulate"
     id="path3214"
     d="m 9.5,14.5 v -12 c 0,-0.554 0.446,-1 1,-1 h 4 c 0.554,0 1,0.446 1,1 v 12 c 0,0.554 -0.446,1 -1,1 h -4 c -0.554,0 -1,-0.446 -1,-1 z" />
  <rect
     style="display:inline;overflow:visible;visibility:visible;fill:url(#linearGradient2404-7);fill-opacity:1;fill-rule:nonzero;stroke:none;stroke-width:1;stroke-linecap:butt;stroke-linejoin:miter;stroke-miterlimit:4;stroke-dasharray:none;stroke-dashoffset:0;stroke-opacity:1;marker:none;marker-start:none;marker-mid:none;marker-end:none;enable-background:accumulate"
     id="rect3728"
     y="2"
     x="11"
     ry="0"
     rx="0"
     height="11"
     width="3" />
  <path
     style="display:inline;overflow:visible;visibility:visible;fill:none;fill-opacity:1;fill-rule:nonzero;stroke:url(#linearGradient2401-6);stroke-width:1;stroke-linecap:round;stroke-linejoin:miter;stroke-miterlimit:4;stroke-dasharray:none;stroke-dashoffset:0;stroke-opacity:1;marker:none;marker-start:none;marker-mid:none;marker-end:none;enable-background:accumulate"
     id="rect2442"
     d="m 9.5,13.5 v -12 c 0,-0.554 0.446,-1 1,-1 h 4 c 0.554,0 1,0.446 1,1 v 12 c 0,0.554 -0.446,1 -1,1 h -4 c -0.554,0 -1,-0.446 -1,-1 z" />
  <path
     style="display:inline;overflow:visible;visibility:visible;opacity:0.5;fill:#000000;fill-opacity:1;fill-rule:nonzero;stroke:none;stroke-width:1;marker:none;enable-background:accumulate"
     d="M 1,1 C 0.446,1 0,1.446 0,2 v 13 c 0,0.554 0.446,1 1,1 h 6 c 0.554,0 1,-0.446 1,-1 V 2 C 8,1.446 7.554,1 7,1 Z m 2.25,1 h 1.5 C 4.8885,2 5,2.1115 5,2.25 5,2.3885 4.8885,2.5 4.75,2.5 H 3.25 C 3.1115,2.5 3,2.3885 3,2.25 3,2.1115 3.1115,2 3.25,2 Z M 1.5,4 h 5 C 6.777,4 7,4.223 7,4.5 v 8 C 7,12.777 6.777,13 6.5,13 h -5 C 1.223,13 1,12.777 1,12.5 v -8 C 1,4.223 1.223,4 1.5,4 Z M 4,14 c 0.276142,0 0.5,0.223858 0.5,0.5 C 4.5,14.776142 4.276142,15 4,15 3.723858,15 3.5,14.776142 3.5,14.5 3.5,14.223858 3.723858,14 4,14 Z"
     id="rect2397-5" />
  <path
     style="display:inline;overflow:visible;visibility:visible;fill:url(#linearGradient2396-3);fill-opacity:1;fill-rule:nonzero;stroke:none;stroke-width:1;marker:none;enable-background:accumulate"
     d="M 1,0 C 0.446,0 0,0.446 0,0.99999997 V 14 c 0,0.554 0.446,1 1,1 h 6 c 0.554,0 1,-0.446 1,-1 V 0.99999997 C 8,0.446 7.554,0 7,0 Z m 2.25,0.99999997 h 1.5 C 4.8885,0.99999997 5,1.1115 5,1.25 5,1.3885 4.8885,1.5 4.75,1.5 H 3.25 C 3.1115,1.5 3,1.3885 3,1.25 3,1.1115 3.1115,0.99999997 3.25,0.99999997 Z M 1.5,3 h 5 C 6.777,3 7,3.223 7,3.5 v 8 C 7,11.777 6.777,12 6.5,12 h -5 C 1.223,12 1,11.777 1,11.5 v -8 C 1,3.223 1.223,3 1.5,3 Z M 4,13 c 0.276142,0 0.5,0.223858 0.5,0.5 C 4.5,13.776142 4.276142,14 4,14 3.723858,14 3.5,13.776142 3.5,13.5 3.5,13.223858 3.723858,13 4,13 Z"
     id="rect2397-6" />
</svg>
