<?xml version="1.0" encoding="UTF-8" standalone="no"?>
<svg
   height="16"
   width="16"
   id="svg2"
   version="1.1"
   sodipodi:docname="network-wireless-acquiring.svg"
   inkscape:version="1.3.2 (091e20e, 2023-11-25)"
   xmlns:inkscape="http://www.inkscape.org/namespaces/inkscape"
   xmlns:sodipodi="http://sodipodi.sourceforge.net/DTD/sodipodi-0.dtd"
   xmlns="http://www.w3.org/2000/svg"
   xmlns:svg="http://www.w3.org/2000/svg"
   xmlns:rdf="http://www.w3.org/1999/02/22-rdf-syntax-ns#"
   xmlns:cc="http://creativecommons.org/ns#"
   xmlns:dc="http://purl.org/dc/elements/1.1/">
  <sodipodi:namedview
     id="namedview1"
     pagecolor="#ffffff"
     bordercolor="#000000"
     borderopacity="0.25"
     inkscape:showpageshadow="2"
     inkscape:pageopacity="0.0"
     inkscape:pagecheckerboard="0"
     inkscape:deskcolor="#d1d1d1"
     showgrid="true"
     inkscape:current-layer="svg2" />
  <metadata
     id="metadata14">
    <rdf:RDF>
      <cc:Work
         rdf:about="">
        <dc:format>image/svg+xml</dc:format>
        <dc:type
           rdf:resource="http://purl.org/dc/dcmitype/StillImage" />
      </cc:Work>
    </rdf:RDF>
  </metadata>
  <defs
     id="defs12" />
  <g
     transform="translate(-393,351)"
     id="g4"
     style="display:inline">
    <path
       color="#000000"
       d="M 8,2.266 C 4.633873,2.271341 2.096106,3.5052302 0,5.387 L 3.237605,8.949307 C 3.086605,8.669307 3,8.33507 3,7.99807 3,7.76907 3.07629,7.5123298 3.149294,7.3063298 L 1.597,5.597 C 3.718059,4.0802213 5.405714,3.2980197 8,3.332 c 2.586444,0.033878 4.246807,0.6854123 6.403,2.265 L 12.861614,7.2944164 C 12.934614,7.5004164 13,7.76907 13,7.99807 c 0,0.337 -0.08314,0.6628243 -0.234135,0.9438243 L 16,5.387 C 14.03156,3.5057765 11.276468,2.2608008 8,2.266 Z M 3.908975,9.6900411 8,14.2 12.094,9.68507 c -0.327139,0.2070108 -0.706874,0.315655 -1.094,0.313 -0.168,0 -0.371058,-0.044739 -0.521058,-0.089739 L 8.001,12.626 5.531965,9.9146259 C 5.381965,9.9586259 5.169,9.99807 5,9.99807 4.322909,10.002705 3.973418,9.6581504 3.908975,9.6900411 Z"
       fill="#666"
       opacity="0.35"
       overflow="visible"
       style="display:inline;opacity:0.35;fill:#d4d4d4;fill-opacity:1;marker:none"
       id="path6-6"
       sodipodi:nodetypes="sccsccsccsccsccccccccc"
       inkscape:label="path6"
       transform="translate(393,-351)" />
    <path
       d="M 5,7 A 1,1 0 1 0 5,9 1,1 0 0 0 5,7 Z M 8,7 A 1,1 0 1 0 8,9 1,1 0 0 0 8,7 Z m 3,0 a 1,1 0 1 0 0,2 1,1 0 0 0 0,-2 z"
       fill="#666"
       id="path8-7"
       style="display:inline;fill:#fcfcfc;fill-opacity:1"
       transform="translate(393,-351)"
       inkscape:label="path8" />
  </g>
</svg>
