<?xml version="1.0" encoding="UTF-8" standalone="no"?>
<svg
   height="16"
   width="16"
   version="1.1"
   id="svg6"
   xmlns="http://www.w3.org/2000/svg"
   xmlns:svg="http://www.w3.org/2000/svg">
  <defs
     id="defs10" />
  <path
     d="m 8 1 c -1.644531 0 -3 1.355469 -3 3 v 1 h 2 v -1 c 0 -0.5625 0.4375 -1 1 -1 s 1 0.4375 1 1 v 1 h 2 v -1 c 0 -1.644531 -1.355469 -3 -3 -3 z m -4 10 v 1.011719 h 3 v 0.988281 h -5 v 2 h 12 v -2 h -5 v -0.988281 h 3 v -1.011719 z m 0 0"
     fill="#2e3434"
     fill-opacity="0.34902"
     id="path2"
     style="fill:#d4d4d4;fill-opacity:0.34999999" />
  <path
     d="m 3 6 c -1.105469 0 -2 0.894531 -2 2 s 0.894531 2 2 2 s 2 -0.894531 2 -2 s -0.894531 -2 -2 -2 z m 5 0 c -1.105469 0 -2 0.894531 -2 2 s 0.894531 2 2 2 s 2 -0.894531 2 -2 s -0.894531 -2 -2 -2 z m 5 0 c -1.105469 0 -2 0.894531 -2 2 s 0.894531 2 2 2 s 2 -0.894531 2 -2 s -0.894531 -2 -2 -2 z m 0 0"
     fill="#2e3436"
     id="path4"
     style="fill:#fcfcfc;fill-opacity:1" />
</svg>
