<?xml version="1.0" encoding="UTF-8" standalone="no"?>
<!-- Created with Inkscape (http://www.inkscape.org/) -->

<svg
   version="1.1"
   width="16"
   height="16"
   id="svg3883"
   inkscape:version="1.3.2 (091e20e, 2023-11-25)"
   sodipodi:docname="network-offline.svg"
   xmlns:inkscape="http://www.inkscape.org/namespaces/inkscape"
   xmlns:sodipodi="http://sodipodi.sourceforge.net/DTD/sodipodi-0.dtd"
   xmlns="http://www.w3.org/2000/svg"
   xmlns:svg="http://www.w3.org/2000/svg"
   xmlns:rdf="http://www.w3.org/1999/02/22-rdf-syntax-ns#"
   xmlns:cc="http://creativecommons.org/ns#"
   xmlns:dc="http://purl.org/dc/elements/1.1/">
  <sodipodi:namedview
     pagecolor="#ffffff"
     bordercolor="#666666"
     borderopacity="1"
     objecttolerance="10"
     gridtolerance="10"
     guidetolerance="10"
     inkscape:pageopacity="0"
     inkscape:pageshadow="2"
     inkscape:window-width="1348"
     inkscape:window-height="877"
     id="namedview9"
     showgrid="false"
     inkscape:zoom="18.641906"
     inkscape:cx="6.8126082"
     inkscape:cy="12.927863"
     inkscape:window-x="0"
     inkscape:window-y="24"
     inkscape:window-maximized="0"
     inkscape:current-layer="svg3883"
     inkscape:pagecheckerboard="0"
     inkscape:showpageshadow="2"
     inkscape:deskcolor="#d1d1d1" />
  <defs
     id="defs3885" />
  <metadata
     id="metadata3888">
    <rdf:RDF>
      <cc:Work
         rdf:about="">
        <dc:format>image/svg+xml</dc:format>
        <dc:type
           rdf:resource="http://purl.org/dc/dcmitype/StillImage" />
      </cc:Work>
    </rdf:RDF>
  </metadata>
  <path
     d="m 8,3.2660033 c -3.360209,0.00235 -5.999802,1.2384059 -8,3.1208782 0,0 8.00055,8.8089215 8,8.8130005 L 16,6.3868815 C 13.989465,4.4451788 11.26412,3.2637196 8,3.2660033 Z m 0,1.0659779 c 2.561761,0 4.432505,0.7961476 6.403,2.2652073 L 8,13.626246 1.596938,6.5971885 C 3.568571,5.1281288 5.439379,4.3319812 8,4.3319812 Z"
     overflow="visible"
     style="display:inline;opacity:0.3;fill:#ffffff;fill-opacity:1;stroke-width:1;marker:none"
     id="path2"
     fill="#666666"
     sodipodi:nodetypes="scccsscccs"
     inkscape:label="path6-3" />
  <path
     d="M 8,2.2661218 C 4.639791,2.2684718 2.000198,3.5045277 0,5.387 c 0,0 8.00055,8.808921 8,8.813 L 16,5.387 C 13.989465,3.4452973 11.26412,2.2638381 8,2.2661218 Z m 0,1.0659779 c 2.561761,0 4.432505,0.7961476 6.403,2.2652073 L 8,12.626364 1.596938,5.597307 C 3.568571,4.1282473 5.439379,3.3320997 8,3.3320997 Z"
     overflow="visible"
     style="display:inline;fill:#fcfcfc;fill-opacity:1;stroke-width:1;marker:none"
     id="path1"
     fill="#666666"
     sodipodi:nodetypes="scccsscccs"
     inkscape:label="path6-4" />
  <path
     d="m 8,2.6998037 c -3.05359,0.00214 -5.45232,1.125299 -7.27,2.8358402 0,0 7.2705,8.0043801 7.27,8.0080861 L 15.27,5.5356439 C 13.442925,3.771282 10.966269,2.6977285 8,2.6998037 Z m 0,1.1215948 c 2.328001,0 4.100568,0.6924511 5.818727,1.9053446 L 8,12.113819 2.181217,5.7267431 C 3.775303,4.5593548 5.673036,3.8213985 8,3.8213985 Z"
     overflow="visible"
     style="display:inline;opacity:0.3;fill:#ffffff;fill-opacity:1;stroke-width:1;marker:none"
     id="path3"
     fill="#666666"
     sodipodi:nodetypes="scccsscccs"
     inkscape:label="path6-5" />
</svg>
