<?xml version="1.0" encoding="UTF-8" standalone="no"?>
<svg
   height="16"
   width="16"
   version="1.1"
   id="svg18"
   xmlns="http://www.w3.org/2000/svg"
   xmlns:svg="http://www.w3.org/2000/svg">
  <defs
     id="defs22" />
  <g
     fill="#2e3436"
     id="g16"
     style="fill:#fcfcfc;fill-opacity:1">
    <path
       d="m 0 7 h 16 v 2 h -16 z m 0 0"
       id="path2"
       style="fill:#fcfcfc;fill-opacity:1" />
    <path
       d="m 7 3.5 h 2 v 5.5 h -2 z m 0 0"
       id="path4"
       style="fill:#fcfcfc;fill-opacity:1" />
    <path
       d="m 12 7 h 2 v 6 h -2 z m 0 0"
       id="path6"
       style="fill:#fcfcfc;fill-opacity:1" />
    <path
       d="m 2 7 h 2 v 6 h -2 z m 0 0"
       id="path8"
       style="fill:#fcfcfc;fill-opacity:1" />
    <path
       d="m 1 11 h 4 c 0.550781 0 1 0.449219 1 1 v 3 c 0 0.550781 -0.449219 1 -1 1 h -4 c -0.550781 0 -1 -0.449219 -1 -1 v -3 c 0 -0.550781 0.449219 -1 1 -1 z m 0 0"
       id="path10"
       style="fill:#fcfcfc;fill-opacity:1" />
    <path
       d="m 11 11 h 4 c 0.550781 0 1 0.449219 1 1 v 3 c 0 0.550781 -0.449219 1 -1 1 h -4 c -0.550781 0 -1 -0.449219 -1 -1 v -3 c 0 -0.550781 0.449219 -1 1 -1 z m 0 0"
       id="path12"
       style="fill:#fcfcfc;fill-opacity:1" />
    <path
       d="m 6 0 h 4 c 0.550781 0 1 0.449219 1 1 v 3 c 0 0.550781 -0.449219 1 -1 1 h -4 c -0.550781 0 -1 -0.449219 -1 -1 v -3 c 0 -0.550781 0.449219 -1 1 -1 z m 0 0"
       id="path14"
       style="fill:#fcfcfc;fill-opacity:1" />
  </g>
</svg>
