<?xml version="1.0" encoding="UTF-8" standalone="no"?>
<svg
   height="16"
   width="16"
   id="svg2"
   version="1.1"
   xmlns="http://www.w3.org/2000/svg"
   xmlns:svg="http://www.w3.org/2000/svg"
   xmlns:rdf="http://www.w3.org/1999/02/22-rdf-syntax-ns#"
   xmlns:cc="http://creativecommons.org/ns#"
   xmlns:dc="http://purl.org/dc/elements/1.1/">
  <metadata
     id="metadata14">
    <rdf:RDF>
      <cc:Work
         rdf:about="">
        <dc:format>image/svg+xml</dc:format>
        <dc:type
           rdf:resource="http://purl.org/dc/dcmitype/StillImage" />
      </cc:Work>
    </rdf:RDF>
  </metadata>
  <defs
     id="defs12" />
  <g
     transform="translate(-333 331)"
     id="g4">
    <path
       style="color:#000000;display:inline;opacity:0.35;fill:#d4d4d4;fill-opacity:1;stroke-width:1;-inkscape-stroke:none;paint-order:markers fill stroke"
       d="m 8.0251639,10.786638 c -1.526063,-0.0022 -2.25693,0.935141 -2.25693,0.935141 L 8.0251639,14.2 9.0906779,13.030153 c -0.0086,0.0046 -0.0045,-0.551734 -0.0045,-0.551734 0,0 0.0023,-0.2407 0.02603,-0.453941 0.03752,-0.14434 0.08219,-0.28068 0.151886,-0.426495 0.08055,-0.131867 0.232266,-0.321158 0.346432,-0.411343 -0.560409,-0.315526 -1.134876,-0.399367 -1.585412,-0.400002 z"
       id="path7820-3"
       transform="translate(333,-331)" />
    <path
       style="color:#000000;display:inline;opacity:0.35;fill:#d4d4d4;fill-opacity:1;stroke-width:1;stroke-linejoin:round;-inkscape-stroke:none;paint-order:markers fill stroke"
       d="M 7.9999999,2.2525137 C 2.9254249,2.277263 0,5.3867968 0,5.3867968 l 1.4307619,1.5723287 c 0,0 2.248429,-2.5778782 6.569238,-2.5742488 C 12.183947,4.3883967 14.569,6.959 14.569,6.959 l 1.431001,-1.572 c 0,0 -2.873703,-3.1594879 -8.0000011,-3.1344863 z"
       id="path38238"
       transform="translate(333,-331)" />
    <path
       style="color:#000000;display:inline;opacity:0.35;fill:#d4d4d4;fill-opacity:1;stroke-width:1;stroke-linejoin:round;-inkscape-stroke:none;paint-order:markers fill stroke"
       d="m 8.0251639,6.5239302 c -3.191443,0 -5.234692,1.9162648 -5.234692,1.9162648 l 1.472726,1.623249 c 0,0 1.880532,-1.417218 3.761966,-1.401206 0.96877,0.0082 1.856303,0.316774 2.5257201,0.642116 0,0 0.248019,-0.431986 0.408525,-0.620599 C 11.137294,8.47472 11.339231,8.28157 11.565911,8.126796 11.797738,7.9685085 12.32225,7.7564724 12.32225,7.7564724 11.425898,7.206187 9.9304039,6.5239302 8.0251639,6.5239302 Z"
       id="path38244"
       transform="translate(333,-331)" />
    <path
       d="m 13,9 c -1.108,0 -2,0.91 -2,2.031 V 12 h -0.5 c 0,0 -0.5,0 -0.5,0.5 v 3 c 0,0 0,0.5 0.5,0.5 h 5 c 0,0 0.5,0 0.5,-0.5 v -3 C 16,12 15.5,12 15.5,12 H 15 V 11.031 C 15,9.911 14.108,9 13,9 Z m 0,1 c 0.554,0 1,0.442 1,1 v 1 h -2 v -1 c 0,-0.558 0.446,-1 1,-1 z"
       fill="#666666"
       id="path6-2"
       style="display:inline;fill:#fcfcfc;fill-opacity:1"
       transform="translate(333,-331)" />
  </g>
</svg>
