<?xml version="1.0" encoding="UTF-8" standalone="no"?>
<svg
   height="16"
   width="16"
   version="1.1"
   id="svg6"
   xmlns="http://www.w3.org/2000/svg"
   xmlns:svg="http://www.w3.org/2000/svg"
   xmlns:rdf="http://www.w3.org/1999/02/22-rdf-syntax-ns#"
   xmlns:cc="http://creativecommons.org/ns#"
   xmlns:dc="http://purl.org/dc/elements/1.1/">
  <metadata
     id="metadata12">
    <rdf:RDF>
      <cc:Work
         rdf:about="">
        <dc:format>image/svg+xml</dc:format>
        <dc:type
           rdf:resource="http://purl.org/dc/dcmitype/StillImage" />
      </cc:Work>
    </rdf:RDF>
  </metadata>
  <defs
     id="defs10" />
  <g
     color="#bebebe"
     transform="translate(-333,91)"
     id="g4">
    <path
       d="m 338,-89 c -2.77,0 -5,2.23 -5,5 0,2.77 2.23,5 5,5 h 3.344 l 2.656,3 v -3 c 2.77,0 5,-2.23 5,-5 0,-2.77 -2.23,-5 -5,-5 z m 0,2 h 6 c 1.662,0 3,1.338 3,3 0,1.662 -1.338,3 -3,3 h -6 c -1.662,0 -3,-1.338 -3,-3 0,-1.662 1.338,-3 3,-3 z"
       fill="#666"
       overflow="visible"
       style="fill:#fcfcfc;fill-opacity:1;marker:none"
       id="path2" />
    <path
       id="path13504"
       style="fill:#fcfcfc;fill-opacity:1;stroke-width:0.999999;stroke-linecap:round;stroke-linejoin:round;paint-order:fill markers stroke;stop-color:#000000"
       d="M 4,5.5 A 1.5,1.5 0 0 0 2.5,7 1.5,1.5 0 0 0 4,8.5 1.5,1.5 0 0 0 5.5,7 1.5,1.5 0 0 0 4,5.5 Z m 4,0 A 1.5,1.5 0 0 0 6.5,7 1.5,1.5 0 0 0 8,8.5 1.5,1.5 0 0 0 9.5,7 1.5,1.5 0 0 0 8,5.5 Z m 4,0 A 1.5,1.5 0 0 0 10.5,7 1.5,1.5 0 0 0 12,8.5 1.5,1.5 0 0 0 13.5,7 1.5,1.5 0 0 0 12,5.5 Z"
       transform="translate(333,-91)" />
  </g>
</svg>
