<?xml version="1.0" encoding="UTF-8" standalone="no"?>
<svg
   width="32px"
   height="32px"
   id="svg3952"
   version="1.1"
   xmlns:xlink="http://www.w3.org/1999/xlink"
   xmlns="http://www.w3.org/2000/svg"
   xmlns:svg="http://www.w3.org/2000/svg"
   xmlns:rdf="http://www.w3.org/1999/02/22-rdf-syntax-ns#"
   xmlns:cc="http://creativecommons.org/ns#"
   xmlns:dc="http://purl.org/dc/elements/1.1/">
  <defs
     id="defs3954">
    <linearGradient
       id="linearGradient4661">
      <stop
         id="stop4663"
         offset="0"
         style="stop-color:#000000;stop-opacity:1;" />
      <stop
         id="stop4665"
         offset="1"
         style="stop-color:#000000;stop-opacity:0;" />
    </linearGradient>
    <linearGradient
       id="linearGradient3707-319-631-407-324-3-8">
      <stop
         id="stop3760-7-3"
         style="stop-color:#185f9a;stop-opacity:1;"
         offset="0" />
      <stop
         id="stop3762-8-4"
         style="stop-color:#599ec9;stop-opacity:1;"
         offset="1" />
    </linearGradient>
    <linearGradient
       id="linearGradient4011">
      <stop
         id="stop4013"
         style="stop-color:#ffffff;stop-opacity:1;"
         offset="0" />
      <stop
         offset="0.507761"
         style="stop-color:#ffffff;stop-opacity:0.23529412;"
         id="stop4015" />
      <stop
         id="stop4017"
         style="stop-color:#ffffff;stop-opacity:0.15686275;"
         offset="0.83456558" />
      <stop
         id="stop4019"
         style="stop-color:#ffffff;stop-opacity:0.39215687;"
         offset="1" />
    </linearGradient>
    <radialGradient
       r="10.625"
       fy="4.625"
       fx="62.625"
       cy="4.625"
       cx="62.625"
       gradientTransform="matrix(4.0915241,0,0,1.432975,-207.96215,40.186022)"
       gradientUnits="userSpaceOnUse"
       id="radialGradient3950-2"
       xlink:href="#linearGradient4661" />
    <radialGradient
       xlink:href="#linearGradient2867-449-88-871-390-598-476-591-434-148-57-177-3-8-1"
       id="radialGradient3099-6"
       gradientUnits="userSpaceOnUse"
       gradientTransform="matrix(0,4.5986479,-4.8648362,-1.2516812e-7,89.106957,-53.862133)"
       cx="5.0450659"
       cy="8.4497671"
       fx="5.0450659"
       fy="8.4497671"
       r="19.99999" />
    <linearGradient
       id="linearGradient2867-449-88-871-390-598-476-591-434-148-57-177-3-8-1">
      <stop
         id="stop3750-8-9-8"
         style="stop-color:#90dbec;stop-opacity:1;"
         offset="0" />
      <stop
         id="stop3752-3-2-7"
         style="stop-color:#42baea;stop-opacity:1"
         offset="0.26238" />
      <stop
         id="stop3754-7-2-9"
         style="stop-color:#3689e6;stop-opacity:1;"
         offset="0.704952" />
      <stop
         id="stop3756-9-3-2"
         style="stop-color:#2b63a0;stop-opacity:1;"
         offset="1" />
    </linearGradient>
    <linearGradient
       xlink:href="#linearGradient3707-319-631-407-324-3-8"
       id="linearGradient3101-0"
       gradientUnits="userSpaceOnUse"
       gradientTransform="matrix(1.9745455,0,0,1.9745394,0.6109138,-29.389)"
       x1="24"
       y1="44"
       x2="24"
       y2="3.8990016" />
    <linearGradient
       xlink:href="#linearGradient4011"
       id="linearGradient3096-7"
       gradientUnits="userSpaceOnUse"
       gradientTransform="matrix(2.027027,0,0,2.0270202,-97.405776,-33.399529)"
       x1="71.204407"
       y1="6.2375584"
       x2="71.204407"
       y2="44.340794" />
    <linearGradient
       xlink:href="#linearGradient3707-319-631-407-324-3-8"
       id="linearGradient3893-8"
       x1="16.667377"
       y1="30.501629"
       x2="16.667377"
       y2="0.076143943"
       gradientUnits="userSpaceOnUse"
       gradientTransform="matrix(2.5965537,0,0,2.5965537,6.4429421,-23.638446)" />
    <linearGradient
       xlink:href="#linearGradient4661"
       id="linearGradient3089-9"
       gradientUnits="userSpaceOnUse"
       x1="24.693371"
       y1="12.651934"
       x2="24.693371"
       y2="31.394552"
       gradientTransform="matrix(1.9309498,0,0,1.9058071,2.0850214,-31.108351)" />
    <linearGradient
       xlink:href="#linearGradient4661"
       id="linearGradient3086-7"
       gradientUnits="userSpaceOnUse"
       x1="24.693371"
       y1="34.39452"
       x2="24.693371"
       y2="39.173557"
       gradientTransform="matrix(1.8917577,0,0,1.6949172,2.6243606,-22.794442)" />
  </defs>
  <metadata
     id="metadata3957">
    <rdf:RDF>
      <cc:Work
         rdf:about="">
        <dc:format>image/svg+xml</dc:format>
        <dc:type
           rdf:resource="http://purl.org/dc/dcmitype/StillImage" />
        <dc:title />
      </cc:Work>
    </rdf:RDF>
  </metadata>
  <g
     id="layer1"
     transform="matrix(0.38512587,0,0,0.38512587,-2.4814875,9.1036433)"
     style="display:inline">
    <path
       style="display:inline;overflow:visible;visibility:visible;opacity:0.3;fill:url(#radialGradient3950-2);fill-opacity:1;fill-rule:evenodd;stroke:none;stroke-width:0.944485;marker:none"
       id="path8836"
       d="m 91.741986,46.813539 c 0,8.408743 -19.46328,15.225378 -43.472443,15.225378 -24.009163,0 -43.4724426,-6.816635 -43.4724426,-15.225378 0,-8.408747 19.4632796,-15.225379 43.4724426,-15.225379 24.009163,0 43.472443,6.816632 43.472443,15.225379 z" />
    <path
       style="color:#000000;display:inline;overflow:visible;visibility:visible;fill:url(#radialGradient3099-6);fill-opacity:1;fill-rule:nonzero;stroke:url(#linearGradient3101-0);stroke-width:1;stroke-linecap:round;stroke-linejoin:round;stroke-miterlimit:4;stroke-dasharray:none;stroke-dashoffset:0;stroke-opacity:1;marker:none;enable-background:accumulate"
       id="path2555-7"
       d="m 48.000006,-20.5 c -21.24301,0 -38.5000699,17.2570005 -38.5000699,38.499944 0,21.242942 17.2570599,38.499951 38.5000699,38.499945 21.243,0 38.500085,-17.257003 38.500066,-38.499945 C 86.500072,-3.2429995 69.243006,-20.5 48.000006,-20.5 Z" />
    <path
       style="color:#000000;display:inline;overflow:visible;visibility:visible;opacity:0.5;fill:none;stroke:url(#linearGradient3096-7);stroke-width:1;stroke-linecap:round;stroke-linejoin:round;stroke-miterlimit:4;stroke-dasharray:none;stroke-dashoffset:0;stroke-opacity:1;marker:none;enable-background:accumulate"
       id="path8655-6"
       d="M 85.5,17.998789 C 85.5,38.710071 68.709442,55.5 48.000474,55.5 27.28961,55.5 10.500001,38.709879 10.500001,17.998789 c 0,-20.710323 16.789609,-37.498551 37.500473,-37.498551 20.708968,0 37.499526,16.788228 37.499526,37.498551 z" />
    <path
       style="font-style:normal;font-weight:bold;font-size:72px;font-family:'Standard Symbols L';fill:url(#linearGradient3893-8);fill-opacity:1;stroke:none;stroke-width:2.59655"
       id="path9053"
       d="M 49.760803,26.014573 C 49.632118,21.421082 50.661236,16.961784 55.001041,13.803092 59.584984,10.230816 63.999686,5.7614124 63.533148,0.49299582 63.431285,-4.5879176 57.51127,-8.5693656 51.13289,-9.1418275 c -7.174639,-0.9939335 -15.85591,1.4639422 -18.260085,7.0670581 -1.219341,2.72516337 -0.08862,7.6144283 4.003486,7.6144283 2.393477,0 3.492811,-1.5461205 3.673417,-2.9604607 0.136631,-1.0701309 -0.302698,-2.02574734 -0.562153,-2.90968407 -0.295639,-1.00718783 0.966413,-2.95922653 2.340956,-3.75456033 1.148588,-0.6646022 2.35031,-0.887453 2.527447,-0.9300253 4.124908,-0.9913221 8.236847,1.1983732 9.952421,3.8635032 C 56.523953,1.513559 54.635631,5.5560405 51.920645,9.4871995 49.20566,13.418356 46.292,17.883351 46.30364,22.625904 c 0,1.805493 -0.160856,2.418861 -0.04656,3.149318 0.09132,0.583615 2.023803,0.513087 3.50373,0.239351 z m -1.88248,6.182589 c -3.944061,-0.214112 -6.673904,4.257044 -4.304505,7.105778 2.115984,3.145283 8.048717,2.368846 9.065587,-1.192872 1.057177,-2.769695 -1.486934,-5.95914 -4.76108,-5.912909 z" />
    <path
       style="font-style:normal;font-weight:bold;font-size:72px;font-family:'Standard Symbols L';fill:#ffffff;fill-opacity:1;stroke:none;stroke-width:2.59655"
       id="path3298"
       d="M 49.760803,28.611124 C 49.632118,24.017636 50.661236,19.558338 55.001041,16.399646 59.584984,12.82737 63.999686,8.3579661 63.533148,3.0895508 63.431285,-1.9913652 57.51127,-5.9728129 51.13289,-6.5452753 43.958251,-7.5392088 35.27698,-5.0813329 32.872805,0.52178303 31.653464,3.2469487 32.784185,8.1362126 36.876291,8.1362126 c 2.393477,0 3.492811,-1.5461205 3.673417,-2.9604581 0.136631,-1.0701333 -0.302698,-2.0257507 -0.562153,-2.9096869 -0.295639,-1.0071889 0.966413,-2.95922684 2.340956,-3.7545616 1.148588,-0.664602 2.35031,-0.8874525 2.527447,-0.9300251 4.124908,-0.9913221 8.236847,1.1983729 9.952421,3.8635032 1.715574,2.6651292 -0.172748,6.7076101 -2.887734,10.6387689 -2.714985,3.931157 -5.628645,8.396151 -5.617005,13.138705 0,1.805493 -0.160856,2.418861 -0.04656,3.149318 0.09132,0.583615 2.023803,0.513087 3.50373,0.23935 z m -1.88248,6.182592 c -3.944061,-0.214112 -6.673904,4.257044 -4.304505,7.105778 2.115984,3.145283 8.048717,2.368846 9.065587,-1.192873 1.057177,-2.769694 -1.486934,-5.95914 -4.76108,-5.912908 z" />
    <path
       style="font-style:normal;font-weight:bold;font-size:72px;font-family:'Standard Symbols L';opacity:0.1;fill:none;stroke:url(#linearGradient3089-9);stroke-width:2.59655;stroke-opacity:1"
       d="m 56.31565,1.7972253 c 1.395422,3.3892322 -0.625099,6.9389859 -2.429525,9.7613147 -2.934968,4.31761 -6.483704,8.926165 -6.187167,14.411063 -0.308486,1.292445 0.240519,1.896697 1.573652,1.406504 M 62.809885,5.0756366 C 63.291772,2.2999721 61.983958,-0.53388015 59.664062,-2.1376737 55.875041,-5.0113636 50.820449,-5.5731887 46.195159,-5.2608415 41.875114,-4.8006135 37.112798,-3.3183558 34.701145,0.50967167 33.449913,2.6206184 33.776149,6.110654 36.292726,7.1488419"
       id="path4678" />
    <path
       style="font-style:normal;font-weight:bold;font-size:72px;font-family:'Standard Symbols L';opacity:0.1;fill:none;stroke:url(#linearGradient3086-7);stroke-width:2.59655;stroke-opacity:1"
       d="m 47.849197,36.262827 c -2.571756,-0.24849 -5.162865,2.537361 -3.582722,4.639774 1.572128,2.244851 6.00236,2.015334 7.286387,-0.351098 1.022889,-2.141757 -1.263091,-4.407826 -3.703665,-4.288676 z"
       id="path4669" />
  </g>
</svg>
