<?xml version="1.0" encoding="UTF-8" standalone="no"?>
<svg
   id="svg4715"
   height="32"
   width="32"
   version="1.1"
   xmlns:xlink="http://www.w3.org/1999/xlink"
   xmlns="http://www.w3.org/2000/svg"
   xmlns:svg="http://www.w3.org/2000/svg"
   xmlns:rdf="http://www.w3.org/1999/02/22-rdf-syntax-ns#"
   xmlns:cc="http://creativecommons.org/ns#"
   xmlns:dc="http://purl.org/dc/elements/1.1/">
  <defs
     id="defs4717">
    <linearGradient
       id="linearGradient3924">
      <stop
         offset="0"
         style="stop-color:#ffffff;stop-opacity:1"
         id="stop3926" />
      <stop
         offset="0.08071423"
         style="stop-color:#ffffff;stop-opacity:0.23529412"
         id="stop3928" />
      <stop
         offset="0.90786326"
         style="stop-color:#ffffff;stop-opacity:0.15686275"
         id="stop3930" />
      <stop
         offset="1"
         style="stop-color:#ffffff;stop-opacity:0.39215687"
         id="stop3932" />
    </linearGradient>
    <radialGradient
       gradientTransform="matrix(2.003784,0,0,1.4,27.98813,-17.4)"
       gradientUnits="userSpaceOnUse"
       xlink:href="#linearGradient3688-166-749"
       id="radialGradient3163"
       fy="43.5"
       fx="4.9929786"
       r="2.5"
       cy="43.5"
       cx="4.9929786" />
    <linearGradient
       id="linearGradient3688-166-749">
      <stop
         offset="0"
         style="stop-color:#181818;stop-opacity:1"
         id="stop2883" />
      <stop
         offset="1"
         style="stop-color:#181818;stop-opacity:0"
         id="stop2885" />
    </linearGradient>
    <radialGradient
       gradientTransform="matrix(2.003784,0,0,1.4,-20.01187,-104.4)"
       gradientUnits="userSpaceOnUse"
       xlink:href="#linearGradient3688-464-309"
       id="radialGradient3165"
       fy="43.5"
       fx="4.9929786"
       r="2.5"
       cy="43.5"
       cx="4.9929786" />
    <linearGradient
       id="linearGradient3688-464-309">
      <stop
         offset="0"
         style="stop-color:#181818;stop-opacity:1"
         id="stop2889" />
      <stop
         offset="1"
         style="stop-color:#181818;stop-opacity:0"
         id="stop2891" />
    </linearGradient>
    <linearGradient
       gradientUnits="userSpaceOnUse"
       xlink:href="#linearGradient3702-501-757"
       id="linearGradient3167"
       y2="39.999443"
       x2="25.058096"
       y1="47.027729"
       x1="25.058096" />
    <linearGradient
       id="linearGradient3702-501-757">
      <stop
         offset="0"
         style="stop-color:#181818;stop-opacity:0"
         id="stop2895" />
      <stop
         offset="0.5"
         style="stop-color:#181818;stop-opacity:1"
         id="stop2897" />
      <stop
         offset="1"
         style="stop-color:#181818;stop-opacity:0"
         id="stop2899" />
    </linearGradient>
    <linearGradient
       gradientTransform="matrix(0.67567568,0,0,0.67567572,-0.2162133,-0.21620907)"
       gradientUnits="userSpaceOnUse"
       xlink:href="#linearGradient3924"
       id="linearGradient3027"
       y2="41.759991"
       x2="23.999996"
       y1="6.2399888"
       x1="23.999996" />
    <linearGradient
       xlink:href="#linearGradient3600-9-51"
       id="linearGradient1512"
       gradientUnits="userSpaceOnUse"
       gradientTransform="matrix(0.66466012,0,0,0.63927116,-33.187302,-0.08703975)"
       x1="74.838791"
       y1="4.535933"
       x2="74.838791"
       y2="49.779099" />
    <linearGradient
       id="linearGradient3600-9-51">
      <stop
         offset="0"
         style="stop-color:#f4f4f4;stop-opacity:1"
         id="stop3602-0-0" />
      <stop
         offset="1"
         style="stop-color:#dbdbdb;stop-opacity:1"
         id="stop3604-9-04" />
    </linearGradient>
    <linearGradient
       id="linearGradient3104-6">
      <stop
         offset="0"
         style="stop-color:#000000;stop-opacity:0.31782946"
         id="stop3106-3" />
      <stop
         offset="1"
         style="stop-color:#000000;stop-opacity:0.24031007"
         id="stop3108-9" />
    </linearGradient>
    <linearGradient
       xlink:href="#linearGradient3104-6"
       id="linearGradient1572"
       gradientUnits="userSpaceOnUse"
       gradientTransform="matrix(0.80749686,0,0,0.89471714,-45.635114,-9.2419267)"
       x1="72.893349"
       y1="43.73991"
       x2="72.893349"
       y2="12.523938" />
    <linearGradient
       id="linearGradient3155-40-5">
      <stop
         id="stop2541-0"
         style="stop-color:#181818;stop-opacity:1"
         offset="0" />
      <stop
         id="stop2543-6"
         style="stop-color:#dbdbdb;stop-opacity:1"
         offset="0.13482948" />
      <stop
         id="stop2545-4"
         style="stop-color:#a4a4a4;stop-opacity:1"
         offset="0.20224422" />
      <stop
         id="stop2547-6"
         style="stop-color:#ffffff;stop-opacity:1"
         offset="0.26965895" />
      <stop
         id="stop2549-2"
         style="stop-color:#8d8d8d;stop-opacity:1"
         offset="0.44650277" />
      <stop
         id="stop2551-5"
         style="stop-color:#959595;stop-opacity:1"
         offset="0.57114136" />
      <stop
         id="stop2553-8"
         style="stop-color:#cecece;stop-opacity:1"
         offset="0.72038066" />
      <stop
         id="stop2555-6"
         style="stop-color:#181818;stop-opacity:1"
         offset="1" />
    </linearGradient>
    <linearGradient
       id="linearGradient3290-678-5">
      <stop
         id="stop2607-6"
         style="stop-color:#ece5a5;stop-opacity:1"
         offset="0" />
      <stop
         id="stop2609-6"
         style="stop-color:#fcfbf2;stop-opacity:1"
         offset="1" />
    </linearGradient>
    <linearGradient
       id="linearGradient3191-577-0">
      <stop
         id="stop2613-0"
         style="stop-color:#dbce48;stop-opacity:1"
         offset="0" />
      <stop
         id="stop2615-4"
         style="stop-color:#c5b625;stop-opacity:1"
         offset="1" />
    </linearGradient>
    <linearGradient
       x1="23.575972"
       y1="25.356892"
       x2="23.575972"
       y2="31.210939"
       id="linearGradient2697"
       xlink:href="#linearGradient3155-40-5"
       gradientUnits="userSpaceOnUse"
       gradientTransform="matrix(0.6565695,-0.659788,0.7345237,0.7308691,-1.012959,19.863185)"
       spreadMethod="pad" />
    <linearGradient
       x1="30.037716"
       y1="24.989594"
       x2="30.037716"
       y2="30.000141"
       id="linearGradient2691"
       xlink:href="#linearGradient3240-279"
       gradientUnits="userSpaceOnUse"
       gradientTransform="matrix(0.6380091,-0.6411367,0.8596262,0.8553492,-3.419016,16.487099)" />
    <linearGradient
       id="linearGradient3240-279">
      <stop
         id="stop2559"
         style="stop-color:#565656;stop-opacity:1"
         offset="0" />
      <stop
         id="stop2561"
         style="stop-color:#9a9a9a;stop-opacity:1"
         offset="0.5" />
      <stop
         id="stop2563"
         style="stop-color:#545454;stop-opacity:1"
         offset="1" />
    </linearGradient>
    <linearGradient
       x1="30.037716"
       y1="24.989594"
       x2="30.037716"
       y2="30.000141"
       id="linearGradient2688"
       xlink:href="#linearGradient3223-789"
       gradientUnits="userSpaceOnUse"
       gradientTransform="matrix(0.6380091,-0.6411367,0.8596262,0.8553492,-3.601733,16.670712)" />
    <linearGradient
       id="linearGradient3223-789">
      <stop
         id="stop2567"
         style="stop-color:#b1b1b1;stop-opacity:1"
         offset="0" />
      <stop
         id="stop2569"
         style="stop-color:#ffffff;stop-opacity:1"
         offset="0.5" />
      <stop
         id="stop2571"
         style="stop-color:#8f8f8f;stop-opacity:1"
         offset="1" />
    </linearGradient>
    <linearGradient
       x1="30.037716"
       y1="24.989594"
       x2="30.037716"
       y2="30.000141"
       id="linearGradient2685"
       xlink:href="#linearGradient3240-279"
       gradientUnits="userSpaceOnUse"
       gradientTransform="matrix(0.6380091,-0.6411367,0.8596262,0.8553492,-2.784076,15.849046)" />
    <linearGradient
       x1="30.037716"
       y1="24.989594"
       x2="30.037716"
       y2="30.000141"
       id="linearGradient2682"
       xlink:href="#linearGradient3223-789"
       gradientUnits="userSpaceOnUse"
       gradientTransform="matrix(0.6380091,-0.6411367,0.8596262,0.8553492,-2.966794,16.032658)" />
    <linearGradient
       x1="30.037716"
       y1="24.989594"
       x2="30.037716"
       y2="30.000141"
       id="linearGradient2679"
       xlink:href="#linearGradient3240-279"
       gradientUnits="userSpaceOnUse"
       gradientTransform="matrix(0.6380091,-0.6411367,0.8596262,0.8553492,-2.146067,15.207909)" />
    <linearGradient
       x1="30.037716"
       y1="24.989594"
       x2="30.037716"
       y2="30.000141"
       id="linearGradient2676"
       xlink:href="#linearGradient3223-789"
       gradientUnits="userSpaceOnUse"
       gradientTransform="matrix(0.6380091,-0.6411367,0.8596262,0.8553492,-2.328784,15.391523)" />
    <linearGradient
       x1="9"
       y1="29.056757"
       x2="9"
       y2="26.02973"
       id="linearGradient2670"
       xlink:href="#linearGradient3290-678-5"
       gradientUnits="userSpaceOnUse"
       gradientTransform="matrix(0.6380091,-0.6411367,0.8596263,0.8553493,-3.661342,16.73061)" />
    <linearGradient
       x1="5.5178981"
       y1="37.371799"
       x2="9.5220556"
       y2="41.391716"
       id="linearGradient2673"
       xlink:href="#linearGradient3191-577-0"
       gradientUnits="userSpaceOnUse"
       gradientTransform="matrix(0.5603647,0.02418622,0.02415646,0.5596736,19.546549,13.104104)" />
  </defs>
  <metadata
     id="metadata4720">
    <rdf:RDF>
      <cc:Work
         rdf:about="">
        <dc:format>image/svg+xml</dc:format>
        <dc:type
           rdf:resource="http://purl.org/dc/dcmitype/StillImage" />
      </cc:Work>
    </rdf:RDF>
  </metadata>
  <g
     style="display:inline;opacity:0.4"
     id="g3712"
     transform="matrix(0.73684208,0,0,0.57142853,-1.6842105,4.1428584)">
    <rect
       style="fill:url(#radialGradient3163);fill-opacity:1;stroke:none"
       id="rect2801"
       y="40"
       x="38"
       height="7"
       width="5" />
    <rect
       style="fill:url(#radialGradient3165);fill-opacity:1;stroke:none"
       id="rect3696"
       transform="scale(-1)"
       y="-47"
       x="-10"
       height="7"
       width="5" />
    <rect
       style="fill:url(#linearGradient3167);fill-opacity:1;stroke:none"
       id="rect3700"
       y="40"
       x="10"
       height="7.0000005"
       width="28" />
  </g>
  <rect
     style="color:#000000;font-variation-settings:normal;display:inline;overflow:visible;visibility:visible;vector-effect:none;fill:url(#linearGradient1512);fill-opacity:1;fill-rule:nonzero;stroke:none;stroke-width:1;stroke-linecap:butt;stroke-linejoin:miter;stroke-miterlimit:4;stroke-dasharray:none;stroke-dashoffset:0;stroke-opacity:1;-inkscape-stroke:none;marker:none;enable-background:accumulate;stop-color:#000000"
     id="rect5505-21-1-7-2-9"
     y="3"
     x="3"
     ry="0.95083952"
     rx="0.95109963"
     height="26"
     width="26" />
  <rect
     style="color:#000000;font-variation-settings:normal;display:inline;overflow:visible;visibility:visible;opacity:1;vector-effect:none;fill:none;fill-opacity:1;stroke:url(#linearGradient1572);stroke-width:0.999922;stroke-linecap:butt;stroke-linejoin:round;stroke-miterlimit:4;stroke-dasharray:none;stroke-dashoffset:0;stroke-opacity:1;-inkscape-stroke:none;marker:none;enable-background:accumulate;stop-color:#000000;stop-opacity:1"
     id="rect5505-6-6"
     y="2.5"
     x="2.5"
     ry="1.4452612"
     rx="1.4495431"
     height="27"
     width="27" />
  <rect
     style="display:inline;fill:none;stroke:url(#linearGradient3027);stroke-width:0.999998;stroke-linecap:round;stroke-linejoin:round;stroke-miterlimit:4;stroke-dasharray:none;stroke-dashoffset:0;stroke-opacity:1"
     id="rect6741-7"
     y="3.4999998"
     x="3.5"
     ry="0.45069087"
     rx="0.45293415"
     height="25.000002"
     width="25" />
  <g
     id="layer1"
     transform="matrix(0.86321845,0,0,0.8632219,-7.4083376,-10.574886)"
     style="display:inline;stroke-width:1.15845">
    <path
       d="m 24.106014,32.82357 -2.637238,5.820099 6.547739,-0.03257 -0.0048,-0.0267 13.858301,-8.739467 c 0.354271,-0.226993 -1.09389,-2.33446 -2.119176,-3.134752 -1.428989,-1.115404 -2.908714,-1.139408 -3.264023,-0.937071 z"
       id="path2422"
       style="opacity:0.15;fill:#0c0c0c;fill-opacity:1;fill-rule:evenodd;stroke:none;stroke-width:1.15845" />
    <path
       d="m 24.934095,31.028461 c 0.445921,-0.334616 1.697104,0.293067 2.846888,1.43713 1.147034,1.141326 1.75142,2.362602 1.42438,2.812888 -0.0012,0.0017 0.02814,0.02504 0.02686,0.02673 L 45.242268,19.216683 C 45.64875,18.808208 45.017185,17.517377 43.830899,16.336995 42.644617,15.156613 41.35062,14.531459 40.944135,14.939936 Z"
       id="rect2383"
       style="display:inline;fill:url(#linearGradient2697);fill-opacity:1;stroke:#0c0c0c;stroke-width:0.579226;stroke-linecap:butt;stroke-linejoin:round;stroke-miterlimit:4;stroke-dasharray:none;stroke-dashoffset:0;stroke-opacity:1" />
    <path
       d="m 38.990234,16.903417 c 0.445921,-0.334616 1.697105,0.293068 2.846888,1.43713 1.147033,1.141325 1.75142,2.362602 1.424379,2.812887 -0.0012,0.0017 0.02814,0.02504 0.02686,0.02673 l 1.967113,-1.98403 0.01059,-0.0229 c 0.132247,-0.150672 -0.01203,-0.02165 -0.01078,-0.02336 0.362466,-0.433028 -0.277352,-1.671561 -1.424385,-2.812886 -1.149782,-1.144062 -2.400965,-1.771747 -2.846887,-1.43713 l -0.03988,0.04007 -1.953901,1.963481 z"
       id="rect3175"
       style="display:inline;opacity:0.8;fill:#ffb6ed;fill-opacity:1;stroke:#e28ccd;stroke-width:0.579226;stroke-linecap:butt;stroke-linejoin:round;stroke-miterlimit:4;stroke-dasharray:none;stroke-dashoffset:0;stroke-opacity:1" />
    <path
       d="m 24.934095,31.028459 c 0.445921,-0.334616 1.697105,0.293068 2.846887,1.43713 1.147034,1.141326 1.751421,2.362602 1.42438,2.812888 -0.0012,0.0017 0.02814,0.02504 0.02687,0.02673 l 11.025592,-11.079643 0.03988,-0.04007 c 0.0013,-0.0017 -0.02811,-0.02502 -0.02686,-0.02673 0.327034,-0.450289 -0.277353,-1.671564 -1.424386,-2.81289 -1.149783,-1.144062 -2.400968,-1.771746 -2.846889,-1.437129 l -0.03988,0.04007 L 24.9341,31.028459 Z"
       id="path3208"
       style="display:inline;opacity:0.6;fill:#0c0c0c;fill-opacity:1;stroke:none;stroke-width:1.15845" />
    <path
       d="m 36.800145,19.10424 c 0.44592,-0.334617 1.697106,0.293068 2.846888,1.43713 1.147033,1.141325 1.751421,2.362601 1.424379,2.812888 -0.0012,0.0017 0.02814,0.02504 0.02686,0.02673 L 41.29765,23.18063 c 0.0013,-0.0017 -0.02811,-0.02502 -0.02686,-0.02673 0.327042,-0.450286 -0.277346,-1.671563 -1.42438,-2.812886 -1.149782,-1.144063 -2.400967,-1.771747 -2.846887,-1.437131 l -0.199378,0.200356 z"
       id="path3233"
       style="display:inline;fill:url(#linearGradient2691);fill-opacity:1;stroke:none;stroke-width:1.15845" />
    <path
       d="m 36.617427,19.287853 c 0.445922,-0.334617 1.697107,0.293067 2.846888,1.437129 1.147035,1.141326 1.751422,2.362601 1.42438,2.812887 -0.0012,0.0017 0.02813,0.02504 0.02686,0.02673 l 0.199377,-0.200357 c 0.0013,-0.0017 -0.02811,-0.02502 -0.02686,-0.02673 0.327044,-0.450285 -0.277344,-1.671561 -1.424379,-2.812886 -1.149782,-1.144062 -2.400966,-1.771747 -2.846889,-1.43713 l -0.199377,0.200356 z"
       id="path3216"
       style="display:inline;fill:url(#linearGradient2688);fill-opacity:1;stroke:none;stroke-width:1.15845" />
    <path
       d="m 37.435085,18.466187 c 0.445921,-0.334617 1.697105,0.293067 2.846888,1.43713 1.147033,1.141325 1.751421,2.3626 1.42438,2.812887 -0.0012,0.0017 0.02813,0.02504 0.02686,0.02673 l 0.199378,-0.200355 c 0.0013,-0.0017 -0.02811,-0.02502 -0.02686,-0.02673 0.327041,-0.450286 -0.277346,-1.671563 -1.424381,-2.812887 -1.149782,-1.144063 -2.400964,-1.771747 -2.846888,-1.43713 z"
       id="path3248"
       style="display:inline;fill:url(#linearGradient2685);fill-opacity:1;stroke:none;stroke-width:1.15845" />
    <path
       d="m 37.252367,18.6498 c 0.445923,-0.334617 1.697107,0.293067 2.846888,1.437129 1.147035,1.141326 1.751422,2.362601 1.424381,2.812887 -0.0012,0.0017 0.02814,0.02504 0.02686,0.02673 l 0.199377,-0.200356 c 0.0013,-0.0017 -0.02811,-0.02502 -0.02686,-0.02673 0.327042,-0.450286 -0.277345,-1.671563 -1.424379,-2.812886 -1.149781,-1.144063 -2.400966,-1.771748 -2.846889,-1.43713 z"
       id="path3250"
       style="display:inline;fill:url(#linearGradient2682);fill-opacity:1;stroke:none;stroke-width:1.15845" />
    <path
       d="m 38.073095,17.82505 c 0.44592,-0.334616 1.697104,0.293068 2.846887,1.43713 1.147033,1.141325 1.751421,2.362601 1.42438,2.812887 -0.0012,0.0017 0.02813,0.02504 0.02686,0.02673 l 0.199376,-0.200356 c 0.0013,-0.0017 -0.02811,-0.02502 -0.02686,-0.02673 0.327042,-0.450285 -0.277346,-1.671562 -1.42438,-2.812887 -1.14978,-1.144062 -2.400965,-1.771747 -2.846887,-1.437129 z"
       id="path3256"
       style="display:inline;fill:url(#linearGradient2679);fill-opacity:1;stroke:none;stroke-width:1.15845" />
    <path
       d="m 37.890378,18.008663 c 0.445919,-0.334617 1.697105,0.293067 2.846887,1.437131 1.147033,1.141324 1.751422,2.3626 1.424379,2.812885 -0.0012,0.0017 0.02814,0.02504 0.02686,0.02673 l 0.199378,-0.200354 c 0.0013,-0.0017 -0.02811,-0.02502 -0.02686,-0.02673 0.327042,-0.450287 -0.277346,-1.671563 -1.424379,-2.812887 -1.149782,-1.144063 -2.400967,-1.771748 -2.846888,-1.43713 z"
       id="path3258"
       style="display:inline;fill:url(#linearGradient2676);fill-opacity:1;stroke:none;stroke-width:1.15845" />
    <path
       d="m 21.865994,38.310367 7.283734,-2.970838 0.06206,-0.06205 c 0.327041,-0.450289 -0.285228,-1.67166 -1.432262,-2.812988 -1.149783,-1.144062 -2.399488,-1.768277 -2.845409,-1.43366 l -3.068118,7.279536 z"
       id="path3270"
       style="display:inline;fill:url(#linearGradient2670);fill-opacity:1;fill-rule:evenodd;stroke:url(#linearGradient2673);stroke-width:0.579226;stroke-linecap:butt;stroke-linejoin:miter;stroke-miterlimit:4;stroke-dasharray:none;stroke-opacity:1" />
    <path
       d="m 22.697063,36.338766 -0.831516,1.96381 1.986639,-0.814434 C 23.69296,37.297418 23.545968,37.103699 23.354795,36.913478 23.134704,36.694481 22.918224,36.516791 22.697063,36.338766 Z"
       id="path3281"
       style="display:inline;fill:#0c0c0c;fill-opacity:1;fill-rule:evenodd;stroke:#0c0c0c;stroke-width:0.579226;stroke-linecap:butt;stroke-linejoin:miter;stroke-miterlimit:4;stroke-dasharray:none;stroke-opacity:1" />
  </g>
</svg>
