<?xml version="1.0" encoding="UTF-8" standalone="no"?>
<svg
   version="1.1"
   width="32"
   height="32"
   id="svg4248"
   xmlns:xlink="http://www.w3.org/1999/xlink"
   xmlns="http://www.w3.org/2000/svg"
   xmlns:svg="http://www.w3.org/2000/svg"
   xmlns:rdf="http://www.w3.org/1999/02/22-rdf-syntax-ns#"
   xmlns:cc="http://creativecommons.org/ns#"
   xmlns:dc="http://purl.org/dc/elements/1.1/">
  <defs
     id="defs4250">
    <linearGradient
       id="linearGradient4011-4">
      <stop
         id="stop4013-8"
         style="stop-color:#ffffff;stop-opacity:1"
         offset="0" />
      <stop
         id="stop4015-5"
         style="stop-color:#ffffff;stop-opacity:0.23529412"
         offset="0.507761" />
      <stop
         id="stop4017-6"
         style="stop-color:#ffffff;stop-opacity:0.15686275"
         offset="0.83456558" />
      <stop
         id="stop4019-1"
         style="stop-color:#ffffff;stop-opacity:0.39215687"
         offset="1" />
    </linearGradient>
    <linearGradient
       x1="71.204407"
       y1="6.2375584"
       x2="71.204407"
       y2="44.340794"
       id="linearGradient3089"
       xlink:href="#linearGradient4011-4"
       gradientUnits="userSpaceOnUse"
       gradientTransform="matrix(0.72972969,0,0,0.72972969,-36.346075,-2.5039314)" />
    <radialGradient
       cx="0.96534902"
       cy="8.4497671"
       r="19.99999"
       fx="0.96534902"
       fy="8.4497671"
       id="radialGradient3092"
       xlink:href="#linearGradient2867-449-88-871-390-598-476-591-434-148-57-177-3-8"
       gradientUnits="userSpaceOnUse"
       gradientTransform="matrix(0.02218834,3.1295839,-2.7046658,0.0191757,38.832459,-16.183171)" />
    <linearGradient
       id="linearGradient3820-7-2-2">
      <stop
         id="stop3822-2-6-36"
         style="stop-color:#3d3d3d;stop-opacity:1"
         offset="0" />
      <stop
         id="stop3864-8-7-6"
         style="stop-color:#686868;stop-opacity:0.49803922"
         offset="0.5" />
      <stop
         id="stop3824-1-2-4"
         style="stop-color:#686868;stop-opacity:0"
         offset="1" />
    </linearGradient>
    <radialGradient
       cx="99.157013"
       cy="186.17059"
       r="62.769119"
       fx="99.157013"
       fy="186.17059"
       id="radialGradient3315"
       xlink:href="#linearGradient3820-7-2-2"
       gradientUnits="userSpaceOnUse"
       gradientTransform="matrix(0.17524541,0,0,0.05575992,-1.3768101,18.118568)" />
    <linearGradient
       id="linearGradient2867-449-88-871-390-598-476-591-434-148-57-177-3-8">
      <stop
         offset="0"
         style="stop-color:#90dbec;stop-opacity:1;"
         id="stop3750-8-9" />
      <stop
         offset="0.26238"
         style="stop-color:#55c1ec;stop-opacity:1;"
         id="stop3752-3-2" />
      <stop
         offset="0.704952"
         style="stop-color:#3689e6;stop-opacity:1;"
         id="stop3754-7-2" />
      <stop
         offset="1"
         style="stop-color:#2b63a0;stop-opacity:1;"
         id="stop3756-9-3" />
    </linearGradient>
  </defs>
  <metadata
     id="metadata4253">
    <rdf:RDF>
      <cc:Work
         rdf:about="">
        <dc:format>image/svg+xml</dc:format>
        <dc:type
           rdf:resource="http://purl.org/dc/dcmitype/StillImage" />
      </cc:Work>
    </rdf:RDF>
  </metadata>
  <path
     d="m 27.000001,28.499422 a 11,3.4999999 0 1 1 -21.9999997,0 11,3.4999999 0 1 1 21.9999997,0 z"
     id="path3818-0-2"
     style="display:inline;fill:url(#radialGradient3315);fill-opacity:1;stroke:none" />
  <path
     d="M 16.000002,1.4999989 C 7.9994024,1.4999989 1.5,7.9993978 1.5,15.999998 1.5,24.0006 7.9994024,30.500002 16.000002,30.5 24.000599,30.5 30.500007,24.0006 30.5,15.999998 30.5,7.9993978 24.000599,1.4999989 16.000002,1.4999989 Z"
     id="path2555"
     style="color:#000000;display:inline;overflow:visible;visibility:visible;fill:url(#radialGradient3092);fill-opacity:1;fill-rule:nonzero;stroke:none;stroke-width:1;marker:none;enable-background:accumulate" />
  <path
     d="M 16.000002,1.4999989 C 7.999402,1.4999989 1.5,7.9993981 1.5,15.999999 1.5,24.000599 7.999402,30.500002 16.000002,30.5 24.000598,30.5 30.500008,24.000599 30.5,15.999999 30.5,7.9993981 24.000598,1.4999989 16.000002,1.4999989 Z"
     id="path2555-6"
     style="color:#000000;display:inline;overflow:visible;visibility:visible;opacity:0.4;fill:none;stroke:#062351;stroke-width:1;stroke-linecap:round;stroke-linejoin:round;stroke-miterlimit:4;stroke-dasharray:none;stroke-dashoffset:0;stroke-opacity:1;marker:none;enable-background:accumulate" />
  <path
     d="m 29.5,15.999521 c 0,7.456085 -6.044601,13.500478 -13.499829,13.500478 C 8.54426,29.499999 2.5,23.455537 2.5,15.999521 2.5,8.5437808 8.54426,2.5000002 16.000171,2.5000002 23.455399,2.5000002 29.5,8.5437808 29.5,15.999521 Z"
     id="path8655"
     style="color:#000000;display:inline;overflow:visible;visibility:visible;opacity:0.5;fill:none;stroke:url(#linearGradient3089);stroke-width:1;stroke-linecap:round;stroke-linejoin:round;stroke-miterlimit:4;stroke-dasharray:none;stroke-dashoffset:0;stroke-opacity:1;marker:none;enable-background:accumulate" />
  <path
     style="color:#bebebe;display:inline;overflow:visible;visibility:visible;opacity:0.15;fill:#105bc4;fill-opacity:1;fill-rule:nonzero;stroke:#105bc4;stroke-width:1;stroke-dasharray:none;stroke-opacity:1;marker:none;enable-background:accumulate"
     d="m 16.001115,7.542547 v 2.663684 c -4.418293,0 -8.0000228,3.577718 -8.0000228,7.991057 0,4.413338 3.5817298,7.991053 8.0000228,7.991053 4.418292,0 8.000024,-3.577715 8.000024,-7.991053 h -2.666677 c 0,2.942224 -2.387819,5.32737 -5.333347,5.32737 -2.945528,0 -5.333349,-2.385146 -5.333349,-5.32737 0,-2.942227 2.387821,-5.327371 5.333349,-5.327371 v 2.663686 l 6.666684,-3.995528 z"
     id="path4533" />
  <path
     id="path4531"
     d="m 15.995688,6.4261826 v 2.6642051 c -4.419151,0 -8.0015743,3.5784163 -8.0015743,7.9926203 0,4.414203 3.5824233,7.992617 8.0015743,7.992617 4.419148,0 8.001573,-3.578414 8.001573,-7.992617 h -2.66719 c 0,2.942801 -2.388284,5.328412 -5.334383,5.328412 -2.946102,0 -5.334384,-2.385611 -5.334384,-5.328412 0,-2.942803 2.388282,-5.328412 5.334384,-5.328412 v 2.664207 l 6.667977,-3.996309 z"
     style="color:#bebebe;display:inline;overflow:visible;visibility:visible;opacity:0.3;fill:#105bc4;fill-opacity:1;fill-rule:nonzero;stroke:#105bc4;stroke-width:1;stroke-opacity:1;marker:none;enable-background:accumulate" />
  <path
     style="color:#bebebe;display:inline;overflow:visible;visibility:visible;opacity:1;fill:#ffffff;fill-opacity:1;fill-rule:nonzero;stroke:none;stroke-width:0.999998;marker:none;enable-background:accumulate"
     d="m 16.005619,5.337524 v 2.6664202 c -4.417872,0 -7.9992609,3.5813918 -7.9992609,7.9992618 0,4.417875 3.5813889,7.999264 7.9992609,7.999264 4.417873,0 7.999264,-3.581389 7.999264,-7.999264 h -2.666421 c 0,2.945249 -2.387594,5.332843 -5.332843,5.332843 -2.945247,0 -5.332842,-2.387594 -5.332842,-5.332843 0,-2.945247 2.387595,-5.332841 5.332842,-5.332841 v 2.666421 l 6.666052,-3.9996284 z"
     id="path2984" />
</svg>
