<?xml version="1.0" encoding="UTF-8" standalone="no"?>
<svg
   height="48"
   width="48"
   id="svg2"
   version="1.1"
   xmlns="http://www.w3.org/2000/svg"
   xmlns:svg="http://www.w3.org/2000/svg"
   xmlns:rdf="http://www.w3.org/1999/02/22-rdf-syntax-ns#"
   xmlns:cc="http://creativecommons.org/ns#"
   xmlns:dc="http://purl.org/dc/elements/1.1/">
  <metadata
     id="metadata16">
    <rdf:RDF>
      <cc:Work
         rdf:about="">
        <dc:format>image/svg+xml</dc:format>
        <dc:type
           rdf:resource="http://purl.org/dc/dcmitype/StillImage" />
      </cc:Work>
    </rdf:RDF>
  </metadata>
  <defs
     id="defs14" />
  <path
     style="color:#bebebe;display:inline;overflow:visible;visibility:visible;opacity:0.4;fill:#efefef;fill-opacity:1;fill-rule:nonzero;stroke:none;stroke-width:1.82311;marker:none;enable-background:accumulate"
     id="path6945-2-3"
     d="M 43,24 C 43,15.99336 39.948057,9.147441 35.53679,6 l -2.92676,2.581679 c 3.798505,2.63628 6.438858,8.572675 6.438858,15.418321 0,6.84562 -2.640353,12.782067 -6.438858,15.418321 L 35.53679,42 C 39.948057,38.852535 43,32.006616 43,24 Z" />
  <path
     style="color:#bebebe;display:inline;overflow:visible;visibility:visible;opacity:0.4;fill:#efefef;fill-opacity:1;fill-rule:nonzero;stroke:none;stroke-width:1.82311;marker:none;enable-background:accumulate"
     d="m 17.666662,10.654234 -8.47083,8.379899 H 5 v 9.931733 h 4.195832 l 8.47083,8.379901 z"
     id="path4080" />
  <path
     style="color:#bebebe;display:inline;overflow:visible;visibility:visible;opacity:0.4;fill:#efefef;fill-opacity:1;fill-rule:nonzero;stroke:none;stroke-width:1.82311;marker:none;enable-background:accumulate"
     d="M 29.977075,10.887009 27.28541,13.253554 C 29.730999,15.802683 31.283324,19.65581 31.283324,24 c 0,4.34419 -1.552325,8.197317 -3.997914,10.746445 l 2.691665,2.366547 C 33.145691,34.131361 35.241657,29.414657 35.241657,24 c 0,-5.414682 -2.095966,-10.131336 -5.264582,-13.112991 z"
     id="path4078" />
  <path
     style="color:#bebebe;display:inline;overflow:visible;visibility:visible;opacity:0.4;fill:#efefef;fill-opacity:1;fill-rule:nonzero;stroke:none;stroke-width:1.82311;marker:none;enable-background:accumulate"
     d="m 24.870827,15.309734 -2.810416,2.444137 c 1.095223,1.794466 1.78125,3.950359 1.78125,6.246129 0,2.295745 -0.686027,4.451639 -1.78125,6.246129 l 2.810416,2.444137 C 26.684502,30.324503 27.799992,27.291649 27.799992,24 c 0,-3.29165 -1.11549,-6.324503 -2.929165,-8.690266 z"
     id="path6943-6" />
  <rect
     style="font-variation-settings:normal;opacity:1;vector-effect:none;fill:#efefef;fill-opacity:1;stroke:none;stroke-width:0.999995;stroke-linecap:round;stroke-linejoin:round;stroke-miterlimit:4;stroke-dasharray:none;stroke-dashoffset:0;stroke-opacity:1;-inkscape-stroke:none;paint-order:markers fill stroke;stop-color:#000000;stop-opacity:1"
     id="rect2004"
     width="4"
     height="53.999996"
     x="-2"
     y="6.9411273"
     rx="1.2506306"
     ry="1.3077672"
     transform="rotate(-45)" />
</svg>
