<?xml version="1.0" encoding="UTF-8" standalone="no"?>
<svg
   height="16"
   width="16"
   version="1.1"
   id="svg1"
   xmlns="http://www.w3.org/2000/svg"
   xmlns:svg="http://www.w3.org/2000/svg">
  <defs
     id="defs1" />
  <g
     color="#bebebe"
     transform="translate(-1073,327)"
     id="g1">
    <path
       d="m 1076,-327 c -0.554,0 -1,0.446 -1,1 v 14 c 0,0.554 0.446,1 1,1 h 10 c 0.554,0 1,-0.446 1,-1 v -10 c 0,-0.554 -4.446,-5 -5,-5 z m 0.5,1 h 5.5 v 4 h 4 v 9.5 c 0,0.277 -0.223,0.5 -0.5,0.5 h -9 a 0.499,0.499 0 0 1 -0.5,-0.5 v -13 c 0,-0.277 0.223,-0.5 0.5,-0.5 z"
       fill="#666666"
       overflow="visible"
       style="marker:none"
       id="path1" />
  </g>
</svg>
