<?xml version="1.0" encoding="UTF-8" standalone="no"?>
<svg
   height="16"
   width="16"
   version="1.1"
   id="svg1"
   xmlns="http://www.w3.org/2000/svg"
   xmlns:svg="http://www.w3.org/2000/svg">
  <defs
     id="defs1" />
  <g
     color="#bebebe"
     transform="translate(-1133,327)"
     id="g1">
    <path
       d="m 1134.75,-326 a 0.748,0.748 0 0 0 -0.75,0.75 v 13.5 c 0,0.415 0.335,0.75 0.75,0.75 h 12.5 c 0.416,0 0.75,-0.335 0.75,-0.75 v -13.5 a 0.748,0.748 0 0 0 -0.75,-0.75 z m 0.25,1 h 1 v 1 h -1 z m 2.5,0 h 7 c 0.277,0 0.5,0.223 0.5,0.5 v 5 c 0,0.277 -0.223,0.5 -0.5,0.5 h -7 a 0.499,0.499 0 0 1 -0.5,-0.5 v -5 c 0,-0.277 0.223,-0.5 0.5,-0.5 z m 8.5,0 h 1 v 1 h -1 z m -11,2 h 1 v 1 h -1 z m 11,0 h 1 v 1 h -1 z m -11,2 h 1 v 1 h -1 z m 11,0 h 1 v 1 h -1 z m -11,2 h 1 v 1 h -1 z m 11,0 h 1 v 1 h -1 z m -8.5,1 h 7 c 0.277,0 0.5,0.223 0.5,0.5 v 5 c 0,0.277 -0.223,0.5 -0.5,0.5 h -7 a 0.499,0.499 0 0 1 -0.5,-0.5 v -5 c 0,-0.277 0.223,-0.5 0.5,-0.5 z m -2.5,1 h 1 v 1 h -1 z m 11,0 h 1 v 1 h -1 z m -11,2 h 1 v 1 h -1 z m 11,0 h 1 v 1 h -1 z m -11,2 h 1 v 1 h -1 z m 11,0 h 1 v 1 h -1 z"
       fill="#666666"
       overflow="visible"
       style="marker:none"
       id="path1" />
  </g>
</svg>
