<?xml version="1.0" encoding="UTF-8" standalone="no"?>
<svg
   height="16"
   width="16"
   version="1.1"
   id="svg1"
   xmlns="http://www.w3.org/2000/svg"
   xmlns:svg="http://www.w3.org/2000/svg">
  <defs
     id="defs1" />
  <g
     transform="translate(-1112.998,327)"
     id="g1"
     style="fill:#666666;fill-opacity:1">
    <path
       color="#000000"
       d="m 1122.94,-326.997 c -0.066,0.008 -0.1301,0.0289 -0.188,0.062 l -5.062,2.935 h 3.968 l 0.813,-0.468 0.281,0.468 h 2.281 l -1.593,-2.747 c -0.1021,-0.17539 -0.2984,-0.27357 -0.5,-0.25 z m -6.942,3.97 -2.747,1.593 c -0.2407,0.13902 -0.3243,0.44624 -0.187,0.688 l 2.934,5.062 v -3.968 l -0.469,-0.813 0.469,-0.281 z m 1.5,0.027 c -0.277,0 -0.5,0.224 -0.5,0.5 v 11 c 0,0.278 0.223,0.5 0.5,0.5 h 11 c 0.277,0 0.5,-0.222 0.5,-0.5 v -11 c 0,-0.276 -0.223,-0.5 -0.5,-0.5 z m 1.5,2 h 8 v 7 h -8 z"
       fill="#666"
       overflow="visible"
       style="fill:#666666;marker:none;fill-opacity:1"
       id="path1" />
  </g>
</svg>
