<?xml version="1.0" encoding="UTF-8" standalone="no"?>
<svg
   height="16"
   width="16"
   version="1.1"
   id="svg2"
   xmlns="http://www.w3.org/2000/svg"
   xmlns:svg="http://www.w3.org/2000/svg">
  <defs
     id="defs2" />
  <g
     color="#bebebe"
     transform="translate(-1093,315)"
     id="g2">
    <path
       d="m 1101,-303.03 a 0.498,0.498 0 0 1 -0.375,-0.158 l -2.5,-3 a 0.428,0.428 0 0 1 -0.09,-0.248 c -0.014,-0.266 0.188,-0.556 0.465,-0.564 h 1.5 v -3.5 c 0,-0.262 0.238,-0.5 0.5,-0.5 h 1 a 0.492,0.492 0 0 1 0.094,0 c 0.23,0.044 0.41,0.267 0.406,0.5 v 3.5 h 1.5 c 0.37,0.011 0.606,0.524 0.375,0.813 l -2.5,3 a 0.497,0.497 0 0 1 -0.375,0.158 z"
       fill="#666666"
       overflow="visible"
       style="marker:none"
       id="path1" />
    <path
       d="m 1101,-315 a 8,8 0 1 0 0,16 8,8 0 0 0 0,-16 z m 0,2 a 6,6 0 1 1 0,12 6,6 0 0 1 0,-12 z"
       fill="#666666"
       overflow="visible"
       style="marker:none"
       id="path2" />
  </g>
</svg>
