<?xml version="1.0" encoding="UTF-8" standalone="no"?>
<svg
   height="16"
   width="16"
   version="1.1"
   id="svg1"
   xmlns="http://www.w3.org/2000/svg"
   xmlns:svg="http://www.w3.org/2000/svg">
  <defs
     id="defs1" />
  <g
     color="#bebebe"
     transform="matrix(1.0005721,0,0,0.99949466,-1053.603,326.83475)"
     id="g1"
     style="fill:#666666;stroke-width:0.999967;fill-opacity:1">
    <path
       d="m 1066.37,-327 -7.3726,1.906 c -0.554,0.149 -1,0.74 -1,1.313 v 9.094 c -0.626,-0.32246 -1.3529,-0.40087 -2.0334,-0.22 -1.35,0.351 -2.196,1.485 -1.907,2.532 0.29,1.047 1.619,1.632 2.969,1.281 1.076,-0.28 1.8531,-1.071 1.9711,-1.906 v -8.594 l 6.996,-1.875 v 6.781 c -0.6265,-0.32204 -1.3495,-0.39974 -2.0301,-0.218 -1.35,0.35 -2.196,1.484 -1.906,2.531 0.289,1.047 1.619,1.632 2.968,1.281 1.077,-0.28 1.8496,-1.071 1.9676,-1.906 l 4e-4,-11.188 c 0,-0.43 -0.265,-0.751 -0.624,-0.812 z"
       fill="#666"
       overflow="visible"
       style="fill:#666666;stroke-width:0.999681;marker:none;fill-opacity:1"
       id="path1" />
  </g>
</svg>
