<?xml version="1.0" encoding="UTF-8" standalone="no"?>
<svg
   height="16"
   width="16"
   version="1.1"
   id="svg1"
   viewBox="0 0 16 16"
   xmlns="http://www.w3.org/2000/svg"
   xmlns:svg="http://www.w3.org/2000/svg">
  <defs
     id="defs1" />
  <g
     transform="translate(-1112.998,327)"
     id="g1">
    <path
       color="#000000"
       d="m 1122.94,-326.996 a 0.496,0.496 0 0 0 -0.188,0.062 l -5.062,2.938 h 3.968 l 0.813,-0.469 0.281,0.469 h 2.281 l -1.593,-2.75 a 0.51,0.51 0 0 0 -0.5,-0.25 z m -6.938,3.969 -2.75,1.593 a 0.506,0.506 0 0 0 -0.187,0.688 l 2.937,5.062 v -3.968 l -0.469,-0.813 0.47,-0.281 z m 1.5,0.03 c -0.277,0 -0.5,0.224 -0.5,0.5 v 11 c 0,0.278 0.223,0.5 0.5,0.5 h 11 c 0.277,0 0.5,-0.222 0.5,-0.5 v -11 c 0,-0.276 -0.223,-0.5 -0.5,-0.5 z m 1.5,2 h 8 v 7 h -8 z"
       fill="#666666"
       overflow="visible"
       style="marker:none"
       id="path1" />
  </g>
</svg>
