<?xml version="1.0" encoding="UTF-8" standalone="no"?>
<svg
   height="16"
   width="16"
   version="1.1"
   id="svg1"
   xmlns="http://www.w3.org/2000/svg"
   xmlns:svg="http://www.w3.org/2000/svg">
  <defs
     id="defs1" />
  <g
     color="#bebebe"
     transform="translate(-1233,315)"
     id="g1">
    <path
       d="m 1236.5,-313 c -0.83,0 -1.5,0.669 -1.5,1.5 v 9 c 0,0.831 0.67,1.5 1.5,1.5 h 9 c 0.831,0 1.5,-0.669 1.5,-1.5 v -9 c 0,-0.831 -0.669,-1.5 -1.5,-1.5 h -2.5 z m 0.5,1 h 8 c 0.554,0 1,0.446 1,1 v 6 h -3 c 0,1.108 -0.892,2 -2,2 -1.108,0 -2,-0.892 -2,-2 h -3 v -6 c 0,-0.554 0.446,-1 1,-1 z"
       fill="#666666"
       overflow="visible"
       style="marker:none"
       id="path1" />
  </g>
</svg>
