<?xml version="1.0" encoding="UTF-8" standalone="no"?>
<svg
   version="1.1"
   width="16"
   height="16"
   id="svg3020"
   xmlns="http://www.w3.org/2000/svg"
   xmlns:svg="http://www.w3.org/2000/svg"
   xmlns:rdf="http://www.w3.org/1999/02/22-rdf-syntax-ns#"
   xmlns:cc="http://creativecommons.org/ns#"
   xmlns:dc="http://purl.org/dc/elements/1.1/">
  <defs
     id="defs3022" />
  <metadata
     id="metadata3025">
    <rdf:RDF>
      <cc:Work
         rdf:about="">
        <dc:format>image/svg+xml</dc:format>
        <dc:type
           rdf:resource="http://purl.org/dc/dcmitype/StillImage" />
      </cc:Work>
    </rdf:RDF>
  </metadata>
  <path
     style="color:#bebebe;display:inline;overflow:visible;visibility:visible;fill:#666666;fill-opacity:1;fill-rule:nonzero;stroke:none;stroke-width:1;marker:none;enable-background:accumulate"
     id="path2983"
     d="M 15,6.9972784 H 14 V 3 h -2 v 12 h 2 v -4.00159 h 1 z" />
  <path
     d="m 2.000034,5 0.00101,9.000174 C 2.0011034,14.531519 2.3731329,15 3.0009399,15 h 7.9991671 c 0.501394,0 1.000031,-0.349573 0.999896,-0.999826 l -0.0019,-8.9939812 c 0,0 -9.9871452,0.00681 -9.9980996,-0.00619 z m 3.0024556,2.0041314 1.000537,-0.00582 -0.00513,5.9986126 -0.9992551,10e-4 z m 3.0028928,-3.424e-4 0.9992547,-0.00719 -0.00321,6.004774 -0.9992548,-0.0041 z"
     id="rect10309"
     style="color:#bebebe;display:inline;overflow:visible;visibility:visible;fill:#666666;fill-opacity:1;fill-rule:nonzero;stroke:none;stroke-width:1;marker:none;enable-background:accumulate" />
  <path
     style="color:#000000;display:inline;overflow:visible;visibility:visible;fill:#666666;fill-opacity:1;stroke:none;stroke-width:1;marker:none;enable-background:accumulate"
     id="path5956"
     d="M 6.5002504,2.5635799 C 7.097451,2.8567552 7.1863117,4.5272435 7.1863117,4.5272435 M 7.7717367,2 C 6.9183297,2 6.1792465,2.2756273 5.8129008,2.6756773 5.5754594,2.5905863 5.2943829,2.5405441 4.9922272,2.5405441 c -0.8469402,0 -1.5335245,0.3872056 -1.5335245,0.8648641 0,0.075941 0.021303,0.1494118 0.053913,0.2195907 -0.6116881,0.2326749 -1.0123656,0.6285144 -1.0123656,1.0777003 0,0.7187024 1.0259257,1.2973006 2.3002844,1.2973006 H 9.209417 c 1.274356,0 2.300282,-0.5785982 2.300282,-1.2973006 0,-0.5739136 -0.656952,-1.057776 -1.569466,-1.2297294 0.02476,-0.07459 0.03594,-0.15108 0.03594,-0.2297217 C 9.976173,2.5566165 8.989215,2 7.7717363,2 Z" />
</svg>
