<?xml version="1.0" encoding="UTF-8" standalone="no"?>
<svg
   height="24"
   width="24"
   id="svg2"
   version="1.1"
   xmlns="http://www.w3.org/2000/svg"
   xmlns:svg="http://www.w3.org/2000/svg"
   xmlns:rdf="http://www.w3.org/1999/02/22-rdf-syntax-ns#"
   xmlns:cc="http://creativecommons.org/ns#"
   xmlns:dc="http://purl.org/dc/elements/1.1/">
  <metadata
     id="metadata14">
    <rdf:RDF>
      <cc:Work
         rdf:about="">
        <dc:format>image/svg+xml</dc:format>
        <dc:type
           rdf:resource="http://purl.org/dc/dcmitype/StillImage" />
      </cc:Work>
    </rdf:RDF>
  </metadata>
  <defs
     id="defs12" />
  <path
     style="color:#000000;display:inline;overflow:visible;visibility:visible;fill:#95a3ab;fill-opacity:0.45098;fill-rule:nonzero;stroke:none;stroke-width:1;marker:none;enable-background:accumulate"
     id="path3102"
     d="m 12.000304,14.779279 c -1.039248,0 -2.067572,0.544607 -2.491131,1.012255 L 11.999999,18.50043 13,17.427173 V 16.413 c 0.02831,-0.649112 0.437653,-1.046519 0.707577,-1.195037 -0.488193,-0.252724 -1.099996,-0.438684 -1.707273,-0.438684 z" />
  <path
     style="color:#000000;display:inline;overflow:visible;visibility:visible;fill:#95a3ab;fill-opacity:0.45098;fill-rule:nonzero;stroke:none;stroke-width:1;marker:none;enable-background:accumulate"
     id="path3100"
     d="m 12.000304,10.07565 c -2.172945,0 -4.120528,0.866033 -5.720713,2.188547 L 7.837113,13.9266 c 1.065807,-0.763366 2.724365,-1.499135 4.100308,-1.499135 0.865366,0 1.85453,0.283712 2.739432,0.687373 0.317857,-0.42209 1.317329,-1.340719 2.859818,-1.062096 -1.559105,-1.214301 -3.467716,-1.977092 -5.536367,-1.977092 z" />
  <path
     style="color:#000000;display:inline;overflow:visible;visibility:visible;fill:#95a3ab;fill-opacity:0.45098;fill-rule:nonzero;stroke:none;stroke-width:1;marker:none;enable-background:accumulate"
     id="path4112"
     d="m 12.000304,5.372023 c -3.35536,0 -6.430238,1.2891941 -8.819304,3.4369141 l 1.523878,1.7160759 c 2.13041,-1.8678679 4.371624,-2.8011772 7.295426,-2.8011772 2.923803,0 5.09683,0.8789894 7.329265,2.8389762 L 20.819608,8.8089371 C 18.430542,6.6612171 15.355662,5.372023 12.000304,5.372023 Z" />
  <path
     d="m 17,13 c -1.108,0 -2,0.91 -2,2.031 V 16 h -0.5 c 0,0 -0.5,0 -0.5,0.5 v 3 c 0,0 0,0.5 0.5,0.5 h 5 c 0,0 0.5,0 0.5,-0.5 v -3 C 20,16 19.5,16 19.5,16 H 19 V 15.031 C 19,13.911 18.108,13 17,13 Z m 0,1 c 0.554,0 1,0.442 1,1 v 1 h -2 v -1 c 0,-0.558 0.446,-1 1,-1 z"
     fill="#666666"
     id="path6"
     style="fill:#f9c440" />
</svg>
