<?xml version="1.0" encoding="UTF-8" standalone="no"?>
<svg
   height="16"
   width="16"
   id="svg2"
   version="1.1"
   xmlns="http://www.w3.org/2000/svg"
   xmlns:svg="http://www.w3.org/2000/svg"
   xmlns:rdf="http://www.w3.org/1999/02/22-rdf-syntax-ns#"
   xmlns:cc="http://creativecommons.org/ns#"
   xmlns:dc="http://purl.org/dc/elements/1.1/">
  <metadata
     id="metadata14">
    <rdf:RDF>
      <cc:Work
         rdf:about="">
        <dc:format>image/svg+xml</dc:format>
        <dc:type
           rdf:resource="http://purl.org/dc/dcmitype/StillImage" />
      </cc:Work>
    </rdf:RDF>
  </metadata>
  <defs
     id="defs12" />
  <path
     style="color:#000000;display:inline;fill:#33a4ff;fill-opacity:1;stroke-width:1;-inkscape-stroke:none;paint-order:markers fill stroke"
     d="m 8,10.786638 c -1.5260626,-0.0022 -2.2569297,0.935141 -2.2569297,0.935141 L 8,14.2 9.065514,13.030153 c -0.00865,0.0046 -0.00445,-0.551734 -0.00445,-0.551734 0,0 0.0023,-0.2407 0.02603,-0.453941 0.037524,-0.14434 0.082194,-0.28068 0.1518861,-0.426495 C 9.3195344,11.466116 9.4712464,11.276825 9.5854122,11.18664 9.0250033,10.871114 8.4505363,10.787273 8,10.786638 Z"
     id="path7820-3" />
  <path
     style="color:#000000;display:inline;fill:#33a4ff;fill-opacity:1;stroke-width:1;stroke-linejoin:round;-inkscape-stroke:none;paint-order:markers fill stroke"
     d="M 8,2.2525137 C 2.9254254,2.277263 0,5.3867968 0,5.3867968 l 1.4307615,1.5723287 c 0,0 2.2484293,-2.5778782 6.5692385,-2.5742488 C 12.183947,4.3883967 14.569,6.959 14.569,6.959 l 1.431001,-1.572 c 0,0 -2.873703,-3.1594879 -8.000001,-3.1344863 z"
     id="path38238" />
  <path
     style="color:#000000;display:inline;fill:#33a4ff;fill-opacity:1;stroke-width:1;stroke-linejoin:round;-inkscape-stroke:none;paint-order:markers fill stroke"
     d="m 8,6.5239302 c -3.1914426,0 -5.2346921,1.9162643 -5.2346921,1.9162643 l 1.472726,1.6232495 c 0,0 1.8805323,-1.4172181 3.7619661,-1.4012061 0.9687704,0.00824 1.8563038,0.3167736 2.52572,0.6421156 0,0 0.248019,-0.4319853 0.408525,-0.6205987 C 11.11213,8.4747199 11.314067,8.2815697 11.540747,8.1267963 11.772574,7.9685085 12.297086,7.7564724 12.297086,7.7564724 11.400734,7.206187 9.9052404,6.5239302 8,6.5239302 Z"
     id="path38244" />
  <path
     d="m 13,9 c -1.108,0 -2,0.91 -2,2.031 V 12 h -0.5 c 0,0 -0.5,0 -0.5,0.5 v 3 c 0,0 0,0.5 0.5,0.5 h 5 c 0,0 0.5,0 0.5,-0.5 v -3 C 16,12 15.5,12 15.5,12 H 15 V 11.031 C 15,9.911 14.108,9 13,9 Z m 0,1 c 0.554,0 1,0.442 1,1 v 1 h -2 v -1 c 0,-0.558 0.446,-1 1,-1 z"
     fill="#666666"
     id="path6"
     style="display:inline;fill:#f9c440" />
</svg>
