<?xml version="1.0" encoding="UTF-8" standalone="no"?>
<svg
   height="16"
   width="16"
   id="svg2"
   version="1.1"
   xmlns="http://www.w3.org/2000/svg"
   xmlns:svg="http://www.w3.org/2000/svg"
   xmlns:rdf="http://www.w3.org/1999/02/22-rdf-syntax-ns#"
   xmlns:cc="http://creativecommons.org/ns#"
   xmlns:dc="http://purl.org/dc/elements/1.1/">
  <metadata
     id="metadata14">
    <rdf:RDF>
      <cc:Work
         rdf:about="">
        <dc:format>image/svg+xml</dc:format>
        <dc:type
           rdf:resource="http://purl.org/dc/dcmitype/StillImage" />
      </cc:Work>
    </rdf:RDF>
  </metadata>
  <defs
     id="defs12">
    <clipPath
       clipPathUnits="userSpaceOnUse"
       id="clipPath1715">
      <path
         id="path1717"
         style="display:none;fill:#555761;fill-opacity:0.5;stroke:none;stroke-width:2;stroke-linecap:round;stroke-linejoin:round;paint-order:markers fill stroke;stop-color:#000000"
         d="M 4,3 V 4 H 5 V 3 Z M 5,4 V 5 H 6 V 4 Z M 6,4 H 7 V 3 H 6 Z M 7,4 V 5 H 8 V 4 Z M 8,4 H 9 V 3 H 8 Z m 1,0 v 1 h 1 V 4 Z m 1,0 h 1 V 3 h -1 z m 1,0 v 1 h 1 V 4 Z m 1,1 v 1 h 1 V 5 Z m 0,1 h -1 v 1 h 1 z m -1,1 h -1 v 1 h 1 z m 0,1 v 1 h 1 V 8 Z m 0,1 h -1 v 1 h 1 z m -1,1 H 9 v 1 h 1 z M 9,11 H 8 v 1 H 9 Z M 8,11 V 10 H 7 v 1 z M 7,11 H 6 v 1 H 7 Z M 7,10 V 9 H 6 v 1 z M 6,9 V 8 H 5 V 9 Z M 5,8 V 7 H 4 V 8 Z M 4,7 V 6 H 3 V 7 Z M 4,6 H 5 V 5 H 4 Z M 4,5 V 4 H 3 V 5 Z M 5,6 V 7 H 6 V 6 Z M 6,6 H 7 V 5 H 6 Z M 7,6 V 7 H 8 V 6 Z M 8,6 H 9 V 5 H 8 Z m 1,0 v 1 h 1 V 6 Z m 1,0 h 1 V 5 H 10 Z M 9,7 H 8 v 1 h 1 z m 0,1 v 1 h 1 V 8 Z M 9,9 H 8 v 1 H 9 Z M 8,9 V 8 H 7 V 9 Z M 7,8 V 7 H 6 v 1 z" />
      <path
         id="lpe_path-effect3156"
         style="display:block;fill:#555761;fill-opacity:0.5;stroke:none;stroke-width:2;stroke-linecap:round;stroke-linejoin:round;paint-order:markers fill stroke;stop-color:#000000"
         class="powerclip"
         d="M -1.4568498,0.0068431 H 17.467937 V 16.246792 H -1.4568498 Z M 4,3 V 4 H 5 V 3 Z M 5,4 V 5 H 6 V 4 Z M 6,4 H 7 V 3 H 6 Z M 7,4 V 5 H 8 V 4 Z M 8,4 H 9 V 3 H 8 Z m 1,0 v 1 h 1 V 4 Z m 1,0 h 1 V 3 h -1 z m 1,0 v 1 h 1 V 4 Z m 1,1 v 1 h 1 V 5 Z m 0,1 h -1 v 1 h 1 z m -1,1 h -1 v 1 h 1 z m 0,1 v 1 h 1 V 8 Z m 0,1 h -1 v 1 h 1 z m -1,1 H 9 v 1 h 1 z M 9,11 H 8 v 1 H 9 Z M 8,11 V 10 H 7 v 1 z M 7,11 H 6 v 1 H 7 Z M 7,10 V 9 H 6 v 1 z M 6,9 V 8 H 5 V 9 Z M 5,8 V 7 H 4 V 8 Z M 4,7 V 6 H 3 V 7 Z M 4,6 H 5 V 5 H 4 Z M 4,5 V 4 H 3 V 5 Z M 5,6 V 7 H 6 V 6 Z M 6,6 H 7 V 5 H 6 Z M 7,6 V 7 H 8 V 6 Z M 8,6 H 9 V 5 H 8 Z m 1,0 v 1 h 1 V 6 Z m 1,0 h 1 V 5 H 10 Z M 9,7 H 8 v 1 h 1 z m 0,1 v 1 h 1 V 8 Z M 9,9 H 8 v 1 H 9 Z M 8,9 V 8 H 7 V 9 Z M 7,8 V 7 H 6 v 1 z" />
    </clipPath>
  </defs>
  <path
     d="M 8,2.2661218 C 4.639791,2.2684718 2.000198,3.5045277 0,5.387 c 0,0 8.00055,8.808921 8,8.813 L 16,5.387 C 13.989465,3.4452973 11.26412,2.2638381 8,2.2661218 Z m 0,1.0659779 c 2.561761,0 4.432505,0.7961476 6.403,2.2652073 L 8,12.626364 1.596938,5.597307 C 3.568571,4.1282473 5.439379,3.3320997 8,3.3320997 Z"
     overflow="visible"
     style="display:inline;fill:#33a4ff;fill-opacity:1;stroke-width:1;marker:none"
     id="path2-3"
     fill="#666666" />
  <path
     d="m 8.0055438,5.0068431 c 2.0363402,0 2.8957002,0.1635305 4.4623932,1.3315441 L 8.0055438,11.246786 C 8.0044168,11.253276 3.5431502,6.3383872 3.5431502,6.3383872 5.1107474,5.1703736 5.9692042,5.0068431 8.0055438,5.0068431 Z"
     overflow="visible"
     style="display:inline;fill:#33a4ff;fill-opacity:1;fill-rule:nonzero;stroke-width:0.937662;stroke-dasharray:none;marker:none"
     id="path335"
     fill="#666666"
     clip-path="url(#clipPath1715)"
     transform="matrix(1.0666921,0,0,1.0662749,-0.5394503,-0.9384632)" />
</svg>
