<?xml version="1.0" encoding="UTF-8" standalone="no"?>
<svg
   height="16"
   width="16"
   id="svg2"
   version="1.1"
   xmlns="http://www.w3.org/2000/svg"
   xmlns:svg="http://www.w3.org/2000/svg"
   xmlns:rdf="http://www.w3.org/1999/02/22-rdf-syntax-ns#"
   xmlns:cc="http://creativecommons.org/ns#"
   xmlns:dc="http://purl.org/dc/elements/1.1/">
  <metadata
     id="metadata14">
    <rdf:RDF>
      <cc:Work
         rdf:about="">
        <dc:format>image/svg+xml</dc:format>
        <dc:type
           rdf:resource="http://purl.org/dc/dcmitype/StillImage" />
      </cc:Work>
    </rdf:RDF>
  </metadata>
  <defs
     id="defs12" />
  <path
     color="#000000"
     d="M 8,2.266 C 4.6338733,2.2713415 2.0961056,3.5052302 0,5.387 L 3.2376053,8.949307 C 3.0866053,8.669307 3,8.33507 3,7.99807 3,7.76907 3.0762937,7.5123298 3.1492937,7.3063298 L 1.597,5.597 C 3.7180585,4.0802213 5.4057135,3.2980197 8,3.332 c 2.586444,0.033878 4.246807,0.6854123 6.403,2.265 L 12.861614,7.2944164 C 12.934614,7.5004164 13,7.76907 13,7.99807 c 0,0.337 -0.08314,0.6628243 -0.234135,0.9438243 L 16,5.387 C 14.03156,3.5057765 11.276468,2.2608008 8,2.266 Z M 3.9089747,9.6900411 8,14.2 12.094,9.68507 c -0.327139,0.2070108 -0.706874,0.315655 -1.094,0.313 -0.168,0 -0.371058,-0.044739 -0.521058,-0.089739 L 8.001,12.626 5.5319652,9.9146259 C 5.3819652,9.9586259 5.169,9.99807 5,9.99807 4.3229087,10.002705 3.9734175,9.6581504 3.9089747,9.6900411 Z"
     fill="#666"
     opacity="0.35"
     overflow="visible"
     style="display:inline;opacity:1;fill:#33a4ff;fill-opacity:1;marker:none"
     id="path6" />
  <path
     d="M 5,7 A 1,1 0 1 0 5,9 1,1 0 0 0 5,7 Z M 8,7 A 1,1 0 1 0 8,9 1,1 0 0 0 8,7 Z m 3,0 a 1,1 0 1 0 0,2 1,1 0 0 0 0,-2 z"
     fill="#666"
     id="path8-3"
     style="display:inline;fill:#d48e15;fill-opacity:1" />
</svg>
