<?xml version="1.0" encoding="UTF-8" standalone="no"?>
<svg
   height="16"
   width="16"
   id="svg2"
   version="1.1"
   sodipodi:docname="network-offline.svg"
   inkscape:version="1.3.2 (091e20e, 2023-11-25)"
   xmlns:inkscape="http://www.inkscape.org/namespaces/inkscape"
   xmlns:sodipodi="http://sodipodi.sourceforge.net/DTD/sodipodi-0.dtd"
   xmlns="http://www.w3.org/2000/svg"
   xmlns:svg="http://www.w3.org/2000/svg"
   xmlns:rdf="http://www.w3.org/1999/02/22-rdf-syntax-ns#"
   xmlns:cc="http://creativecommons.org/ns#"
   xmlns:dc="http://purl.org/dc/elements/1.1/">
  <sodipodi:namedview
     id="namedview245"
     pagecolor="#ffffff"
     bordercolor="#000000"
     borderopacity="0.25"
     inkscape:showpageshadow="2"
     inkscape:pageopacity="0.0"
     inkscape:pagecheckerboard="0"
     inkscape:deskcolor="#d1d1d1"
     showgrid="true"
     inkscape:zoom="35.125"
     inkscape:cx="8"
     inkscape:cy="8"
     inkscape:window-width="1366"
     inkscape:window-height="719"
     inkscape:window-x="0"
     inkscape:window-y="25"
     inkscape:window-maximized="1"
     inkscape:current-layer="svg2"
     showguides="true" />
  <metadata
     id="metadata14">
    <rdf:RDF>
      <cc:Work
         rdf:about="">
        <dc:format>image/svg+xml</dc:format>
        <dc:type
           rdf:resource="http://purl.org/dc/dcmitype/StillImage" />
      </cc:Work>
    </rdf:RDF>
  </metadata>
  <defs
     id="defs12" />
  <path
     id="path3"
     style="display:inline;fill:#33a4ff;fill-opacity:1;stroke-width:1;marker:none"
     inkscape:label="path6-3"
     d="m 8,2.265625 c -3.3602059,0.00235 -5.999804,1.2386233 -8,3.1210938 0,0 7.9953692,8.8166042 8,8.8125002 l 1.5996094,-1.768338 c 0,0 -0.1825458,-0.17687 -0.3353175,-0.351376 C 9.0481195,11.743999 9.0488281,11.474609 9.0488281,11.474609 L 8,12.626953 1.5976562,5.5976562 C 3.5692873,4.128598 5.4393813,3.3320312 8,3.3320312 c 2.561758,0 4.431851,0.7965668 6.402344,2.265625 l -3.123047,3.4277344 c 0,0 0.277412,-0.00481 0.594291,0.1280453 0.197933,0.1044936 0.411568,0.3250797 0.411568,0.3250797 L 16,5.3867188 C 13.989467,3.445018 11.264116,2.2633413 8,2.265625 Z"
     sodipodi:nodetypes="scccccccscccccs" />
  <path
     d="m 15.696169,10.343583 c 0.402068,0.374224 0.331573,1.007881 0.138923,1.202044 l -1.428222,1.43944 1.49376,1.505133 c 0.244581,0.246444 -0.0075,0.83091 -0.269399,1.109561 -0.261919,0.278653 -0.93246,0.501957 -1.135367,0.298565 l -1.49765,-1.501233 -1.550353,1.54626 C 11.265005,16.125727 10.601438,15.829587 10.366489,15.595108 10.13154,15.360629 9.8904086,14.710766 10.053238,14.545394 l 1.536319,-1.560327 -1.48731,-1.490868 c -0.09462,-0.09484 -0.1694852,-0.782352 0.219647,-1.172415 0.434954,-0.4359943 1.085853,-0.3346904 1.185118,-0.235707 l 1.491202,1.486964 1.442255,-1.425374 c 0.210153,-0.2076928 0.853632,-0.1783096 1.2557,0.195916 z"
     id="path2"
     style="display:inline;fill:#ed5353;fill-opacity:1;stroke-width:1"
     sodipodi:nodetypes="zscszscszscssscsz" />
</svg>
