<?xml version="1.0" encoding="UTF-8" standalone="no"?>
<svg
   width="96"
   height="96"
   id="svg4201"
   version="1.1"
   sodipodi:docname="media-optical-audio.svg"
   inkscape:version="1.3.2 (091e20e, 2023-11-25)"
   xmlns:inkscape="http://www.inkscape.org/namespaces/inkscape"
   xmlns:sodipodi="http://sodipodi.sourceforge.net/DTD/sodipodi-0.dtd"
   xmlns:xlink="http://www.w3.org/1999/xlink"
   xmlns="http://www.w3.org/2000/svg"
   xmlns:svg="http://www.w3.org/2000/svg"
   xmlns:rdf="http://www.w3.org/1999/02/22-rdf-syntax-ns#"
   xmlns:cc="http://creativecommons.org/ns#"
   xmlns:dc="http://purl.org/dc/elements/1.1/">
  <sodipodi:namedview
     id="namedview76"
     pagecolor="#ffffff"
     bordercolor="#666666"
     borderopacity="1.0"
     inkscape:pageshadow="2"
     inkscape:pageopacity="0.0"
     inkscape:pagecheckerboard="0"
     showgrid="false"
     inkscape:zoom="5.46875"
     inkscape:cx="48"
     inkscape:cy="48"
     inkscape:window-width="1366"
     inkscape:window-height="719"
     inkscape:window-x="0"
     inkscape:window-y="25"
     inkscape:window-maximized="1"
     inkscape:current-layer="svg4201"
     inkscape:showpageshadow="2"
     inkscape:deskcolor="#d1d1d1"
     showguides="true" />
  <defs
     id="defs4203">
    <linearGradient
       x1="18.775953"
       y1="4.0378027"
       x2="18.203465"
       y2="45.962208"
       id="linearGradient2651"
       xlink:href="#linearGradient6036"
       gradientUnits="userSpaceOnUse"
       gradientTransform="matrix(0.80817772,0,0,-0.80817734,28.323288,4.2044439)" />
    <linearGradient
       id="linearGradient6036">
      <stop
         id="stop6038"
         style="stop-color:#ffffff;stop-opacity:1"
         offset="0" />
      <stop
         id="stop6040"
         style="stop-color:#ffffff;stop-opacity:0"
         offset="1" />
    </linearGradient>
    <linearGradient
       xlink:href="#linearGradient4011"
       id="linearGradient4064"
       gradientUnits="userSpaceOnUse"
       gradientTransform="matrix(2.1891893,0,0,2.1891893,-109.03824,-71.511797)"
       x1="71.204407"
       y1="6.2375584"
       x2="71.204407"
       y2="44.340794" />
    <linearGradient
       id="linearGradient4011">
      <stop
         id="stop4013"
         style="stop-color:#ffffff;stop-opacity:1;"
         offset="0" />
      <stop
         offset="0.507761"
         style="stop-color:#ffffff;stop-opacity:0.23529412;"
         id="stop4015" />
      <stop
         id="stop4017"
         style="stop-color:#ffffff;stop-opacity:0.15686275;"
         offset="0.83456558" />
      <stop
         id="stop4019"
         style="stop-color:#ffffff;stop-opacity:0.39215687;"
         offset="1" />
    </linearGradient>
    <linearGradient
       x1="20.580074"
       y1="10.774516"
       x2="24.27351"
       y2="9.8622112"
       id="linearGradient2682"
       xlink:href="#linearGradient3487"
       gradientUnits="userSpaceOnUse"
       spreadMethod="reflect" />
    <linearGradient
       id="linearGradient3487">
      <stop
         id="stop3489"
         style="stop-color:#e6cde2;stop-opacity:1"
         offset="0" />
      <stop
         id="stop3491"
         style="stop-color:#e6cde2;stop-opacity:0"
         offset="1" />
    </linearGradient>
    <linearGradient
       x1="17.494959"
       y1="11.200086"
       x2="21.047453"
       y2="9.7956104"
       id="linearGradient2684"
       xlink:href="#linearGradient3495"
       gradientUnits="userSpaceOnUse"
       spreadMethod="reflect" />
    <linearGradient
       id="linearGradient3495">
      <stop
         id="stop3497"
         style="stop-color:#c1cbe4;stop-opacity:1"
         offset="0" />
      <stop
         id="stop3499"
         style="stop-color:#c1cbe4;stop-opacity:0"
         offset="1" />
    </linearGradient>
    <linearGradient
       x1="14.084608"
       y1="13.045606"
       x2="16.994024"
       y2="10.732353"
       id="linearGradient2686"
       xlink:href="#linearGradient3503"
       gradientUnits="userSpaceOnUse"
       spreadMethod="reflect" />
    <linearGradient
       id="linearGradient3503">
      <stop
         id="stop3505"
         style="stop-color:#c4ebdd;stop-opacity:1"
         offset="0" />
      <stop
         id="stop3507"
         style="stop-color:#c4ebdd;stop-opacity:0"
         offset="1" />
    </linearGradient>
    <linearGradient
       x1="12.371647"
       y1="16.188046"
       x2="14.609327"
       y2="13.461712"
       id="linearGradient2688"
       xlink:href="#linearGradient3511"
       gradientUnits="userSpaceOnUse"
       spreadMethod="reflect" />
    <linearGradient
       id="linearGradient3511">
      <stop
         id="stop3513"
         style="stop-color:#ebeec7;stop-opacity:1"
         offset="0" />
      <stop
         id="stop3515"
         style="stop-color:#ebeec7;stop-opacity:0"
         offset="1" />
    </linearGradient>
    <linearGradient
       x1="10.609375"
       y1="17.886322"
       x2="9.7297754"
       y2="20.612656"
       id="linearGradient2690"
       xlink:href="#linearGradient3519"
       gradientUnits="userSpaceOnUse"
       spreadMethod="reflect" />
    <linearGradient
       id="linearGradient3519">
      <stop
         id="stop3521"
         style="stop-color:#fcd9cd;stop-opacity:1"
         offset="0" />
      <stop
         id="stop3523"
         style="stop-color:#fcd9cd;stop-opacity:0"
         offset="1" />
    </linearGradient>
    <linearGradient
       x1="20.580074"
       y1="10.774516"
       x2="24.27351"
       y2="9.8622112"
       id="linearGradient2672"
       xlink:href="#linearGradient3487"
       gradientUnits="userSpaceOnUse"
       spreadMethod="reflect" />
    <linearGradient
       x1="17.494959"
       y1="11.200086"
       x2="21.047453"
       y2="9.7956104"
       id="linearGradient2674"
       xlink:href="#linearGradient3495"
       gradientUnits="userSpaceOnUse"
       spreadMethod="reflect" />
    <linearGradient
       x1="14.084608"
       y1="13.045606"
       x2="16.994024"
       y2="10.732353"
       id="linearGradient2676"
       xlink:href="#linearGradient3503"
       gradientUnits="userSpaceOnUse"
       spreadMethod="reflect" />
    <linearGradient
       x1="12.371647"
       y1="16.188046"
       x2="14.609327"
       y2="13.461712"
       id="linearGradient2678"
       xlink:href="#linearGradient3511"
       gradientUnits="userSpaceOnUse"
       spreadMethod="reflect" />
    <linearGradient
       x1="10.609375"
       y1="17.886322"
       x2="9.7297754"
       y2="20.612656"
       id="linearGradient2680"
       xlink:href="#linearGradient3519"
       gradientUnits="userSpaceOnUse"
       spreadMethod="reflect" />
    <linearGradient
       x1="12.2744"
       y1="32.4165"
       x2="35.391201"
       y2="14.2033"
       id="linearGradient2658"
       xlink:href="#linearGradient3263-6"
       gradientUnits="userSpaceOnUse"
       gradientTransform="matrix(0,2.371449,-2.371449,0,102.78049,-72.91479)" />
    <linearGradient
       x1="12.2744"
       y1="32.4165"
       x2="35.391201"
       y2="14.2033"
       id="linearGradient3263-6"
       gradientUnits="userSpaceOnUse">
      <stop
         id="stop3265-8"
         style="stop-color:#dedcde;stop-opacity:1;"
         offset="0" />
      <stop
         id="stop3267-9"
         style="stop-color:#f0f0f0;stop-opacity:1;"
         offset="0.5" />
      <stop
         id="stop3269-2"
         style="stop-color:#d2d2d2;stop-opacity:1"
         offset="1" />
    </linearGradient>
    <linearGradient
       id="linearGradient23419">
      <stop
         id="stop23421"
         style="stop-color:#000000;stop-opacity:1"
         offset="0" />
      <stop
         id="stop23423"
         style="stop-color:#000000;stop-opacity:0"
         offset="1" />
    </linearGradient>
    <radialGradient
       r="22.627417"
       fy="41.63604"
       fx="23.334524"
       cy="41.63604"
       cx="23.334524"
       gradientTransform="matrix(1.9887378,0,0,0.59656582,1.5937467,-9.3386362)"
       gradientUnits="userSpaceOnUse"
       id="radialGradient4199"
       xlink:href="#linearGradient23419" />
    <linearGradient
       inkscape:collect="always"
       xlink:href="#linearGradient3560"
       id="linearGradient3562"
       x1="74.129532"
       y1="-56"
       x2="74.129532"
       y2="56"
       gradientUnits="userSpaceOnUse"
       gradientTransform="matrix(0.74774775,0,0,0.74774775,0.14414456,-16.000002)" />
    <linearGradient
       inkscape:collect="always"
       id="linearGradient3560">
      <stop
         style="stop-color:#000000;stop-opacity:0.30000001;"
         offset="0"
         id="stop3556" />
      <stop
         style="stop-color:#000000;stop-opacity:0.33000001;"
         offset="1"
         id="stop3558" />
    </linearGradient>
    <linearGradient
       x1="16.129335"
       y1="45.258049"
       x2="16.129335"
       y2="4.7419591"
       id="linearGradient2651-3"
       xlink:href="#linearGradient6036-6"
       gradientUnits="userSpaceOnUse"
       gradientTransform="matrix(0.75766665,0,0,-0.7576663,29.553091,2.9416607)" />
    <linearGradient
       id="linearGradient6036-6">
      <stop
         id="stop6038-7"
         style="stop-color:#000000;stop-opacity:0.28;"
         offset="0" />
      <stop
         id="stop6040-5"
         style="stop-color:#000000;stop-opacity:0.23999999;"
         offset="1" />
    </linearGradient>
    <linearGradient
       inkscape:collect="always"
       xlink:href="#linearGradient6036-6"
       id="linearGradient4698"
       x1="62.497486"
       y1="-9.9999886"
       x2="62.497486"
       y2="10.000009"
       gradientUnits="userSpaceOnUse"
       gradientTransform="matrix(0.73684212,0,0,0.73684212,0.84211142,-16.000007)" />
    <linearGradient
       xlink:href="#linearGradient4217"
       id="linearGradient4223"
       x1="85.222839"
       y1="-7.2947068"
       x2="94.180481"
       y2="62.364166"
       gradientUnits="userSpaceOnUse" />
    <linearGradient
       id="linearGradient4217">
      <stop
         style="stop-color:#606060;stop-opacity:1"
         offset="0"
         id="stop4219" />
      <stop
         id="stop4227"
         offset="0.21645743"
         style="stop-color:#404040;stop-opacity:1" />
      <stop
         id="stop4225"
         offset="0.53500211"
         style="stop-color:#474747;stop-opacity:1" />
      <stop
         style="stop-color:#4d4d4d;stop-opacity:1"
         offset="1"
         id="stop4221" />
    </linearGradient>
    <linearGradient
       xlink:href="#linearGradient2372-9"
       id="linearGradient3242"
       gradientUnits="userSpaceOnUse"
       gradientTransform="matrix(0.58875043,0,0,0.62492329,98.735643,-89.360905)"
       x1="28.739122"
       y1="144.11652"
       x2="26.256771"
       y2="125.39074" />
    <linearGradient
       id="linearGradient2372-9">
      <stop
         offset="0"
         style="stop-color:white;stop-opacity:1"
         id="stop2374-9" />
      <stop
         offset="1"
         style="stop-color:white;stop-opacity:0.34482759"
         id="stop2376-4" />
    </linearGradient>
    <radialGradient
       xlink:href="#linearGradient6036"
       id="radialGradient3239-8"
       gradientUnits="userSpaceOnUse"
       gradientTransform="matrix(1.9168865,-0.32434079,0.04183968,1.8697699,70.582286,-27.987745)"
       cx="17.058823"
       cy="41.058823"
       fx="14.757765"
       fy="37.841019"
       r="5.7384715" />
    <linearGradient
       xlink:href="#linearGradient2372-9"
       id="linearGradient3236"
       gradientUnits="userSpaceOnUse"
       gradientTransform="matrix(0.62275413,0,0,0.62328101,63.103011,-84.798498)"
       x1="28.503141"
       y1="137.53885"
       x2="26.256771"
       y2="125.39074" />
    <radialGradient
       xlink:href="#linearGradient6036"
       id="radialGradient3233-4"
       gradientUnits="userSpaceOnUse"
       gradientTransform="matrix(1.9168867,-0.34337468,0.06730196,1.8255213,36.536835,-18.596244)"
       cx="17.058823"
       cy="41.058823"
       fx="14.68769"
       fy="37.45607"
       r="5.7384715" />
  </defs>
  <metadata
     id="metadata4206">
    <rdf:RDF>
      <cc:Work
         rdf:about="">
        <dc:format>image/svg+xml</dc:format>
        <dc:type
           rdf:resource="http://purl.org/dc/dcmitype/StillImage" />
      </cc:Work>
    </rdf:RDF>
  </metadata>
  <g
     id="layer1"
     transform="translate(0,64)">
    <path
       d="M 93,15.499993 C 93.00225,22.95563 72.854454,29 48,29 23.145546,29 2.9976808,22.95563 2.9999985,15.499993 2.9976808,8.0443628 23.145546,2.0000008 48,2.0000008 c 24.854454,0 45.002318,6.044362 45,13.4999922 z"
       id="path23417"
       style="display:inline;overflow:visible;visibility:visible;opacity:0.3;fill:url(#radialGradient4199);fill-opacity:1;fill-rule:evenodd;stroke:none;stroke-width:2;marker:none" />
    <path
       id="path2781"
       style="fill:url(#linearGradient2658);fill-opacity:1;fill-rule:nonzero;stroke:none;stroke-width:1;stroke-miterlimit:4;stroke-opacity:1"
       d="M 48 -57.5 C 24.996959 -57.5 6.5 -39.003038 6.5 -16 C 6.4999959 7.0030382 24.996961 25.5 48 25.5 C 71.003034 25.499992 89.5 7.0030397 89.5 -16 C 89.5 -39.003039 71.003036 -57.5 48 -57.5 z M 48 -30.5 A 14.5 14.5 0 0 1 62.5 -16 A 14.5 14.5 0 0 1 48 -1.5 A 14.5 14.5 0 0 1 33.5 -16 A 14.5 14.5 0 0 1 48 -30.5 z " />
    <path
       id="path2474"
       style="display:inline;overflow:visible;visibility:visible;opacity:0.5;fill:#ffffff;fill-opacity:1;fill-rule:nonzero;stroke:none;stroke-width:0.999994;marker:none;enable-background:accumulate"
       d="M 48 -30.5 C 39.996008 -30.5 33.5 -24.003992 33.5 -16 C 33.5 -7.9960075 39.996008 -1.5 48 -1.5 C 56.003992 -1.5 62.5 -7.9960075 62.5 -16 C 62.5 -24.003992 56.003992 -30.5 48 -30.5 z M 48 -24 A 7.9999995 7.9999995 0 0 1 56 -16 A 7.9999995 7.9999995 0 0 1 48 -8 A 7.9999995 7.9999995 0 0 1 40 -16 A 7.9999995 7.9999995 0 0 1 48 -24 z " />
    <circle
       style="fill:none;fill-rule:evenodd;stroke:url(#linearGradient4698);stroke-width:1;stroke-linecap:round;stroke-opacity:1;stop-color:#000000"
       id="path3498"
       cx="48"
       cy="-16"
       r="7" />
    <path
       d="M 47.999999,-0.99999915 C 39.685714,-0.99999915 33,-7.6857123 33,-16 33,-24.314288 39.685714,-31.000001 47.999999,-31.000001 56.314291,-31.000001 63,-24.314288 63,-16 63,-7.6857123 56.314291,-0.99999915 47.999999,-0.99999915 Z"
       id="path3281-3"
       style="fill:none;stroke:url(#linearGradient2651-3);stroke-width:0.999997;stroke-miterlimit:4;stroke-opacity:1" />
    <g
       transform="matrix(2.0490302,0,0,2.0490302,-0.8175631,-64.805692)"
       id="g3527"
       style="stroke-width:1.33333">
      <path
         d="M 15.856928,5.7307748 20.625,16.34375 C 21.660403,15.885186 22.795334,15.625 24,15.625 c 0.03206,0 0.06178,-3.6e-4 0.09375,0 L 24.10801,4.0047512 c -2.94215,-0.070687 -5.543041,0.6572865 -8.251082,1.7260236 z"
         transform="rotate(1.618417,24.093743,24.175959)"
         id="path3296"
         style="opacity:0.8;fill:url(#linearGradient2672);fill-opacity:1;fill-rule:nonzero;stroke:none;stroke-width:1.33333" />
      <path
         d="m 12.121471,7.9060109 6.931026,9.3601041 c 0.913109,-0.669755 1.965938,-1.167064 3.142629,-1.425169 0.03132,-0.0069 0.06026,-0.01359 0.09157,-0.02009 L 19.857174,4.426276 c -2.888973,0.5613244 -5.31953,1.8556038 -7.735703,3.4797349 z"
         id="path3308"
         style="opacity:0.8;fill:url(#linearGradient2674);fill-opacity:1;fill-rule:nonzero;stroke:none;stroke-width:1.33333" />
      <path
         d="m 8.2523933,11.646535 9.2137237,7.155818 c 0.70865,-0.883264 1.596891,-1.636119 2.666685,-2.18998 0.02847,-0.01474 0.05469,-0.02872 0.08325,-0.0431 L 14.86585,6.2506132 C 12.220599,7.5405321 10.165881,9.452393 8.2523933,11.646535 Z"
         id="path3310"
         style="opacity:0.8;fill:url(#linearGradient2676);fill-opacity:1;fill-rule:nonzero;stroke:none;stroke-width:1.33333" />
      <path
         d="m 5.6328855,16.073974 c 7.1748065,2.242248 7.8502625,7.031463 12.7767855,1.754127 L 10.499985,9.1321388 C 8.2787249,11.062747 6.9132871,13.459349 5.6328855,16.073974 Z"
         id="path3312"
         style="opacity:0.8;fill:url(#linearGradient2678);fill-opacity:1;fill-rule:nonzero;stroke:none;stroke-width:1.33333" />
      <path
         d="M 7.155289,13.193173 C 5.9722117,14.945185 5.2475768,16.829547 4.6301929,18.837116 L 15.96875,21.8125 C 16.184264,21.049497 16.486796,20.297733 16.9375,19.59375 16.95479,19.56675 16.98246,19.52673 17,19.5 Z"
         id="path3314"
         style="opacity:0.8;fill:url(#linearGradient2680);fill-opacity:1;fill-rule:nonzero;stroke:none;stroke-width:1.33333" />
    </g>
    <g
       transform="matrix(-2.0304874,0,0,-2.0304874,96.731685,32.713085)"
       id="g3297"
       style="stroke-width:1.33333">
      <path
         d="M 15.856928,5.7307748 20.625,16.34375 C 21.660403,15.885186 22.795334,15.625 24,15.625 c 0.03206,0 0.06178,-3.6e-4 0.09375,0 L 24.10801,4.0047512 c -2.94215,-0.070687 -5.543041,0.6572865 -8.251082,1.7260236 z"
         transform="rotate(1.618417,24.093743,24.175959)"
         id="path3299"
         style="opacity:0.8;fill:url(#linearGradient2682);fill-opacity:1;fill-rule:nonzero;stroke:none;stroke-width:1.33333" />
      <path
         d="m 12.121471,7.9060109 6.931026,9.3601041 c 0.913109,-0.669755 1.965938,-1.167064 3.142629,-1.425169 0.03132,-0.0069 0.06026,-0.01359 0.09157,-0.02009 L 19.857174,4.426276 c -2.888973,0.5613244 -5.31953,1.8556038 -7.735703,3.4797349 z"
         id="path3301"
         style="opacity:0.8;fill:url(#linearGradient2684);fill-opacity:1;fill-rule:nonzero;stroke:none;stroke-width:1.33333" />
      <path
         d="m 8.2523933,11.646535 9.2137237,7.155818 c 0.70865,-0.883264 1.596891,-1.636119 2.666685,-2.18998 0.02847,-0.01474 0.05469,-0.02872 0.08325,-0.0431 L 14.86585,6.2506132 C 12.220599,7.5405321 10.165881,9.452393 8.2523933,11.646535 Z"
         id="path3303"
         style="opacity:0.8;fill:url(#linearGradient2686);fill-opacity:1;fill-rule:nonzero;stroke:none;stroke-width:1.33333" />
      <path
         d="m 5.6328855,16.073974 c 7.1748065,2.242248 7.8502625,7.031463 12.7767855,1.754127 L 10.499985,9.1321388 C 8.2787249,11.062747 6.9132871,13.459349 5.6328855,16.073974 Z"
         id="path3305"
         style="opacity:0.8;fill:url(#linearGradient2688);fill-opacity:1;fill-rule:nonzero;stroke:none;stroke-width:1.33333" />
      <path
         d="M 7.155289,13.193173 C 5.9722117,14.945185 5.2475768,16.829547 4.6301929,18.837116 L 15.96875,21.8125 C 16.184264,21.049497 16.486796,20.297733 16.9375,19.59375 16.95479,19.56675 16.98246,19.52673 17,19.5 Z"
         id="path3307"
         style="opacity:0.8;fill:url(#linearGradient2690);fill-opacity:1;fill-rule:nonzero;stroke:none;stroke-width:1.33333" />
    </g>
    <path
       style="color:#000000;display:inline;overflow:visible;visibility:visible;opacity:0.55;fill:none;stroke:url(#linearGradient4064);stroke-width:0.999997;stroke-linecap:round;stroke-linejoin:round;stroke-miterlimit:4;stroke-dasharray:none;stroke-dashoffset:0;stroke-opacity:1;marker:none;enable-background:accumulate"
       id="path8655"
       d="m 88.500001,-16.001438 c 0,22.3682567 -18.133799,40.50144 -40.499491,40.50144 -22.36773,0 -40.5005115,-18.1333892 -40.5005115,-40.50144 0,-22.367219 18.1327815,-40.498563 40.5005115,-40.498563 22.365692,0 40.499491,18.131344 40.499491,40.498563 z" />
    <path
       d="M 47.999992,7.0593023e-6 C 39.131418,7.0593023e-6 31.99999,-7.1314201 31.99999,-15.999993 c 0,-8.868573 7.131428,-16 16.000002,-16 8.868573,0 16,7.131427 16,16 0,8.8685729 -7.131427,16.0000000593023 -16,16.0000000593023 z"
       id="path3281"
       style="opacity:0.4;fill:none;stroke:url(#linearGradient2651);stroke-width:1;stroke-miterlimit:4;stroke-opacity:1" />
    <circle
       style="fill:none;fill-opacity:1;fill-rule:evenodd;stroke:url(#linearGradient3562);stroke-width:1;stroke-linecap:round;stroke-opacity:1;stop-color:#000000"
       id="path3554"
       cx="48"
       cy="-16"
       r="41.5" />
  </g>
  <g
     id="layer1-2"
     transform="matrix(0.75007597,0,0,0.75007597,0.04954177,48.20994)">
    <path
       d="m 113.46491,-11.49719 -33.443789,5.273278 c -2.38486,0.915767 -2.46334,2.809305 -2.52034,6.14492 v 39.848778 c -7.77917,-1.72718 -16.91876,4.318974 -16.98528,12.532094 -0.35025,5.27431 5.29925,9.6446 10.43823,9.16156 6.96608,-0.35589 13.29293,-7.07828 12.54705,-14.25637 V 7.629912 L 111.50078,3.279527 c 0,0 0,19.932979 0,28.984549 -7.4543,-2.139358 -16.552439,2.764867 -17.787659,10.60482 -0.87362,5.595894 1.92932,9.837164 6.356109,11.157584 8.28648,2.70598 17.33536,-5.84821 16.35805,-14.382784 -0.0231,-16.0084 0.0698,-32.016851 0,-48.025204 -0.19473,-1.591208 -1.22263,-3.196138 -2.96237,-3.115682 z"
       id="path3406-4"
       style="fill:url(#linearGradient4223);fill-opacity:1;stroke:#333333;stroke-width:1;stroke-linecap:round;stroke-linejoin:round;stroke-miterlimit:4;stroke-dasharray:none;stroke-opacity:1" />
    <path
       d="m 111.98275,2.714928 h 1 v 32.27595 c 0,0.167109 -1,-2.017247 -1,-2.017247 z"
       id="path3996"
       style="opacity:0.25;fill:url(#linearGradient3242);fill-opacity:1;fill-rule:evenodd;stroke:none" />
    <path
       d="M 116,41.296083 C 116,47.13318 111.07513,52.73988 104.99998,53.819 98.92487,54.89812 94,51.04102 94,45.20392 94,39.366823 98.92487,33.760116 104.99998,32.680994 111.07513,31.601876 116,35.458982 116,41.296083 Z"
       id="path2716"
       style="opacity:0.6;fill:url(#radialGradient3239-8);fill-opacity:1;stroke:none" />
    <path
       d="M 78.000013,40.293461 V -2.009628 c 0,0 0.416796,-3.799454 2.458221,-3.807715 0.177397,0.306067 32.913856,-5.190118 32.913856,-5.190118 0,0 -1.22679,1.355713 -15.057582,3.5482 C 78.333141,-4.291769 79,-5.623781 79,-0.406743 V 42 c -0.453467,-0.385545 -0.09048,-1.476286 -0.999987,-1.706539 z"
       id="path2720"
       style="opacity:0.3;fill:url(#linearGradient3236);fill-opacity:1;fill-rule:evenodd;stroke:none" />
    <path
       d="M 83,48.59153 C 83,54.29287 78.075136,59.76919 72.000003,60.82321 65.924867,61.87724 61,58.10984 61,52.40848 61,46.70713 65.924867,41.230815 72.000003,40.176787 78.075136,39.122762 83,42.890169 83,48.59153 Z"
       id="path2712"
       style="opacity:0.6;fill:url(#radialGradient3233-4);fill-opacity:1;stroke:none" />
  </g>
</svg>
