<?xml version="1.0" encoding="UTF-8" standalone="no"?>
<svg
   version="1.1"
   width="16"
   height="16"
   id="svg3810"
   xmlns:xlink="http://www.w3.org/1999/xlink"
   xmlns="http://www.w3.org/2000/svg"
   xmlns:svg="http://www.w3.org/2000/svg"
   xmlns:rdf="http://www.w3.org/1999/02/22-rdf-syntax-ns#"
   xmlns:cc="http://creativecommons.org/ns#"
   xmlns:dc="http://purl.org/dc/elements/1.1/">
  <defs
     id="defs3812">
    <linearGradient
       x1="23.99999"
       y1="6.9230647"
       x2="23.99999"
       y2="41.076912"
       id="linearGradient3988"
       xlink:href="#linearGradient3977"
       gradientUnits="userSpaceOnUse"
       gradientTransform="matrix(0.24324324,0,0,0.35135133,2.1621636,-0.43242804)" />
    <linearGradient
       id="linearGradient3977">
      <stop
         id="stop3979"
         style="stop-color:#ffffff;stop-opacity:1"
         offset="0" />
      <stop
         id="stop3981"
         style="stop-color:#ffffff;stop-opacity:0.23529412"
         offset="0" />
      <stop
         id="stop3983"
         style="stop-color:#ffffff;stop-opacity:0.15686275"
         offset="1" />
      <stop
         id="stop3985"
         style="stop-color:#ffffff;stop-opacity:0.39215687"
         offset="1" />
    </linearGradient>
    <linearGradient
       id="linearGradient3600">
      <stop
         id="stop3602"
         style="stop-color:#f4f4f4;stop-opacity:1"
         offset="0" />
      <stop
         id="stop3604"
         style="stop-color:#dbdbdb;stop-opacity:1"
         offset="1" />
    </linearGradient>
    <linearGradient
       x1="25.132275"
       y1="0.98520643"
       x2="25.132275"
       y2="47.013336"
       id="linearGradient3806"
       xlink:href="#linearGradient3600"
       gradientUnits="userSpaceOnUse"
       gradientTransform="matrix(0.28571361,0,0,0.30419701,1.1428727,0.2326048)" />
    <linearGradient
       id="linearGradient3104-9">
      <stop
         id="stop3106-5"
         style="stop-color:#000000;stop-opacity:0.33950618"
         offset="0" />
      <stop
         id="stop3108-5"
         style="stop-color:#000000;stop-opacity:0.24691358"
         offset="1" />
    </linearGradient>
    <linearGradient
       x1="-51.786404"
       y1="50.786446"
       x2="-51.786404"
       y2="2.9062471"
       id="linearGradient3019"
       xlink:href="#linearGradient3104-9"
       gradientUnits="userSpaceOnUse"
       gradientTransform="matrix(0.25378586,0,0,0.30501865,19.128979,-0.68547704)" />
    <linearGradient
       x1="71.204407"
       y1="6.2375584"
       x2="71.204407"
       y2="44.340794"
       id="linearGradient3252"
       xlink:href="#linearGradient4011"
       gradientUnits="userSpaceOnUse"
       gradientTransform="matrix(0.13513513,0,0,0.13513514,-1.6937177,4.5733462)" />
    <linearGradient
       id="linearGradient4011">
      <stop
         id="stop4013"
         style="stop-color:#ffffff;stop-opacity:1"
         offset="0" />
      <stop
         id="stop4015"
         style="stop-color:#ffffff;stop-opacity:0.23529412"
         offset="0.507761" />
      <stop
         id="stop4017"
         style="stop-color:#ffffff;stop-opacity:0.15686275"
         offset="0.83456558" />
      <stop
         id="stop4019"
         style="stop-color:#ffffff;stop-opacity:0.39215687"
         offset="1" />
    </linearGradient>
    <linearGradient
       x1="12.2744"
       y1="32.4165"
       x2="35.391201"
       y2="14.2033"
       id="linearGradient3270"
       xlink:href="#linearGradient3263"
       gradientUnits="userSpaceOnUse"
       gradientTransform="matrix(0,0.257079,-0.25664617,0,13.925,1.8289977)" />
    <linearGradient
       x1="12.2744"
       y1="32.4165"
       x2="35.391201"
       y2="14.2033"
       id="linearGradient3263"
       gradientUnits="userSpaceOnUse">
      <stop
         id="stop3265"
         style="stop-color:#dedbde;stop-opacity:1"
         offset="0" />
      <stop
         id="stop3267"
         style="stop-color:#e6e6e6;stop-opacity:1"
         offset="0.5" />
      <stop
         id="stop3269"
         style="stop-color:#d2d2d2;stop-opacity:1"
         offset="1" />
    </linearGradient>
    <linearGradient
       x1="-21.915663"
       y1="3"
       x2="-21.915663"
       y2="45.032898"
       id="linearGradient3272"
       xlink:href="#linearGradient3772"
       gradientUnits="userSpaceOnUse"
       gradientTransform="matrix(0.21908624,0,0,0.21945572,13.750788,2.7319573)" />
    <linearGradient
       id="linearGradient3772">
      <stop
         id="stop3774"
         style="stop-color:#b4b4b4;stop-opacity:1"
         offset="0" />
      <stop
         id="stop3776"
         style="stop-color:#969696;stop-opacity:1"
         offset="1" />
    </linearGradient>
    <linearGradient
       id="linearGradient2867-449-88-871-390-598-476-591-434-148-57-177-8-3-3">
      <stop
         offset="0"
         style="stop-color:#ffcd7d;stop-opacity:1"
         id="stop3750-1-0-7" />
      <stop
         offset="0.26238"
         style="stop-color:#fc8f36;stop-opacity:1"
         id="stop3752-3-7-4" />
      <stop
         offset="0.704952"
         style="stop-color:#e23a0e;stop-opacity:1"
         id="stop3754-1-8-5" />
      <stop
         offset="1"
         style="stop-color:#ac441f;stop-opacity:1"
         id="stop3756-1-6-2" />
    </linearGradient>
    <radialGradient
       xlink:href="#linearGradient2867-449-88-871-390-598-476-591-434-148-57-177-8-3-3"
       id="radialGradient4873-1-7"
       gradientUnits="userSpaceOnUse"
       gradientTransform="matrix(0,4.936567,-6.2846274,0,109.99215,-113.64947)"
       cx="18.1481"
       cy="16.231987"
       fx="18.1481"
       fy="16.231987"
       r="12.671875" />
    <radialGradient
       xlink:href="#linearGradient2867-449-88-871-390-598-476-591-434-148-57-177-8-3-3"
       id="radialGradient35"
       gradientUnits="userSpaceOnUse"
       gradientTransform="matrix(0,4.894064,-5.386834,0,93.573877,-115.65504)"
       cx="18.1481"
       cy="16.231987"
       fx="18.1481"
       fy="16.231987"
       r="12.671875" />
    <radialGradient
       xlink:href="#linearGradient2867-449-88-871-390-598-476-591-434-148-57-177-8-3-3"
       id="radialGradient55"
       gradientUnits="userSpaceOnUse"
       gradientTransform="matrix(0,4.9401374,-9.4071587,0,162.66348,-119.78352)"
       cx="18.1481"
       cy="16.231987"
       fx="18.1481"
       fy="16.231987"
       r="12.671875" />
    <radialGradient
       xlink:href="#linearGradient2867-449-88-871-390-598-476-591-434-148-57-177-8-3-3"
       id="radialGradient56"
       gradientUnits="userSpaceOnUse"
       gradientTransform="matrix(0,4.9133725,-9.441559,0,163.26911,-116.09579)"
       cx="18.1481"
       cy="16.231987"
       fx="18.1481"
       fy="16.231987"
       r="12.671875" />
    <radialGradient
       xlink:href="#linearGradient2867-449-88-871-390-598-476-591-434-148-57-177-8-3-3"
       id="radialGradient57"
       gradientUnits="userSpaceOnUse"
       gradientTransform="matrix(0,4.9133725,-9.441559,0,163.26911,-113.10854)"
       cx="18.1481"
       cy="16.231987"
       fx="18.1481"
       fy="16.231987"
       r="12.671875" />
  </defs>
  <metadata
     id="metadata3815">
    <rdf:RDF>
      <cc:Work
         rdf:about="">
        <dc:format>image/svg+xml</dc:format>
        <dc:type
           rdf:resource="http://purl.org/dc/dcmitype/StillImage" />
      </cc:Work>
    </rdf:RDF>
  </metadata>
  <path
     style="display:inline;fill:url(#linearGradient3806);fill-opacity:1;stroke:none"
     id="path4160"
     d="m 3,1 c 2.2915074,0 9.999988,8.904e-4 9.999988,8.904e-4 L 13,15 C 13,15 6.3333332,15 3,15 3,10.333334 3,5.6666664 3,1 Z" />
  <path
     style="display:inline;fill:none;stroke:url(#linearGradient3988);stroke-width:1;stroke-linecap:round;stroke-linejoin:miter;stroke-miterlimit:4;stroke-dasharray:none;stroke-dashoffset:0;stroke-opacity:1"
     id="rect6741-1"
     d="M 12.5,14.5 H 3.4999999 V 1.5 H 12.5 Z" />
  <path
     style="display:inline;fill:none;stroke:url(#linearGradient3019);stroke-width:0.999922;stroke-linecap:butt;stroke-linejoin:round;stroke-miterlimit:4;stroke-dasharray:none;stroke-dashoffset:0;stroke-opacity:1"
     id="path4160-8"
     d="m 2.4999621,0.49997396 c 2.5206756,0 11.0000629,9.54e-4 11.0000629,9.54e-4 l 1.3e-5,14.99909804 c 0,0 -7.3333841,0 -11.000076,0 0,-5.000017 0,-10.000035 10e-8,-15.00005204 z" />
  <path
     style="display:inline;fill:url(#linearGradient3270);fill-rule:nonzero;stroke:url(#linearGradient3272);stroke-width:1;stroke-miterlimit:4;stroke-opacity:1"
     id="path2781"
     d="m 12.487742,7.9988948 c 0,-2.4936668 -2.0018,-4.4988425 -4.4912693,-4.4988425 -2.4894682,0 -4.4912677,2.0051758 -4.4912677,4.4988425 0,2.4936672 2.0017995,4.4988432 4.4912677,4.4988432 2.4894683,-2e-6 4.4912693,-2.005176 4.4912693,-4.4988432 z m -2.9941787,0 c 0,0.7761669 -0.5951879,1.4996138 -1.4970906,1.4996138 -0.9019016,0 -1.4970885,-0.783703 -1.4970885,-1.4996138 0,-0.7360212 0.6197891,-1.4996143 1.4970885,-1.4996143 0.8973645,0 1.4970906,0.7231867 1.4970906,1.4996143 z" />
  <path
     style="color:#000000;display:inline;overflow:visible;visibility:visible;opacity:0.55;fill:none;stroke:url(#linearGradient3252);stroke-width:1;stroke-linecap:round;stroke-linejoin:round;stroke-miterlimit:4;stroke-dasharray:none;stroke-dashoffset:0;stroke-opacity:1;marker:none;enable-background:accumulate"
     id="path8655"
     d="M 10.5,7.9999123 C 10.5,9.3806679 9.3806298,10.5 8.0000314,10.5 6.6193078,10.5 5.4999999,9.3806552 5.4999999,7.9999123 c 0,-1.3806928 1.1193079,-2.4999118 2.5000315,-2.4999118 1.3805984,0 2.4999686,1.119219 2.4999686,2.4999118 z" />
  <g
     id="g39">
    <path
       id="path1"
       style="color:#000000;clip-rule:nonzero;display:inline;overflow:visible;visibility:visible;isolation:auto;mix-blend-mode:normal;color-interpolation:sRGB;color-interpolation-filters:linearRGB;solid-color:#000000;solid-opacity:1;fill:none;fill-opacity:1;fill-rule:nonzero;stroke:#ffffff;stroke-width:2;stroke-linecap:butt;stroke-linejoin:round;stroke-miterlimit:4;stroke-dasharray:none;stroke-dashoffset:0;stroke-opacity:1;marker:none;color-rendering:auto;image-rendering:auto;shape-rendering:auto;text-rendering:auto;enable-background:accumulate;opacity:0.45"
       d="M 12.486328 2.0507812 C 12.209328 2.0507812 11.986328 2.2737824 11.986328 2.5507812 L 11.986328 12.083984 C 11.373579 11.826849 10.607386 11.916556 9.9511719 12.322266 C 8.8821149 12.983598 8.4193754 14.271219 8.9179688 15.197266 C 9.4157948 16.123295 10.685663 16.33756 11.753906 15.675781 C 12.526789 15.196819 13.010675 14.364996 12.984375 13.560547 C 12.984444 13.557147 12.986328 13.554281 12.986328 13.550781 L 12.986328 5.4257812 C 13.106703 5.3593213 13.293718 5.5027013 13.392578 5.5703125 C 14.516008 6.2499867 15.496828 7.3779127 15.566406 8.7675781 C 15.626596 9.5714509 15.458224 10.370995 15.226562 11.134766 C 16.259266 9.4356195 16.203777 7.0716372 14.927734 5.5195312 C 14.104632 4.6606688 13.328433 3.6594728 12.986328 2.4960938 C 12.961378 2.3855885 12.810471 2.0507812 12.486328 2.0507812 z M 6.9960938 3.0117188 L 1 3.0195312 C 0.99434101 3.0264332 0.99414063 4 0.99414062 4 L 7 4 L 6.9960938 3.0117188 z M 0.99414062 6.0058594 L 1.0058594 7.0058594 L 7 7.0058594 L 7 6.0058594 L 0.99414062 6.0058594 z M 1 9.0136719 L 1 10.013672 L 6.9785156 10.011719 C 6.9785156 10.011688 7.0079549 9.0136719 6.9980469 9.0136719 L 1 9.0136719 z M 1 12 L 1 13 L 6.9785156 12.998047 C 6.9785156 12.998016 7.0079549 12 6.9980469 12 L 1 12 z " />
    <path
       id="rect4204"
       style="color:#000000;clip-rule:nonzero;display:inline;overflow:visible;visibility:visible;isolation:auto;mix-blend-mode:normal;color-interpolation:sRGB;color-interpolation-filters:linearRGB;solid-color:#000000;solid-opacity:1;fill:url(#radialGradient4873-1-7);fill-opacity:1;fill-rule:nonzero;stroke:none;stroke-width:1;stroke-linecap:butt;stroke-linejoin:round;stroke-miterlimit:4;stroke-dasharray:none;stroke-dashoffset:0;stroke-opacity:1;marker:none;color-rendering:auto;image-rendering:auto;shape-rendering:auto;text-rendering:auto;enable-background:accumulate"
       d="m 12.485599,2.0500376 c -0.277,0 -0.5,0.2230009 -0.5,0.5 V 12.08324 c -0.61275,-0.257136 -1.378941,-0.167429 -2.0351557,0.238281 -1.069058,0.661333 -1.5317969,1.948952 -1.0332031,2.875 0.4978265,0.92603 1.7676928,1.140295 2.8359368,0.478516 0.772884,-0.478963 1.256769,-1.310784 1.230469,-2.115234 6.9e-5,-0.0034 0.002,-0.0063 0.002,-0.0098 V 5.4250376 c 0.120375,-0.06646 0.30739,0.07692 0.40625,0.1445313 1.123431,0.6796749 2.10425,1.8075988 2.173828,3.1972656 0.06019,0.8038736 -0.108181,1.6034155 -0.339843,2.3671865 1.032705,-1.6991478 0.977215,-4.0631259 -0.298829,-5.6152334 -0.823103,-0.8588633 -1.599301,-1.8600573 -1.941406,-3.0234375 -0.02495,-0.1105054 -0.175857,-0.4453125 -0.5,-0.4453125 z" />
    <path
       id="path56"
       style="color:#000000;clip-rule:nonzero;display:inline;overflow:visible;visibility:visible;isolation:auto;mix-blend-mode:normal;color-interpolation:sRGB;color-interpolation-filters:linearRGB;solid-color:#000000;solid-opacity:1;fill:url(#radialGradient56);fill-opacity:1;fill-rule:nonzero;stroke:none;stroke-width:0.999997;stroke-linecap:butt;stroke-linejoin:round;stroke-miterlimit:4;stroke-dasharray:none;stroke-dashoffset:0;stroke-opacity:1;marker:none;color-rendering:auto;image-rendering:auto;shape-rendering:auto;text-rendering:auto;enable-background:accumulate"
       d="m 0.99999996,9.0127484 v 1.0000006 l 5.97897734,-0.0011 c 0,-3.1e-5 0.028859,-0.9989006 0.018951,-0.9989006 z" />
    <path
       id="path55"
       style="color:#000000;clip-rule:nonzero;display:inline;overflow:visible;visibility:visible;isolation:auto;mix-blend-mode:normal;color-interpolation:sRGB;color-interpolation-filters:linearRGB;solid-color:#000000;solid-opacity:1;fill:url(#radialGradient57);fill-opacity:1;fill-rule:nonzero;stroke:none;stroke-width:0.999997;stroke-linecap:butt;stroke-linejoin:round;stroke-miterlimit:4;stroke-dasharray:none;stroke-dashoffset:0;stroke-opacity:1;marker:none;color-rendering:auto;image-rendering:auto;shape-rendering:auto;text-rendering:auto;enable-background:accumulate"
       d="M 1.0000005,11.999999 V 13 l 5.9789774,-0.0011 c 0,-3.1e-5 0.028859,-0.998901 0.018951,-0.998901 z" />
    <path
       id="path16"
       style="color:#000000;clip-rule:nonzero;display:inline;overflow:visible;visibility:visible;isolation:auto;mix-blend-mode:normal;color-interpolation:sRGB;color-interpolation-filters:linearRGB;solid-color:#000000;solid-opacity:1;fill:url(#radialGradient55);fill-opacity:1;fill-rule:nonzero;stroke:none;stroke-width:1;stroke-linecap:butt;stroke-linejoin:round;stroke-miterlimit:4;stroke-dasharray:none;stroke-dashoffset:0;stroke-opacity:1;marker:none;color-rendering:auto;image-rendering:auto;shape-rendering:auto;text-rendering:auto;enable-background:accumulate"
       d="M 0.99504098,6.0059598 1.0052185,7.0067886 H 7 V 6.0065124 Z" />
    <path
       id="path39"
       style="color:#000000;clip-rule:nonzero;display:inline;overflow:visible;visibility:visible;isolation:auto;mix-blend-mode:normal;color-interpolation:sRGB;color-interpolation-filters:linearRGB;solid-color:#000000;solid-opacity:1;fill:url(#radialGradient35);fill-opacity:1;fill-rule:nonzero;stroke:none;stroke-width:0.999997;stroke-linecap:butt;stroke-linejoin:round;stroke-miterlimit:4;stroke-dasharray:none;stroke-dashoffset:0;stroke-opacity:1;marker:none;color-rendering:auto;image-rendering:auto;shape-rendering:auto;text-rendering:auto;enable-background:accumulate"
       d="M 0.99905788,3.0200174 C 0.99339888,3.0269194 0.99339888,4 0.99339888,4 H 7 L 6.99539,3.0124968 Z" />
  </g>
</svg>
