<?xml version="1.0" encoding="UTF-8" standalone="no"?>
<svg
   version="1.1"
   width="48"
   height="48"
   id="svg11300"
   sodipodi:docname="hardinfo.svg"
   inkscape:version="1.3.2 (091e20e, 2023-11-25)"
   xmlns:inkscape="http://www.inkscape.org/namespaces/inkscape"
   xmlns:sodipodi="http://sodipodi.sourceforge.net/DTD/sodipodi-0.dtd"
   xmlns:xlink="http://www.w3.org/1999/xlink"
   xmlns="http://www.w3.org/2000/svg"
   xmlns:svg="http://www.w3.org/2000/svg"
   xmlns:rdf="http://www.w3.org/1999/02/22-rdf-syntax-ns#"
   xmlns:cc="http://creativecommons.org/ns#"
   xmlns:dc="http://purl.org/dc/elements/1.1/">
  <sodipodi:namedview
     id="namedview106"
     pagecolor="#ffffff"
     bordercolor="#000000"
     borderopacity="0.25"
     inkscape:showpageshadow="2"
     inkscape:pageopacity="0.0"
     inkscape:pagecheckerboard="0"
     inkscape:deskcolor="#d1d1d1"
     showgrid="false"
     inkscape:zoom="12"
     inkscape:cx="24"
     inkscape:cy="31.208333"
     inkscape:window-width="1366"
     inkscape:window-height="719"
     inkscape:window-x="0"
     inkscape:window-y="25"
     inkscape:window-maximized="1"
     inkscape:current-layer="svg11300"
     showguides="true" />
  <metadata
     id="metadata97111">
    <rdf:RDF>
      <cc:Work
         rdf:about="">
        <dc:format>image/svg+xml</dc:format>
        <dc:type
           rdf:resource="http://purl.org/dc/dcmitype/StillImage" />
      </cc:Work>
    </rdf:RDF>
  </metadata>
  <defs
     id="defs3">
    <linearGradient
       inkscape:collect="always"
       id="linearGradient995">
      <stop
         style="stop-color:#f9c440;stop-opacity:0;"
         offset="0"
         id="stop991" />
      <stop
         style="stop-color:#f9c440;stop-opacity:1"
         offset="1"
         id="stop993" />
    </linearGradient>
    <linearGradient
       id="linearGradient4877">
      <stop
         id="stop4879"
         style="stop-color:#747474;stop-opacity:1"
         offset="0" />
      <stop
         id="stop4881"
         style="stop-color:white;stop-opacity:1"
         offset="0.45348784" />
      <stop
         id="stop4883"
         style="stop-color:#3f3f3f;stop-opacity:1"
         offset="1" />
    </linearGradient>
    <linearGradient
       id="linearGradient3437">
      <stop
         id="stop3439"
         style="stop-color:black;stop-opacity:1"
         offset="0" />
      <stop
         id="stop3441"
         style="stop-color:black;stop-opacity:0"
         offset="1" />
    </linearGradient>
    <linearGradient
       id="linearGradient14981-4">
      <stop
         id="stop14983-1"
         style="stop-color:#3a9104;stop-opacity:1"
         offset="0" />
      <stop
         id="stop14985-7"
         style="stop-color:#206b00;stop-opacity:1"
         offset="1" />
    </linearGradient>
    <linearGradient
       x1="7.9242415"
       y1="11.5"
       x2="6.2468581"
       y2="11.5"
       id="linearGradient3956"
       xlink:href="#linearGradient995"
       gradientUnits="userSpaceOnUse"
       gradientTransform="matrix(0,0.66666668,-1,0,29,17.666189)" />
    <linearGradient
       x1="5.0994196"
       y1="19.440414"
       x2="6.4199843"
       y2="19.440414"
       id="linearGradient4002"
       xlink:href="#linearGradient995"
       gradientUnits="userSpaceOnUse"
       gradientTransform="matrix(0.66666668,0,0,1,2.6666666,-4.000475)" />
    <linearGradient
       x1="6.5088186"
       y1="38.401527"
       x2="6.5088186"
       y2="42.27755"
       id="linearGradient4022"
       xlink:href="#linearGradient995"
       gradientUnits="userSpaceOnUse"
       gradientTransform="matrix(1.984375,0,0,1,3.09375,-4.01407)" />
    <radialGradient
       cx="9"
       cy="15.407109"
       r="19.999861"
       fx="9"
       fy="15.407109"
       id="radialGradient4820"
       xlink:href="#linearGradient14981-4"
       gradientUnits="userSpaceOnUse"
       gradientTransform="matrix(2.3160736,0.01430413,-0.01016957,1.6466216,-11.68798,-7.4988916)" />
    <linearGradient
       x1="24"
       y1="19.5"
       x2="25.508558"
       y2="19.5"
       id="linearGradient4859"
       xlink:href="#linearGradient995"
       gradientUnits="userSpaceOnUse"
       gradientTransform="matrix(-0.66666668,0,0,1,41,-4.000475)" />
    <linearGradient
       x1="35.933823"
       y1="22.75"
       x2="51.449436"
       y2="22.75"
       id="linearGradient4867"
       xlink:href="#linearGradient4877"
       gradientUnits="userSpaceOnUse" />
    <linearGradient
       x1="42.365673"
       y1="15.04982"
       x2="42.4007"
       y2="20.018223"
       id="linearGradient4899"
       xlink:href="#linearGradient4877"
       gradientUnits="userSpaceOnUse"
       gradientTransform="matrix(1.2668711,0,0,1.2599528,-10.710343,-5.0925134)" />
    <linearGradient
       x1="42.365673"
       y1="15.04982"
       x2="42.4007"
       y2="20.018223"
       id="linearGradient4925"
       xlink:href="#linearGradient4877"
       gradientUnits="userSpaceOnUse"
       gradientTransform="matrix(1.2668711,0,0,1.2599535,-10.710343,1.9074749)" />
    <radialGradient
       cx="24.45439"
       cy="46.869949"
       r="19.61445"
       fx="24.45439"
       fy="46.869949"
       id="radialGradient3018"
       xlink:href="#linearGradient3437"
       gradientUnits="userSpaceOnUse"
       gradientTransform="matrix(0.81572503,0,0,0.12745709,3.051938,33.52562)" />
    <radialGradient
       gradientTransform="matrix(0.11151981,0,0,0.03548359,25.942029,39.166729)"
       gradientUnits="userSpaceOnUse"
       xlink:href="#linearGradient3820-7-2-2"
       id="radialGradient3108"
       fy="186.17059"
       fx="99.157013"
       r="62.769119"
       cy="186.17059"
       cx="99.157013" />
    <linearGradient
       id="linearGradient3820-7-2-2">
      <stop
         id="stop3822-2-6-36"
         style="stop-color:#3d3d3d;stop-opacity:1"
         offset="0" />
      <stop
         id="stop3864-8-7-6"
         style="stop-color:#686868;stop-opacity:0.49803922"
         offset="0.5" />
      <stop
         id="stop3824-1-2-4"
         style="stop-color:#686868;stop-opacity:0"
         offset="1" />
    </linearGradient>
    <linearGradient
       x1="2035.1652"
       y1="3208.0737"
       x2="2035.1652"
       y2="3241.9966"
       id="linearGradient11527-6-5"
       xlink:href="#linearGradient947-5"
       gradientUnits="userSpaceOnUse"
       gradientTransform="matrix(0.8047894,0,0,0.60165743,-1603.8199,-1904.0804)" />
    <linearGradient
       id="linearGradient947-5">
      <stop
         id="stop943-6"
         style="stop-color:#64baff;stop-opacity:1"
         offset="0" />
      <stop
         id="stop945-2"
         style="stop-color:#3689e6;stop-opacity:1"
         offset="1" />
    </linearGradient>
    <linearGradient
       x1="71.204407"
       y1="6.2375584"
       x2="71.204407"
       y2="44.340794"
       id="linearGradient12398-3"
       xlink:href="#linearGradient4011"
       gradientUnits="userSpaceOnUse"
       gradientTransform="matrix(0.5135135,0,0,0.5135135,0.16386,22.97872)" />
    <linearGradient
       id="linearGradient4011">
      <stop
         id="stop4013"
         style="stop-color:#ffffff;stop-opacity:1"
         offset="0" />
      <stop
         id="stop4015-3"
         style="stop-color:#ffffff;stop-opacity:0.23529412"
         offset="0.507761" />
      <stop
         id="stop4017-2"
         style="stop-color:#ffffff;stop-opacity:0.15686275"
         offset="0.83456558" />
      <stop
         id="stop4019"
         style="stop-color:#ffffff;stop-opacity:0.39215687"
         offset="1" />
    </linearGradient>
    <linearGradient
       x1="71.204407"
       y1="6.2375584"
       x2="71.204407"
       y2="44.340794"
       id="linearGradient3019"
       xlink:href="#linearGradient4011"
       gradientUnits="userSpaceOnUse"
       gradientTransform="matrix(0.98526698,0,0,0.75557564,-49.8792,5.2272725)" />
    <linearGradient
       inkscape:collect="always"
       xlink:href="#linearGradient995"
       id="linearGradient997"
       x1="9.4971371"
       y1="12.000606"
       x2="9.4971371"
       y2="13.012724"
       gradientUnits="userSpaceOnUse" />
    <linearGradient
       x1="71.204407"
       y1="6.2375584"
       x2="71.204407"
       y2="44.340794"
       id="linearGradient3019-9"
       xlink:href="#linearGradient4011"
       gradientUnits="userSpaceOnUse"
       gradientTransform="matrix(0.37837836,0,0,0.16216216,-11.64241,13.388015)" />
    <radialGradient
       xlink:href="#linearGradient2867-449-88-871-390-598-476-591-434-148-57-177-3-8"
       id="radialGradient3099"
       gradientUnits="userSpaceOnUse"
       gradientTransform="matrix(0,1.2965271,-1.3715753,-3.5289472e-8,23.602616,-8.2574466)"
       cx="5.0450659"
       cy="8.4497671"
       fx="5.0450659"
       fy="8.4497671"
       r="19.99999" />
    <linearGradient
       id="linearGradient2867-449-88-871-390-598-476-591-434-148-57-177-3-8">
      <stop
         id="stop3750-8-9"
         style="stop-color:#90dbec;stop-opacity:1;"
         offset="0" />
      <stop
         id="stop3752-3-2"
         style="stop-color:#42baea;stop-opacity:1"
         offset="0.26238" />
      <stop
         id="stop3754-7-2"
         style="stop-color:#3689e6;stop-opacity:1;"
         offset="0.704952" />
      <stop
         id="stop3756-9-3"
         style="stop-color:#2b63a0;stop-opacity:1;"
         offset="1" />
    </linearGradient>
    <linearGradient
       xlink:href="#linearGradient3707-319-631-407-324-3-8"
       id="linearGradient3101"
       gradientUnits="userSpaceOnUse"
       gradientTransform="matrix(0.55669661,0,0,0.55669489,-1.3476557,-1.3575751)"
       x1="24"
       y1="44"
       x2="24"
       y2="3.8990016" />
    <linearGradient
       id="linearGradient3707-319-631-407-324-3-8">
      <stop
         id="stop3760-7-3"
         style="stop-color:#185f9a;stop-opacity:1;"
         offset="0" />
      <stop
         id="stop3762-8-4"
         style="stop-color:#599ec9;stop-opacity:1;"
         offset="1" />
    </linearGradient>
    <linearGradient
       xlink:href="#linearGradient4011"
       id="linearGradient3096"
       gradientUnits="userSpaceOnUse"
       gradientTransform="matrix(0.57149306,0,0,0.57149114,-28.982146,-2.48829)"
       x1="71.204407"
       y1="6.2375584"
       x2="71.204407"
       y2="44.340794" />
    <linearGradient
       gradientTransform="matrix(0.42312112,0,0,0.42290487,-1.5250843,-2.2346798)"
       xlink:href="#linearGradient3707-319-631-407-324-3-8"
       id="linearGradient4092"
       x1="31.071823"
       y1="59.665745"
       x2="31.071823"
       y2="0.35299802"
       gradientUnits="userSpaceOnUse" />
    <linearGradient
       xlink:href="#linearGradient3437"
       id="linearGradient4196"
       gradientUnits="userSpaceOnUse"
       x1="60.948738"
       y1="-5.801291"
       x2="60.948738"
       y2="34.548019"
       gradientTransform="matrix(0.18759753,0,0,0.19163684,-0.26927014,12.566233)" />
    <linearGradient
       xlink:href="#linearGradient3437"
       id="linearGradient4193"
       gradientUnits="userSpaceOnUse"
       x1="69.311714"
       y1="-15.790401"
       x2="69.311714"
       y2="33.986996"
       gradientTransform="matrix(0.18759753,0,0,0.19163684,-0.31274138,12.641118)" />
    <linearGradient
       xlink:href="#linearGradient3437"
       id="linearGradient4190"
       gradientUnits="userSpaceOnUse"
       x1="72.458694"
       y1="-37.888779"
       x2="72.458694"
       y2="-24.791594"
       gradientTransform="matrix(0.18765602,0,0,0.19186213,-0.18013521,12.181452)" />
    <linearGradient
       xlink:href="#linearGradient3437"
       id="linearGradient4187"
       gradientUnits="userSpaceOnUse"
       x1="69.311714"
       y1="21.319286"
       x2="69.311714"
       y2="27.727411"
       gradientTransform="matrix(0.18759753,0,0,0.19163684,-0.18786817,13.115394)" />
    <radialGradient
       gradientTransform="matrix(0.11151981,0,0,0.03548359,0.942029,15.166729)"
       gradientUnits="userSpaceOnUse"
       xlink:href="#linearGradient3820-7-2-2"
       id="radialGradient3108-3"
       fy="186.17059"
       fx="99.157013"
       r="62.769119"
       cy="186.17059"
       cx="99.157013" />
    <radialGradient
       xlink:href="#linearGradient2867-449-88-871-390-598-476-591-434-148-57-177-3-8"
       id="radialGradient3099-7"
       gradientUnits="userSpaceOnUse"
       gradientTransform="matrix(0,1.2965271,-1.3715753,-3.5289472e-8,23.602616,-8.2574466)"
       cx="5.0450659"
       cy="8.4497671"
       fx="5.0450659"
       fy="8.4497671"
       r="19.99999" />
  </defs>
  <path
     d="m 39,39.499524 c 0,1.380714 -7.163442,2.500001 -16,2.500001 -8.836561,0 -16,-1.119287 -16,-2.500001 0,-1.380712 7.163439,-2.499999 16,-2.499999 8.836558,0 16,1.119287 16,2.499999 z"
     id="path2983"
     style="opacity:0.45;fill:url(#radialGradient3018);fill-opacity:1;stroke:none" />
  <rect
     width="6"
     height="5.0000029"
     rx="1"
     ry="1"
     x="38.5"
     y="21.499525"
     id="rect4923"
     style="color:#000000;display:block;overflow:visible;visibility:visible;fill:url(#linearGradient4925);fill-opacity:1;fill-rule:nonzero;stroke:#485a6c;stroke-width:1;stroke-linecap:round;stroke-linejoin:round;stroke-miterlimit:4;stroke-dasharray:none;stroke-dashoffset:0;stroke-opacity:0.5;marker:none" />
  <rect
     width="6"
     height="5"
     rx="1"
     ry="1"
     x="38.5"
     y="14.499525"
     id="rect15011"
     style="color:#000000;display:block;overflow:visible;visibility:visible;fill:url(#linearGradient4899);fill-opacity:1;fill-rule:nonzero;stroke:#485a6c;stroke-width:1;stroke-linecap:round;stroke-linejoin:round;stroke-miterlimit:4;stroke-dasharray:none;stroke-dashoffset:0;stroke-opacity:0.5;marker:none" />
  <path
     d="m 1.5010327,9.999525 0.00391,26 c 0,0.330019 0.1122292,0.500087 0.4950573,0.500087 l 10.503324,0.01563 -0.0039,2.852798 c 0,0.07127 0.0224,0.126335 0.124282,0.12677 l 18.755678,-0.0078 c 0.09242,-0.0037 0.124281,-0.06374 0.124281,-0.12677 l 0.0039,-2.868423 8.992438,0.0078 V 9.503 H 2 c -0.4015202,0 -0.4989673,0.2044174 -0.4989673,0.496525 z"
     id="rect14772"
     style="color:#000000;display:block;overflow:visible;visibility:visible;fill:url(#radialGradient4820);fill-opacity:1;fill-rule:nonzero;stroke:#0e141f;stroke-width:1;stroke-linecap:butt;stroke-linejoin:miter;stroke-miterlimit:4;stroke-dasharray:none;stroke-dashoffset:0;stroke-opacity:0.5;marker:none"
     sodipodi:nodetypes="ccccccccccccc" />
  <path
     d="m 25,19.471758 0.06435,0.530944 2.43565,1.892154 v 4.604669 h -17 v 3.932389"
     id="path14957"
     style="color:#000000;display:block;overflow:visible;visibility:visible;fill:none;stroke:#305526;stroke-width:0.5;stroke-linecap:butt;stroke-linejoin:miter;stroke-miterlimit:4;stroke-dasharray:none;stroke-dashoffset:0;stroke-opacity:1;marker:none"
     sodipodi:nodetypes="cccccc" />
  <path
     d="m 15.5,38.499525 v -4.932147 l 2,-3.067853 h 13.969674 l 2.044194,-1.999822 0.04419,-3.033634 -8.043116,-5.966544 H 33.5 v -4 h -9"
     id="path14826"
     style="color:#000000;display:block;overflow:visible;visibility:visible;fill:none;stroke:#305526;stroke-width:0.5;stroke-linecap:butt;stroke-linejoin:miter;stroke-miterlimit:4;stroke-dasharray:none;stroke-dashoffset:0;stroke-opacity:1;marker:none"
     sodipodi:nodetypes="cccccccccc" />
  <path
     d="m 19.5,38.499524 v -5.067852 l 2,-2.932147"
     id="path14842"
     style="color:#000000;display:block;overflow:visible;visibility:visible;fill:none;stroke:#305526;stroke-width:0.5;stroke-linecap:butt;stroke-linejoin:miter;stroke-miterlimit:4;stroke-dasharray:none;stroke-dashoffset:0;stroke-opacity:1;marker:none"
     sodipodi:nodetypes="ccc" />
  <path
     d="m 22.5,38.499524 v -5.067852 l 2,-2.932147"
     id="path14844"
     style="color:#000000;display:block;overflow:visible;visibility:visible;fill:none;stroke:#305526;stroke-width:0.5;stroke-linecap:butt;stroke-linejoin:miter;stroke-miterlimit:4;stroke-dasharray:none;stroke-dashoffset:0;stroke-opacity:1;marker:none"
     sodipodi:nodetypes="ccc" />
  <path
     d="m 25.5,38.499525 v -5.067853 l 2,-2.932147"
     id="path14846"
     style="color:#000000;display:block;overflow:visible;visibility:visible;fill:none;stroke:#305526;stroke-width:0.5;stroke-linecap:butt;stroke-linejoin:miter;stroke-miterlimit:4;stroke-dasharray:none;stroke-dashoffset:0;stroke-opacity:1;marker:none"
     sodipodi:nodetypes="ccc" />
  <path
     d="m 6.5,15.499525 -3,1 v 2 10 h 7"
     id="path15029"
     style="color:#000000;display:block;overflow:visible;visibility:visible;fill:none;stroke:#305526;stroke-width:0.5;stroke-linecap:butt;stroke-linejoin:miter;stroke-miterlimit:4;stroke-dasharray:none;stroke-dashoffset:0;stroke-opacity:1;marker:none"
     sodipodi:nodetypes="ccccc" />
  <rect
     width="16"
     height="8.0000038"
     rx="1"
     ry="1"
     x="7.5"
     y="13.499525"
     id="rect14857"
     style="color:#000000;display:block;overflow:visible;visibility:visible;fill:#555753;fill-opacity:1;fill-rule:nonzero;stroke:#0e141f;stroke-width:0.999996;stroke-linecap:butt;stroke-linejoin:miter;stroke-miterlimit:4;stroke-dasharray:none;stroke-dashoffset:0;stroke-opacity:1;marker:none" />
  <path
     d="m 6.5,17.499525 -2.984375,1.0625"
     id="path15031"
     style="color:#000000;display:block;overflow:visible;visibility:visible;fill:none;stroke:#305526;stroke-width:0.5;stroke-linecap:butt;stroke-linejoin:miter;stroke-miterlimit:4;stroke-dasharray:none;stroke-dashoffset:0;stroke-opacity:1;marker:none" />
  <path
     d="m 6.5,19.499525 -3,1"
     id="path15033"
     style="color:#000000;display:block;overflow:visible;visibility:visible;fill:#98a332;fill-opacity:1;stroke:#305526;stroke-width:0.5;stroke-linecap:butt;stroke-linejoin:miter;stroke-miterlimit:4;stroke-dasharray:none;stroke-dashoffset:0;stroke-opacity:1;marker:none"
     sodipodi:nodetypes="cc" />
  <path
     d="m 23,14.999525 v 1 h 2 v -1 z m 0,2 v 1 h 2 v -1 z m 0,2 v 1 h 2 v -1 z"
     id="rect14875"
     style="color:#000000;display:block;overflow:visible;visibility:visible;fill:url(#linearGradient4859);fill-opacity:1;fill-rule:nonzero;stroke:none;stroke-width:1;marker:none" />
  <path
     d="m 9,11.999525 v 2 h 1 v -2 z m 2,0 v 2 h 1 v -2 z m 2,0 v 2 h 1 v -2 z m 2,0 v 2 h 1 v -2 z m 2,0 v 2 h 1 v -2 z m 2,0 v 2 h 1 v -2 z m 2,0 v 2 h 1 v -2 z"
     id="rect14901"
     style="color:#000000;display:block;overflow:visible;visibility:visible;fill:url(#linearGradient997);fill-opacity:1;fill-rule:nonzero;stroke:none;stroke-width:1;marker:none" />
  <path
     d="m 9.4575532,22.859525 1.0424468,3.64 h 1.962757 l -1.06066,-3.64"
     id="path14959"
     style="color:#000000;display:block;overflow:visible;visibility:visible;fill:none;stroke:#305526;stroke-width:0.5;stroke-linecap:butt;stroke-linejoin:miter;stroke-miterlimit:4;stroke-dasharray:none;stroke-dashoffset:0;stroke-opacity:1;marker:none"
     sodipodi:nodetypes="cccc" />
  <path
     d="m 13.457553,22.859525 1.042447,3.64 h 1.962757 l -1.06066,-3.64"
     id="path14961"
     style="color:#000000;display:block;overflow:visible;visibility:visible;fill:none;stroke:#305526;stroke-width:0.5;stroke-linecap:butt;stroke-linejoin:miter;stroke-miterlimit:4;stroke-dasharray:none;stroke-dashoffset:0;stroke-opacity:1;marker:none"
     sodipodi:nodetypes="cccc" />
  <path
     d="m 17.457553,22.759525 1.042447,3.74 h 1.962757 l -1.06066,-3.74"
     id="path14963"
     style="color:#000000;display:block;overflow:visible;visibility:visible;fill:none;stroke:#305526;stroke-width:0.5;stroke-linecap:butt;stroke-linejoin:miter;stroke-miterlimit:4;stroke-dasharray:none;stroke-dashoffset:0;stroke-opacity:1;marker:none"
     sodipodi:nodetypes="cccc" />
  <path
     d="M 21.457553,22.781525 22.5,26.499525"
     id="path14965"
     style="color:#000000;display:block;overflow:visible;visibility:visible;fill:none;stroke:#305526;stroke-width:0.5;stroke-linecap:butt;stroke-linejoin:miter;stroke-miterlimit:4;stroke-dasharray:none;stroke-dashoffset:0;stroke-opacity:1;marker:none"
     sodipodi:nodetypes="cc" />
  <path
     d="m 9,20.999525 v 2 h 1 v -2 z m 2,0 v 2 h 1 v -2 z m 2,0 v 2 h 1 v -2 z m 2,0 v 2 h 1 v -2 z m 2,0 v 2 h 1 v -2 z m 2,0 v 2 h 1 v -2 z m 2,0 v 2 h 1 v -2 z"
     id="rect14929"
     style="color:#000000;display:block;overflow:visible;visibility:visible;fill:url(#linearGradient3956);fill-opacity:1;fill-rule:nonzero;stroke:none;stroke-width:1;marker:none" />
  <path
     d="M 2.5000369,35.49952 13.5,35.499525 V 38.5 h 17 v -3.000475 l 9,-0.0023 c 0.004,-4.09e-4 0,-24.994109 0,-24.994109 l -37,-0.0036 c 0.00404,8.338625 -3.7e-5,25.000005 -3.7e-5,25.000005 z"
     id="path14989"
     style="color:#000000;font-variation-settings:normal;display:block;overflow:visible;visibility:visible;opacity:0.5;vector-effect:none;fill:none;fill-opacity:1;stroke:url(#linearGradient3019);stroke-width:1;stroke-linecap:round;stroke-linejoin:round;stroke-miterlimit:4;stroke-dasharray:none;stroke-dashoffset:0;stroke-opacity:1;-inkscape-stroke:none;marker:none;stop-color:#000000;stop-opacity:1"
     sodipodi:nodetypes="cccccccccc" />
  <path
     d="M 15.71875,35.593275 C 15.153661,35.717504 15,36.25715 15,36.499525 v 2.5 h 2 v -2.5 c 0,-0.277 -0.200328,-0.90625 -1,-0.90625 -0.09801,0 -0.200523,-0.01775 -0.28125,0 z m 3,0 C 18.153661,35.717504 18,36.25715 18,36.499525 v 2.5 h 2 v -2.5 c 0,-0.277 -0.200328,-0.90625 -1,-0.90625 -0.09801,0 -0.200523,-0.01775 -0.28125,0 z m 3.03125,0 C 21.184911,35.717504 21,36.25715 21,36.499525 v 2.5 h 2 v -2.5 c 0,-0.277 -0.200328,-0.90625 -1,-0.90625 -0.09801,0 -0.169273,-0.01775 -0.25,0 z m 3,0 C 24.184911,35.717504 24,36.25715 24,36.499525 v 2.5 h 2 v -2.5 c 0,-0.277 -0.200328,-0.90625 -1,-0.90625 -0.09801,0 -0.169273,-0.01775 -0.25,0 z m 3,0 C 27.184911,35.717504 27,36.25715 27,36.499525 v 2.5 h 2 v -2.5 c 0,-0.277 -0.200328,-0.90625 -1,-0.90625 -0.09801,0 -0.169273,-0.01775 -0.25,0 z"
     id="path14796"
     style="color:#000000;display:block;overflow:visible;visibility:visible;fill:url(#linearGradient4022);fill-opacity:1;fill-rule:nonzero;stroke:none;stroke-width:1;marker:none"
     sodipodi:nodetypes="csccssccsccssccsccssccsccssccsccssc" />
  <path
     style="color:#000000;display:block;fill:url(#linearGradient4867);stroke:#0e141f;stroke-width:1;stroke-linecap:round;stroke-linejoin:round;stroke-dasharray:none;stroke-opacity:0.3"
     d="m 40.5,2.5 c -0.552262,5.52e-5 -0.999945,0.4477381 -1,1 v 39 h 2 v -38 h 4 1 v -2 h -1 z"
     id="path15003"
     sodipodi:nodetypes="cccccccccc" />
  <path
     d="m 35.485699,14.999532 a 1.4856964,1.4856964 0 1 1 -2.971392,0 1.4856964,1.4856964 0 1 1 2.971392,0 z"
     id="path15005"
     style="color:#000000;display:block;overflow:visible;visibility:visible;fill:#3689e6;fill-opacity:1;fill-rule:nonzero;stroke:#334560;stroke-width:0.5;stroke-linecap:round;stroke-linejoin:round;stroke-miterlimit:4;stroke-dasharray:none;stroke-dashoffset:0;stroke-opacity:1;marker:none" />
  <path
     d="m 35.485699,19.985222 a 1.4856964,1.4856964 0 1 1 -2.971392,0 1.4856964,1.4856964 0 1 1 2.971392,0 z"
     id="path15007"
     style="color:#000000;display:block;overflow:visible;visibility:visible;fill:#3689e6;fill-opacity:1;fill-rule:nonzero;stroke:#334560;stroke-width:0.5;stroke-linecap:round;stroke-linejoin:round;stroke-miterlimit:4;stroke-dasharray:none;stroke-dashoffset:0;stroke-opacity:1;marker:none" />
  <path
     d="m 35.485699,25.013829 a 1.4856964,1.4856964 0 1 1 -2.971392,0 1.4856964,1.4856964 0 1 1 2.971392,0 z"
     id="path15009"
     style="color:#000000;display:block;overflow:visible;visibility:visible;fill:#3689e6;fill-opacity:1;fill-rule:nonzero;stroke:#334560;stroke-width:0.5;stroke-linecap:round;stroke-linejoin:round;stroke-miterlimit:4;stroke-dasharray:none;stroke-dashoffset:0;stroke-opacity:1;marker:none" />
  <path
     d="m 28.5,38.960535 0.05485,-5.780683 1.900958,-2.666463"
     id="path14848"
     style="color:#000000;display:block;overflow:visible;visibility:visible;fill:none;stroke:#305526;stroke-width:0.5;stroke-linecap:butt;stroke-linejoin:miter;stroke-miterlimit:4;stroke-dasharray:none;stroke-dashoffset:0;stroke-opacity:1;marker:none" />
  <path
     d="m 6,14.999525 v 1 h 2 v -1 z m 0,2 v 1 h 2 v -1 z m 0,2 v 1 h 2 v -1 z"
     id="rect14869"
     style="color:#000000;display:block;overflow:visible;visibility:visible;fill:url(#linearGradient4002);fill-opacity:1;fill-rule:nonzero;stroke:none;stroke-width:1;marker:none" />
  <rect
     x="8.5"
     y="14.5"
     width="14"
     height="6"
     ry="0.18749955"
     rx="0.73683906"
     style="font-variation-settings:normal;opacity:0.3;vector-effect:none;fill:none;fill-opacity:1;stroke:url(#linearGradient3019-9);stroke-width:1;stroke-linecap:round;stroke-linejoin:round;stroke-miterlimit:4;stroke-dasharray:none;stroke-dashoffset:0;stroke-opacity:1;-inkscape-stroke:none;marker:none;stop-color:#000000"
     id="rect5391-2-0" />
  <g
     id="g1"
     transform="translate(24.964802,23.996886)"
     style="display:inline">
    <path
       style="display:inline;fill:url(#radialGradient3108-3);fill-opacity:1;stroke:none"
       id="path3818-0-2-5-3"
       d="m 19,21.772727 a 7,2.2272727 0 0 1 -14,0 7,2.2272727 0 1 1 14,0 z" />
    <path
       style="color:#000000;display:inline;overflow:visible;visibility:visible;fill:url(#radialGradient3099-7);fill-opacity:1;fill-rule:nonzero;stroke:url(#linearGradient3101);stroke-width:0.281937;stroke-linecap:round;stroke-linejoin:round;stroke-miterlimit:4;stroke-dasharray:none;stroke-dashoffset:0;stroke-opacity:1;marker:none;enable-background:accumulate"
       id="path2555-7"
       d="m 12.013063,1.1485591 c -5.9891817,0 -10.8545781,4.8653797 -10.8545781,10.8545429 0,5.989162 4.8653964,10.854544 10.8545781,10.854542 5.989179,0 10.854582,-4.86538 10.854577,-10.854542 0,-5.9891632 -4.865398,-10.8545429 -10.854577,-10.8545429 z" />
    <path
       style="color:#000000;display:inline;overflow:visible;visibility:visible;opacity:0.5;fill:none;stroke:url(#linearGradient3096);stroke-width:0.281937;stroke-linecap:round;stroke-linejoin:round;stroke-miterlimit:4;stroke-dasharray:none;stroke-dashoffset:0;stroke-opacity:1;marker:none;enable-background:accumulate"
       id="path8655-6"
       d="m 22.585683,12.002776 c 0,5.839268 -4.733873,10.572963 -10.572488,10.572963 -5.8391503,0 -10.5727552,-4.733749 -10.5727552,-10.572963 0,-5.8389976 4.7336049,-10.5722132 10.5727552,-10.5722132 5.838615,0 10.572488,4.7332156 10.572488,10.5722132 z" />
    <path
       style="font-style:normal;font-variant:normal;font-weight:bold;font-stretch:normal;font-size:40px;line-height:100%;font-family:'URW Palladio L';-inkscape-font-specification:'URW Palladio L Bold';text-align:start;writing-mode:lr-tb;text-anchor:start;fill:url(#linearGradient4092);fill-opacity:1;stroke:none;stroke-width:0.281937"
       id="path3227"
       d="m 8.6298223,11.775431 c 0.1409387,0.384718 0.2995754,0.696562 0.6374873,0.270158 0.4189369,-0.250285 1.8226364,-1.347367 1.6821784,-0.272751 -0.449464,1.988512 -0.9965605,3.956112 -1.4148788,5.950749 -0.4374102,1.092154 0.5558638,2.080054 1.5929148,1.36982 1.102317,-0.456298 2.05086,-1.199528 3.019901,-1.88133 -0.132218,-0.3256 -0.220345,-0.793321 -0.58568,-0.367511 -0.479705,0.218631 -1.527431,1.249396 -1.72208,0.399246 0.402947,-2.153199 1.149518,-4.226691 1.626738,-6.362722 C 13.90557,9.8989483 13.188324,8.6579762 12.11469,9.4704166 10.828448,10.032931 9.7528132,10.951822 8.6298223,11.775431 Z M 13.403479,4.5334852 C 12.091132,4.4635526 11.404991,6.5878325 12.652106,7.1691305 13.663881,7.5857834 14.765523,6.5437914 14.51835,5.5026022 14.441644,4.9604463 13.956894,4.5152479 13.403479,4.5334852 Z" />
    <path
       style="font-style:normal;font-variant:normal;font-weight:bold;font-stretch:normal;font-size:40px;line-height:100%;font-family:'URW Palladio L';-inkscape-font-specification:'URW Palladio L Bold';text-align:start;writing-mode:lr-tb;text-anchor:start;fill:#ffffff;fill-opacity:1;stroke:none;stroke-width:0.281937"
       id="path3536-5"
       d="m 8.6298223,12.057367 c 0.1409387,0.384719 0.2995754,0.696563 0.6374873,0.270159 0.4189369,-0.250286 1.8226364,-1.347367 1.6821784,-0.272752 -0.449464,1.988512 -0.9965605,3.956113 -1.4148788,5.950749 -0.4374102,1.092154 0.5558638,2.080054 1.5929148,1.36982 1.102317,-0.456297 2.05086,-1.199527 3.019901,-1.881329 -0.132218,-0.3256 -0.220345,-0.793322 -0.58568,-0.367511 -0.479705,0.21863 -1.527431,1.249396 -1.72208,0.399245 0.402947,-2.153198 1.149518,-4.22669 1.626738,-6.362721 C 13.90557,10.180885 13.188324,8.9399128 12.11469,9.7523532 10.828448,10.314868 9.7528132,11.233758 8.6298223,12.057367 Z M 13.403479,4.8154218 C 12.091132,4.7454892 11.404991,6.8697691 12.652106,7.4510671 13.663881,7.86772 14.765523,6.8257281 14.51835,5.7845388 14.441644,5.2423829 13.956894,4.7971845 13.403479,4.8154218 Z" />
    <path
       style="font-style:normal;font-variant:normal;font-weight:bold;font-stretch:normal;font-size:40px;line-height:100%;font-family:'URW Palladio L';-inkscape-font-specification:'URW Palladio L Bold';text-align:start;writing-mode:lr-tb;text-anchor:start;opacity:0.1;fill:none;stroke:url(#linearGradient4196);stroke-width:0.281937;stroke-opacity:1"
       d="m 10.815954,11.495251 c 0.42114,0.03049 0.324808,0.556785 0.236969,0.842774 -0.40788,1.811987 -0.901706,3.604344 -1.2573945,5.428134 -0.085802,0.534751 0.2390985,1.217156 0.8285075,1.222238"
       id="path4119" />
    <path
       style="font-style:normal;font-variant:normal;font-weight:bold;font-stretch:normal;font-size:40px;line-height:100%;font-family:'URW Palladio L';-inkscape-font-specification:'URW Palladio L Bold';text-align:start;writing-mode:lr-tb;text-anchor:start;opacity:0.1;fill:none;stroke:url(#linearGradient4193);stroke-width:0.281937;stroke-opacity:1"
       d="m 13.827423,17.138596 c -0.03519,-0.276768 -0.253278,-0.499768 -0.46882,-0.222163 -0.382252,0.268725 -0.750891,0.648349 -1.236649,0.683397 -0.311257,-0.0061 -0.469046,-0.389301 -0.342511,-0.65552 0.397875,-2.051137 1.182212,-4.022451 1.584125,-6.071751 0.18134,-0.347598 -0.04903,-1.2879573 -0.368959,-1.1486499 -0.05276,-0.028153 -0.110797,-0.045101 -0.16966,-0.053161 -0.507963,0.031067 -1.05097,0.4243029 -1.513708,0.6903929 -0.575236,0.346132 -1.5117541,0.970265 -2.4063783,1.65083"
       id="path4070" />
    <path
       style="font-style:normal;font-variant:normal;font-weight:bold;font-stretch:normal;font-size:40px;line-height:100%;font-family:'URW Palladio L';-inkscape-font-specification:'URW Palladio L Bold';text-align:start;writing-mode:lr-tb;text-anchor:start;opacity:0.1;fill:none;stroke:url(#linearGradient4190);stroke-width:0.281937;stroke-opacity:1"
       d="M 13.376368,4.987309 C 12.264459,4.92696 11.683114,6.7389167 12.739754,7.2405571 13.596999,7.6001137 14.530384,6.6096118 14.320963,5.7111011 14.255973,5.2432383 13.845259,4.9715702 13.376368,4.987309 Z"
       id="path3714-3" />
    <path
       style="font-style:normal;font-variant:normal;font-weight:bold;font-stretch:normal;font-size:40px;line-height:100%;font-family:'URW Palladio L';-inkscape-font-specification:'URW Palladio L Bold';text-align:start;writing-mode:lr-tb;text-anchor:start;opacity:0.1;fill:none;stroke:url(#linearGradient4187);stroke-width:0.281937;stroke-opacity:1"
       d="m 13.952296,17.612871 c 0.02966,-0.374043 -0.150859,-0.653395 -0.42317,-0.290636 -0.382252,0.229626 -0.796541,0.650688 -1.282298,0.706222"
       id="path4070-0" />
  </g>
</svg>
