<?xml version="1.0" encoding="UTF-8" standalone="no"?>
<svg
   height="48"
   id="svg11300"
   style="display:inline;enable-background:new"
   version="1.0"
   viewBox="0 0 48 48"
   width="48"
   xmlns:xlink="http://www.w3.org/1999/xlink"
   xmlns="http://www.w3.org/2000/svg"
   xmlns:svg="http://www.w3.org/2000/svg"
   xmlns:rdf="http://www.w3.org/1999/02/22-rdf-syntax-ns#"
   xmlns:cc="http://creativecommons.org/ns#"
   xmlns:dc="http://purl.org/dc/elements/1.1/">
  <metadata
     id="metadata154">
    <rdf:RDF>
      <cc:Work
         rdf:about="">
        <dc:format>image/svg+xml</dc:format>
        <dc:type
           rdf:resource="http://purl.org/dc/dcmitype/StillImage" />
        <dc:title>elementary Icon Template</dc:title>
      </cc:Work>
    </rdf:RDF>
  </metadata>
  <title
     id="title4162">elementary Icon Template</title>
  <defs
     id="defs3">
    <linearGradient
       id="linearGradient4712">
      <stop
         id="stop4708"
         offset="0"
         style="stop-color:#000000;stop-opacity:1;" />
      <stop
         id="stop4710"
         offset="1"
         style="stop-color:#000000;stop-opacity:0;" />
    </linearGradient>
    <linearGradient
       id="4632">
      <stop
         id="stop4634-4-4-7-7-4"
         offset="0"
         style="stop-color:#b4cee1;stop-opacity:1" />
      <stop
         id="stop4636-3-1-5-1-3"
         offset="1"
         style="stop-color:#5d9fcd;stop-opacity:1" />
    </linearGradient>
    <linearGradient
       id="50485">
      <stop
         id="stop2667-18"
         offset="0"
         style="stop-color:#000000;stop-opacity:0" />
      <stop
         id="stop2669-9"
         offset="0.5"
         style="stop-color:#000000;stop-opacity:1" />
      <stop
         id="stop2671-33"
         offset="1"
         style="stop-color:#000000;stop-opacity:0" />
    </linearGradient>
    <linearGradient
       id="46464">
      <stop
         id="stop4648-8-0-3-6"
         offset="0"
         style="stop-color:#f9f9f9;stop-opacity:1" />
      <stop
         id="stop4650-1-7-3-4"
         offset="1"
         style="stop-color:#d8d8d8;stop-opacity:1" />
    </linearGradient>
    <linearGradient
       y2="3.6336823"
       x2="-51.786404"
       y1="53.514328"
       x1="-51.786404"
       gradientTransform="matrix(0.80749834,0,0,0.83374395,106.87672,-0.06984031)"
       gradientUnits="userSpaceOnUse"
       id="linearGradient18155"
       xlink:href="#linearGradient3104-8-8-97-4-6-11-5-5" />
    <linearGradient
       id="linearGradient3104-8-8-97-4-6-11-5-5">
      <stop
         offset="0"
         style="stop-color:#000000;stop-opacity:0.32173914"
         id="stop3106-5-4-3-5-0-2-1-0" />
      <stop
         offset="1"
         style="stop-color:#000000;stop-opacity:0.27826086"
         id="stop3108-4-3-7-8-2-0-7-9" />
    </linearGradient>
    <linearGradient
       xlink:href="#46464"
       id="linearGradient12459"
       gradientUnits="userSpaceOnUse"
       gradientTransform="translate(-50.940897)"
       x1="61.926327"
       y1="18.225876"
       x2="61.937866"
       y2="21.21731" />
    <linearGradient
       xlink:href="#linearGradient4507-0-4-7"
       id="linearGradient12463"
       gradientUnits="userSpaceOnUse"
       gradientTransform="matrix(0.89189031,0,0,1.0580283,3.1206621,5.3535997)"
       x1="21.443577"
       y1="5.9277873"
       x2="21.37039"
       y2="34.143417" />
    <linearGradient
       id="linearGradient4507-0-4-7">
      <stop
         id="stop4509-35-6-1"
         style="stop-color:#ffffff;stop-opacity:1"
         offset="0" />
      <stop
         id="stop4511-46-3-8"
         style="stop-color:#ffffff;stop-opacity:0.23529412"
         offset="0.07395859" />
      <stop
         id="stop4513-15-5-9"
         style="stop-color:#ffffff;stop-opacity:0.15686275"
         offset="0.99001008" />
      <stop
         id="stop4515-1-1-8"
         style="stop-color:#ffffff;stop-opacity:0.39215687"
         offset="1" />
    </linearGradient>
    <linearGradient
       xlink:href="#50485"
       id="linearGradient12467"
       gradientUnits="userSpaceOnUse"
       gradientTransform="matrix(0.07938856,0,0,0.02470588,-4.6932879,31.94164)"
       x1="302.85715"
       y1="366.64789"
       x2="302.85715"
       y2="609.50507" />
    <radialGradient
       xlink:href="#linearGradient4712"
       id="radialGradient12471"
       gradientUnits="userSpaceOnUse"
       gradientTransform="matrix(0.03079083,0,0,0.02470588,24.610252,31.94164)"
       cx="605.71429"
       cy="486.64789"
       fx="605.71429"
       fy="486.64789"
       r="117.14286" />
    <radialGradient
       xlink:href="#linearGradient4712"
       id="radialGradient12475"
       gradientUnits="userSpaceOnUse"
       gradientTransform="matrix(-0.03079083,0,0,0.02470588,23.389752,31.94164)"
       cx="605.71429"
       cy="486.64789"
       fx="605.71429"
       fy="486.64789"
       r="117.14286" />
    <linearGradient
       gradientTransform="matrix(0.64444432,0,0,0.54135319,137.53343,179.48872)"
       gradientUnits="userSpaceOnUse"
       xlink:href="#4632"
       id="linearGradient1367"
       x1="34.861927"
       x2="34.861927"
       y1="3.2726212"
       y2="43.430573" />
    <linearGradient
       xlink:href="#linearGradient3454-2-5-0-3"
       id="linearGradient12489"
       gradientUnits="userSpaceOnUse"
       gradientTransform="matrix(0.89189031,0,0,1.0580283,3.1206609,5.3536023)"
       x1="42.488892"
       y1="17.340918"
       x2="42.481968"
       y2="35.606022" />
    <linearGradient
       id="linearGradient3454-2-5-0-3">
      <stop
         offset="0"
         style="stop-color:#ffffff;stop-opacity:1"
         id="stop3456-4-9-38-1" />
      <stop
         offset="0.0097359"
         style="stop-color:#ffffff;stop-opacity:0.23529412"
         id="stop3458-39-80-3-5" />
      <stop
         offset="0.99001008"
         style="stop-color:#ffffff;stop-opacity:0.15686275"
         id="stop3460-7-0-2-4" />
      <stop
         offset="1"
         style="stop-color:#ffffff;stop-opacity:0.39215687"
         id="stop3462-0-9-8-7" />
    </linearGradient>
    <linearGradient
       xlink:href="#linearGradient6129-963-697-142-998-580-273-44-2-2"
       id="linearGradient12487"
       gradientUnits="userSpaceOnUse"
       gradientTransform="matrix(1.1446925,0,0,0.9977536,-3.4661379,1.0988397)"
       x1="22.944229"
       y1="47.900024"
       x2="22.894934"
       y2="38.16011" />
    <linearGradient
       id="linearGradient6129-963-697-142-998-580-273-44-2-2">
      <stop
         id="stop2661-01-6-2"
         style="stop-color:#0a0a0a;stop-opacity:0.498"
         offset="0" />
      <stop
         id="stop2663-64-5-5"
         style="stop-color:#0a0a0a;stop-opacity:0"
         offset="1" />
    </linearGradient>
  </defs>
  <g
     id="layer1"
     style="display:inline;enable-background:new"
     transform="translate(0.002512)">
    <path
       style="color:#000000;display:inline;overflow:visible;visibility:visible;opacity:0.8;fill:none;stroke:url(#linearGradient18155);stroke-width:1;stroke-linecap:butt;stroke-linejoin:miter;stroke-miterlimit:4;stroke-dasharray:none;stroke-dashoffset:0;stroke-opacity:1;marker:none;enable-background:accumulate"
       d="m 5.5000021,8.4999997 c -0.554,0 -1.0032105,0.4460004 -1.0025141,1 V 11.5 H 3.5000021 c -0.554,0 -1.0011419,0.46488 -1.0012581,1.01888 L 2.496232,24.5 H 45.497488 V 12.519 c 0,-0.545702 -0.443486,-1.019 -0.997486,-1.019 h -23 V 9.4999997 c 0,-0.554 -0.446,-1 -1,-1 z"
       id="rect4251-0-0-61" />
    <path
       style="color:#000000;display:inline;overflow:visible;visibility:visible;fill:url(#linearGradient12459);fill-opacity:1;fill-rule:nonzero;stroke:none;stroke-width:0.999922;marker:none;enable-background:accumulate"
       d="m 5.5000021,8.9999997 c -0.259692,0 -0.5,0.2127308 -0.5,0.5 V 12 h -1.5 c -0.2356519,0 -0.5,0.223 -0.5,0.5 L 3,24 h 42 l 2e-6,-11.5 c 0,-0.248759 -0.22877,-0.5 -0.5,-0.5 h -23.5 V 9.4999997 c 0,-0.2831616 -0.243193,-0.5 -0.5,-0.5 z"
       id="rect4251-3-2" />
    <path
       style="color:#000000;display:inline;overflow:visible;visibility:visible;fill:none;stroke:url(#linearGradient12463);stroke-width:1;stroke-linecap:round;stroke-linejoin:round;stroke-miterlimit:4;stroke-dasharray:none;stroke-dashoffset:0;stroke-opacity:1;marker:none;enable-background:accumulate"
       d="M 5.497488,9.4999997 V 12.5 h -2 l 4.1e-6,11 H 44.497492 v -11 H 20.497488 V 9.4999997 Z"
       id="rect4251-9-21-7" />
    <g
       id="g3"
       style="display:inline">
      <rect
         style="display:inline;overflow:visible;visibility:visible;opacity:0.3;fill:url(#linearGradient12467);fill-opacity:1;fill-rule:nonzero;stroke:none;stroke-width:1;marker:none"
         id="rect4173-8-8"
         y="41"
         x="4.8333426"
         height="6.0000005"
         width="38.333332" />
      <path
         style="display:inline;overflow:visible;visibility:visible;opacity:0.3;fill:url(#radialGradient12471);fill-opacity:1;fill-rule:nonzero;stroke:none;stroke-width:1;marker:none"
         id="path5058-9-0"
         d="m 43.166672,41.00021 c 0,0 0,5.99967 0,5.99967 1.58565,0.0113 3.83333,-1.34422 3.83333,-3.00022 0,-1.656 -1.76947,-2.99945 -3.83333,-2.99945 z" />
      <path
         style="display:inline;overflow:visible;visibility:visible;opacity:0.3;fill:url(#radialGradient12475);fill-opacity:1;fill-rule:nonzero;stroke:none;stroke-width:1;marker:none"
         id="path5018-6-6"
         d="m 4.8333321,41.00021 c 0,0 0,5.99967 0,5.99967 -1.58565,0.0113 -3.83333,-1.34422 -3.83333,-3.00022 0,-1.656 1.76947,-2.99945 3.83333,-2.99945 z" />
    </g>
    <path
       d="m 136.5,181 2.07264,22.5 h 42.87459 l 2.0527,-22.5 c 0,0 0.0162,-0.47652 -0.5,-0.5 H 137 c -0.5,0 -0.5,0.5 -0.5,0.5 z"
       id="path3983"
       style="color:#000000;display:inline;overflow:visible;visibility:visible;fill:url(#linearGradient1367);fill-opacity:1;fill-rule:nonzero;stroke:#000000;stroke-width:1;stroke-miterlimit:4;stroke-dasharray:none;stroke-opacity:0.301961;marker:none;enable-background:accumulate"
       transform="translate(-136.00244,-159)" />
    <path
       style="color:#000000;display:inline;overflow:visible;visibility:visible;opacity:0.5;fill:none;stroke:url(#linearGradient12489);stroke-width:0.981337;stroke-linecap:round;stroke-linejoin:miter;stroke-miterlimit:4;stroke-dasharray:none;stroke-dashoffset:0;stroke-opacity:1;marker:none;enable-background:accumulate"
       id="path4587-3-5"
       d="m 1.5233759,23.290313 1.9351435,20.203826 41.0569826,-0.0043 1.914874,-20.202034 z"
       transform="matrix(1,0,0,1.0383977,0.02211208,-1.6719603)" />
    <path
       style="display:inline;opacity:0.4;fill:url(#linearGradient12487);fill-opacity:1;stroke:none"
       id="path6127-1-4"
       d="m 46.997488,21 c 0.503774,7.49e-4 1,0.502651 1,1 l -2.088,23 h -43.792 l -2.12,-23 c 0.00942004,-0.503253 0.49672846,-1.00503 1,-1 z" />
  </g>
  <g
     id="g7872"
     transform="translate(-2479.9999,-159)"
     style="display:inline;enable-background:new">
    <g
       id="g7796"
       style="display:inline;opacity:0.3;vector-effect:none;fill:#ffffff;fill-opacity:1;stroke:none;stroke-width:1.98066;stroke-linecap:butt;stroke-linejoin:miter;stroke-miterlimit:4;stroke-dasharray:none;stroke-dashoffset:0;stroke-opacity:1;marker:none;enable-background:new"
       transform="matrix(1,0,0,0.84459984,1504,-201.18493)">
      <path
         d="m 1001.362,460.94601 c -1.516,0 -2.828,0.887 -3.479,2.174 a 2.667,2.667 0 0 0 -1.457,-0.434 c -1.505,0 -2.724,1.245 -2.724,2.782 0,0.245 0.038,0.48 0.096,0.707 a 4.196,4.196 0 0 0 -1.798,3.467 c 0,2.312 1.822,4.174 4.085,4.174 h 7.83 c 2.263,0 4.085,-1.862 4.085,-4.174 0,-1.846 -1.167,-3.403 -2.787,-3.956 0.044,-0.24 0.064,-0.487 0.064,-0.74 0,-2.209 -1.753,-4 -3.915,-4 z"
         id="path7794"
         overflow="visible"
         style="color:#000000;overflow:visible;vector-effect:none;fill:#ffffff;fill-opacity:1;stroke:none;stroke-width:1.98066;stroke-linecap:butt;stroke-linejoin:miter;stroke-miterlimit:4;stroke-dasharray:none;stroke-dashoffset:0;stroke-opacity:1;marker:none" />
    </g>
    <path
       d="m 1001.362,460.94601 c -1.516,0 -2.828,0.887 -3.479,2.174 a 2.667,2.667 0 0 0 -1.457,-0.434 c -1.505,0 -2.724,1.245 -2.724,2.782 0,0.245 0.038,0.48 0.096,0.707 a 4.196,4.196 0 0 0 -1.798,3.467 c 0,2.312 1.822,4.174 4.085,4.174 h 7.83 c 2.263,0 4.085,-1.862 4.085,-4.174 0,-1.846 -1.167,-3.403 -2.787,-3.956 0.044,-0.24 0.064,-0.487 0.064,-0.74 0,-2.209 -1.753,-4 -3.915,-4 z"
       id="path52"
       overflow="visible"
       style="color:#000000;display:inline;overflow:visible;opacity:0.55;vector-effect:none;fill:#175785;fill-opacity:1;stroke:none;stroke-width:1.98066;stroke-linecap:butt;stroke-linejoin:miter;stroke-miterlimit:4;stroke-dasharray:none;stroke-dashoffset:0;stroke-opacity:1;marker:none;enable-background:new"
       transform="matrix(1,0,0,0.84459984,1504,-202.18493)" />
    <path
       d="m 1001.362,460.94601 c -1.516,0 -2.828,0.887 -3.479,2.174 a 2.667,2.667 0 0 0 -1.457,-0.434 c -1.505,0 -2.724,1.245 -2.724,2.782 0,0.245 0.038,0.48 0.096,0.707 a 4.196,4.196 0 0 0 -1.798,3.467 c 0,2.312 1.822,4.174 4.085,4.174 h 7.83 c 2.263,0 4.085,-1.862 4.085,-4.174 0,-1.846 -1.167,-3.403 -2.787,-3.956 0.044,-0.24 0.064,-0.487 0.064,-0.74 0,-2.209 -1.753,-4 -3.915,-4 z"
       id="path65"
       overflow="visible"
       style="color:#000000;display:inline;overflow:visible;opacity:0.55;vector-effect:none;fill:#175785;fill-opacity:1;stroke:none;stroke-width:1.98066;stroke-linecap:butt;stroke-linejoin:miter;stroke-miterlimit:4;stroke-dasharray:none;stroke-dashoffset:0;stroke-opacity:1;marker:none;enable-background:new"
       transform="matrix(1,0,0,0.84459984,1504,-202.18493)" />
  </g>
</svg>
