<?xml version="1.0" encoding="UTF-8" standalone="no"?>
<svg
   width="48px"
   height="48px"
   id="svg19516"
   version="1.1"
   xmlns:xlink="http://www.w3.org/1999/xlink"
   xmlns="http://www.w3.org/2000/svg"
   xmlns:svg="http://www.w3.org/2000/svg"
   xmlns:rdf="http://www.w3.org/1999/02/22-rdf-syntax-ns#"
   xmlns:cc="http://creativecommons.org/ns#"
   xmlns:dc="http://purl.org/dc/elements/1.1/">
  <defs
     id="defs19518">
    <linearGradient
       id="linearGradient3454-2-8-6-1-1-8">
      <stop
         offset="0"
         style="stop-color:#ffffff;stop-opacity:1"
         id="stop3456-4-7-9-4-0-3" />
      <stop
         offset="0.0097359"
         style="stop-color:#ffffff;stop-opacity:0.23529412"
         id="stop3458-39-0-8-61-3-8" />
      <stop
         offset="0.99001008"
         style="stop-color:#ffffff;stop-opacity:0.15686275"
         id="stop3460-7-5-4-1-6-6" />
      <stop
         offset="1"
         style="stop-color:#ffffff;stop-opacity:0.39215687"
         id="stop3462-0-5-6-6-2-1" />
    </linearGradient>
    <linearGradient
       id="linearGradient6129-963-697-142-998-580-273-0-8-4-9-0">
      <stop
         id="stop2661-3-02-4-8-0"
         style="stop-color:#0a0a0a;stop-opacity:0.498"
         offset="0" />
      <stop
         id="stop2663-2-8-06-2-4"
         style="stop-color:#0a0a0a;stop-opacity:0"
         offset="1" />
    </linearGradient>
    <linearGradient
       id="linearGradient4632-0-6-4">
      <stop
         style="stop-color:#b4cee1;stop-opacity:1;"
         offset="0"
         id="stop4634-4-4-7" />
      <stop
         style="stop-color:#5d9fcd;stop-opacity:1;"
         offset="1"
         id="stop4636-3-1-5" />
    </linearGradient>
    <linearGradient
       id="linearGradient5060-820-9-0-7-1-7">
      <stop
         id="stop2681-5-4-3-6-3"
         style="stop-color:#000000;stop-opacity:1"
         offset="0" />
      <stop
         id="stop2683-8-6-9-4-6"
         style="stop-color:#000000;stop-opacity:0"
         offset="1" />
    </linearGradient>
    <linearGradient
       id="linearGradient5048-585-4-0-56-2-5">
      <stop
         id="stop2667-5-0-7-4-7"
         style="stop-color:#000000;stop-opacity:0"
         offset="0" />
      <stop
         id="stop2669-4-1-8-0-6"
         style="stop-color:#000000;stop-opacity:1"
         offset="0.5" />
      <stop
         id="stop2671-2-6-3-2-0"
         style="stop-color:#000000;stop-opacity:0"
         offset="1" />
    </linearGradient>
    <linearGradient
       id="linearGradient4507-9-2-2-3-6">
      <stop
         id="stop4509-9-8-4-2-3"
         style="stop-color:#ffffff;stop-opacity:1"
         offset="0" />
      <stop
         id="stop4511-7-50-2-1-3"
         style="stop-color:#ffffff;stop-opacity:0.23529412"
         offset="0.07395859" />
      <stop
         id="stop4513-2-0-2-9-2"
         style="stop-color:#ffffff;stop-opacity:0.15686275"
         offset="0.99001008" />
      <stop
         id="stop4515-3-9-8-6-6"
         style="stop-color:#ffffff;stop-opacity:0.39215687"
         offset="1" />
    </linearGradient>
    <linearGradient
       id="linearGradient4646-6-91-5-0-5">
      <stop
         offset="0"
         style="stop-color:#f9f9f9;stop-opacity:1"
         id="stop4648-2-4-6-6-8" />
      <stop
         offset="1"
         style="stop-color:#d8d8d8;stop-opacity:1"
         id="stop4650-3-8-5-3-4" />
    </linearGradient>
    <linearGradient
       id="linearGradient3104-8-8-97-4-6-2-0-1-4-0">
      <stop
         offset="0"
         style="stop-color:#000000;stop-opacity:0.32173914"
         id="stop3106-5-4-3-5-0-1-61-9-2-7" />
      <stop
         offset="1"
         style="stop-color:#000000;stop-opacity:0.27826086"
         id="stop3108-4-3-7-8-2-4-01-9-9-0" />
    </linearGradient>
    <linearGradient
       y2="3.6336823"
       x2="-51.786404"
       y1="53.514328"
       x1="-51.786404"
       gradientTransform="matrix(0.80749834,0,0,0.83374395,106.87672,-0.06984031)"
       gradientUnits="userSpaceOnUse"
       id="linearGradient18155"
       xlink:href="#linearGradient3104-8-8-97-4-6-2-0-1-4-0" />
    <linearGradient
       xlink:href="#linearGradient4646-6-91-5-0-5"
       id="linearGradient12459"
       gradientUnits="userSpaceOnUse"
       gradientTransform="translate(-50.940897)"
       x1="62.988873"
       y1="13"
       x2="62.988873"
       y2="16" />
    <linearGradient
       xlink:href="#linearGradient4507-9-2-2-3-6"
       id="linearGradient12463"
       gradientUnits="userSpaceOnUse"
       gradientTransform="matrix(0.89189031,0,0,1.0580283,3.1206621,5.3535997)"
       x1="21.37039"
       y1="6.0979948"
       x2="21.37039"
       y2="34.143417" />
    <radialGradient
       xlink:href="#linearGradient5060-820-9-0-7-1-7"
       id="radialGradient12471"
       gradientUnits="userSpaceOnUse"
       gradientTransform="matrix(0.03079083,0,0,0.02470588,24.610252,31.94164)"
       cx="605.71429"
       cy="486.64789"
       fx="605.71429"
       fy="486.64789"
       r="117.14286" />
    <radialGradient
       xlink:href="#linearGradient5060-820-9-0-7-1-7"
       id="radialGradient12475"
       gradientUnits="userSpaceOnUse"
       gradientTransform="matrix(-0.03079083,0,0,0.02470588,23.389752,31.94164)"
       cx="605.71429"
       cy="486.64789"
       fx="605.71429"
       fy="486.64789"
       r="117.14286" />
    <linearGradient
       xlink:href="#linearGradient4632-0-6-4"
       id="linearGradient12481"
       gradientUnits="userSpaceOnUse"
       gradientTransform="matrix(0.99987062,0,0,1.0356818,0.00233693,-1.5885546)"
       x1="35.792694"
       y1="17.118193"
       x2="35.792694"
       y2="43.761127" />
    <linearGradient
       xlink:href="#linearGradient3454-2-8-6-1-1-8"
       id="linearGradient12489"
       gradientUnits="userSpaceOnUse"
       gradientTransform="matrix(0.89189031,0,0,1.0580283,3.1206609,5.3536023)"
       x1="42.470848"
       y1="11.824601"
       x2="42.51532"
       y2="35.711102" />
    <linearGradient
       xlink:href="#linearGradient6129-963-697-142-998-580-273-0-8-4-9-0"
       id="linearGradient12487"
       gradientUnits="userSpaceOnUse"
       gradientTransform="matrix(1.1446925,0,0,0.9977536,-3.4661379,1.0988397)"
       x1="22.934725"
       y1="49.629246"
       x2="22.809399"
       y2="36.657963" />
    <linearGradient
       xlink:href="#linearGradient5048-585-4-0-56-2-5"
       id="linearGradient1"
       gradientUnits="userSpaceOnUse"
       gradientTransform="matrix(0.07938856,0,0,0.02470588,-4.6932879,31.94164)"
       x1="302.85715"
       y1="366.64789"
       x2="302.85715"
       y2="609.50507" />
  </defs>
  <metadata
     id="metadata19521">
    <rdf:RDF>
      <cc:Work
         rdf:about="">
        <dc:format>image/svg+xml</dc:format>
        <dc:type
           rdf:resource="http://purl.org/dc/dcmitype/StillImage" />
        <dc:title />
      </cc:Work>
    </rdf:RDF>
  </metadata>
  <g
     id="layer1-9"
     style="display:inline"
     transform="translate(0.00251175)">
    <path
       style="color:#000000;display:inline;overflow:visible;visibility:visible;opacity:0.8;fill:none;stroke:url(#linearGradient18155);stroke-width:1;stroke-linecap:butt;stroke-linejoin:miter;stroke-miterlimit:4;stroke-dasharray:none;stroke-dashoffset:0;stroke-opacity:1;marker:none;enable-background:accumulate"
       d="m 5.5000021,8.4999997 c -0.554,0 -1,0.446 -1,1 V 11.5 h -1 C 2.9460021,11.5 2.5,11.96488 2.5,12.51888 V 19.5 h 43 V 12.519 C 45.5,11.973298 45.054002,11.5 44.500002,11.5 h -23 V 9.4999997 c 0,-0.554 -0.446,-1 -1,-1 z"
       id="rect4251-0-0-61" />
    <path
       style="color:#000000;display:inline;overflow:visible;visibility:visible;fill:url(#linearGradient12459);fill-opacity:1;fill-rule:nonzero;stroke:none;stroke-width:0.999922;marker:none;enable-background:accumulate"
       d="m 5.5000021,8.9999997 c -0.259692,0 -0.5028027,0.2127309 -0.5025139,0.5 V 12 H 3.5000021 C 3.2643502,12 2.9973812,12.223 2.9974883,12.5 V 19 H 44.997488 v -6.5 c 0,-0.248759 -0.226256,-0.5 -0.497486,-0.5 H 20.997488 V 9.4999997 c 0,-0.2831616 -0.240679,-0.5 -0.497486,-0.5 z"
       id="rect4251-3-2" />
    <path
       style="color:#000000;display:inline;overflow:visible;visibility:visible;fill:none;stroke:url(#linearGradient12463);stroke-width:1;stroke-linecap:round;stroke-linejoin:round;stroke-miterlimit:4;stroke-dasharray:none;stroke-dashoffset:0;stroke-opacity:1;marker:none;enable-background:accumulate"
       d="M 5.4974882,9.4999997 V 12.5 H 3.4974883 v 6 H 44.497488 v -6 h -24 V 9.4999997 Z"
       id="rect4251-9-21-7" />
    <g
       id="g2"
       style="display:inline">
      <rect
         style="display:inline;overflow:visible;visibility:visible;opacity:0.3;fill:url(#linearGradient1);fill-opacity:1;fill-rule:nonzero;stroke:none;stroke-width:1;marker:none"
         id="rect4173-8-8"
         y="41"
         x="4.8333426"
         height="6.0000005"
         width="38.333332" />
      <path
         style="display:inline;overflow:visible;visibility:visible;opacity:0.3;fill:url(#radialGradient12471);fill-opacity:1;fill-rule:nonzero;stroke:none;stroke-width:1;marker:none"
         id="path5058-9-0"
         d="m 43.166672,41.00021 c 0,0 0,5.99967 0,5.99967 1.58565,0.0113 3.83333,-1.34422 3.83333,-3.00022 0,-1.656 -1.76947,-2.99945 -3.83333,-2.99945 z" />
      <path
         style="display:inline;overflow:visible;visibility:visible;opacity:0.3;fill:url(#radialGradient12475);fill-opacity:1;fill-rule:nonzero;stroke:none;stroke-width:1;marker:none"
         id="path5018-6-6"
         d="m 4.8333321,41.00021 c 0,0 0,5.99967 0,5.99967 -1.58565,0.0113 -3.83333,-1.34422 -3.83333,-3.00022 0,-1.656 1.76947,-2.99945 3.83333,-2.99945 z" />
    </g>
    <path
       style="display:inline;fill:url(#linearGradient12481);fill-opacity:1;stroke:#000000;stroke-width:0.999995;stroke-opacity:0.301961"
       id="path3388-7-1"
       d="M 1.9900776,15.50019 C 1.5022648,15.500839 1.510771,15.642707 1.4996293,16.083982 L 2.5070228,43.87511 c -0.00279,0.627267 0.4931515,0.623964 1.2428271,0.623981 L 44.248609,44.5 c 0.745403,-0.01746 1.246903,-0.0022 1.24284,-0.62489 l 1.002358,-27.791128 c 0.002,-0.443304 -0.02612,-0.583792 -0.475885,-0.583792 z" />
    <path
       style="color:#000000;display:inline;overflow:visible;visibility:visible;opacity:0.5;fill:none;stroke:url(#linearGradient12489);stroke-width:0.981337;stroke-linecap:round;stroke-linejoin:miter;stroke-miterlimit:4;stroke-dasharray:none;stroke-dashoffset:0;stroke-opacity:1;marker:none;enable-background:accumulate"
       id="path4587-3-5"
       d="m 2.4923762,17.510594 0.9715969,25.980412 41.0267729,3.95e-4 0.967277,-25.975453 z"
       transform="matrix(1,0,0,1.0383977,0.02211208,-1.6719603)" />
    <path
       style="display:inline;opacity:0.4;fill:url(#linearGradient12487);fill-opacity:1;stroke:none"
       id="path6127-1-4"
       d="m 2.0582421,16.06515 43.8964799,4e-4 c 0.63416,0 1.04515,0.44461 1.04515,0.99737 L 45.980296,44 c -0.05631,0.742165 -0.597771,0.999784 -1.482808,1 H 3.4974883 c -0.8007454,0.0026 -1.4036737,-0.239071 -1.483,-0.99779 L 1.0130921,17.0629 c 0,-0.55276 0.41099,-0.99775 1.04515,-0.99775 z" />
  </g>
  <g
     id="layer1">
    <g
       style="opacity:0.3;color:#000000;fill:#ffffff;fill-opacity:0.5521628;fill-rule:nonzero;stroke:none;stroke-width:1.70000005;marker:none;visibility:visible;display:inline;overflow:visible;enable-background:accumulate"
       id="layer1-9-7-1"
       transform="translate(15.994192,23.99179)">
      <path
         style="color:#000000;fill:#ffffff;fill-opacity:0.5521628;fill-rule:nonzero;stroke:none;stroke-width:1.70000005;marker:none;visibility:visible;display:inline;overflow:visible;enable-background:accumulate"
         id="rect2996-1-2"
         d="M 13.375,0 6,1.90625 C 5.446,2.0546939 5,2.645207 5,3.21875 L 5,12.3125 C 4.4382289,12.018344 3.716744,11.899398 2.96875,12.09375 1.6189863,12.444461 0.77316552,13.577902 1.0625,14.625 1.3518345,15.672098 2.6814863,16.256961 4.03125,15.90625 5.1080835,15.626455 5.8503667,14.834802 5.96875,14 L 6,5.40625 l 7,-1.875 0,6.78125 C 12.438229,10.018344 11.716744,9.8993976 10.96875,10.09375 9.6189863,10.444461 8.7731655,11.577902 9.0625,12.625 c 0.2893345,1.047098 1.618986,1.631961 2.96875,1.28125 C 13.108084,13.626455 13.850367,12.834802 13.96875,12 L 14,0.8125 C 14,0.38234275 13.734156,0.06051165 13.375,0 z" />
    </g>
    <g
       style="color:#000000;fill:#175785;fill-opacity:0.5521628;fill-rule:nonzero;stroke:none;stroke-width:1.70000005;marker:none;visibility:visible;display:inline;overflow:visible;enable-background:accumulate"
       id="layer1-9-4"
       transform="translate(15.994192,22.99141)">
      <path
         style="color:#000000;fill:#175785;fill-opacity:0.5521628;fill-rule:nonzero;stroke:none;stroke-width:1.70000005;marker:none;visibility:visible;display:inline;overflow:visible;enable-background:accumulate"
         id="rect2996-4"
         d="M 13.375,0 6,1.90625 C 5.446,2.0546939 5,2.645207 5,3.21875 L 5,12.3125 C 4.4382289,12.018344 3.716744,11.899398 2.96875,12.09375 1.6189863,12.444461 0.77316552,13.577902 1.0625,14.625 1.3518345,15.672098 2.6814863,16.256961 4.03125,15.90625 5.1080835,15.626455 5.8503667,14.834802 5.96875,14 L 6,5.40625 l 7,-1.875 0,6.78125 C 12.438229,10.018344 11.716744,9.8993976 10.96875,10.09375 9.6189863,10.444461 8.7731655,11.577902 9.0625,12.625 c 0.2893345,1.047098 1.618986,1.631961 2.96875,1.28125 C 13.108084,13.626455 13.850367,12.834802 13.96875,12 L 14,0.8125 C 14,0.38234275 13.734156,0.06051165 13.375,0 z" />
      <path
         style="color:#000000;fill:#175785;fill-opacity:0.5521628;fill-rule:nonzero;stroke:none;stroke-width:1.70000005;marker:none;visibility:visible;display:inline;overflow:visible;enable-background:accumulate"
         id="path63"
         d="M 13.375,0 6,1.90625 C 5.446,2.0546939 5,2.645207 5,3.21875 L 5,12.3125 C 4.4382289,12.018344 3.716744,11.899398 2.96875,12.09375 1.6189863,12.444461 0.77316552,13.577902 1.0625,14.625 1.3518345,15.672098 2.6814863,16.256961 4.03125,15.90625 5.1080835,15.626455 5.8503667,14.834802 5.96875,14 L 6,5.40625 l 7,-1.875 0,6.78125 C 12.438229,10.018344 11.716744,9.8993976 10.96875,10.09375 9.6189863,10.444461 8.7731655,11.577902 9.0625,12.625 c 0.2893345,1.047098 1.618986,1.631961 2.96875,1.28125 C 13.108084,13.626455 13.850367,12.834802 13.96875,12 L 14,0.8125 C 14,0.38234275 13.734156,0.06051165 13.375,0 z" />
    </g>
  </g>
</svg>
