<?xml version="1.0" encoding="UTF-8" standalone="no"?>
<svg
   version="1.1"
   width="24"
   height="24"
   id="svg10706"
   xmlns:xlink="http://www.w3.org/1999/xlink"
   xmlns="http://www.w3.org/2000/svg"
   xmlns:svg="http://www.w3.org/2000/svg"
   xmlns:rdf="http://www.w3.org/1999/02/22-rdf-syntax-ns#"
   xmlns:cc="http://creativecommons.org/ns#"
   xmlns:dc="http://purl.org/dc/elements/1.1/">
  <defs
     id="defs10708">
    <linearGradient
       id="linearGradient3454-2-5-0-3-4-1-2">
      <stop
         id="stop3456-4-9-38-1-8-8-6"
         style="stop-color:#ffffff;stop-opacity:1"
         offset="0" />
      <stop
         id="stop3458-39-80-3-5-5-8-1"
         style="stop-color:#ffffff;stop-opacity:0.23529412"
         offset="0.0061006" />
      <stop
         id="stop3460-7-0-2-4-2-7-9"
         style="stop-color:#ffffff;stop-opacity:0.15686275"
         offset="0.99341011" />
      <stop
         id="stop3462-0-9-8-7-2-3-40"
         style="stop-color:#ffffff;stop-opacity:0.39215687"
         offset="1" />
    </linearGradient>
    <linearGradient
       id="linearGradient6129-963-697-142-998-580-273-5-3-7">
      <stop
         id="stop2661-1-2-2"
         style="stop-color:#0a0a0a;stop-opacity:0.498"
         offset="0" />
      <stop
         id="stop2663-85-8-6"
         style="stop-color:#0a0a0a;stop-opacity:0"
         offset="1" />
    </linearGradient>
    <linearGradient
       id="linearGradient4632-92-3-0-8-1">
      <stop
         id="stop4634-68-8-0-2-9"
         style="stop-color:#cdc9e3;stop-opacity:1"
         offset="0" />
      <stop
         id="stop4636-8-21-7-1-4"
         style="stop-color:#9389cb;stop-opacity:1"
         offset="1" />
    </linearGradient>
    <linearGradient
       id="linearGradient4325-0-5">
      <stop
         id="stop4327-4-6"
         style="stop-color:#ffffff;stop-opacity:1"
         offset="0" />
      <stop
         id="stop4329-5-9"
         style="stop-color:#ffffff;stop-opacity:0.23529412"
         offset="0.1106325" />
      <stop
         id="stop4331-6-1"
         style="stop-color:#ffffff;stop-opacity:0.15686275"
         offset="0.99001008" />
      <stop
         id="stop4333-7-7"
         style="stop-color:#ffffff;stop-opacity:0.39215687"
         offset="1" />
    </linearGradient>
    <linearGradient
       id="linearGradient4646-7-4-3-5-6-8">
      <stop
         id="stop4648-8-0-3-6-5-0"
         style="stop-color:#f9f9f9;stop-opacity:1"
         offset="0" />
      <stop
         id="stop4650-1-7-3-4-8-2"
         style="stop-color:#d8d8d8;stop-opacity:1"
         offset="1" />
    </linearGradient>
    <linearGradient
       x1="302.85715"
       y1="366.64789"
       x2="302.85715"
       y2="609.50507"
       id="linearGradient3028-2"
       xlink:href="#linearGradient5048-7"
       gradientUnits="userSpaceOnUse"
       gradientTransform="matrix(2.774389,0,0,1.969706,-1892.179,-872.8854)" />
    <linearGradient
       id="linearGradient5048-7">
      <stop
         id="stop5050-7"
         style="stop-color:#000000;stop-opacity:0"
         offset="0" />
      <stop
         id="stop5056-43"
         style="stop-color:#000000;stop-opacity:1"
         offset="0.5" />
      <stop
         id="stop5052-0"
         style="stop-color:#000000;stop-opacity:0"
         offset="1" />
    </linearGradient>
    <linearGradient
       id="linearGradient5060-0">
      <stop
         id="stop5062-1"
         style="stop-color:#000000;stop-opacity:1"
         offset="0" />
      <stop
         id="stop5064-9"
         style="stop-color:#000000;stop-opacity:0"
         offset="1" />
    </linearGradient>
    <linearGradient
       id="linearGradient3104-8-8-97-4-6-11-5-5-0-5-7">
      <stop
         id="stop3106-5-4-3-5-0-2-1-0-6-6-64"
         style="stop-color:#000000;stop-opacity:0.32173914"
         offset="0" />
      <stop
         id="stop3108-4-3-7-8-2-0-7-9-1-4-3"
         style="stop-color:#000000;stop-opacity:0.27826086"
         offset="1" />
    </linearGradient>
    <linearGradient
       xlink:href="#linearGradient4632-92-3-0-8-1"
       id="linearGradient4208"
       x1="13"
       y1="8"
       x2="13"
       y2="20"
       gradientUnits="userSpaceOnUse" />
    <radialGradient
       cx="605.71429"
       cy="486.64789"
       r="117.14286"
       fx="605.71429"
       fy="486.64789"
       id="radialGradient3030-3-3"
       xlink:href="#linearGradient5060-0"
       gradientUnits="userSpaceOnUse"
       gradientTransform="matrix(2.774389,0,0,1.969706,-1891.633,-872.8854)" />
    <radialGradient
       cx="605.71429"
       cy="486.64789"
       r="117.14286"
       fx="605.71429"
       fy="486.64789"
       id="radialGradient3032-4"
       xlink:href="#linearGradient5060-0"
       gradientUnits="userSpaceOnUse"
       gradientTransform="matrix(-2.774389,0,0,1.969706,112.7623,-872.8854)" />
    <linearGradient
       x1="-51.786404"
       y1="53.514328"
       x2="-51.786404"
       y2="3.6336823"
       id="linearGradient10992"
       xlink:href="#linearGradient3104-8-8-97-4-6-11-5-5-0-5-7"
       gradientUnits="userSpaceOnUse"
       gradientTransform="matrix(0.40212523,0,0,0.398023,53.350858,-8.7909421)" />
    <linearGradient
       x1="62.988873"
       y1="13"
       x2="62.988873"
       y2="16"
       id="linearGradient4414-2-7"
       xlink:href="#linearGradient4646-7-4-3-5-6-8"
       gradientUnits="userSpaceOnUse"
       gradientTransform="matrix(0.49096263,0,0,0.48984879,-24.706222,-8.7127621)" />
    <linearGradient
       x1="21.894501"
       y1="4.8006449"
       x2="21.37039"
       y2="34.143417"
       id="linearGradient4418-4-6"
       xlink:href="#linearGradient4325-0-5"
       gradientUnits="userSpaceOnUse"
       gradientTransform="matrix(0.43131243,0,0,0.48638011,1.9898582,-5.8145921)" />
    <linearGradient
       x1="27.132872"
       y1="7.3659182"
       x2="27.138405"
       y2="24.019491"
       id="linearGradient4440-9-5-3"
       xlink:href="#linearGradient3454-2-5-0-3-4-1-2"
       gradientUnits="userSpaceOnUse"
       gradientTransform="matrix(0.62762637,0,0,0.7245642,2.9730682,-4.3726321)" />
    <linearGradient
       x1="22.934725"
       y1="49.629246"
       x2="22.809399"
       y2="36.657963"
       id="linearGradient4436-4"
       xlink:href="#linearGradient6129-963-697-142-998-580-273-5-3-7"
       gradientUnits="userSpaceOnUse"
       gradientTransform="matrix(0.54761895,0,0,0.48299421,-1.1065518,-8.2449121)" />
  </defs>
  <metadata
     id="metadata10711">
    <rdf:RDF>
      <cc:Work
         rdf:about="">
        <dc:format>image/svg+xml</dc:format>
        <dc:type
           rdf:resource="http://purl.org/dc/dcmitype/StillImage" />
      </cc:Work>
    </rdf:RDF>
  </metadata>
  <g
     transform="translate(0,8)"
     id="layer1"
     style="display:inline">
    <g
       transform="matrix(0.01182013,0,0,0.0076791,22.513248,12.484216)"
       id="g5022"
       style="display:inline;stroke-width:104.962;stroke-miterlimit:4;stroke-dasharray:none">
      <rect
         width="1339.6335"
         height="478.35718"
         x="-1559.2523"
         y="-150.69685"
         id="rect4173-4-6"
         style="display:inline;overflow:visible;visibility:visible;opacity:0.402062;fill:url(#linearGradient3028-2);fill-opacity:1;fill-rule:nonzero;stroke:none;stroke-width:104.962;marker:none" />
      <path
         d="m -219.61876,-150.68038 c 0,0 0,478.33079 0,478.33079 142.874166,0.90045 345.40022,-107.16966 345.40014,-239.196175 0,-132.026537 -159.436816,-239.134595 -345.40014,-239.134615 z"
         id="path5058-9-2"
         style="display:inline;overflow:visible;visibility:visible;opacity:0.402062;fill:url(#radialGradient3030-3-3);fill-opacity:1;fill-rule:nonzero;stroke:none;stroke-width:104.962;marker:none" />
      <path
         d="m -1559.2523,-150.68038 c 0,0 0,478.33079 0,478.33079 -142.8742,0.90045 -345.4002,-107.16966 -345.4002,-239.196175 0,-132.026537 159.4368,-239.134595 345.4002,-239.134615 z"
         id="path5018-53-9"
         style="display:inline;overflow:visible;visibility:visible;opacity:0.402062;fill:url(#radialGradient3032-4);fill-opacity:1;fill-rule:nonzero;stroke:none;stroke-width:104.962;marker:none" />
    </g>
    <path
       d="m 3.0360001,-4.5 c -0.277,0 -0.5114178,0.1605726 -0.517851,0.4374979 l -0.036298,1.5625 H 2.0362982 c -0.277,0 -0.5362982,0.223 -0.5362982,0.5 V -1 h 21 v -1.0000021 c 0,-0.2770001 -0.1867,-0.5 -0.4637,-0.5 H 10.5 v -1.5625 C 10.5,-4.3395021 10.313,-4.5 10.036,-4.5 Z"
       id="rect3186-1"
       style="color:#000000;display:inline;overflow:visible;visibility:visible;opacity:0.8;fill:none;stroke:url(#linearGradient10992);stroke-width:1;stroke-linecap:butt;stroke-linejoin:miter;stroke-miterlimit:4;stroke-dasharray:none;stroke-dashoffset:0;stroke-opacity:1;marker:none;enable-background:accumulate" />
    <path
       d="m 3,-4.0000021 v 2 L 2,-2 V 0.99999788 H 22 V -2.0000021 H 10 v -2 z"
       id="rect3409-5-2-2"
       style="color:#000000;display:inline;overflow:visible;visibility:visible;fill:url(#linearGradient4414-2-7);fill-opacity:1;fill-rule:nonzero;stroke:none;stroke-width:1;marker:none;enable-background:accumulate" />
    <path
       d="m 3.5,-3.5000021 v 2 h -1 V 0.5 h 19 v -2.0000021 h -12 v -2 z"
       id="rect3409-3-7"
       style="color:#000000;display:inline;overflow:visible;visibility:visible;fill:none;stroke:url(#linearGradient4418-4-6);stroke-width:1;stroke-linecap:round;stroke-linejoin:miter;stroke-miterlimit:4;stroke-dasharray:none;stroke-dashoffset:0;stroke-opacity:1;marker:none;enable-background:accumulate" />
    <path
       style="color:#000000;font-style:normal;font-variant:normal;font-weight:normal;font-stretch:normal;font-size:medium;line-height:normal;font-family:sans-serif;text-indent:0;text-align:start;text-decoration:none;text-decoration-line:none;text-decoration-style:solid;text-decoration-color:#000000;letter-spacing:normal;word-spacing:normal;text-transform:none;writing-mode:lr-tb;direction:ltr;baseline-shift:baseline;text-anchor:start;white-space:normal;clip-rule:nonzero;display:inline;overflow:visible;visibility:visible;opacity:1;isolation:auto;mix-blend-mode:normal;color-interpolation:sRGB;color-interpolation-filters:linearRGB;solid-color:#000000;solid-opacity:1;fill:url(#linearGradient4208);fill-opacity:1;fill-rule:nonzero;stroke:#000000;stroke-width:1;stroke-linecap:butt;stroke-linejoin:miter;stroke-miterlimit:4;stroke-dasharray:none;stroke-dashoffset:0;stroke-opacity:0.301961;color-rendering:auto;image-rendering:auto;shape-rendering:auto;text-rendering:auto;enable-background:accumulate"
       d="M 1.5,7.5 V 18.000264 L 1.75,21.5 h 20.5 L 22.5,18.000264 V 7.5 Z"
       id="rect4198"
       transform="translate(0,-8)" />
    <path
       d="M 2.5,0.49999788 V 10 l 0.1820057,2.5 H 21.317994 L 21.5,10 V 0.49999788 Z"
       id="path3309-8-0"
       style="color:#000000;display:inline;overflow:visible;visibility:visible;opacity:0.5;fill:none;stroke:url(#linearGradient4440-9-5-3);stroke-width:1;stroke-linecap:round;stroke-linejoin:miter;stroke-miterlimit:4;stroke-dasharray:none;stroke-dashoffset:0;stroke-opacity:1;marker:none;enable-background:accumulate" />
    <path
       d="m 23,-1 v 11 l -0.25,4 H 1.25 L 1,10 V -1 Z"
       id="path6127-36-9"
       style="display:inline;opacity:0.4;fill:url(#linearGradient4436-4);fill-opacity:1;stroke:none" />
  </g>
  <path
     style="color:#000000;display:inline;overflow:visible;visibility:visible;opacity:0.3;fill:#ffffff;fill-opacity:1;fill-rule:nonzero;stroke:none;stroke-width:1.7;marker:none;enable-background:accumulate"
     id="path3575-5-8-4-7-0-8-5"
     d="m 11.499998,11 c -0.1385,0 -0.25,0.1115 -0.25,0.25 v 0.84375 c -0.27435,0.0704 -0.5275,0.188 -0.76565,0.32812 L 9.874998,11.8125 c -0.098,-0.0979 -0.2458,-0.0979 -0.34375,0 l -0.71875,0.71875 c -0.098,0.0979 -0.098,0.24581 0,0.34375 l 0.60935,0.60937 c -0.1401,0.23812 -0.25775,0.49131 -0.3281,0.76563 h -0.84375 c -0.1385,0 -0.25,0.1115 -0.25,0.25 v 1 c 0,0.1385 0.1115,0.25 0.25,0.25 h 0.84375 c 0.0703,0.27432 0.188,0.52751 0.3281,0.76562 L 8.812498,17.125 c -0.098,0.0979 -0.098,0.24581 0,0.34375 l 0.71875,0.71875 c 0.0979,0.0979 0.2458,0.0979 0.34375,0 l 0.60935,-0.60938 c 0.23815,0.14012 0.4913,0.25776 0.76565,0.32813 V 18.75 c 0,0.1385 0.1115,0.25 0.25,0.25 h 1 c 0.1385,0 0.25,-0.1115 0.25,-0.25 v -0.84375 c 0.2743,-0.0704 0.5275,-0.18801 0.7656,-0.32813 l 0.6094,0.60938 c 0.0979,0.0979 0.2458,0.0979 0.34375,0 l 0.71875,-0.71875 c 0.0979,-0.0979 0.0979,-0.24582 0,-0.34375 l -0.6094,-0.60938 c 0.14015,-0.23811 0.25775,-0.4913 0.32815,-0.76562 h 0.84375 c 0.1385,0 0.25,-0.1115 0.25,-0.25 v -1 c 0,-0.1385 -0.1115,-0.25 -0.25,-0.25 h -0.84375 c -0.0704,-0.27432 -0.188,-0.52751 -0.32815,-0.76563 l 0.6094,-0.60937 c 0.0979,-0.0979 0.0979,-0.24582 0,-0.34375 l -0.71875,-0.71875 c -0.098,-0.0979 -0.2458,-0.0979 -0.34375,0 l -0.6094,0.60937 c -0.2381,-0.14012 -0.4913,-0.25775 -0.7656,-0.32812 V 11.25 c 0,-0.1385 -0.1115,-0.25 -0.25,-0.25 z m 0.5,2.5 c 0.8284,0 1.5,0.67157 1.5,1.5 0,0.82842 -0.6716,1.5 -1.5,1.5 -0.82845,0 -1.5,-0.67158 -1.5,-1.5 0,-0.82843 0.67155,-1.5 1.5,-1.5 z" />
  <path
     style="color:#000000;display:inline;overflow:visible;visibility:visible;fill:#382a72;fill-opacity:0.552163;fill-rule:nonzero;stroke:none;stroke-width:1.7;marker:none;enable-background:accumulate"
     id="path3575-5-8-4-7-0-1"
     d="m 11.499998,10 c -0.1385,0 -0.25,0.1115 -0.25,0.25 v 0.84375 c -0.27435,0.0704 -0.5275,0.188 -0.76565,0.32812 L 9.874998,10.8125 c -0.098,-0.0979 -0.2458,-0.0979 -0.34375,0 l -0.71875,0.71875 c -0.098,0.0979 -0.098,0.24581 0,0.34375 l 0.60935,0.60937 c -0.1401,0.23812 -0.25775,0.49131 -0.3281,0.76563 h -0.84375 c -0.1385,0 -0.25,0.1115 -0.25,0.25 v 1 c 0,0.1385 0.1115,0.25 0.25,0.25 h 0.84375 c 0.0703,0.27432 0.188,0.52751 0.3281,0.76562 L 8.812498,16.125 c -0.098,0.0979 -0.098,0.24581 0,0.34375 l 0.71875,0.71875 c 0.0979,0.0979 0.2458,0.0979 0.34375,0 l 0.60935,-0.60938 c 0.23815,0.14012 0.4913,0.25776 0.76565,0.32813 V 17.75 c 0,0.1385 0.1115,0.25 0.25,0.25 h 1 c 0.1385,0 0.25,-0.1115 0.25,-0.25 v -0.84375 c 0.2743,-0.0704 0.5275,-0.18801 0.7656,-0.32813 l 0.6094,0.60938 c 0.0979,0.0979 0.2458,0.0979 0.34375,0 l 0.71875,-0.71875 c 0.0979,-0.0979 0.0979,-0.24582 0,-0.34375 l -0.6094,-0.60938 c 0.14015,-0.23811 0.25775,-0.4913 0.32815,-0.76562 h 0.84375 c 0.1385,0 0.25,-0.1115 0.25,-0.25 v -1 c 0,-0.1385 -0.1115,-0.25 -0.25,-0.25 h -0.84375 c -0.0704,-0.27432 -0.188,-0.52751 -0.32815,-0.76563 l 0.6094,-0.60937 c 0.0979,-0.0979 0.0979,-0.24582 0,-0.34375 l -0.71875,-0.71875 c -0.098,-0.0979 -0.2458,-0.0979 -0.34375,0 l -0.6094,0.60937 c -0.2381,-0.14012 -0.4913,-0.25775 -0.7656,-0.32812 V 10.25 c 0,-0.1385 -0.1115,-0.25 -0.25,-0.25 z m 0.5,2.5 c 0.8284,0 1.5,0.67157 1.5,1.5 0,0.82842 -0.6716,1.5 -1.5,1.5 -0.82845,0 -1.5,-0.67158 -1.5,-1.5 0,-0.82843 0.67155,-1.5 1.5,-1.5 z" />
</svg>
