<?xml version="1.0" encoding="UTF-8" standalone="no"?>
<svg
   height="16"
   width="16"
   id="svg2"
   version="1.1"
   xmlns="http://www.w3.org/2000/svg"
   xmlns:svg="http://www.w3.org/2000/svg"
   xmlns:rdf="http://www.w3.org/1999/02/22-rdf-syntax-ns#"
   xmlns:cc="http://creativecommons.org/ns#"
   xmlns:dc="http://purl.org/dc/elements/1.1/">
  <metadata
     id="metadata16">
    <rdf:RDF>
      <cc:Work
         rdf:about="">
        <dc:format>image/svg+xml</dc:format>
        <dc:type
           rdf:resource="http://purl.org/dc/dcmitype/StillImage" />
      </cc:Work>
    </rdf:RDF>
  </metadata>
  <defs
     id="defs14" />
  <path
     id="path8"
     style="color:#bebebe;fill:#ffffff;fill-opacity:1;stroke-width:1;marker:none;opacity:0.6"
     d="m 14.99995,7.99979 -1.99663,1.2e-4 -0.003,1.00043 2.00003,-0.003 z m -2.99758,-6.8e-4 -2.00307,-0.002 -0.002,1.00648 2.0045,4.7e-4 z m -3.00011,8.2e-4 -2.00077,-0.004 -0.005,1.00583 2.00693,-0.001 z" />
  <path
     id="path10"
     style="color:#bebebe;display:inline;fill:#666666;fill-opacity:1;marker:none"
     d="M 5,2.63086 1.65234,6 H 0 v 4 H 1.65234 L 5,13.36914 Z m 10.00461,4.36751 -2.00505,0.003 c -0.003,0.001 0.002,0.99894 0.002,0.99894 l 1.99948,-9e-5 z m -3.00452,0.002 -2.0019,0.002 -0.002,1.00102 2.00659,7.4e-4 z m -2.99653,0.003 -2.00161,-0.001 -0.004,0.99414 2.00001,4.2e-4 z" />
</svg>
