<?xml version="1.0" encoding="UTF-8" standalone="no"?>
<svg
   version="1.1"
   width="48"
   height="48"
   id="svg4231"
   xmlns:xlink="http://www.w3.org/1999/xlink"
   xmlns="http://www.w3.org/2000/svg"
   xmlns:svg="http://www.w3.org/2000/svg"
   xmlns:rdf="http://www.w3.org/1999/02/22-rdf-syntax-ns#"
   xmlns:cc="http://creativecommons.org/ns#"
   xmlns:dc="http://purl.org/dc/elements/1.1/">
  <defs
     id="defs4233">
    <linearGradient
       id="linearGradient5060">
      <stop
         id="stop5062"
         style="stop-color:#000000;stop-opacity:1"
         offset="0" />
      <stop
         id="stop5064"
         style="stop-color:#000000;stop-opacity:0"
         offset="1" />
    </linearGradient>
    <linearGradient
       id="linearGradient5048">
      <stop
         id="stop5050"
         style="stop-color:#000000;stop-opacity:0"
         offset="0" />
      <stop
         id="stop5056"
         style="stop-color:#000000;stop-opacity:1"
         offset="0.5" />
      <stop
         id="stop5052"
         style="stop-color:#000000;stop-opacity:0"
         offset="1" />
    </linearGradient>
    <linearGradient
       id="linearGradient2264">
      <stop
         id="stop3244-gr"
         style="stop-color:#cdf87e;stop-opacity:1"
         offset="0" />
      <stop
         id="stop3246-gr"
         style="stop-color:#a2e34f;stop-opacity:1"
         offset="0.26238" />
      <stop
         id="stop3248-gr"
         style="stop-color:#68b723;stop-opacity:1"
         offset="0.66093999" />
      <stop
         id="stop3250-gr"
         style="stop-color:#1d7e0d;stop-opacity:1"
         offset="1" />
    </linearGradient>
    <linearGradient
       id="linearGradient4559">
      <stop
         id="stop4561"
         style="stop-color:#ffffff;stop-opacity:0"
         offset="0" />
      <stop
         id="stop4563"
         style="stop-color:#ffffff;stop-opacity:0"
         offset="1" />
    </linearGradient>
    <linearGradient
       y2="8.3470001"
       y1="21.915001"
       x2="24.537001"
       x1="24.537001"
       id="n"
       xlink:href="#g-3"
       gradientUnits="userSpaceOnUse"
       gradientTransform="matrix(0.9899,0,0,0.6901,9.2629996,12.220001)" />
    <linearGradient
       id="g-3">
      <stop
         id="stop18"
         stop-color="#fff"
         offset="0" />
      <stop
         id="stop20"
         stop-color="#fff"
         offset="0.35662466" />
      <stop
         id="stop22"
         stop-opacity=".643"
         stop-color="#fff"
         offset="0.46007031" />
      <stop
         id="stop24"
         stop-opacity=".391"
         stop-color="#fff"
         offset="1" />
    </linearGradient>
    <linearGradient
       xlink:href="#linearGradient121303"
       id="linearGradient121764"
       gradientUnits="userSpaceOnUse"
       gradientTransform="matrix(0.68006824,0,0,0.57741648,16.687852,20.582247)"
       x1="25.086039"
       y1="-1.3623691"
       x2="25.086039"
       y2="18.299334" />
    <linearGradient
       id="linearGradient121303">
      <stop
         id="stop121295"
         style="stop-color:#ffffff;stop-opacity:1"
         offset="0" />
      <stop
         id="stop121297"
         style="stop-color:#ffffff;stop-opacity:0.23529412"
         offset="0.11419468" />
      <stop
         id="stop121299"
         style="stop-color:#ffffff;stop-opacity:0.15686275"
         offset="0.93896598" />
      <stop
         id="stop121301"
         style="stop-color:#ffffff;stop-opacity:0.39215687"
         offset="1" />
    </linearGradient>
    <linearGradient
       xlink:href="#linearGradient3924-2-2-5-8"
       id="linearGradient121760"
       gradientUnits="userSpaceOnUse"
       gradientTransform="matrix(0.67567599,0,0,0.56756767,16.783777,20.378377)"
       x1="23.99999"
       y1="6.4195485"
       x2="23.99999"
       y2="41.544617" />
    <linearGradient
       id="linearGradient3924-2-2-5-8">
      <stop
         id="stop3926-9-4-9-6"
         style="stop-color:#ffffff;stop-opacity:1"
         offset="0" />
      <stop
         id="stop3928-9-8-6-5"
         style="stop-color:#ffffff;stop-opacity:0.23529412"
         offset="0.07611413" />
      <stop
         id="stop3930-3-5-1-7"
         style="stop-color:#ffffff;stop-opacity:0.15686275"
         offset="0.9069767" />
      <stop
         id="stop3932-8-0-4-8"
         style="stop-color:#ffffff;stop-opacity:0.39215687"
         offset="1" />
    </linearGradient>
    <linearGradient
       xlink:href="#linearGradient4559"
       id="linearGradient121758"
       gradientUnits="userSpaceOnUse"
       gradientTransform="matrix(0.83927807,0,0,0.76888647,13.269282,12.896271)"
       x1="23.452"
       y1="30.555"
       x2="43.007"
       y2="45.933998" />
    <linearGradient
       xlink:href="#linearGradient106305"
       id="linearGradient121756"
       gradientUnits="userSpaceOnUse"
       gradientTransform="matrix(0.8443639,0,0,0.91410403,44.630994,5.4577698)"
       x1="-5.8870335"
       y1="19.239614"
       x2="-5.8870335"
       y2="43.792946" />
    <linearGradient
       id="linearGradient106305">
      <stop
         offset="0"
         stop-color="#dac197"
         id="stop106301"
         style="stop-color:#e7c591;stop-opacity:1" />
      <stop
         offset="1"
         stop-color="#b19974"
         id="stop106303"
         style="stop-color:#cfa25e;stop-opacity:1" />
    </linearGradient>
    <linearGradient
       xlink:href="#linearGradient106305"
       id="linearGradient1703"
       gradientUnits="userSpaceOnUse"
       gradientTransform="matrix(0.8443639,0,0,0.90745565,44.630994,5.7489918)"
       x1="-5.8870335"
       y1="11.482978"
       x2="-5.8870335"
       y2="22.148865" />
    <radialGradient
       cx="5"
       cy="41.5"
       fx="5"
       fy="41.5"
       gradientTransform="matrix(1.0028871,0,0,1.6,53.201858,-106.87522)"
       gradientUnits="userSpaceOnUse"
       xlink:href="#linearGradient5060"
       id="i-6-9-7-8-9"
       r="5" />
    <linearGradient
       xlink:href="#linearGradient5048"
       id="linearGradient121754"
       gradientUnits="userSpaceOnUse"
       gradientTransform="matrix(2.1304332,0,0,1.45455,-83.781828,-18.434784)"
       x1="17.554001"
       y1="46"
       x2="17.554001"
       y2="35" />
    <radialGradient
       cx="5"
       cy="41.5"
       fx="5"
       fy="41.5"
       gradientTransform="matrix(1.0028871,0,0,1.6,-14.229948,-106.87522)"
       gradientUnits="userSpaceOnUse"
       xlink:href="#linearGradient5060"
       id="k-0-7-3-9-3"
       r="5" />
    <radialGradient
       cx="65.59787"
       cy="48.744953"
       r="31.000002"
       fx="65.59787"
       fy="48.744953"
       id="radialGradient3343"
       xlink:href="#linearGradient2264"
       gradientUnits="userSpaceOnUse"
       gradientTransform="matrix(0,0.95936489,-1.0436697,0,62.764875,-36.838422)" />
    <linearGradient
       x1="24.138529"
       y1="9.712431"
       x2="24.138529"
       y2="36.594009"
       id="linearGradient3030-44"
       xlink:href="#linearGradient4154"
       gradientUnits="userSpaceOnUse"
       gradientTransform="matrix(0.70448868,0,0,0.59520312,-3.751307,22.246501)" />
    <linearGradient
       id="linearGradient4154">
      <stop
         id="stop4156"
         style="stop-color:#ffffff;stop-opacity:1"
         offset="0" />
      <stop
         id="stop4158"
         style="stop-color:#ffffff;stop-opacity:0.23529412"
         offset="0" />
      <stop
         id="stop4160"
         style="stop-color:#ffffff;stop-opacity:0.15686275"
         offset="1" />
      <stop
         id="stop4162"
         style="stop-color:#ffffff;stop-opacity:0.39215687"
         offset="1" />
    </linearGradient>
    <linearGradient
       x1="24.138529"
       y1="20.271303"
       x2="24.138529"
       y2="26.006231"
       id="linearGradient3030-1"
       xlink:href="#linearGradient4154"
       gradientUnits="userSpaceOnUse"
       gradientTransform="matrix(0.60015241,0,0,0.69748032,-1.436606,19.888535)" />
    <linearGradient
       id="linearGradient6129-963-697-142-998-580-273">
      <stop
         id="stop2661"
         style="stop-color:#0a0a0a;stop-opacity:0.498"
         offset="0" />
      <stop
         id="stop2663"
         style="stop-color:#0a0a0a;stop-opacity:0"
         offset="1" />
    </linearGradient>
    <linearGradient
       x1="11.566265"
       y1="22.292103"
       x2="15.214532"
       y2="33.95525"
       id="linearGradient2432"
       xlink:href="#linearGradient8265-821-176-38-919-66-249"
       gradientUnits="userSpaceOnUse" />
    <linearGradient
       id="linearGradient8265-821-176-38-919-66-249">
      <stop
         id="stop2687"
         style="stop-color:#ffffff;stop-opacity:0.2"
         offset="0" />
      <stop
         id="stop2689"
         style="stop-color:#ffffff;stop-opacity:0"
         offset="1" />
    </linearGradient>
    <linearGradient
       y2="3.6336823"
       x2="-51.786404"
       y1="53.514328"
       x1="-51.786404"
       gradientTransform="matrix(0.50703384,0,0,0.50300255,68.029219,1.329769)"
       gradientUnits="userSpaceOnUse"
       id="linearGradient14236"
       xlink:href="#linearGradient3104-8-8-97-4-6-11-5-5-0" />
    <linearGradient
       id="linearGradient3104-8-8-97-4-6-11-5-5-0">
      <stop
         offset="0"
         style="stop-color:#000000;stop-opacity:0.32173914"
         id="stop3106-5-4-3-5-0-2-1-0-6" />
      <stop
         offset="1"
         style="stop-color:#000000;stop-opacity:0.27826086"
         id="stop3108-4-3-7-8-2-0-7-9-1" />
    </linearGradient>
    <linearGradient
       xlink:href="#linearGradient4646-7-4-3-5"
       id="linearGradient5899"
       gradientUnits="userSpaceOnUse"
       gradientTransform="matrix(0.61904762,0,0,0.61904762,-30.391811,1.428569)"
       x1="62.988873"
       y1="13"
       x2="62.988873"
       y2="16" />
    <linearGradient
       id="linearGradient4646-7-4-3-5">
      <stop
         offset="0"
         style="stop-color:#f9f9f9;stop-opacity:1"
         id="stop4648-8-0-3-6" />
      <stop
         offset="1"
         style="stop-color:#d8d8d8;stop-opacity:1"
         id="stop4650-1-7-3-4" />
    </linearGradient>
    <linearGradient
       xlink:href="#linearGradient4325"
       id="linearGradient5903"
       gradientUnits="userSpaceOnUse"
       gradientTransform="matrix(0.54383556,0,0,0.61466406,3.2688794,5.091139)"
       x1="21.577099"
       y1="4.5864725"
       x2="21.738884"
       y2="23.706192" />
    <linearGradient
       id="linearGradient4325">
      <stop
         offset="0"
         style="stop-color:#ffffff;stop-opacity:1"
         id="stop4327" />
      <stop
         offset="0.1106325"
         style="stop-color:#ffffff;stop-opacity:0.23529412"
         id="stop4329" />
      <stop
         offset="0.99001008"
         style="stop-color:#ffffff;stop-opacity:0.15686275"
         id="stop4331" />
      <stop
         offset="1"
         style="stop-color:#ffffff;stop-opacity:0.39215687"
         id="stop4333" />
    </linearGradient>
    <linearGradient
       xlink:href="#linearGradient5048"
       id="linearGradient5905"
       gradientUnits="userSpaceOnUse"
       gradientTransform="matrix(0.05942751,0,0,0.01591575,-3.4841203,22.29927)"
       x1="302.85715"
       y1="366.64789"
       x2="302.85715"
       y2="609.50507" />
    <radialGradient
       xlink:href="#linearGradient5060"
       id="radialGradient5907"
       gradientUnits="userSpaceOnUse"
       gradientTransform="matrix(0.01983573,0,0,0.01591575,20.387612,22.29927)"
       cx="605.71429"
       cy="486.64789"
       fx="605.71429"
       fy="486.64789"
       r="117.14286" />
    <radialGradient
       xlink:href="#linearGradient5060"
       id="radialGradient5909"
       gradientUnits="userSpaceOnUse"
       gradientTransform="matrix(-0.01983573,0,0,0.01591575,15.60139,22.29927)"
       cx="605.71429"
       cy="486.64789"
       fx="605.71429"
       fy="486.64789"
       r="117.14286" />
    <linearGradient
       id="linearGradient4632-0-6-4-4-4">
      <stop
         offset="0"
         style="stop-color:#b4cee1;stop-opacity:1;"
         id="stop4634-4-4-7-4" />
      <stop
         offset="1"
         style="stop-color:#5d9fcd;stop-opacity:1;"
         id="stop4636-3-1-5-9" />
    </linearGradient>
    <linearGradient
       xlink:href="#linearGradient3454-2-5-0-3-4"
       id="linearGradient5926"
       gradientUnits="userSpaceOnUse"
       gradientTransform="matrix(0.89186139,0,0,1.0539115,3.1208294,5.412539)"
       x1="27.894541"
       y1="7.1234193"
       x2="27.864592"
       y2="24.336018" />
    <linearGradient
       id="linearGradient3454-2-5-0-3-4">
      <stop
         offset="0"
         style="stop-color:#ffffff;stop-opacity:1"
         id="stop3456-4-9-38-1-8" />
      <stop
         offset="0.0097359"
         style="stop-color:#ffffff;stop-opacity:0.23529412"
         id="stop3458-39-80-3-5-5" />
      <stop
         offset="0.99001008"
         style="stop-color:#ffffff;stop-opacity:0.15686275"
         id="stop3460-7-0-2-4-2" />
      <stop
         offset="1"
         style="stop-color:#ffffff;stop-opacity:0.39215687"
         id="stop3462-0-9-8-7-2" />
    </linearGradient>
    <linearGradient
       xlink:href="#linearGradient6129-963-697-142-998-580-273"
       id="linearGradient5922"
       gradientUnits="userSpaceOnUse"
       gradientTransform="matrix(0.7467531,0,0,0.6554922,-1.9218906,1.167619)"
       x1="22.934725"
       y1="49.629246"
       x2="22.809399"
       y2="36.657963" />
    <linearGradient
       xlink:href="#linearGradient4632-0-6-4-4-4"
       id="linearGradient2"
       gradientUnits="userSpaceOnUse"
       gradientTransform="matrix(0.50413225,0,0,0.49333391,4.108882,-20.937122)"
       x1="23.56572"
       y1="66.409439"
       x2="23.579985"
       y2="107.13298" />
  </defs>
  <metadata
     id="metadata4236">
    <rdf:RDF>
      <cc:Work
         rdf:about="">
        <dc:format>image/svg+xml</dc:format>
        <dc:type
           rdf:resource="http://purl.org/dc/dcmitype/StillImage" />
      </cc:Work>
    </rdf:RDF>
  </metadata>
  <g
     id="layer1-6"
     transform="translate(0,-5)"
     style="display:inline">
    <path
       d="m 4.0001794,6.500079 c -0.43342,0.005 -0.5,0.21723 -0.5,0.6349 v 1.36502 c -0.9820038,-0.00284 -1,-0.002 -1,0.54389 L 2.5,13.5 h 31 V 9.043889 c 0,-0.41767 -0.393277,-0.54876 -0.826697,-0.54389 H 14.500179 v -1.36502 c 0,-0.41767 -0.26424,-0.63977 -0.69767,-0.6349 z"
       id="path3468-10"
       style="color:#000000;display:inline;overflow:visible;visibility:visible;opacity:0.8;fill:none;stroke:url(#linearGradient14236);stroke-width:1;stroke-linecap:butt;stroke-linejoin:miter;stroke-miterlimit:4;stroke-dasharray:none;stroke-dashoffset:0;stroke-opacity:1;marker:none;enable-background:accumulate" />
    <path
       style="color:#000000;display:inline;overflow:visible;visibility:visible;fill:url(#linearGradient5899);fill-opacity:1;fill-rule:nonzero;stroke:none;stroke-width:1;marker:none;enable-background:accumulate"
       d="m 4.0001794,6.999999 v 2 h -1 v 4 L 33,13 V 9 l -18.999821,-10e-7 v -2 z"
       id="rect3409-5" />
    <path
       style="color:#000000;display:inline;overflow:visible;visibility:visible;fill:none;stroke:url(#linearGradient5903);stroke-width:1;stroke-linecap:round;stroke-linejoin:miter;stroke-miterlimit:4;stroke-dasharray:none;stroke-dashoffset:0;stroke-opacity:1;marker:none;enable-background:accumulate"
       d="m 4.5001794,7.499999 v 2 h -1 V 12.5 H 32.5 V 9.499999 H 13.500179 v -2 z"
       id="rect3409" />
    <g
       transform="translate(1.7935663e-4,2.0002534)"
       id="g2458"
       style="display:inline">
      <rect
         width="28.695"
         height="3.8652544"
         x="3.6471813"
         y="28.134747"
         id="rect4173-1"
         style="display:inline;overflow:visible;visibility:visible;opacity:0.3;fill:url(#linearGradient5905);fill-opacity:1;fill-rule:nonzero;stroke:none;stroke-width:1;marker:none" />
      <path
         d="m 32.341821,28.13488 c 0,0 0,3.865041 0,3.865041 1.021491,0.0073 2.469468,-0.86596 2.469468,-1.932769 0,-1.06681 -1.139908,-1.932272 -2.469468,-1.932272 z"
         id="path5058-4"
         style="display:inline;overflow:visible;visibility:visible;opacity:0.3;fill:url(#radialGradient5907);fill-opacity:1;fill-rule:nonzero;stroke:none;stroke-width:1;marker:none" />
      <path
         d="m 3.6471816,28.13488 c 0,0 0,3.865041 0,3.865041 -1.0214912,0.0073 -2.4694678,-0.86596 -2.4694678,-1.932769 0,-1.06681 1.1399068,-1.932272 2.4694678,-1.932272 z"
         id="path5018-84"
         style="display:inline;overflow:visible;visibility:visible;opacity:0.3;fill:url(#radialGradient5909);fill-opacity:1;fill-rule:nonzero;stroke:none;stroke-width:1;marker:none" />
    </g>
    <path
       d="m 1.8069913,11.504004 c -0.3025714,0.0057 -0.299023,0.09712 -0.301,0.358 0.023787,0.247029 0.6171137,19.721865 0.6416881,20.251 0.00657,0.384626 0.2370378,0.392936 0.8023119,0.391 H 32.951991 c 0.655864,-0.0038 0.90421,-0.01521 0.902,-0.393 0.023,-0.524078 0.62311,-19.984042 0.646,-20.249002 -0.003,-0.261262 -0.02246,-0.358 -0.306,-0.358 z"
       id="path2"
       style="color:#000000;display:inline;overflow:visible;visibility:visible;opacity:1;vector-effect:none;fill:url(#linearGradient2);fill-opacity:1;fill-rule:nonzero;stroke:#000000;stroke-width:1;stroke-linecap:butt;stroke-linejoin:miter;stroke-miterlimit:4;stroke-dasharray:none;stroke-dashoffset:0;stroke-opacity:0.301961;marker:none;enable-background:accumulate"
       transform="translate(8.7176796e-6,-0.004004)" />
    <path
       style="color:#000000;display:inline;overflow:visible;visibility:visible;opacity:0.5;fill:none;stroke:url(#linearGradient5926);stroke-width:1;stroke-linecap:round;stroke-linejoin:miter;stroke-miterlimit:4;stroke-dasharray:none;stroke-dashoffset:0;stroke-opacity:1;marker:none;enable-background:accumulate"
       d="m 2.5251315,12.505544 0.6110951,18.986427 29.7350814,0.0045 0.601641,-18.998576 z"
       id="path3309" />
    <path
       d="m 2,11 h 32 c 0.341315,0.0056 0.998512,0.580985 1,1 L 34.347386,32.241247 C 34.30591,32.729925 33.844422,32.993377 33.33044,33 H 2.6855393 C 2.1126909,33.0093 1.6966333,32.732969 1.6470544,32.218396 L 1,11.5 C 1.0009916,11.248599 1.687623,11.007327 2,11 Z"
       id="path6127-36"
       style="display:inline;opacity:0.4;fill:url(#linearGradient5922);fill-opacity:1;stroke:none" />
    <path
       d="M 46.386252,15.721408 1.671473,15.720722 c -0.3988328,0.02561 -0.5466837,0.0332 -0.5533021,0.681384 l 0.517638,15.877692 c -0.00271,0.05424 44.9824331,-7.087641 44.9824331,-7.087641 l 0.281392,-8.799312 c 6.68e-4,-0.62358 -0.0691,-0.675038 -0.513382,-0.671437 z"
       id="path3455"
       style="display:inline;fill:url(#linearGradient2432);fill-opacity:1;stroke:none"
       transform="matrix(0.72046052,0,0,0.72046052,0.7012338,0.1738401)" />
  </g>
  <g
     id="g2277"
     transform="matrix(0.50847457,0,0,0.5625,50.144155,20.732692)"
     style="display:inline;stroke-width:1.86984">
    <rect
       fill="url(#i)"
       height="16"
       opacity="0.4"
       transform="scale(-1)"
       width="5"
       x="58.216839"
       y="-48.475216"
       id="rect77-9-90-2-7-8"
       style="fill:url(#i-6-9-7-8-9);stroke-width:1.86984" />
    <rect
       fill="url(#j)"
       height="16"
       opacity="0.4"
       width="48.9995"
       x="-58.216839"
       y="32.475216"
       id="rect79-7-2-0-1-4"
       style="fill:url(#linearGradient121754);stroke-width:1.86984" />
    <rect
       fill="url(#k)"
       height="16"
       opacity="0.4"
       transform="scale(1,-1)"
       width="5"
       x="-9.2168379"
       y="-48.475216"
       id="rect81-3-8-6-7-8"
       style="fill:url(#k-0-7-3-9-3);stroke-width:1.86984" />
  </g>
  <path
     id="rect5505-21-1-5-0-6-5-1-2-5-10"
     style="color:#000000;font-variation-settings:normal;display:inline;overflow:visible;visibility:visible;vector-effect:none;fill:url(#linearGradient1703);fill-opacity:1;fill-rule:nonzero;stroke:none;stroke-width:0.999999;stroke-linecap:butt;stroke-linejoin:miter;stroke-miterlimit:4;stroke-dasharray:none;stroke-dashoffset:0;stroke-opacity:0.3;-inkscape-stroke:none;marker:none;enable-background:accumulate;stop-color:#000000"
     d="m 24.409088,18.499999 c -1.631783,0 -2.282728,0.963405 -2.945456,2.454546 -0.507982,1.139949 -1.099023,2.31941 -1.568607,3.436364 -0.249745,0.433049 -0.395029,0.934932 -0.395029,1.472727 h 27.000008 c 0,-0.537795 -0.145285,-1.039678 -0.39503,-1.472727 -0.482313,-1.111298 -1.046422,-2.302806 -1.568608,-3.436364 -0.682805,-1.482056 -1.313672,-2.454546 -2.945455,-2.454546 z" />
  <path
     id="rect5505-21-1-5-0-6-5-1-2-3"
     style="color:#000000;font-variation-settings:normal;display:inline;overflow:visible;visibility:visible;vector-effect:none;fill:url(#linearGradient121756);fill-opacity:1;fill-rule:nonzero;stroke:none;stroke-width:0.999999;stroke-linecap:butt;stroke-linejoin:miter;stroke-miterlimit:4;stroke-dasharray:none;stroke-dashoffset:0;stroke-opacity:0.3;-inkscape-stroke:none;marker:none;enable-background:accumulate;stop-color:#000000"
     d="m 22.455426,23.000001 c -1.227273,0 -2.945455,1.077548 -2.945455,3.708793 v 15.824184 c 0,0.124618 0.01007,0.246631 0.02494,0.367017 0.0034,0.02792 0.0083,0.05539 0.01246,0.08306 0.01482,0.09723 0.03358,0.193045 0.05753,0.286851 0.0061,0.02421 0.01154,0.04847 0.01821,0.07244 0.06723,0.23804 0.161842,0.464468 0.281889,0.67415 3.54e-4,6.43e-4 4.91e-4,0.0013 9.82e-4,0.0019 0.508258,0.886334 1.456214,1.481589 2.549434,1.481589 h 21.109098 c 1.09322,0 2.041176,-0.595255 2.549468,-1.481586 2.75e-4,-6.43e-4 4.91e-4,-0.0013 9.82e-4,-0.0019 0.120047,-0.209682 0.21465,-0.43611 0.28189,-0.67415 0.0067,-0.02395 0.01213,-0.04823 0.01821,-0.07244 0.02396,-0.0938 0.04271,-0.189622 0.05753,-0.286851 0.0039,-0.02767 0.0091,-0.05514 0.01246,-0.08306 0.01488,-0.120389 0.02489,-0.242402 0.02489,-0.36702 V 26.956046 c 0,-1.852253 -0.736365,-3.956045 -2.945456,-3.956045 z" />
  <path
     d="m 23.754122,22.594181 h 18.099824 c 1.056927,0 1.710818,0.364255 2.153619,1.36571 l 1.524273,4.202182 v 15.148966 c 0,0.9558 -0.536073,1.437382 -1.59251,1.437382 H 21.859212 c -1.056437,0 -1.487455,-0.529691 -1.487455,-1.485491 V 28.161091 l 1.475183,-4.292019 c 0.294545,-0.775636 0.850745,-1.275382 1.907182,-1.275382 z"
     display="inline"
     fill="none"
     opacity="0.505"
     overflow="visible"
     stroke="url(#m)"
     stroke-width="0.741999"
     style="stroke:url(#linearGradient121758);marker:none"
     id="path85-1-8-5-7-0" />
  <rect
     style="display:inline;opacity:0.3;fill:none;stroke:url(#linearGradient121760);stroke-width:0.999993;stroke-linecap:round;stroke-linejoin:round;stroke-miterlimit:4;stroke-dasharray:none;stroke-dashoffset:0;stroke-opacity:1"
     id="rect6741-5-0-2-3-4-2-4"
     y="23.499998"
     x="20.499994"
     ry="2"
     height="21.000006"
     width="25"
     rx="2" />
  <path
     id="rect5505-21-1-5-0-6-5-1-2-5-1-4"
     style="color:#000000;font-variation-settings:normal;display:inline;overflow:visible;visibility:visible;vector-effect:none;fill:none;fill-opacity:1;fill-rule:nonzero;stroke:#804b00;stroke-width:0.999999;stroke-linecap:butt;stroke-linejoin:miter;stroke-miterlimit:4;stroke-dasharray:none;stroke-dashoffset:0;stroke-opacity:0.5;-inkscape-stroke:none;marker:none;enable-background:accumulate;stop-color:#000000"
     d="m 24.409088,18.499999 c -1.631783,0 -2.282728,0.963405 -2.945456,2.454546 -0.507982,1.139949 -1.099023,2.31941 -1.568607,3.436364 -0.249745,0.433049 -0.395029,0.934932 -0.395029,1.472727 v 16.690912 c 0,1.631782 1.313673,2.945455 2.945455,2.945455 h 21.109098 c 1.631782,0 2.945455,-1.313673 2.945455,-2.945455 V 25.863636 c 0,-0.537795 -0.145285,-1.039678 -0.39503,-1.472727 -0.482313,-1.111298 -1.046422,-2.302806 -1.568608,-3.436364 -0.682805,-1.482056 -1.313672,-2.454546 -2.945455,-2.454546 z" />
  <path
     id="rect5505-21-1-5-0-6-5-1-2-5-1-7-7"
     style="color:#000000;font-variation-settings:normal;display:inline;overflow:visible;visibility:visible;opacity:0.15;vector-effect:none;fill:none;fill-opacity:1;fill-rule:nonzero;stroke:url(#linearGradient121764);stroke-width:0.999985;stroke-linecap:round;stroke-linejoin:round;stroke-miterlimit:4;stroke-dasharray:none;stroke-dashoffset:0;stroke-opacity:1;-inkscape-stroke:none;marker:none;enable-background:accumulate;stop-color:#000000"
     d="m 44.939447,24.247641 -1.226435,-2.658497 c -0.32322,-0.701586 -0.617349,-1.309466 -0.967603,-1.6451 -0.350257,-0.335635 -0.744934,-0.444049 -1.43681,-0.444049 H 24.691837 c -0.692786,0 -1.111591,0.114703 -1.46305,0.448721 -0.351458,0.334018 -0.626394,0.931477 -0.938589,1.633938 v 9.5e-4 l -1.239155,2.664037" />
  <path
     id="path87"
     style="display:inline;overflow:visible;opacity:0.3;fill:url(#n);marker:none"
     overflow="visible"
     d="m 31.37,18.000001 h 3.3 l 0.33,6.331 v 3.071 c -0.39,0 -0.78,-0.532 -1.17,-0.532 -0.398,0 -0.797,0.532 -1.196,0.532 -0.322,0 -0.643,-0.466 -0.964,-0.466 -0.21,0 -0.42,0.466 -0.63,0.466 0,0 -0.09,-1.325 0,-3.07 z" />
  <path
     d="m 8.5,32.5 v -6 h 7 v 6 h 6 v 7 h -6 v 6 h -7 v -6 h -6 v -7 z"
     id="path2262"
     style="color:#000000;display:inline;overflow:visible;visibility:visible;fill:url(#radialGradient3343);fill-opacity:1;fill-rule:nonzero;stroke:none;stroke-width:1;stroke-linecap:round;stroke-linejoin:round;stroke-miterlimit:4;stroke-dasharray:none;stroke-dashoffset:0;stroke-opacity:1;marker:none;enable-background:accumulate" />
  <path
     style="display:inline;opacity:0.5;fill:none;stroke:url(#linearGradient3030-44);stroke-width:1;stroke-linecap:butt;stroke-linejoin:miter;stroke-miterlimit:4;stroke-dasharray:none;stroke-opacity:1"
     id="path2272-4"
     d="m 9.5,34.5 v -7 h 5 v 7 m 0,3 0.0073,7.02737 L 9.5,44.5 v -7" />
  <path
     style="display:inline;opacity:0.5;fill:none;stroke:url(#linearGradient3030-1);stroke-width:1;stroke-linecap:butt;stroke-linejoin:miter;stroke-miterlimit:4;stroke-dasharray:none;stroke-opacity:1"
     id="path2272-2"
     d="m 15,33.5 h 5.5 v 5 H 15 m -6,0 H 3.5 v -5 H 9" />
  <path
     d="m 8.5,32.5 v -6 h 7 v 6 h 6 v 7 h -6 v 6 h -7 v -6 h -6 v -7 z"
     id="path2262-2"
     style="color:#000000;clip-rule:nonzero;display:inline;overflow:visible;visibility:visible;opacity:0.5;isolation:auto;mix-blend-mode:normal;color-interpolation:sRGB;color-interpolation-filters:linearRGB;solid-color:#000000;solid-opacity:1;fill:none;fill-opacity:1;fill-rule:nonzero;stroke:#0f5a00;stroke-width:1;stroke-linecap:round;stroke-linejoin:round;stroke-miterlimit:4;stroke-dasharray:none;stroke-dashoffset:0;stroke-opacity:1;marker:none;color-rendering:auto;image-rendering:auto;shape-rendering:auto;text-rendering:auto;enable-background:accumulate" />
</svg>
