<?xml version="1.0" encoding="UTF-8" standalone="no"?>
<svg
   version="1.1"
   width="48"
   height="48"
   id="svg4231"
   xmlns:xlink="http://www.w3.org/1999/xlink"
   xmlns="http://www.w3.org/2000/svg"
   xmlns:svg="http://www.w3.org/2000/svg"
   xmlns:rdf="http://www.w3.org/1999/02/22-rdf-syntax-ns#"
   xmlns:cc="http://creativecommons.org/ns#"
   xmlns:dc="http://purl.org/dc/elements/1.1/">
  <defs
     id="defs4233">
    <linearGradient
       id="linearGradient5060">
      <stop
         id="stop5062"
         style="stop-color:#000000;stop-opacity:1"
         offset="0" />
      <stop
         id="stop5064"
         style="stop-color:#000000;stop-opacity:0"
         offset="1" />
    </linearGradient>
    <linearGradient
       id="linearGradient5048">
      <stop
         id="stop5050"
         style="stop-color:#000000;stop-opacity:0"
         offset="0" />
      <stop
         id="stop5056"
         style="stop-color:#000000;stop-opacity:1"
         offset="0.5" />
      <stop
         id="stop5052"
         style="stop-color:#000000;stop-opacity:0"
         offset="1" />
    </linearGradient>
    <linearGradient
       id="linearGradient2264">
      <stop
         id="stop3244-gr"
         style="stop-color:#cdf87e;stop-opacity:1"
         offset="0" />
      <stop
         id="stop3246-gr"
         style="stop-color:#a2e34f;stop-opacity:1"
         offset="0.26238" />
      <stop
         id="stop3248-gr"
         style="stop-color:#68b723;stop-opacity:1"
         offset="0.66093999" />
      <stop
         id="stop3250-gr"
         style="stop-color:#1d7e0d;stop-opacity:1"
         offset="1" />
    </linearGradient>
    <linearGradient
       id="linearGradient4559">
      <stop
         id="stop4561"
         style="stop-color:#ffffff;stop-opacity:0"
         offset="0" />
      <stop
         id="stop4563"
         style="stop-color:#ffffff;stop-opacity:0"
         offset="1" />
    </linearGradient>
    <linearGradient
       y2="8.3470001"
       y1="21.915001"
       x2="24.537001"
       x1="24.537001"
       id="n"
       xlink:href="#g-3"
       gradientUnits="userSpaceOnUse"
       gradientTransform="matrix(0.9899,0,0,0.6901,9.2629996,12.220001)" />
    <linearGradient
       id="g-3">
      <stop
         id="stop18"
         stop-color="#fff"
         offset="0" />
      <stop
         id="stop20"
         stop-color="#fff"
         offset="0.35662466" />
      <stop
         id="stop22"
         stop-opacity=".643"
         stop-color="#fff"
         offset="0.46007031" />
      <stop
         id="stop24"
         stop-opacity=".391"
         stop-color="#fff"
         offset="1" />
    </linearGradient>
    <linearGradient
       xlink:href="#linearGradient121303"
       id="linearGradient121764"
       gradientUnits="userSpaceOnUse"
       gradientTransform="matrix(0.68006824,0,0,0.57741648,16.687852,20.582247)"
       x1="25.086039"
       y1="-1.3623691"
       x2="25.086039"
       y2="18.299334" />
    <linearGradient
       id="linearGradient121303">
      <stop
         id="stop121295"
         style="stop-color:#ffffff;stop-opacity:1"
         offset="0" />
      <stop
         id="stop121297"
         style="stop-color:#ffffff;stop-opacity:0.23529412"
         offset="0.11419468" />
      <stop
         id="stop121299"
         style="stop-color:#ffffff;stop-opacity:0.15686275"
         offset="0.93896598" />
      <stop
         id="stop121301"
         style="stop-color:#ffffff;stop-opacity:0.39215687"
         offset="1" />
    </linearGradient>
    <linearGradient
       xlink:href="#linearGradient3924-2-2-5-8"
       id="linearGradient121760"
       gradientUnits="userSpaceOnUse"
       gradientTransform="matrix(0.67567599,0,0,0.56756767,16.783777,20.378377)"
       x1="23.99999"
       y1="6.4195485"
       x2="23.99999"
       y2="41.544617" />
    <linearGradient
       id="linearGradient3924-2-2-5-8">
      <stop
         id="stop3926-9-4-9-6"
         style="stop-color:#ffffff;stop-opacity:1"
         offset="0" />
      <stop
         id="stop3928-9-8-6-5"
         style="stop-color:#ffffff;stop-opacity:0.23529412"
         offset="0.07611413" />
      <stop
         id="stop3930-3-5-1-7"
         style="stop-color:#ffffff;stop-opacity:0.15686275"
         offset="0.9069767" />
      <stop
         id="stop3932-8-0-4-8"
         style="stop-color:#ffffff;stop-opacity:0.39215687"
         offset="1" />
    </linearGradient>
    <linearGradient
       xlink:href="#linearGradient4559"
       id="linearGradient121758"
       gradientUnits="userSpaceOnUse"
       gradientTransform="matrix(0.83927807,0,0,0.76888647,13.269282,12.896271)"
       x1="23.452"
       y1="30.555"
       x2="43.007"
       y2="45.933998" />
    <linearGradient
       xlink:href="#linearGradient106305"
       id="linearGradient121756"
       gradientUnits="userSpaceOnUse"
       gradientTransform="matrix(0.8443639,0,0,0.91410403,44.630994,5.4577698)"
       x1="-5.8870335"
       y1="19.239614"
       x2="-5.8870335"
       y2="43.792946" />
    <linearGradient
       id="linearGradient106305">
      <stop
         offset="0"
         stop-color="#dac197"
         id="stop106301"
         style="stop-color:#e7c591;stop-opacity:1" />
      <stop
         offset="1"
         stop-color="#b19974"
         id="stop106303"
         style="stop-color:#cfa25e;stop-opacity:1" />
    </linearGradient>
    <linearGradient
       xlink:href="#linearGradient106305"
       id="linearGradient1703"
       gradientUnits="userSpaceOnUse"
       gradientTransform="matrix(0.8443639,0,0,0.90745565,44.630994,5.7489918)"
       x1="-5.8870335"
       y1="11.482978"
       x2="-5.8870335"
       y2="22.148865" />
    <radialGradient
       cx="5"
       cy="41.5"
       fx="5"
       fy="41.5"
       gradientTransform="matrix(1.0028871,0,0,1.6,53.201858,-106.87522)"
       gradientUnits="userSpaceOnUse"
       xlink:href="#linearGradient5060"
       id="i-6-9-7-8-9"
       r="5" />
    <linearGradient
       xlink:href="#linearGradient5048"
       id="linearGradient121754"
       gradientUnits="userSpaceOnUse"
       gradientTransform="matrix(2.1304332,0,0,1.45455,-83.781828,-18.434784)"
       x1="17.554001"
       y1="46"
       x2="17.554001"
       y2="35" />
    <radialGradient
       cx="5"
       cy="41.5"
       fx="5"
       fy="41.5"
       gradientTransform="matrix(1.0028871,0,0,1.6,-14.229948,-106.87522)"
       gradientUnits="userSpaceOnUse"
       xlink:href="#linearGradient5060"
       id="k-0-7-3-9-3"
       r="5" />
    <radialGradient
       cx="65.59787"
       cy="48.744953"
       r="31.000002"
       fx="65.59787"
       fy="48.744953"
       id="radialGradient3343"
       xlink:href="#linearGradient2264"
       gradientUnits="userSpaceOnUse"
       gradientTransform="matrix(0,0.95936489,-1.0436697,0,62.764875,-36.838422)" />
    <linearGradient
       x1="24.138529"
       y1="9.712431"
       x2="24.138529"
       y2="36.594009"
       id="linearGradient3030-44"
       xlink:href="#linearGradient4154"
       gradientUnits="userSpaceOnUse"
       gradientTransform="matrix(0.70448868,0,0,0.59520312,-3.751307,22.246501)" />
    <linearGradient
       id="linearGradient4154">
      <stop
         id="stop4156"
         style="stop-color:#ffffff;stop-opacity:1"
         offset="0" />
      <stop
         id="stop4158"
         style="stop-color:#ffffff;stop-opacity:0.23529412"
         offset="0" />
      <stop
         id="stop4160"
         style="stop-color:#ffffff;stop-opacity:0.15686275"
         offset="1" />
      <stop
         id="stop4162"
         style="stop-color:#ffffff;stop-opacity:0.39215687"
         offset="1" />
    </linearGradient>
    <linearGradient
       x1="24.138529"
       y1="20.271303"
       x2="24.138529"
       y2="26.006231"
       id="linearGradient3030-1"
       xlink:href="#linearGradient4154"
       gradientUnits="userSpaceOnUse"
       gradientTransform="matrix(0.60015241,0,0,0.69748032,-1.436606,19.888535)" />
    <linearGradient
       x1="62.988873"
       y1="13.182598"
       x2="62.988873"
       y2="16.19013"
       id="linearGradient2450"
       xlink:href="#linearGradient6404"
       gradientUnits="userSpaceOnUse"
       gradientTransform="translate(-50.940898)" />
    <linearGradient
       id="linearGradient6404">
      <stop
         id="stop6406"
         style="stop-color:#f9f9f9;stop-opacity:1"
         offset="0" />
      <stop
         id="stop6408"
         style="stop-color:#c9c9c9;stop-opacity:1"
         offset="1" />
    </linearGradient>
    <radialGradient
       cx="3"
       cy="5.01718"
       r="21"
       fx="3"
       fy="5.01718"
       id="radialGradient2452"
       xlink:href="#linearGradient3484"
       gradientUnits="userSpaceOnUse"
       gradientTransform="matrix(-1.274898e-8,1.7142916,-2.159331,-1.4599595e-8,12.809361,2.8570011)" />
    <linearGradient
       id="linearGradient3484">
      <stop
         id="stop3486"
         style="stop-color:#bdbdbd;stop-opacity:1"
         offset="0" />
      <stop
         id="stop3488"
         style="stop-color:#d0d0d0;stop-opacity:1"
         offset="1" />
    </linearGradient>
    <linearGradient
       x1="302.85715"
       y1="366.64789"
       x2="302.85715"
       y2="609.50507"
       id="linearGradient2467"
       xlink:href="#linearGradient5048"
       gradientUnits="userSpaceOnUse"
       gradientTransform="matrix(0.07938856,0,0,0.02470588,-4.693293,31.941642)" />
    <radialGradient
       cx="605.71429"
       cy="486.64789"
       r="117.14286"
       fx="605.71429"
       fy="486.64789"
       id="radialGradient2464"
       xlink:href="#linearGradient5060"
       gradientUnits="userSpaceOnUse"
       gradientTransform="matrix(0.03079083,0,0,0.02470588,24.610252,31.941642)" />
    <radialGradient
       cx="605.71429"
       cy="486.64789"
       r="117.14286"
       fx="605.71429"
       fy="486.64789"
       id="radialGradient2461"
       xlink:href="#linearGradient5060"
       gradientUnits="userSpaceOnUse"
       gradientTransform="matrix(-0.03079083,0,0,0.02470588,23.389748,31.941642)" />
    <radialGradient
       cx="63.969177"
       cy="14.113381"
       r="23.097054"
       fx="63.969177"
       fy="14.113381"
       id="radialGradient2441"
       xlink:href="#linearGradient7012-661-145-733-759-865-745"
       gradientUnits="userSpaceOnUse"
       gradientTransform="matrix(1.5646925,-9.5143002e-8,6.1772287e-8,1.015888,-86.212573,8.1461173)" />
    <linearGradient
       id="linearGradient7012-661-145-733-759-865-745">
      <stop
         id="stop2699"
         style="stop-color:#9cbbd9;stop-opacity:1"
         offset="0" />
      <stop
         id="stop2701"
         style="stop-color:#5c82ab;stop-opacity:1"
         offset="1" />
    </linearGradient>
    <linearGradient
       x1="82.453476"
       y1="45.114193"
       x2="82.453476"
       y2="16.047026"
       id="linearGradient2443"
       xlink:href="#linearGradient3390"
       gradientUnits="userSpaceOnUse"
       gradientTransform="translate(-53.765393,-0.1141929)" />
    <linearGradient
       id="linearGradient3390">
      <stop
         id="stop3392"
         style="stop-color:#425e7b;stop-opacity:1"
         offset="0" />
      <stop
         id="stop3394"
         style="stop-color:#7a91a7;stop-opacity:1"
         offset="1" />
    </linearGradient>
    <linearGradient
       x1="22.934725"
       y1="49.629246"
       x2="22.809399"
       y2="36.657963"
       id="linearGradient2438"
       xlink:href="#linearGradient6129-963-697-142-998-580-273"
       gradientUnits="userSpaceOnUse"
       gradientTransform="matrix(1.1446925,0,0,0.9977536,-3.4661413,1.0988425)" />
    <linearGradient
       id="linearGradient6129-963-697-142-998-580-273">
      <stop
         id="stop2661"
         style="stop-color:#0a0a0a;stop-opacity:0.498"
         offset="0" />
      <stop
         id="stop2663"
         style="stop-color:#0a0a0a;stop-opacity:0"
         offset="1" />
    </linearGradient>
    <radialGradient
       cx="7.2646537"
       cy="8.3021259"
       r="20.979567"
       fx="7.2646537"
       fy="8.3021259"
       id="radialGradient2435"
       xlink:href="#linearGradient6087-437-184-795-110-662-495"
       gradientUnits="userSpaceOnUse"
       gradientTransform="matrix(0,1.2079744,-1.6271642,0,26.371748,8.2664685)" />
    <linearGradient
       id="linearGradient6087-437-184-795-110-662-495">
      <stop
         id="stop2693"
         style="stop-color:#ffffff;stop-opacity:0.40000001"
         offset="0" />
      <stop
         id="stop2695"
         style="stop-color:#ffffff;stop-opacity:0"
         offset="1" />
    </linearGradient>
    <linearGradient
       x1="11.566265"
       y1="22.292103"
       x2="15.214532"
       y2="33.95525"
       id="linearGradient2432"
       xlink:href="#linearGradient8265-821-176-38-919-66-249"
       gradientUnits="userSpaceOnUse" />
    <linearGradient
       id="linearGradient8265-821-176-38-919-66-249">
      <stop
         id="stop2687"
         style="stop-color:#ffffff;stop-opacity:0.2"
         offset="0" />
      <stop
         id="stop2689"
         style="stop-color:#ffffff;stop-opacity:0"
         offset="1" />
    </linearGradient>
  </defs>
  <metadata
     id="metadata4236">
    <rdf:RDF>
      <cc:Work
         rdf:about="">
        <dc:format>image/svg+xml</dc:format>
        <dc:type
           rdf:resource="http://purl.org/dc/dcmitype/StillImage" />
      </cc:Work>
    </rdf:RDF>
  </metadata>
  <g
     id="layer1"
     transform="matrix(0.72046052,0,0,0.72046052,0.7012338,-4.8261599)"
     style="display:inline">
    <path
       d="m 5.4999991,8.4999995 c -0.690271,0.00767 -1,0.3421461 -1,1 v 2.0066475 c -1.9838616,0 -1.999999,0.1405 -1.999999,1 0.034411,10.290045 0,10.870138 0,11.743783 1.4354706,0 42.9999979,-3.699732 42.9999979,-5.292264 v -6.451519 c 0,-0.657853 -0.554204,-1.007671 -1.244479,-1 H 21.499999 V 9.4999995 c 0,-0.6578539 -0.309729,-1.0076715 -1,-1 z"
       id="path3468"
       style="display:inline;fill:url(#linearGradient2450);fill-opacity:1;stroke:url(#radialGradient2452);stroke-width:1;stroke-linecap:round;stroke-linejoin:round;stroke-miterlimit:4;stroke-dasharray:none;stroke-opacity:1" />
    <rect
       width="38.333332"
       height="6.0000005"
       x="4.833334"
       y="41"
       id="rect4173"
       style="display:inline;overflow:visible;visibility:visible;opacity:0.3;fill:url(#linearGradient2467);fill-opacity:1;fill-rule:nonzero;stroke:none;stroke-width:1;marker:none" />
    <path
       d="m 43.166666,41.000208 c 0,0 0,5.99967 0,5.99967 1.585652,0.01129 3.833334,-1.344222 3.833333,-3.000221 0,-1.656 -1.769468,-2.999449 -3.833333,-2.999449 z"
       id="path5058"
       style="display:inline;overflow:visible;visibility:visible;opacity:0.3;fill:url(#radialGradient2464);fill-opacity:1;fill-rule:nonzero;stroke:none;stroke-width:1;marker:none" />
    <path
       d="m 4.833334,41.000208 c 0,0 0,5.99967 0,5.99967 -1.5856518,0.01129 -3.8333332,-1.344222 -3.8333332,-3.000221 0,-1.656 1.7694674,-2.999449 3.8333332,-2.999449 z"
       id="path5018"
       style="display:inline;overflow:visible;visibility:visible;opacity:0.3;fill:url(#radialGradient2461);fill-opacity:1;fill-rule:nonzero;stroke:none;stroke-width:1;marker:none" />
    <path
       d="m 2.1628556,16.525193 c -1.072707,0.123694 -0.49977,1.402118 -0.585297,2.121012 0.1244828,0.464576 0.9278273,24.41712 0.9278273,25.239602 0,0.714864 0.3518537,0.59375 1.2433944,0.59375 13.1935447,0 27.7830317,0 40.9765777,0 0.960443,0.02229 0.757466,0.01162 0.757466,-0.605024 0.0702,-0.314855 0.993351,-26.375226 1.028886,-26.78684 0,-0.433404 0.09019,-0.5625 -0.473341,-0.5625 -14.089374,0 -29.786135,0 -43.8755134,0 z"
       id="path3388-1"
       style="fill:url(#radialGradient2441);fill-opacity:1;stroke:url(#linearGradient2443);stroke-width:1;stroke-linecap:round;stroke-linejoin:round;stroke-miterlimit:4;stroke-dashoffset:0;stroke-opacity:1" />
    <path
       d="m 2.0582428,16.065146 43.8964752,4.03e-4 c 0.63416,0 1.045155,0.444611 1.045155,0.997367 L 45.96746,44.023288 C 45.982125,44.72269 45.758371,45 45.02156,44.985335 L 3.2408415,44.967766 c -0.6341599,0 -1.2736292,-0.412764 -1.2736292,-0.965519 L 1.0130886,17.0629 c 0,-0.552757 0.4109943,-0.997754 1.0451542,-0.997754 z"
       id="path6127"
       style="opacity:0.4;fill:url(#linearGradient2438);fill-opacity:1;stroke:none" />
    <path
       d="m 46.5,17.5 c -13.53125,0 -30.46875,0 -44,0 0.3854167,8.177083 0.7708333,16.354167 1.15625,24.53125"
       id="path2435"
       style="fill:none;stroke:url(#radialGradient2435);stroke-width:1;stroke-linecap:round;stroke-linejoin:round;stroke-miterlimit:4;stroke-dasharray:none;stroke-opacity:1" />
    <path
       d="M 46.114796,16.0228 C 31.565206,16.096148 16.645416,15.978851 2.09375,16 0.28698984,16.411117 1.2593433,18.46661 1.1213236,19.771525 1.3433531,23.934872 1.4443903,28.116464 1.7417851,32.268407 16.742298,29.905609 31.66833,27.661153 46.40625,25.21875 c 0.780991,-2.586578 0.57078,-7.255178 0.611757,-8.201226 0.07866,-0.675561 -0.376612,-1.006042 -0.903211,-0.994724 z"
       id="path3455"
       style="fill:url(#linearGradient2432);fill-opacity:1;stroke:none" />
  </g>
  <g
     id="g2277"
     transform="matrix(0.50847457,0,0,0.5625,50.144155,20.732692)"
     style="stroke-width:1.86984">
    <rect
       fill="url(#i)"
       height="16"
       opacity="0.4"
       transform="scale(-1)"
       width="5"
       x="58.216839"
       y="-48.475216"
       id="rect77-9-90-2-7-8"
       style="fill:url(#i-6-9-7-8-9);stroke-width:1.86984" />
    <rect
       fill="url(#j)"
       height="16"
       opacity="0.4"
       width="48.9995"
       x="-58.216839"
       y="32.475216"
       id="rect79-7-2-0-1-4"
       style="fill:url(#linearGradient121754);stroke-width:1.86984" />
    <rect
       fill="url(#k)"
       height="16"
       opacity="0.4"
       transform="scale(1,-1)"
       width="5"
       x="-9.2168379"
       y="-48.475216"
       id="rect81-3-8-6-7-8"
       style="fill:url(#k-0-7-3-9-3);stroke-width:1.86984" />
  </g>
  <path
     id="rect5505-21-1-5-0-6-5-1-2-5-10"
     style="color:#000000;font-variation-settings:normal;display:inline;overflow:visible;visibility:visible;vector-effect:none;fill:url(#linearGradient1703);fill-opacity:1;fill-rule:nonzero;stroke:none;stroke-width:0.999999;stroke-linecap:butt;stroke-linejoin:miter;stroke-miterlimit:4;stroke-dasharray:none;stroke-dashoffset:0;stroke-opacity:0.3;-inkscape-stroke:none;marker:none;enable-background:accumulate;stop-color:#000000"
     d="m 24.409088,18.499999 c -1.631783,0 -2.282728,0.963405 -2.945456,2.454546 -0.507982,1.139949 -1.099023,2.31941 -1.568607,3.436364 -0.249745,0.433049 -0.395029,0.934932 -0.395029,1.472727 h 27.000008 c 0,-0.537795 -0.145285,-1.039678 -0.39503,-1.472727 -0.482313,-1.111298 -1.046422,-2.302806 -1.568608,-3.436364 -0.682805,-1.482056 -1.313672,-2.454546 -2.945455,-2.454546 z" />
  <path
     id="rect5505-21-1-5-0-6-5-1-2-3"
     style="color:#000000;font-variation-settings:normal;display:inline;overflow:visible;visibility:visible;vector-effect:none;fill:url(#linearGradient121756);fill-opacity:1;fill-rule:nonzero;stroke:none;stroke-width:0.999999;stroke-linecap:butt;stroke-linejoin:miter;stroke-miterlimit:4;stroke-dasharray:none;stroke-dashoffset:0;stroke-opacity:0.3;-inkscape-stroke:none;marker:none;enable-background:accumulate;stop-color:#000000"
     d="m 22.455426,23.000001 c -1.227273,0 -2.945455,1.077548 -2.945455,3.708793 v 15.824184 c 0,0.124618 0.01007,0.246631 0.02494,0.367017 0.0034,0.02792 0.0083,0.05539 0.01246,0.08306 0.01482,0.09723 0.03358,0.193045 0.05753,0.286851 0.0061,0.02421 0.01154,0.04847 0.01821,0.07244 0.06723,0.23804 0.161842,0.464468 0.281889,0.67415 3.54e-4,6.43e-4 4.91e-4,0.0013 9.82e-4,0.0019 0.508258,0.886334 1.456214,1.481589 2.549434,1.481589 h 21.109098 c 1.09322,0 2.041176,-0.595255 2.549468,-1.481586 2.75e-4,-6.43e-4 4.91e-4,-0.0013 9.82e-4,-0.0019 0.120047,-0.209682 0.21465,-0.43611 0.28189,-0.67415 0.0067,-0.02395 0.01213,-0.04823 0.01821,-0.07244 0.02396,-0.0938 0.04271,-0.189622 0.05753,-0.286851 0.0039,-0.02767 0.0091,-0.05514 0.01246,-0.08306 0.01488,-0.120389 0.02489,-0.242402 0.02489,-0.36702 V 26.956046 c 0,-1.852253 -0.736365,-3.956045 -2.945456,-3.956045 z" />
  <path
     d="m 23.754122,22.594181 h 18.099824 c 1.056927,0 1.710818,0.364255 2.153619,1.36571 l 1.524273,4.202182 v 15.148966 c 0,0.9558 -0.536073,1.437382 -1.59251,1.437382 H 21.859212 c -1.056437,0 -1.487455,-0.529691 -1.487455,-1.485491 V 28.161091 l 1.475183,-4.292019 c 0.294545,-0.775636 0.850745,-1.275382 1.907182,-1.275382 z"
     display="block"
     fill="none"
     opacity="0.505"
     overflow="visible"
     stroke="url(#m)"
     stroke-width="0.741999"
     style="stroke:url(#linearGradient121758);marker:none"
     id="path85-1-8-5-7-0" />
  <rect
     style="opacity:0.3;fill:none;stroke:url(#linearGradient121760);stroke-width:0.999993;stroke-linecap:round;stroke-linejoin:round;stroke-miterlimit:4;stroke-dasharray:none;stroke-dashoffset:0;stroke-opacity:1"
     id="rect6741-5-0-2-3-4-2-4"
     y="23.499998"
     x="20.499994"
     ry="2"
     height="21.000006"
     width="25"
     rx="2" />
  <path
     id="rect5505-21-1-5-0-6-5-1-2-5-1-4"
     style="color:#000000;font-variation-settings:normal;display:inline;overflow:visible;visibility:visible;vector-effect:none;fill:none;fill-opacity:1;fill-rule:nonzero;stroke:#804b00;stroke-width:0.999999;stroke-linecap:butt;stroke-linejoin:miter;stroke-miterlimit:4;stroke-dasharray:none;stroke-dashoffset:0;stroke-opacity:0.5;-inkscape-stroke:none;marker:none;enable-background:accumulate;stop-color:#000000"
     d="m 24.409088,18.499999 c -1.631783,0 -2.282728,0.963405 -2.945456,2.454546 -0.507982,1.139949 -1.099023,2.31941 -1.568607,3.436364 -0.249745,0.433049 -0.395029,0.934932 -0.395029,1.472727 v 16.690912 c 0,1.631782 1.313673,2.945455 2.945455,2.945455 h 21.109098 c 1.631782,0 2.945455,-1.313673 2.945455,-2.945455 V 25.863636 c 0,-0.537795 -0.145285,-1.039678 -0.39503,-1.472727 -0.482313,-1.111298 -1.046422,-2.302806 -1.568608,-3.436364 -0.682805,-1.482056 -1.313672,-2.454546 -2.945455,-2.454546 z" />
  <path
     id="rect5505-21-1-5-0-6-5-1-2-5-1-7-7"
     style="color:#000000;font-variation-settings:normal;display:inline;overflow:visible;visibility:visible;opacity:0.15;vector-effect:none;fill:none;fill-opacity:1;fill-rule:nonzero;stroke:url(#linearGradient121764);stroke-width:0.999985;stroke-linecap:round;stroke-linejoin:round;stroke-miterlimit:4;stroke-dasharray:none;stroke-dashoffset:0;stroke-opacity:1;-inkscape-stroke:none;marker:none;enable-background:accumulate;stop-color:#000000"
     d="m 44.939447,24.247641 -1.226435,-2.658497 c -0.32322,-0.701586 -0.617349,-1.309466 -0.967603,-1.6451 -0.350257,-0.335635 -0.744934,-0.444049 -1.43681,-0.444049 H 24.691837 c -0.692786,0 -1.111591,0.114703 -1.46305,0.448721 -0.351458,0.334018 -0.626394,0.931477 -0.938589,1.633938 v 9.5e-4 l -1.239155,2.664037" />
  <path
     id="path87"
     style="overflow:visible;opacity:0.3;fill:url(#n);marker:none"
     overflow="visible"
     d="m 31.37,18.000001 h 3.3 l 0.33,6.331 v 3.071 c -0.39,0 -0.78,-0.532 -1.17,-0.532 -0.398,0 -0.797,0.532 -1.196,0.532 -0.322,0 -0.643,-0.466 -0.964,-0.466 -0.21,0 -0.42,0.466 -0.63,0.466 0,0 -0.09,-1.325 0,-3.07 z" />
  <path
     d="m 8.5,32.5 v -6 h 7 v 6 h 6 v 7 h -6 v 6 h -7 v -6 h -6 v -7 z"
     id="path2262"
     style="color:#000000;display:inline;overflow:visible;visibility:visible;fill:url(#radialGradient3343);fill-opacity:1;fill-rule:nonzero;stroke:none;stroke-width:1;stroke-linecap:round;stroke-linejoin:round;stroke-miterlimit:4;stroke-dasharray:none;stroke-dashoffset:0;stroke-opacity:1;marker:none;enable-background:accumulate" />
  <path
     style="display:inline;opacity:0.5;fill:none;stroke:url(#linearGradient3030-44);stroke-width:1;stroke-linecap:butt;stroke-linejoin:miter;stroke-miterlimit:4;stroke-dasharray:none;stroke-opacity:1"
     id="path2272-4"
     d="m 9.5,34.5 v -7 h 5 v 7 m 0,3 0.0073,7.02737 L 9.5,44.5 v -7" />
  <path
     style="display:inline;opacity:0.5;fill:none;stroke:url(#linearGradient3030-1);stroke-width:1;stroke-linecap:butt;stroke-linejoin:miter;stroke-miterlimit:4;stroke-dasharray:none;stroke-opacity:1"
     id="path2272-2"
     d="m 15,33.5 h 5.5 v 5 H 15 m -6,0 H 3.5 v -5 H 9" />
  <path
     d="m 8.5,32.5 v -6 h 7 v 6 h 6 v 7 h -6 v 6 h -7 v -6 h -6 v -7 z"
     id="path2262-2"
     style="color:#000000;clip-rule:nonzero;display:inline;overflow:visible;visibility:visible;opacity:0.5;isolation:auto;mix-blend-mode:normal;color-interpolation:sRGB;color-interpolation-filters:linearRGB;solid-color:#000000;solid-opacity:1;fill:none;fill-opacity:1;fill-rule:nonzero;stroke:#0f5a00;stroke-width:1;stroke-linecap:round;stroke-linejoin:round;stroke-miterlimit:4;stroke-dasharray:none;stroke-dashoffset:0;stroke-opacity:1;marker:none;color-rendering:auto;image-rendering:auto;shape-rendering:auto;text-rendering:auto;enable-background:accumulate" />
</svg>
