<?xml version="1.0" encoding="UTF-8" standalone="no"?>
<svg
   width="48px"
   height="48px"
   id="svg2732"
   version="1.1"
   xmlns:xlink="http://www.w3.org/1999/xlink"
   xmlns="http://www.w3.org/2000/svg"
   xmlns:svg="http://www.w3.org/2000/svg"
   xmlns:rdf="http://www.w3.org/1999/02/22-rdf-syntax-ns#"
   xmlns:cc="http://creativecommons.org/ns#"
   xmlns:dc="http://purl.org/dc/elements/1.1/">
  <defs
     id="defs2734">
    <linearGradient
       id="linearGradient8838">
      <stop
         id="stop8840"
         offset="0"
         style="stop-color:#7f7f7f;stop-opacity:1;" />
      <stop
         id="stop8842"
         offset="1"
         style="stop-color:#808080;stop-opacity:0;" />
    </linearGradient>
    <radialGradient
       xlink:href="#linearGradient8838"
       id="radialGradient2759"
       gradientUnits="userSpaceOnUse"
       gradientTransform="matrix(1,0,0,0.341176,0,3.047059)"
       cx="62.625"
       cy="4.625"
       fx="62.625"
       fy="4.625"
       r="10.625" />
    <linearGradient
       id="linearGradient3277-442">
      <stop
         id="stop3378"
         offset="0"
         style="stop-color:#575757;stop-opacity:1;" />
      <stop
         id="stop3380"
         offset="1"
         style="stop-color:#333333;stop-opacity:1;" />
    </linearGradient>
    <linearGradient
       xlink:href="#linearGradient3277-442"
       id="linearGradient2782"
       gradientUnits="userSpaceOnUse"
       x1="32.892574"
       y1="27.988184"
       x2="31.364458"
       y2="29.484051"
       gradientTransform="matrix(1.0113456,0,0,1.0013346,-0.1475723,1.8143278)" />
    <linearGradient
       id="linearGradient11114-516">
      <stop
         id="stop3372"
         offset="0"
         style="stop-color:#242424;stop-opacity:0.99215686;" />
      <stop
         id="stop3374"
         offset="1"
         style="stop-color:#656565;stop-opacity:1;" />
    </linearGradient>
    <linearGradient
       xlink:href="#linearGradient11114-516"
       id="linearGradient2780"
       gradientUnits="userSpaceOnUse"
       gradientTransform="matrix(0.3936567,0,0,0.38976,101.37812,-4.2393119)"
       x1="-172.65306"
       y1="99.667191"
       x2="-164.71831"
       y2="91.972626" />
    <linearGradient
       id="linearGradient12093-170">
      <stop
         id="stop3384"
         offset="0"
         style="stop-color:#ffffff;stop-opacity:1;" />
      <stop
         id="stop3386"
         offset="1"
         style="stop-color:#ffffff;stop-opacity:0;" />
    </linearGradient>
    <linearGradient
       xlink:href="#linearGradient12093-170"
       id="linearGradient2778"
       gradientUnits="userSpaceOnUse"
       gradientTransform="matrix(0.3936567,0,0,0.38976,-50.208746,-0.4726547)"
       x1="277.573"
       y1="146.1507"
       x2="201.87128"
       y2="67.350082" />
    <linearGradient
       id="linearGradient4454-600">
      <stop
         style="stop-color:#a1a1a1;stop-opacity:0.20784314;"
         offset="0"
         id="stop3408" />
      <stop
         style="stop-color:#a1a1a1;stop-opacity:0.67843139;"
         offset="1"
         id="stop3410" />
    </linearGradient>
    <radialGradient
       xlink:href="#linearGradient4454-600"
       id="radialGradient2776"
       gradientUnits="userSpaceOnUse"
       cx="18.240929"
       cy="21.817987"
       fx="18.240929"
       fy="21.817987"
       r="8.3085051" />
    <linearGradient
       id="linearGradient4467-402">
      <stop
         style="stop-color:#ffffff;stop-opacity:1;"
         offset="0"
         id="stop3390" />
      <stop
         style="stop-color:#ffffff;stop-opacity:0.24761905;"
         offset="1.0000000"
         id="stop3392" />
    </linearGradient>
    <radialGradient
       xlink:href="#linearGradient4467-402"
       id="radialGradient2774"
       gradientUnits="userSpaceOnUse"
       gradientTransform="matrix(3.0710057,0,0,2.3628614,-33.010584,-21.34546)"
       cx="15.414371"
       cy="13.078408"
       fx="15.414371"
       fy="13.078408"
       r="6.65625" />
    <linearGradient
       id="linearGradient11104-770">
      <stop
         id="stop3402"
         offset="0"
         style="stop-color:#333333;stop-opacity:1;" />
      <stop
         id="stop3404"
         offset="1"
         style="stop-color:#333333;stop-opacity:0.6122449;" />
    </linearGradient>
    <linearGradient
       xlink:href="#linearGradient11104-770"
       id="linearGradient2772"
       gradientUnits="userSpaceOnUse"
       gradientTransform="matrix(0.4037708,0,0,0.399774,0.5399201,2.6759154)"
       x1="41.541653"
       y1="68.291702"
       x2="41.485142"
       y2="4.5362983" />
    <linearGradient
       id="linearGradient2300-465">
      <stop
         id="stop3396"
         offset="0"
         style="stop-color:#343434;stop-opacity:0.97647059" />
      <stop
         id="stop3398"
         offset="1"
         style="stop-color:#929292;stop-opacity:1" />
    </linearGradient>
    <linearGradient
       xlink:href="#linearGradient2300-465"
       id="linearGradient2770"
       gradientUnits="userSpaceOnUse"
       gradientTransform="matrix(0.4037708,0,0,0.399774,-51.833663,-0.3327449)"
       x1="173.09576"
       y1="75.31868"
       x2="173.09576"
       y2="11.949074" />
    <linearGradient
       id="linearGradient6209-717">
      <stop
         style="stop-color:#979797;stop-opacity:1"
         offset="0"
         id="stop3366" />
      <stop
         style="stop-color:#000000;stop-opacity:0.34117648"
         offset="1"
         id="stop3368" />
    </linearGradient>
    <linearGradient
       xlink:href="#linearGradient6209-717"
       id="linearGradient2768"
       gradientUnits="userSpaceOnUse"
       gradientTransform="matrix(0.3845313,0,0,0.3807249,-48.396976,0.258476)"
       x1="173.09576"
       y1="75.31868"
       x2="173.09576"
       y2="11.949074" />
    <linearGradient
       id="linearGradient3191-577">
      <stop
         id="stop2613"
         offset="0"
         style="stop-color:#dbce48;stop-opacity:1;" />
      <stop
         id="stop2615"
         offset="1"
         style="stop-color:#c5b625;stop-opacity:1;" />
    </linearGradient>
    <linearGradient
       xlink:href="#linearGradient3191-577"
       id="linearGradient2728"
       gradientUnits="userSpaceOnUse"
       gradientTransform="matrix(0.5603647,0.02418622,0.02415646,0.5596736,-1.3918045,-1.4448192)"
       x1="5.5178981"
       y1="37.371799"
       x2="9.5220556"
       y2="41.391716" />
    <linearGradient
       id="linearGradient3290-678">
      <stop
         id="stop2607"
         offset="0"
         style="stop-color:#ece5a5;stop-opacity:1;" />
      <stop
         id="stop2609"
         offset="1"
         style="stop-color:#fcfbf2;stop-opacity:1;" />
    </linearGradient>
    <linearGradient
       xlink:href="#linearGradient3290-678"
       id="linearGradient2726"
       gradientUnits="userSpaceOnUse"
       gradientTransform="matrix(0.6380091,-0.6411367,0.8596263,0.8553493,-24.599696,2.1816867)"
       x1="9"
       y1="29.056757"
       x2="9"
       y2="26.02973" />
    <linearGradient
       id="linearGradient3223-699">
      <stop
         id="stop2599"
         offset="0"
         style="stop-color:#b1b1b1;stop-opacity:1;" />
      <stop
         style="stop-color:#ffffff;stop-opacity:1;"
         offset="0.5"
         id="stop2601" />
      <stop
         id="stop2603"
         offset="1"
         style="stop-color:#8f8f8f;stop-opacity:1;" />
    </linearGradient>
    <linearGradient
       xlink:href="#linearGradient3223-699"
       id="linearGradient2724"
       gradientUnits="userSpaceOnUse"
       gradientTransform="matrix(0.6380091,-0.6411367,0.8596262,0.8553492,-23.267138,0.8426001)"
       x1="30.037716"
       y1="24.989594"
       x2="30.037716"
       y2="30.000141" />
    <linearGradient
       id="linearGradient3240-907">
      <stop
         style="stop-color:#565656;stop-opacity:1;"
         offset="0"
         id="stop2616" />
      <stop
         id="stop2593"
         offset="0.5"
         style="stop-color:#9a9a9a;stop-opacity:1;" />
      <stop
         style="stop-color:#545454;stop-opacity:1;"
         offset="1"
         id="stop2595" />
    </linearGradient>
    <linearGradient
       xlink:href="#linearGradient3240-907"
       id="linearGradient2722"
       gradientUnits="userSpaceOnUse"
       gradientTransform="matrix(0.6380091,-0.6411367,0.8596262,0.8553492,-23.084421,0.6589858)"
       x1="30.037716"
       y1="24.989594"
       x2="30.037716"
       y2="30.000141" />
    <linearGradient
       id="linearGradient3223-768">
      <stop
         id="stop2583"
         offset="0"
         style="stop-color:#b1b1b1;stop-opacity:1;" />
      <stop
         style="stop-color:#ffffff;stop-opacity:1;"
         offset="0.5"
         id="stop2585" />
      <stop
         id="stop2587"
         offset="1"
         style="stop-color:#8f8f8f;stop-opacity:1;" />
    </linearGradient>
    <linearGradient
       xlink:href="#linearGradient3223-768"
       id="linearGradient2720"
       gradientUnits="userSpaceOnUse"
       gradientTransform="matrix(0.6380091,-0.6411367,0.8596262,0.8553492,-23.905148,1.4837352)"
       x1="30.037716"
       y1="24.989594"
       x2="30.037716"
       y2="30.000141" />
    <linearGradient
       id="linearGradient3240-686">
      <stop
         style="stop-color:#565656;stop-opacity:1;"
         offset="0"
         id="stop2627" />
      <stop
         id="stop2629"
         offset="0.5"
         style="stop-color:#9a9a9a;stop-opacity:1;" />
      <stop
         style="stop-color:#545454;stop-opacity:1;"
         offset="1"
         id="stop2579" />
    </linearGradient>
    <linearGradient
       xlink:href="#linearGradient3240-686"
       id="linearGradient2718"
       gradientUnits="userSpaceOnUse"
       gradientTransform="matrix(0.6380091,-0.6411367,0.8596262,0.8553492,-23.72243,1.3001231)"
       x1="30.037716"
       y1="24.989594"
       x2="30.037716"
       y2="30.000141" />
    <linearGradient
       id="linearGradient3223-789">
      <stop
         id="stop2567"
         offset="0"
         style="stop-color:#b1b1b1;stop-opacity:1;" />
      <stop
         style="stop-color:#ffffff;stop-opacity:1;"
         offset="0.5"
         id="stop2569" />
      <stop
         id="stop2571"
         offset="1"
         style="stop-color:#8f8f8f;stop-opacity:1;" />
    </linearGradient>
    <linearGradient
       xlink:href="#linearGradient3223-789"
       id="linearGradient2716"
       gradientUnits="userSpaceOnUse"
       gradientTransform="matrix(0.6380091,-0.6411367,0.8596262,0.8553492,-24.540087,2.1217894)"
       x1="30.037716"
       y1="24.989594"
       x2="30.037716"
       y2="30.000141" />
    <linearGradient
       id="linearGradient3240-279">
      <stop
         style="stop-color:#565656;stop-opacity:1;"
         offset="0"
         id="stop2559" />
      <stop
         id="stop2640"
         offset="0.5"
         style="stop-color:#9a9a9a;stop-opacity:1;" />
      <stop
         style="stop-color:#545454;stop-opacity:1;"
         offset="1"
         id="stop2642" />
    </linearGradient>
    <linearGradient
       xlink:href="#linearGradient3240-279"
       id="linearGradient2714"
       gradientUnits="userSpaceOnUse"
       gradientTransform="matrix(0.6380091,-0.6411367,0.8596262,0.8553492,-24.35737,1.9381758)"
       x1="30.037716"
       y1="24.989594"
       x2="30.037716"
       y2="30.000141" />
    <linearGradient
       id="linearGradient3155-40">
      <stop
         id="stop2646"
         offset="0"
         style="stop-color:#181818;stop-opacity:1;" />
      <stop
         style="stop-color:#dbdbdb;stop-opacity:1;"
         offset="0.13482948"
         id="stop2543" />
      <stop
         id="stop2545"
         offset="0.20224422"
         style="stop-color:#a4a4a4;stop-opacity:1;" />
      <stop
         style="stop-color:#ffffff;stop-opacity:1;"
         offset="0.26965895"
         id="stop2650" />
      <stop
         id="stop2652"
         offset="0.44650277"
         style="stop-color:#8d8d8d;stop-opacity:1;" />
      <stop
         style="stop-color:#959595;stop-opacity:1;"
         offset="0.57114136"
         id="stop2551" />
      <stop
         id="stop2553"
         offset="0.72038066"
         style="stop-color:#cecece;stop-opacity:1;" />
      <stop
         id="stop2555"
         offset="1"
         style="stop-color:#181818;stop-opacity:1;" />
    </linearGradient>
    <linearGradient
       xlink:href="#linearGradient3155-40"
       id="linearGradient2712"
       gradientUnits="userSpaceOnUse"
       gradientTransform="matrix(0.6565695,-0.659788,0.7345237,0.7308691,-21.951313,5.3142621)"
       spreadMethod="pad"
       x1="23.575972"
       y1="25.356892"
       x2="23.575972"
       y2="31.210939" />
  </defs>
  <metadata
     id="metadata2737">
    <rdf:RDF>
      <cc:Work
         rdf:about="">
        <dc:format>image/svg+xml</dc:format>
        <dc:type
           rdf:resource="http://purl.org/dc/dcmitype/StillImage" />
      </cc:Work>
    </rdf:RDF>
  </metadata>
  <g
     id="layer1">
    <path
       transform="matrix(2.149872,0,0,1.6619216,-110.63573,34.289147)"
       d="M 73.25,4.625 A 10.625,3.625 0 1 1 52,4.625 A 10.625,3.625 0 1 1 73.25,4.625 z"
       id="path8836"
       style="display:inline;opacity:0.29999999999999999;fill:url(#radialGradient2759);fill-opacity:1;fill-rule:evenodd;stroke:none;stroke-width:0.99999987999999995;stroke-linecap:butt;stroke-linejoin:round;marker:none;marker-start:none;marker-mid:none;marker-end:none;stroke-miterlimit:4;stroke-dasharray:none;stroke-dashoffset:0;stroke-opacity:1;visibility:visible;overflow:visible" />
    <path
       id="path11112"
       d="M 28.183928,24.771802 L 45.785389,40.991202 L 43.345581,44.269586 L 25.807867,26.724533 L 28.183928,24.771802 z"
       style="display:inline;fill:url(#linearGradient2780);fill-opacity:1;fill-rule:evenodd;stroke:url(#linearGradient2782);stroke-width:1.25790954000000021;stroke-linecap:round;stroke-linejoin:round;stroke-miterlimit:4;stroke-dasharray:none;stroke-opacity:1" />
    <path
       id="path11122"
       d="M 43.375247,43.204937 L 29.259227,25.777711 L 46.337872,40.616736 L 43.375247,43.204937 z"
       style="display:inline;fill:url(#linearGradient2778);fill-opacity:1;fill-rule:evenodd;stroke:none;stroke-width:3.21138214999999994;stroke-linecap:butt;stroke-linejoin:miter;stroke-miterlimit:4;stroke-dasharray:none;stroke-opacity:1" />
    <path
       transform="matrix(0.3701926,-0.4150383,0.4745098,0.3092893,-97.502604,109.5756)"
       d="M 247.90924,110.29199 A 4.8668494,2.6562009 0 1 1 238.17554,110.29199 A 4.8668494,2.6562009 0 1 1 247.90924,110.29199 z"
       id="path13082"
       style="display:inline;fill:#3e3e3e;fill-opacity:1;stroke:none;stroke-width:3.00453590999999998;stroke-linecap:round;stroke-linejoin:round;stroke-miterlimit:4;stroke-dasharray:none;stroke-opacity:1" />
    <path
       style="display:inline;fill:url(#radialGradient2776);fill-opacity:1;fill-rule:evenodd;stroke:none;stroke-width:0.88163906000000003;stroke-linecap:round;stroke-linejoin:miter;marker:none;marker-start:none;marker-mid:none;marker-end:none;stroke-miterlimit:4;stroke-dasharray:none;stroke-dashoffset:0;stroke-opacity:1;visibility:visible"
       id="path4452"
       d="M 25.897786,18.478292 A 8.3085051,8.3085051 0 1 1 9.280776,18.478292 A 8.3085051,8.3085051 0 1 1 25.897786,18.478292 z"
       transform="matrix(1.4889549,0,0,1.4383688,-7.506469,-10.003202)" />
    <path
       style="display:inline;opacity:0.83422457000000005;fill:url(#radialGradient2774);fill-opacity:1;fill-rule:evenodd;stroke:none;stroke-width:1;stroke-linecap:round;stroke-linejoin:miter;marker:none;marker-start:none;marker-mid:none;marker-end:none;stroke-miterlimit:10;stroke-dasharray:none;stroke-dashoffset:0;stroke-opacity:1;visibility:visible;overflow:visible"
       d="M 18.173574,6.2875092 C 12.005906,6.2875092 7.0115016,10.711854 7.0115016,16.175552 C 7.0115016,17.75349 7.1497935,19.383317 7.8922233,20.707519 C 9.3754942,21.191834 11.310652,21.343375 12.982981,21.343375 C 20.291624,21.343375 26.57793,15.975682 27.028963,9.6014015 C 24.978875,7.4552716 21.59337,6.2875092 18.173574,6.2875092 z"
       id="path4462" />
    <path
       id="path2298"
       d="M 18.411216,4.6414839 C 10.813649,4.6414839 4.6451506,10.273179 4.6451547,17.209379 C 4.6451547,24.145579 10.813649,29.777272 18.411216,29.777273 C 26.008776,29.777273 32.177275,24.145579 32.177275,17.209379 C 32.177275,10.273179 26.00878,4.6414839 18.411216,4.6414839 z M 18.575246,5.4660179 C 25.375115,5.4660179 30.902874,10.501717 30.902874,16.709661 C 30.902874,22.917605 25.375115,27.953304 18.575246,27.953304 C 11.775375,27.953305 6.2602379,22.917606 6.2602379,16.709661 C 6.2602379,10.501717 11.775375,5.4660179 18.575246,5.4660179 z"
       style="display:inline;fill:url(#linearGradient2770);fill-opacity:1;stroke:url(#linearGradient2772);stroke-width:1.29022872000000000;stroke-linecap:round;stroke-linejoin:round;stroke-miterlimit:4;stroke-dasharray:none;stroke-opacity:1" />
    <path
       id="path4267"
       d="M 18.49954,5.0037791 C 11.263996,5.0037791 5.4022249,10.366318 5.4022249,16.972013 C 5.4022249,23.577707 11.263992,28.940247 18.49954,28.940246 C 25.735084,28.940246 31.609472,23.577706 31.609472,16.972013 C 31.609472,10.366318 25.73508,5.0037791 18.49954,5.0037791 z M 18.575247,5.4660178 C 25.375114,5.4660178 30.363613,10.501717 30.363613,16.709661 C 30.363613,22.917605 25.375114,27.419381 18.575247,27.419381 C 11.775375,27.419382 6.7096226,22.917606 6.7096226,16.709661 C 6.7096226,10.501717 11.775375,5.4660178 18.575247,5.4660178 z"
       style="display:inline;fill:url(#linearGradient2768);fill-opacity:1;stroke:none;stroke-width:3.21138214999999994;stroke-linecap:round;stroke-linejoin:round;stroke-miterlimit:4;stroke-dasharray:none;stroke-opacity:1" />
    <g
       style="display:inline"
       id="g3872"
       transform="matrix(1.2427773,0,0,1.2427773,17.392438,16.812666)">
      <path
         id="rect2383"
         d="m 3.9957406,16.479538 c 0.4459215,-0.334616 1.6971047,0.293067 2.8468883,1.43713 1.1470341,1.141326 1.7514206,2.362602 1.4243802,2.812888 -0.00124,0.0017 0.028135,0.02504 0.026864,0.02673 L 24.303914,4.6677597 C 24.710396,4.2592847 24.078831,2.9684536 22.892545,1.7880718 21.706263,0.60768985 20.412266,-0.01746372 20.005781,0.39101316 Z"
         style="fill:url(#linearGradient2712);fill-opacity:1;stroke:#0c0c0c;stroke-width:0.402325;stroke-linecap:butt;stroke-linejoin:round;stroke-miterlimit:4;stroke-dasharray:none;stroke-dashoffset:0;stroke-opacity:1" />
      <path
         id="rect3175"
         d="m 18.05188,2.3544945 c 0.445921,-0.3346166 1.697105,0.2930675 2.846888,1.4371298 1.147033,1.141325 1.75142,2.3626014 1.424379,2.8128865 -0.0012,0.00171 0.02814,0.025041 0.02686,0.02673 l 1.953903,-1.9634813 0.03988,-0.040071 c 0.0013,-0.00169 -0.02811,-0.025017 -0.02686,-0.02673 C 24.643966,4.1506735 24.039578,2.9293969 22.892545,1.7880718 21.742763,0.64401014 20.49158,0.01632502 20.045658,0.35094175 l -0.03988,0.0400714 z"
         style="opacity:0.8;fill:#ffb6ed;fill-opacity:1;stroke:#e28ccd;stroke-width:0.402325;stroke-linecap:butt;stroke-linejoin:round;stroke-miterlimit:4;stroke-dasharray:none;stroke-dashoffset:0;stroke-opacity:1" />
      <path
         id="path3208"
         d="m 3.9957406,16.479536 c 0.4459215,-0.334616 1.697105,0.293068 2.8468878,1.43713 1.1470339,1.141326 1.7514205,2.362602 1.4243801,2.812888 -0.00124,0.0017 0.028135,0.02504 0.026864,0.02673 l 11.025593,-11.0796428 0.03988,-0.040071 c 0.0013,-0.00169 -0.02811,-0.025017 -0.02686,-0.026729 C 19.659519,9.1595523 19.055132,7.9382769 17.908099,6.7969513 16.758316,5.6528892 15.507131,5.0252053 15.06121,5.3598223 l -0.03988,0.04007 z"
         style="opacity:0.6;fill:#0c0c0c;fill-opacity:1;stroke:none;stroke-width:2;stroke-linecap:butt;stroke-linejoin:round;stroke-miterlimit:4;stroke-dasharray:2, 8;stroke-dashoffset:0;stroke-opacity:0.235294" />
      <path
         id="path3233"
         d="m 15.861791,4.5553174 c 0.44592,-0.3346171 1.697106,0.2930672 2.846888,1.4371295 1.147033,1.141325 1.751421,2.3626016 1.424379,2.8128878 -0.0012,0.00171 0.02814,0.025039 0.02686,0.026729 l 0.199378,-0.2003563 c 0.0013,-0.00169 -0.02811,-0.025017 -0.02686,-0.026729 C 20.659478,8.1546923 20.05509,6.9334154 18.908056,5.7920918 17.758274,4.6480286 16.507089,4.0203445 16.061169,4.3549614 Z"
         style="fill:url(#linearGradient2714);fill-opacity:1;stroke:none;stroke-width:2;stroke-linecap:butt;stroke-linejoin:round;stroke-miterlimit:4;stroke-dasharray:2, 8;stroke-dashoffset:0;stroke-opacity:0.235294" />
      <path
         id="path3216"
         d="m 15.679073,4.7389302 c 0.445922,-0.334617 1.697107,0.2930672 2.846888,1.4371291 1.147035,1.1413256 1.751422,2.3626005 1.42438,2.8128864 -0.0012,0.00171 0.02813,0.025041 0.02686,0.026731 l 0.199377,-0.2003563 c 0.0013,-0.00169 -0.02811,-0.025018 -0.02686,-0.02673 C 20.476762,8.3383053 19.872374,7.1170288 18.725339,5.9757039 17.575557,4.8316417 16.324373,4.2039569 15.87845,4.538574 Z"
         style="fill:url(#linearGradient2716);fill-opacity:1;stroke:none;stroke-width:2;stroke-linecap:butt;stroke-linejoin:round;stroke-miterlimit:4;stroke-dasharray:2, 8;stroke-dashoffset:0;stroke-opacity:0.235294" />
      <path
         id="path3248"
         d="m 16.496731,3.9172644 c 0.445921,-0.3346173 1.697105,0.2930665 2.846888,1.4371297 1.147033,1.1413248 1.751421,2.3626003 1.42438,2.8128865 -0.0012,0.00171 0.02813,0.02504 0.02686,0.026729 l 0.199378,-0.200355 c 0.0013,-0.00169 -0.02811,-0.025017 -0.02686,-0.026729 C 21.294418,7.5166398 20.690031,6.2953633 19.542996,5.1540389 18.393214,4.009976 17.142032,3.3822918 16.696108,3.716909 Z"
         style="fill:url(#linearGradient2718);fill-opacity:1;stroke:none;stroke-width:2;stroke-linecap:butt;stroke-linejoin:round;stroke-miterlimit:4;stroke-dasharray:2, 8;stroke-dashoffset:0;stroke-opacity:0.235294" />
      <path
         id="path3250"
         d="m 16.314013,4.1008772 c 0.445923,-0.3346174 1.697107,0.2930668 2.846888,1.4371289 1.147035,1.1413262 1.751422,2.3626013 1.424381,2.8128873 -0.0012,0.00171 0.02814,0.02504 0.02686,0.02673 l 0.199377,-0.2003568 c 0.0013,-0.00169 -0.02811,-0.025016 -0.02686,-0.026729 C 21.111701,7.7002523 20.507314,6.478975 19.36028,5.337652 18.210499,4.1935892 16.959314,3.5659043 16.513391,3.9005218 Z"
         style="fill:url(#linearGradient2720);fill-opacity:1;stroke:none;stroke-width:2;stroke-linecap:butt;stroke-linejoin:round;stroke-miterlimit:4;stroke-dasharray:2, 8;stroke-dashoffset:0;stroke-opacity:0.235294" />
      <path
         id="path3256"
         d="m 17.134741,3.2761275 c 0.44592,-0.3346167 1.697104,0.2930671 2.846887,1.4371299 1.147033,1.1413247 1.751421,2.362601 1.42438,2.8128865 -0.0012,0.00171 0.02813,0.025041 0.02686,0.026731 l 0.199376,-0.200356 c 0.0013,-0.00169 -0.02811,-0.025018 -0.02686,-0.02673 0.327042,-0.450285 -0.277346,-1.6715621 -1.42438,-2.8128872 -1.14978,-1.144062 -2.400965,-1.7717462 -2.846887,-1.4371291 z"
         style="fill:url(#linearGradient2722);fill-opacity:1;stroke:none;stroke-width:2;stroke-linecap:butt;stroke-linejoin:round;stroke-miterlimit:4;stroke-dasharray:2, 8;stroke-dashoffset:0;stroke-opacity:0.235294" />
      <path
         id="path3258"
         d="m 16.952024,3.4597401 c 0.445919,-0.3346173 1.697105,0.2930673 2.846887,1.4371305 1.147033,1.141324 1.751422,2.3626007 1.424379,2.8128853 -0.0012,0.00171 0.02814,0.025041 0.02686,0.02673 l 0.199378,-0.2003543 c 0.0013,-0.00169 -0.02811,-0.025019 -0.02686,-0.02673 C 21.74971,7.0591151 21.145322,5.8378393 19.998289,4.6965146 18.848507,3.5524523 17.597322,2.9247675 17.151401,3.2593854 Z"
         style="fill:url(#linearGradient2724);fill-opacity:1;stroke:none;stroke-width:2;stroke-linecap:butt;stroke-linejoin:round;stroke-miterlimit:4;stroke-dasharray:2, 8;stroke-dashoffset:0;stroke-opacity:0.235294" />
      <path
         style="fill:url(#linearGradient2726);fill-opacity:1;fill-rule:evenodd;stroke:url(#linearGradient2728);stroke-width:0.402325;stroke-linecap:butt;stroke-linejoin:miter;stroke-miterlimit:4;stroke-dasharray:none;stroke-opacity:1"
         d="m 0.92763987,23.761444 7.28373453,-2.970838 0.062055,-0.06205 C 8.6004704,20.278267 7.988201,19.056896 6.841167,17.915568 5.6913841,16.771506 4.4416795,16.147291 3.9957576,16.481908 Z"
         id="path3270" />
      <path
         id="path3281"
         d="M 1.7587091,21.789843 0.92719297,23.753653 2.9138318,22.939219 C 2.7546056,22.748495 2.6076136,22.554776 2.4164414,22.364555 2.1963503,22.145558 1.9798704,21.967868 1.7587091,21.789843 Z"
         style="fill:#0c0c0c;fill-opacity:1;fill-rule:evenodd;stroke:#0c0c0c;stroke-width:0.402325;stroke-linecap:butt;stroke-linejoin:miter;stroke-miterlimit:4;stroke-dasharray:none;stroke-opacity:1" />
    </g>
  </g>
</svg>
