<?xml version="1.0" encoding="UTF-8" standalone="no"?>
<svg
   width="48px"
   height="48px"
   id="svg4269"
   version="1.1"
   xmlns:xlink="http://www.w3.org/1999/xlink"
   xmlns="http://www.w3.org/2000/svg"
   xmlns:svg="http://www.w3.org/2000/svg"
   xmlns:rdf="http://www.w3.org/1999/02/22-rdf-syntax-ns#"
   xmlns:cc="http://creativecommons.org/ns#"
   xmlns:dc="http://purl.org/dc/elements/1.1/">
  <defs
     id="defs4271">
    <linearGradient
       id="linearGradient3896">
      <stop
         style="stop-color:#000000;stop-opacity:1;"
         offset="0"
         id="stop3898" />
      <stop
         style="stop-color:#000000;stop-opacity:0;"
         offset="1"
         id="stop3900" />
    </linearGradient>
    <linearGradient
       id="linearGradient3888">
      <stop
         style="stop-color:#000000;stop-opacity:1;"
         offset="0"
         id="stop3890" />
      <stop
         style="stop-color:#000000;stop-opacity:0;"
         offset="1"
         id="stop3892" />
    </linearGradient>
    <linearGradient
       id="linearGradient3707-319-631-407-324-3-8">
      <stop
         offset="0"
         style="stop-color:#185f9a;stop-opacity:1;"
         id="stop3760-7-3" />
      <stop
         offset="1"
         style="stop-color:#599ec9;stop-opacity:1;"
         id="stop3762-8-4" />
    </linearGradient>
    <linearGradient
       xlink:href="#linearGradient4011"
       id="linearGradient3906-0"
       gradientUnits="userSpaceOnUse"
       gradientTransform="matrix(1.0945945,0,0,1.0945946,-54.519113,-3.7558979)"
       x1="71.204407"
       y1="6.2375584"
       x2="71.204407"
       y2="44.340794" />
    <linearGradient
       id="linearGradient4011">
      <stop
         offset="0"
         style="stop-color:#ffffff;stop-opacity:1;"
         id="stop4013" />
      <stop
         id="stop4015"
         style="stop-color:#ffffff;stop-opacity:0.23529412;"
         offset="0.507761" />
      <stop
         offset="0.83456558"
         style="stop-color:#ffffff;stop-opacity:0.15686275;"
         id="stop4017" />
      <stop
         offset="1"
         style="stop-color:#ffffff;stop-opacity:0.39215687;"
         id="stop4019" />
    </linearGradient>
    <radialGradient
       xlink:href="#linearGradient2867-449-88-871-390-598-476-591-434-148-57-177-3-8"
       id="radialGradient3909-0"
       gradientUnits="userSpaceOnUse"
       gradientTransform="matrix(0,2.5293083,-2.6757063,-6.8843879e-8,46.609214,-12.621692)"
       cx="3.9722471"
       cy="8.4497671"
       fx="3.9722471"
       fy="8.4497671"
       r="19.99999" />
    <linearGradient
       id="linearGradient2867-449-88-871-390-598-476-591-434-148-57-177-3-8">
      <stop
         offset="0"
         style="stop-color:#90dbec;stop-opacity:1;"
         id="stop3750-8-9" />
      <stop
         offset="0.26238"
         style="stop-color:#42baea;stop-opacity:1;"
         id="stop3752-3-2" />
      <stop
         offset="0.704952"
         style="stop-color:#3689e6;stop-opacity:1;"
         id="stop3754-7-2" />
      <stop
         offset="1"
         style="stop-color:#2b63a0;stop-opacity:1;"
         id="stop3756-9-3" />
    </linearGradient>
    <linearGradient
       xlink:href="#linearGradient3707-319-631-407-324-3-8"
       id="linearGradient3911-1"
       gradientUnits="userSpaceOnUse"
       gradientTransform="matrix(1.0642013,0,0,1.0642013,-1.5408283,-1.5408308)"
       x1="24"
       y1="44"
       x2="24"
       y2="3.8990016" />
    <linearGradient
       id="linearGradient8838">
      <stop
         id="stop8840"
         style="stop-color:#000000;stop-opacity:1"
         offset="0" />
      <stop
         id="stop8842"
         style="stop-color:#000000;stop-opacity:0"
         offset="1" />
    </linearGradient>
    <radialGradient
       r="10.625"
       fy="4.625"
       fx="62.625"
       cy="4.625"
       cx="62.625"
       gradientTransform="matrix(2.1647059,0,0,0.7529402,-111.56471,36.517647)"
       gradientUnits="userSpaceOnUse"
       id="radialGradient4267"
       xlink:href="#linearGradient8838" />
    <linearGradient
       xlink:href="#linearGradient3707-319-631-407-324-3-8-3"
       id="linearGradient4079-7"
       x1="22.950275"
       y1="45.185081"
       x2="22.950275"
       y2="0.088140324"
       gradientUnits="userSpaceOnUse"
       gradientTransform="translate(42.714286,-0.999809)" />
    <linearGradient
       id="linearGradient3707-319-631-407-324-3-8-3">
      <stop
         offset="0"
         style="stop-color:#185f9a;stop-opacity:1;"
         id="stop3760-7-3-3" />
      <stop
         offset="1"
         style="stop-color:#599ec9;stop-opacity:1;"
         id="stop3762-8-4-8" />
    </linearGradient>
    <linearGradient
       xlink:href="#linearGradient3888"
       id="linearGradient3894"
       x1="24.413706"
       y1="11.667645"
       x2="24.413706"
       y2="30.730272"
       gradientUnits="userSpaceOnUse"
       gradientTransform="translate(0,-0.999809)" />
    <linearGradient
       xlink:href="#linearGradient3896"
       id="linearGradient3902"
       x1="23.065052"
       y1="33.891548"
       x2="23.065052"
       y2="38.960026"
       gradientUnits="userSpaceOnUse"
       gradientTransform="translate(0,-0.999809)" />
  </defs>
  <metadata
     id="metadata4274">
    <rdf:RDF>
      <cc:Work
         rdf:about="">
        <dc:format>image/svg+xml</dc:format>
        <dc:type
           rdf:resource="http://purl.org/dc/dcmitype/StillImage" />
      </cc:Work>
    </rdf:RDF>
  </metadata>
  <g
     id="layer1">
    <path
       style="opacity:0.3;fill:url(#radialGradient4267);fill-opacity:1;fill-rule:evenodd;stroke:none;stroke-width:0.99999988;marker:none;visibility:visible;display:inline;overflow:visible"
       id="path8836"
       d="m 46.999997,40 c 0,4.418278 -10.297452,8 -23,8 -12.702548,0 -23.0000002,-3.581722 -23.0000002,-8 0,-4.418278 10.2974522,-8 23.0000002,-8 12.702548,0 23,3.581722 23,8 l 0,0 z" />
    <path
       style="color:#000000;display:inline;overflow:visible;visibility:visible;fill:url(#radialGradient3909-0);fill-opacity:1;fill-rule:nonzero;stroke:url(#linearGradient3911-1);stroke-width:0.5;stroke-linecap:round;stroke-linejoin:round;stroke-miterlimit:4;stroke-dasharray:none;stroke-dashoffset:0;stroke-opacity:1;marker:none;enable-background:accumulate"
       id="path2555"
       d="M 24.000002,3.25 C 12.550868,3.25 3.25,12.550865 3.25,24 c 0,11.449136 9.300868,20.750005 20.750002,20.750002 11.44913,0 20.750009,-9.300866 20.749999,-20.750002 0,-11.449135 -9.300869,-20.75 -20.749999,-20.75 z" />
    <path
       style="color:#000000;display:inline;overflow:visible;visibility:visible;opacity:0.5;fill:none;stroke:url(#linearGradient3906-0);stroke-width:0.5;stroke-linecap:round;stroke-linejoin:round;stroke-miterlimit:4;stroke-dasharray:none;stroke-dashoffset:0;stroke-opacity:1;marker:none;enable-background:accumulate"
       id="path8655"
       d="M 44.249998,23.999282 C 44.249998,35.18341 35.183098,44.25 24.000255,44.25 12.816389,44.25 3.75,35.183307 3.75,23.999282 3.75,12.815672 12.816389,3.75 24.000255,3.75 c 11.182843,0 20.249743,9.065672 20.249743,20.249282 z" />
    <path
       d="m 21.624257,12.123176 c 0.562985,5.499325 1.207856,10.960802 1.687101,16.481667 0.482028,0 1.047391,0 1.529419,0 0.39752,-5.301782 1.038697,-10.571527 1.501221,-15.866736 0.235772,-1.253831 -0.407984,-2.74252 -1.731999,-3.047145 -1.308328,-0.382516 -2.770054,0.564714 -2.944023,1.917755 -0.02885,0.169852 -0.04172,0.342238 -0.04172,0.514459 h -10e-7 z m -0.166856,22.358706 c -0.05953,1.636939 1.741632,2.920137 3.279478,2.401164 1.489513,-0.380147 2.274063,-2.252289 1.510684,-3.583058 -0.683355,-1.375642 -2.687256,-1.828891 -3.840007,-0.776055 -0.582694,0.478722 -0.968913,1.193389 -0.950154,1.95795 z"
       id="path3295"
       style="color:#000000;font-style:normal;font-variant:normal;font-weight:normal;font-stretch:normal;font-size:62.4583px;line-height:125%;font-family:Georgia;text-align:start;writing-mode:lr-tb;text-anchor:start;display:inline;overflow:visible;visibility:visible;opacity:1;fill:url(#linearGradient4079-7);fill-opacity:1;fill-rule:nonzero;stroke:none;marker:none;enable-background:accumulate" />
    <path
       d="m 21.624257,13.123485 c 0.562985,5.499325 1.207856,10.960802 1.687101,16.481667 0.482028,0 1.047391,0 1.529419,0 0.39752,-5.301782 1.038697,-10.571527 1.501221,-15.866736 0.235772,-1.253831 -0.407984,-2.74252 -1.731999,-3.047145 -1.308328,-0.382515 -2.770054,0.564714 -2.944023,1.917755 -0.02885,0.169852 -0.04172,0.342238 -0.04172,0.514459 h -10e-7 z m -0.166856,22.358706 c -0.05953,1.636939 1.741632,2.920137 3.279478,2.401164 1.489513,-0.380147 2.274063,-2.252289 1.510684,-3.583058 -0.683355,-1.375642 -2.687256,-1.828891 -3.840007,-0.776055 -0.582694,0.478722 -0.968913,1.193389 -0.950154,1.95795 z"
       id="text2315"
       style="font-style:normal;font-variant:normal;font-weight:normal;font-stretch:normal;font-size:62.4583px;line-height:125%;font-family:Georgia;text-align:start;writing-mode:lr-tb;text-anchor:start;fill:#ffffff;fill-opacity:1;stroke:none" />
    <path
       style="font-style:normal;font-variant:normal;font-weight:normal;font-stretch:normal;font-size:62.4583px;line-height:125%;font-family:Georgia;text-align:start;writing-mode:lr-tb;text-anchor:start;opacity:0.1;fill:none;fill-opacity:1;stroke:url(#linearGradient3894)"
       d="m 23.71875,11.093941 c -1.111364,0.162879 -1.845796,1.33038 -1.586456,2.405871 0.538014,5.208566 1.156661,10.409055 1.617706,15.625379 0.660055,0.170717 0.779303,-0.242183 0.723821,-0.846999 0.403437,-5.083103 1.056764,-10.147629 1.438999,-15.229614 0.0051,-1.162827 -1.019167,-2.179289 -2.19407,-1.954637 z"
       id="path3878" />
    <path
       style="font-style:normal;font-variant:normal;font-weight:normal;font-stretch:normal;font-size:62.4583px;line-height:125%;font-family:Georgia;text-align:start;writing-mode:lr-tb;text-anchor:start;opacity:0.1;fill:#ffffff;fill-opacity:1;stroke:url(#linearGradient3902)"
       d="m 23.5,33.468941 c -1.35614,0.305099 -2.083164,2.145259 -1.139252,3.22693 0.783439,1.064135 2.597526,1.13001 3.32521,-0.03253 0.748985,-0.996324 0.352002,-2.600137 -0.84292,-3.045505 -0.418026,-0.183393 -0.895,-0.25192 -1.343038,-0.148897 z"
       id="path3873" />
  </g>
</svg>
