<?xml version="1.0" encoding="UTF-8" standalone="no"?>
<svg
   version="1.1"
   width="48"
   height="48"
   id="svg6649"
   xmlns:xlink="http://www.w3.org/1999/xlink"
   xmlns="http://www.w3.org/2000/svg"
   xmlns:svg="http://www.w3.org/2000/svg"
   xmlns:rdf="http://www.w3.org/1999/02/22-rdf-syntax-ns#"
   xmlns:cc="http://creativecommons.org/ns#"
   xmlns:dc="http://purl.org/dc/elements/1.1/">
  <defs
     id="defs6651">
    <linearGradient
       id="linearGradient1201">
      <stop
         id="stop1193"
         style="stop-color:#ffffff;stop-opacity:1"
         offset="0" />
      <stop
         id="stop1195"
         style="stop-color:#ffffff;stop-opacity:0.23529412"
         offset="0.06781636" />
      <stop
         id="stop1197"
         style="stop-color:#ffffff;stop-opacity:0.15686275"
         offset="0.94694352" />
      <stop
         id="stop1199"
         style="stop-color:#ffffff;stop-opacity:0.39215687"
         offset="1" />
    </linearGradient>
    <linearGradient
       id="linearGradient3688-166-749">
      <stop
         id="stop2883"
         style="stop-color:#181818;stop-opacity:1"
         offset="0" />
      <stop
         id="stop2885"
         style="stop-color:#181818;stop-opacity:0"
         offset="1" />
    </linearGradient>
    <linearGradient
       id="linearGradient3702-501-757">
      <stop
         id="stop2895"
         style="stop-color:#181818;stop-opacity:0"
         offset="0" />
      <stop
         id="stop2897"
         style="stop-color:#181818;stop-opacity:1"
         offset="0.5" />
      <stop
         id="stop2899"
         style="stop-color:#181818;stop-opacity:0"
         offset="1" />
    </linearGradient>
    <linearGradient
       x1="38.999996"
       y1="5.9999938"
       x2="38.999996"
       y2="41.945408"
       id="linearGradient3058-5"
       xlink:href="#linearGradient1201"
       gradientUnits="userSpaceOnUse"
       gradientTransform="translate(4e-6,1.0000062)" />
    <linearGradient
       xlink:href="#linearGradient3702-501-757"
       id="linearGradient1191"
       gradientUnits="userSpaceOnUse"
       x1="25.058096"
       y1="47.027729"
       x2="25.058096"
       y2="39.999443"
       gradientTransform="matrix(1.1428571,0,0,0.6428571,-3.428569,16.035716)" />
    <linearGradient
       id="linearGradient3600-9-51">
      <stop
         offset="0"
         style="stop-color:#f4f4f4;stop-opacity:1"
         id="stop3602-0-0" />
      <stop
         offset="1"
         style="stop-color:#dbdbdb;stop-opacity:1"
         id="stop3604-9-04" />
    </linearGradient>
    <linearGradient
       id="linearGradient3104-6">
      <stop
         offset="0"
         style="stop-color:#000000;stop-opacity:0.31782946"
         id="stop3106-3" />
      <stop
         offset="1"
         style="stop-color:#000000;stop-opacity:0.24031007"
         id="stop3108-9" />
    </linearGradient>
    <linearGradient
       xlink:href="#linearGradient3104-6"
       id="linearGradient3170"
       gradientUnits="userSpaceOnUse"
       gradientTransform="matrix(0.80749686,0,0,0.89471714,10.835333,-0.132171)"
       x1="-51.786404"
       y1="50.786446"
       x2="-51.786404"
       y2="2.9062471" />
    <linearGradient
       xlink:href="#linearGradient3600-9-51"
       id="linearGradient1512"
       gradientUnits="userSpaceOnUse"
       gradientTransform="matrix(0.97142632,0,0,0.93431938,-47.889132,1.4881727)"
       x1="74.838791"
       y1="4.535933"
       x2="74.838791"
       y2="49.779099" />
    <radialGradient
       cx="4.9929786"
       cy="43.5"
       r="2.5"
       fx="4.9929786"
       fy="43.5"
       id="radialGradient3013-6-5-76"
       xlink:href="#linearGradient3688-166-749"
       gradientUnits="userSpaceOnUse"
       gradientTransform="matrix(2.003784,0,0,0.89999994,29.98813,4.8500025)" />
    <radialGradient
       cx="4.9929786"
       cy="43.5"
       r="2.5"
       fx="4.9929786"
       fy="43.5"
       id="radialGradient3015-1-6-9"
       xlink:href="#linearGradient3688-166-749"
       gradientUnits="userSpaceOnUse"
       gradientTransform="matrix(2.003784,0,0,0.89999994,-18.01187,-83.149997)" />
    <linearGradient
       xlink:href="#linearGradient3155-40"
       id="linearGradient4374"
       gradientUnits="userSpaceOnUse"
       gradientTransform="matrix(0.87010488,-0.87437013,0.97341203,0.96856885,-14.793445,1012.398)"
       spreadMethod="pad"
       x1="23.575972"
       y1="25.356892"
       x2="23.575972"
       y2="31.210939" />
    <linearGradient
       id="linearGradient3155-40">
      <stop
         offset="0"
         style="stop-color:#181818;stop-opacity:1"
         id="stop2541" />
      <stop
         offset="0.13482948"
         style="stop-color:#dbdbdb;stop-opacity:1"
         id="stop2543" />
      <stop
         offset="0.20224422"
         style="stop-color:#a4a4a4;stop-opacity:1"
         id="stop2545" />
      <stop
         offset="0.26965895"
         style="stop-color:#ffffff;stop-opacity:1"
         id="stop2547" />
      <stop
         offset="0.44650277"
         style="stop-color:#8d8d8d;stop-opacity:1"
         id="stop2549" />
      <stop
         offset="0.57114136"
         style="stop-color:#959595;stop-opacity:1"
         id="stop2551" />
      <stop
         offset="0.72038066"
         style="stop-color:#cecece;stop-opacity:1"
         id="stop2553" />
      <stop
         offset="1"
         style="stop-color:#181818;stop-opacity:1"
         id="stop2555" />
    </linearGradient>
    <linearGradient
       xlink:href="#linearGradient3240-279"
       id="linearGradient4376"
       gradientUnits="userSpaceOnUse"
       gradientTransform="matrix(0.8455081,-0.84965288,1.1392015,1.1335335,-17.982021,1007.9239)"
       x1="30.037716"
       y1="24.989594"
       x2="30.037716"
       y2="30.000141" />
    <linearGradient
       id="linearGradient3240-279">
      <stop
         offset="0"
         style="stop-color:#565656;stop-opacity:1"
         id="stop2559" />
      <stop
         offset="0.5"
         style="stop-color:#9a9a9a;stop-opacity:1"
         id="stop2561" />
      <stop
         offset="1"
         style="stop-color:#545454;stop-opacity:1"
         id="stop2563" />
    </linearGradient>
    <linearGradient
       xlink:href="#linearGradient3223-789"
       id="linearGradient4378"
       gradientUnits="userSpaceOnUse"
       gradientTransform="matrix(0.8455081,-0.84965288,1.1392015,1.1335335,-18.224163,1008.1672)"
       x1="30.037716"
       y1="24.989594"
       x2="30.037716"
       y2="30.000141" />
    <linearGradient
       id="linearGradient3223-789">
      <stop
         offset="0"
         style="stop-color:#b1b1b1;stop-opacity:1"
         id="stop2567" />
      <stop
         offset="0.5"
         style="stop-color:#ffffff;stop-opacity:1"
         id="stop2569" />
      <stop
         offset="1"
         style="stop-color:#8f8f8f;stop-opacity:1"
         id="stop2571" />
    </linearGradient>
    <linearGradient
       xlink:href="#linearGradient3240-279"
       id="linearGradient4380"
       gradientUnits="userSpaceOnUse"
       gradientTransform="matrix(0.8455081,-0.84965288,1.1392015,1.1335335,-17.14058,1007.0783)"
       x1="30.037716"
       y1="24.989594"
       x2="30.037716"
       y2="30.000141" />
    <linearGradient
       xlink:href="#linearGradient3223-789"
       id="linearGradient4382"
       gradientUnits="userSpaceOnUse"
       gradientTransform="matrix(0.8455081,-0.84965288,1.1392015,1.1335335,-17.382723,1007.3217)"
       x1="30.037716"
       y1="24.989594"
       x2="30.037716"
       y2="30.000141" />
    <linearGradient
       xlink:href="#linearGradient3240-279"
       id="linearGradient4384"
       gradientUnits="userSpaceOnUse"
       gradientTransform="matrix(0.8455081,-0.84965288,1.1392015,1.1335335,-16.295072,1006.2287)"
       x1="30.037716"
       y1="24.989594"
       x2="30.037716"
       y2="30.000141" />
    <linearGradient
       xlink:href="#linearGradient3223-789"
       id="linearGradient4386"
       gradientUnits="userSpaceOnUse"
       gradientTransform="matrix(0.8455081,-0.84965288,1.1392015,1.1335335,-16.537214,1006.472)"
       x1="30.037716"
       y1="24.989594"
       x2="30.037716"
       y2="30.000141" />
    <linearGradient
       xlink:href="#linearGradient3290-678"
       id="linearGradient4388"
       gradientUnits="userSpaceOnUse"
       gradientTransform="matrix(0.8455081,-0.84965288,1.1392016,1.1335336,-18.303158,1008.2466)"
       x1="9"
       y1="29.056757"
       x2="9"
       y2="26.02973" />
    <linearGradient
       id="linearGradient3290-678">
      <stop
         offset="0"
         style="stop-color:#ece5a5;stop-opacity:1"
         id="stop2607" />
      <stop
         offset="1"
         style="stop-color:#fcfbf2;stop-opacity:1"
         id="stop2609" />
    </linearGradient>
    <linearGradient
       xlink:href="#linearGradient3191-577"
       id="linearGradient4390"
       gradientUnits="userSpaceOnUse"
       gradientTransform="matrix(0.74261149,0.03205228,0.03201284,0.74169563,12.45261,1003.4406)"
       x1="5.5178981"
       y1="37.371799"
       x2="9.5220556"
       y2="41.391716" />
    <linearGradient
       id="linearGradient3191-577">
      <stop
         offset="0"
         style="stop-color:#dbce48;stop-opacity:1"
         id="stop2613" />
      <stop
         offset="1"
         style="stop-color:#c5b625;stop-opacity:1"
         id="stop2615" />
    </linearGradient>
  </defs>
  <metadata
     id="metadata6654">
    <rdf:RDF>
      <cc:Work
         rdf:about="">
        <dc:format>image/svg+xml</dc:format>
        <dc:type
           rdf:resource="http://purl.org/dc/dcmitype/StillImage" />
      </cc:Work>
    </rdf:RDF>
  </metadata>
  <rect
     style="display:inline;opacity:0.4;fill:url(#radialGradient3013-6-5-76);fill-opacity:1;stroke:none;stroke-width:0.862764"
     id="rect2801-3-7-7-2"
     y="41.75"
     x="40"
     height="4.4999995"
     width="5" />
  <rect
     style="display:inline;opacity:0.4;fill:url(#radialGradient3015-1-6-9);fill-opacity:1;stroke:none;stroke-width:0.862764"
     id="rect3696-6-3-5-0"
     transform="scale(-1)"
     y="-46.25"
     x="-8"
     height="4.4999995"
     width="5" />
  <rect
     style="display:inline;opacity:0.4;fill:url(#linearGradient1191);fill-opacity:1;stroke:none;stroke-width:0.862764"
     id="rect3700-4-6-9-6"
     y="41.75"
     x="8"
     height="4.5"
     width="32" />
  <rect
     style="color:#000000;font-variation-settings:normal;display:inline;overflow:visible;visibility:visible;vector-effect:none;fill:none;fill-opacity:1;fill-rule:nonzero;stroke:url(#linearGradient3170);stroke-width:0.999922;stroke-linecap:butt;stroke-linejoin:round;stroke-miterlimit:4;stroke-dasharray:none;stroke-dashoffset:0;stroke-opacity:1;-inkscape-stroke:none;marker:none;enable-background:accumulate;stop-color:#000000"
     id="rect5505-21-1-2-8"
     y="5.4999952"
     x="4.5000153"
     ry="2.1033969"
     rx="2.098269"
     height="39"
     width="39" />
  <rect
     style="color:#000000;font-variation-settings:normal;display:inline;overflow:visible;visibility:visible;vector-effect:none;fill:url(#linearGradient1512);fill-opacity:1;fill-rule:nonzero;stroke:none;stroke-width:1;stroke-linecap:butt;stroke-linejoin:miter;stroke-miterlimit:4;stroke-dasharray:none;stroke-dashoffset:0;stroke-opacity:1;-inkscape-stroke:none;marker:none;enable-background:accumulate;stop-color:#000000"
     id="rect5505-21-1-7-2-9"
     y="6"
     x="5"
     ry="1.6034274"
     rx="1.5984207"
     height="38"
     width="38" />
  <rect
     style="display:inline;fill:none;stroke:url(#linearGradient3058-5);stroke-width:1;stroke-linecap:round;stroke-linejoin:round;stroke-miterlimit:4;stroke-dasharray:none;stroke-dashoffset:0;stroke-opacity:1"
     id="rect6741-2-8-4"
     y="6.4999952"
     x="5.5000153"
     ry="1.1021562"
     rx="1.0983615"
     height="37"
     width="37" />
  <g
     id="layer1"
     transform="matrix(0.94036384,0,0,0.94036634,2.8562913,-940.46016)"
     style="display:inline;stroke-width:1.06342">
    <path
       style="opacity:0.15;fill:#0c0c0c;fill-opacity:1;fill-rule:evenodd;stroke:none;stroke-width:1.40928"
       id="path2422"
       d="m 36.412519,1018.6859 -17.917575,10.8874 -3.454267,7.746 11.464486,-0.3415 15.683383,-11.1307 c 0.46949,-0.3008 -0.539421,-2.69 -2.657495,-4.6449 -0.94041,-1.1193 -2.628334,-2.7703 -3.118532,-2.5163 z" />
    <path
       style="display:inline;fill:url(#linearGradient4374);fill-opacity:1;stroke:#0c0c0c;stroke-width:0.531708;stroke-linecap:butt;stroke-linejoin:round;stroke-miterlimit:4;stroke-dasharray:none;stroke-dashoffset:0;stroke-opacity:1"
       id="rect2383"
       d="m 19.592341,1027.1945 c 0.590948,-0.4434 2.249052,0.3884 3.772778,1.9046 1.520083,1.5125 2.321033,3.1309 1.88763,3.7277 -0.0016,0 0.03729,0.033 0.0356,0.035 l 21.216977,-21.321 c 0.538679,-0.5413 -0.298289,-2.252 -1.87039,-3.8163 -1.572095,-1.5642 -3.286937,-2.3927 -3.825623,-1.8514 l -21.216968,21.321 z" />
    <path
       style="display:inline;opacity:0.8;fill:#ffb6ed;fill-opacity:1;stroke:#e28ccd;stroke-width:0.531708;stroke-linecap:butt;stroke-linejoin:round;stroke-miterlimit:4;stroke-dasharray:none;stroke-dashoffset:0;stroke-opacity:1"
       id="rect3175"
       d="m 38.219943,1008.4756 c 0.590947,-0.4434 2.249052,0.3884 3.772778,1.9045 1.520081,1.5126 2.321033,3.131 1.887628,3.7278 -0.0016,0 0.03729,0.033 0.0356,0.035 l 2.589363,-2.602 0.05288,-0.053 c 0.0013,0 -0.03724,-0.033 -0.03565,-0.035 0.433403,-0.5967 -0.367549,-2.2152 -1.88763,-3.7277 -1.523725,-1.5161 -3.181829,-2.3479 -3.772777,-1.9045 l -0.05285,0.053 -2.589366,2.602 h 4e-6 z" />
    <path
       style="display:inline;opacity:0.6;fill:#0c0c0c;fill-opacity:1;stroke:none;stroke-width:1.40928"
       id="path3208"
       d="m 19.592341,1027.1945 c 0.590948,-0.4434 2.249053,0.3884 3.772777,1.9046 1.520083,1.5125 2.321034,3.1309 1.88763,3.7277 -0.0016,0 0.03729,0.033 0.03561,0.035 l 14.611433,-14.6831 0.05285,-0.053 c 0.0017,0 -0.03725,-0.033 -0.0356,-0.035 0.433395,-0.5968 -0.367556,-2.2152 -1.887637,-3.7278 -1.523726,-1.5161 -3.181832,-2.3479 -3.77278,-1.9045 l -0.05285,0.053 -14.611429,14.683 z" />
    <path
       style="display:inline;fill:url(#linearGradient4376);fill-opacity:1;stroke:none;stroke-width:1.40928"
       id="path3233"
       d="m 35.317574,1011.3922 c 0.590946,-0.4434 2.249054,0.3884 3.772778,1.9045 1.520081,1.5125 2.321034,3.131 1.887628,3.7278 -0.0016,0 0.03729,0.033 0.0356,0.035 l 0.264221,-0.2655 c 0.0017,0 -0.03725,-0.033 -0.0356,-0.035 0.433405,-0.5967 -0.367547,-2.2152 -1.88763,-3.7277 -1.523724,-1.5161 -3.181831,-2.348 -3.772777,-1.9045 z" />
    <path
       style="display:inline;fill:url(#linearGradient4378);fill-opacity:1;stroke:none;stroke-width:1.40928"
       id="path3216"
       d="m 35.07543,1011.6355 c 0.590949,-0.4434 2.249056,0.3884 3.772779,1.9046 1.520084,1.5125 2.321035,3.1309 1.887629,3.7277 -0.0016,0 0.03728,0.033 0.0356,0.035 l 0.26422,-0.2656 c 0.0017,0 -0.03725,-0.033 -0.0356,-0.035 0.433409,-0.5968 -0.367544,-2.2152 -1.887628,-3.7278 -1.523724,-1.5161 -3.181829,-2.3479 -3.772779,-1.9045 z" />
    <path
       style="display:inline;fill:url(#linearGradient4380);fill-opacity:1;stroke:none;stroke-width:1.40928"
       id="path3248"
       d="m 36.159014,1010.5466 c 0.590948,-0.4434 2.249053,0.3884 3.772779,1.9046 1.520081,1.5125 2.321033,3.131 1.887629,3.7277 -0.0016,0 0.03728,0.033 0.0356,0.035 l 0.264221,-0.2655 c 0.0017,0 -0.03725,-0.033 -0.0356,-0.035 0.433404,-0.5968 -0.367547,-2.2152 -1.887631,-3.7278 -1.523724,-1.5161 -3.181827,-2.3479 -3.772778,-1.9045 z" />
    <path
       style="display:inline;fill:url(#linearGradient4382);fill-opacity:1;stroke:none;stroke-width:1.40928"
       id="path3250"
       d="m 35.916871,1010.79 c 0.59095,-0.4435 2.249056,0.3884 3.772779,1.9045 1.520083,1.5125 2.321035,3.131 1.88763,3.7277 -0.0016,0 0.03729,0.033 0.0356,0.035 l 0.26422,-0.2655 c 0.0017,0 -0.03725,-0.033 -0.0356,-0.035 0.433405,-0.5967 -0.367546,-2.2152 -1.887629,-3.7277 -1.523723,-1.5162 -3.181829,-2.348 -3.772779,-1.9046 z" />
    <path
       style="display:inline;fill:url(#linearGradient4384);fill-opacity:1;stroke:none;stroke-width:1.40928"
       id="path3256"
       d="m 37.004524,1009.697 c 0.590946,-0.4435 2.249051,0.3884 3.772777,1.9045 1.520081,1.5125 2.321033,3.131 1.887629,3.7277 -0.0016,0 0.03728,0.033 0.0356,0.035 l 0.264219,-0.2655 c 0.0017,0 -0.03725,-0.033 -0.0356,-0.035 0.433406,-0.5967 -0.367547,-2.2152 -1.887629,-3.7277 -1.523722,-1.5162 -3.181829,-2.348 -3.772777,-1.9045 z" />
    <path
       style="display:inline;fill:url(#linearGradient4386);fill-opacity:1;stroke:none;stroke-width:1.40928"
       id="path3258"
       d="m 36.762382,1009.9403 c 0.590945,-0.4434 2.249053,0.3884 3.772777,1.9045 1.520081,1.5126 2.321035,3.131 1.887628,3.7278 -0.0016,0 0.03729,0.033 0.0356,0.035 l 0.264221,-0.2655 c 0.0017,0 -0.03725,-0.033 -0.03559,-0.035 0.433405,-0.5967 -0.367547,-2.2152 -1.887629,-3.7277 -1.523724,-1.5161 -3.181831,-2.3479 -3.772778,-1.9045 z" />
    <path
       style="display:inline;fill:url(#linearGradient4388);fill-opacity:1;fill-rule:evenodd;stroke:url(#linearGradient4390);stroke-width:0.531708;stroke-linecap:butt;stroke-linejoin:miter;stroke-miterlimit:4;stroke-dasharray:none;stroke-opacity:1"
       id="path3270"
       d="m 15.526405,1036.8447 9.652615,-3.937 0.08224,-0.082 c 0.433404,-0.5967 -0.377993,-2.2153 -1.898075,-3.7278 -1.523726,-1.5162 -3.179871,-2.3434 -3.770819,-1.9 l -4.065958,9.6471 h -7e-6 z" />
    <path
       style="display:inline;fill:#0c0c0c;fill-opacity:1;fill-rule:evenodd;stroke:#0c0c0c;stroke-width:0.531708;stroke-linecap:butt;stroke-linejoin:miter;stroke-miterlimit:4;stroke-dasharray:none;stroke-opacity:1"
       id="path3281"
       d="m 16.627762,1034.2319 -1.101949,2.6025 2.632751,-1.0793 c -0.211011,-0.2528 -0.405809,-0.5095 -0.659157,-0.7616 -0.291671,-0.2902 -0.578556,-0.5257 -0.871645,-0.7616 z" />
  </g>
</svg>
