<?xml version="1.0" encoding="UTF-8" standalone="no"?>
<svg
   height="16"
   width="16"
   id="svg2"
   version="1.1"
   viewBox="0 0 16 16"
   xmlns="http://www.w3.org/2000/svg"
   xmlns:svg="http://www.w3.org/2000/svg"
   xmlns:rdf="http://www.w3.org/1999/02/22-rdf-syntax-ns#"
   xmlns:cc="http://creativecommons.org/ns#"
   xmlns:dc="http://purl.org/dc/elements/1.1/">
  <metadata
     id="metadata12">
    <rdf:RDF>
      <cc:Work
         rdf:about="">
        <dc:format>image/svg+xml</dc:format>
        <dc:type
           rdf:resource="http://purl.org/dc/dcmitype/StillImage" />
      </cc:Work>
    </rdf:RDF>
  </metadata>
  <defs
     id="defs10" />
  <g
     color="#000000"
     transform="translate(-932,-463.96)"
     id="g4">
    <path
       d="m 934,467.5 c 0,0 5,-2.557 5,1.537 v 3.923 h -0.5 c 0,0 -0.5,0 -0.5,0.5 v 6 c 0,0.5 0.5,0.5 0.5,0.5 h 3 c 0,0 0.5,0 0.5,-0.5 v -6 c 0,-0.5 -0.5,-0.5 -0.5,-0.5 H 941 v -4.146 c 0.01,-0.467 0.29,-1.72 1.485,-1.72 l 1.015,0.866 h 1.5 v -4 h -1.5 l -1.015,0.726 c 0,0 -2.22189,-0.7988 -3.64,-0.726 -1.39976,0.0719 -3.165,1.195 -4.845,3.54 z"
       fill="#666666"
       overflow="visible"
       style="marker:none"
       id="path6" />
  </g>
</svg>
