<?xml version="1.0" encoding="UTF-8" standalone="no"?>
<svg
   height="16"
   width="16"
   id="svg2"
   version="1.1"
   viewBox="0 0 16 16"
   xmlns="http://www.w3.org/2000/svg"
   xmlns:svg="http://www.w3.org/2000/svg"
   xmlns:rdf="http://www.w3.org/1999/02/22-rdf-syntax-ns#"
   xmlns:cc="http://creativecommons.org/ns#"
   xmlns:dc="http://purl.org/dc/elements/1.1/">
  <metadata
     id="metadata14">
    <rdf:RDF>
      <cc:Work
         rdf:about="">
        <dc:format>image/svg+xml</dc:format>
        <dc:type
           rdf:resource="http://purl.org/dc/dcmitype/StillImage" />
      </cc:Work>
    </rdf:RDF>
  </metadata>
  <defs
     id="defs12" />
  <g
     transform="translate(-832.00203,-444.004)"
     id="g2"
     style="fill:#666666;fill-opacity:1">
    <path
       color="#000000"
       d="m 838.207,453.004 -2.205,4 h 8 l -2.205,-4 z"
       fill="#666"
       opacity="0.25"
       overflow="visible"
       style="fill:#666666;fill-opacity:1;marker:none"
       id="path2" />
    <path
       id="rect22062"
       style="fill:#666666;fill-opacity:1;fill-rule:evenodd;stroke:none;stroke-width:1;stroke-linecap:round;stroke-linejoin:round;paint-order:markers fill stroke;stop-color:#000000"
       d="m 837.502,445.004 c -0.277,0 -0.5,0.223 -0.5,0.5 0,0.277 0.223,0.5 0.5,0.5 h 0.5 v 3.23438 l -3.75586,6.79882 c -0.72377,1.31238 0.25128,2.96567 1.75,2.9668 h 8.01172 c 1.49873,-0.001 2.47378,-1.65442 1.75,-2.9668 L 842.002,449.23838 V 446.004 h 0.5 c 0.277,0 0.5,-0.223 0.5,-0.5 0,-0.277 -0.223,-0.5 -0.5,-0.5 z m 1.5,1 h 2 v 3.36328 c -2e-5,0.0847 0.0215,0.16806 0.0625,0.24219 l 3.81836,6.91211 c 0.37854,0.68638 -0.0912,1.48183 -0.875,1.48242 h -8.01172 c -0.78384,-5.9e-4 -1.25353,-0.79604 -0.875,-1.48242 l 3.81836,-6.91211 c 0.041,-0.0741 0.0625,-0.15747 0.0625,-0.24219 z" />
  </g>
</svg>
