<?xml version="1.0" encoding="UTF-8" standalone="no"?>
<svg
   height="16"
   width="16"
   version="1.1"
   id="svg1"
   xmlns="http://www.w3.org/2000/svg"
   xmlns:svg="http://www.w3.org/2000/svg">
  <defs
     id="defs1" />
  <g
     transform="translate(-992,-440)"
     id="g1">
    <path
       d="m 994.5,441 c -0.822,0 -1.5,0.678 -1.5,1.5 v 11 c 0,0.822 0.678,1.5 1.5,1.5 h 11 c 0.822,0 1.5,-0.678 1.5,-1.5 v -11 c 0,-0.822 -0.678,-1.5 -1.5,-1.5 z m 0,1 h 11 c 0.286,0 0.5,0.214 0.5,0.5 v 11 c 0,0.286 -0.214,0.5 -0.5,0.5 h -11 a 0.488,0.488 0 0 1 -0.5,-0.5 v -11 c 0,-0.286 0.214,-0.5 0.5,-0.5 z m 4.701,2.002 v 1.187 l -0.176,0.063 c -0.082,0.03 -0.175,0.075 -0.275,0.123 l -0.168,0.082 -0.834,-0.832 c 0,-0.003 -0.01,-0.004 -0.012,-0.006 0,0.002 -0.011,0.004 -0.011,0.006 l -1.1,1.1 c 0.011,-0.011 0.011,0.03 0,0.02 l 0.832,0.835 -0.082,0.17 c -0.048,0.1 -0.092,0.192 -0.121,0.273 l -0.065,0.178 H 996 v 1.598 h 1.19 l 0.064,0.178 c 0.029,0.08 0.072,0.173 0.121,0.273 l 0.082,0.17 -0.832,0.836 c 0.011,-0.01 0.011,0.03 0,0.02 l 1.1,1.099 c -0.011,-0.01 0.033,-0.01 0.023,0 l 0.834,-0.832 0.168,0.082 c 0.099,0.047 0.193,0.093 0.275,0.123 l 0.176,0.062 v 1.188 h 1.6 v -1.188 l 0.177,-0.062 c 0.082,-0.03 0.174,-0.075 0.274,-0.123 l 0.172,-0.082 0.832,0.832 c -0.011,-0.01 0.034,-0.01 0.023,0 l 1.1,-1.1 c -0.012,0.011 -0.012,-0.03 0,-0.02 l -0.835,-0.835 0.082,-0.17 c 0.048,-0.1 0.092,-0.192 0.122,-0.274 l 0.064,-0.177 H 1004 V 447.2 h -1.188 l -0.064,-0.178 a 2.75,2.75 0 0 0 -0.12,-0.273 l -0.083,-0.17 0.834,-0.836 c -0.01,0.01 -0.01,-0.03 0,-0.02 l -1.1,-1.099 c 0.012,0.01 -0.033,0.01 -0.021,0 l -0.834,0.832 -0.17,-0.082 c -0.1,-0.048 -0.193,-0.093 -0.276,-0.123 l -0.175,-0.063 v -1.187 z m 0.801,2.666 c 0.733,0 1.332,0.6 1.332,1.332 0,0.733 -0.6,1.332 -1.332,1.332 -0.733,0 -1.334,-0.6 -1.334,-1.332 0,-0.733 0.601,-1.332 1.334,-1.332 z"
       fill="#666666"
       overflow="visible"
       style="marker:none"
       id="path1" />
  </g>
</svg>
