<?xml version="1.0" encoding="UTF-8" standalone="no"?>
<svg
   height="16"
   width="16"
   version="1.1"
   id="svg2"
   xmlns="http://www.w3.org/2000/svg"
   xmlns:svg="http://www.w3.org/2000/svg">
  <defs
     id="defs2" />
  <g
     transform="translate(-593,171)"
     id="g2">
    <path
       color="#000000"
       d="m 601,-171 a 8,8 0 1 0 0,16 8,8 0 0 0 0,-16 z m 0,1 a 7,7 0 0 1 7,7 c 0,1.972 -0.844,3.728 -2.156,5 -0.443,-1.727 -1.975,-3 -3.844,-3 h -2 c -1.869,0 -3.4,1.273 -3.844,3 -1.312,-1.272 -2.156,-3.028 -2.156,-5 a 7,7 0 0 1 7,-7 z"
       fill="#666666"
       overflow="visible"
       style="marker:none"
       id="path1" />
    <path
       color="#000000"
       d="m 601,-167.75 c -1.795,0 -3.25,1.4 -3.25,3.125 0,1.726 1.455,3.125 3.25,3.125 1.795,0 3.25,-1.4 3.25,-3.125 0,-1.726 -1.455,-3.125 -3.25,-3.125 z"
       fill="#666666"
       overflow="visible"
       style="marker:none"
       id="path2" />
  </g>
</svg>
