<?xml version="1.0" encoding="UTF-8" standalone="no"?>
<svg
   version="1.0"
   width="22"
   height="22"
   id="svg4431"
   xmlns:xlink="http://www.w3.org/1999/xlink"
   xmlns="http://www.w3.org/2000/svg"
   xmlns:svg="http://www.w3.org/2000/svg"
   xmlns:rdf="http://www.w3.org/1999/02/22-rdf-syntax-ns#"
   xmlns:cc="http://creativecommons.org/ns#"
   xmlns:dc="http://purl.org/dc/elements/1.1/">
  <metadata
     id="metadata16">
    <rdf:RDF>
      <cc:Work
         rdf:about="">
        <dc:format>image/svg+xml</dc:format>
        <dc:type
           rdf:resource="http://purl.org/dc/dcmitype/StillImage" />
      </cc:Work>
    </rdf:RDF>
  </metadata>
  <defs
     id="defs4433">
    <linearGradient
       id="linearGradient3587-6-5">
      <stop
         id="stop3589-9-2"
         style="stop-color:#000000;stop-opacity:1"
         offset="0" />
      <stop
         id="stop3591-7-4"
         style="stop-color:#363636;stop-opacity:1"
         offset="1" />
    </linearGradient>
    <linearGradient
       xlink:href="#linearGradient3587-6-5"
       id="linearGradient2390"
       gradientUnits="userSpaceOnUse"
       gradientTransform="matrix(0,0.7805424,-0.73368357,0,28.209924,-37.746194)"
       x1="50.925655"
       y1="11.648451"
       x2="73.986542"
       y2="11.648451" />
    <linearGradient
       xlink:href="#linearGradient3587-6-5"
       id="linearGradient1"
       gradientUnits="userSpaceOnUse"
       gradientTransform="translate(-1.998751,-0.99655945)"
       x1="9"
       y1="3"
       x2="9"
       y2="21" />
  </defs>
  <path
     style="display:inline;overflow:visible;visibility:visible;opacity:0.24;fill:none;stroke:#ffffff;stroke-width:1.7;stroke-linecap:butt;stroke-linejoin:miter;stroke-miterlimit:4;stroke-dasharray:none;stroke-dashoffset:0;stroke-opacity:1;marker:none;enable-background:accumulate"
     id="path3209-0"
     d="m 16.634142,4.8534406 c 0,0 2.517107,2.422712 2.517107,7.6349154 0,5.18658 -2.521378,7.665085 -2.521378,7.665085 M 13.769105,7.0989166 c 0,0 1.777264,1.744801 1.714032,5.4045244 -0.06376,3.690079 -1.742577,5.404524 -1.742577,5.404524 M 10.851249,9.2252998 c 0,0 0.947187,0.7949852 0.971329,3.2306472 0.02385,2.405297 -0.971329,3.325635 -0.971329,3.325635" />
  <path
     style="display:inline;opacity:0.24;fill:#ffffff;fill-opacity:1;fill-rule:evenodd;stroke:none"
     id="path2387-4-5"
     d="m 2.001249,10.003441 v 5 h 2 l 4,4 V 6.0034406 l -4,4.0000004 z" />
  <path
     style="display:inline;opacity:0.32;fill:url(#linearGradient1);fill-opacity:1;fill-rule:evenodd;stroke:none"
     id="path2387-3"
     d="m 2.001249,9.0034408 v 5.0000002 h 2 l 4,4 V 5.0034406 l -4,4.0000002 z" />
  <path
     style="display:inline;overflow:visible;visibility:visible;opacity:0.32;fill:none;stroke:url(#linearGradient2390);stroke-width:1.7;stroke-linecap:butt;stroke-linejoin:miter;stroke-miterlimit:4;stroke-dasharray:none;stroke-dashoffset:0;stroke-opacity:1;marker:none;enable-background:accumulate"
     id="path3209"
     d="m 16.634142,3.8534406 c 0,0 2.517107,2.422712 2.517107,7.6349154 0,5.18658 -2.521378,7.665085 -2.521378,7.665085 M 13.769105,6.0989166 c 0,0 1.777264,1.744801 1.714032,5.4045244 -0.06376,3.690079 -1.742577,5.404524 -1.742577,5.404524 M 10.851249,8.2252996 c 0,0 0.947187,0.7949852 0.971329,3.2306474 0.02385,2.405297 -0.971329,3.325635 -0.971329,3.325635" />
</svg>
