<?xml version="1.0" encoding="UTF-8" standalone="no"?>
<svg
   version="1.0"
   width="22"
   height="22"
   id="svg3218"
   xmlns:xlink="http://www.w3.org/1999/xlink"
   xmlns="http://www.w3.org/2000/svg"
   xmlns:svg="http://www.w3.org/2000/svg"
   xmlns:rdf="http://www.w3.org/1999/02/22-rdf-syntax-ns#"
   xmlns:cc="http://creativecommons.org/ns#"
   xmlns:dc="http://purl.org/dc/elements/1.1/">
  <metadata
     id="metadata20">
    <rdf:RDF>
      <cc:Work
         rdf:about="">
        <dc:format>image/svg+xml</dc:format>
        <dc:type
           rdf:resource="http://purl.org/dc/dcmitype/StillImage" />
      </cc:Work>
    </rdf:RDF>
  </metadata>
  <defs
     id="defs3220">
    <linearGradient
       id="linearGradient3587-6-5-3">
      <stop
         id="stop3589-9-2-2"
         style="stop-color:#000000;stop-opacity:1"
         offset="0" />
      <stop
         id="stop3591-7-4-73"
         style="stop-color:#363636;stop-opacity:1"
         offset="1" />
    </linearGradient>
    <linearGradient
       xlink:href="#linearGradient3587-6-5-3"
       id="linearGradient2396"
       gradientUnits="userSpaceOnUse"
       gradientTransform="matrix(0.4101105,0,0,0.5452071,-33.509578,0.0845009)"
       x1="95.494781"
       y1="7.181673"
       x2="95.494781"
       y2="34.699265" />
    <linearGradient
       xlink:href="#linearGradient3587-6-5-3"
       id="linearGradient2401"
       gradientUnits="userSpaceOnUse"
       gradientTransform="translate(-24.710843,-1.9586168)"
       x1="41.73494"
       y1="3.9481401"
       x2="41.73494"
       y2="20.989416" />
    <linearGradient
       xlink:href="#linearGradient3587-6-5-3"
       id="linearGradient2404"
       gradientUnits="userSpaceOnUse"
       gradientTransform="matrix(0.4101105,0,0,0.1982571,-33.509578,10.848909)"
       x1="121.69988"
       y1="10.850004"
       x2="121.69988"
       y2="31.026016" />
  </defs>
  <rect
     style="opacity:0.3;fill:none;stroke:#000000;stroke-width:0.5;stroke-linecap:round;stroke-linejoin:miter;stroke-miterlimit:4;stroke-opacity:1;stroke-dasharray:none;stroke-dashoffset:0;marker:none;visibility:visible;display:inline;overflow:visible;enable-background:accumulate"
     id="rect3236"
     transform="matrix(0,-1,1,0,0,0)"
     y="13.25"
     x="-17.75"
     ry="0.24999999"
     rx="0.25"
     height="5.4999995"
     width="12.5" />
  <rect
     style="opacity:0.6;fill:#ffffff;fill-opacity:1;fill-rule:nonzero;stroke:none;stroke-width:1;marker:none;visibility:visible;display:inline;overflow:visible;enable-background:accumulate"
     id="rect3296"
     y="14"
     x="14"
     ry="0"
     rx="0"
     height="4"
     width="4" />
  <path
     style="opacity:0.6;fill:none;stroke:#ffffff;stroke-width:1;stroke-linecap:round;stroke-linejoin:miter;stroke-miterlimit:4;stroke-opacity:1;stroke-dasharray:none;stroke-dashoffset:0;marker:none;visibility:visible;display:inline;overflow:visible;enable-background:accumulate"
     id="path3214"
     d="m 12.5,18.5 0,-12 c 0,-0.554 0.446,-1 1,-1 l 5,0 c 0.554,0 1,0.446 1,1 l 0,12 c 0,0.554 -0.446,1 -1,1 l -5,0 c -0.554,0 -1,-0.446 -1,-1 z M 14.50264,5.381549 c 7e-4,-0.32804 0.0015,-0.656076 0.0025,-0.984108 0.04076,-0.597825 0.649596,-0.976733 1.212194,-0.897474 0.532922,0.023433 1.176896,-0.124121 1.554865,0.363195 0.350761,0.438478 0.191405,1.0212 0.227797,1.537207" />
  <rect
     style="opacity:0.7;fill:url(#linearGradient2404);fill-opacity:1;fill-rule:nonzero;stroke:none;stroke-width:1;marker:none;visibility:visible;display:inline;overflow:visible;enable-background:accumulate"
     id="rect3728"
     y="13"
     x="14"
     ry="0"
     rx="0"
     height="4"
     width="4" />
  <path
     style="opacity:0.7;fill:none;stroke:url(#linearGradient2401);stroke-width:1;stroke-linecap:round;stroke-linejoin:miter;stroke-miterlimit:4;stroke-opacity:1;stroke-dasharray:none;stroke-dashoffset:0;marker:none;visibility:visible;display:inline;overflow:visible;enable-background:accumulate"
     id="rect2442"
     d="m 12.5,17.5 0,-12 c 0,-0.554 0.446,-1 1,-1 l 5,0 c 0.554,0 1,0.446 1,1 l 0,12 c 0,0.554 -0.446,1 -1,1 l -5,0 c -0.554,0 -1,-0.446 -1,-1 z M 14.50264,4.381549 c 7e-4,-0.32804 0.0015,-0.656076 0.0025,-0.984108 0.04076,-0.597825 0.649596,-0.976733 1.212194,-0.897474 0.532922,0.023433 1.176896,-0.124121 1.554865,0.363195 0.350761,0.438478 0.191405,1.0212 0.227797,1.537207" />
  <path
     style="display:inline;overflow:visible;visibility:visible;opacity:0.6;fill:#ffffff;fill-opacity:1;fill-rule:nonzero;stroke:none;stroke-width:1;marker:none;enable-background:accumulate"
     d="M 3,5 C 2.446,5 2,5.446 2,6 v 13 c 0,0.554 0.446,1 1,1 h 6 c 0.554,0 1,-0.446 1,-1 V 6 C 10,5.446 9.554,5 9,5 Z m 2.25,1 h 1.5 C 6.8885,6 7,6.1115 7,6.25 7,6.3885 6.8885,6.5 6.75,6.5 H 5.25 C 5.1115,6.5 5,6.3885 5,6.25 5,6.1115 5.1115,6 5.25,6 Z M 3.5,8 h 5 C 8.777,8 9,8.223 9,8.5 v 8 C 9,16.777 8.777,17 8.5,17 h -5 C 3.223,17 3,16.777 3,16.5 v -8 C 3,8.223 3.223,8 3.5,8 Z M 6,18 c 0.276142,0 0.5,0.223858 0.5,0.5 C 6.5,18.776142 6.276142,19 6,19 5.723858,19 5.5,18.776142 5.5,18.5 5.5,18.223858 5.723858,18 6,18 Z"
     id="rect2397-5" />
  <path
     style="display:inline;overflow:visible;visibility:visible;opacity:0.7;fill:url(#linearGradient2396);fill-opacity:1;fill-rule:nonzero;stroke:none;stroke-width:1;marker:none;enable-background:accumulate"
     d="M 3,4 C 2.446,4 2,4.446 2,5 v 13 c 0,0.554 0.446,1 1,1 h 6 c 0.554,0 1,-0.446 1,-1 V 5 C 10,4.446 9.554,4 9,4 Z m 2.25,1 h 1.5 C 6.8885,5 7,5.1115 7,5.25 7,5.3885 6.8885,5.5 6.75,5.5 H 5.25 C 5.1115,5.5 5,5.3885 5,5.25 5,5.1115 5.1115,5 5.25,5 Z M 3.5,7 h 5 C 8.777,7 9,7.223 9,7.5 v 8 C 9,15.777 8.777,16 8.5,16 h -5 C 3.223,16 3,15.777 3,15.5 v -8 C 3,7.223 3.223,7 3.5,7 Z M 6,17 c 0.276142,0 0.5,0.223858 0.5,0.5 C 6.5,17.776142 6.276142,18 6,18 5.723858,18 5.5,17.776142 5.5,17.5 5.5,17.223858 5.723858,17 6,17 Z"
     id="rect2397" />
</svg>
