<?xml version="1.0" encoding="UTF-8" standalone="no"?>
<svg
   version="1.0"
   width="22"
   height="22"
   id="svg2"
   xmlns:xlink="http://www.w3.org/1999/xlink"
   xmlns="http://www.w3.org/2000/svg"
   xmlns:svg="http://www.w3.org/2000/svg"
   xmlns:rdf="http://www.w3.org/1999/02/22-rdf-syntax-ns#"
   xmlns:cc="http://creativecommons.org/ns#"
   xmlns:dc="http://purl.org/dc/elements/1.1/">
  <metadata
     id="metadata48">
    <rdf:RDF>
      <cc:Work
         rdf:about="">
        <dc:format>image/svg+xml</dc:format>
        <dc:type
           rdf:resource="http://purl.org/dc/dcmitype/StillImage" />
      </cc:Work>
    </rdf:RDF>
  </metadata>
  <defs
     id="defs4">
    <linearGradient
       xlink:href="#linearGradient3587-6-5-3-0"
       id="linearGradient3298"
       gradientUnits="userSpaceOnUse"
       gradientTransform="matrix(0.4101105,0,0,0.5452071,-31.798735,-4.9568823)"
       x1="97.04393"
       y1="-0.079084992"
       x2="97.04393"
       y2="34.770058" />
    <linearGradient
       id="linearGradient3587-6-5-3-0">
      <stop
         id="stop3589-9-2-2-7"
         style="stop-color:#000000;stop-opacity:1"
         offset="0" />
      <stop
         id="stop3591-7-4-73-6"
         style="stop-color:#363636;stop-opacity:1"
         offset="1" />
    </linearGradient>
    <linearGradient
       xlink:href="#linearGradient3587-6-5-3-0"
       id="linearGradient3300"
       gradientUnits="userSpaceOnUse"
       gradientTransform="matrix(0.4101105,0,0,0.5452071,-31.798735,-4.9568823)"
       x1="97.04393"
       y1="12.760073"
       x2="97.04393"
       y2="34.770058" />
    <linearGradient
       xlink:href="#linearGradient3587-6-5-3-0"
       id="linearGradient13"
       x1="21.003721"
       y1="1.0035838"
       x2="21.003447"
       y2="20"
       gradientUnits="userSpaceOnUse" />
    <linearGradient
       xlink:href="#linearGradient3587-6-5-3-0"
       id="linearGradient12"
       x1="19.998207"
       y1="0.99684125"
       x2="19.998207"
       y2="19.998228"
       gradientUnits="userSpaceOnUse" />
  </defs>
  <g
     id="layer1"
     style="display:inline;enable-background:new"
     transform="translate(0,6)">
    <path
       style="color:#000000;display:inline;overflow:visible;visibility:visible;opacity:0.6;fill:#ffffff;fill-opacity:1;fill-rule:nonzero;stroke:none;stroke-width:1;marker:none;enable-background:accumulate"
       d="m 7,-4 c -1.662,0 -3,1.338 -3,3 v 8 c 0,1.662 1.338,3 3,3 1.662,0 3,-1.338 3,-3 V -1 C 10,-2.662 8.662,-4 7,-4 Z M 1,3 v 1 h 1 v 3 c 0,2.42375 1.717481,4.441543 4,4.90625 V 14 H 5 v 1 H 9 V 14 H 8 V 11.90625 C 10.28252,11.441543 12,9.42375 12,7 V 4 h 1 V 3 H 12 11 V 7 C 11,9.216 9.216,11 7,11 4.784,11 3,9.216 3,7 V 3 H 2 Z"
       id="path3122-6" />
    <path
       style="color:#000000;display:inline;overflow:visible;visibility:visible;opacity:0.7;fill:url(#linearGradient3298);fill-opacity:1;fill-rule:nonzero;stroke:none;stroke-width:1;marker:none;enable-background:accumulate"
       d="M 7,-5 C 5.338,-5 4,-3.662 4,-2 V 6 C 4,7.662 5.338,9 7,9 8.662,9 10,7.662 10,6 V -2 C 10,-3.662 8.662,-5 7,-5 Z"
       id="path3122" />
    <path
       style="color:#000000;display:inline;overflow:visible;visibility:visible;opacity:0.7;fill:url(#linearGradient3300);fill-opacity:1;fill-rule:nonzero;stroke:none;stroke-width:1;marker:none;enable-background:accumulate"
       d="m 1,2 v 1 h 1 v 3 c 0,2.42375 1.717481,4.441543 4,4.90625 V 13 H 5 v 1 H 9 V 13 H 8 V 10.90625 C 10.28252,10.441543 12,8.42375 12,6 V 3 h 1 V 2 H 12 11 V 6 C 11,8.216 9.216,10 7,10 4.784,10 3,8.216 3,6 V 2 H 2 Z"
       id="rect3004" />
    <g
       id="g3"
       transform="translate(0,-6)"
       style="display:inline">
      <circle
         color="#000000"
         cx="18.5"
         cy="18.5"
         fill="#666"
         overflow="visible"
         style="opacity:0.6;fill:#ffffff;fill-opacity:1;stroke-width:1;marker:none"
         id="circle1"
         r="2.5" />
      <circle
         color="#000000"
         cx="18.5"
         cy="11.5"
         fill="#666"
         overflow="visible"
         style="opacity:0.6;fill:#ffffff;fill-opacity:1;stroke-width:1;marker:none"
         id="circle2"
         r="2.5" />
      <ellipse
         color="#000000"
         cx="18.499994"
         cy="4.5000019"
         fill="#666"
         overflow="visible"
         style="opacity:0.6;fill:none;fill-opacity:1;stroke:#ffffff;stroke-width:0.999997;stroke-opacity:1;marker:none"
         id="circle3"
         rx="2"
         ry="2.0000019" />
    </g>
    <g
       id="g1"
       transform="translate(0,-6)">
      <circle
         color="#000000"
         cx="18.5"
         cy="17.5"
         fill="#666"
         overflow="visible"
         style="opacity:0.7;fill:url(#linearGradient13);fill-opacity:1;stroke-width:1;marker:none"
         id="ellipse8"
         r="2.5" />
      <circle
         color="#000000"
         cx="18.5"
         cy="10.5"
         fill="#666"
         overflow="visible"
         style="opacity:0.7;fill:url(#linearGradient12);fill-opacity:1;stroke-width:1;marker:none"
         id="ellipse10"
         r="2.5" />
      <ellipse
         color="#000000"
         cx="18.499994"
         cy="3.5000014"
         fill="#666"
         overflow="visible"
         style="opacity:0.4;fill:none;fill-opacity:1;stroke:#666666;stroke-width:1;stroke-opacity:1;marker:none"
         id="ellipse12"
         rx="2"
         ry="2.0000014" />
    </g>
  </g>
</svg>
