<?xml version="1.0" encoding="UTF-8" standalone="no"?>
<svg
   version="1.0"
   width="22"
   height="22"
   id="svg4431"
   xmlns:xlink="http://www.w3.org/1999/xlink"
   xmlns="http://www.w3.org/2000/svg"
   xmlns:svg="http://www.w3.org/2000/svg"
   xmlns:rdf="http://www.w3.org/1999/02/22-rdf-syntax-ns#"
   xmlns:cc="http://creativecommons.org/ns#"
   xmlns:dc="http://purl.org/dc/elements/1.1/">
  <metadata
     id="metadata16">
    <rdf:RDF>
      <cc:Work
         rdf:about="">
        <dc:format>image/svg+xml</dc:format>
        <dc:type
           rdf:resource="http://purl.org/dc/dcmitype/StillImage" />
      </cc:Work>
    </rdf:RDF>
  </metadata>
  <defs
     id="defs4433">
    <linearGradient
       id="linearGradient3587-6-5">
      <stop
         id="stop3589-9-2"
         style="stop-color:#000000;stop-opacity:1"
         offset="0" />
      <stop
         id="stop3591-7-4"
         style="stop-color:#363636;stop-opacity:1"
         offset="1" />
    </linearGradient>
    <linearGradient
       xlink:href="#linearGradient3587-6-5"
       id="linearGradient4068-2"
       gradientUnits="userSpaceOnUse"
       gradientTransform="matrix(1.0627318,0,0,1.0627318,-27.258345,7.1425844)"
       x1="39.971268"
       y1="-3.8651557"
       x2="39.971268"
       y2="12.195611" />
  </defs>
  <path
     style="color:#000000;display:inline;overflow:visible;visibility:visible;opacity:0.6;fill:#ffffff;fill-opacity:1;fill-rule:evenodd;stroke:none;stroke-width:1;stroke-dasharray:none;marker:none;enable-background:accumulate"
     d="M 5.6345435,3 C 5.2781787,3 5,3.4145814 5,3.9298902 V 5.0659167 C 5,5.5812255 5.2781787,6 5.6345435,6 H 9 v 5.003237 H 5.4507382 c -0.2306839,-0.0037 -0.4553497,0.03151 -0.6642072,0.09751 -0.2175593,0.06188 -0.393656,0.150705 -0.5645763,0.265682 -0.083148,0.06035 -0.1638435,0.128057 -0.2324726,0.199263 -0.1868771,0.185724 -0.3383558,0.395 -0.365314,0.630997 C 3.6052191,12.233399 2.0315323,18.35538 2,18.413033 v 0.89668 c 0.00124,0.812316 0.088208,1.630992 1.1032505,1.69029 H 18.897415 C 19.912457,20.940693 20.002157,20.206988 20,19.309713 V 18.41303 c -0.03152,-0.05764 -1.609932,-6.179635 -1.628886,-6.216344 -0.02696,-0.235997 -0.178436,-0.445273 -0.365314,-0.630997 -0.06863,-0.0712 -0.14932,-0.138917 -0.232473,-0.199263 -0.17092,-0.114977 -0.347018,-0.203805 -0.564577,-0.265682 -0.208855,-0.05941 -0.433522,-0.100813 -0.664206,-0.09751 H 13 V 6 h 3.365 c 0.356365,0 0.634994,-0.4187715 0.634994,-0.9340804 V 3.9298901 C 16.999994,3.4145814 16.721365,3 16.365,3 Z M 9,11.003237 h 4 L 12.9968,14 H 15.3 L 11,18 6.7,14 h 2.303192 z"
     id="path3499-3" />
  <path
     style="color:#000000;display:inline;overflow:visible;visibility:visible;opacity:0.7;fill:url(#linearGradient4068-2);fill-opacity:1;fill-rule:evenodd;stroke:none;stroke-width:1;stroke-dasharray:none;marker:none;enable-background:accumulate"
     d="M 5.6345435,2 C 5.2781787,2 5,2.4145814 5,2.9298902 V 4.0659167 C 5,4.5812255 5.2781787,5 5.6345435,5 H 9 v 5.003237 H 5.4507382 c -0.2306839,-0.0037 -0.4553497,0.03151 -0.6642072,0.09751 -0.2175593,0.06188 -0.393656,0.150705 -0.5645763,0.265682 -0.083148,0.06035 -0.1638435,0.128057 -0.2324726,0.199263 -0.1868771,0.185724 -0.3383558,0.395 -0.365314,0.630997 C 3.6052191,11.233399 2.0315323,17.35538 2,17.413033 v 0.89668 c 0.00124,0.812316 0.088208,1.630992 1.1032505,1.69029 H 18.897415 C 19.912457,19.940693 20.002157,19.206988 20,18.309713 V 17.41303 c -0.03152,-0.05764 -1.609932,-6.179635 -1.628886,-6.216344 -0.02696,-0.235997 -0.178436,-0.445273 -0.365314,-0.630997 -0.06863,-0.0712 -0.14932,-0.138917 -0.232473,-0.199263 -0.17092,-0.114977 -0.347018,-0.203805 -0.564577,-0.265682 -0.208855,-0.05941 -0.433522,-0.100813 -0.664206,-0.09751 H 13 V 5 h 3.365 c 0.356365,0 0.634994,-0.4187715 0.634994,-0.9340804 V 2.9298901 C 16.999994,2.4145814 16.721365,2 16.365,2 Z M 9,10.003237 h 4 L 12.9968,13 H 15.3 L 11,17 6.7,13 h 2.303192 z"
     id="path3499-6" />
</svg>
