<?xml version="1.0" encoding="UTF-8" standalone="no"?>
<svg
   width="64px"
   height="64px"
   id="svg4280"
   version="1.1"
   xmlns:xlink="http://www.w3.org/1999/xlink"
   xmlns="http://www.w3.org/2000/svg"
   xmlns:svg="http://www.w3.org/2000/svg"
   xmlns:rdf="http://www.w3.org/1999/02/22-rdf-syntax-ns#"
   xmlns:cc="http://creativecommons.org/ns#"
   xmlns:dc="http://purl.org/dc/elements/1.1/">
  <defs
     id="defs4282">
    <linearGradient
       id="linearGradient7">
      <stop
         style="stop-color:#185f9a;stop-opacity:1;"
         offset="0"
         id="stop7" />
      <stop
         style="stop-color:#599ec9;stop-opacity:1;"
         offset="1"
         id="stop8" />
    </linearGradient>
    <linearGradient
       id="linearGradient3707-319-631-407-324-3-8">
      <stop
         id="stop3760-7-3"
         style="stop-color:#185f9a;stop-opacity:1;"
         offset="0" />
      <stop
         id="stop3762-8-4"
         style="stop-color:#599ec9;stop-opacity:1;"
         offset="1" />
    </linearGradient>
    <linearGradient
       xlink:href="#linearGradient4011"
       id="linearGradient3096"
       gradientUnits="userSpaceOnUse"
       gradientTransform="matrix(1.5599999,0,0,1.5599999,-79.904284,-7.5572933)"
       x1="71.204407"
       y1="6.2375584"
       x2="71.204407"
       y2="44.340794" />
    <linearGradient
       id="linearGradient4011">
      <stop
         id="stop4013"
         style="stop-color:#ffffff;stop-opacity:1;"
         offset="0" />
      <stop
         offset="0.507761"
         style="stop-color:#ffffff;stop-opacity:0.23529412;"
         id="stop4015" />
      <stop
         id="stop4017"
         style="stop-color:#ffffff;stop-opacity:0.15686275;"
         offset="0.83456558" />
      <stop
         id="stop4019"
         style="stop-color:#ffffff;stop-opacity:0.39215687;"
         offset="1" />
    </linearGradient>
    <radialGradient
       xlink:href="#linearGradient2867-449-88-871-390-598-476-591-434-148-57-177-3-8"
       id="radialGradient3099"
       gradientUnits="userSpaceOnUse"
       gradientTransform="matrix(0,3.5379777,-3.7427586,-9.6298312e-8,63.62561,-23.287214)"
       cx="5.0450659"
       cy="8.4497671"
       fx="5.0450659"
       fy="8.4497671"
       r="19.99999" />
    <linearGradient
       id="linearGradient2867-449-88-871-390-598-476-591-434-148-57-177-3-8">
      <stop
         id="stop3750-8-9"
         style="stop-color:#90dbec;stop-opacity:1;"
         offset="0" />
      <stop
         id="stop3752-3-2"
         style="stop-color:#42baea;stop-opacity:1"
         offset="0.26238" />
      <stop
         id="stop3754-7-2"
         style="stop-color:#3689e6;stop-opacity:1;"
         offset="0.704952" />
      <stop
         id="stop3756-9-3"
         style="stop-color:#2b63a0;stop-opacity:1;"
         offset="1" />
    </linearGradient>
    <linearGradient
       xlink:href="#linearGradient3707-319-631-407-324-3-8"
       id="linearGradient3101"
       gradientUnits="userSpaceOnUse"
       gradientTransform="matrix(1.5191153,0,0,1.5191152,-4.4587635,-4.458767)"
       x1="24"
       y1="44"
       x2="24"
       y2="3.8990016" />
    <linearGradient
       id="linearGradient8838">
      <stop
         id="stop8840"
         style="stop-color:#000000;stop-opacity:1"
         offset="0" />
      <stop
         id="stop8842"
         style="stop-color:#000000;stop-opacity:0"
         offset="1" />
    </linearGradient>
    <radialGradient
       r="10.625"
       fy="4.625"
       fx="62.625"
       cy="4.625"
       cx="62.625"
       gradientTransform="matrix(2.9176471,0,0,0.988234,-150.71765,48.92941)"
       gradientUnits="userSpaceOnUse"
       id="radialGradient4278"
       xlink:href="#linearGradient8838" />
    <linearGradient
       xlink:href="#linearGradient4062-5"
       id="linearGradient4190-4"
       gradientUnits="userSpaceOnUse"
       x1="67.539658"
       y1="-31.183462"
       x2="67.539658"
       y2="-18.404579"
       gradientTransform="matrix(0.52561816,0,0,0.53767433,-2.3375951,61.402059)" />
    <linearGradient
       id="linearGradient4062-5">
      <stop
         id="stop4064-2"
         offset="0"
         style="stop-color:#000000;stop-opacity:1;" />
      <stop
         id="stop4066-5"
         offset="1"
         style="stop-color:#000000;stop-opacity:0;" />
    </linearGradient>
    <linearGradient
       id="linearGradient4062-5-5">
      <stop
         id="stop4064-2-2"
         offset="0"
         style="stop-color:#000000;stop-opacity:1;" />
      <stop
         id="stop4066-5-8"
         offset="1"
         style="stop-color:#000000;stop-opacity:0;" />
    </linearGradient>
    <linearGradient
       xlink:href="#linearGradient4062-5-5"
       id="linearGradient3926"
       gradientUnits="userSpaceOnUse"
       gradientTransform="matrix(0.44350427,0,0,0.45367681,2.871922,60.425918)"
       x1="65.915962"
       y1="-97.849678"
       x2="65.915962"
       y2="-43.094692" />
    <linearGradient
       xlink:href="#linearGradient7"
       id="linearGradient8"
       x1="31.997021"
       y1="59.663776"
       x2="32.005817"
       y2="0.36144865"
       gradientUnits="userSpaceOnUse"
       gradientTransform="translate(0,-2.0000006)" />
  </defs>
  <metadata
     id="metadata4285">
    <rdf:RDF>
      <cc:Work
         rdf:about="">
        <dc:format>image/svg+xml</dc:format>
        <dc:type
           rdf:resource="http://purl.org/dc/dcmitype/StillImage" />
      </cc:Work>
    </rdf:RDF>
  </metadata>
  <g
     id="layer1">
    <path
       style="display:inline;overflow:visible;visibility:visible;opacity:0.3;fill:url(#radialGradient4278);fill-opacity:1;fill-rule:evenodd;stroke:none;stroke-width:1;marker:none"
       id="path8836"
       d="m 63,53.499998 c 0,5.79899 -13.879175,10.5 -31,10.5 -17.120825,0 -31,-4.70101 -31,-10.5 0,-5.79899 13.879175,-10.5 31,-10.5 17.120825,0 31,4.70101 31,10.5 z" />
    <path
       style="color:#000000;display:inline;overflow:visible;visibility:visible;fill:url(#radialGradient3099);fill-opacity:1;fill-rule:nonzero;stroke:url(#linearGradient3101);stroke-width:0.76;stroke-linecap:round;stroke-linejoin:round;stroke-miterlimit:4;stroke-dasharray:none;stroke-dashoffset:0;stroke-opacity:1;marker:none;enable-background:accumulate"
       id="path2555-7"
       d="m 32.000004,2.3799999 c -16.343295,0 -29.6200039,13.2767031 -29.6200039,29.6199981 0,16.343295 13.2767089,29.620005 29.6200039,29.620001 16.343289,0 29.620014,-13.276706 29.619999,-29.620001 0,-16.343295 -13.27671,-29.6199981 -29.619999,-29.6199981 z" />
    <path
       style="color:#000000;display:inline;overflow:visible;visibility:visible;opacity:0.5;fill:none;stroke:url(#linearGradient3096);stroke-width:0.760001;stroke-linecap:round;stroke-linejoin:round;stroke-miterlimit:4;stroke-dasharray:none;stroke-dashoffset:0;stroke-opacity:1;marker:none;enable-background:accumulate"
       id="path8655-6"
       d="M 60.86,31.998975 C 60.86,47.938427 47.937986,60.859997 32.000364,60.859997 16.061284,60.859997 3.14,47.938281 3.14,31.998975 3.14,16.06026 16.061284,3.1399999 32.000364,3.1399999 47.937986,3.1399999 60.86,16.06026 60.86,31.998975 Z" />
    <path
       style="font-style:normal;font-variant:normal;font-weight:normal;font-stretch:normal;font-size:62.4583px;line-height:125%;font-family:Georgia;text-align:start;writing-mode:lr-tb;text-anchor:start;display:inline;fill:url(#linearGradient8);fill-opacity:1;stroke:none"
       id="text2315-7"
       d="m 28,14.999907 c -6.6e-4,4.02112 1.333919,13.338372 2.667,24.000171 h 2.666 c 1.329293,-10.661197 2.668098,-19.970903 2.667,-24 0.0021,-2.214658 -1.783762,-3.986262 -4,-4 -2.216238,-0.01374 -3.999055,1.794855 -4,3.999829 z m 0.5,32.000171 C 28.4988,48.853595 29.978698,50.503504 32,50.5 34.021302,50.4965 35.49705,49.024785 35.5,47.000078 35.5027,45.147209 34.019624,43.498099 32,43.5 c -2.019624,0.0019 -3.49882,1.646561 -3.5,3.500078 z" />
    <path
       style="font-style:normal;font-variant:normal;font-weight:normal;font-stretch:normal;font-size:62.4583px;line-height:125%;font-family:Georgia;text-align:start;writing-mode:lr-tb;text-anchor:start;display:inline;fill:#ffffff;fill-opacity:1;stroke:none"
       id="text2315"
       d="M 28,15.999829 C 27.99934,20.020949 29.333919,29.338201 30.667,40 h 2.666 C 34.662293,29.338803 36.001098,20.029097 36,16 c 0.0021,-2.214658 -1.783762,-3.986262 -4,-4 -2.216238,-0.01374 -3.999055,1.794855 -4,3.999829 z M 28.5,48 c 0.0041,1.861258 1.476219,3.498724 3.5,3.5 2.023781,0.0013 3.502976,-1.475292 3.5,-3.5 -0.0027,-1.862909 -1.479408,-3.485888 -3.5,-3.5 -2.020592,-0.01411 -3.504133,1.638742 -3.5,3.5 z" />
    <path
       style="color:#000000;display:inline;overflow:visible;visibility:visible;opacity:0.1;fill:none;stroke:url(#linearGradient4190-4);stroke-width:1.12071;stroke-linecap:butt;stroke-linejoin:miter;stroke-miterlimit:4;stroke-dasharray:none;stroke-dashoffset:0;stroke-opacity:1;marker:none;enable-background:accumulate"
       id="path3067"
       d="m 34.939645,48 a 2.939645,2.9396462 0 1 1 -5.87929,0 2.939645,2.9396462 0 1 1 5.87929,0 z" />
    <path
       style="color:#000000;font-style:normal;font-variant:normal;font-weight:normal;font-stretch:normal;font-size:62.4583px;line-height:125%;font-family:Georgia;text-align:start;writing-mode:lr-tb;text-anchor:start;display:inline;overflow:visible;visibility:visible;opacity:0.1;fill:none;stroke:url(#linearGradient3926);stroke-width:1;stroke-linecap:butt;stroke-linejoin:miter;stroke-miterlimit:4;stroke-dasharray:none;stroke-dashoffset:0;stroke-opacity:1;marker:none;enable-background:accumulate"
       d="m 32,12.5 c -1.497045,8.7e-4 -3.503231,1.183449 -3.5,3.5 0.696356,6.975887 2.008273,16.514648 2.607,23.5 H 32.89 C 33.606159,32.494949 34.945032,23.021487 35.5,16 35.501486,13.656177 33.497045,12.49913 32,12.5 Z"
       id="path3921" />
  </g>
</svg>
