<?xml version="1.0" encoding="UTF-8" standalone="no"?>
<svg
   version="1.1"
   width="64"
   height="64"
   id="svg3489"
   xmlns:xlink="http://www.w3.org/1999/xlink"
   xmlns="http://www.w3.org/2000/svg"
   xmlns:svg="http://www.w3.org/2000/svg"
   xmlns:rdf="http://www.w3.org/1999/02/22-rdf-syntax-ns#"
   xmlns:cc="http://creativecommons.org/ns#"
   xmlns:dc="http://purl.org/dc/elements/1.1/">
  <defs
     id="defs3491">
    <linearGradient
       id="linearGradient3820-7-2">
      <stop
         id="stop3822-2-6"
         style="stop-color:#000000;stop-opacity:1"
         offset="0" />
      <stop
         id="stop3824-1-2"
         style="stop-color:#000000;stop-opacity:0"
         offset="1" />
    </linearGradient>
    <radialGradient
       r="10.625"
       fy="4.625"
       fx="62.625"
       cy="4.625"
       cx="62.625"
       gradientTransform="matrix(2.9176471,0,0,0.988234,-150.71765,48.92941)"
       gradientUnits="userSpaceOnUse"
       id="radialGradient4278"
       xlink:href="#linearGradient3820-7-2" />
    <radialGradient
       xlink:href="#linearGradient2867-449-88-871-390-598-476-591-434-148-57-177-3-8"
       id="radialGradient3099"
       gradientUnits="userSpaceOnUse"
       gradientTransform="matrix(0,3.5379777,-3.7427586,-9.6298312e-8,63.62561,-23.287214)"
       cx="5.0450659"
       cy="8.4497671"
       fx="5.0450659"
       fy="8.4497671"
       r="19.99999" />
    <linearGradient
       id="linearGradient2867-449-88-871-390-598-476-591-434-148-57-177-3-8">
      <stop
         id="stop3750-8-9"
         style="stop-color:#90dbec;stop-opacity:1;"
         offset="0" />
      <stop
         id="stop3752-3-2"
         style="stop-color:#42baea;stop-opacity:1"
         offset="0.26238" />
      <stop
         id="stop3754-7-2"
         style="stop-color:#3689e6;stop-opacity:1;"
         offset="0.704952" />
      <stop
         id="stop3756-9-3"
         style="stop-color:#2b63a0;stop-opacity:1;"
         offset="1" />
    </linearGradient>
    <linearGradient
       xlink:href="#linearGradient3707-319-631-407-324-3-8"
       id="linearGradient3101"
       gradientUnits="userSpaceOnUse"
       gradientTransform="matrix(1.5191153,0,0,1.5191152,-4.4587635,-4.458767)"
       x1="24"
       y1="44"
       x2="24"
       y2="3.8990016" />
    <linearGradient
       id="linearGradient3707-319-631-407-324-3-8">
      <stop
         id="stop3760-7-3"
         style="stop-color:#185f9a;stop-opacity:1;"
         offset="0" />
      <stop
         id="stop3762-8-4"
         style="stop-color:#599ec9;stop-opacity:1;"
         offset="1" />
    </linearGradient>
    <linearGradient
       xlink:href="#linearGradient4011"
       id="linearGradient3096"
       gradientUnits="userSpaceOnUse"
       gradientTransform="matrix(1.5599999,0,0,1.5599999,-79.904284,-7.5572933)"
       x1="71.204407"
       y1="6.2375584"
       x2="71.204407"
       y2="44.340794" />
    <linearGradient
       id="linearGradient4011">
      <stop
         id="stop4013"
         style="stop-color:#ffffff;stop-opacity:1;"
         offset="0" />
      <stop
         offset="0.507761"
         style="stop-color:#ffffff;stop-opacity:0.23529412;"
         id="stop4015" />
      <stop
         id="stop4017"
         style="stop-color:#ffffff;stop-opacity:0.15686275;"
         offset="0.83456558" />
      <stop
         id="stop4019"
         style="stop-color:#ffffff;stop-opacity:0.39215687;"
         offset="1" />
    </linearGradient>
  </defs>
  <metadata
     id="metadata3494">
    <rdf:RDF>
      <cc:Work
         rdf:about="">
        <dc:format>image/svg+xml</dc:format>
        <dc:type
           rdf:resource="http://purl.org/dc/dcmitype/StillImage" />
        <dc:title />
      </cc:Work>
    </rdf:RDF>
  </metadata>
  <g
     id="layer1">
    <path
       style="display:inline;overflow:visible;visibility:visible;opacity:0.3;fill:url(#radialGradient4278);fill-opacity:1;fill-rule:evenodd;stroke:none;stroke-width:1;marker:none"
       id="path8836"
       d="m 63,53.499998 c 0,5.79899 -13.879175,10.5 -31,10.5 -17.120825,0 -31,-4.70101 -31,-10.5 0,-5.79899 13.879175,-10.5 31,-10.5 17.120825,0 31,4.70101 31,10.5 z" />
    <path
       style="color:#000000;display:inline;overflow:visible;visibility:visible;fill:url(#radialGradient3099);fill-opacity:1;fill-rule:nonzero;stroke:url(#linearGradient3101);stroke-width:0.76;stroke-linecap:round;stroke-linejoin:round;stroke-miterlimit:4;stroke-dasharray:none;stroke-dashoffset:0;stroke-opacity:1;marker:none;enable-background:accumulate"
       id="path2555-7"
       d="m 32.000004,2.3799999 c -16.343295,0 -29.6200039,13.2767031 -29.6200039,29.6199981 0,16.343295 13.2767089,29.620005 29.6200039,29.620001 16.343289,0 29.620014,-13.276706 29.619999,-29.620001 0,-16.343295 -13.27671,-29.6199981 -29.619999,-29.6199981 z" />
    <path
       style="color:#000000;display:inline;overflow:visible;visibility:visible;opacity:0.5;fill:none;stroke:url(#linearGradient3096);stroke-width:0.760001;stroke-linecap:round;stroke-linejoin:round;stroke-miterlimit:4;stroke-dasharray:none;stroke-dashoffset:0;stroke-opacity:1;marker:none;enable-background:accumulate"
       id="path8655-6"
       d="M 60.86,31.998975 C 60.86,47.938427 47.937986,60.859997 32.000364,60.859997 16.061284,60.859997 3.14,47.938281 3.14,31.998975 3.14,16.06026 16.061284,3.1399999 32.000364,3.1399999 47.937986,3.1399999 60.86,16.06026 60.86,31.998975 Z" />
    <path
       style="color:#000000;font-style:normal;font-weight:bold;font-size:72px;font-family:'Standard Symbols L';clip-rule:nonzero;display:inline;overflow:visible;visibility:visible;opacity:0.05;isolation:auto;mix-blend-mode:normal;color-interpolation:sRGB;color-interpolation-filters:linearRGB;solid-color:#000000;solid-opacity:1;fill:#000000;fill-opacity:1;fill-rule:nonzero;stroke:none;stroke-width:1;stroke-linecap:butt;stroke-linejoin:miter;stroke-miterlimit:4;stroke-dasharray:none;stroke-dashoffset:0;stroke-opacity:1;marker:none;color-rendering:auto;image-rendering:auto;shape-rendering:auto;text-rendering:auto;enable-background:accumulate"
       id="path3159"
       d="m 30.537984,13.591256 c -4.241838,0.425073 -8.452173,2.308718 -9.970214,6.00992 -0.576464,1.347827 -0.568859,2.952059 0,4.411906 0.56886,1.459847 1.937115,2.813893 3.856076,2.813893 1.104065,0 2.052034,-0.4162 2.674935,-1.042182 0.622902,-0.625983 0.9171,-1.413697 1.007444,-2.153845 0.13899,-1.138721 -0.259361,-2.044063 -0.416873,-2.605456 0.05413,0.192931 0.04042,-0.194086 0.277915,-0.59057 0.237501,-0.396484 0.628858,-0.806623 0.903225,-0.972704 0.310852,-0.188167 0.661425,-0.327523 0.937964,-0.416873 0.276539,-0.08936 0.396769,-0.09022 0.59057,-0.138958 2.406325,-0.604992 4.914438,0.842484 5.870963,2.39702 0.388238,0.630959 0.406583,1.503186 0.03474,2.709675 -0.371844,1.20649 -1.112787,2.645413 -2.049626,4.064512 -1.946084,2.947889 -4.247538,6.411 -4.238209,10.387088 0,1.284623 -0.117774,1.748601 0,2.535977 0.05034,0.336515 0.253822,0.628355 0.451612,0.799007 0.19779,0.170652 0.388895,0.255946 0.555831,0.312655 0.333872,0.113417 0.597601,0.129818 0.903225,0.138958 0.611247,0.01828 1.279257,-0.05824 1.875929,-0.173697 a 1.0977816,1.0977816 0 0 0 0.903225,-1.111662 c -0.08705,-3.250784 0.530393,-6.089444 3.300245,-8.198504 a 1.0977816,1.0977816 0 0 0 0.03474,-0.03474 c 1.675797,-1.366225 3.337867,-2.893955 4.585604,-4.689822 1.234642,-1.77702 2.045927,-3.860658 1.875929,-6.114138 h 0.03474 c -5.1e-4,-0.02662 -0.03389,-0.04293 -0.03474,-0.06948 -0.07205,-2.262138 -1.330774,-4.226596 -3.126548,-5.627786 -1.800116,-1.404579 -4.145355,-2.292911 -6.60049,-2.535978 -0.02228,-0.0032 -0.04716,0.0031 -0.06948,0 -1.340074,-0.189297 -2.762947,-0.245092 -4.168731,-0.104218 z m 1.736971,30.918085 c -3.63106,-0.148589 -6.148792,4.144894 -3.995033,7.017363 0.0042,0.0064 -0.0042,0.02829 0,0.03474 0.01705,0.02234 0.01712,0.04731 0.03474,0.06948 l 0.03474,-0.03474 c 1.046761,1.518832 2.872663,2.069685 4.516124,1.841189 1.651975,-0.229678 3.25282,-1.282825 3.786597,-3.057069 l 0.06948,0.03474 c 0.01253,-0.03434 -0.01154,-0.06982 0,-0.104219 0.940982,-2.805247 -1.359136,-5.799138 -4.377167,-5.801483 -0.0238,-1.9e-5 -0.0456,-3.52e-4 -0.06948,0 z" />
    <path
       style="color:#000000;font-style:normal;font-weight:bold;font-size:72px;font-family:'Standard Symbols L';clip-rule:nonzero;display:inline;overflow:visible;visibility:visible;opacity:0.15;isolation:auto;mix-blend-mode:normal;color-interpolation:sRGB;color-interpolation-filters:linearRGB;solid-color:#000000;solid-opacity:1;fill:#000000;fill-opacity:1;fill-rule:nonzero;stroke:none;stroke-width:1;stroke-linecap:butt;stroke-linejoin:miter;stroke-miterlimit:4;stroke-dasharray:none;stroke-dashoffset:0;stroke-opacity:1;marker:none;color-rendering:auto;image-rendering:auto;shape-rendering:auto;text-rendering:auto;enable-background:accumulate"
       id="path2502"
       d="m 33.609558,41.003251 c -0.09182,-3.428959 0.642504,-6.757746 3.739169,-9.115653 3.27087,-2.666641 6.420978,-6.002974 6.088079,-9.935754 -0.07269,-3.79281 -4.296907,-6.764891 -8.848194,-7.192224 -5.11946,-0.741953 -11.313975,1.092806 -13.029471,5.275433 -0.870062,2.034287 -0.06323,5.684037 2.856685,5.684037 1.707863,0 2.492292,-1.154154 2.621161,-2.20993 0.0975,-0.798834 -0.215988,-1.512187 -0.401123,-2.172029 -0.210952,-0.751849 0.689583,-2.20901 1.670387,-2.802715 0.819576,-0.496111 1.677062,-0.662467 1.803459,-0.694248 2.943325,-0.740003 5.877396,0.894566 7.101543,2.884039 1.224147,1.98947 -0.123267,5.007113 -2.060542,7.94165 -1.937273,2.934542 -4.016315,6.267579 -4.008009,9.807814 0,1.347769 -0.114787,1.805637 -0.03323,2.350909 0.06517,0.435658 1.444085,0.383012 2.500084,0.178671 z m -1.343241,4.615195 c -2.814285,-0.159829 -4.762159,3.17781 -3.071477,5.304338 1.50986,2.3479 5.743157,1.768302 6.468743,-0.890459 0.754347,-2.067526 -1.061,-4.448393 -3.397265,-4.413882 z" />
    <path
       style="color:#000000;font-style:normal;font-weight:bold;font-size:72px;font-family:'Standard Symbols L';display:inline;overflow:visible;visibility:visible;fill:#ffffff;fill-opacity:1;fill-rule:nonzero;stroke:none;marker:none;enable-background:accumulate"
       id="path3298"
       d="m 33.609558,39.891589 c -0.09182,-3.428959 0.642504,-6.757746 3.739169,-9.115653 3.27087,-2.66664 6.420978,-6.002973 6.088079,-9.935754 -0.07269,-3.79281 -4.296907,-6.76489 -8.848194,-7.192224 -5.11946,-0.741953 -11.313975,1.092807 -13.029471,5.275433 -0.870062,2.034287 -0.06323,5.684038 2.856685,5.684038 1.707863,0 2.492292,-1.154154 2.621161,-2.20993 0.0975,-0.798834 -0.215988,-1.512188 -0.401123,-2.17203 -0.210952,-0.751849 0.689583,-2.209009 1.670387,-2.802714 0.819576,-0.496111 1.677062,-0.662467 1.803459,-0.694248 2.943325,-0.740003 5.877396,0.894566 7.101543,2.884039 1.224147,1.989469 -0.123267,5.007112 -2.060542,7.941649 -1.937273,2.934542 -4.016315,6.267579 -4.008009,9.807814 0,1.34777 -0.114787,1.805637 -0.03323,2.35091 0.06517,0.435657 1.444085,0.383011 2.500084,0.17867 z m -1.343241,4.615195 c -2.814285,-0.159829 -4.762159,3.17781 -3.071477,5.304339 1.50986,2.3479 5.743157,1.768302 6.468743,-0.890459 0.754347,-2.067527 -1.061,-4.448394 -3.397265,-4.413882 z" />
  </g>
</svg>
